<svg xmlns="http://www.w3.org/2000/svg" viewBox="0 0 386.7 262.3"><defs><style>.cls-2{fill:#ffd555}.cls-5{fill:none}.cls-6{fill:#3d6d84}.cls-7{fill:#42515a}</style></defs><g id="Layer_5" data-name="Layer 5"><circle id="Ellipse_289" cx="203.6" cy="129" r="115" data-name="Ellipse 289" style="fill:#c3e3f2"/><g id="Group_369" data-name="Group 369"><path d="M344 223.1a6.88 6.88 0 0 0-6.7-2.7 1.45 1.45 0 0 0-.2-.7c-11.7-14.3-22.8-29.1-34.6-43.3-12.5-15.1-24.7-30.6-37.8-45.2a6.4 6.4 0 0 1-1.9-1.8c-2.3-3.6-5.4-6.8-8.1-10.1-2.3-2.8-4.7-4.8-5.8-8a2.8 2.8 0 0 0-1.5-.4h-.2l-2.3-2.9c-1.3-1.6-2.6-3.2-4-4.7a5.32 5.32 0 0 1-3.3 3.4q2.4 3.6 5.1 7.2a.37.37 0 0 0-.3.1c-1.1.8-.3 2.9.6 4.2a.78.78 0 0 0 .2.8c23.2 25.3 44.5 52.2 66.1 78.8 7.3 8.9 14.5 17.9 22 26.6a6.2 6.2 0 0 0-.7 1.9 6.39 6.39 0 0 0 4.4 7.8 3.6 3.6 0 0 0 1 .2 6.5 6.5 0 0 0 2.4-.1 8.25 8.25 0 0 0 3.2-1.4c3.4-2.2 4.5-6.7 2.4-9.7" class="cls-2"/><ellipse id="Ellipse_290" cx="337.7" cy="227.42" class="cls-2" data-name="Ellipse 290" rx="6.8" ry="6" transform="rotate(-35 335.716 227.788)"/></g><path id="Path_111797" d="M284 79.3a4 4 0 0 0-.5.1 1.4 1.4 0 0 0-.6.2c-.1 0-.1 0-.2.1q-36.6 9.15-73.2 18.4a2.2 2.2 0 0 1-.5.3c-8.4 3.8-17.8 3.3-26.5 6.1a47.4 47.4 0 0 1-7.2 1.8c-3.1 2.4-8.2 3.4-11.8 1.1a3 3 0 0 1-1.6.5 2.56 2.56 0 0 1-2.6-2.5 1.3 1.3 0 0 1 .1-.6c-1.4-.6-2.7-1.3-4-2 0 .1 0 .1-.1.2a33 33 0 0 1-7.7.6c-1.8.5-3.6 1-5.5 1.4a1.7 1.7 0 0 1-.7.1c-.6.5-1.2 1-1.8 1.6a10 10 0 0 1 .1 1.7c-1.8.8-2.7 4.5-4.6 4.5a4.92 4.92 0 0 1-2.8 2.3 12.8 12.8 0 0 1-3.9.2 2 2 0 0 1-.8-.1.6.6 0 0 1-.4.1c-.4 2.1-3.5 3.5-6.3 2.9a2.75 2.75 0 0 1-1.5-.8 12.7 12.7 0 0 0-1.9 1.3 22 22 0 0 1-3.2 2.1 1.85 1.85 0 0 1-1.2.7c-.2.1-.5.1-.7.2a7.8 7.8 0 0 1-2.1.4l-1.7.3c-.3 0-.5.1-.8.1l.1 1a.71.71 0 0 0 .3.6c-.2.1-.3 1.3-.5 1.4-11-5.1-23.3-7.8-35.3-5.7a44.4 44.4 0 0 0-11.2 3.6c-3.2 1.6-8.1 2.9-9.9 6.2a.66.66 0 0 0 .2.7 5.7 5.7 0 0 0-.8.7 32.8 32.8 0 0 0-7.1 8.2 7.7 7.7 0 0 1-1.4 2.1c-1 1.1-3.6 1.3-4.7 2.5a59 59 0 0 0-3.7 4.7c-.7 1-.3 3.2-.3 4.5a5.19 5.19 0 0 0 2.4 4.7 2.7 2.7 0 0 0 1.2.6c-1.3 11.5 1 24.6 6.7 37.4a4.91 4.91 0 0 0-3.5 2.3 25 25 0 0 0-1.7 2.7 19 19 0 0 1-1.2 1.8.76.76 0 0 0-.5.2c-1.5 2.1-4.2 2.9-6.3 4.4-1.2.8-2.7 2.1-2.8 3.7-.1.1-.1.1-.1.2-.7 2.5 2.3 5 3.9 6.5a43 43 0 0 0 8 6c6.2 3.5 12.3-3.1 16.8-6.7.7.9 1.4 1.7 2.1 2.6 17.1 20.3 39.9 31.7 59.5 31.7 9.9 0 19-2.9 26.3-9l.6-.6a15 15 0 0 1 1.3-.9c2.7-2.5 5.3-5 7.8-7.8.3-.4.6-.7 1-1.2a49 49 0 0 0 3.3-5.4 5 5 0 0 0 .2-1.3 2.6 2.6 0 0 1 .4-1.5c2.3-3.8 2.5-8.3 3.5-12.5a48.6 48.6 0 0 0 .9-12c-.3-2.8-.7-5.6-.9-8.4l-.3-.6a93 93 0 0 0-3.4-9.3c-1-2.6-2.5-4.6-2.7-7.4-2.8 3.4-7.4-9.6-7.9-12.7.7-2.7 3.2-9.4 5.9-9.5.6 0 .6-.3 1 .3a8.5 8.5 0 0 0 1.4-1.9 15 15 0 0 1 1.4-2.4l.1-.1a2.4 2.4 0 0 1-.7-1.8 4.84 4.84 0 0 0-.7-2.6c-1-1.5.1-3.4 1.6-3.9a36 36 0 0 1 4.7-1.3c.2 0 .4-.1.6-.1a2.16 2.16 0 0 1 2.5-1.8c2.3.2 2.9-1.5 3.9-3.2 1.3-2.1 3-4.1 5.6-4.5a2.46 2.46 0 0 1 1.2.1 23 23 0 0 1 4.4-1.6c7.3-1.9 14.5-4.3 21.9-5.5a74 74 0 0 1 8.1-.7l-.3-.6c.9-.2 1.8-.5 2.6-.7 19-4.8 37.8-9.4 56.8-14.3 6.1-1.6 12.3-3.1 18.3-4.9a1.3 1.3 0 0 0 .5-.3c-8.6-2.3-11.1-13.6-4.9-20m-150.5 96c.1 0 .2.1.3.1s.3-.2.4-.2c-.4.2.4-.3.6-.5l.9-.6a4.77 4.77 0 0 1 3.5-.5 2.37 2.37 0 0 1 1.8 1.8 2.72 2.72 0 0 1 1 2.9 12.6 12.6 0 0 1 1.3 2.6 2.2 2.2 0 0 1 .1.8 13.35 13.35 0 0 1 2.8 4.7c.6 2.4 1.4 9.1 1.4 9.1s-22.6-3.9-31.5-9.1c-1.2-1.4 1.5-4.7 4-4.9 3.9-2.9 13.4-6.2 13.4-6.2m-23.1-3.5c.1-1.3-.2-1.7.8-2.3s2.9-2 4.4-2.1l.6.6a29 29 0 0 1 3.2 2.9 3.4 3.4 0 0 1 1.2.6c1.6 1.1.2 3.7-1.5 2.8l-.3.1a5 5 0 0 1-.8.7 10.3 10.3 0 0 1-2.5.7c-1.4.5-2.6 1.3-3.9.1a3.6 3.6 0 0 1-.7-1 1.85 1.85 0 0 1-.7-1.2 11 11 0 0 1 .2-1.9m-24.1-21.2c-.8 4.4-.3 6.4-1.4 5.8-2.1-1-7.7-7.6 2.3-7.7 3 1 1 .7-.9 1.9m-3.5-20.4c-.9 2.1-7 2.5-10.5 3.5-7.8-2.4 3.8-5 10.5-3.5m-18.2 23.9a8.16 8.16 0 0 1 10.5.1 6.7 6.7 0 0 0 1.8 4.5 9.3 9.3 0 0 0 1.4 1.4l.6.6.2.2c.1.1.2.2.2.3.3.5-.4.8-.1 1 .3 3.7-.8 3.5-3.8 1.3-2.5-1.8-12.6-4.8-10.8-9.4m-.1 28c-1 1-2.1 2.1-3.1 3.2-.2-.1-.3-.1-.4-.3a1.7 1.7 0 0 0 .1.7 33 33 0 0 0-3.2 4.2c-3.1-.5-1.3-4.7-3.2-6.6-3.5-6.2 7.7-4.5 9.9-1.9a.52.52 0 0 1 .2.4ZM52.2 171c-2.1-4 .5-14.4.5-14.4a53 53 0 0 0 6.7 4.6c4.1 2.4 6.6 7 8.9 10.3 5.3 9.1-12.7.5-16.1-.5m16.9 38.2a2.5 2.5 0 0 0 3.4 1h.1a2.36 2.36 0 0 0 .9-.8c1.9 1.2-.1-2.7 1.7-4.5 2.3-2.1 10-8.7 12-5.5a2.8 2.8 0 0 0-.3 1.3c0 .8-.1 1.6-.1 2.4v.1c-2.8 4.9-4.6 11.5-8 15.3-3.3 1.2-11.7-6.9-9.7-9.3m29.8 23.4c-4.4 2.7-19.2-7-14.9-11.1 5-12.1 8.5-19 10.8-18.4h.1v.2c.2 6.4 3.2 12.2 3.2 18.5a2.73 2.73 0 0 0 .8 1.9v.4a2.3 2.3 0 0 0-.4 1.4 56 56 0 0 0 .4 7.1m7.8 2.8c.9-4.9-8.1-34.9.3-25a216 216 0 0 0 12.5 23.8 2.85 2.85 0 0 0 0 1.3 14.8 14.8 0 0 0 1.3 3.5c-2.8 1.8-12.4-.4-14.1-3.6m23.2 1.1c-3.2-3.1-6.6-14-10.2-17.6-14.2-26.7 5.2-5.8 17.3 4.2 9.7 5.5 1.1 14.5-7.1 13.4m18.6-30.7s.7 6.1-1.1 10.5c.1 13.3-12-2.9-15.7-6.5-2.3-1.9-5.7-4.5-9.9-8.2a1.9 1.9 0 0 1-.8-.2l-2.1-1.6a6.6 6.6 0 0 0-1.7-1.2 1.49 1.49 0 0 1-1.1-1.8l.3-.6-.4-.4a1.7 1.7 0 0 0 .7.1 1.59 1.59 0 0 1 1.3-.3 7.6 7.6 0 0 1 1.8.9c10 2.6 28.7 9.3 28.7 9.3" data-name="Path 111797" style="fill:#4aacd7"/><path id="Path_111798" d="M161.2 193.1c-.3-2.5-.5-5.1-1.6-7.3a2.35 2.35 0 0 1 0-2.3c-4.7-10.9-10.4-21.4-17.9-30.6-4.4-5.4-9.7-9.9-14.5-14.9-1.6-1.7-3.2-3.4-4.9-4.9a2.74 2.74 0 0 1-2.1-.6 44.5 44.5 0 0 0-9.1-5.6c-.2.1-.4.1-.6.3a6 6 0 0 1-.4-.7 15 15 0 0 0-1.9-.7c-4.5-1.6-8.9-3.6-13.5-4.9-4.8-1.3-9.5-2.8-14.4-2.7a40.8 40.8 0 0 0-8.5 1.4 3 3 0 0 1-1.7.8c-3.5.3-7.8.9-10.7 2.9-2.7 1.8-4.6 4.5-7.6 5.9a.37.37 0 0 1-.3.1v.5c-17.1 13.6-19.2 39.9-7.9 65.5h-.1c3.4 4.1 4.9 9.3 7 14.2 1.5 1.9 4.6 4.3 4.3 7a6 6 0 0 1 .4.7l1.2-.9c22.3 27.4 56.8 44.4 84.4 27.7a2.09 2.09 0 0 1 .8-1.6 148 148 0 0 0 11.5-12.3c3.2-4 6.4-8.3 7.6-13.4a70.2 70.2 0 0 0 1.4-15.1 58 58 0 0 0-.9-8.5m-25-19.4a2.53 2.53 0 0 1 2.3-1.5 2.42 2.42 0 0 1 2.5 2.1 3.1 3.1 0 0 1 .9 1.1 16.6 16.6 0 0 1 1.9 6.2c2.9 2.3 3.5 11.7 3.7 13.3a3.21 3.21 0 0 1-2.7.5c-.6.4-1.3-.5-2.1-.7a18.4 18.4 0 0 0-6.2-.5c-.9.1-2.7-1.5-3.2-2.2-6.6-1.6-13-3.8-17.3-6.3-1.2-1.4 1.5-4.7 4-4.9 4.1-2.8 13.6-6.1 13.6-6.1l.3.1a2.17 2.17 0 0 1 2.1-1.2c.1.1.1.1.2.1m-14.7-24.4a38.2 38.2 0 0 1 13.2 13.6c2.6 4.5-10.5 7.4-13.4 9.6a1.26 1.26 0 0 1-1.6 1.1c-.1 0-.3-.1-.4-.1a8.1 8.1 0 0 1-3.7 1.5c-1.4.5-5.3 3.1-7.1 3.2-3 .3-1.7-3.2-.1-6.1.6-1.2.3-2.3 1-3.4a9 9 0 0 1 .8-4 1.93 1.93 0 0 1 1.4-1.1c1.6-5.8 5.9-16.5 9.9-14.3m-38.7-19.6a3.9 3.9 0 0 1-2 1.6h.5a2.72 2.72 0 0 1 1.7-.6 2.42 2.42 0 0 1 2.5 2.1c3.6 3.3 2.3 10.9 2.8 15.8a1.7 1.7 0 0 1 1 1.5 2.89 2.89 0 0 1 .3 3.7 15 15 0 0 1 .4 3.7c.4 3.8-.8 7.9-2.2 4.9-.5-1.2-2.3-4.6-2.8-5.8-1.7.4-3.4-2.4-3.2-4.9-2.3-3.8-8.2-11.1-9.5-16.2a2.75 2.75 0 0 1-1.4-2.9c-4.5-2.2 5.7-4.3 11.9-2.9m-28.2 14.1a10 10 0 0 1 3.4-4.5 6.7 6.7 0 0 1 1.1-.7 2.31 2.31 0 0 1 2.5-1.9c1.2 0 .9.6 1.3 1.4 4 1.6 7.7 8.2 9.4 12.6a2.36 2.36 0 0 1 1.5 2.1 5.7 5.7 0 0 1 1.3.8c-.1 3.4 4.7 9.1 6.8 11.3.3 3.7-3.5 1.3-6.5-.9-2.2-1.6-10.6-5.2-11-9.1-3.3-1.7-7-3.8-8.8-6.4-2.3-.4-2.6-3.6-1-4.7m-2.5 27.4a2.86 2.86 0 0 1-.9-3.9.22.22 0 0 1 .2-.2c-.3-4.7 1.3-11 1.3-11 1.2 1.3 10.2 6.2 11.9 9.6 3.4 2.7 7.5 6.3 11.5 8.2 3 1.5 2.5 5.7-.5 4.2-.9-.5-4.7-1.6-5.6-2.1-.5.8-2.6.4-3.9 0-4.4-1.3-7.2-3.5-11.9-3.7a2.61 2.61 0 0 1-2.1-1.1m12.5 25.3a9 9 0 0 1-1.7-.1 2.52 2.52 0 0 1-4.4-.8 2.37 2.37 0 0 1-.7-2.7 13.3 13.3 0 0 1-1.2-4c-.8-.7-.8-2-1-3.2a2.85 2.85 0 0 1-1.2-3c-3.2-6-.4-2-.4-3.6-.2.2 10.2 2.7 10 2.9 4.4.6 8.3 2.6 12.5 4a1.7 1.7 0 0 1 .7-.1c3.1 0 3.4 4.4.8 5.1-2.7 3.2-10.7 5.9-13.4 5.5m13.5 21.2a2.37 2.37 0 0 1-2.3 1.6 2.58 2.58 0 0 1-2.6-2.6 1.7 1.7 0 0 1 .1-.7 30 30 0 0 1-4-4.7c-.1-.1-.3-.1-.4-.2-3.1-.3-3-5.2.3-5.2a2 2 0 0 1 .8.1c2-1 4-2.4 6.1-2.6 3-2.6 9.3-7.4 11-4.6-.6 1.1-.3 2.5-.4 3.7-3.3 5.9-5 14-8.6 15.2M98.9 232a2.7 2.7 0 0 1-3.4 1.4 2.73 2.73 0 0 1-1.4-1.4 21.85 21.85 0 0 1-9.2-5.8 2.64 2.64 0 0 1-2.1-3.1 2.2 2.2 0 0 1 .5-1.1 3.8 3.8 0 0 1 .7-1.2c5.1-12.1 8.4-19 10.9-18.3.1 6.4 3.2 12.3 3.2 18.7a2.73 2.73 0 0 0 .8 1.9v.4a13.5 13.5 0 0 0-.2 6 3.66 3.66 0 0 1 .2 2.5m-.2-68.8c-2.1-8.8-4.7-17.5-4.5-26.6 1.4-6 8.8-.8 11.8.7a16.8 16.8 0 0 1 4.8 3.6h.2c2.6 0 3.2 3 1.9 4.5.2 2.2-1.6 4.7-3.6 7.4-2.5 3.1-3.9 8.9-6.4 11.7-1.2 1.6-3.5 1.1-4.2-1.3m11.3 74.2a3.6 3.6 0 0 1-1 .2 2.65 2.65 0 0 1-2.6-2.6c0-.3.1-.6.1-.8-6.7-43.6-1.2-24.7 12.9-.5-.2 1.6.6 3.3 1.3 4.8-1.9 1.2-7.1.6-10.7-1.1m29.9-5.4a11.24 11.24 0 0 1-10.1 4c-3.2-3.1-6.6-14-10.2-17.6-14.2-26.7 4.2-5.8 16.2 4.2 2.5 1.4 4.8 3 5.3 4.6 1.8 1.1 1.4 4.6-1.2 4.8m7.5-16.2c.1 10.7-7.8 2.1-12.8-3.4-.2-.1-.5-.2-.7-.3a15.5 15.5 0 0 1-2.7-2.4 15 15 0 0 0-1.3-1.2c-.1 0-.2-.1-.3-.2s-.7-.4-.4-.3a2.68 2.68 0 0 1-1.9-2.4c-1.6-1.3-3.5-2.9-5.6-4.7-1.8-.3-2.9-2.3-4.7-2.9a1.49 1.49 0 0 1-1.1-1.8l.3-.6-.4-.4a1.7 1.7 0 0 0 .7.1c8.9 1.2 31.8 10.1 31.8 9.9a22.4 22.4 0 0 1-.9 10.6" data-name="Path 111798" style="fill:#86c8e4"/><path d="M51.1 164.1a49 49 0 0 0 .3 6.6c4.3 1.2 8.5 2.7 12.9 3.6l4.1.9c-.5-.8-.6-1.7-1.1-2.5a15 15 0 0 0-1.5-2c-.9-1.3-1.6-2.5-1.3-4.1a.21.21 0 0 1 .4 0 22 22 0 0 0 2.7 4.7c.8 1.1 1.9 2.4 1.6 3.8a.22.22 0 0 1-.2.2c2.6.6 5.2 1.2 7.8 1.9-1.3-2.7-3.4-4.4-5.9-6.2s-5.1-3.8-7.7-5.7c-2.4-1.7-4.7-3.5-6.9-5.2-1.1-.9-2.2-1.7-3.4-2.5a2.1 2.1 0 0 1-.6.4 55 55 0 0 0-1.2 6.1M71.5 150.9h.4a.1.1 0 0 0-.1-.1c-1.6-2.5-3.2-5-4.9-7.4-1.4-2-3.5-4-4.8-6.2a4.2 4.2 0 0 1-2.2.8 20.5 20.5 0 0 0-3.4 3.8c-1.1 1.6-1.7 3.5-2.8 5.1a55 55 0 0 1 9.4 6.6 8.3 8.3 0 0 1 3.4-1.3c1.8-.5 3.4-.8 5-1.3M72.4 184.9c-.3-.1-.7-.3-1-.4 0 .1 0 .1-.1.2-1.2 2.1-3.1 3.9-4.7 5.8-1.8 2.1-3.7 4.1-5.6 6.1a44 44 0 0 0 7-2.2 40.8 40.8 0 0 0 7.3-3.5A18.5 18.5 0 0 0 78 189a9.4 9.4 0 0 0 1-1 .37.37 0 0 1-.3-.1c-2.1-.9-4.1-2.1-6.3-3M78.7 162.5c-2.1-3.5-4-7.1-6.1-10.5a1 1 0 0 1-.6.7 24.6 24.6 0 0 1-4.7 1 16 16 0 0 1-3 .6c4.3 3.6 8.5 7.4 13.3 10.3.2-.4.3-.7.5-1.1s.4-.7.6-1M60.5 196.2c1.5-2 3-3.9 4.7-5.8s3.4-4.4 5.5-6.1c-.5-.2-1.1-.4-1.6-.6a1.05 1.05 0 0 1-.5.9.91.91 0 0 1-1 0 .78.78 0 0 1-.4-.4l-.1-.1-.1-.1c0 .1.1.1.2.2l-.2-.2c0-.1-.1-.2-.1-.3a.66.66 0 0 1 .1-.6c0-.1.1-.2.1-.3-.9-.3-1.8-.6-2.8-.9v.1c-.9 1.8-2.7 2.8-3.9 4.4-1 1.2-1.8 2.8-3.4 3.2s-.1 0 0-.1c-.1 0-.1 0 0-.1a37 37 0 0 0 2.9-4c1.1-1.4 2.5-2.3 3.4-3.8a86 86 0 0 0-8.8-2 .9.9 0 0 1-.5-.1 28 28 0 0 0 .7 4c.4 1.4 1 2.7 1.5 4.1.7 2 1.5 4 2.2 6.1a.44.44 0 0 1 .1-.5.49.49 0 0 1 .7-.1c.3.4.8 1.3.2 1.6-.1.1-.2.1-.2 0s-.2-.1-.2-.2a.37.37 0 0 1-.1-.3q0-.15-.3-.3a.1.1 0 0 1-.1-.1 24 24 0 0 1 .8 2.5v.4a7.7 7.7 0 0 0 1.5-.2c-.3.1-.5-.1-.3-.3m2.6-4.7c0 .1 0 .1-.1.2a.85.85 0 0 1-1.3 0 1.23 1.23 0 0 1-.4-.8.1.1 0 0 0-.1-.1v-.1c0-.4.3-.6.7-.6a1.4 1.4 0 0 1 .6.2h.2a1 1 0 0 1 .6.5 6 6 0 0 1-.2.7m2.7-4.4a1.5 1.5 0 0 1 .2.9c0 .1 0 .2-.1.2a.93.93 0 0 1-1.2.3 1 1 0 0 1-.4-.5.1.1 0 0 0-.1-.1c0-.1-.2-.2.1 0a.66.66 0 0 1-.4-.5v-.2a.68.68 0 0 1 .4-.8c.1-.1.2-.1 0 0a.37.37 0 0 1 .3-.1 1.6 1.6 0 0 1 .9.3c0 .2.2.3.3.5m-7.6 3.6-.1-.1c1.6-3.1 4.3-5.3 6.4-8.1.1-.2.4-.2.6-.1a.48.48 0 0 1 .2.6c-1.7 3.2-4.6 5.2-7.1 7.7M87.7 148.9a31.5 31.5 0 0 0-4.2.9 5.9 5.9 0 0 1-2.3.5c1.2 1.9 2.3 3.8 3.4 5.7l.3-1.8a9.9 9.9 0 0 1 .3-2.4 3.29 3.29 0 0 1 2.9-2.5c0-.2-.1-.4-.1-.6 0 .1-.1.2-.3.2M81.5 132c-3.2.7-6.4 1.8-9.7 2.3 3.1 4.5 5.3 9.5 8.2 14.2.2.3.3.5.5.8a13.3 13.3 0 0 1 2.8-1 24 24 0 0 1 3.8-1.2 1.3 1.3 0 0 1 .6.1c-.1-.3-.1-.6-.2-.9-1-4.7-2.6-9.5-3-14.3a.82.82 0 0 1-.7.1c-.6-.1-1.2-.3-1.9-.4 0 .1-.1.2-.4.3M79.1 131.2a23.6 23.6 0 0 0-9.2.4 13.3 13.3 0 0 1 1.4 1.9 43.5 43.5 0 0 1 7.8-2.3M69.6 121.2a45 45 0 0 0-8.7 3.1c8.2-3 17.7-3.3 27.5-1.2 0-.7.1-1.5.1-2.2a50.1 50.1 0 0 0-18.9.3" class="cls-5"/><path d="M86.2 153.5c-.1.9.1 2.7-.8 3.3a.3.3 0 0 0-.2.1c1.2 1.9 2.4 3.7 3.7 5.5a49 49 0 0 0-.4-12.1c-1.8.2-2.2 1.4-2.3 3.2M79.2 164.2a2.36 2.36 0 0 1-.8.9c.9.5 1.8 1 2.7 1.4v-.1c-.6-.9-1.1-1.8-1.7-2.7 0 .2-.1.3-.2.5M61.6 190.9l-.1.2c.1-.1.1-.1.1-.2" class="cls-5"/><path d="M51.1 132.3c-20.6 17.4-17 55.8 8.2 85.6s62.4 39.8 83 22.4a33.7 33.7 0 0 0 7.9-9.7 110 110 0 0 1-14.3-8.9 77 77 0 0 1 6.7 6.1.9.9 0 0 1-.2 1.4.61.61 0 0 1 .1.8l-.2.2a.37.37 0 0 1 .1.3c-3.1 4.7-9.4 10.3-15.4 10.5a.43.43 0 0 1-.4-.4.38.38 0 0 1-.3-.5l.7-1.6a6 6 0 0 1 .7-1.4c.1 0 .1-.1.2-.1-2.9-5.3-5.7-10.7-8.4-16.1-1.3-2.7-2.6-5.5-3.9-8.3a39.2 39.2 0 0 1-2.9-7.4c-.2-.1-.3-.2-.5-.3a.67.67 0 0 1-.3-.8.66.66 0 0 1 .8-.5c3.3 1.1 6.1 3.3 8.7 5.6a123 123 0 0 1-11.9-14.1c-.2 3.3-1.5 6.5-4.5 8.2-3.1 1.9-6.6 1.5-9.8.2 1.9 3.7 2.2 8.7 2.6 12.6.7 5.9.6 11.8 1.5 17.7.1.4-.3.8-.7.9a1 1 0 0 1-1.3.4c-5.6-2.9-11.1-5.7-15.4-10.4a.6.6 0 0 1-.1-.4.37.37 0 0 1-.1-.3c1.9-7.9 7-14.6 10-22.2q-1.8-1.2-3.3-2.4c-.4-.3.2-.9.5-.7 4.9 3.4 14.1 8 17.9.6a11.9 11.9 0 0 0 1.2-6.2 124.6 124.6 0 0 1-8.9-15.5c-4.3-3.6-10.9-7.4-15.3-2.5-4.7 5.3-2.1 12.3.1 18.2a2 2 0 0 1 .1-.8h-.1c-1-1.1 1.2-3.3 1.8-4.1 1.2-1.4 2.4-2.7 3.6-4.1-.1-.1-.1-.3 0-.3 1-1 3.2-.6 4.4-.1a8.7 8.7 0 0 1 3.5 2.8c.9 1.1 2.6 4.6 1.6 6.3a.61.61 0 0 1-.3.7l-1.5.9-2.8 1.6c-1.2.7-2.5 1.3-3.8 1.9-1.1.7-2.7.2-3.8-.5a.45.45 0 0 1 0 .5c.1.1.2.1.2.3.4 3.7-1.4 7.7-3.1 10.8a106 106 0 0 1-6.7 11.1.54.54 0 0 1-.8.2l-.1-.1a.78.78 0 0 1-.8.1c-2.2-1.4-3.8-3.8-5.5-5.7a18.3 18.3 0 0 1-3.9-6 .66.66 0 0 1 1.2-.5c.1.2.2.3.3.5 1.3-1.6 3.4 1.5 4.7 1.3 1.8-.4.1-2.3.5-3.4a9 9 0 0 1 1.4-2c-2.4 1.3-5.3 3.1-7.9 2.9a.1.1 0 0 1-.1-.1c-.1-.1-.1-.1 0-.2a16.4 16.4 0 0 1 4-2.4 47 47 0 0 0 4.9-2.7 58.5 58.5 0 0 1 9.3-4.8c.1 0 .2-.1.4 0s.2-.1.3-.1a2.8 2.8 0 0 1 .9-.1h.1a4.8 4.8 0 0 1-.9-1.1c0 .1.1.2.1.3 0 .2-.2.2-.4.2-3.9-5.2-6.5-15.4-2.7-21.3 2.9-4.3 8.4-4.2 12.7-2.3 1 .5 2 1 3 1.6a114.2 114.2 0 0 1-9.4-42.6l-2.7-.9a.45.45 0 0 1-.3-.3c0-.2.2-.4.4-.3a12.2 12.2 0 0 1 2.6.3V129c0-1.1 0-2.3.1-3.4-14.2-3.6-27.6-1.5-37.3 6.7m52.1 73.8c4.2 4.5 7.3 10.5 10.2 15.9 3 5.8 5.8 11.7 8.8 17.5.5 1-1 1.9-1.5.9-.1-.2-.2-.3-.2-.5h-.1c-4.5.5-9.6 0-13.6-2.2a1 1 0 0 1-.4-.9.52.52 0 0 1 .2-.4v-.1c-1.7-4.2-2.1-8.9-2.7-13.4-.6-5.1-1-10.2-1.8-15.3v-.2c0-.2.1-.3.2-.5a.1.1 0 0 0-.1-.1c-.6-.5.5-1.3 1-.7m-1.6 33.5a7 7 0 0 1 1.4-1 5 5 0 0 1 1.5-.7.37.37 0 0 1 .3.1c.3.1.3.5.2.7a2.9 2.9 0 0 1-1.5.9 2.5 2.5 0 0 1-1.7.3.35.35 0 0 0-.2-.1.14.14 0 0 1 0-.2m0 .4c3.1.2 6.1 1.5 9.2 1.8a31.9 31.9 0 0 0 10.2-.5.89.89 0 0 1 .5 1.7 31.8 31.8 0 0 1-11.1.5c-3-.4-6.7-.9-9.1-2.8-.4-.2-.1-.7.3-.7m-24.3-13.3c6.1 5.4 13.2 8.9 20.4 12.6.6.3.1 1.2-.5.9-7.3-3.2-14.9-7.2-20.6-12.8-.4-.4.2-1.1.7-.7m5.3-30.5a106 106 0 0 1-12.1 4.9c-2.8 1.1-5.6 2.2-8.3 3.2a12.8 12.8 0 0 1-3.9 1.3c3.7 7.1 9.6 12.6 15.3 18 .8.7-.4 1.9-1.2 1.2-5.9-5.9-11.7-11.9-15.1-19.6-.1-.3.3-.6.5-.4.1-.1.2-.2.3-.2a31 31 0 0 0 3.9-1.5c2.6-1 5.3-2 7.9-3 4-1.6 8.3-2.8 12.2-4.7.5-.3 1 .5.5.8m-2.1-7.9c.1 1.7-2.7 3.2-3.9 3.9a47.3 47.3 0 0 1-7.9 3.7c-3.4 1.3-10.4 4.2-13.9 1.8a.67.67 0 0 1-.8-.3c-2.8-5.2-5.6-10.5-7.1-16.2a43.2 43.2 0 0 1-1.6-13.4c.1-4.7.8-10 3-14.2a.64.64 0 0 1 0-.6.54.54 0 0 1 .8-.2c3 1.8 5.8 4.6 8.7 6.7s5.7 4.1 8.5 6.2c4.2 3 10.2 5.9 12.2 11 .2.5-.2.9-.6 1.1a.75.75 0 0 1 .1.5.87.87 0 0 1-1 .7c-4.3-1.2-8.8-2.3-13-3.5s-8.8-1.9-13-3.3a.72.72 0 0 1-.5-.9v-.1a17.46 17.46 0 0 1 0-13.1c-.1-.1-.2-.2-.2-.3-.1-.4 0-.9.4-1 .2-.1.3-.1.5-.2s.1-.2.2-.4a16 16 0 0 1-2.4-2c-1.3 5.1-2.9 9.8-2.7 15.2a52 52 0 0 0 1.1 8.7.66.66 0 0 1 .5-.4c1.9-.7 5.1.3 7.1.6 3.2.6 6.4 1.4 9.5 2.3s6.4 1.9 9.5 3.1c1.9.7 4.4 1.5 5.9 3a1 1 0 0 1 .2 1 .72.72 0 0 1 .4.6m1.8-18.2v.4s-.1.1 0 .1a.1.1 0 0 1-.1-.1v-.4c-.8.2-.9-1-.9-1.5v-.6a1.1 1.1 0 0 1-.5-.1c-10.3-5.3-19.1-13.2-27.9-20.6-.2-.2-.2-.3-.1-.5-.6-2.2 1.3-4.7 2.6-6.3a19.9 19.9 0 0 1 5.9-5.3 1.3 1.3 0 0 1 .6-.1.64.64 0 0 1 .6 0c2.2 1.6 3.6 4.3 5 6.4 1.7 2.6 3.4 5.1 5 7.8 3.3 5.4 6.8 10.8 9.6 16.5a.3.3 0 0 1 0 .4 4.2 4.2 0 0 1 .6 1.4c.1.8.3 2.2-.4 2.5m2.1-40.2a.85.85 0 0 1 .7 1.1.22.22 0 0 1 .2.2 109.5 109.5 0 0 1 3.8 16c.9 5.4 1.8 10.7 1.1 16.3v.2c0 .1-.1.2-.1.3.2.3.5.6.7.9.7.9-.5 2.1-1.3 1.3-4-4.9-7-10.5-10.3-15.8-3.7-6-6.6-12.5-10.9-18.2-.5.1-.7-.6-.3-.9h.1a1 1 0 0 1 1-.4 23.65 23.65 0 0 1 15.3-1M152.2 231.6c-.1 0-.2-.1-.3-.1-.3.6-.7 1.1-1 1.7.4-.5.9-1 1.3-1.6M304 184.1c6.1 6 10.9 13 16.1 19.7 4.5 5.8 9 11.7 14 17a3 3 0 0 1 .8-.4c-10.2-12.5-19.9-25.4-30-37.9-.3.5-.6 1.1-.9 1.6" class="cls-5"/><path d="M128.3 237.5a3.1 3.1 0 0 1-.6 1.3l-.7 1.3a46.8 46.8 0 0 0 9.2-5.3 20.5 20.5 0 0 1-6.4 1.9 1 1 0 0 1-1.5.8M303.1 185.8c-.2.3-.4.7-.6 1 9.7 12.1 19.4 24.2 28.8 36.6a8 8 0 0 1 1.5-1.7c-10.9-11.1-18.5-25.2-29.7-35.9M129.7 236c4.3-1.8 8.2-3.4 11.6-6.9a.1.1 0 0 1-.1-.1c-4-4.8-9.4-8.7-14.3-12.6-4.3-3.5-8-7.1-12.5-10.1 2.7 4.2 4.4 9.3 6.5 13.7a164 164 0 0 0 8.8 16M91.7 186.6a10 10 0 0 1 2.8 1.7 8.2 8.2 0 0 1 2.6 4.7 1.4 1.4 0 0 1 .6-.2 6.4 6.4 0 0 0 .2-2.4 8.18 8.18 0 0 0-4.8-5.6 10.7 10.7 0 0 0-2.5-.3c-.5.6-1 1.2-1.5 1.7.2 0 .4.1.7.1.6.2 1.3.1 1.9.3M106.8 236.3a.45.45 0 0 1 .5 0 32.2 32.2 0 0 0 6.7 2 26 26 0 0 0 5.6-.1c-2.3-5.1-4.7-10.1-7.3-15.1-1.5-2.8-3-5.5-4.7-8.2-1.2-2-2.7-3.8-4-5.7.4 4.3.7 8.6 1.1 12.9.5 4.8 1.5 9.4 2.1 14.2" class="cls-5"/><path d="M93.4 195.1c-.7-.5-.9-1.6-1.3-2.3a9.6 9.6 0 0 0-1.8-2.2c-.6-.5.2-1.2.7-.9a11 11 0 0 1 1.5.8 7 7 0 0 1 1.1 1.3c.5.7 1.3 1.9.9 2.8a8.3 8.3 0 0 0 1.2-.8c-.4-2-.8-3.7-2.7-4.8-.8-.5-1.6-.8-2.4-1.2s-1.6-.3-2.3-.6c-.1.2-.3.3-.4.5s-1.4 1.6-2.2 2.7A3.81 3.81 0 0 1 90 192c.9 1.1 2 3 1.8 4.5.7-.4 1.3-.9 2-1.3-.3 0-.4 0-.4-.1M75.4 203.6v.3a11.6 11.6 0 0 1-1.6 2.1c-.7.9-.2 1.8.3 2.9.1.2.1.4-.1.5-.9.9-2.1 1.8-3.4 1.1a8 8 0 0 1-1.5-1.2 4.7 4.7 0 0 0-1.5-.6 32.8 32.8 0 0 0 4.2 5.6c1.5 1.4 3.5 2.8 4.6 4.6 1.5-3.3 3.9-6.3 5.7-9.5a42.6 42.6 0 0 0 4-10.8.45.45 0 0 1-.5 0h-.5l-.1.1c-3.1 1.8-6.4 3.3-9.6 4.9M97.8 233.2c-.5-4.9-.7-9.9-1.1-14.8a41.6 41.6 0 0 0-1.3-8.6c-.6-2.2-1.8-4.4-2.4-6.6-3.1 7.2-7.8 13.5-10.4 20.9a102 102 0 0 0 15.2 9.1M55.2 188.1a66 66 0 0 1-2.4-8.4 39 39 0 0 1-4.9-.2c-.1 0-.1 0-.2-.1a28 28 0 0 0 .8 2.7 63 63 0 0 0 4.1 9.6c.8 1.6 1.8 3.1 2.5 4.7h.1a8.6 8.6 0 0 0 2.8.4v-.1c-1-2.8-1.9-5.6-2.8-8.6" class="cls-5"/><path d="M89.7 196.6c.9-.6-.3-2.7-.7-3.4-.9-1.4-2.1-2.1-3.7-1a.6.6 0 0 1-.4.1 5.48 5.48 0 0 0 1.4 3.2c.7.7 2.3 1.8 3.4 1.1M39.3 199.9c-.5.9-1.3 2.5-2.3 3.1v.1a13.2 13.2 0 0 1-4.8 3.6 12.1 12.1 0 0 0-3 2 10 10 0 0 0-1.1 1.7c3.7-.5 7.4 1.5 10.9.1.2-.1.4.3.2.4-3.5 2.4-7.2-.2-10.9.4a13 13 0 0 0 1.4 2.6 18 18 0 0 0 2.7 2.8 80 80 0 0 0 6.6 4.8c6.3 4.4 11.2-2.9 16-6a70 70 0 0 1-4.6-6.5c-2 1.4-3.4 4.1-6.1 3.9-.2 0-.2-.2 0-.3 2.5-.6 3.7-2.8 5.7-4.3q-1.65-2.55-3-5.1a19 19 0 0 1-2.4 3.2c-1.2 1.4-2.2 2.8-3.9 3.5-.3.1-.4-.3-.3-.4a19.5 19.5 0 0 0 3.9-4.2 21 21 0 0 1 2.1-3.1c-.7-1.3-1.4-2.6-2-3.9-.1.1-.1.2-.3.3.1.2 0 .3-.1.5a14.4 14.4 0 0 1-3.2 2.3c-.3.2-.5-.1-.4-.3v-.2c.6-1.4 1.4-4.7 3.5-3.6-.1-.2-.2-.5-.3-.7-2.3-.5-3.5 1.8-4.3 3.3m-.2 2.3-.2.1v-.1Zm7.3 5.2c.2-.2.5-.2.6 0s.3.1.4.2a.37.37 0 0 1 .3.1.1.1 0 0 0 .1.1.94.94 0 1 1-1 1.6 1.46 1.46 0 0 1-.6-.9.89.89 0 0 1 .2-1.1m-3.6 1.9a2.1 2.1 0 0 1 1.1.4 1.43 1.43 0 0 1 .6 1.2c0 .1-.1.1-.1.2a.54.54 0 0 1-.8.2.78.78 0 0 1-.4-.4s-.1-.2 0-.1c0-.1 0-.1-.1-.2s-.1-.2-.1-.1a1.4 1.4 0 0 1-.3-.4l-.2-.2c-.1-.1-.1-.2-.1-.4Zm-.9 7.1a15 15 0 0 0 2 .5c2 .5 3.5-.3 5.2-1.3.4-.2.9.4.5.7-1.5 1.2-3.3 2.9-5.4 2.7-1.5-.2-2.9-1.3-4.2-1.8-1.9-.9-5.1-2.5-3.1-4.9.4-.5 1.3.2.9.7-1.3 1.8 3 3.1 4.1 3.4m.2-14.8a5.2 5.2 0 0 1 2.1-.4s0 .1.1 0h.1a.3.3 0 0 1 0 .4c-.4.6-1.5.7-2.1.7a13 13 0 0 1-2.8 0c-.1-.1-.1-.3.1-.3a5.3 5.3 0 0 0 2.5-.4M339.7 221.9c-.3-.1-.6-.1-.9-.2a6.1 6.1 0 0 0-4.3 1.1c-2.6 1.8-3.5 5.2-1.9 7.4a5.43 5.43 0 0 0 7.6.8 6.62 6.62 0 0 0 2.6-3.6 5 5 0 0 0-.6-3.8 4.5 4.5 0 0 0-2.5-1.7m.5 7a3.51 3.51 0 0 1-3-1.3c-1-1.3-1.1-5 1.3-4.9a.4.4 0 0 1 0 .8c-.8 0-1.1 1.2-1.1 1.8a2.2 2.2 0 0 0 .9 1.6c.5.5 1.4.8 1.9.1.2-.3.4-.7.6-1 .4-.5 1.1 0 1.1.5a2.12 2.12 0 0 1-1.7 2.4" class="cls-5"/><path d="M42.4 198.4a2.7 2.7 0 0 0-.7.8c-.1.2-.3.4-.4.6.5-.5 1.1-.9 1.6-1.4-.1 0-.3-.1-.5 0M34.3 148.6a17.5 17.5 0 0 0-.4 4 3.48 3.48 0 0 0 2.4 3.3 42.2 42.2 0 0 1 4-12.9 7.5 7.5 0 0 0-6 5.6" class="cls-5"/><path d="M156.4 2.9c-.3-.3-.6.1-.4.4 4.5 5.1 8.9 10.3 13.2 15.4a5.6 5.6 0 0 0 1.2-.4c-4.5-5.2-9.2-10.3-14-15.4M302.5 186.7c-.3.5-.6 1-.9 1.6l7.5 9.3c7.2 8.9 14.4 17.7 21.8 26.4a4.4 4.4 0 0 0 .4-.7c-9.4-12.3-19.1-24.4-28.8-36.6M334.9 220.4a7.6 7.6 0 0 1 2-.6 1.4 1.4 0 0 0-.2-.6c-10.5-12.7-20.4-25.9-30.8-38.7-.3.6-.7 1.3-1 1.9 10.1 12.6 19.9 25.5 30 38M304 184.1c-.3.6-.6 1.1-.9 1.6 11.2 10.8 18.8 24.8 29.7 35.9.2-.2.4-.3.6-.5a1.6 1.6 0 0 1 .7-.4c-5.1-5.3-9.5-11.2-14-17-5.2-6.6-10-13.6-16.1-19.6" class="cls-6"/><path d="M344.4 222.6a6.72 6.72 0 0 0-5-2.8 8 8 0 0 0-2.2 0 8.3 8.3 0 0 0-2.1.6c-.3.1-.6.3-.9.4s-.5.3-.7.4a2.7 2.7 0 0 0-.6.5 8.5 8.5 0 0 0-1.6 1.7 1.6 1.6 0 0 0-.4.7 6.81 6.81 0 0 0 .1 7.5 7 7 0 0 0 3.7 2.6 8.67 8.67 0 0 0 7.1-1.2 8.3 8.3 0 0 0 3.5-4.8 6.07 6.07 0 0 0-.9-5.6m-1 5a6.34 6.34 0 0 1-2.7 3.6c-2.7 1.8-6.3 1.5-8-.8s-.7-5.6 2-7.5a6.62 6.62 0 0 1 4.5-1.1 3 3 0 0 1 .9.2 4.43 4.43 0 0 1 2.6 1.8 4.52 4.52 0 0 1 .7 3.8" class="cls-6"/><path d="M340.8 226c-.2.3-.4.7-.6 1-.5.7-1.3.4-1.9-.1a2.6 2.6 0 0 1-.9-1.6c0-.6.2-1.8 1.1-1.8.4 0 .5-.7 0-.8-2.4-.2-2.3 3.5-1.3 4.9a3.4 3.4 0 0 0 3 1.3 2.12 2.12 0 0 0 1.7-2.4c0-.5-.7-1-1.1-.5M143 242c-.7.5-1.5-.7-.7-1.4a43.7 43.7 0 0 0 8.6-7.4c.3-.6.7-1.1 1-1.7l-1.8-.9a37 37 0 0 1-7.9 9.7c-20.6 17.4-57.8 7.4-83-22.4s-28.8-68.1-8.2-85.6c9.7-8.2 23.2-10.3 37.3-7.1a13.4 13.4 0 0 1 .1-2c-9.8-2.2-19.3-1.9-27.5 1.2l-1.2.6c-2.9 1.5-5.6 4.2-8.7 5.3-.1 0-.2.1-.3.1h-.1l-.1-.1c-.3.2-.5.4-.8.6a36.3 36.3 0 0 0-8.3 10h.2c1.3-.1 1.3 1.9 0 2-.5.1-1 .1-1.4.2a49.7 49.7 0 0 0-4 12.9 7 7 0 0 0 .8.3.94.94 0 0 1-.5 1.8c-.2-.1-.3-.1-.5-.2-1.4 11.6.9 24.8 6.7 37.8h.7c.8.1.6 1.2-.1 1h-.2c.1.2.2.5.3.7.1 0 .1.1.2.1a.58.58 0 0 1 .2.9c.6 1.3 1.3 2.6 2 3.9a4.4 4.4 0 0 1 .7-.6c.1 0 .1-.1.2-.1.2 0 .3.2.3.4a11 11 0 0 1-.5 1.3l3 5.1c.1-.1.3-.2.4-.3.5-.3.9.5.4.8-.1.1-.3.2-.4.3 1.4 2.2 3 4.4 4.6 6.5.6-.4 1.3.6.8 1 .7.9 1.4 1.7 2.1 2.6 17.2 20.3 39.9 31.6 59.5 31.6 9.9 0 19.1-2.9 26.3-9l.5-.5c0 .1-.4.4-.7.6" class="cls-6"/><path d="M53.4 146.6c.1.1.2.1.4.2 1.1-1.5 1.7-3.5 2.8-5.1a17.5 17.5 0 0 1 3.4-3.8h-.3c-.1 0-.2-.1-.3-.2a.49.49 0 0 1 .1-.7 4.75 4.75 0 0 1 2.4-.6c-.1-.2-.2-.3-.3-.5a1 1 0 0 1 .2-.9.66.66 0 0 0-.6.1 21.4 21.4 0 0 0-5.9 5.3c-1.3 1.6-3.1 4.1-2.6 6.3.1 0 .4-.2.7-.1M69.4 131a4.2 4.2 0 0 1 .5.7 21.9 21.9 0 0 1 9.2-.4c.7-.1 1.4-.3 2.1-.4a.67.67 0 0 1 .7.9 16 16 0 0 1 1.9.4.82.82 0 0 0 .7-.1.9.9 0 0 0-.1-.5c0-.2.1-.3.3-.4s.3 0 .4 0a.85.85 0 0 0-.7-1.1 23.33 23.33 0 0 0-15.2.9c0-.1.1-.1.2 0M68.2 132a.48.48 0 0 1 0-.7h-.1c-.4.2-.2.9.3.9-.1-.1-.1-.2-.2-.2M85.4 130.4a.27.27 0 0 0 .3.3l2.7.9v-1.3l-2.6-.3c-.3.1-.4.2-.4.4" class="cls-6"/><path d="M61.5 136c.1.2.2.3.3.5a.6.6 0 0 1 .4.1h.3c.1.1.1.2 0 .2s-.3.2-.4.3c1.3 2.2 3.4 4.2 4.8 6.2 1.7 2.4 3.3 4.9 4.9 7.4a.1.1 0 0 0 .1.1.92.92 0 0 1 .7 1.1c2.1 3.5 4.1 7 6.1 10.5a.1.1 0 0 1 .1-.1.52.52 0 0 1 .4-.2.65.65 0 0 1 .6.6 1.6 1.6 0 0 1-.3.9c.5.9 1.1 1.8 1.7 2.7 0-.1 0-.2.1-.2.1-.1.2-.2.3-.2a.85.85 0 0 1 .6.3.3.3 0 0 0 0-.4c-2.9-5.7-6.3-11.1-9.6-16.5-1.6-2.7-3.3-5.2-5-7.8-1.5-2.1-2.8-4.9-5-6.4-.2-.2-.4-.1-.6 0a.68.68 0 0 0-.5.9M89.4 164.3a.71.71 0 0 1-.6-.9c0-.3.1-.7.1-1-1.3-1.8-2.5-3.6-3.7-5.5h-.1a.47.47 0 0 1-.5-.5v-.4c-1.2-1.9-2.3-3.8-3.4-5.7a4 4 0 0 1-1.1 0c-.4-.1-.4-.6-.1-.9a2.2 2.2 0 0 0 .5-.3c-.2-.3-.3-.5-.5-.8-2.9-4.6-5.1-9.6-8.2-14.2-.2 0-.4.1-.7.1s-.7-.5-.3-.7c.1-.1.3-.1.4-.2-.5-.6-.9-1.3-1.4-1.9a4.2 4.2 0 0 1-.5-.7c-.1-.1-.1-.1-.2-.1a1 1 0 0 0-1 .4c-.1.2-.2.5 0 .7 0 .1.1.1.1.2 4.3 5.7 7.2 12.2 10.9 18.2 3.3 5.3 6.3 11 10.3 15.8.7.8 1.9-.4 1.3-1.3-.2-.3-.5-.6-.7-.9-.1.5-.4.6-.6.6" class="cls-6"/><path d="M84.7 131c-.2.1-.3.2-.3.4a.9.9 0 0 0 .1.5c.4 4.8 2 9.6 3 14.3.1.3.1.6.2.9.6.3.9 1.2.4 1.6 0 .2.1.4.1.6h.7a.43.43 0 0 1 .4.4.46.46 0 0 1-.4.5h-.6a49 49 0 0 1 .4 12.1c0 .3-.1.7-.1 1a.72.72 0 0 0 .5.9h.1a.83.83 0 0 0 .8-.3.37.37 0 0 0 .1-.3v-.2c.7-5.6-.2-10.9-1.1-16.3a124 124 0 0 0-3.8-16 .22.22 0 0 0-.2-.2c0 .1-.1.1-.3.1M82.1 166.3a.86.86 0 0 0-.6-.3c-.1-.1-.2.1-.3.2a.35.35 0 0 1-.1.2v.1c.1.1.3.1.4.2.6.3.3 1.2-.3 1.3v.6c0 .5.1 1.7.9 1.5 0-.6-.1-1.3-.1-1.9h.1a12 12 0 0 1 .1 1.9c.7-.3.5-1.7.4-2.3a2.7 2.7 0 0 0-.5-1.5" class="cls-6"/><path d="M82.1 168.2c0 .7.1 1.3.1 2v.4a.1.1 0 0 0 .1.1c-.1 0 0-.1 0-.1v-.4a6.5 6.5 0 0 0-.2-2M81.5 166.7c-.1-.1-.3-.1-.4-.2-.9-.4-1.8-.9-2.7-1.4l-.2.2c-.1 0-.2.1-.3.1-.3-.1-.5-.3-.4-.6v-.1c-4.8-2.9-9-6.7-13.3-10.3-.4.1-.8.1-1.1.2-.1 0-.2-.1-.3-.2a.38.38 0 0 1 0-.6l.3-.3a69 69 0 0 0-9.4-6.6c-.1-.1-.2-.1-.4-.2a.61.61 0 0 0-.7.3c-.1.2-.1.3.1.5 8.8 7.4 17.7 15.3 27.9 20.6a.9.9 0 0 0 .5.1c.7-.3 1-1.1.4-1.5M48.6 153.2c0-.2.2-.2.3-.2.1.1.2.2.1.4s-.1.6-.2.9c.8.7 1.6 1.4 2.4 2 0-.1.1-.1.1-.2a.74.74 0 0 1 .8-.4.76.76 0 0 1 .6.8c.1.1.2.1.3.2a.61.61 0 0 1 0 .8l-.1.1c1.1.8 2.3 1.6 3.4 2.5 2.3 1.8 4.6 3.5 6.9 5.2 2.5 1.9 5.1 3.8 7.7 5.7s4.6 3.5 5.9 6.2c.2 0 .4.1.6.1a.82.82 0 0 1 .5.5.77.77 0 0 0 .6-1.1c-2-5.1-7.9-8-12.2-11-2.8-2-5.7-4.1-8.5-6.2s-5.7-4.9-8.7-6.7a.52.52 0 0 0-.8.2.64.64 0 0 0 0 .6c.1-.1.2-.3.3-.4" class="cls-6"/><path d="M77.4 177.2c-.2 0-.4-.1-.6-.1-2.6-.7-5.2-1.3-7.8-1.9a.48.48 0 0 1-.6-.2l-4.1-.9c-4.4-.9-8.6-2.4-12.9-3.6v.4a.55.55 0 0 1-.3.5.53.53 0 0 1-.7-.2.8.8 0 0 0 .5.9c4.2 1.4 8.8 2.1 13 3.3s8.7 2.3 13 3.5a.78.78 0 0 0 1-.7.9.9 0 0 0-.1-.5.51.51 0 0 0-.4-.5M47.8 179.5c1.6.2 3.3.1 4.9.2a.37.37 0 0 0-.1-.3c-.1-.7.9-1 1.1-.3a1.7 1.7 0 0 1 .1.7.9.9 0 0 1 .5.1 66 66 0 0 1 8.8 2c0-.1.1-.1.1-.2a.9.9 0 0 1 .5-.1h.1a.55.55 0 0 1 .3.5c.9.3 1.9.6 2.8.9l.3-.3c.2-.1.3-.2.5-.2a.6.6 0 0 1 .4.1c.1 0 .1 0 .2.1l.1.1c.2.1.3.3.4.4a1.7 1.7 0 0 1 .2.5c.5.2 1.1.4 1.6.6a.44.44 0 0 1 .7.3c.3.1.7.3 1 .4 2.2.9 4.2 2.1 6.3 3.1.1 0 .2.1.3.1a.85.85 0 0 1 .5-.3.37.37 0 0 1 .3-.1h.1a.8.8 0 0 0-.2-1c-1.5-1.5-4-2.3-5.9-3a81 81 0 0 0-9.5-3.1c-3.1-.9-6.3-1.7-9.5-2.3-1.9-.4-5.1-1.3-7.1-.6a1 1 0 0 0-.5.4c.1.5.2 1 .3 1.4a.76.76 0 0 1 .4-.1M51.8 156.4a3.4 3.4 0 0 1 1 0 .76.76 0 0 0-.6-.8.68.68 0 0 0-.8.4c0 .1-.1.1-.1.2s-.1.2-.2.4a1.45 1.45 0 0 1 .7-.2" class="cls-6"/><path d="M51.1 171.5a.55.55 0 0 0 .3-.5v-.4q-.3-3.3-.3-6.6a43 43 0 0 1 1.3-6.2c-.1 0-.1.1-.2.1a2.84 2.84 0 0 1-1.2.4.71.71 0 0 1-.6-.3 17.46 17.46 0 0 0 0 13.1v.1a.59.59 0 0 0 .7.3M79.8 187.6a.37.37 0 0 0-.3.1c-.2.1-.3.2-.5.3a9.4 9.4 0 0 1-1 1c-.9.7-1.8 1.3-2.7 1.9a49 49 0 0 1-7.3 3.5 41 41 0 0 1-7 2.2.37.37 0 0 1-.3.1 7.7 7.7 0 0 1-1.5.2.64.64 0 0 1-1.2 0 8.6 8.6 0 0 1-2.8-.4h-.1c.1.1.1.3.2.4a.57.57 0 0 1-.4.8c3.5 2.4 10.4-.5 13.9-1.8a47.3 47.3 0 0 0 7.9-3.7c1.2-.7 4-2.3 3.9-3.9a.86.86 0 0 0-.6-.7c-.2.1-.2 0-.2 0" class="cls-6"/><path d="M59.2 196.5c-.3-.9-.5-1.7-.8-2.5v-.1c-.7-2-1.5-4-2.2-6.1-.5-1.4-1.1-2.7-1.5-4.1s-.4-2.7-.7-4c0-.2-.1-.5-.1-.7-.2-.7-1.2-.4-1.1.3a.37.37 0 0 0 .1.3q1.1 4.4 2.4 8.4c.9 2.9 1.8 5.8 2.7 8.8v.1a.64.64 0 0 0 1.2 0Z" class="cls-6"/><path d="M55.2 196.9c-.1-.1-.1-.3-.2-.4-.7-1.6-1.7-3.1-2.5-4.7a57.7 57.7 0 0 1-4.1-9.6c-.3-.9-.5-1.8-.8-2.7-.1-.5-.2-1-.3-1.4a49.3 49.3 0 0 1-1.1-8.7c-.1-5.4 1.4-10.1 2.7-15.2.1-.3.1-.6.2-.9.1-.1 0-.3-.1-.4-.1 0-.3.1-.3.2-.1.2-.2.3-.3.5-2.3 4.2-2.9 9.5-3 14.2a46.8 46.8 0 0 0 1.6 13.4 75.8 75.8 0 0 0 7.1 16.2.67.67 0 0 0 .8.3.59.59 0 0 0 .3-.8M75.4 203.6l9.6-4.8a.1.1 0 0 0 .1-.1h-.3l-.2-.1-.1-.1c-.1 0-.1 0-.2-.1a.47.47 0 0 1-.1-.6c.1-.3.2-.6.5-.7h-.4a63 63 0 0 0-9.3 4.8c-1.6.9-3.2 1.8-4.9 2.7a14.7 14.7 0 0 0-4 2.4c-.1.1-.1.1 0 .2a.1.1 0 0 0 .1.1c2.6.2 5.5-1.5 7.9-2.9.2-.3.4-.5.6-.8.2-.5.7-.3.7 0" class="cls-6"/><path d="M86 196.9a3.1 3.1 0 0 0-1 .1c-.1 0-.2.1-.3.1a1.16 1.16 0 0 0-.5.7.47.47 0 0 0 .1.6c.1 0 .1.1.2.1l.1.1.2.1h.8c.2.1.4 0 .5 0 0-.2.1-.4.1-.6.1-.3.3-.3.5-.2v-.5a2.3 2.3 0 0 1-.7-.5" class="cls-6"/><path d="M86.3 198.1c0 .2-.1.4-.1.6a45.2 45.2 0 0 1-4 10.8c-1.8 3.2-4.2 6.2-5.7 9.5.1.1.1.2.2.3a.6.6 0 0 1 0 .8l-.3.3.1.1a.52.52 0 0 0 .8-.2 88.4 88.4 0 0 0 6.7-11.1c1.7-3.1 3.5-7.2 3.1-10.8 0-.1-.1-.2-.2-.3-.3-.3-.5-.2-.6 0" class="cls-6"/><path d="M76.6 220a.6.6 0 0 0 0-.8c0-.1-.1-.2-.2-.3-1.1-1.8-3.1-3.2-4.6-4.6a29.3 29.3 0 0 1-4.2-5.6c-.1 0-.1 0-.2-.1a.3.3 0 0 1-.1-.2l.1-.1c-.1-.2-.2-.3-.3-.5-.3-.6-1.4-.2-1.2.5a20 20 0 0 0 3.9 6c1.6 1.9 3.3 4.4 5.5 5.7a.75.75 0 0 0 .8-.1c.3.3.4.3.5.1M82.5 224c.1 0 .1.1 0 0 2.6-7.3 7.4-13.7 10.5-20.9 0-.2-.1-.4-.1-.6v-.2c-.3-.2-.7-.4-1-.6-3 7.5-8.1 14.3-10 22.2a.37.37 0 0 0 .1.3.3.3 0 0 1 .5-.2" class="cls-6"/><path d="M92.9 202.4v.2c0 .2.1.4.1.6.6 2.3 1.8 4.4 2.4 6.6a41.6 41.6 0 0 1 1.3 8.6c.3 5 .5 9.9 1.1 14.8l.6.3a.9.9 0 0 1 .4 1.3 1 1 0 0 0 .7-.9c-.9-5.9-.8-11.8-1.5-17.7-.4-3.8-.7-8.9-2.6-12.6a11.5 11.5 0 0 1-2.5-1.2" class="cls-6"/><path d="m98.4 233.5-.6-.3a102.5 102.5 0 0 1-15.2-9.2h-.1c-.2-.2-.5 0-.6.3a.6.6 0 0 0 .1.4c4.3 4.7 9.7 7.5 15.4 10.4a.93.93 0 0 0 1.3-.4.8.8 0 0 0-.3-1.2M76.6 227.4c5.7 5.7 13.3 9.6 20.6 12.8.6.3 1.1-.6.5-.9-7.2-3.7-14.3-7.2-20.4-12.6-.5-.4-1.1.3-.7.7M62 203.1a26 26 0 0 1-3.9 1.5c-.2 0-.3.1-.3.2l.1.1a4.4 4.4 0 0 0 .4.7 18 18 0 0 0 3.9-1.3c2.8-1 5.6-2.1 8.3-3.2a128 128 0 0 0 12.1-4.9c.5-.3.1-1-.5-.8-3.9 1.9-8.2 3.1-12.2 4.7-2.6 1-5.3 2-7.9 3" class="cls-6"/><path d="M57.8 204.8c-.2-.2-.6.1-.5.4 3.4 7.7 9.3 13.7 15.1 19.6.7.7 1.9-.4 1.2-1.2-5.8-5.4-11.6-11-15.3-18-.1-.2-.3-.5-.4-.7a.1.1 0 0 1-.1-.1M101.2 240.7c2.4 1.9 6.1 2.4 9.1 2.8a31.8 31.8 0 0 0 11.1-.5c1.1-.3.6-1.9-.5-1.7a31.7 31.7 0 0 1-10.2.5c-3.1-.3-6.1-1.6-9.2-1.8-.3 0-.6.5-.3.7M102 207a.1.1 0 0 0 .1.1.6.6 0 0 1 .6-.3.77.77 0 0 1 .8.7c.1.6.1 1.1.2 1.7 1.4 1.9 2.8 3.7 4 5.7 1.7 2.7 3.2 5.4 4.7 8.2 2.6 4.9 5 10 7.3 15.1a1.3 1.3 0 0 0 .6-.1c1.1-.1 1.1 1.6.1 1.8.1.2.2.3.2.5.5 1 2 .1 1.5-.9-3-5.8-5.7-11.7-8.8-17.5-2.8-5.4-6-11.4-10.2-15.9-.4-.6-1.5.2-1.1.9" class="cls-6"/><path d="M104.8 222.1c-.4-4.3-.7-8.6-1.1-12.9-.1-.6-.1-1.1-.2-1.7a.77.77 0 0 0-.8-.7.86.86 0 0 0-.6.3.76.76 0 0 0-.2.5v.2c.8 5.1 1.3 10.2 1.8 15.3.5 4.5.9 9.2 2.7 13.4v.1c.1-.1.2-.1.3-.2-.5-4.9-1.5-9.5-1.9-14.3" class="cls-6"/><path d="M120.3 238.1a1.3 1.3 0 0 0-.6.1 26.3 26.3 0 0 1-5.6.1 32.2 32.2 0 0 1-6.7-2h-.5c-.1 0-.2.1-.3.2a.52.52 0 0 0-.2.4.87.87 0 0 0 .4.9c4 2.2 9.2 2.7 13.6 2.2h.1c.9-.4.9-2.1-.2-1.9M128 237.1c.2 0 .4.2.3.4v.1a1.17 1.17 0 0 0 1.6-.6 4 4 0 0 0-.5.1c-.5.1-.5-.6-.1-.7.2-.1.3-.1.5-.2a136 136 0 0 1-8.7-15.9c-2.1-4.3-3.8-9.5-6.5-13.7a17 17 0 0 0-1.8-1.1 36.7 36.7 0 0 0 2.9 7.4c1.3 2.8 2.6 5.6 3.9 8.3 2.6 5.2 5.4 10.6 8.4 15.9" class="cls-6"/><path d="M141.4 229.1c-3.5 3.5-7.3 5.1-11.7 6.9-.2.1-.3.1-.5.2-.4.1-.4.8.1.7a4 4 0 0 0 .5-.1 26 26 0 0 0 6.4-1.9 51 51 0 0 0 5.7-4.7.19.19 0 0 1 .3 0l.2-.2a.61.61 0 0 0-.1-.8.64.64 0 0 1-.9-.1" class="cls-6"/><path d="M141.9 230.2a51 51 0 0 1-5.7 4.7 56.2 56.2 0 0 1-9.2 5.3l-.1.2c-.1.2-.2.2-.3.2a.43.43 0 0 0 .4.4c5.9-.2 12.3-5.8 15.4-10.5.1-.1 0-.2-.1-.3-.2-.1-.3-.1-.4 0M111.9 204.2a.83.83 0 0 0 .3.8c.2.1.3.2.5.3.6.4 1.2.7 1.8 1.1 4.5 3 8.2 6.6 12.5 10.1 4.8 3.9 10.3 7.8 14.3 12.6a.1.1 0 0 1 .1.1.63.63 0 0 0 .9 0 .9.9 0 0 0 .2-1.4c-2.1-2.1-4.4-4.1-6.7-6.1a113.4 113.4 0 0 1-14.4-12.4 24.5 24.5 0 0 0-8.7-5.6.66.66 0 0 0-.8.5M106.9 199.3c-3.8 7.4-13 2.8-17.9-.6-.4-.3-.9.4-.5.7a28 28 0 0 0 3.3 2.4c.3.2.7.4 1 .6a13.4 13.4 0 0 0 2.4 1.2c3.2 1.3 6.7 1.7 9.8-.2s4.2-4.9 4.5-8.2l-1.5-2.1a11.25 11.25 0 0 1-1.1 6.2M82.1 174.9c-3.8 5.9-1.3 16.1 2.7 21.3.2.1.4 0 .4-.2s-.1-.2-.1-.3a4.47 4.47 0 0 1-.9-2.5c-2.2-5.9-4.8-12.9-.1-18.2 4.4-4.9 11-1.2 15.3 2.5l-1.5-3.3a14.3 14.3 0 0 0-3-1.6c-4.5-1.9-10-2-12.8 2.3M101.8 240a3.23 3.23 0 0 0 1.7-.3 3.8 3.8 0 0 0 1.5-.9c.1-.3.1-.6-.2-.7-.1 0-.2-.1-.3-.1a3 3 0 0 0-1.5.7 7 7 0 0 0-1.4 1 .19.19 0 0 0 0 .3c.1-.1.1-.1.2 0" class="cls-6"/><path d="m126.9 240.4.1-.2.7-1.3a3.8 3.8 0 0 0 .6-1.3v-.1a.45.45 0 0 0-.3-.4h-.1c-.1 0-.1 0-.2.1a3.7 3.7 0 0 0-.7 1.4l-.7 1.6c-.1.2.1.4.3.5.1-.1.2-.1.3-.3M150.9 233.2a37.9 37.9 0 0 1-8.6 7.4c-.8.6-.1 1.9.7 1.4.4-.2.7-.5 1.1-.7a38.8 38.8 0 0 0 9.5-9c-.5-.2-.9-.5-1.4-.7-.4.6-.9 1.1-1.3 1.6M50.7 130.3a.37.37 0 0 0 .3-.1c3.1-1 5.8-3.8 8.7-5.3l1.2-.6a45 45 0 0 1 8.7-3.1 48.1 48.1 0 0 1 18.9-.3 16 16 0 0 1 .2-2.2 52.3 52.3 0 0 0-17.2 0 44.4 44.4 0 0 0-11.2 3.6c-3.2 1.6-8.1 3.9-9.9 7.2a.47.47 0 0 0 .1.6zM92.9 189.1c1.9 1.1 2.3 2.8 2.7 4.8a10 10 0 0 1 1.4-.8 8.2 8.2 0 0 0-2.6-4.7 6.24 6.24 0 0 0-2.8-1.7 12.3 12.3 0 0 0-2-.2c-.3 0-.5-.1-.7-.1-.3.3-.5.6-.8.9a15.5 15.5 0 0 0 2.3.6 19 19 0 0 1 2.5 1.2" class="cls-6"/><path d="M89.9 183.9c.4-.5 1 .2.7.7a21 21 0 0 1 2.5.3 7.8 7.8 0 0 1 4.8 5.6 6.4 6.4 0 0 1-.2 2.4 3 3 0 0 1 1-.2.55.55 0 0 1 .5.3c1-1.7-.7-5.2-1.6-6.3a8.7 8.7 0 0 0-3.5-2.8c-1.2-.5-3.4-.9-4.4.1-.1 0-.1.2 0 .3a.52.52 0 0 1 .2-.4M85 195.8a11 11 0 0 0 .9 1.1l.1.1a3 3 0 0 0 .7.5c1.2.7 2.8 1.2 3.8.5-.1 0-.2.1-.3.1-.4.1-.6-.5-.2-.7s1-.7 1.5-1c.2-1.6-.9-3.4-1.8-4.5a3.81 3.81 0 0 0-4.3-1.6c-.5.7-.8 1.3-.7 1.5.3.4-.3.9-.7.6a2.5 2.5 0 0 0-.1.8 7.6 7.6 0 0 0 1.1 2.6m.3-3.7c1.5-1.1 2.8-.4 3.7 1 .4.7 1.6 2.8.7 3.4-1.1.8-2.6-.4-3.3-1.2a5.48 5.48 0 0 1-1.4-3.2c0 .1.2.1.3 0M93.5 191.8a7 7 0 0 0-1.1-1.3 2.75 2.75 0 0 0-1.5-.8c-.5-.2-1.3.5-.7.9a9.6 9.6 0 0 1 1.8 2.2c.4.7.6 1.8 1.3 2.3.1 0 .1 0 .2.1a3.5 3.5 0 0 1 .8-.5c.4-.9-.3-2.1-.8-2.9" class="cls-6"/><path d="M98.6 192.6a4.4 4.4 0 0 0-1 .2c-.2.1-.4.1-.6.2a6.4 6.4 0 0 0-1.4.8 8.3 8.3 0 0 1-1.2.8 3.5 3.5 0 0 1-.8.5 23 23 0 0 0-2 1.3c-.5.3-1 .7-1.5 1s-.2.8.2.7c.1 0 .2-.1.3-.1 1.3-.6 2.6-1.2 3.8-1.9l2.8-1.6a6 6 0 0 1 1.5-.9.52.52 0 0 0 .3-.7c0-.2-.2-.3-.4-.3M84.8 191.8c-.1-.2.2-.8.7-1.5.8-1.1 2-2.4 2.2-2.7s.3-.3.4-.5c.3-.3.5-.6.8-.9.5-.6 1-1.1 1.5-1.7.4-.5-.3-1.1-.7-.7a1.4 1.4 0 0 0-.3.4c-1.2 1.4-2.5 2.7-3.6 4.1-.6.8-2.8 3-1.8 4.1h.1c.4.3 1-.2.7-.6M72 152.6a1.06 1.06 0 0 0 .6-.7.92.92 0 0 0-.7-1.1h-.4c-1.6.5-3.2.8-4.9 1.2a7.1 7.1 0 0 0-3.4 1.3l-.3.3a.37.37 0 0 0 0 .6c.1.1.2.2.3.2a3.6 3.6 0 0 0 1.1-.2 16 16 0 0 0 3-.6 18.8 18.8 0 0 0 4.7-1M87.2 147a24 24 0 0 0-3.8 1.2 9.4 9.4 0 0 0-2.8 1 2.2 2.2 0 0 0-.5.3c-.3.3-.3.8.1.9h1.1a9.5 9.5 0 0 0 2.3-.5 31.5 31.5 0 0 1 4.2-.9.52.52 0 0 0 .4-.2 1 1 0 0 0-.4-1.6.73.73 0 0 0-.6-.2M51 158.4a5.6 5.6 0 0 0 1.2-.4c.1 0 .1-.1.2-.1s.4-.3.6-.4l.1-.1a.61.61 0 0 0 0-.8c-.1-.1-.2-.1-.3-.2h-1c-.2 0-.5.1-.7.1s-.3.1-.5.2a.73.73 0 0 0-.4 1c0 .1.1.2.2.3a.55.55 0 0 0 .6.4M71 133.7c-.4.2-.1.7.3.7.2 0 .4-.1.7-.1 3.3-.5 6.5-1.6 9.7-2.3.2 0 .3-.2.4-.3a.67.67 0 0 0-.7-.9c-.7.1-1.4.3-2.1.4a39 39 0 0 0-7.8 2.3c-.3.1-.4.1-.5.2M62.6 136.8c.1-.1.1-.2 0-.2s-.1-.1-.1 0h-.2c-.1 0-.3-.1-.4-.1a3.48 3.48 0 0 0-2.4.6.62.62 0 0 0-.1.7c.1.1.2.1.3.2h.3a3.72 3.72 0 0 0 2.2-.8.78.78 0 0 1 .4-.4M54.8 215.6c-4.8 3.1-9.7 10.4-16 6a80 80 0 0 1-6.6-4.8 18 18 0 0 1-2.7-2.8c-.6-.8-.9-1.8-1.4-2.6h-.2c-.2 0-.3 0-.4-.1 0 .1-.1.1-.1.2l-.1.1c-.1 0-.3 0-.3-.2a1.4 1.4 0 0 1 0-.9c-.1.1-.2.2-.2.3-.7 2.5 2.3 5 3.9 6.5a43 43 0 0 0 8 6c6.2 3.5 12.3-3.2 16.9-6.7a.65.65 0 0 0-.8-1M59.7 185.6c-.9 1.4-1.9 2.7-2.9 4-.1.1-.1.1 0 .1v.1c1.6-.4 2.4-2 3.4-3.2 1.3-1.5 3-2.6 3.9-4.4v-.1a.55.55 0 0 0-.3-.5h-.1a.75.75 0 0 0-.5.1c0 .1-.1.1-.1.2-.9 1.3-2.3 2.3-3.4 3.7M65.3 183a.48.48 0 0 0-.2-.6.47.47 0 0 0-.6.1c-2.1 2.8-4.8 5-6.4 8.1v.1h.1c2.5-2.5 5.4-4.5 7.1-7.7M40.1 209.5c-.2.2 0 .5.3.4a10.1 10.1 0 0 0 3.9-3.5 15.7 15.7 0 0 0 2.4-3.2 5 5 0 0 0 .5-1.3c0-.2-.1-.4-.3-.4-.1 0-.1 0-.2.1a4.4 4.4 0 0 1-.7.6 19 19 0 0 0-2.1 3.1 16.9 16.9 0 0 1-3.8 4.2" class="cls-6"/><path d="M39.1 210.8c.2-.2.1-.5-.2-.4-3.5 1.4-7.2-.6-10.9-.1a3.6 3.6 0 0 0-.4.9c.1.1.2.1.4.1h.2c3.7-.6 7.3 1.9 10.9-.5M44.1 212.6c-.2.1-.2.3 0 .3 2.7.2 4.2-2.4 6.1-3.9a1.4 1.4 0 0 1 .4-.3.45.45 0 0 0-.4-.8 1.4 1.4 0 0 0-.4.3c-2 1.6-3.2 3.8-5.7 4.4M61 196.6c1.9-1.9 3.8-4 5.6-6.1a37.3 37.3 0 0 0 4.7-5.8.35.35 0 0 1 .1-.2.44.44 0 0 0-.7-.3c-2.1 1.7-3.8 4.1-5.5 6.1s-3.1 3.8-4.7 5.8c-.2.2 0 .4.2.5a.19.19 0 0 0 .3 0M67.6 171.1a19.8 19.8 0 0 1-2.7-4.7.21.21 0 0 0-.4 0c-.4 1.6.3 2.8 1.3 4.1.5.6 1 1.3 1.5 2s.6 1.7 1.1 2.5a.48.48 0 0 0 .6.2c.1-.1.2-.1.2-.2.4-1.5-.7-2.8-1.6-3.9M79.2 164.2a2.2 2.2 0 0 0 .3-.5l.3-.9a.65.65 0 0 0-.6-.6.76.76 0 0 0-.4.2.1.1 0 0 1-.1.1 11 11 0 0 0-.6 1.1 3.7 3.7 0 0 0-.5 1.1v.1c0 .3.1.6.4.6a.37.37 0 0 0 .3-.1c.1 0 .1-.1.2-.2.2-.3.5-.6.7-.9M85.3 151.8a9.9 9.9 0 0 0-.3 2.4 11 11 0 0 1-.3 1.8v.4a.47.47 0 0 0 .5.5h.1c.1 0 .1 0 .2-.1.9-.6.8-2.4.8-3.3.1-1.8.5-3 2.2-3.2h.6c.3 0 .4-.3.4-.5a.43.43 0 0 0-.4-.4h-.7a3.21 3.21 0 0 0-3.1 2.4M37.8 213c.4-.5-.5-1.2-.9-.7-1.9 2.4 1.3 4 3.1 4.9 1.3.6 2.8 1.7 4.2 1.8 2.1.3 3.9-1.5 5.4-2.7.4-.3-.1-.9-.5-.7-1.7.9-3.2 1.7-5.2 1.3-.6-.2-1.4-.3-2-.5-1.1-.3-5.4-1.6-4.1-3.4M42.5 210.1l.2.2c.1.1.2.3.3.4l.1.1c.1.1.1.1.1.2-.1-.1 0 .1 0 .1a.78.78 0 0 0 .4.4.52.52 0 0 0 .8-.2c0-.1.1-.1.1-.2a1.43 1.43 0 0 0-.6-1.2 1.5 1.5 0 0 0-1.1-.4.43.43 0 0 0-.4.4.35.35 0 0 1 .1.2M46.7 209.3a.94.94 0 0 0 1-1.6.1.1 0 0 1-.1-.1.37.37 0 0 0-.3-.1.52.52 0 0 0-.4-.2.37.37 0 0 0-.6 0 1 1 0 0 0-.3 1 2 2 0 0 0 .7 1M58.4 194.1c.2.1.2.2.3.3a.37.37 0 0 0 .1.3l.2.2c0 .1.1.1.2 0 .6-.3.2-1.3-.2-1.6a.49.49 0 0 0-.7.1.75.75 0 0 0-.1.5v.1c.2 0 .2.1.2.1M62.6 190.3h-.2a1.4 1.4 0 0 0-.6-.2.67.67 0 0 0-.7.6v.1a.1.1 0 0 1 .1.1 2 2 0 0 0 .4.8.85.85 0 0 0 1.3 0c.1-.1.1-.1.1-.2a1.5 1.5 0 0 0 .1-.7c0-.2-.2-.4-.5-.5m-1 .6c0 .1 0 .1-.1.2ZM64.2 186.5a.68.68 0 0 0-.4.8v.2a1 1 0 0 0 .4.5c-.2-.2-.1-.1-.1 0a.1.1 0 0 0 .1.1 1 1 0 0 0 .4.5 1 1 0 0 0 1.2-.3c.1-.1.1-.1.1-.2a1 1 0 0 0-.2-.9 1.8 1.8 0 0 0-.4-.5 1.4 1.4 0 0 0-.9-.3.3.3 0 0 0-.2.1" class="cls-6"/><path d="M64.2 186.5c.3-.1.1-.1 0 0M67.1 184.3l-.2-.2ZM66.8 183.8c0 .1.1.2.1.3l.1.1.1.1a.78.78 0 0 0 .4.4.91.91 0 0 0 1 0 1.05 1.05 0 0 0 .5-.9.76.76 0 0 0-.2-.5c-.1-.2-.3-.3-.4-.4l-.1-.1a.35.35 0 0 0-.2-.1.6.6 0 0 0-.4-.1.76.76 0 0 0-.5.2l-.3.3a.37.37 0 0 0-.1.3.48.48 0 0 0 0 .4M27.1 211.3c0 .1.2.2.3.2l.1-.1c0-.1.1-.1.1-.2.1-.3.3-.6.4-.9a10 10 0 0 1 1.1-1.7 12.1 12.1 0 0 1 3-2 12.94 12.94 0 0 0 4.8-3.6v-.1c-.1.1-.3.1-.5.2s-.1 0-.2-.1c-.1 0-.1-.1-.1-.2a2.2 2.2 0 0 1 .3-.5.52.52 0 0 0-.4.2c-1.5 2.1-4.2 2.9-6.3 4.4-1.1.8-2.6 2-2.8 3.5.1.4.1.6.2.9" class="cls-6"/><path d="M36.3 203.1c.1 0 .1.1.2.1s.3-.1.5-.2c1-.6 1.8-2.3 2.3-3.1.8-1.4 2-3.7 4-3.3h.2c.7.2.9-.9.1-1h-.7a4.56 4.56 0 0 0-3.5 2.3 25 25 0 0 0-1.7 2.7 17 17 0 0 0-1.1 1.8 2.2 2.2 0 0 1-.3.5c-.1.1-.1.2 0 .2" class="cls-6"/><path d="M40.1 200.8v.2c0-.1 0-.1.1-.2l1.2-.9c.1-.2.3-.4.4-.6a2.7 2.7 0 0 1 .7-.8.45.45 0 0 1 .5 0l.1-.1a.38.38 0 0 1 .6 0 .35.35 0 0 1 .1.2l.3-.3a.76.76 0 0 0-.2-.9c-.1 0-.1-.1-.2-.1-2.2-1.2-3.1 2.1-3.6 3.5" class="cls-6"/><path d="M43.1 198.4c-.6.6-1.2 1-1.7 1.5l-1.2.9c-.1.1-.1.1-.1.2s.1.5.4.3a14.4 14.4 0 0 0 3.2-2.3.75.75 0 0 0 .1-.5c0-.1-.1-.1-.1-.2-.2-.1-.5-.1-.6.1M38.9 202.3l.2-.1h-.2zM39.5 202.4a13 13 0 0 0 2.8 0c.6-.1 1.7-.2 2.1-.7a.3.3 0 0 0 0-.4h-.2a5.2 5.2 0 0 0-2.1.4 7.4 7.4 0 0 1-2.5.5c-.2 0-.2.2-.1.2M67.5 208.8c.1 0 .1 0 .2.1a9.4 9.4 0 0 1 1.5.6c.5.4.9.8 1.5 1.2 1.3.7 2.5-.2 3.4-1.1.1-.1.2-.4.1-.5-.4-1-1-1.9-.3-2.9.6-.7 1.1-1.4 1.6-2.1a.19.19 0 0 0 0-.3c-.1-.3-.6-.5-.8-.1a5.6 5.6 0 0 1-.6.8 8.1 8.1 0 0 0-1.4 2c-.4 1.2 1.4 3-.5 3.4-1.3.3-3.4-2.8-4.7-1.3l-.1.1c0-.1 0 0 .1.1M37.1 156.2c-.3-.1-.5-.2-.8-.3a3.25 3.25 0 0 1-2.4-3.3 13.6 13.6 0 0 1 .4-4 7.5 7.5 0 0 1 6-5.6 6.8 6.8 0 0 1 1.4-.2c1.3-.1 1.3-2.1 0-2h-.2c-4.6.6-8.2 3.1-9.2 7.8-.9 4.2-.3 7.6 3.8 9.2.2.1.3.1.5.2a.93.93 0 0 0 .5-1.8" class="cls-6"/><path d="M115.2 121.9a15 15 0 0 1-2.2 1c-.9.4-1.9.7-2.8 1a19 19 0 0 0-1.9 1.1c1.6.8 3.2 1.6 4.7 2.4a.1.1 0 0 1 .1.1c.1-.1.2-.1.4-.2a7.8 7.8 0 0 1 .9-3.7c.2-.5.5-1.1.8-1.7M121.3 110.2a4 4 0 0 1-.9-.5c-1.6 2.5-1.5 5.1-1.3 7.9a24.2 24.2 0 0 1 5.1-1.9c.9-.2 1.8-.5 2.7-.7l-3.3-2.9a11 11 0 0 0-2.3-1.9" class="cls-5"/><path d="M110.7 122.4a24.6 24.6 0 0 0 4.7-2 .52.52 0 0 1 .3-.7 24 24 0 0 1 2.1-1.3c-1.1-3.2-.2-6.6 1.3-9.5-.2-.5.4-1.1.9-1.1 1.5.3 3.2 1.8 4.5 2.8 1.5 1.2 2.8 2.7 4.3 4.1a21.2 21.2 0 0 1 4.9-.6h.2c.1-.3.2-.5.3-.8a1.3 1.3 0 0 1-.6-.1c-1.9-1.6-3.7-3.2-5.5-5a64 64 0 0 1-5.2-5.2c-.1-.1-.1-.2-.1-.4a.1.1 0 0 1 .1-.1v-.2c.7-4.7 5.5-8.5 9.4-10.3a2 2 0 0 1 .7-.1c.1-.1.4-.2.5-.1 4.2 2.8 5.1 9.6 6.9 14a21.6 21.6 0 0 1 6.1-3 17.25 17.25 0 0 1 8.2-.3h.1c.3-.1.4 0 .6.2a7.67 7.67 0 0 1 5.5 4.2v.1h.1c-.1-.1-.1-.2-.2-.3-.4-2.5.1-5.2.2-7.8.1-2.4-.2-5.4.7-7.7.1-.1.2-.3.3-.3h.2c.1-.1.2-.3.4-.3 2.7-.6 5.9 1.5 8.2 2.7a53.4 53.4 0 0 1 8.4 5.6.87.87 0 0 1 .4.7.66.66 0 0 1 .4.5 4 4 0 0 1-.7 1.8 7.2 7.2 0 0 0-.9 2 7.3 7.3 0 0 1-1.1 1.8c3.8-1 7.7-1.9 11.6-2.8l2.3-.6a58.7 58.7 0 0 0-16.6-13.1c-6.4-3.5-13.2-5.2-20.1-7.3h-.5c-23.9-5.3-47.2 17.6-44.9 41.2a11 11 0 0 1 1.6-.7m28.5-33.3a.37.37 0 0 1 .3-.1l.1-.1a25.83 25.83 0 0 1 15.8-.1 1 1 0 0 1 .7.8c.1.1.2.2.2.3.6 1.7.2 3.6.2 5.5s0 4.1-.2 6.1c-.1.9-1.5.9-1.4 0 .1-2 .3-4.1.3-6.1 0-1.4-.3-2.8-.3-4.3h-.2c-4.7-1.3-9.4-2-14.2-.8.6 1.7 1 3.6 1.6 5.3.8 2.3 2 4.6 2.7 6.9a.81.81 0 0 1-.4.9.89.89 0 0 1-1.3-.3c-1.1-1.9-1.5-4.3-2.1-6.4a44.4 44.4 0 0 1-2.1-7.1c-.1 0 .1-.3.3-.5M115 128.7a95 95 0 0 1 13.3 9.2c-2.7-4.7-7.6-10.2-13.3-9.2" class="cls-5"/><path d="M136.2 98.9c-.8-1.8-1.9-3.5-2.8-5.2l-.1.1a18.5 18.5 0 0 0-5.6 4c-1.6 1.5-2.7 3.4-4.2 4.9a27 27 0 0 1 5.2 4.4 71 71 0 0 0 5.8 5.1l.1.1a18.4 18.4 0 0 1 5-5.8c-.1 0-.2-.1-.3-.2-1-2.4-2-4.9-3.1-7.4M121.9 197.4a50 50 0 0 0-5.6-.7c.7.6 1.3 1.3 2 1.8 1.2.9 2.5 1.7 3.7 2.7 2.6 2.1 5.1 4.6 7.7 6.9 4.8 4.3 10 9.3 15.8 12.2a35.4 35.4 0 0 0 2.3-14.1c-5.8-2.2-11.4-4.6-17.2-6.5-2.9-.9-5.8-1.7-8.7-2.3M133.6 175.3l-.1-.1a71.3 71.3 0 0 0-17.9 9.5c-.1.1-.1.1-.2.1 4.4 2.9 9.3 4.4 14.3 5.9 5.4 1.7 11.1 4.4 16.9 3.9a65 65 0 0 0-4.2-13.6.75.75 0 0 1-.8.1c-2.6-1.9-5.7-3.4-8-5.8M110.2 176.4c.3 0 .6-.1.9-.1-.1 0-.1-.1-.2-.1s-.2 0-.2-.1c-2.5-1.5-1.4-4.7 0-6.6a.78.78 0 0 1 .4-.4c.1 0 .1 0 .1.1v.1c1.2-.8 2.6-1.2 3.7-2.1h.1c.1 0 .1 0 .1.1a21.4 21.4 0 0 1-3.9 2.8h-.2c-.6 1.7-1.1 3.9.5 5l.1.1h.2a1.21 1.21 0 0 1 1 .3c.1.2.2.3.2.5a3.7 3.7 0 0 0 1.1-.5c2.5-1 5-2 7.5-3.1.1 0 .2-.1.3-.1-2.3-1.4-4.4-3.3-6.7-4.7a.37.37 0 0 1-.1-.3c0-.1.2-.1.3-.1a26 26 0 0 1 7 4.9 102.5 102.5 0 0 0 12.8-6.5 80.2 80.2 0 0 0-14.8-17.1c-6.5 8.2-9.5 18.6-13.8 28 1.1-.4 2.3 0 3.6-.1m14-8.7c.7-1 1.3-2 2-3a18.5 18.5 0 0 1 1.9-2.7.6.6 0 0 1 .4-.1c.2.1.4.3.3.5a15 15 0 0 1-1.8 3c-.7 1-1.5 1.9-2.2 2.8-.3.3-.8-.2-.6-.5m-1 1a.6.6 0 0 1 .1.4c-.1.2-.3.2-.5.1a60 60 0 0 0-7.1-3.8c-.1-.1-.2-.1-.3-.2a.1.1 0 0 1-.1-.1.57.57 0 1 1 .8-.8 23.5 23.5 0 0 1 7.1 4.4m-5.4-16.4c.1-.1.2-.1.2.1a26.1 26.1 0 0 1-3.6 10.1.1.1 0 0 1-.1.1.35.35 0 0 1-.1-.2c.9-3.5 2.8-6.6 3.6-10.1M95.6 140.8c.1.9.2 1.7.3 2.6a20.8 20.8 0 0 1 2.4-3.4 20.6 20.6 0 0 1 2.9-3.7l-1.2-.6c-1.5-.7-3-1.2-4.4-1.7a51 51 0 0 0 0 6.8M242.8 114.4a.1.1 0 0 1-.1.1.1.1 0 0 0 .1-.1c.1.1.2.1.4.1-.1-.1-.2-.3-.3-.4a.37.37 0 0 1-.1.3M175.8 87.3a61.9 61.9 0 0 1 17.6 14.2.52.52 0 0 1 .2.4c1-.3 2-.5 3-.8a77.14 77.14 0 0 0-28.9-18.7 45.8 45.8 0 0 0-12.6-2.7c.1 0 .1.1.2.1 7 1.1 14.3 4.1 20.5 7.5M284.7 89.5c.8 3.5 2.5 5.2 3 5.1s1.2-2.3.4-5.9-2.5-5.2-3-5.1-1.2 2.4-.4 5.9m1.3 0a26 26 0 0 0 1.1 2.4 6.6 6.6 0 0 1-1.2-2.7.37.37 0 0 0 .1.3M245 110.6c-.6.1-1.2.3-1.7.4a26 26 0 0 0 2 2.6c.1.1.1.2.2.3a5.4 5.4 0 0 0 1.1-.5l.6-.6a7.7 7.7 0 0 1-2.2-2.2M206.2 120.4c3.6 6.9 5.7 15.3 6.7 22.9 1 8-.4 15.3-2.9 22.8 7.9-13.9 5-32.4-1.4-46.3ZM234.5 98.1c2.5 3.7 4.9 7.4 7.4 11 .5-.1 1.1-.3 1.6-.4-3.1-3.4-6.1-7-9-10.6" class="cls-5"/><path d="M107.5 124a.6.6 0 0 1-.3-.6c-.3-6.3.1-12.1 2.5-18a41.6 41.6 0 0 1 9.9-14.6 41 41 0 0 1 20-10.8c.7-.2 1.3-.4 1.9-.6a35.3 35.3 0 0 1 8.5-1.5 51.3 51.3 0 0 1 17.8 2.6A75 75 0 0 1 199 100c.1.1.2.3.3.4 9.7-2.5 19.4-4.9 29.1-7.4-.7-.9-1.4-1.9-2.1-2.8-18.6-24.1-37.2-48.1-56.7-71.4a115.1 115.1 0 0 0-80.6 100 71 71 0 0 1 18 5.6 2.2 2.2 0 0 1 .5-.4M166.6 109.9c-.2 0-.3 0-.4-.1a8.45 8.45 0 0 0-2.3 9.2c1 3.6 3.4 7.5 7.3 8.4a.92.92 0 0 1 .6.4c5.5-2.3 11.4-3.6 17.2-5.2 16.9-4.5 33.8-8.7 50.8-13-3.2-4.6-6.2-9.4-9.4-14-6.5 1.8-13 3.5-19.5 5.2-7.4 2-14.9 4-22.4 5.9l-11.5 3c-3.3.9-7.1 2.5-10.6 2.5s-.1 0 0 .1c-.1 0-.1-.1 0-.1 3.1-1.9 7.4-2.4 10.9-3.3l11-3c7.5-2 14.9-4.1 22.4-6.1 6.4-1.7 12.7-3.4 19.1-5.2-6.5 1.6-13 3.2-19.6 4.8l-24 5.9c-6.6 1.7-13 3.5-19.6 4.6M287.2 97.2a1.7 1.7 0 0 0 1-.7c-.2 0-.3.1-.5.1-2.2 0-4.1-3.2-4.9-6.6-.9-3.7-.5-7.7 1.9-8.3h.2a2.15 2.15 0 0 0-1.5-.4c-1.6.4-2.7 4.1-1.6 8.8s3.8 7.5 5.4 7.1" class="cls-5"/><path d="M162.2 107a9.13 9.13 0 0 1 5.1 1.4c.1 0 .1.1.1.2 2.6-.8 5.2-1.5 7.8-2.2v-.1a13 13 0 0 1 .9-1.6l.9-1.7c.3-.5.5-1.2.9-1.9a.55.55 0 0 1-.5-.3 42.3 42.3 0 0 0-7.8-5.5c-2.1-1-5-1.5-6.8-3a50 50 0 0 1-.3 6.7c-.1 2.6.3 5.2-.2 7.8.1 0 0 .1-.1.2M160.5 192.9a62.3 62.3 0 0 0-5.2-15.8c-3.1-6.5-6.2-13.2-11-18.6a1.42 1.42 0 0 1-1.2-.7 110.6 110.6 0 0 0-15.3-16.8c-10.4-9.4-23.7-16.9-37.6-19.8l-1.4-.3c0 .7-.1 1.5-.1 2.2 16.3 3.6 33.5 14.1 47.2 30.2 21.7 25.7 27.7 57.7 16.3 78.1.1 0 .2.1.3.1a39.7 39.7 0 0 0 3.8-5.9c5.3-9.9 6.1-21.6 4.2-32.7M244.9 107.8c.1.2.3.3.4.5.1 0 .2 0 .2-.1 12.9-3.3 25.9-6.2 38.7-10-1.9-1.4-3.5-4.2-4.4-7.7a14.3 14.3 0 0 1 .2-8.3c-6.7 1.6-13.4 3.3-20.1 4.9l-3.6.9c0 .2-.1.3-.3.4-7.3 2.5-14.9 4.3-22.3 6.3 1 1.2 2.1 2.4 3.1 3.6 2.8 3.2 5.5 6.3 8.1 9.5M176.9 165.6a107.4 107.4 0 0 1 7.2 12.8c3.9-1.9 7.9-3.1 11.2-6a117 117 0 0 0-11.1-10c-2.1-1.7-4.3-3.3-6.4-5-2-1.5-4.3-4.2-6.7-5.3a25.4 25.4 0 0 0 2.4 7.2 38.3 38.3 0 0 0 3.4 6.3M169.9 166.6c-2.1-3.8-4.8-7.2-7.1-10.9-.1 3.7-.3 7.3-.3 11-.1 4.1.8 8.1.9 12.1 4.1-.2 8.2.8 12.4.8a126 126 0 0 0-5.9-13M99.5 177.7a113 113 0 0 0 8.9 15.5c-.4-5.2-3.6-10.5-7-13.9-.6-.5-1.2-1-1.9-1.6M186.6 155.9c4.3 3.1 8.8 5.8 13.2 8.7 1-2 2.1-3.9 2.9-5.9a22 22 0 0 0 1.2-6.1h-.3c-4.9-1.7-10-3.1-15-4.4-2.5-.6-5.1-1.1-7.7-1.6a50 50 0 0 1-5.3-1.1c.3.5.6 1.1.9 1.6a17.8 17.8 0 0 0 2.9 3.2 63 63 0 0 0 7.2 5.6" class="cls-5"/><path d="M188.4 185.6c8.2-3.5 14.2-9.4 18.6-16.8a1.31 1.31 0 0 1-.2-1.1c3.1-7.9 5-15.8 4.1-24.4a74.5 74.5 0 0 0-2.5-12.3c-1-3.5-2.5-6.9-3.8-10.3-10.9 2.8-21.8 5.7-32.8 8a.35.35 0 0 1-.1.2.81.81 0 0 1 .4 1.1 5.4 5.4 0 0 1-1.9 1.8 7.6 7.6 0 0 1-1.3.7.6.6 0 0 1-.1.4v.2a9.5 9.5 0 0 1-5.1 4.3c1 3.9-1 7.3-4.6 8.9a.19.19 0 0 1-.3-.1c-.1-.1 0-.3.1-.4a7.62 7.62 0 0 0 3.5-7.9 36 36 0 0 1-6.1 1.5v.1c.4 2.5 1.5 5 1.2 7.6a5.33 5.33 0 0 1-2.1 3.7.3.3 0 0 1 .4 0c2.3 1.3 3.9 2.1 6.5 1a13.2 13.2 0 0 0 4.6-3.2c2.7-3 4.1-7.5 2.7-11.5-.1-.1.2-.2.2-.1a11.59 11.59 0 0 1-2.7 12.6c-2.7 2.8-7.8 4.2-11.4 2.1a85.7 85.7 0 0 1 1.2 23.7c.6 1.4 1.3 2.9 1.9 4.3a53 53 0 0 1 2.8 7.9c2.2.2 4.3.9 6.5 1.1a39.36 39.36 0 0 0 20.3-3.1M175 135.3c0-.1.1-.1.1-.2v-.1c0-3.1 6.8-4.1 8.9-4.7 2.8-.7 5.7-1.3 8.6-2a17.2 17.2 0 0 0 5.9-2 .75.75 0 0 1 1 .2.64.64 0 0 1 .6 0c1.9 1.9 2.6 5.3 3.5 7.9a41.8 41.8 0 0 1 2.1 9.3c.1.9-.7 1.2-1.4 1a.67.67 0 0 1-.8.3c-5.6-1.4-11.5-1.5-17.2-2.8-3.6-.7-11.3-2.2-11.3-6.9m-1.2 9.6c0-.2 0-.4.2-.5a.35.35 0 0 1 .2-.1l.3-.3c2.1-.6 4.5.1 6.6.5 2.6.5 5.1 1.1 7.6 1.7 5.2 1.3 10.3 2.8 15.4 4.6a.35.35 0 0 1 .2.1.37.37 0 0 1 .3-.1.78.78 0 0 1 .9.6c1.1 4.9-2 10-4.1 14.3-.1.3-.4.4-.6.5a.91.91 0 0 1-1.4.5 142 142 0 0 1-14.6-9.7 60 60 0 0 1-6.9-6.4c-1.4-1.5-3.8-3.7-4.1-5.7m-4.3 6.7a.72.72 0 0 1 .4-.7c.3-.4.9-.7 1.3 0 1.6 2.3 5.1 3.9 7.3 5.5l6.2 4.7c4.4 3.4 8.4 6.9 12.4 10.6a1.08 1.08 0 0 1 .3.7 1 1 0 0 1-.2.9c-3.4 3.5-8.1 6.3-13.1 6.8h-.3a.73.73 0 0 1-1.2-.3c-2.2-4.9-5.1-9.3-7.8-13.9a50 50 0 0 1-3.1-6.6c-.8-2.6-1.6-5.1-2.2-7.7m-6.8 28.4-.3-.3c-.1-.1-.3-.2-.3-.3-1.5-3.5-1.5-7.9-1.4-11.7.1-4.5.5-8.9.7-13.4a.71.71 0 0 1 1.3-.4c3.7 3.4 6.3 8.1 8.8 12.4a92 92 0 0 1 6.4 13.9c.3.7-.4 1.2-1 1.2-4.5 1-9.8 0-14.2-1.4M105.4 141.8" class="cls-5"/><path d="M243.3 118.9c-.2-.2-.2-.4-.3-.6-1-1.3-2-3.6-.7-4.5.2-.1.3-.1.4 0-.5-.7-1.1-1.4-1.6-2.2-9.4 2.4-18.8 4.7-28.2 7.1-.9.2-1.8.5-2.6.7 7.3 15.4 9.9 35.3-.6 49.7-4 8.5-11.7 15.1-20.2 18.8a44.3 44.3 0 0 1-14.3 3.6 37.4 37.4 0 0 1-12.9-.7c3 14.3.3 30.3-8.4 41.8a115 115 0 0 0 148-44c-19.1-23.8-38.1-47.4-58.6-69.7M134.3 154.8c-13.3-15.7-29.9-25.9-45.7-29.5 0 1.1-.1 2.3-.1 3.4v1.8a52.4 52.4 0 0 1 12 3.7 72.2 72.2 0 0 1 16.1 9.4c11.8 8.9 22.1 21.2 26.5 35.4 0 .1 0 .3-.1.3s-.3 0-.4-.1c-1-2.2-2.1-4.3-3.3-6.4a.73.73 0 0 1-.6.8 33 33 0 0 0-4.2 1.2c2.2 2.2 5.2 3.4 7.7 5.1l.1.1a.85.85 0 0 1 1.5 0 64.1 64.1 0 0 1 5.5 22.7c.4 7.1-.2 15.5-4.9 21.3a.32.32 0 0 1-.5-.4l.9-1.8c-.1 0-.1 0-.2-.1a190 190 0 0 1-15-11.8c-2.7-2.4-5.5-4.7-8.1-7-1.1-1-2.2-2.3-3.2-3.3s-2.4-1.7-3.5-2.8l-.1-.1c-.7-.1-1.3-.2-1.9-.3-.2 0-.3-.2-.4-.3s.1-.5.3-.5c5.4-1.5 12.2.5 17.4 2.2 6 1.9 11.8 4.6 17.6 6.8 0-.8-.1-1.6-.1-2.3a41 41 0 0 0-.7-6c-6.3.5-12.2-2.5-18.1-4.2-5.3-1.6-10.8-2.8-14.9-6.8-.4-.4.2-1.2.7-.9.1.1.2.1.3.2a.47.47 0 0 1 .1-.6 77 77 0 0 1 23.4-11.8.66.66 0 0 1 .6.1c-1-1.8-2.1-3.6-3.2-5.4a122 122 0 0 1-15.3 7.7c-4.3 1.8-10.2 5.6-14.8 2.8-.2 0-.4-.2-.3-.4 3.9-9.9 7-20.9 13.5-29.6-1.1-.9-2.3-1.8-3.5-2.7a85 85 0 0 0-14-8.1c-.9 1.5-1.8 3-2.8 4.4a33 33 0 0 1-2.6 3.9c.1 1 .3 2 .4 3a77 77 0 0 0 4 17.7c.3.9-1.2 1.3-1.5.4a76 76 0 0 1-4-17.6c-.4-4.5-2.1-10.4-.5-14.7-1.9-.7-3.9-1.3-5.9-1.9a114.2 114.2 0 0 0 9.4 42.6 26.73 26.73 0 0 1 11.4 15.7 18.7 18.7 0 0 1 .5 5.3 115 115 0 0 0 11.9 14.1c2 1.7 3.8 3.6 5.7 5.2 2.8 2.4 5.8 4.7 8.7 7.2a110 110 0 0 0 14.3 8.9c11-19.7 5.1-50.9-16.1-76m-29.6-12.7a.22.22 0 0 1 .2-.2v-.1a.27.27 0 0 1 .3-.3.52.52 0 0 1 .4.2 1 1 0 0 1-.2.9.6.6 0 0 1-.4.1.86.86 0 0 1-.3-.6m-2.9 5 .3-.6c.1-.1.2-.1.4-.1a.1.1 0 0 1 .1-.1.19.19 0 0 1 .3 0 .62.62 0 0 1 .1.8.81.81 0 0 1-.9.4c-.2.1-.3-.2-.3-.4m-1.8 23.5c-.2.3-.7 0-.6-.4 1.1-4 3.7-7.7 5.7-11.4-2.4-.1-4.2-4.4-6.7-3.2-.1.1-.3-.1-.3-.2.8-2.4 5.8 2.6 7 2.5a.52.52 0 0 1 .4.2c.1-.1.1-.2.2-.3a93.5 93.5 0 0 0 6.1-14.2.73.73 0 0 1 1.4.4c-1 4.9-3.5 9.6-5.7 13.8s-4.4 9-7.5 12.8M154.6 151.7a.37.37 0 0 1 .1-.3 11 11 0 0 1-2.5 1 21.6 21.6 0 0 1-1.7 3.4 31 31 0 0 1-2.2 4 68.3 68.3 0 0 1 6.8 12.1c.4-6.8.7-13.3-.5-20.2M151.2 152a.37.37 0 0 1 .1-.3c0-.1-.1-.2-.1-.3a32 32 0 0 0-1.2-10.2.37.37 0 0 1 .1-.3 37 37 0 0 1-4.6.9h-.9c-.1.1-.3.2-.4.1a24.4 24.4 0 0 1-3.4 3.8.3.3 0 0 1 .4 0 31 31 0 0 1 3.2 3.1 7.9 7.9 0 0 1 2.3 3.1.37.37 0 0 1-.1.3l-.1.1a.25.25 0 0 1-.4-.1c-1-1-1.8-2.3-2.8-3.1a8.3 8.3 0 0 1-2.6-3 .37.37 0 0 1 .1-.3l-.6.6a.3.3 0 0 1-.2.1l-.4.4c-.1.1-.2 0 0-.1s.2-.3.3-.5v-.1c0-.1.1-.1.1-.2a28.6 28.6 0 0 1 3.7-4.1c-1-.1-2-.2-3-.4-2.5-.4-4.4.3-6.7 1.3h-.4a105 105 0 0 1 12.1 13.7 1.08 1.08 0 0 1 .3.7c.6.7 1.2 1.4 1.7 2.1.7-1.4 1-3 1.6-4.4a5.5 5.5 0 0 1 1.9-2.9" class="cls-5"/><path d="M301.7 184.2c-.1-.1-.1-.2-.2-.2v-.1a69 69 0 0 0-6.6-9.7c-2.1-2.5-4.5-4.6-6.5-7.1-4.9-6-9.2-12.5-14.5-18.2a.75.75 0 0 1-.1-.5c-2.2-3.2-5.2-5.5-7.7-8.4a39 39 0 0 1-2.5-3.2l-6.3-7.2c-2.7-3-5.3-6.1-8-9.2-1.5-1.7-3.3-3.1-4.6-5v-.1a5 5 0 0 1-1.7.1c.2.5.4.9.5 1.1s.1.4.2.6a.81.81 0 0 1 1.1.2c5.7 6.2 11.3 12.6 16.8 19 11.2 13 22 26.4 32.8 39.8l8.5 10.6c.2-.3.4-.7.6-1a6.6 6.6 0 0 1-1.8-1.5" class="cls-5"/><path d="M263 130.8c0-.1-.1-.1-.1-.2s-.2-.1-.3-.2a91 91 0 0 1-9.2-10.4c-1.3-1.6-2.5-3.3-3.7-4.9-.4-.5-.8-1.2-1.3-1.9a.48.48 0 0 1-.6.2 4.4 4.4 0 0 1-.6.7 9 9 0 0 1-1.6 1.1 51.5 51.5 0 0 1 4.3 5q4.2 4.5 8.4 9.3l6.3 7.2c1.3 1.5 2.4 3 3.8 4.4 2.2 2.2 4.8 4.2 6.4 7a.9.9 0 0 1 .1.5c8.5 12.1 19.8 22 27.9 34.5a.1.1 0 0 1 .1.1 16 16 0 0 1 1.3 1.3c.3-.6.6-1.1.9-1.7-1.5-1.8-3-3.7-4.5-5.5-12.5-15.6-25.5-30.7-37.6-46.5M155.2 151.1a.1.1 0 0 1 .1-.1c-.1 0-.2.1-.1.1M155.9 145.4c-.2-1.8-.9-3.6-1.2-5.5v-.2c-.3.1-.5.1-.8.2-1.1.2-2.3.5-3.4.8.1 0 .1.1.1.2a43 43 0 0 1 1.8 10c2.4-1.1 3.8-2.6 3.5-5.5M213.3 70.1c2.1 2.7 4.2 5.3 6.2 8 4.1 4.7 8.1 9.3 12.1 14 16.8-4.2 33.6-8.5 50.5-12.7h.5a.6.6 0 0 1 .4-.1c3-.7 6.4 3.1 7.8 8.6 1.2 4.9.2 9.4-2.1 10.8a1 1 0 0 1-.7.7c-6 1.8-12.2 3.3-18.3 4.9-7.6 2-15.2 3.9-22.7 5.8.1.1.2.3.3.4h.1c2.6-.2 4.9 4.8 6.1 6.3 3.2 4.4 7.1 8.3 10.4 12.6a.6.6 0 0 1 .1.4.1.1 0 0 1 .1.1c13.3 14.8 25.7 30.6 38.5 46 1.3 1.5 2.5 3.1 3.8 4.6A114.94 114.94 0 0 0 171 18.4c2.5 2.8 4.9 5.6 7.4 8.4 11.8 14.2 23.4 28.7 34.9 43.3M127.7 130.7a.4.4 0 0 1-.4-.2 11.06 11.06 0 0 1-.5-7.6 7.2 7.2 0 0 1 .9-2.7c.7-.9 2.4-1.2 3.4-1.6.2-.1.3.1.2.3.1 0 .1.1.1.2l.1.1-.2.4c-.5 1.2-.8 2.5-1.2 3.8v.2c0 .1 0 .1-.1.1s-.1 0-.1-.1a4 4 0 0 1 .7-3.5h.1c.1-.2.2-.5.3-.7l.1-.2a24 24 0 0 0-2.2 1.2 4.47 4.47 0 0 0-1.2 2.7 12.3 12.3 0 0 0 .3 6.6l.1.1a21.82 21.82 0 0 0 8.8 10.2 16.5 16.5 0 0 1 3.2-.6 18.4 18.4 0 0 1-4.4-4.4c-1.7-2.3-3.6-5.3-3.6-8.2.1-.1.1-.2.3-.3a.57.57 0 0 1 .7.2c1.9 5.1 4.8 10 9.6 12.7h.2c2.8.4 5.6-.2 8.4-.7a71 71 0 0 0 9.1-2.2c2-.6 4.6-1.5 6.2-3.1-4.4 0-7.9-3.9-9.6-7.8-1.6-3.6-3.5-9.7-.6-13.1.1 0 .1 0 .1.1-2.8 6.7 3.1 21 11.5 19h.4c.3-.3.7-.5 1-.8a18 18 0 0 0 1.3-1.4c-4.5-1.3-7.5-6.2-8.5-10.5-.8-3.7-.2-9.1 3.8-10.4a15 15 0 0 0-5.1-.7.76.76 0 0 1-1.1.2c-2-1.5-3.4-3.2-5.9-4.1h-.1a24 24 0 0 0-7.1 4.1 1 1 0 0 0-.5.4v.1c-.1-.3.7.7.7.8l.6 1.2a22.6 22.6 0 0 0 3.2 5.4.1.1 0 0 0 .1.1c-.1.1-.1.1-.2.1-3.1-1.5-3.6-4.9-5.4-7.6a.48.48 0 0 1 .2-.6 36.2 36.2 0 0 1 6.5-4.2 10.3 10.3 0 0 0-5.2.7 20.3 20.3 0 0 0-6.9 4.2l-.7.7v.2c-1.4.9-.1 3.9.1 5.2.2 1.5 0 3.2-1.5 3.9-.3.1-.7-.2-.4-.5 1.5-1.9.6-3.8.3-6a2.8 2.8 0 0 1-.1-.9c-1 1.3-1.9 2.8-2.9 4.2a6.18 6.18 0 0 1-2.2 4.7c-.5.4-1.2-.4-.7-.8a10.5 10.5 0 0 0 2-3.4c-2.7.8-5.6 1-8.4 1.8a55 55 0 0 0-8 3c0 .1 0 .2-.1.2a24 24 0 0 0-1.5 3.3 13.5 13.5 0 0 0-.5 2.9c6.2-1.1 13.6 6 14.9 11.5a.61.61 0 0 1-.3.7c1.2 1 2.3 2 3.5 3.1a.37.37 0 0 1 .2-.5 16 16 0 0 1 2.3-1.1 22.17 22.17 0 0 1-8.1-10.1m29.2-20.2c.2-.3.3-.7.6-.9.4-.5.9-1.2 1.6-1.2-.1.6-.7 1.1-1 1.6a20 20 0 0 0-1.3 1.8c0 .1 0 .1-.1.1s-.1 0-.1-.1a2.8 2.8 0 0 1 .3-1.3m-5.5 5.7c1.4.5 2 2.1 2.5 3.4a15 15 0 0 1 1.4 5c-.1.4-.6.6-.7.2-.5-1.2-.7-2.5-1.2-3.7s-1.2-3.5-2.3-4c-.2-.1-.2-.3-.2-.5a.46.46 0 0 1 .5-.4m-12.1-5.9a.67.67 0 0 1 .7-.4.57.57 0 0 1 .4.7c-.2.9.7 2.8 1.8 2.9a1.83 1.83 0 0 0 1.9-1.2c.1-.1.2-.3.4-.3a.72.72 0 0 1 .9.5c.3 1.9-1.9 3-3.6 2.6a3.78 3.78 0 0 1-2.5-4.8m-21.4 13c-.6.4-1.2-.6-.6-.9a35 35 0 0 1 6.8-2.5 34.2 34.2 0 0 0 7.7-3c-1.6 1.7-4.2 2.3-6.3 3.2a72 72 0 0 0-7.6 3.2M188.9 141.3c4.8.8 9.8 1 14.5 2.2a45 45 0 0 0-1.8-9c-.6-2.1-2-4.4-2.3-6.6-3.3 2-7.9 2.5-11.6 3.4-1.5.4-11.2 1.7-11.2 3.8a.52.52 0 0 1-.2.4c2.9 3.9 7.7 5 12.6 5.8" class="cls-5"/><path d="M300.7 177.1c1.5 1.8 3 3.7 4.5 5.5.3-.6.7-1.3 1-1.9-1.3-1.5-2.5-3.1-3.8-4.6-12.7-15.4-25.1-31.2-38.5-46a.1.1 0 0 1-.1-.1.6.6 0 0 0-.1-.4c-3.2-4.4-7.1-8.3-10.4-12.6-1.2-1.6-3.5-6.5-6.1-6.3h-.1c-.1-.1-.2-.3-.3-.4 7.6-1.9 15.2-3.8 22.7-5.8 6.1-1.6 12.3-3 18.3-4.9a1 1 0 0 0 .7-.7c2.4-1.4 3.3-5.9 2.1-10.8-1.3-5.5-4.7-9.3-7.8-8.6-.1 0-.3.1-.4.1h-.5c-16.8 4.2-33.7 8.4-50.5 12.7-4-4.7-8-9.3-12.1-14l-6.2-8Q196 48.25 177.9 27c-2.4-2.8-4.9-5.6-7.4-8.4a5.6 5.6 0 0 0-1.2.4c19.6 23.3 38.1 47.3 56.7 71.4.7.9 1.4 1.9 2.1 2.8-9.7 2.4-19.4 4.9-29.1 7.4-.1-.2-.1-.3-.3-.4a74.4 74.4 0 0 0-31.2-19.5 51.3 51.3 0 0 0-17.8-2.6 41 41 0 0 0-8.5 1.5c-.6.2-1.2.3-1.9.6a40.54 40.54 0 0 0-20 10.8 43 43 0 0 0-9.9 14.6c-2.4 6-2.8 11.7-2.5 18a.6.6 0 0 0 .3.6c-.2.1-.3.3-.5.5a71 71 0 0 0-18-5.6c-.1.7-.1 1.5-.2 2.2l1.4.3c13.8 2.9 27.2 10.3 37.6 19.8a106 106 0 0 1 15.3 16.8 2.13 2.13 0 0 0 1.2.7c4.8 5.5 7.9 12.1 11 18.6a62.3 62.3 0 0 1 5.2 15.8c1.9 11.1 1.1 22.8-4.2 32.9a45.6 45.6 0 0 1-3.8 5.9c.5.2.9.5 1.4.7 8.7-11.5 11.3-27.4 8.4-41.8a37.6 37.6 0 0 0 12.9.7 44.3 44.3 0 0 0 14.3-3.6c8.5-3.7 16.2-10.3 20.2-18.8 10.5-14.4 7.9-34.3.6-49.7.9-.2 1.8-.5 2.6-.7 9.4-2.4 18.8-4.7 28.2-7.1.5.7 1.1 1.5 1.6 2.2-.1-.1-.2-.1-.4 0-1.2.9-.3 3.2.7 4.5a.86.86 0 0 0 .3.6c20.5 22.3 39.5 46 58.6 69.5.3-.5.6-1 .9-1.6l-8.5-10.6c-10.8-13.4-21.6-26.8-32.8-39.8-5.5-6.4-11.1-12.8-16.8-19a.81.81 0 0 0-1.1-.2 1.4 1.4 0 0 1-.2-.6c-.1-.2-.3-.7-.5-1.1a9 9 0 0 0 1.7-.1v.1c1.3 1.8 3.2 3.3 4.6 5 2.6 3.1 5.3 6.2 8 9.2l6.3 7.2a39 39 0 0 1 2.5 3.2c2.5 3 5.5 5.2 7.7 8.4a.9.9 0 0 0 .1.5c5.2 5.7 9.6 12.2 14.5 18.2 2 2.5 4.4 4.6 6.5 7.1a83 83 0 0 1 6.6 9.7v.1a.22.22 0 0 0 .2.2c.6.5 1.1 1.1 1.7 1.6.3-.5.6-1.1.9-1.6l-1.3-1.3-.1-.1c-8.1-12.4-19.4-22.4-27.9-34.5a1.1 1.1 0 0 0-.1-.5c-1.6-2.7-4.2-4.7-6.4-7-1.4-1.4-2.5-2.9-3.8-4.4l-6.3-7.2q-4-4.65-8.4-9.3c-1.4-1.5-2.7-3.6-4.3-5a5.7 5.7 0 0 0 1.6-1.1c.1-.2.4-.4.6-.7a.45.45 0 0 0 .6-.2c.5.7.9 1.4 1.3 1.9 1.2 1.7 2.4 3.3 3.7 4.9a91 91 0 0 0 9.2 10.4c.1.1.2.1.3.2s0 .1.1.2c12.4 15.8 25.4 30.9 38 46.3m-15.6-93.5c.5-.1 2.1 1.5 3 5.1s.1 5.7-.4 5.9-2.1-1.5-3-5.1-.1-5.7.4-5.9m-1.7-2.3a1.9 1.9 0 0 1 1.5.4h-.2c-2.4.6-2.7 4.6-1.9 8.3.8 3.4 2.7 6.6 4.9 6.6a.9.9 0 0 0 .5-.1 1.7 1.7 0 0 1-1 .7c-1.6.4-4.2-2.4-5.4-7.1s0-8.4 1.6-8.8m-115.7 1a77.9 77.9 0 0 1 28.9 18.7c-1 .3-2 .5-3 .8-.1-.1-.1-.2-.2-.4a60.5 60.5 0 0 0-17.6-14.2c-6.2-3.3-13.5-6.4-20.5-7.5 0-.1-.1-.1-.2-.1a53.4 53.4 0 0 1 12.6 2.7m-13.8-.4h.5c6.9 2.1 13.7 3.9 20.1 7.3a60.5 60.5 0 0 1 16.6 13.1l-2.3.6c-3.8 1-7.7 1.9-11.6 2.8a7.3 7.3 0 0 0 1.1-1.8c.3-.7.6-1.3.9-2a2.87 2.87 0 0 0 .7-1.8.46.46 0 0 0-.4-.5.75.75 0 0 0-.4-.7 58.4 58.4 0 0 0-8.4-5.6c-2.3-1.3-5.5-3.3-8.2-2.7-.2 0-.3.2-.4.3h-.2c-.1.1-.3.2-.3.3-.9 2.3-.6 5.2-.7 7.7a33.8 33.8 0 0 0-.2 7.8c0 .1.1.2.2.3h-.1v-.1a7.67 7.67 0 0 0-5.5-4.2c-.1-.2-.3-.2-.6-.2h-.1a18.6 18.6 0 0 0-8.2.3 20.3 20.3 0 0 0-6.1 3c-1.8-4.4-2.7-11.2-6.9-14-.2-.1-.4-.1-.5.1a.62.62 0 0 0-.7.1c-4 1.8-8.7 5.7-9.4 10.3v.2a.1.1 0 0 0-.1.1.6.6 0 0 0 .1.4c1.7 1.8 3.4 3.6 5.2 5.2a53 53 0 0 0 5.5 5 .66.66 0 0 0 .6.1c-.1.3-.2.5-.3.8h-.2a16.5 16.5 0 0 0-4.9.6c-1.4-1.3-2.7-2.8-4.3-4.1-1.2-1-2.9-2.5-4.5-2.8a.87.87 0 0 0-.9 1.1c-1.5 3-2.3 6.3-1.3 9.5-.7.4-1.5.9-2.1 1.3a.59.59 0 0 0-.3.7 27.7 27.7 0 0 1-4.7 2c-.5.2-1.1.4-1.7.7-2.1-23.6 21.1-46.5 45-41.2m21.4 24.5c-2.6.7-5.2 1.4-7.8 2.2 0-.1-.1-.1-.1-.2a10 10 0 0 0-5.1-1.4c.1-.1.2-.2.2-.3.5-2.5.2-5.2.2-7.8 0-2.1.5-4.5.3-6.7 1.8 1.5 4.7 2 6.8 3a35.5 35.5 0 0 1 7.8 5.5c.2.2.4.2.5.3-.3.6-.6 1.4-.9 1.9l-.9 1.7c-.3.6-.8.9-.9 1.6-.1.1-.1.1-.1.2m-35.7.1a18.4 18.4 0 0 0-5 5.8.1.1 0 0 0-.1-.1c-2-1.6-4-3.4-5.8-5.1a22 22 0 0 0-5.2-4.4c1.5-1.6 2.6-3.4 4.2-4.9a20.4 20.4 0 0 1 5.6-4l.1-.1c.8 1.8 2 3.5 2.8 5.2 1.1 2.5 2.1 5 3.2 7.4a.22.22 0 0 0 .2.2M127 115c-.9.2-1.8.5-2.7.7a22.3 22.3 0 0 0-5.1 1.9c-.3-2.8-.4-5.5 1.3-7.9.3.2.6.3.9.5.8.6 1.6 1.2 2.4 1.9Zm-13.5 12.4c-.1.1-.2.1-.4.2a.1.1 0 0 1-.1-.1 42 42 0 0 0-4.7-2.4c.6-.4 1.2-.7 1.9-1.1.9-.4 1.9-.7 2.8-1a21 21 0 0 0 2.2-1 13 13 0 0 0-.8 1.7 6 6 0 0 0-.9 3.7m1.5 1.3c5.6-1 10.6 4.5 13.3 9.2a95 95 0 0 0-13.3-9.2m18.2 13.5c-1.1-1.1-2.3-2.1-3.5-3.1.2-.2.4-.4.3-.7-1.3-5.5-8.7-12.5-14.9-11.5a14.7 14.7 0 0 1 .5-2.9 24 24 0 0 1 1.5-3.3.35.35 0 0 1 .1-.2 59.5 59.5 0 0 1 8-3c2.7-.7 5.7-.9 8.4-1.8a9 9 0 0 1-2 3.4c-.5.4.2 1.3.7.8a6.18 6.18 0 0 0 2.2-4.7c1-1.4 1.9-2.8 2.9-4.2a2.8 2.8 0 0 0 .1.9c.3 2.2 1.2 4.1-.3 6-.3.3.1.6.4.5 1.5-.7 1.7-2.5 1.5-3.9s-1.5-4.3-.1-5.2c.1-.1.1-.1 0-.2l.7-.7a18.9 18.9 0 0 1 6.9-4.2 11.5 11.5 0 0 1 5.2-.7 40 40 0 0 0-6.5 4.2.48.48 0 0 0-.2.6c1.8 2.7 2.3 6.1 5.4 7.6.1.1.1 0 .2-.1a.1.1 0 0 1-.1-.1 22.6 22.6 0 0 1-3.2-5.4l-.6-1.2c0-.1-.8-1.1-.7-.8v-.1c.2-.1.3-.3.5-.4a26.3 26.3 0 0 1 7.1-4.1h.1c2.5.9 3.9 2.6 5.9 4.1a.8.8 0 0 0 1.1-.2 18 18 0 0 1 5.1.7c-4.1 1.3-4.6 6.7-3.8 10.4.9 4.3 4 9.2 8.5 10.5a18 18 0 0 1-1.3 1.4c-.3.3-.7.5-1 .8h-.4c-8.4 2-14.3-12.3-11.5-19 0-.1 0-.1-.1-.1-2.9 3.4-1 9.5.6 13.1 1.7 3.9 5.2 7.8 9.6 7.8-1.6 1.6-4.2 2.5-6.2 3.1a71 71 0 0 1-9.1 2.2 29.9 29.9 0 0 1-8.4.7h-.2c-4.8-2.7-7.7-7.6-9.6-12.7a.44.44 0 0 0-.7-.2l-.3.3c.1 2.9 1.9 6 3.6 8.2a18.4 18.4 0 0 0 4.4 4.4 16.5 16.5 0 0 0-3.2.6 22.4 22.4 0 0 1-8.8-10.2.1.1 0 0 0-.1-.1 12.3 12.3 0 0 1-.3-6.6 4.47 4.47 0 0 1 1.2-2.7 24 24 0 0 1 2.2-1.2l-.1.2c-.1.2-.2.5-.3.7h-.1a4.36 4.36 0 0 0-.7 3.5c0 .1 0 .1.1.1s.1 0 .1-.1v-.2a28 28 0 0 1 1.2-3.8l.2-.4-.1-.1c0-.1 0-.2-.1-.2.1-.2 0-.4-.2-.3-1 .4-2.7.6-3.4 1.6a6.2 6.2 0 0 0-.9 2.7 11.67 11.67 0 0 0 .5 7.6c.1.2.2.2.4.2a20.8 20.8 0 0 0 8 9.8 24 24 0 0 0-2.3 1.1 2.8 2.8 0 0 0-.1.8m22.7 3.2c.3 2.8-1.1 4.4-3.4 5.5a55 55 0 0 0-1.8-10c0-.1-.1-.1-.1-.2 1.2-.3 2.3-.5 3.4-.8.3-.1.5-.1.8-.2v.2c.2 1.9.9 3.7 1.1 5.5m-9.8 11.6a1.08 1.08 0 0 0-.3-.7 99 99 0 0 0-12.1-13.7h.4c2.3-1 4.1-1.7 6.7-1.3 1 .2 2 .3 3 .4a28.6 28.6 0 0 0-3.7 4.1c0 .1-.1.1-.1.2v.1c-.1.2-.2.3-.3.5s-.1.2 0 .1a.78.78 0 0 0 .4-.4c.1 0 .2 0 .2-.1l.6-.6a31 31 0 0 0 3.4-3.8c.2 0 .3 0 .4-.1h.9a37 37 0 0 0 4.6-.9.37.37 0 0 0-.1.3 35.2 35.2 0 0 1 1.2 10.2.5.5 0 0 1 0 .6 5.26 5.26 0 0 0-1.8 2.8c-.6 1.4-.9 3-1.6 4.4a17 17 0 0 1-1.8-2.1m9 14.9a80 80 0 0 0-6.8-12.1c.8-1.3 1.5-2.6 2.2-4a21.6 21.6 0 0 0 1.7-3.4 6.9 6.9 0 0 0 2.5-1c0 .1-.1.2-.1.3 1.2 6.9.9 13.4.5 20.2m51.8-3.1c-4.4 7.5-10.3 13.3-18.6 16.8a41.6 41.6 0 0 1-20.3 3.2c-2.2-.2-4.4-.9-6.5-1.1a53 53 0 0 0-2.8-7.9c-.7-1.4-1.3-2.9-1.9-4.3a85.7 85.7 0 0 0-1.2-23.7c3.6 2.1 8.7.8 11.4-2.1a11.81 11.81 0 0 0 2.7-12.6c-.1-.1-.3-.1-.2.1 1.4 3.9 0 8.4-2.7 11.5a12.3 12.3 0 0 1-4.6 3.2c-2.6 1-4.2.2-6.5-1-.1-.1-.3 0-.4 0a5.55 5.55 0 0 0 2.1-3.7c.3-2.6-.8-5.1-1.2-7.6v-.1a49 49 0 0 0 6.1-1.5 7.62 7.62 0 0 1-3.5 7.9c-.1.1-.2.2-.1.4s.2.2.3.1c3.6-1.6 5.6-5 4.6-8.9 2.2-1 4.2-2.3 5.1-4.3v-.2c.1-.1.1-.2.1-.4a7.6 7.6 0 0 0 1.3-.7 6.6 6.6 0 0 0 1.9-1.8.76.76 0 0 0-.4-1.1c0-.1.1-.1.1-.2 11-2.3 21.9-5.2 32.8-8 1.3 3.5 2.8 6.8 3.8 10.3a72.5 72.5 0 0 1 2.5 12.3c.9 8.5-1 16.5-4.1 24.4a1.09 1.09 0 0 0 .2 1m3.1-2.7c2.5-7.5 3.9-14.8 2.9-22.8-1-7.6-3-16-6.7-22.9l2.4-.6c6.5 13.9 9.4 32.4 1.4 46.3m29.7-56.4c-16.9 4.3-33.9 8.5-50.8 13-5.8 1.6-11.7 2.9-17.2 5.2a.92.92 0 0 0-.6-.4c-3.9-.9-6.2-4.8-7.3-8.4a8.45 8.45 0 0 1 2.3-9.2.6.6 0 0 0 .4.1c6.6-1.1 13-2.9 19.4-4.5l24-5.9c6.5-1.6 13-3.2 19.6-4.8-6.3 1.7-12.7 3.5-19.1 5.2-7.5 2-14.9 4-22.4 6.1l-11 3c-3.5.9-7.8 1.4-10.9 3.3-.1 0-.1.1 0 .1v-.1c3.5.1 7.3-1.6 10.6-2.5l11.5-3c7.5-1.9 15-3.9 22.4-5.9 6.5-1.7 13-3.5 19.5-5.2l3.5-.9c7.4-2 15-3.8 22.3-6.3.2-.1.3-.2.3-.4l3.6-.9c6.7-1.7 13.4-3.3 20.1-4.9a14.3 14.3 0 0 0-.2 8.3c.8 3.5 2.5 6.3 4.4 7.7-12.8 3.8-38.8 10-38.9 10.1Zm3.1 4.8a.9.9 0 0 0 .1-.5c.1.1.2.3.3.4a.76.76 0 0 1-.4.1m3.6-1a3.7 3.7 0 0 1-1.1.5c0-.1-.1-.2-.2-.3-.7-.9-1.3-1.8-2-2.6.6-.1 1.2-.3 1.7-.4a8.8 8.8 0 0 0 2.1 2.2 1.33 1.33 0 0 1-.5.6" class="cls-7"/><path d="m155.2 151-.1.1h-.1a.35.35 0 0 0 .2-.1M135.8 153.5c-13.6-16.2-30.8-26.6-47.2-30.2 0 .7-.1 1.3-.1 2 15.8 3.6 32.4 13.8 45.7 29.5 21.2 25.1 27.1 56.3 16.1 75.9l1.8.9c11.4-20.4 5.4-52.4-16.3-78.1M286 89.5a.37.37 0 0 1-.1-.3 6.6 6.6 0 0 0 1.2 2.7 26 26 0 0 1-1.1-2.4M184.7 156.9c4.5 3.7 9.7 6.7 14.6 9.7a.93.93 0 0 0 1.4-.5.63.63 0 0 0 .6-.5c2.1-4.2 5.2-9.4 4.1-14.3a.78.78 0 0 0-.9-.6c-.1 0-.2.1-.3.1s-.1-.1-.2-.1c-5.1-1.8-10.2-3.3-15.4-4.6-2.5-.6-5-1.3-7.6-1.7-2.1-.4-4.5-1.2-6.6-.5a.45.45 0 0 0-.3.3c-.1 0-.1.1-.2.1a.76.76 0 0 0-.2.5c.3 1.9 2.7 4.2 4 5.6a53.4 53.4 0 0 0 7 6.5m-9-11.4a50 50 0 0 0 5.3 1.1c2.6.5 5.1 1 7.7 1.6 5 1.2 10.1 2.7 15 4.4h.3a24.4 24.4 0 0 1-1.2 6.1c-.8 2-1.9 3.9-2.9 5.9-4.4-2.9-8.9-5.7-13.2-8.7a64 64 0 0 1-7.1-5.5 29 29 0 0 1-2.9-3.2 10.6 10.6 0 0 1-1-1.7M176.9 181.3c.6 0 1.3-.4 1-1.2a103 103 0 0 0-6.4-13.9c-2.4-4.3-5-9.1-8.8-12.4a.73.73 0 0 0-1.3.4c-.2 4.5-.6 9-.7 13.4-.1 3.8-.1 8.2 1.4 11.7.1.1.2.3.3.3s.2.3.3.3c4.4 1.5 9.7 2.5 14.2 1.4m-13.6-2.5c-.1-4-.9-8-.9-12.1 0-3.7.2-7.3.3-11 2.3 3.7 5 7.1 7.1 10.9a89 89 0 0 1 5.8 13c-4.1.1-8.2-.9-12.3-.8M175 165.7a159 159 0 0 1 7.8 13.9.73.73 0 0 0 1.2.3h.3c5-.4 9.6-3.2 13.1-6.8a.8.8 0 0 0 .2-.9.74.74 0 0 0-.3-.7c-4-3.7-8.1-7.3-12.4-10.6-2-1.6-4.1-3.1-6.2-4.7-2.3-1.6-5.8-3.2-7.3-5.5a.75.75 0 0 0-1.3 0 .57.57 0 0 0-.4.7 32.8 32.8 0 0 0 2.4 7.5 25.8 25.8 0 0 0 2.9 6.8m2.7-8.3c2.1 1.7 4.3 3.3 6.4 5a117 117 0 0 1 11.1 10c-3.2 2.9-7.3 4.1-11.2 6a145 145 0 0 0-7.2-12.8c-1.2-2-2.4-4.1-3.5-6.2a26.5 26.5 0 0 1-2.4-7.2c2.5 1 4.8 3.7 6.8 5.2M186.1 142.2c5.7 1.3 11.6 1.4 17.2 2.8a.76.76 0 0 0 .8-.3c.7.2 1.5-.2 1.4-1a48.3 48.3 0 0 0-2.1-9.3c-.8-2.5-1.6-5.9-3.5-7.9a.64.64 0 0 0-.6 0 .75.75 0 0 0-1-.2 18.7 18.7 0 0 1-5.9 2c-2.9.7-5.8 1.3-8.6 2-2 .5-8.9 1.6-8.9 4.7v.1c0 .1-.1.1-.1.2.2 4.7 7.9 6.2 11.3 6.9m-9.6-7.2c.1-2.1 9.8-3.5 11.2-3.8 3.7-.8 8.3-1.3 11.6-3.4.3 2.2 1.6 4.5 2.3 6.6a46.3 46.3 0 0 1 1.8 9c-4.7-1.2-9.7-1.3-14.5-2.2s-9.7-1.9-12.6-5.9c.1 0 .2-.1.2-.3M141.1 97c.6 2.1 1 4.5 2.1 6.4a1.06 1.06 0 0 0 1.3.3.87.87 0 0 0 .4-.9c-.7-2.4-1.9-4.6-2.7-6.9-.6-1.7-1-3.6-1.6-5.3 4.8-1.2 9.5-.5 14.2.8h.2c0 1.4.3 2.8.3 4.3 0 2-.2 4.1-.3 6.1-.1.9 1.4.9 1.4 0 .2-2 .2-4.1.2-6.1 0-1.8.4-3.7-.2-5.5 0-.1-.1-.2-.2-.3a1.8 1.8 0 0 0-.7-.8 25.84 25.84 0 0 0-15.8.1.1.1 0 0 0-.1.1.37.37 0 0 0-.3.1.67.67 0 0 0-.3.8 57 57 0 0 0 2.1 6.8" class="cls-7"/><path d="M94.9 148.3a81.6 81.6 0 0 0 4 17.6c.3.9 1.8.5 1.5-.4a75.8 75.8 0 0 1-4-17.7c-.1-1-.2-2-.4-3a38 38 0 0 0 2.6-3.9c1-1.5 1.9-2.9 2.8-4.4a92.7 92.7 0 0 1 14 8.1c1.2.9 2.4 1.8 3.5 2.7-6.5 8.7-9.5 19.7-13.5 29.6-.1.2.2.4.3.4 4.6 2.7 10.5-1 14.8-2.8a109.5 109.5 0 0 0 15.3-7.7c1.1 1.8 2.2 3.6 3.2 5.4a1.3 1.3 0 0 0-.6-.1 79.3 79.3 0 0 0-23.4 11.8.47.47 0 0 0-.1.6c-.1-.1-.2-.1-.3-.2-.6-.3-1.2.5-.7.9 4 4 9.6 5.2 14.9 6.8 5.8 1.7 11.8 4.7 18.1 4.2.3 2 .5 4 .7 6a19 19 0 0 1 .1 2.3c-5.9-2.3-11.6-5-17.6-6.8-5.2-1.7-12-3.7-17.4-2.2-.2.1-.4.3-.3.5s.2.3.4.3l1.9.3.1.1c1.1 1 2.5 1.7 3.5 2.8s2.1 2.3 3.2 3.3c2.7 2.4 5.5 4.7 8.1 7a169 169 0 0 0 15 11.8c.1 0 .1.1.2.1l-.9 1.8c-.2.3.3.7.5.4 4.7-5.8 5.3-14.2 4.9-21.3a64.1 64.1 0 0 0-5.5-22.7c-.3-.7-1.1-.5-1.5 0l-.1-.1c-2.6-1.7-5.6-2.9-7.7-5.1a33 33 0 0 1 4.2-1.2.76.76 0 0 0 .6-.8c1.1 2.1 2.2 4.2 3.3 6.4.1.1.2.2.4.1s.2-.2.1-.3c-4.4-14.3-14.6-26.5-26.5-35.4a78.8 78.8 0 0 0-16.1-9.4 52.4 52.4 0 0 0-12-3.7v1.3c2 .6 3.9 1.2 5.9 1.9-1.6 4.3.1 10.2.5 14.7m52.9 58a35.4 35.4 0 0 1-2.3 14.1c-5.8-2.9-11-7.9-15.8-12.2-2.6-2.3-5-4.7-7.7-6.9-1.2-1-2.5-1.8-3.7-2.7-.7-.6-1.3-1.2-2-1.8a54 54 0 0 1 5.6.7 64.6 64.6 0 0 1 8.6 2.4c5.8 1.8 11.5 4.3 17.3 6.4m-6.1-25.3a.61.61 0 0 0 .8-.1 65 65 0 0 1 4.2 13.6c-5.8.5-11.5-2.2-16.9-3.9-5-1.5-9.9-3-14.3-5.9.1 0 .1 0 .2-.1a71.3 71.3 0 0 1 17.9-9.5.1.1 0 0 0 .1.1c2.2 2.5 5.3 4 8 5.8m-6.6-15.6a118 118 0 0 1-12.8 6.5 24.5 24.5 0 0 0-7-4.9c-.1-.1-.2 0-.3.1s0 .2.1.3c2.4 1.3 4.4 3.2 6.7 4.7-.1 0-.2.1-.3.1-2.5 1.1-5 2.1-7.5 3.1-.4.2-.7.3-1.1.5a.76.76 0 0 0-.2-.5 1 1 0 0 0-1-.3h-.2l-.1-.1c-1.6-1-1.1-3.3-.5-5h.2a17.5 17.5 0 0 0 3.9-2.8c0-.1 0-.1-.1-.1h-.1c-1.1.9-2.5 1.3-3.7 2.1v-.1c0-.1 0-.1-.1-.1l-.4.4c-1.5 1.9-2.5 5.1 0 6.6a.35.35 0 0 1 .2.1c.1.1.1.1.2.1a2.8 2.8 0 0 1-.9.1 24 24 0 0 0-3.8-.1c4.4-9.4 7.3-19.8 13.8-28a84.4 84.4 0 0 1 15 17.3m-35.2-29.7 1.2.6a17.6 17.6 0 0 0-2.9 3.7c-.9 1.1-1.6 2.3-2.4 3.4-.1-.9-.2-1.7-.3-2.6-.2-2.3 0-4.6-.1-6.8a41 41 0 0 1 4.5 1.7M121.7 209.5a122 122 0 0 0 14.4 12.4c-2.9-2.4-5.8-4.7-8.7-7.2-1.9-1.6-3.7-3.5-5.7-5.2" class="cls-7"/><path d="M113.3 144a.73.73 0 0 0-1.4-.4 93.5 93.5 0 0 1-6.1 14.2c-.1.1-.1.2-.2.3a.52.52 0 0 0-.4-.2c-1.2.1-6.2-4.8-7-2.5-.1.2.2.3.3.2 2.5-1.2 4.2 3.1 6.7 3.2-2.1 3.6-4.6 7.4-5.7 11.4-.1.4.4.7.6.4 3.1-3.8 5.3-8.5 7.5-12.8s4.6-8.9 5.7-13.8M109.3 190a26.73 26.73 0 0 0-11.4-15.7l1.5 3.3a15 15 0 0 1 1.8 1.7c3.4 3.4 6.7 8.7 7 13.9l1.5 2.1a13.5 13.5 0 0 0-.4-5.3M141.8 115.2c1.7.4 3.9-.7 3.6-2.6a.72.72 0 0 0-.9-.5 1.4 1.4 0 0 0-.4.3 1.83 1.83 0 0 1-1.9 1.2c-1.1-.1-1.9-2-1.8-2.9a.57.57 0 0 0-.4-.7.57.57 0 0 0-.7.4 3.86 3.86 0 0 0 2.5 4.8M156.6 111.8c.1 0 .1 0 .1-.1a20 20 0 0 1 1.3-1.8c.3-.5.9-.9 1-1.6-.7 0-1.2.7-1.6 1.2l-.6.9a6.8 6.8 0 0 0-.2 1.4M140.8 146a8.3 8.3 0 0 0 2.6 3c1 .9 1.8 2.1 2.8 3.1.1.1.3.2.4.1l.1-.1a.37.37 0 0 0 .1-.3 7.9 7.9 0 0 0-2.3-3.1c-1-1-2.1-2.1-3.2-3.1a.3.3 0 0 0-.4 0 .76.76 0 0 0-.1.4M114.2 162.5a.1.1 0 0 0 .1-.1 26.1 26.1 0 0 0 3.6-10.1c.1-.2-.1-.2-.2-.1-.8 3.5-2.7 6.6-3.7 10.1ZM115.4 164.3a.61.61 0 0 0 0 .8.1.1 0 0 1 .1.1c.1.1.2.1.3.2a69 69 0 0 1 7.1 3.8.44.44 0 0 0 .5-.1c.1-.1 0-.3-.1-.4a25.4 25.4 0 0 0-7-4.3.65.65 0 0 0-.9-.1M124.8 168.1c.7-.9 1.5-1.8 2.2-2.8a9.2 9.2 0 0 0 1.8-3c0-.2-.1-.5-.3-.5a.6.6 0 0 0-.4.1 16.5 16.5 0 0 0-1.9 2.7c-.7 1-1.3 2-2 3-.2.4.3.9.6.5M102.1 147.6a.81.81 0 0 0 .9-.4.61.61 0 0 0-.1-.8.19.19 0 0 0-.3 0 .1.1 0 0 1-.1.1c-.1-.1-.3 0-.4.1a.86.86 0 0 0-.3.6c0 .1.1.4.3.4M105 142.6a.6.6 0 0 0 .4-.1 1 1 0 0 0 .2-.9.76.76 0 0 0-.4-.2.27.27 0 0 0-.3.3v.1l-.2.2a.6.6 0 0 0 .3.6M153.4 121.2c.5 1.2.7 2.5 1.2 3.7a.37.37 0 0 0 .7-.2 12.5 12.5 0 0 0-1.4-5c-.5-1.3-1.2-2.9-2.5-3.4a.68.68 0 0 0-.6.4.76.76 0 0 0 .2.5c1.2.5 1.9 2.9 2.4 4M124.1 119.9a35 35 0 0 0-6.8 2.5c-.6.3-.1 1.3.6.9a66 66 0 0 1 7.7-3.2c2.1-.9 4.7-1.5 6.3-3.2a52.4 52.4 0 0 1-7.8 3" class="cls-7"/></g></svg>