<svg id="Layer_11" data-name="Layer 11" xmlns="http://www.w3.org/2000/svg" viewBox="0 0 600 561"><defs><style>.cls-1{fill:#fff;}.cls-2{fill:#ffc000;}</style></defs><path class="cls-1" d="M251.1,381c-1.5,7.2-8.1,62.9-.2,62.6a3.1,3.1,0,0,0,3-3,247,247,0,0,1,.5-29.8c-.3-3.9,4.5-36.4-3.3-29.8Z"/><path class="cls-2" d="M251.4,437.4c9,.5,17.3-3.5,25-7.6,1.2-1,9.2-3.7,7.6-4.9-11.3,2.3-23.9,3.4-32.9,11.3C250.6,436.5,250.8,437.5,251.4,437.4Z"/><path class="cls-1" d="M435.5,32.6Z"/><path class="cls-1" d="M434.4,32.5h0Z"/><path class="cls-1" d="M576.4,60.9C543.4,40.8,504,34.8,466.2,30c-3.4-.9-38.7-3.2-29.4,2.3a1.9,1.9,0,0,0-1.2.7c0-.2,0-.3-.1-.4s-1.2-.8-1.1.1h0c-8.5,24.2-16.9,49-19,74.9-9.1-2-18.1-4.7-27.3-5.5-1.4-2.9-4.5-2.9-6.6-.7s-1.9,6.9-2.9,10.2c-2.5,12.1-5,24.2-7.6,36.4-8.6,39.6-16.4,79.5-26.1,118.9-4.4,24.8-12.7,49.8-13.7,74.8-8.5,4.4-23.1,6.9-23.5,18.6-18.7,7.3-40.6,8.3-56.8,20.6-.4.4.2.8.6.7s3.5,2,5.1,2.3c7.5,4.1,19,5.3,25.7,8.8A94.2,94.2,0,0,1,315.4,416c-2.6,20.8,2.8,44.3-8.7,63.6-17.1-3.2-30.3-15.8-42-28-1.2-1.5-17.1-18.3-14.5-11.9,6.5,31.4,48.9,63.3,80.8,49,14.5,1.8,28.2-7.1,41.9-11.2,16.7,15.8,43.1,6.2,61.3-1,24.5-11.1,62.4-13.4,76.5-36,.5-1.1.9-2.2,1.3-3.3-.3.6-.3.5,0-.1a10.5,10.5,0,0,0,1.5-3.2c11.2-48.6,18.9-102.7,29.5-153q10.2-51.9,20.2-104c.6-2.2.9-4.7-.9-6.5,2.2-5.3-4.7-8.3-7.8-11.3,0-.2.3-.7-.1-.1s.9-1.5.5-.7.6-1,.1-.4c9.5-21.9,14.5-49.2,17.6-71.5,1.2-6.7,1.2-13.6,2.3-20.3h0A2.8,2.8,0,0,0,576.4,60.9ZM490.2,40c23.3,3.2,46.5,8.9,68.1,18.4-35.9-3.6-71.5-10.8-105.6-22.6C465.2,37.2,477.9,38.4,490.2,40ZM312.7,479.7c10.7-17,11.9-37.2,8.7-56.5l.3.4c1.5,1.8,3.8,6.1,6.1,8.1-1.9,15.7-1.7,31.6-5.2,46.9-1.8.5-5,1.1-6.2,1.3l-4,.2ZM555.6,171.8c-16.4,86.2-35.4,175.5-50.9,260.1a10.3,10.3,0,0,0,.1,3.5c-18.3,17.1-43.3,23-66.1,31.7-19.7,9.3-42.4,18.1-63.9,9.7,7.6-3.7,17.4-4.4,23.9-9.9a1.6,1.6,0,0,0,2.2-2.4c3.8-12.2,6.7-44.9,1.4-54.4-1.5,17.9-3.2,35.9-6,53.7-19.7,3-37.6,13.3-56.7,18.8,7-12.2,7.3-27.7,6.7-41.4-.4-2.1,0-15.1-3.1-13.1-1.3,18.8,2,38.7-7.7,56.1l-.9.5c-29.1,9.9-53.4-2.3-71.5-26.3,15,16.4,38.6,35.7,61.9,25,8.8-.9,12.4-45.4,8.3-52.8-7.8-25.7-38.4-45.1-63.7-51.2,29.7-7.6,53.4,20.7,71.3,40.3.9.8,2.4-.2,1.7-1.3-14.1-19.9-34.2-38.6-59.2-42.3,10.9-3.1,23.5-5.2,32.1-13,31.8-11.7,55.9,7.8,73.1,33,1.4,1.1,8.4,12.9,8.5,8.7-16.1-27.1-45.4-60.2-80.1-44.5.1-1.3-1.5-.9-2.4-1s-.9-.4-1.6-.4.1-2.8.2-4.2c8.5-.5,17.3-3.8,25.7-1.6,22.4,2.9,41.5,18.3,55.2,35.7,4.4,6.1,8.8,12.4,12.7,18.7a3,3,0,0,0,5.6-1.4c31.6-4,28-6.6-1.4-4.1-13.2-28.4-41.8-55.4-74.7-55.6,1.5-.7,3.3-1.1,4.3-2.4,40,9.6,66.4,29.3,96.2,56.3-.1.1-.4,1.5-.2.5s-.2.8-.1.7c-5.3,21.4-.1,47-15.2,64.9,9.2-4.6,11.6-21.1,14.8-31.2,6.6-19.4,6.9-39.9,13.7-59.4,7.5-27.9,12.1-56.6,15.8-85.2-.4-1.2-.7,2.4-.9,2.5a804.4,804.4,0,0,1-24.8,103c-24.1-25.8-62.8-56.8-99.7-56.2-.1-.2-.3-.3-.5-.5,2.4-8.7,3.8-17.7,5.8-26.6,11.6,7.5,27.2,10.5,40.3,16L425.2,343c2.2.9,4.9,2.2,7.1.5,7.7-21.7,9.1-46.3,14.4-69,5.3-28.4,12.6-56.4,19.8-84.4,4.4-15.5,9.1-37.3-12.1-41.6-19-5.8-38.7-9.4-57.9-14.4-3.4-.5-8.8-2.9-11.2-2.2,24.4,10.7,52.7,11.4,76.1,23.9,12.3,9.8-2.9,42.9-4.8,56.8-10.8,41.9-17.3,84.6-26.1,126.8-.1.7-.5,1.7-1.4,1.1-7.9-2.8-15.8-5.9-23.7-8.9-12.8-4.9-25.6-9.9-38.5-14.6-4.8-.8-18.1-8.9-21.1-5.5l1.8-8.7c18.3,8,37.5,13.8,56.2,20.8l17.5,6.4c3.5,1.3,5.4-2.3,6.2-5.1,5.1-21.8,9.3-45,14-67.4,5.9-29.4,12.2-58.8,18.2-88.2,1.8-8.3-5.6-14-13.2-14.5-11-2.7-22-5.8-32.9-8.8s-21.7-6.4-30.7-6.7c6.8,2.5,13.7,4.5,20.7,6.7,15.1,4.7,30.5,8.4,45.6,13.1,10.6,2.4,5,14.3,3.9,21.5-10.5,48.5-18,98.1-30.4,145.9h0c0,.1,0,.1-.1.1h.1c-24.8-8.6-49.3-20.3-74.5-27.1C360.6,235,375,171.1,388.4,107c33.9,12.6,70.5,16.8,104.5,29.4-4,44.2-15.9,89.9-21,132.6,9.1-43.4,26.9-86,25.5-131C518.7,145.7,538.9,156.6,555.6,171.8ZM400.6,464Zm22.1-137.4c0-.1.1,0,.1,0ZM553.2,139.5c-.9,5.5-2.3,11.1-2.5,16.7C513,128.8,466,119.8,421.5,108.9c5.3-18.2,10.2-36.6,12.5-55.4,39.2,23.3,86.7,33.3,132,33.6C560.4,104.2,556.7,121.9,553.2,139.5Zm18.3-68.9c-1.5,4.6-3.1,8.6-4.4,13.1-17.1-2.5-35.2-2.3-52.4-6.5-28-4.6-54.2-15.8-80.6-25.6.9-5.5,1-11,1.5-16.4,15.3,10.6,34.8,13.3,52.4,18.5,27.8,6.7,56.2,13.2,84.8,13C572.4,68,571.9,69.3,571.5,70.6Z"/><path class="cls-1" d="M422.7,326.5Z"/><path class="cls-2" d="M289.3,410.8c-28.4-13.4-58.7-21.8-88.3-32-5.1-.5-32.8-14.7-27.5-1.8,13.8,7.3,30.2,10,44.9,15.3,23.1,6.4,48.4,16.3,70.9,18.5Z"/><path class="cls-2" d="M133.8,334.8a10.7,10.7,0,0,1,9-5c-.5-.2,2.9.8.7-.2a5.2,5.2,0,0,0,1.1,1c-1-.9.7.6.9.7s.2.4.4.5c-1.1-1.4.1.2.4.6s-.4-.8-.1-.2l.3.6c.4.5-.3-1.3-.1-.3s.2,1.3,0-.4c.2,1.6.2,1.7,0,.4a4.1,4.1,0,0,1,0,1.1c.4-2.1-.1.2-.3.6,1-2.1-.8,1.6-1.3,1.9-2.8,4.5,2.6,8.4,6.9,7.5H151a8.6,8.6,0,0,1,2.3.6l-.6-.3a8.4,8.4,0,0,1,2.9,2.1c.1.2.6.9.1.2s0,0,.1.2,1.4,2.7.7,1c.9,3,.8,2.1.8,4.8v.4c0,.6.2-1.3.1-.7-.7,2.8-.2,1.6-1.7,4.1-.2.4.4-.5.4-.5l-1,1.1-1.4,1.6c-.3.4.8-.6.1-.1-7,3.9,1.5,12.5,5.7,5.8l-2.7,1.1a23.8,23.8,0,0,1,15.6,12.2,22.3,22.3,0,0,1,.9,3.2c-.1-.6.1,1.4,0,1.7s.1-.6,0,0-.6,1.9-.3,1.2l-.7,1.3h0a8.6,8.6,0,0,1-1.4,1.3c-1.8,1.6-6.6,3.4-9.7,4.4-3.6,4.1,11,1.8,12.3-.1,13.2-10.5-4.3-26.5-15.4-29.8l1.7,2.3c-.1-1.9-.7-3.3-2.4-4.1l-1,7.6c19.6-4.6,10.4-36.6-8.6-32.3l5.6,7.3c1.9-3.2,3.1-7.1,1.8-10.7-.6-1.4,0-.1.1.2-2.8-8.1-12.7-6.7-18.2-2.9-1.5.4-5.8,7.4-3.3,7.1Z"/><path class="cls-2" d="M161.4,398c-1.8.6-9.8-.2-6.5,3.1,1.2.9,3.8,3.3,4.4,5.5-.3-.6-.2-.5.2.5-.4-1,.4,1.1.4,1.3s.1-.1,0-.2,0,1.4.1,1.9.2-1,0-.4l-.3,1.1c-.1.8.1-.2.2-.4s-.2.3-.2.5.8-.8.3-.4l-.4.4c-.6.6.1-.2.3-.2l-.5.3c-.6.4,1.2-.3.2-.1l-1.1.3c.9-.2-.4,0-.5,0-4.9.2-6.2,6-2.6,8.9.6.7-.4-.5.1.2a11.8,11.8,0,0,1,1.1,1.9,7.4,7.4,0,0,1,.7,4.6c0,.5.1-.6.1-.6a29.9,29.9,0,0,1-.9,3.2c-.7,2.5-6.6,8.6-10.3,10.9.2-.1.7-.5.2-.1a18.1,18.1,0,0,0-4.5,4.8c-7.7,6.3,5,5.7,8.8,3.9,12.8-6.4,22.7-24.6,10.6-36.3l-3.3,8.1c16.9-.3,10.9-22.2-2.8-22l.3,2.4c.8-.7,7.8-2.3,5.9-3.1Z"/><path class="cls-2" d="M132.6,455c-5.1,5.7-14.7,10.8-18.6,1.3l.5.6c.1-3.5-2.3-2.1-2.8.4l.4-.7c-3.1,5.5,5,10.8,10.1,9.3,2.5.9,14-11,10.4-10.9Z"/><path class="cls-2" d="M266.2,420.7c-10.3-7.2-24.6-5.6-36.6-7-19.9-.9-39.4,4.1-59.3,1.6,16.6.4,37.6,6.1,53,8.1,11,.3,35,4.4,42.9-2.7Z"/><path class="cls-2" d="M269.4,441.2c-3.5.8-39.5-5.7-35.1-1.3,3.4,2.8,36.7,5.6,35.1,1.3Z"/><path class="cls-2" d="M277,457.6c-30.4-.9-60.9,9.6-90.2,17-2,1.4-31.1,9.9-23.8,11.2a358.9,358.9,0,0,0,68.2-11.6c13.6-3.4,27.9-6,40.4-12.7,1.3-.9,6.8-2.1,5.4-3.9Z"/><path class="cls-2" d="M144.3,463.6c9.4-2.8,13.6,3.9,12.3,9.3.3-1.4-.2,1-.4,1.5s.4-.9,0-.1-1.9,3-.9,1.7l-1.3,1.3c-.6.5.8-.5.1-.1l-1.8,1s1.1-.4.4-.2a18.1,18.1,0,0,1-3.1.9c-5.5,1.6-3.1,9.5,2.3,8.7,0,.1-1.2-.2-.3.1l1.8.6c-1.8-.6.9.3,1.2.7s-.6-.6.1.1l1,.9c.5.6-.6-.8-.3-.3a15.1,15.1,0,0,0,1,1.7c-1-1.8.2.3.1.8-.5-2.2.2.8-.1,1.4s.1-.7.1-.7a3.5,3.5,0,0,0-.3,1.1,1.6,1.6,0,0,1-.3.9c-.4,1.2.5-.8,0,0-1.4,2.6-1.1,2.1-3.6,4.4-.4.4-.6.3.3-.2a19,19,0,0,1-3.9,2.3c.3-.5,1-.4.2-.1a62.4,62.4,0,0,1-9.6,2.5c-3.8.2-7.6.6-11.3,0-5.8,2,11.8,7.8,13.9,7.4.1,0,.6,0,0-.1s.9.2.8.1c20.1,2.6,33.3-27.8,9.2-32.3v8.4c10.3-1.2,15.7-14.1,9.2-21.3C157.9,460.6,147.4,458.6,144.3,463.6Z"/><path class="cls-2" d="M128.5,507.6a6.5,6.5,0,0,1,3.4,2.8c.1.1,0,.4.1,0s-.4,1.1-.2,1.2-.1-.4.1-.4-.2,1-.2,1.1l.6-1.4-.5.4,1.8-.7a2.7,2.7,0,0,0-2.6,2c.2-.8.1-.3,0-.1s-.6.7-.2.3-.1.1-.2.1-1.2,1.1-.5.5a30.3,30.3,0,0,1-6.8,3.6l.5-.2a37.8,37.8,0,0,1-8.6,2.3c-.8.1.2,0,.3,0-7.4.7-12.3.3-19-2.3,1.2.5-.9-.5-1.4-.6s-.7-.3.1.1L92.3,515c-.6-.3,0,0,.1,0l-2-.8c-1.6-1.3-4.1,1.1-6.5,2.1s-8.5,1-11-.1a20.2,20.2,0,0,1-3.2-1.8c-.2-.1-1.1-.8-.4-.2A25,25,0,0,1,66,511c-.2-.2-.5-.7-.2-.2a24.6,24.6,0,0,1-2.4-4.1c-1.7-3-1-7.6-1.7-9.8s1.2-3.7-.4-3.1c-16.7,17.5,13.8,41.4,30,25.6l-5.1-.7c11.1,13.3,35,12.1,47.3,1.2l.6-.8c1.5-2.1,3.7-6.3.8-8.2l1,1a3.9,3.9,0,0,0-.8-1l.6.9C136.1,510.2,127.3,504.6,128.5,507.6Z"/><path class="cls-2" d="M77.7,473.5c-6,3.6-14.8,4.7-21.1,2.8l-.5-.2a26.5,26.5,0,0,1-6.7-5.4l-.5,1.8a2.8,2.8,0,0,1,1.8.1l-.5-2.1a5.8,5.8,0,0,1-1.3,1.6c0-.1.5-.3.3-.1h.3l-1.3.4h0c.2-.1-1.7.3-.9.1h-.4c-.3,0-.9-.2-.3,0s-.2,0-.3,0h0a13.9,13.9,0,0,1-1.9-.6l.4.2c-.7-.3-1.8-1.3-2.4-1.5,1.5,1.2-.7-.4-1.1-.8-3.4-2.2-8.5-10.3-8.9-14.4,0-.6-.2-1.2-.2-1.8v.5c0-2.1-.1-4.5-2.3-5.7l1,1.7a1.9,1.9,0,1,0-3.6-1l1.6-.9c-16.1,6.6,10.9,42.8,22.6,28.1-.6.9.8-1.2.6-1.6-.3,1.2,0,.1,0,.1s2-6-1.5-4.7c-1.3.8-3.8-.1-3,2.4,0,0,.1.5.1.2s-.1.3-.1.3c3.3,14.4,22.4,8.1,30.7,1.7a.7.7,0,1,0-.7-1.1Z"/><path class="cls-2" d="M55.3,430.8C45.4,437,31,429.9,24,422c.3.5-.1-.1-.2-.2s-.8-1.3-1.2-2.1-.5-1.2-.3-.5a23.3,23.3,0,0,1-.7-2.5c-.1-.2-.1-.8,0,0-.6-3.4,1.6-7.2,5.2-7.8l-2.7-2.8c-.3.7.1-.1-.1.2l-.4.7c0,.1-.2.2-.2.3s.3-.3,0,0l-.3.2h.1c-5.6-.4-8.1-16.6-9-19.6a34.6,34.6,0,0,1,.2-8.5,31,31,0,0,1,1.9-7v.2l.4-1c3.1-7.8,11.4-8.7,18.3-7.6l1.4.2-1-.2c2.3.3,5,.8,7.4,1,6.3.7,10.6-8.5,3.6-10.8,1.9.7.7.2.3,0a7.6,7.6,0,0,0-4.7-.6c-12.8-.5-34.1-.1-34.8,24.5a36.9,36.9,0,0,0,5.8,24c3.3,4.6,10.5,13.6,15.3,5.8,1.3-8.4-14.5-.3-12.6,8.3C18,432.9,43.4,442,56.4,431.9c.8-.7-.3-1.7-1.1-1.1Z"/><path class="cls-2" d="M55.6,364.3a37.8,37.8,0,0,1-6.1-8.7c.3.6-.1-.3-.2-.5a16,16,0,0,1-.5-2.1c0-.2-.1-.8,0,0-.5-5,1-8.6,4.3-13.3s9.3-8.6,15.8-9.6c.2-.1,1-.1.4-.1l-1.6-.4c3.9,2.4,7-2,5.3-5.7,0-.1-.2-.8-.1-.3s0-.1,0-.3c.1-2,.6-3.1,2.3-5.6v-.2l2.1-2.1c.2-.2,1.5-1.1.6-.5a28.4,28.4,0,0,1,6.5-3.8c-.3.1-.4.2-.4.1a36.6,36.6,0,0,1,7.9-2c.9-.2-.2,0-.3,0a33.9,33.9,0,0,1,9,0c-.2-.2-1-.2-.3-.1a38.4,38.4,0,0,1,8.2,2.3c2.2.3,9.7,8.7,13.9,3,4.7-8-8.2-11.9-13.9-13.9-13.8-3.8-30.8-.2-40,11.3-3.9,4.6-6.6,14.2-.5,18l-.7-5.6-.4.3,1.4-.8c-7,.7-16.3,5.3-21.3,11.7-9.1,9.6-6.9,28,7.5,30.5a1,1,0,0,0,1-1.6Z"/><path class="cls-2" d="M114.2,378.8a10.7,10.7,0,0,1,7.5,3.1c.5.3-.1-.5-.1-.3a5.1,5.1,0,0,0,.7,1.7c-.5-1,.3.9.3,1.2s-.4-.5-.1-.4-.2,4.1,0,2.1a17.3,17.3,0,0,1-1.1,3.7c1-2.5-.7,1.4-1.1,1.7l.6-.8-1.2,1.6c-.6,1,1-1.2,0,0a10.6,10.6,0,0,1-1.5,1.5c-.4.4-1.5,1,.2-.1-3.3,2.3-2.3,1.7-5.4,2.7h-2.9c-.6,0-2.4-.4-.2,0-12.3-4.5-15.3,8.2-6.9,9.5-.7-.1.1,0,.3.2l1.3.6c-.7-.3,0,.2.2.3s0,.3-.1-.2,1,1.9.6,1,.1.7.2.8-.1-1.2-.1-.4v.8c0,.6.2-1,0-.4a7.9,7.9,0,0,1-.3,1.3c-.1.4.4-.9.2-.5a13.2,13.2,0,0,1-2.9,3.9c-2.7,2.7-11.4,3.5-16.7.8-7.2,2,12.3,8.7,14.7,6.8l2.1-.4h-.2a14.5,14.5,0,0,0,4.3-1.4c7.5-2.5,11.7-15.6.4-22.1.2,0,.9.8.1,0l-7.4,7.4c9.5,7.7,25.7,2.4,30.1-8.7,2.1-2.9,2.8-14.7-5.3-17.1C123.7,377.6,111.1,376.5,114.2,378.8Z"/><path class="cls-2" d="M78.4,386.9a6.4,6.4,0,0,1-2.7,2.1,7.7,7.7,0,0,1-4.7.2,6.8,6.8,0,0,1-2.5-2.1v.2a6.2,6.2,0,0,1-1.1-2.5c-.1-.4.1,0,0,.1a11,11,0,0,1,.3-3,16,16,0,0,1,1.3-2.1c1.8-2.1,5.6-2.3,8-.3,4.2-.8-6.2-5.8-9.6-1.7-9.7,6.6,1.5,21.1,10.3,12.9,1.3-.7,3.5-5.3.6-3.8Z"/><path class="cls-2" d="M217,438.2c-2.1-1.3-17.9-2.3-11.7,2.3,3.8-.4,7.5-1.4,11.2-.6,1.1.2,1.6-1.4.5-1.7Z"/><path class="cls-2" d="M197.3,441.3c-1.4.6-4.8-.1-4.7,2.1s5.1.5,6.1-.3a1.3,1.3,0,0,0-1.4-1.8Z"/><path class="cls-2" d="M244.7,454c-4.8-2.5-38.1,3.4-18.2,5.2,2.5.2,20.1-2.7,18.2-5.2Z"/><path class="cls-2" d="M203.1,462.5c-1.4.5-9.9.2-8.4,2.4,1,.2,10.7-1.1,8.4-2.4Z"/><path class="cls-2" d="M184,467.1a.7.7,0,0,0,0-1.4.7.7,0,1,0,0,1.4Z"/><path class="cls-2" d="M245.6,382.2c-8.4-5.3-18.7-7.3-27.9-11.3-14.9-4.9-28.3-13.9-43.1-18.7-10.3,4.3,69.4,36.4,71,30Z"/><path class="cls-2" d="M164.1,406.4c6.7,1,13.6,3.7,20.3,1.2,4.1-1,8.4-.6,12.5-1,.4,0,.4-.5,0-.6-11.1-.9-21.7-4-32.8-.7C163.4,405.3,163.4,406.3,164.1,406.4Z"/><path class="cls-2" d="M159.2,437.6c.3.5,2.9,1.2,1.3.2,5.3,3.7,13.8,3.8,19.4,0s14.1-2.8,21.2-3.9c.5,0,.4-.7-.1-.7-9.1.4-17.9,1.3-26.7-2-4.8-.5-9.4,1.5-13.5,3.8-.9.9.4,0-.7.4s-1.6,1.4-.9,2.2Z"/><path class="cls-2" d="M163.3,465.6h.7l-.5-.2c1.7,1.4,5.6.3,7.6-1,1.7-3.6-7-1.7-7.7.2l.3-.2C163,464.5,162.4,465.4,163.3,465.6Z"/><path class="cls-2" d="M181.3,494.6c7.8-2.4,16.5-3.9,23.6-7.9.3-3.5-10.3,2.2-12.4,2.5S178.9,493.3,181.3,494.6Z"/><path class="cls-2" d="M252.9,474.1c-5.1,1-31.7,3.4-29.7,9.7,5.4,1.6,10.4-1.2,15.3-3,2.8-1.5,14.5-4.5,14.4-6.7Z"/><path class="cls-2" d="M124.1,342.4a4.3,4.3,0,0,1-.1,5.8l.8-.4c-4.7,1.9-.9,4.8-.6,6.9-.1-1.2.1,1,0,1.3s.1-.8,0-.2a9.4,9.4,0,0,1-.4,1.6c-.1.5.3-.6.1-.2a8.3,8.3,0,0,1-.7,1.3c-.4.5.4-.4.1-.2a6.3,6.3,0,0,1-1.2,1.1c-.4.4.2-.1.2-.1l-1,.6h-.2a4.3,4.3,0,0,0-3.2,2.6l1.3-1.7c.6-.3,0,0-.2,0s-1.7.2-2,1.1.6,3.1,2.2,3.7l-1-1c9,7.6,19.1-12,7.9-16.7l.6,2.3c3.6-3.9-2.4-10.9-2.6-7.9Z"/><path class="cls-2" d="M119,421.8c6.9.3,9.6,9.4,5.1,14-1.3,2.2-5.1,1.4-5.8,3.9,2.6,4.7,10.3-2.3,10.6-6.1,1.6-6.2-3.2-13.2-9.9-12.7A.5.5,0,1,0,119,421.8Z"/><path class="cls-2" d="M125.8,479.6c7.8,6.8,3.4,22.2-7.7,21.1-2.9.5-2.8,5-4.9,6.9h0l-1.3,1.2c-.1.1-.8.7-.3.3a10.5,10.5,0,0,1-2.3,1.3c-.4.3,0,0,.1,0a13.8,13.8,0,0,1-2.9.8c-.5.1,0,0,.1,0a20.5,20.5,0,0,1-3.5,0c.7.1.3.1.1,0a20.2,20.2,0,0,1-3.3-.9c-.5-.2,0,0,.1,0a11.7,11.7,0,0,1-2.7-1.5l-.3-.2c-2.5-.8-6-9.7-6.6-7.5-5,20.3,30.6,21.3,29.7,1.6l-2,2c13.6,1.3,21.6-19.8,8.3-25.9a.5.5,0,0,0-.6.8Z"/><path class="cls-2" d="M91.2,487.6a11.7,11.7,0,0,1-14.7,4.3,11.3,11.3,0,0,1-5.8-5.8c-5.2-10.7-8.5,6.4,3.3,10.3,6.9,2.9,16.4-.7,17.9-8.5.1-.4-.5-.7-.7-.3Z"/><path class="cls-2" d="M71.4,448.6c-3.8,2.8-9.1,2.5-13.2.9a21.5,21.5,0,0,1-3.2-1.9h0a12.9,12.9,0,0,1-1.7-1.6c-.1-.1-.8-.9-.4-.4a11.5,11.5,0,0,1-1.7-2.8c-3.2-9.7-7.9-1.8-4.4,4,4.6,9.6,19.2,12.2,25.4,2.9.4-.6-.1-1.6-.8-1.1Z"/><path class="cls-2" d="M104.6,322.1c10.1,4.1,1.1,18.6-6.9,19.3-5.1,1.1.4,5.3-.3,8.1a6.7,6.7,0,0,1-5.3,5.4,4.9,4.9,0,0,1-1.9-.2c-8.9-2.3-4,7.1,3,5.1s12-11.8,6.2-17.7l-1.7,4c9.1-.8,17.9-12.4,13.4-21.1C110.9,323.3,103.9,320.2,104.6,322.1Z"/><path class="cls-2" d="M45.2,381c-6.6-2.1-12.4-.2-14.1,3.3a8.2,8.2,0,0,0-1.8,3.6l.3-.7c-6,13,15.6,31.8,26.2,21.2-.9.2-1.2,1.1-.4.5s1.4-1.3,1-1,1-2.5-.1-3.2c.7.9-.6-.9-1.1-.9s.5,1.2.5.6c-4.8-5.4-10.9-2.2-15.6-9,1.5,1.6,0,.1-.3-.3l.3.4a14.3,14.3,0,0,1-2.5-5.2c-.1-.5,0-1.3,0,.2a16.4,16.4,0,0,0-.2-2.2c-.1-.5-.1,1.1.1.5v-.3c-.1-.9-.3.7-.1.2a4.5,4.5,0,0,0,.3-1.6c0,.2-.2,1-.1.5l.2-.4c0-.4-.5.9-.2.4s1.6-3.3.8-1.7c.2-.4-.6.5-.1.1l1-.9c-.9.7.8-.9.8-.9s.5-.4,0,0l.5-.4c.7-1.4,6.7-1.4,4.6-2.8Z"/></svg>