<svg xmlns="http://www.w3.org/2000/svg" width="227.49" height="94"><g data-name="Group 335"><path fill="#fec200" d="M83.223 43.536a5 5 0 0 1-.786-.073 5.45 5.45 0 0 1-3.53-2.49 11.8 11.8 0 0 1-.784-5.041c.227-2.431 2.331-4.128 5.119-4.128s4.893 1.7 5.119 4.126a11.56 11.56 0 0 1-.784 5.043 5.4 5.4 0 0 1-3.424 2.467 6 6 0 0 1-.93.096m.019-9.009c-.836 0-2.285.35-2.406 1.655a9.8 9.8 0 0 0 .459 3.482 2.7 2.7 0 0 0 1.651 1.126 1.7 1.7 0 0 0 .7-.021 2.67 2.67 0 0 0 1.545-1.1 9.7 9.7 0 0 0 .459-3.488c-.123-1.308-1.566-1.654-2.408-1.654" data-name="Path 110566"/><path fill="#fec200" d="m88.942 49.875-.234-2.427c-.171-1.756-2.946-2.7-5.473-2.7-2.583 0-5.289.928-5.46 2.7l-.234 2.429-2.71-.261.234-2.429c.34-3.565 4.349-5.162 8.169-5.162 3.826 0 7.839 1.595 8.183 5.162l.234 2.429Z" data-name="Path 110567"/><path fill="#fec200" d="m11.749 44.462-2.27-1.5a40.7 40.7 0 0 1 6.666-8.135l1.787 2.054a37.4 37.4 0 0 0-6.183 7.581" data-name="Path 110568"/><path fill="#488eab" d="M104.605 94a8.84 8.84 0 0 1-7.71-13.171l-4.885-3.843-4.887 3.841a8.839 8.839 0 1 1-3.267-3.313l-1.37 2.354a6.105 6.105 0 1 0 2.46 2.673l-4.689 3.69-1.685-2.143 11.234-8.836-8.963-7.051h-1.782a12.494 12.494 0 0 1-12.48-12.48v-4.51l-6.876-2.535.944-2.556 7.537 2.779h27.031V29.291h3.68a18.563 18.563 0 0 1 18.543 18.542v7.889a12.493 12.493 0 0 1-12.48 12.48h-1.785l-8.963 7.051 11.236 8.836-1.685 2.143-4.687-3.69a6.114 6.114 0 1 0 2.977-2.942l-1.141-2.473a8.842 8.842 0 1 1 3.7 16.875ZM85.248 68.2l6.762 5.317 6.759-5.317ZM69.306 51.622v4.1a9.766 9.766 0 0 0 9.755 9.757h25.9a9.766 9.766 0 0 0 9.755-9.757v-4.1Zm28.635-2.723h16.773v-1.067a15.836 15.836 0 0 0-15.818-15.819h-.955Z" data-name="Path 110569"/><path fill="#488eab" d="M187.971 92.637h-2.725V67.115h2.725Zm4.981-.106-2.717-.179 1.656-25.159 5.656.01-5.2-26.733 1.624-8.213 2.671.53-1.522 7.687 5.736 29.46-6.413-.012Zm-12.687 0-1.489-22.609-3.765.008-.008-2.723 6.32-.013 1.658 25.159Zm-8.179-.021-2.721-.136 1.624-32.127V32.523h2.725v27.794Zm-19.107 0-1.622-32.125v-2.068h2.725v2l1.62 32.058Zm10.915-.067h-2.725V60.852h2.725Zm13.625-32.023-.338-31.376c-.023-2.175-2.256-3.572-4.122-4.364a18 18 0 0 0-1.783-.64 18 18 0 0 0-1.067-.294l.657-2.642q.612.151 1.2.329a20 20 0 0 1 2.06.74c4.739 2.006 5.761 4.827 5.784 6.843l.338 31.374Zm22.751-1.837-1.814-16.108-.24-13.421a5.36 5.36 0 0 0-2.931-4.093c-4.038-2.448-11.215-2.763-16-.7l-1.078-2.5c5.588-2.406 13.713-2.025 18.494.874a8.04 8.04 0 0 1 4.239 6.3l.234 13.369 1.8 15.979ZM156.986 23.3l-.438-2.687a38.2 38.2 0 0 1 8.863-.359q.587.044 1.17.106l-.286 2.71a35 35 0 0 0-1.086-.1 35.5 35.5 0 0 0-8.223.33m5.525-4.549a8.4 8.4 0 0 1-1.245-.117 8.53 8.53 0 0 1-5.487-3.868c-1.074-1.962-1.428-6.507-1.263-8.327.406-4.366 4.437-6.353 8.012-6.353 3.578 0 7.61 1.987 8.017 6.351.167 1.82-.185 6.363-1.261 8.327a8.58 8.58 0 0 1-5.375 3.851 9 9 0 0 1-1.399.136Zm.019-15.942c-2.46 0-5.052 1.2-5.3 3.88-.15 1.628.25 5.513.938 6.768a5.8 5.8 0 0 0 3.605 2.5 4 4 0 0 0 1.63-.021 5.83 5.83 0 0 0 3.5-2.481c.688-1.261 1.086-5.142.936-6.772-.255-2.675-2.85-3.874-5.309-3.874m24.06 15.942a8.4 8.4 0 0 1-1.247-.117 8.52 8.52 0 0 1-5.486-3.868c-1.076-1.962-1.428-6.507-1.263-8.327.406-4.366 4.439-6.353 8.013-6.353s7.608 1.987 8.015 6.351c.167 1.822-.183 6.367-1.261 8.329a8.59 8.59 0 0 1-5.377 3.849 9 9 0 0 1-1.395.136Zm.017-15.942c-2.46 0-5.052 1.2-5.3 3.88-.15 1.628.25 5.513.936 6.768a5.8 5.8 0 0 0 3.607 2.5 4 4 0 0 0 1.63-.021 5.83 5.83 0 0 0 3.494-2.481c.69-1.259 1.088-5.141.936-6.772-.251-2.675-2.844-3.874-5.303-3.874" data-name="Path 110570"/><path fill="#488eab" d="m44.881 92.707-2.723-.136 1.624-32.127V32.72h2.725v27.792Zm-19.109 0-1.067-21.135 2.721-.136 1.067 21.135Zm10.917-.069h-2.725V61.049h2.725Zm-20.977-.085h-2.725V67.031h2.725Zm4.981-.106-2.717-.179 1.656-25.157 5.654.008-4.182-21.475-1.945 1.249-1.472-2.293 10.931-7.007c.085-.075.144-.123-.067-.565-.325-.824-.7-1.956-1.132-3.236-.8-2.4-2.477-7.4-3.288-8.121-3.747-3.223-12.651-3.865-17.976-1.3-2.346 1.132-3.5 2.652-3.428 4.524l.48 12.691 13.471 5.577-1.043 2.515-8.171-3.382-4.053 20.823 5.654-.008 1.66 25.158-2.717.179-1.487-22.611-6.411.012 4.791-24.613-4.347-1.8L.01 28.998c-.113-2.967 1.651-5.481 4.968-7.08 6.244-3.011 16.419-2.193 20.931 1.687 1.27 1.09 2.5 4.551 4.1 9.322.411 1.23.774 2.316 1.051 3.027a3.006 3.006 0 0 1-.853 3.853l-6.626 4.253L28.6 69.847l-6.413-.012Zm29.619-31.828-.338-31.376c-.044-4-7.575-6.171-14.639-6.176h-.019a38 38 0 0 0-8.323 1.024l-.626-2.652a41 41 0 0 1 8.951-1.1h.021c8.592.008 17.293 2.754 17.361 8.869l.338 31.376ZM35.305 18.948a8.4 8.4 0 0 1-1.245-.117 8.53 8.53 0 0 1-5.486-3.87c-1.076-1.962-1.43-6.507-1.263-8.329.405-4.364 4.437-6.351 8.012-6.351s7.61 1.987 8.017 6.349c.167 1.822-.185 6.368-1.263 8.331a8.57 8.57 0 0 1-5.375 3.847 9 9 0 0 1-1.397.14m.019-15.944c-2.46 0-5.052 1.2-5.3 3.878-.15 1.63.248 5.513.936 6.768a5.78 5.78 0 0 0 3.605 2.506 4 4 0 0 0 1.631-.019 5.82 5.82 0 0 0 3.494-2.483c.692-1.257 1.088-5.139.938-6.772-.248-2.679-2.844-3.878-5.303-3.878Zm-21 15.664a8 8 0 0 1-1.249-.119 8.53 8.53 0 0 1-5.485-3.868c-1.076-1.962-1.428-6.5-1.261-8.327C6.734 1.99 10.766.003 14.342.001c3.574 0 7.608 1.987 8.015 6.353.167 1.822-.184 6.365-1.264 8.329a8.58 8.58 0 0 1-5.375 3.847 9 9 0 0 1-1.393.137Zm.019-15.942c-2.458 0-5.052 1.2-5.3 3.88-.15 1.628.248 5.511.936 6.766a5.8 5.8 0 0 0 3.605 2.5 4 4 0 0 0 1.626-.019 5.82 5.82 0 0 0 3.5-2.481c.692-1.259 1.09-5.141.94-6.77-.247-2.678-2.843-3.883-5.303-3.877Z" data-name="Path 110571"/><path fill="#fec200" d="M21.027 42.297a5.4 5.4 0 1 1 5.4-5.4 5.406 5.406 0 0 1-5.4 5.4m0-8.077a2.677 2.677 0 1 0 2.679 2.677 2.68 2.68 0 0 0-2.679-2.677" data-name="Path 110572"/><path fill="#fec200" d="M149.427 28.806q-.18.002-.4-.006a6.8 6.8 0 0 1-4.724-2.571c-1.059-1.489-1.7-4.962-1.737-6.328-.071-3.023 2.3-5.413 5.759-5.817 3.492-.409 6.322 1.38 6.947 4.333.281 1.339.45 4.87-.238 6.561a6.75 6.75 0 0 1-3.9 3.551 5.6 5.6 0 0 1-1.707.277m-.206-12.051a5 5 0 0 0-.577.033c-1.27.15-3.4.957-3.355 3.046a13.3 13.3 0 0 0 1.238 4.82 4.08 4.08 0 0 0 2.7 1.432 2.7 2.7 0 0 0 1.1-.15 4.02 4.02 0 0 0 2.187-1.977 13.2 13.2 0 0 0 .1-4.975c-.377-1.764-2.11-2.229-3.392-2.229Z" data-name="Path 110573"/><path fill="#fec200" d="m152.446 61.667-2.466-1.153 3.194-6.83-4.126-1.943a5.9 5.9 0 0 1-3.263-4.112l-2.783-12.614a6.88 6.88 0 0 1 .488-4.993 5.84 5.84 0 0 1 3.9-2.738l.584-.142c4.687-1.147 7.825-1.912 12.714-2.685l5.719-4.708 1.73 2.1-6.292 5.183-.371.058c-4.985.774-8.115 1.539-12.854 2.7l-.584.142a3.2 3.2 0 0 0-2.173 1.422 4.33 4.33 0 0 0-.233 2.973l2.812 12.716a3.2 3.2 0 0 0 1.856 2.287l4.591 2.156a1.96 1.96 0 0 1 1.063 1.115 2.28 2.28 0 0 1-.109 1.8Zm1.3-7.714.039.017Zm-.363-.717" data-name="Path 110574"/><path fill="#fec200" d="m127.607 77.266-.4-7.8.588-7.452c.286-3.592 5.6-4.87 10.064-4.872s9.76 1.278 10.064 4.866l.577 6.784-.39 8.475-2.721-.131.394-8.294-.573-6.6c-.094-1.12-3.136-2.369-7.351-2.371s-7.26 1.247-7.35 2.366l-.584 7.274.4 7.627Z" data-name="Path 110575"/><path fill="#fec200" d="M137.738 58.498a6 6 0 0 1-.869-.075 6.12 6.12 0 0 1-3.959-2.658 12.3 12.3 0 0 1-.9-5.523c.256-2.61 2.621-4.43 5.75-4.43s5.494 1.82 5.75 4.426a12.3 12.3 0 0 1-.9 5.529 6.08 6.08 0 0 1-3.847 2.633 7 7 0 0 1-1.025.098m.019-9.962c-1.057 0-2.886.413-3.038 1.968a10.2 10.2 0 0 0 .55 3.9 3.41 3.41 0 0 0 2.079 1.343 2.5 2.5 0 0 0 .93-.019 3.37 3.37 0 0 0 1.968-1.318 10.2 10.2 0 0 0 .552-3.9c-.152-1.561-1.984-1.974-3.041-1.974" data-name="Path 110576"/><path fill="#fec200" d="m142.995 92.67-2.721-.15.86-15.513-.017-11.4h2.725l.015 11.476Z" data-name="Path 110577"/><path fill="#fec200" d="M136.395 77.411h2.725v15.184h-2.725z" data-name="Rectangle 1501"/><path fill="#fec200" d="m132.52 92.67-.861-15.513.011-11.553h2.725l-.013 11.481.859 15.436Z" data-name="Path 110578"/><path fill="#fec200" d="m227.099 77.262-2.721-.131.394-8.294-.575-6.6c-.1-1.12-3.138-2.369-7.349-2.371-3.619 0-6.691 1.117-7.143 2.594l-1.949 4.3h-1.781l-5.46-7.531 2.206-1.6 3.809 5.254.634-1.391c.959-3.171 5.825-4.355 9.683-4.355 4.451 0 9.756 1.278 10.062 4.864l.578 6.786Z" data-name="Path 110579"/><path fill="#fec200" d="M216.726 58.498a6.4 6.4 0 0 1-.869-.075 6.13 6.13 0 0 1-3.955-2.656 12.3 12.3 0 0 1-.9-5.525c.256-2.61 2.619-4.43 5.75-4.43s5.492 1.82 5.748 4.426a12.3 12.3 0 0 1-.9 5.529 6.06 6.06 0 0 1-3.847 2.631 7 7 0 0 1-1.027.1m.023-9.962c-1.059 0-2.888.413-3.04 1.968a10.3 10.3 0 0 0 .548 3.9 3.44 3.44 0 0 0 2.079 1.341 2.5 2.5 0 0 0 .932-.019 3.36 3.36 0 0 0 1.968-1.316 10.2 10.2 0 0 0 .552-3.9c-.157-1.561-1.984-1.974-3.039-1.974" data-name="Path 110580"/><path fill="#fec200" d="m221.985 92.67-2.721-.15.861-15.513-.017-11.4h2.725l.015 11.476Z" data-name="Path 110581"/><path fill="#fec200" d="M215.386 77.411h2.725v15.184h-2.725z" data-name="Rectangle 1502"/><path fill="#fec200" d="m211.51 92.671-.863-15.512.013-11.554h2.725l-.015 11.476.861 15.435Z" data-name="Path 110582"/><path fill="#fec200" d="m158.08 63.664-2.381-1.324 5.84-10.5c.334-.621.536-2.006-.288-2.519l-4.476-2.44-.725-.713-1.57-12.643 1.512-1.883 8.1-1.854 6.914-8.652 2.129 1.7-7.51 9.4-8.1 1.853-.2.248 1.307 10.516 3.98 2.116c2.189 1.361 2.362 4.259 1.314 6.19Z" data-name="Path 110583"/></g></svg>