<svg id="Layer_1" data-name="Layer 1" xmlns="http://www.w3.org/2000/svg" viewBox="0 0 250 250"><defs><style>.cls-1{fill:none;}.cls-2{fill:#42515a;}</style></defs><path class="cls-1" d="M74.43,88.63a75.48,75.48,0,0,0-.32,106.31l.34.38a75.47,75.47,0,0,0,106.66,0h0a75.45,75.45,0,0,0,.28-106.4l-.29-.26a75.44,75.44,0,0,0-106.68,0Zm58.95-7.16v54.88h32.73a5.61,5.61,0,1,1,0,11.21H127.79a5.62,5.62,0,0,1-5.61-5.61V81.47a5.6,5.6,0,1,1,11.2,0Z"/><path class="cls-2" d="M89.6,41.42A5.61,5.61,0,0,0,87.5,41a5.69,5.69,0,0,0-2.17.44c-3.06,1.29-6.14,2.76-9.14,4.37l-.4.19c-3.21,1.76-6.26,3.62-9,5.48s-5.51,3.92-8.4,6.3a99.71,99.71,0,0,0-7.74,7,102.87,102.87,0,0,0-7,7.8A101.21,101.21,0,0,0,37.32,81a5.6,5.6,0,1,0,9.28,6.27h0c1.85-2.73,3.73-5.26,5.61-7.53s4-4.56,6.34-7,4.59-4.38,6.94-6.32S70.3,62.64,73,60.78s5.45-3.5,8.11-4.94l.35-.19c2.7-1.46,5.45-2.78,8.17-3.92a5.58,5.58,0,0,0,3-7.3A5.52,5.52,0,0,0,89.6,41.42Z"/><path class="cls-2" d="M122.18,81.47V142a5.62,5.62,0,0,0,5.61,5.61h38.32a5.61,5.61,0,1,0,0-11.21H133.38V81.47a5.6,5.6,0,1,0-11.2,0Z"/><path class="cls-2" d="M66.88,80.38h0l-.34.35a86.57,86.57,0,0,0-.92,121.54l.92.91a86.54,86.54,0,0,0,122.36.13l.15-.14a86.52,86.52,0,0,0,.33-122.1l-.36-.41a86.61,86.61,0,0,0-122.14-.29ZM181.4,88.89a75.45,75.45,0,0,1-.28,106.4h0a75.47,75.47,0,0,1-106.66,0l-.34-.38a75.42,75.42,0,0,1,107-106.31Z"/><path class="cls-2" d="M165.9,51.73c2.76,1.17,5.61,2.56,8.49,4.13A96.62,96.62,0,0,1,190,66.38l.41.35c2.28,1.9,4.48,3.91,6.57,6,2.33,2.33,4.46,4.66,6.32,6.91s3.86,4.93,5.64,7.57a5.61,5.61,0,0,0,10.14-2.07,5.52,5.52,0,0,0-.86-4.18c-1.85-2.73-4-5.56-6.28-8.41-2.48-3-4.78-5.51-7-7.75s-4.67-4.45-7.5-6.82l-.29-.22c-2.81-2.31-5.63-4.42-8.37-6.28-3.2-2.14-6.16-3.94-9.05-5.49s-6.19-3.15-9.48-4.54a5.58,5.58,0,1,0-4.35,10.28Z"/></svg>