<svg xmlns="http://www.w3.org/2000/svg" width="369.48" height="375.367" viewBox="0 0 369.48 375.367">
  <g id="Placement___CS_Radon_Coffee" data-name="Placement _ CS_Radon Coffee" transform="translate(-3.929 -3.8)">
    <g id="Layer_16" data-name="Layer 16" transform="translate(5.027 110.96)">
      <path id="Path_110477" data-name="Path 110477" d="M364.549,304.912c0-16.185-12.3-21.958-23.852-24.165a47.066,47.066,0,0,0-17.981-21.56c-8-3.941-7.213-13.011-13.575-19.25-14-19.905-35.747-32.843-58.619-39.731-48.348-13.893-123.875-2.648-143.351,50.3C79.336,266,59.584,297.141,60.338,330.345c-11.479-5.46-47.8-29.208-45.014-8.194,2.366,17.877,30.7,21.517,47.459,27.315,7.765,72.1,89.6,103.633,154.762,102.64,72-1.1,144.528-46.007,139.913-122.986C356.993,321.38,364.549,320.926,364.549,304.912Z" transform="translate(-9.379 -183.922)" fill="#86c8e4"/>
      <path id="Path_110478" data-name="Path 110478" d="M354.945,287.232c-.833-11.987-12.3-21.958-23.852-24.165a47.066,47.066,0,0,0-17.981-21.56c-8-3.941-7.213-13.011-13.575-19.25-14-19.9-35.747-32.842-58.619-39.731-48.348-13.893-123.881-2.648-143.351,50.272C69.732,248.31,49.98,279.437,50.734,312.653,39.255,307.217,12.915,284.542,5.72,304.5c8.335,17.5,30.7,21.517,47.459,27.315,7.765,72.065,89.611,103.951,154.762,102.609,72-.711,146.961-46.4,139.3-122.986C346.47,303.724,357.85,306.586,354.945,287.232Z" transform="translate(-5.72 -177.077)" fill="#c3e3f2"/>
      <path id="Path_110479" data-name="Path 110479" d="M361,285.241c-1.459,31.317-42.673,53.042-92.062,50.8s-88.25-27.615-86.779-58.925,42.679-54.881,92.062-52.637S362.46,253.924,361,285.241Z" transform="translate(-74.011 -195.371)" fill="#42515a"/>
      <path id="Path_110480" data-name="Path 110480" d="M215.5,306.372a29.717,29.717,0,0,0-3.162,21.021A32.156,32.156,0,0,0,225.01,346.6a44.856,44.856,0,0,0,4.014,2.672c.821.466,1.667.907,2.513,1.324,1.269.613,2.77,1.6,4.223,1.416a1.739,1.739,0,0,0,1.5-2.6,6.576,6.576,0,0,0-3.064-2.182c-.766-.368-1.526-.748-2.274-1.152a36.31,36.31,0,0,1-3.456-2.127,31.316,31.316,0,0,1-3.843-3.021q-1.036-.962-1.979-2.022c-.288-.319-.57-.65-.84-.981l-.4-.5c-.141-.184-.031-.037,0,0l-.257-.343a30.708,30.708,0,0,1-2.776-4.572c-.2-.4-.4-.8-.613-1.226l-.257-.564c-.043-.092-.08-.184-.123-.282-.135-.313.092.227-.037-.092-.319-.791-.613-1.593-.87-2.415A31.034,31.034,0,0,1,214.977,318a27.1,27.1,0,0,1,2.249-10.645c.5-1.146-1.054-2.139-1.722-1.005Z" transform="translate(-85.446 -226.933)" fill="#f0f2f3"/>
      <path id="Path_110481" data-name="Path 110481" d="M437.991,316.523c0,2.243,0,4.486-.221,6.741a8.23,8.23,0,0,1-.086.889,5,5,0,0,1-.061.509.6.6,0,0,1-.031.227c-.031.3.037-.227,0,0-.1.662-.2,1.318-.325,1.967a33.609,33.609,0,0,1-1.03,4.094c-.233.729-.49,1.452-.778,2.163-.043.11-.251.613-.074.19l-.214.5c-.172.374-.343.754-.521,1.121a30.034,30.034,0,0,1-2.451,4.29q-.349.5-.717.993l-.19.251c.221-.282.049-.061,0,0-.172.208-.331.411-.5.613q-.895,1.079-1.875,2.071a28.521,28.521,0,0,1-2.139,1.949c-.368.319-.748.613-1.128.938l-.288.227-.061.049c-.257.2-.509.386-.766.57a65.049,65.049,0,0,1-15.432,8.022,1.7,1.7,0,0,0-1.152,2.035,1.673,1.673,0,0,0,2.029,1.152c9.462-2.923,18.434-7.734,24.514-15.756a33.235,33.235,0,0,0,6.331-17.9,75.378,75.378,0,0,0,.037-7.893,1.413,1.413,0,0,0-2.825,0Z" transform="translate(-161.424 -230.532)" fill="#f0f2f3"/>
      <path id="Path_110482" data-name="Path 110482" d="M340.764,393.727a47.263,47.263,0,0,0,13.4-.447,118.966,118.966,0,0,0,14.629-3.064c2.139-.613,4.253-1.275,6.325-2.084a2.317,2.317,0,0,0,1.575-2.764,2.28,2.28,0,0,0-2.77-1.575,184.257,184.257,0,0,1-26.585,6.325c-1.312.227-1.869.306-3.138.435a27.931,27.931,0,0,1-3.064.147,1.532,1.532,0,0,0-1.508,1.33,1.514,1.514,0,0,0,1.1,1.679Z" transform="translate(-134.988 -257.078)" fill="#f0f2f3"/>
      <path id="Path_110483" data-name="Path 110483" d="M302.377,242.075c2.249-.159,4.5-.165,6.741-.264,2.451-.1,4.9-.1,7.354-.074,2.574,0,5.148.147,7.716.349,1.269.1,2.543.221,3.812.368l1.967.239c.049,0,.4.049.074,0l.411.055,1.134.165a102.349,102.349,0,0,1,15.045,3.334q1.765.552,3.505,1.183c.539.2,1.073.4,1.606.613l.876.355.343.141c-.423-.178.141.061.178.08a49.307,49.307,0,0,1,6.024,3.064c.993.613,1.961,1.256,2.893,1.949l.257.2c-.411-.313,0,0,.074.061.227.178.453.362.674.552q.613.521,1.226,1.085c.76.723,1.452,1.5,2.133,2.292s1.385,1.532,2.016,2.347c1.073,1.361,3.518-.116,2.923-1.7a12.184,12.184,0,0,0-1.361-2.85,20.227,20.227,0,0,0-2.053-2.451,31.91,31.91,0,0,0-5.074-4.137A54.383,54.383,0,0,0,350,242.9a102.4,102.4,0,0,0-31.507-5.05,81.918,81.918,0,0,0-8.408.337,49.345,49.345,0,0,0-8.01,1.452c-1.3.343-1.072,2.494.325,2.4Z" transform="translate(-120.123 -200.602)" fill="#f0f2f3"/>
      <path id="Path_110484" data-name="Path 110484" d="M204.185,289.742a30.447,30.447,0,0,0-4.29,3.4,20.182,20.182,0,0,0-3.6,5,25.623,25.623,0,0,0-2.531,13.777,28.351,28.351,0,0,0,.76,4.645,7.949,7.949,0,0,0,2.384,4.48,2.194,2.194,0,0,0,2.029.533,2.047,2.047,0,0,0,1.452-1.452,6.894,6.894,0,0,0,.055-2.451c-.11-.613-.233-1.189-.392-1.777a33.089,33.089,0,0,1-.729-3.548l-.055-.386c0,.049.043.417,0,.092s-.055-.509-.08-.766c-.055-.613-.086-1.177-.1-1.765a26.129,26.129,0,0,1,.116-3.175c0-.11.086-.748.049-.478s.074-.466.092-.613c.086-.5.184-.993.3-1.483.233-.993.545-1.955.833-2.936.123-.417.257-.833.4-1.226.086-.233.172-.466.264-.7.037-.1.08-.2.116-.3-.086.227-.049.123,0-.037.374-.821.791-1.624,1.226-2.421a12.87,12.87,0,0,1,3.328-4.29c1.189-.944-.368-2.96-1.624-2.108Z" transform="translate(-78.484 -220.623)" fill="#f0f2f3"/>
      <path id="Path_110485" data-name="Path 110485" d="M414.268,311.463c2.029,4.6,1.164,10.277-1.011,14.672a24.066,24.066,0,0,1-11.142,10.774,45.127,45.127,0,0,1-7.967,3.064,1.328,1.328,0,0,0,.349,2.6,23.728,23.728,0,0,0,8.7-1.943,27.836,27.836,0,0,0,7.55-4.9c4.406-4.045,7.648-9.916,7.906-15.971a15.787,15.787,0,0,0-2.494-9.426,1.1,1.1,0,0,0-1.9,1.109Z" transform="translate(-155.738 -228.481)" fill="#f0f2f3"/>
      <path id="Path_110486" data-name="Path 110486" d="M265.775,265.172c1.1-.742,2.31-1.305,3.463-1.955q2.1-1.189,4.29-2.219c1.226-.57,2.341-1.146,3.371-1.514s2.139-.68,3.224-.962a76.681,76.681,0,0,1,18.539-2.451,63.436,63.436,0,0,1,10.676.521,1.226,1.226,0,0,0,.613-2.31c-6.49-2.451-13.63-2.1-20.408-1.226-5.6.735-11.534,1.839-16.578,4.529a37.107,37.107,0,0,0-8.378,6.024c-.778.754.251,2.163,1.183,1.532Z" transform="translate(-105.834 -206.239)" fill="#f0f2f3"/>
      <path id="Path_110487" data-name="Path 110487" d="M436.052,336.469a9.039,9.039,0,0,1-.944,3.971c-.165.325-.349.644-.545.95-.092.147-.19.288-.294.429s-.1.147-.153.214c-.251.337.067-.074-.086.11a16.826,16.826,0,0,1-1.575,1.728,1.27,1.27,0,1,0,1.8,1.8,12.416,12.416,0,0,0,3.812-9.193,1.005,1.005,0,0,0-2.01,0Z" transform="translate(-170.787 -238.399)" fill="#f0f2f3"/>
      <path id="Path_110488" data-name="Path 110488" d="M225.4,332.242a33.863,33.863,0,0,0,1.839,6.171,19.555,19.555,0,0,0,2.5,4.149,27.372,27.372,0,0,0,1.839,2.114,14.1,14.1,0,0,0,2.746,2.1,1.642,1.642,0,0,0,2.127-.429,1.673,1.673,0,0,0-.129-2.169c-.662-.809-1.287-1.636-2-2.4-.331-.355-.65-.717-.962-1.085-.135-.165-.27-.325-.4-.49a2.064,2.064,0,0,1-.184-.233c-.092-.129-.613-.833-.349-.466-.116-.147-.227-.3-.337-.454-.208-.288-.4-.613-.613-.883a19.574,19.574,0,0,1-.993-1.741q-.19-.4-.368-.791c-.178-.386,0,.074,0-.061a1.562,1.562,0,0,0-.172-.435c-.172-.46-.331-.925-.472-1.391-.251-.809-.447-1.63-.68-2.451a1.75,1.75,0,0,0-3.371.932Z" transform="translate(-90.755 -236.305)" fill="#f0f2f3"/>
      <path id="Path_110489" data-name="Path 110489" d="M368.584,371.741c.613,0,1.14.257,1.759.27a12.206,12.206,0,0,0,1.918-.074c1.342-.178,2.678-.362,4.02-.558a74.969,74.969,0,0,0,7.8-1.618,48.121,48.121,0,0,0,14.862-6.318c2.611-1.759,5.546-3.941,6.925-6.846a1.489,1.489,0,0,0-.227-1.753,1.44,1.44,0,0,0-1.747-.221c-2.114,1.612-3.916,3.677-6.037,5.228a37.56,37.56,0,0,1-6.839,3.9c-4.639,2.065-9.7,3.156-14.678,4.29-1.354.306-2.715.613-4.082.864a19.471,19.471,0,0,0-1.949.527c-.7.233-1.2.693-1.894.919a.717.717,0,0,0,.19,1.4Z" transform="translate(-145.949 -245.738)" fill="#f0f2f3"/>
      <path id="Path_110490" data-name="Path 110490" d="M382.369,265.754c7.636,4.29,14.531,11.221,16.345,20.1a26.755,26.755,0,0,1,.38,7.483c-.165,1.949,2.831,2.255,3.34.454,1.422-5.044.227-10.29-2.114-14.874a29.875,29.875,0,0,0-9.873-10.639,57,57,0,0,0-7.115-4.173c-1.091-.545-2.047,1.042-.962,1.655Z" transform="translate(-151.356 -210.724)" fill="#f0f2f3"/>
      <path id="Path_110491" data-name="Path 110491" d="M404.548,353.259c.374-13.807-16.547-19.47-34.816-14.39-.276.037-1.373.2-.876.135-2.954.343-.159,1.949-2.831,3.3.907-1.967,4.474-2.764,0,0-1.912,6.19-.294-2.635-1.881,3.42-8.182,15.291-26.31,37.543-40.546,47.477-22.2,16.063-46.975,22.559-73.444,20.837-31.163-2.01-50.787-8.488-69.546-23.9-10.1-6.024-14.659-17.926-21.008-26.837-1.894-12.012-2.182-10.811-4.731,4.8-3.818,24.171,13.188,49.028,30.544,64.392,29.453,26.089,62.106,24.845,97.5,22.743,36.232-2.151,78.279-27.462,92.264-66.8,2.568-7.238-4.56,0-5.056-1.937-5.05,4.253-17.362-1.1-23.491-1.624,1.312-2.942,4.866-5.957,6.576-8.7-3.548,1.226-2.654,1.839-2.237,2.127-2.194-.257-1.017-.809,1.269-.76,12.619,2.3,30.305,4.5,40.938-5.3C399.051,365.516,406.705,363.763,404.548,353.259Z" transform="translate(-63.253 -239.003)" fill="#86c8e4"/>
      <path id="Path_110492" data-name="Path 110492" d="M196,422.68l.766.613.227.135Z" transform="translate(-79.387 -272.163)" fill="#86c8e4"/>
      <path id="Path_110493" data-name="Path 110493" d="M222,458.234c-18.275-25.206-32.634-14.653-49.684-21.174-22.338-6.95-39.964-16.547-62.3-23.5-13.832-4.9-33.817-11.411-47.085-17.613-14.1-5.889-40.135-32.076-54.654-21.174-13.581,23.319,64.888,36.262,79.915,41.8,26.555,7.642,49.965,15.168,63.387,41.165,9.505,11.828,27.664,21.082,42.9,21.37C207,479.555,223.331,473.923,222,458.234Z" transform="translate(-6.101 -252.597)" fill="#f0f2f3"/>
      <path id="Path_110494" data-name="Path 110494" d="M526.706,362.812s-10.455,8.58-9.3,6.037c2.182-4.768-2.709-13.838-2.709-13.838h14.408Z" transform="translate(-202.773 -245.964)" fill="#c3e3f2"/>
    </g>
    <g id="klumper" transform="translate(3.929 6.3)">
      <path id="Path_110495" data-name="Path 110495" d="M294.877,302.842a11.423,11.423,0,0,1,1.918-4.253,9.971,9.971,0,0,1,4.627-3.119l-.411-.827s-6.895-8.77-10.786-12.643c-2.525-2.451-11.227,5.264-12.925,7.195-2.451,2.948-7.612,10.143-3.8,12.68C280.3,302.419,294.877,302.842,294.877,302.842Zm-15.4-3.867c-1.042,0-2.035,0-2.966-.08.876-5.546,5.7-10.774,11.718-14.028,2.5,3.107,6.024,6.631,8.911,9.738-1.226,1.361-3.469,2.893-4.082,4.578C287.744,299.1,283.779,299.036,279.476,298.975Z" transform="translate(-107.768 -112.853)" fill="#fff"/>
      <path id="Path_110496" data-name="Path 110496" d="M358.522,297.421c-2.715-5.559-7.74-11.877-15.438-13.581-3.824,3.836-11.184,12.968-11.184,12.968a7.189,7.189,0,0,1,3.677,2.758,15.591,15.591,0,0,1,1.777,3.941s16.259.76,19.819,1.52C362.769,305.755,359.3,299.872,358.522,297.421Zm-4.247,4.357c-4.682-.276-9.413-.46-14.151-.4a16.639,16.639,0,0,0-3.708-4.412c3.236-3.879,5.387-6.533,8.188-9.689A22.351,22.351,0,0,1,355.911,301.8c-.5.018-1.048,0-1.636-.012Z" transform="translate(-130.904 -113.75)" fill="#fff"/>
      <path id="Path_110497" data-name="Path 110497" d="M331.982,344.386c-3.536-5.84-11.381-17.436-11.381-17.436s-4.063,1.33-6.006,1.036a11.711,11.711,0,0,1-5.038-.821c-4.2,4.652-8.3,10.664-12.183,16.271C295.469,350.465,332.3,351.795,331.982,344.386Zm-8.929.613a37.778,37.778,0,0,1-20.586-1.741c2.948-4.051,6.233-7.967,8.721-11.963a27.087,27.087,0,0,0,7.1-.19c3.285,4.854,5.669,8.273,8.531,12.753a25.852,25.852,0,0,1-3.769,1.122Z" transform="translate(-117.51 -130.44)" fill="#fff"/>
      <path id="Path_110498" data-name="Path 110498" d="M314,313.135c.784,6.876,15.272,6.5,13.054-.925C324.927,305.089,314.472,306.639,314,313.135Zm4.216-1.146c2.715-4.29,8.1,2.611,3.567,3.2-4.106.539-4.026-1.71-3.561-3.2Z" transform="translate(-123.974 -122.92)" fill="#fff"/>
      <path id="Path_110499" data-name="Path 110499" d="M205.289,204.919c-11.123,5.436-21.86,12.539-29.49,22.436a45.019,45.019,0,0,0-9.573,25.127c-.435,8.684,1.839,17.3,5.559,25.09A79.492,79.492,0,0,0,187.572,299.3a85.131,85.131,0,0,0,21.45,15.75c.9.447,1.839.809,2.764,1.226,1.023.478,1.924-1.042.895-1.526-1.839-.87-3.677-1.937-5.485-2.954s-3.677-2.194-5.46-3.389a88.931,88.931,0,0,1-10.3-8.133,80.938,80.938,0,0,1-16.406-20.586c-4.014-7.317-6.741-15.481-6.95-23.87A42.226,42.226,0,0,1,175.3,231.21c6.423-9.658,16.075-16.792,26.15-22.271,1.563-.852,3.15-1.667,4.743-2.451,1.066-.521.135-2.114-.925-1.593Z" transform="translate(-66.743 -83.146)" fill="#42515a"/>
      <path id="Path_110500" data-name="Path 110500" d="M153.975,252.57a112.2,112.2,0,0,0-3.9,47.024,94.991,94.991,0,0,0,18.134,43.99,124,124,0,0,0,33.964,31.108,102.959,102.959,0,0,0,41.508,14.347,145.067,145.067,0,0,0,22.675.5,156.485,156.485,0,0,0,20.151-1.943,76.268,76.268,0,0,0,29.968-11.644,98.667,98.667,0,0,0,13.195-10.866,134.213,134.213,0,0,0,28.142-38.229c5.834-11.712,10.143-24.391,11.246-37.494A67.286,67.286,0,0,0,360.051,249a51.171,51.171,0,0,0-3.162-4.67c-1.226-1.6-2.58-3.064-3.861-4.59s-3.61.7-2.286,2.286a51.323,51.323,0,0,1,3.291,4.707q1.581,2.409,3.064,4.9a59.691,59.691,0,0,1,4.4,9.456,62.315,62.315,0,0,1,3.634,19.476c.343,12.717-2.77,25.292-7.71,37.016a138.032,138.032,0,0,1-16.676,28.755c-.84,1.115-.993,1.318-1.839,2.347-.613.8-1.281,1.593-1.937,2.378-1.33,1.593-2.715,3.126-4.131,4.639a137.121,137.121,0,0,1-12.8,12.257,71.936,71.936,0,0,1-26.665,14.1c-12.649,3.475-25.96,4.033-39.026,4.008a98.3,98.3,0,0,1-40.92-9.193,113.659,113.659,0,0,1-35.815-26.052,106.347,106.347,0,0,1-14.157-18.968,91.114,91.114,0,0,1-8.9-21.585c-4.075-15.033-4.29-30.875-1.839-46.2q.919-5.626,2.292-11.166a.558.558,0,0,0-1.072-.3Z" transform="translate(-60.136 -96.478)" fill="#42515a"/>
      <path id="Path_110501" data-name="Path 110501" d="M487.478,317.872a56.326,56.326,0,0,1,17.062-.644,34.682,34.682,0,0,1,12.349,3.91,26.994,26.994,0,0,1,2.519,1.612l.57.417c.055.049-.147-.11.061.055l.331.264c.362.294.7.613,1.048.9a25.271,25.271,0,0,1,1.967,2c.306.343.613.7.882,1.06-.214-.27.159.215.239.325s.282.386.411.613a23.4,23.4,0,0,1,1.416,2.317c.214.392.417.8.613,1.226l.245.552v.067c.043.1.092.215.135.325a25.679,25.679,0,0,1,1.446,5.179c.037.215.074.429.1.643,0,.061.055.386,0,.153s0,.2.031.257c.049.447.092.9.123,1.354.061.9.073,1.8.049,2.7s-.11,1.839-.227,2.776c0,.092.043-.288,0,0l-.055.362c-.037.245-.08.484-.123.723-.086.466-.178.931-.288,1.391-.208.919-.466,1.839-.76,2.721-.153.46-.319.919-.49,1.379-.086.221-.172.435-.264.656,0,.067-.165.411-.092.227l-.1.227a33.952,33.952,0,0,1-2.935,5.307c-.294.429-.613.858-.907,1.275-.067.1-.141.19-.208.282-.172.233,0,0-.049.067-.172.215-.343.435-.515.643q-1.03,1.262-2.157,2.421c-.778.8-1.593,1.563-2.451,2.286-.435.374-.87.735-1.318,1.091l-.306.239c.227-.178-.074.055-.153.11-.239.184-.484.362-.729.539a43.674,43.674,0,0,1-6.19,3.714c-1.226.613-2.231,1.048-3.309,1.471q-1.875.742-3.818,1.336a61.406,61.406,0,0,1-17.613,2.629c-1.734,0-3.463,0-5.2-.092a29.412,29.412,0,0,1-5.148-.821c-3.677-.815-7.722-1.685-11.454-.613a10.418,10.418,0,0,0-4.872,3.113,1.655,1.655,0,0,0,0,2.286,1.636,1.636,0,0,0,2.286,0c2.451-2.911,6.1-3.027,9.634-2.451,1.881.294,3.732.748,5.6,1.14a30.906,30.906,0,0,0,5.626.533,70.346,70.346,0,0,0,19.366-2.035,50.6,50.6,0,0,0,14.708-6.294,40.8,40.8,0,0,0,10.32-9.352,35.073,35.073,0,0,0,5.828-11.172,30.165,30.165,0,0,0,1.226-11.522,26.966,26.966,0,0,0-3.4-10.909,26.641,26.641,0,0,0-8.016-8.58,31.832,31.832,0,0,0-12.257-4.952,51.342,51.342,0,0,0-16.633-.037q-2.366.349-4.688.858c-1.164.245-.662,1.967.484,1.765Z" transform="translate(-179.295 -125.664)" fill="#42515a"/>
      <path id="Path_110502" data-name="Path 110502" d="M492.819,361.211a18.315,18.315,0,0,1,4.823-3.794,25.411,25.411,0,0,1,5.834-2.451,34.649,34.649,0,0,1,3.432-.852c.509-.1,1.023-.2,1.538-.276l.423-.061c.043,0,.509-.067.147,0l.987-.116a41.453,41.453,0,0,1,6.7-.147c.539.031,1.079.074,1.618.123l.8.092h.092l.392.055a29.936,29.936,0,0,1,3.12.613,24.94,24.94,0,0,1,2.733.889l.319.135c-.4-.172-.043,0,.031,0l.613.288c.392.19.772.392,1.146.613s.717.441,1.054.68l.245.184c.294.2-.276-.245,0,0l.453.38a11.334,11.334,0,0,1,.815.815c.129.141.245.288.368.429-.349-.4.1.147.178.27a9.425,9.425,0,0,1,.5.87,2.222,2.222,0,0,0,.116.245c.153.288-.122-.368,0-.055.061.2.147.4.208.613.092.325.147.656.221.987s0-.4,0-.061v.956a4.407,4.407,0,0,1-.037.692c0,.11-.08.46,0,0a2.3,2.3,0,0,1-.067.411,10.8,10.8,0,0,1-.368,1.391c-.086.257-.184.515-.288.772.159-.4,0,0,0,.061l-.214.46c-.257.521-.545,1.036-.852,1.532a37.872,37.872,0,0,1-6.208,7.134,1.473,1.473,0,0,0,2.084,2.084c3.947-3.187,8.194-7.587,9.052-12.827a9.92,9.92,0,0,0-4.18-9.806c-3.346-2.537-7.661-3.585-11.767-4.063a39.357,39.357,0,0,0-14.353,1.085,28.92,28.92,0,0,0-12.551,6.576c-.386.368-.754.754-1.109,1.152-1.2,1.336.748,3.315,1.98,1.98Z" transform="translate(-192.302 -139.458)" fill="#42515a"/>
      <path id="Path_110503" data-name="Path 110503" d="M484.058,372.939c1.391,0,2.776,0,4.167.043a39.747,39.747,0,0,0,4.253-.208,53.318,53.318,0,0,0,8.445-1.318c5.35-1.3,10.461-3.732,13.856-8.2a18.789,18.789,0,0,0,2.31-4,23.366,23.366,0,0,0,.944-2.617c.3-1.036.729-2.163.08-3.144a1.336,1.336,0,0,0-1.839-.478,2.157,2.157,0,0,0-1.017,1.348c-.092.337-.159.68-.245,1.023-.19.7-.411,1.41-.668,2.1a17.032,17.032,0,0,1-1.777,3.377,17.557,17.557,0,0,1-5.111,4.8c-4.4,2.758-9.579,3.751-14.708,4.6-1.489.245-3,.386-4.48.674s-2.942.558-4.425.754c-.711.1-.533,1.226.165,1.226Z" transform="translate(-189.554 -140.461)" fill="#42515a"/>
      <path id="Path_110504" data-name="Path 110504" d="M154.989,270.329a.919.919,0,1,0-.919-.919A.919.919,0,0,0,154.989,270.329Z" transform="translate(-62.057 -107.807)" fill="#42515a"/>
      <path id="Path_110505" data-name="Path 110505" d="M79.239,402.069a.919.919,0,1,0-.919-.919A.919.919,0,0,0,79.239,402.069Z" transform="translate(-32.73 -158.811)" fill="#42515a"/>
      <path id="Path_110506" data-name="Path 110506" d="M5.906,377.875a8.163,8.163,0,0,1,3.732-4.866,9.266,9.266,0,0,1,5.467-.711,26.969,26.969,0,0,1,7.072,2.188c2.96,1.311,5.828,2.795,8.647,4.382,6.576,3.714,12.913,7.826,19.409,11.681a121.485,121.485,0,0,0,19.807,9.9q7.1,2.641,14.175,5.338,9.6,3.628,19.194,7.287,10.369,3.953,20.751,7.875,9.567,3.6,19.158,7.134c4.78,1.759,9.554,3.512,14.371,5.166a41.067,41.067,0,0,0,4.633,1.1c2.525.545,5.062,1.079,7.593,1.618l1.459.313c2.139.46,3.064-2.825.907-3.291-4.1-.882-8.2-1.783-12.3-2.654a38.857,38.857,0,0,1-4.658-1.5q-3.714-1.287-7.409-2.617-9.321-3.328-18.6-6.741l-21.045-7.746q-10.008-3.677-20-7.4-7.777-2.886-15.554-5.749c-2.69-.987-5.356-1.992-7.967-3.205-3.487-1.618-6.876-3.444-10.21-5.35-6.741-3.849-13.274-8.047-19.991-11.944-5.326-3.064-10.964-6.367-17.062-7.63a13.364,13.364,0,0,0-6.741,0,8.837,8.837,0,0,0-4.6,3.842A13.8,13.8,0,0,0,4.7,377.513c-.245.778.944,1.091,1.226.337Z" transform="translate(-4.215 -147.113)" fill="#42515a"/>
      <path id="Path_110507" data-name="Path 110507" d="M4,383.486c2.721,7.563,9.806,12.422,16.6,16.051,9.364,4.995,19.611,8.267,29.742,11.319C62.1,414.392,73.991,417.5,85.757,421c11.209,3.334,22.43,6.95,33,11.993a86.408,86.408,0,0,1,13.483,7.814,49.979,49.979,0,0,1,5.252,4.327c.821.772,1.612,1.569,2.366,2.4.374.411.735.827,1.091,1.226s.76.925.962,1.2a66.88,66.88,0,0,1,4.033,6.821,62.044,62.044,0,0,0,5.264,7.734,54.238,54.238,0,0,0,12.41,11.405,54.869,54.869,0,0,0,27.787,8.856c7.967.349,16.492-1.2,23.349-5.442,5.418-3.352,9.757-8.856,8.7-15.542a17.5,17.5,0,0,0-4.952-9.033,44.229,44.229,0,0,0-12.288-8.61c-2.991-1.514-6.128-2.212-9.26-3.42-1.661-.613-2.378,2.035-.735,2.672a32.491,32.491,0,0,1,4.455,2.286c1.342.766,2.739,1.452,4.112,2.163a53.734,53.734,0,0,1,6.741,4.1c.227.159.447.331.674.5.086.061.38.294.049.037l.319.251c.429.337.846.693,1.256,1.048a29.088,29.088,0,0,1,2.151,2.108c.294.325.582.656.858,1l.239.3c0-.037-.276-.386-.086-.11s.294.4.435.613a16.8,16.8,0,0,1,1.226,2.078c.086.159.153.325.233.49.227.466-.135-.392.049.1.116.337.245.674.349,1.017a7.607,7.607,0,0,1,.239.962c.037.159.055.319.092.478.08.355-.037-.515,0,.08a13.093,13.093,0,0,1,0,1.961c0,.227-.165.656,0,0a3.875,3.875,0,0,0-.074.453c-.061.331-.141.662-.233.987a9.137,9.137,0,0,1-.294.876c-.055.159-.325.662,0,.043-.086.165-.159.343-.239.509a13.891,13.891,0,0,1-1.005,1.7c-.092.135-.2.264-.288.4-.233.337.313-.368-.061.074-.227.27-.454.545-.7.809a19.051,19.051,0,0,1-1.612,1.532l-.423.349-.257.208s.392-.294.135-.1-.674.49-1.017.729c-.686.46-1.391.889-2.12,1.287s-1.538.8-2.335,1.152l-.355.153-.423.172c-.423.172-.858.331-1.287.484a41.184,41.184,0,0,1-5.589,1.526c-.472.092-.944.178-1.422.257l-.717.116-.362.049c-.527.08.27-.031-.141,0s-.987.116-1.483.165l-.662.086c.521-.061,0,0-.086,0-.306,0-.613.055-.907.08a47.38,47.38,0,0,1-26.132-5.393c-9.916-5.246-17.515-13.765-22.577-23.8-2-3.984-5.442-7.471-8.794-10.333a72.107,72.107,0,0,0-12.257-8.3c-9.916-5.436-20.671-9.272-31.427-12.668-11.589-3.677-23.343-6.741-35.03-10.081-10.455-2.966-21.027-6.086-30.992-10.284-7.6-3.2-14.935-7.085-20.157-13.483a19.462,19.462,0,0,1-1.3-1.839,17.7,17.7,0,0,1-1.158-2.114c-.484-1.023-2.225-.3-1.839.772Z" transform="translate(-3.929 -151.817)" fill="#42515a"/>
      <path id="Path_110508" data-name="Path 110508" d="M155.223,231.315a61,61,0,0,1,11.534-20.567,76.868,76.868,0,0,1,18.385-15.5,113.556,113.556,0,0,1,23.288-10.768,149.732,149.732,0,0,1,25.844-6.2,157.135,157.135,0,0,1,26-1.728,124.047,124.047,0,0,1,23.76,2.543,155.937,155.937,0,0,1,27.443,8.7,121.1,121.1,0,0,1,26.892,15.07c7.428,5.644,14,12.582,17.981,21.1a66.23,66.23,0,0,1,6.178,32.99,57.245,57.245,0,0,1-3.812,16.5,63.159,63.159,0,0,1-8.408,14.6A80.474,80.474,0,0,1,330.7,306.824a85.626,85.626,0,0,1-24.183,10.97,132.25,132.25,0,0,1-28.454,4.529,244.249,244.249,0,0,1-32.119-.38,111.881,111.881,0,0,1-24.042-4.529,113.44,113.44,0,0,1-23.509-10.057,96.431,96.431,0,0,1-20.377-15.376,77.746,77.746,0,0,1-14.99-20.665,69.956,69.956,0,0,1-6.925-25.709c-.172-2.3-.27-4.621-.294-6.925a69.7,69.7,0,0,1,.135-7.507c.159-1.532-2.237-1.52-2.4,0-.27,2.6-.693,5.166-.791,7.789a63.126,63.126,0,0,0,.165,7.458A75.175,75.175,0,0,0,155.37,260.4a74.155,74.155,0,0,0,11.736,23.981,89.193,89.193,0,0,0,18.937,18.753A109.959,109.959,0,0,0,209.159,316.1a120.081,120.081,0,0,0,24.735,7.354c9.646,1.753,19.513,2.145,29.3,2.243a180.513,180.513,0,0,0,31.225-2.1A103.737,103.737,0,0,0,321.47,315.5a81.017,81.017,0,0,0,22.461-15.548c7.569-7.422,14.169-16.326,17.944-26.285a63.182,63.182,0,0,0,2.58-34.4c-2.022-10.394-6.263-20.42-13.189-28.424-6.643-7.679-15.15-13.691-23.981-18.594a149.034,149.034,0,0,0-29.153-12.2,131.259,131.259,0,0,0-25.372-5.166,152.348,152.348,0,0,0-25.795-.288,160.783,160.783,0,0,0-26.775,4.192,132.256,132.256,0,0,0-25.268,8.874,94.746,94.746,0,0,0-21.376,13.715A64.012,64.012,0,0,0,158.4,220.155a53.366,53.366,0,0,0-4.2,10.909.528.528,0,0,0,1.017.282Z" transform="translate(-61.53 -71.294)" fill="#42515a"/>
      <path id="Path_110509" data-name="Path 110509" d="M240.067,486.136c2.813,4.112,5.6,8.23,8.531,12.257,2.519,3.469,4.946,7.25,8.335,9.947,5.025,4,11.46,6.435,17.7,7.722a37.1,37.1,0,0,0,14.537.386c.889-.165.662-1.544-.215-1.551-7.826,0-15.64-.968-22.859-4.149a34.6,34.6,0,0,1-7.183-4.1,28.046,28.046,0,0,1-3.628-3.542c-1.41-1.624-2.678-3.365-3.971-5.08-3.266-4.339-6.649-8.58-10.038-12.821-.539-.686-1.7.208-1.226.932Z" transform="translate(-95.3 -191.614)" fill="#42515a"/>
      <path id="Path_110510" data-name="Path 110510" d="M98.705,434.02c1.728,5.81,3.365,11.681,5.65,17.3a60.881,60.881,0,0,0,7.967,13.942A39.058,39.058,0,0,0,118.5,472c.276.221.784-.08.539-.417-1.563-2.1-3.242-4.106-4.768-6.239a66.7,66.7,0,0,1-4.21-6.7A89.839,89.839,0,0,1,103.62,443.4c-1.079-3.285-2.249-6.539-3.4-9.806-.337-.944-1.839-.564-1.526.423Z" transform="translate(-40.601 -171.519)" fill="#42515a"/>
      <path id="Path_110511" data-name="Path 110511" d="M96.128,370.244a33.665,33.665,0,0,1-.668-9.193,85.449,85.449,0,0,1,1.434-12.8c1.839-9.891,4.86-19.734,10.051-28.405A51.626,51.626,0,0,1,117.2,307.544c.552-.478-.172-1.428-.784-1.017a36.348,36.348,0,0,0-9.94,10.657,72.362,72.362,0,0,0-6.944,14.028,94.152,94.152,0,0,0-5.988,28.51,37.868,37.868,0,0,0,.717,11.031.955.955,0,0,0,1.839-.515Z" transform="translate(-38.587 -122.494)" fill="#42515a"/>
      <path id="Path_110512" data-name="Path 110512" d="M532.734,422.163c-.355,1.679-.882,3.3-1.287,4.97-.368,1.52-.791,3.064-1.183,4.553a73.257,73.257,0,0,1-2.764,8.457,114.049,114.049,0,0,1-7.746,15.511c-1.875,3.193-4.026,6.22-5.779,9.481-.245.466.386,1.017.766.613a88.3,88.3,0,0,0,5.926-8.028c1.759-2.543,3.42-5.123,4.933-7.814a69.59,69.59,0,0,0,6.741-16.5,49.459,49.459,0,0,0,1.054-5.166c.3-1.943.362-3.9.5-5.859a.613.613,0,0,0-1.158-.159Z" transform="translate(-201.373 -167.188)" fill="#42515a"/>
      <path id="Path_110513" data-name="Path 110513" d="M304.408,560.964c3.99.386,8,.735,12.012.821,3.885.086,7.783,0,11.644-.208a178.767,178.767,0,0,0,23.2-2.635A158.333,158.333,0,0,0,395.042,544.3q5.84-2.972,11.381-6.466a72.465,72.465,0,0,0,10.688-7.826.791.791,0,0,0-.956-1.226c-3.328,2.029-6.508,4.29-9.806,6.386s-6.594,4.014-10,5.841a149.89,149.89,0,0,1-20.9,9.229,169.394,169.394,0,0,1-44.811,9.193q-6.466.453-12.937.454c-4.437,0-8.868.061-13.311-.1-.8-.031-.766,1.14,0,1.226Z" transform="translate(-120.026 -208.546)" fill="#42515a"/>
      <path id="Path_110514" data-name="Path 110514" d="M79.82,348.29c0-31.69,17.773-61.554,46.423-83.01" transform="translate(-33.311 -106.565)" fill="none" stroke="#42515a" stroke-linecap="round" stroke-miterlimit="10" stroke-width="4.92"/>
      <path id="Path_110515" data-name="Path 110515" d="M376.441,394.45c.147,2.139.221,4.29.221,6.472,0,64.962-54.642,117.667-148.2,117.667-75.117-.006-138.706-41.11-147.133-103.81" transform="translate(-33.895 -156.573)" fill="none" stroke="#42515a" stroke-linecap="round" stroke-miterlimit="10" stroke-width="4.92"/>
      <path id="Path_110516" data-name="Path 110516" d="M494.77,271.16a123.183,123.183,0,0,1,25.66,28.332" transform="translate(-193.959 -108.841)" fill="none" stroke="#42515a" stroke-miterlimit="10" stroke-width="4.92"/>
      <path id="Path_110517" data-name="Path 110517" d="M145.441,245.938V183.85H58" transform="translate(-24.863 -75.039)" fill="none" stroke="#ffc000" stroke-linecap="round" stroke-miterlimit="10" stroke-width="5"/>
      <path id="Path_110518" data-name="Path 110518" d="M276.869,221.416V110.08H200.68" transform="translate(-80.102 -46.479)" fill="none" stroke="#ffc000" stroke-linecap="round" stroke-miterlimit="10" stroke-width="5"/>
      <circle id="Ellipse_267" data-name="Ellipse 267" cx="17.374" cy="17.374" r="17.374" transform="translate(84.457 46.227)" fill="#42515a" stroke="#ffc000" stroke-miterlimit="10" stroke-width="5"/>
      <path id="Path_110519" data-name="Path 110519" d="M394.13,190.489V92.74h92.8" transform="translate(-154.996 -39.765)" fill="none" stroke="#ffc000" stroke-linecap="round" stroke-miterlimit="10" stroke-width="5"/>
      <circle id="Ellipse_268" data-name="Ellipse 268" cx="17.374" cy="17.374" r="17.374" transform="translate(297.507 35.6)" fill="#42515a" stroke="#ffc000" stroke-miterlimit="10" stroke-width="4"/>
      <path id="Path_110520" data-name="Path 110520" d="M343.9,155.19V35.36h63.9" transform="translate(-135.55 -17.551)" fill="none" stroke="#ffc000" stroke-linecap="round" stroke-miterlimit="10" stroke-width="5"/>
      <circle id="Ellipse_269" data-name="Ellipse 269" cx="17.374" cy="17.374" r="17.374" transform="translate(251.495)" fill="#42515a" stroke="#ffc000" stroke-miterlimit="10" stroke-width="5"/>
      <path id="Path_110521" data-name="Path 110521" d="M445.81,290.129V235.42h86.638" transform="translate(-175.004 -95.004)" fill="none" stroke="#ffc000" stroke-linecap="round" stroke-miterlimit="10" stroke-width="5"/>
      <circle id="Ellipse_270" data-name="Ellipse 270" cx="17.374" cy="17.374" r="17.374" transform="translate(8.709 90.371)" fill="#42515a" stroke="#ffc000" stroke-miterlimit="10" stroke-width="4"/>
      <circle id="Ellipse_271" data-name="Ellipse 271" cx="17.374" cy="17.374" r="17.374" transform="translate(332.231 120.4)" fill="#42515a" stroke="#ffc000" stroke-miterlimit="10" stroke-width="5"/>
    </g>
    <g id="Layer_15" data-name="Layer 15" transform="translate(11.66 6.306)">
      <path id="Path_110522" data-name="Path 110522" d="M581.364,229.97a1.386,1.386,0,0,0,0-2.77A1.386,1.386,0,0,0,581.364,229.97Z" transform="translate(-234.696 -91.828)" fill="#fff"/>
      <path id="Path_110523" data-name="Path 110523" d="M503.623,70.121a15.756,15.756,0,0,1,1.606.135h-.1l.4.061.582.1a22.13,22.13,0,0,1,2.948.76c.466.159.925.331,1.385.515.27.11.239.1-.08-.037l.368.165c.208.092.417.2.613.294a25.744,25.744,0,0,1,2.739,1.569,2.605,2.605,0,1,0,2.629-4.5,26.726,26.726,0,0,0-13.1-4.29A2.617,2.617,0,0,0,501,67.517a2.654,2.654,0,0,0,2.6,2.6Z" transform="translate(-204.102 -28.993)" fill="#f0f2f3"/>
      <path id="Path_110524" data-name="Path 110524" d="M521.713,96.769a22.374,22.374,0,0,0-4.4-13.734,36.974,36.974,0,0,0-10.878-9.291c-2.237-1.336-4.56-2.531-6.907-3.677a2.605,2.605,0,0,0-2.629,4.5,68.993,68.993,0,0,1,11.411,6.686c-.411-.306.037.037.2.165l.552.453q.662.552,1.287,1.14a25.431,25.431,0,0,1,2.133,2.243c.172.2.337.411.5.613-.325-.411,0,0,.129.184.325.454.613.919.932,1.4a9.281,9.281,0,0,1,.674,1.226c.123.233.239.472.356.711l.159.368c-.141-.313-.1-.251,0,0a20.047,20.047,0,0,1,1,3.469l.074.423c0,.074.1.674.049.294s0,.037,0,.086c0,.221.049.441.067.662.055.686.067,1.373.061,2.059a2.6,2.6,0,1,0,5.209,0Z" transform="translate(-202.029 -30.869)" fill="#f0f2f3"/>
      <path id="Path_110525" data-name="Path 110525" d="M491.844,83.108l.729.282.306.123c-.031,0-.392-.165-.116-.043.5.221.993.435,1.483.674.858.417,1.7.87,2.519,1.354s1.63,1.023,2.408,1.593c.116.086.674.527.2.147.159.123.319.245.472.374.386.319.766.65,1.134.987a24.015,24.015,0,0,1,1.9,1.912c.306.343.613.7.889,1.054-.288-.343-.074-.086.067.1s.313.423.46.643a24.128,24.128,0,0,1,1.459,2.372c.2.386.4.772.613,1.171.086.184.172.368.251.552.037.08.208.478.074.159s.037.1.061.159a29.786,29.786,0,0,1,1.734,6.5,2.638,2.638,0,0,0,3.205,1.839,2.71,2.71,0,0,0,1.839-3.205A28.485,28.485,0,0,0,500.087,81.4a38.829,38.829,0,0,0-6.79-3.3,2.613,2.613,0,0,0-3.205,1.839,2.684,2.684,0,0,0,1.839,3.205Z" transform="translate(-199.849 -34.056)" fill="#f0f2f3"/>
      <path id="Path_110526" data-name="Path 110526" d="M488.444,94.359c.674.355,1.342.735,1.986,1.146.306.19.613.392.9.613a3.628,3.628,0,0,1,.95.686c-.141-.227-.282-.221,0,0,.153.116.3.239.447.368.263.227.527.46.784.7a21.584,21.584,0,0,1,1.508,1.581c.1.123.2.245.3.362.417.5-.325-.447.055.074.208.282.411.564.613.852a17.286,17.286,0,0,1,1.091,1.912c.086.172.165.349.251.521.214.447-.11-.294,0,0s.264.68.38,1.023a21.1,21.1,0,0,1,.613,2.372,2.611,2.611,0,0,0,3.2,1.839,2.654,2.654,0,0,0,1.839-3.2c-1.385-6.864-6.22-12.1-12.257-15.321a2.605,2.605,0,0,0-2.629,4.5Z" transform="translate(-198.753 -38.528)" fill="#f0f2f3"/>
      <path id="Path_110527" data-name="Path 110527" d="M20.5,176.023a81.57,81.57,0,0,1,3.432-9.609,59.03,59.03,0,0,1,5.148-9.107,1.992,1.992,0,1,0-3.438-2.01,58.626,58.626,0,0,0-5.264,9.322,89.758,89.758,0,0,0-3.738,10.339c-.748,2.451,3.1,3.512,3.843,1.06Z" transform="translate(-16.544 -63.608)" fill="#f0f2f3"/>
      <path id="Path_110528" data-name="Path 110528" d="M40.34,154.9c-8.09,6.276-15.683,13.238-20.806,22.222-1.275,2.231,2.169,4.241,3.438,2.01,4.952-8.678,12.355-15.321,20.187-21.413a2,2,0,0,0,0-2.819A2.046,2.046,0,0,0,40.34,154.9Z" transform="translate(-17.594 -63.619)" fill="#f0f2f3"/>
      <path id="Path_110529" data-name="Path 110529" d="M29.167,184.793c1.839-8.206,6.128-15.413,11.693-21.615,1.649-1.839,3.4-3.573,5.191-5.264a1.992,1.992,0,0,0-2.819-2.813c-6.49,6.1-12.19,13.072-15.621,21.364a43.752,43.752,0,0,0-2.286,7.274,1.992,1.992,0,1,0,3.843,1.054Z" transform="translate(-19.916 -63.7)" fill="#f0f2f3"/>
      <path id="Path_110530" data-name="Path 110530" d="M52.24,178.885c.11-.362.257-.7.38-1.06-.165.49-.055.135,0,0l.116-.257c.08-.165.165-.331.251-.5.178-.331.368-.656.57-.968.116-.172.227-.343.349-.509l.135-.184c.233-.325-.276.331,0,0a14.852,14.852,0,0,1,1.538-1.63,3.139,3.139,0,0,0,.46-.533c.141-.19-.043.061-.092.11.141-.153.257-.319.392-.472a3.334,3.334,0,0,0,.778-1.41,1.226,1.226,0,0,0-.858-1.514c-2.249-.362-3.916,1.581-5.136,3.2a14.6,14.6,0,0,0-2.341,4.719,1.81,1.81,0,0,0,3.481.993Z" transform="translate(-29.003 -69.651)" fill="#f0f2f3"/>
      <circle id="Ellipse_272" data-name="Ellipse 272" cx="17.374" cy="17.374" r="17.374" transform="translate(0.978 90.364)" fill="none" stroke="#ffc000" stroke-miterlimit="10" stroke-width="5"/>
      <circle id="Ellipse_273" data-name="Ellipse 273" cx="17.374" cy="17.374" r="17.374" transform="translate(243.764)" fill="none" stroke="#ffc000" stroke-miterlimit="10" stroke-width="5"/>
      <path id="Path_110531" data-name="Path 110531" d="M431.579,23.157a6.668,6.668,0,0,1,1.747-.037l-.386-.055a4.559,4.559,0,0,1,1.054.288l-.374-.153c.276.123.564.221.84.337l-.368-.153a4.511,4.511,0,0,0,1.728.643,1.416,1.416,0,0,0,1.348-1.777,2.758,2.758,0,0,0-1.489-1.526,4.119,4.119,0,0,0-.833-.343,5.865,5.865,0,0,0-.913-.135,7.213,7.213,0,0,0-2.7.4,1.281,1.281,0,0,0-.913,1.4,1.26,1.26,0,0,0,1.256,1.109Z" transform="translate(-176.735 -11.703)" fill="#f0f2f3"/>
      <path id="Path_110532" data-name="Path 110532" d="M445.739,28.209a1.26,1.26,0,0,0,0-2.519A1.26,1.26,0,0,0,445.739,28.209Z" transform="translate(-182.235 -13.813)" fill="#f0f2f3"/>
      <path id="Path_110533" data-name="Path 110533" d="M532.713,83.913c.123.147.564.7.239.264.159.221.325.441.478.668a14.5,14.5,0,0,1,.84,1.428q.2.38.368.754c.116.264.049.159,0-.049.043.135.1.264.147.392a13.9,13.9,0,0,1,.5,1.7c.061.276.1.552.159.821.086.374-.037-.454,0-.074,0,.141.031.282.043.417a12.649,12.649,0,0,1,0,1.667c0,.141,0,.282,0,.417s-.074.521,0,.172,0,.11-.037.172a2.744,2.744,0,0,0-.086.411,11.178,11.178,0,0,1-.545,1.716A2.613,2.613,0,0,0,536.66,98a2.684,2.684,0,0,0,3.205-1.839c2.182-5.43.294-11.644-3.4-15.934a2.617,2.617,0,0,0-3.677,0,2.672,2.672,0,0,0,0,3.677Z" transform="translate(-216.124 -34.633)" fill="#f0f2f3"/>
      <circle id="Ellipse_274" data-name="Ellipse 274" cx="17.374" cy="17.374" r="17.374" transform="translate(289.777 35.594)" fill="none" stroke="#ffc000" stroke-miterlimit="10" stroke-width="5"/>
      <path id="Path_110534" data-name="Path 110534" d="M577.041,251.425c1.226-.49,1.906-1.937,2.378-3.119a14.417,14.417,0,0,0,.895-3.107,21.889,21.889,0,0,0,.319-3.579,11.385,11.385,0,0,0-.582-3.45,1.189,1.189,0,0,0-2.274,0,13.592,13.592,0,0,0-.545,1.544,13.308,13.308,0,0,0-.257,1.7c-.1.815-.2,1.924-.343,2.77a23.45,23.45,0,0,1-.613,2.972c-.306,1.048-.889,2.188-.717,3.279a1.416,1.416,0,0,0,1.74.987Z" transform="translate(-232.856 -95.749)" fill="#f0f2f3"/>
      <path id="Path_110535" data-name="Path 110535" d="M569.516,235.6c.165-.325.294-.674.484-.987a6.171,6.171,0,0,0,.545-1.011,7.3,7.3,0,0,0,.429-2.176,5.165,5.165,0,0,0-.239-2.188c-.27-.656-.57-1.293-.889-1.93s-1.593-.576-1.71.227c-.086.57-.178,1.14-.3,1.7a8.9,8.9,0,0,0-.122,2.059v1.783c0,.306.061.613.043.925,0-.116-.043.214-.049.227-.049.184-.1.362-.159.539a1.083,1.083,0,0,0,1.973.827Z" transform="translate(-229.847 -91.702)" fill="#f0f2f3"/>
      <circle id="Ellipse_275" data-name="Ellipse 275" cx="17.374" cy="17.374" r="17.374" transform="translate(324.501 120.394)" fill="none" stroke="#ffc000" stroke-miterlimit="10" stroke-width="5"/>
    </g>
  </g>
</svg>
