<svg xmlns="http://www.w3.org/2000/svg" id="Layer_1" data-name="Layer 1" viewBox="0 0 250 250"><defs><style>.cls-2{fill:#42515a}</style></defs><path d="M203.17 62.16H50.92V199h152.25Zm-13.67 38.52v33.76a6.92 6.92 0 1 1-13.83 0v-17.25l-40.34 40.35a6.9 6.9 0 0 1-9.76 0L105 137l-28.6 28.6a6.92 6.92 0 0 1-9.78-9.79l33.48-33.48a6.93 6.93 0 0 1 9.78 0l.31.34 20.25 20.25 35.44-35.46h-17.25a6.92 6.92 0 0 1 0-13.83h34.5a7 7 0 0 1 6.4 6.88Z" style="fill:none"/><path d="M202.53 205.54h.17a6.32 6.32 0 0 0 6.3-6.33V62a6.32 6.32 0 0 0-6.3-6.33H51.36a6.32 6.32 0 0 0-6.3 6.33v137.21a6.32 6.32 0 0 0 6.3 6.33ZM57.68 68.25H196.4v124.66H57.68Z" class="cls-2"/><path d="M172.78 100.41h-28.1a5.64 5.64 0 1 0 0 11.28h14.05l-28.93 28.92-16.53-16.52-.25-.28a5.67 5.67 0 0 0-8 0l-27.3 27.32a5.64 5.64 0 0 0 8 8L109 135.78l16.8 16.79a5.61 5.61 0 0 0 8 0l32.92-32.91v14.07a5.64 5.64 0 0 0 11.28 0V106a5.69 5.69 0 0 0-5.22-5.59" class="cls-2"/></svg>