<svg xmlns="http://www.w3.org/2000/svg" width="61.851" height="64.617"><path fill="#4AACD7" d="M61.787 37.924 54.76 11.999a1.863 1.863 0 0 0-2.28-1.307l-1.281.346-20.212 5.446-.025-.1-4.06-15.012A1.863 1.863 0 0 0 24.631.057L1.369 6.397A1.86 1.86 0 0 0 .062 8.684l4.584 16.9 6.585 24.287-8.188 2.24.971 3.547 17.083-4.674-6.532 6.539 2.459 2.459 5.818-5.826v10.45h3.481V54.17l5.826 5.826 2.451-2.459-8.028-8.037 12.874-3.522 2.671 9.973 3.358-.907-2.133-7.95 9.053 5.221 1.74-3.007-8.7-5.024 15.038-4.078a1.86 1.86 0 0 0 1.314-2.282M25.117 8.935l-8.015 2.206-3.62.98-8.04 2.182-1.307-4.821L23.81 4.114Zm4.657 17.117-8.064 2.206-1.34-5.033 1.129-.306 6.911-1.875 1.355 4.973Zm-5.935 5.481 6.891-1.861 1.378 5.092.011.039-8.04 2.157-1.4-5.115Zm-4.458-11.895-1.332-4.9 8.04-2.19 1.332 4.9Zm-1.258 9.568-6.9 1.872-1.141.31-1.356-5.009 8.04-2.182v.007Zm3.342 12.329 1.356 4.992-6.9 1.872-1.14.31-1.356-5.009 1.565-.422Zm12.339-.539.168.621.018.066.454 1.679v.011l-8.04 2.182-.082-.3-1.275-4.707 1.148-.311.127-.034 1.945-.528 3.343-.907 1.478-.4.4 1.486Zm8.725-18.394-4.664 1.263-.01-.035-4.488 1.212-1.354-4.972 9.153-2.486 10.489-2.849 1.363 5.026Zm-28.042-6.894 1.332 4.9-8.04 2.182-1.332-4.9Zm-2.292 18.983 6.9-1.865 1.391 5.109.006.022-8.04 2.182-1.4-5.139Zm37.456 4.561-11.609 3.15v-.013l-.205-.771-1.123-4.224 6.929-1.879-.972-3.587-2.44.662h-.011v-.006l-4.478 1.214-.008-.033-1.379-5.1 9.153-2.478 10.488-2.84L57.71 37.07Z" data-name="Path 110476"/></svg>