<svg xmlns="http://www.w3.org/2000/svg" width="51.924" height="48.092"><path fill="#4AACD7" d="M50.059 17.518h-22.24V1.863A1.86 1.86 0 0 0 25.964 0H1.859A1.863 1.863 0 0 0-.004 1.863v44.366a1.863 1.863 0 0 0 1.863 1.863h48.21a1.864 1.864 0 0 0 1.855-1.863V19.385a1.863 1.863 0 0 0-1.865-1.867M3.715 12.436h8.334v5.082H3.715Zm8.334 31.939H3.715v-5.19h8.334Zm0-8.906H3.715V30.15h8.334Zm.025-9.037H3.715v-5.2l8.359.008Zm12.068 17.943h-8.373v-5.19h8.375Zm0-8.906h-8.373V30.15h8.375Zm0-9.045h-8.373v-5.189h8.375Zm0-8.906h-8.373v-5.082h8.375Zm0-8.808H3.718V3.718h20.426Zm3.677 12.526h20.386v5.188H27.821Zm-.041 23.139v-5.19h7.181v-3.718h-7.14v-5.319h20.386v14.225Z" data-name="Path 110471"/></svg>