<svg id="Layer_1" data-name="Layer 1" xmlns="http://www.w3.org/2000/svg" viewBox="0 0 5778.3 557.6"><defs><style>.cls-1{fill:#fff;stroke:#fff;stroke-miterlimit:10;}.cls-2{fill:#4aacd7;}</style></defs><path class="cls-1" d="M1967.1,343.6c1.3-.7,1.7-1.9,2.2-3.2s1.3-3,1.8-4.4,1.9-5.3,2.7-8a136.9,136.9,0,0,0,3.7-16.6c2-11.3,3.2-22.7,5-34,1-6.4,2.6-12.9,2.9-19.4.1-2-3.1-3-3.9-1-2.4,5.2-3.2,11-4.2,16.6s-1.8,11.3-2.6,17c-1.6,11.1-3.2,22.2-5.7,33.2-.8,3.2-1.4,6.4-2.2,9.5-.4,1.5-.7,3-1.2,4.5s-1.2,3.3-.7,5a1.6,1.6,0,0,0,1.9,1h.3Z" transform="translate(-32.6 -17.9)"/><path class="cls-1" d="M1982,258.4c.3,9.1,1.5,18.2,2.7,27.3l3.6,27c2.3,17.6,4.8,35.2,8.7,52.5,1.1,4.8,2.3,9.6,3.6,14.3s2.6,10,4.7,14.5c1.4,2.7,5.4.7,4.8-2s-2.7-8.4-3.9-12.5-2.4-8.4-3.4-12.7c-2.1-8.5-3.9-17.2-5.4-25.8-3-17.5-5.1-35-7.5-52.5-1.4-10.2-2.6-20.6-5-30.6a1.5,1.5,0,0,0-1.8-1,1.6,1.6,0,0,0-1.1,1.4Z" transform="translate(-32.6 -17.9)"/><path class="cls-1" d="M2010.8,392.6c2.6-9.2,4.7-18.6,6.9-28,1-4.6,2.2-9.2,3.3-13.8.7-2.3,1.3-4.7,1.9-7.1l.9-3.3c.3-1.2.9-2.6.4-3.9s-1.7-1.9-2.7-1.1-2.2,4.5-2.8,6.7-1.2,4.7-1.8,7.1c-1.2,4.7-2.3,9.5-3.4,14.3a232.3,232.3,0,0,0-4.8,28.9c-.1,1.1,1.8,1.3,2,.2Z" transform="translate(-32.6 -17.9)"/><path class="cls-1" d="M2021.4,337.3c4.2,5.3,10.4,8.2,15.8,12.2a41.5,41.5,0,0,1,7,6.9c2.1,2.6,3.7,5.5,5.6,8.3s6.1.3,4.5-2.6a59.6,59.6,0,0,0-6.2-8.7,41.5,41.5,0,0,0-7.8-7.3c-5.5-4-11.8-6.9-17.3-10.9-1.3-.9-2.4,1-1.6,2.1Z" transform="translate(-32.6 -17.9)"/><path class="cls-1" d="M2055.1,365.3c1.9-36.3,2.1-72.6,3.6-108.9s3.7-72.6,7.2-108.7c1.9-20.3,4.7-40.4,6.4-60.7.1-1.7-2.7-2.1-3-.4-3.6,18-5.4,36.3-7.2,54.5s-3.4,36.2-4.6,54.3c-2.5,36.2-4,72.5-4.9,108.8-.5,20.4-.8,40.7-.2,61.1a1.3,1.3,0,0,0,1.3,1.3A1.3,1.3,0,0,0,2055.1,365.3Z" transform="translate(-32.6 -17.9)"/><path class="cls-1" d="M2068.9,87.4c.2,12.9,1.2,25.8,1.9,38.7l2.2,38.7,4.2,76.6c2.7,50.4,4.5,100.8,8.8,151a832,832,0,0,0,11.3,84.7c.7,3.6,6.2,2.1,5.5-1.5-10.1-49.4-13.6-99.8-16.7-150.1s-6.2-101.5-9.1-152.2l-2.5-42.6c-.8-14.4-1.3-29-2.7-43.3a1.5,1.5,0,0,0-2.9,0Z" transform="translate(-32.6 -17.9)"/><path class="cls-1" d="M2101.9,478.4c1.7-4.6,2.5-9.6,3.6-14.4l3-14.5c1.8-9.6,3.5-19.3,5-29.1q4.5-29.1,7.8-58.4c1.2-11,2.2-22,3.2-33a2.5,2.5,0,0,0-4.9,0c-1.5,19.5-3.5,38.9-6,58.4s-5.5,38.6-8.8,57.8c-.9,5.4-1.9,10.8-2.8,16.3s-2.2,10.9-2.5,16.5c-.1,1.5,2,1.5,2.4.3Z" transform="translate(-32.6 -17.9)"/><path class="cls-1" d="M2120.6,328.4a10.4,10.4,0,0,0,1,4.2c.5,1.5,1.1,2.9,1.7,4.3s2.3,5.7,3.4,8.5c2.2,5.8,4.3,11.7,6.1,17.6a260.8,260.8,0,0,1,8.3,36c1.1,6.8,1.8,13.5,2.3,20.4a2.4,2.4,0,0,0,2.4,2.3,2.3,2.3,0,0,0,2.4-2.3,253.6,253.6,0,0,0-16.4-73.5c-1.3-3.3-2.7-6.6-4.1-9.8-.7-1.6-1.4-3.1-2.2-4.6a12.7,12.7,0,0,0-3.1-4.2c-.8-.6-1.8.2-1.8,1.1Z" transform="translate(-32.6 -17.9)"/><path class="cls-1" d="M2147.4,421c1.5-5.1,2.9-10.2,4.2-15.4l3.6-15.3c2.3-10.2,4.7-20.3,7.4-30.3,1.6-5.7,3.4-11.3,5.1-17,.9-3.1-3.8-4.3-4.8-1.3a308.9,308.9,0,0,0-8.6,30.3c-2.4,10.1-4.7,20.2-6.7,30.5q-1.7,8.7-3,17.7a1.4,1.4,0,0,0,2.8.7Z" transform="translate(-32.6 -17.9)"/><path class="cls-1" d="M2167.1,345.1c18.1,1.2,36.3.8,54.4.8s36.2.1,54.3,0c36,0,72.1-.2,108.1-.4l60.8-.6c3.8,0,3.8-5.8,0-5.8-36.1,0-72.3.2-108.5.4s-72,.3-108.1.2h-30.5c-10.2-.1-20.3-.2-30.5.2a2.7,2.7,0,0,0-2.4,2.8,2.6,2.6,0,0,0,2.4,2.5Z" transform="translate(-32.6 -17.9)"/><path class="cls-1" d="M2447.3,343.6c1.3-.7,1.7-1.9,2.3-3.2l1.8-4.4c1-2.7,1.9-5.3,2.7-8a158.4,158.4,0,0,0,3.6-16.6c2-11.3,3.2-22.7,5-34,1-6.4,2.6-12.9,2.9-19.4.1-2-3.1-3-3.9-1-2.4,5.2-3.2,11-4.2,16.6s-1.8,11.3-2.6,17c-1.6,11.1-3.3,22.2-5.7,33.2-.8,3.2-1.4,6.4-2.2,9.5-.4,1.5-.7,3-1.2,4.5s-1.2,3.3-.7,5a1.6,1.6,0,0,0,1.9,1h.3Z" transform="translate(-32.6 -17.9)"/><path class="cls-1" d="M2462.2,258.4c.3,9.1,1.5,18.2,2.7,27.3s2.4,18,3.6,27c2.3,17.6,4.8,35.2,8.7,52.5,1.1,4.8,2.3,9.6,3.6,14.3s2.5,10,4.7,14.5c1.4,2.7,5.4.7,4.8-2s-2.7-8.4-3.9-12.5-2.4-8.4-3.4-12.7c-2.1-8.5-3.9-17.2-5.4-25.8-2.9-17.5-5.1-35-7.5-52.5-1.4-10.2-2.6-20.6-5-30.6a1.4,1.4,0,0,0-1.8-1,1.5,1.5,0,0,0-1.1,1.4Z" transform="translate(-32.6 -17.9)"/><path class="cls-1" d="M2491,392.6c2.6-9.2,4.7-18.6,6.9-28,1-4.6,2.2-9.2,3.3-13.8.6-2.3,1.3-4.7,1.9-7.1l.9-3.3c.3-1.2.9-2.6.4-3.9s-1.7-1.9-2.7-1.1-2.2,4.5-2.8,6.7-1.2,4.7-1.8,7.1c-1.2,4.7-2.3,9.5-3.4,14.3a232.3,232.3,0,0,0-4.8,28.9c-.1,1.1,1.8,1.3,2,.2Z" transform="translate(-32.6 -17.9)"/><path class="cls-1" d="M2501.6,337.3c4.2,5.3,10.4,8.2,15.8,12.2a41.5,41.5,0,0,1,7,6.9c2.1,2.6,3.7,5.5,5.6,8.3s6.1.3,4.5-2.6a59.6,59.6,0,0,0-6.2-8.7,38.1,38.1,0,0,0-7.7-7.3c-5.5-4-11.8-6.9-17.3-10.9-1.3-.9-2.5,1-1.6,2.1Z" transform="translate(-32.6 -17.9)"/><path class="cls-1" d="M2535.3,365.3c1.9-36.3,2.1-72.6,3.6-108.9s3.7-72.6,7.2-108.7c1.9-20.3,4.7-40.4,6.4-60.7.1-1.7-2.7-2.1-3-.4-3.6,18-5.4,36.3-7.2,54.5s-3.3,36.2-4.5,54.3c-2.5,36.2-4,72.5-4.9,108.8-.6,20.4-.8,40.7-.3,61.1a1.3,1.3,0,0,0,1.4,1.3,1.3,1.3,0,0,0,1.3-1.3Z" transform="translate(-32.6 -17.9)"/><path class="cls-1" d="M2549.1,87.4c.2,12.9,1.2,25.8,1.9,38.7l2.2,38.7,4.2,76.6c2.7,50.4,4.5,100.8,8.8,151a805,805,0,0,0,11.4,84.7c.7,3.6,6.2,2.1,5.4-1.5-10-49.5-13.6-99.8-16.7-150.1s-6.1-101.5-9.1-152.2l-2.4-42.6c-.9-14.4-1.3-29-2.8-43.4-.2-1.8-2.9-1.9-2.9,0Z" transform="translate(-32.6 -17.9)"/><path class="cls-1" d="M2582.1,478.4c1.7-4.6,2.5-9.6,3.6-14.4l3-14.5c1.8-9.6,3.5-19.3,5-29.1q4.5-29.1,7.8-58.4c1.2-11,2.2-22,3.1-33a2.4,2.4,0,0,0-2.4-2.4,2.5,2.5,0,0,0-2.4,2.4c-1.5,19.5-3.6,39-6,58.4s-5.5,38.7-8.8,57.9c-.9,5.4-1.9,10.8-2.8,16.3s-2.2,10.9-2.5,16.5c-.1,1.4,2,1.5,2.4.3Z" transform="translate(-32.6 -17.9)"/><path class="cls-1" d="M2600.8,328.4a10.4,10.4,0,0,0,1,4.2c.5,1.5,1.1,2.9,1.7,4.3s2.3,5.7,3.4,8.5c2.2,5.8,4.3,11.7,6.1,17.6a260.8,260.8,0,0,1,8.3,36c1.1,6.8,1.8,13.5,2.3,20.4a2.4,2.4,0,0,0,2.4,2.3,2.3,2.3,0,0,0,2.4-2.3,253.6,253.6,0,0,0-16.4-73.5c-1.3-3.3-2.7-6.6-4.1-9.8-.7-1.6-1.4-3.1-2.2-4.6a11.4,11.4,0,0,0-3.1-4.1c-.8-.6-1.7.2-1.8,1Z" transform="translate(-32.6 -17.9)"/><path class="cls-1" d="M2627.6,421c1.5-5.1,2.9-10.2,4.2-15.4s2.4-10.2,3.6-15.3c2.3-10.2,4.7-20.3,7.4-30.3,1.6-5.7,3.4-11.3,5.1-17,.9-3.1-3.8-4.3-4.8-1.3a308.9,308.9,0,0,0-8.6,30.3c-2.4,10.1-4.7,20.2-6.7,30.5q-1.7,8.7-3,17.7a1.4,1.4,0,0,0,2.8.7Z" transform="translate(-32.6 -17.9)"/><path class="cls-1" d="M2647.3,345.1c18.1,1.2,36.3.8,54.4.8s36.2.1,54.3,0c36.1,0,72.1-.2,108.2-.4l60.8-.6c3.7,0,3.7-5.8,0-5.8-36.2,0-72.4.2-108.5.4s-72.1.3-108.2.2h-30.5c-10.1-.1-20.3-.2-30.5.2a2.7,2.7,0,0,0,0,5.3Z" transform="translate(-32.6 -17.9)"/><path class="cls-1" d="M2927.5,343.6c1.3-.7,1.7-1.9,2.2-3.2s1.3-3,1.8-4.4,1.9-5.3,2.7-8a136.9,136.9,0,0,0,3.7-16.6c2-11.3,3.2-22.7,5-34,1-6.4,2.6-12.9,2.9-19.4.1-2-3.1-3-3.9-1-2.3,5.2-3.2,11-4.2,16.6s-1.8,11.3-2.6,17c-1.6,11.1-3.2,22.2-5.7,33.2-.8,3.2-1.4,6.4-2.2,9.5-.4,1.5-.7,3-1.1,4.5s-1.3,3.3-.8,5a1.6,1.6,0,0,0,1.9,1h.3Z" transform="translate(-32.6 -17.9)"/><path class="cls-1" d="M2942.4,258.4c.3,9.1,1.5,18.2,2.7,27.3l3.6,27c2.3,17.6,4.8,35.2,8.7,52.5,1.1,4.8,2.3,9.6,3.6,14.3s2.5,10,4.7,14.5c1.4,2.7,5.4.7,4.8-2s-2.7-8.4-3.9-12.5-2.4-8.4-3.4-12.7c-2.1-8.5-3.9-17.2-5.4-25.8-3-17.5-5.1-35-7.5-52.5-1.4-10.2-2.6-20.6-5-30.6a1.4,1.4,0,0,0-1.8-1,1.5,1.5,0,0,0-1.1,1.4Z" transform="translate(-32.6 -17.9)"/><path class="cls-1" d="M2971.2,392.6c2.6-9.2,4.7-18.6,6.9-28,1-4.6,2.2-9.2,3.3-13.8.6-2.3,1.3-4.7,1.9-7.1l.9-3.3c.3-1.2.9-2.6.4-3.9s-1.7-1.9-2.7-1.1-2.2,4.5-2.8,6.7-1.2,4.7-1.8,7.1c-1.2,4.7-2.3,9.5-3.4,14.3a235.4,235.4,0,0,0-4.8,28.9,1,1,0,0,0,2,.3Z" transform="translate(-32.6 -17.9)"/><path class="cls-1" d="M2981.8,337.3c4.2,5.3,10.4,8.2,15.7,12.2a35.2,35.2,0,0,1,7,6.9,93.8,93.8,0,0,1,5.7,8.3c1.9,2.7,6.1.3,4.5-2.6a53.5,53.5,0,0,0-6.3-8.7,38.1,38.1,0,0,0-7.7-7.3c-5.5-4-11.8-6.9-17.3-10.9-1.3-.9-2.4,1-1.6,2.1Z" transform="translate(-32.6 -17.9)"/><path class="cls-1" d="M3015.5,365.3c1.9-36.3,2.1-72.6,3.6-108.9s3.7-72.6,7.2-108.7c1.9-20.3,4.7-40.4,6.4-60.7.1-1.7-2.7-2.1-3-.4-3.6,18-5.4,36.3-7.2,54.5s-3.3,36.2-4.5,54.3c-2.5,36.2-4,72.5-4.9,108.8-.6,20.4-.8,40.7-.3,61.1a1.3,1.3,0,0,0,1.4,1.3,1.3,1.3,0,0,0,1.3-1.3Z" transform="translate(-32.6 -17.9)"/><path class="cls-1" d="M3029.3,87.4c.2,12.9,1.2,25.8,1.9,38.7l2.2,38.7,4.2,76.6c2.7,50.4,4.5,100.8,8.9,151a779.3,779.3,0,0,0,11.3,84.7c.7,3.6,6.2,2.1,5.4-1.5-10-49.5-13.6-99.8-16.7-150.1s-6.1-101.5-9.1-152.2l-2.4-42.6c-.9-14.4-1.3-29-2.8-43.4-.2-1.8-2.9-1.9-2.9,0Z" transform="translate(-32.6 -17.9)"/><path class="cls-1" d="M3062.3,478.4c1.8-4.6,2.6-9.6,3.6-14.4l3-14.5c1.8-9.6,3.5-19.3,5-29.1q4.7-29.1,7.8-58.4c1.2-11,2.3-22,3.2-33a2.4,2.4,0,0,0-4.8,0q-2.4,29.3-6.1,58.4c-2.5,19.4-5.5,38.7-8.8,57.9l-2.7,16.3c-1,5.4-2.3,10.9-2.6,16.5,0,1.4,2,1.5,2.4.3Z" transform="translate(-32.6 -17.9)"/><path class="cls-1" d="M3081,328.4a10.4,10.4,0,0,0,1,4.2c.5,1.5,1.1,2.9,1.7,4.3s2.3,5.7,3.4,8.5c2.2,5.8,4.3,11.7,6.1,17.6a260.8,260.8,0,0,1,8.3,36c1.1,6.8,1.8,13.5,2.3,20.4a2.4,2.4,0,0,0,2.4,2.3,2.3,2.3,0,0,0,2.4-2.3,253.6,253.6,0,0,0-16.4-73.5c-1.3-3.3-2.7-6.6-4.1-9.8-.7-1.6-1.4-3.1-2.2-4.6a12.7,12.7,0,0,0-3.1-4.2c-.8-.6-1.8.2-1.8,1.1Z" transform="translate(-32.6 -17.9)"/><path class="cls-1" d="M3107.8,421c1.5-5.1,2.9-10.2,4.2-15.4s2.4-10.2,3.5-15.3c2.4-10.2,4.8-20.3,7.5-30.3,1.6-5.7,3.4-11.3,5.1-17,.9-3.1-3.8-4.3-4.8-1.3a308.9,308.9,0,0,0-8.6,30.3c-2.4,10.1-4.7,20.2-6.7,30.5q-1.6,8.7-3,17.7a1.4,1.4,0,0,0,2.8.7Z" transform="translate(-32.6 -17.9)"/><path class="cls-1" d="M3127.5,345.1c18,1.2,36.3.8,54.4.8s36.2.1,54.3,0c36,0,72.1-.2,108.1-.4l60.8-.6c3.8,0,3.8-5.8,0-5.8-36.1,0-72.3.2-108.5.4s-72,.3-108.1.2H3158c-10.2-.1-20.3-.2-30.5.2a2.7,2.7,0,0,0-2.4,2.8,2.6,2.6,0,0,0,2.4,2.5Z" transform="translate(-32.6 -17.9)"/><path class="cls-1" d="M3407.7,343.6c1.3-.7,1.7-1.9,2.2-3.2s1.3-3,1.8-4.4,1.9-5.3,2.7-8a134.3,134.3,0,0,0,3.7-16.7c2-11.2,3.2-22.6,5-33.9,1-6.4,2.6-12.9,2.9-19.4.1-2-3.1-3-3.9-1.1-2.3,5.3-3.2,11-4.2,16.7s-1.8,11.3-2.6,16.9c-1.6,11.2-3.2,22.3-5.7,33.3-.8,3.2-1.4,6.3-2.2,9.5-.4,1.5-.7,3-1.2,4.5s-1.2,3.3-.7,4.9a1.6,1.6,0,0,0,1.9,1.1l.3-.2Z" transform="translate(-32.6 -17.9)"/><path class="cls-1" d="M3422.6,258.4c.3,9.1,1.5,18.2,2.7,27.3s2.4,18,3.6,27c2.3,17.6,4.8,35.2,8.7,52.5,1.1,4.8,2.3,9.6,3.6,14.3s2.5,10,4.7,14.5c1.4,2.7,5.4.7,4.8-2s-2.7-8.4-3.9-12.5-2.4-8.4-3.4-12.7c-2.1-8.5-3.9-17.2-5.4-25.8-3-17.5-5.1-35-7.5-52.5-1.4-10.2-2.6-20.6-5-30.6a1.4,1.4,0,0,0-1.8-1,1.5,1.5,0,0,0-1.1,1.4Z" transform="translate(-32.6 -17.9)"/><path class="cls-1" d="M3451.3,392.6c2.6-9.2,4.7-18.6,6.9-28,1.1-4.6,2.2-9.2,3.4-13.8.6-2.3,1.2-4.7,1.9-7.1s.5-2.2.8-3.3,1-2.6.5-3.9-1.7-1.9-2.8-1.1-2.2,4.5-2.7,6.7-1.3,4.7-1.9,7.1c-1.1,4.7-2.3,9.5-3.3,14.3a215.1,215.1,0,0,0-4.8,28.9C3449.2,393.5,3451.1,393.7,3451.3,392.6Z" transform="translate(-32.6 -17.9)"/><path class="cls-1" d="M3462,337.3c4.2,5.3,10.4,8.2,15.7,12.2a35.2,35.2,0,0,1,7,6.9,93.8,93.8,0,0,1,5.7,8.3c1.9,2.7,6.1.3,4.5-2.6a53.5,53.5,0,0,0-6.3-8.7,38.1,38.1,0,0,0-7.7-7.3c-5.5-4-11.8-6.9-17.3-10.9-1.3-.9-2.4,1-1.6,2.1Z" transform="translate(-32.6 -17.9)"/><path class="cls-1" d="M3495.7,365.3c1.9-36.3,2.1-72.6,3.6-108.9s3.7-72.6,7.2-108.7c1.9-20.3,4.7-40.4,6.3-60.7.2-1.7-2.6-2.1-3-.4-3.5,18-5.3,36.3-7.1,54.5s-3.3,36.2-4.5,54.3c-2.5,36.2-4,72.5-4.9,108.8-.6,20.4-.8,40.7-.3,61.1a1.4,1.4,0,0,0,1.5,1.2,1.5,1.5,0,0,0,1.2-1.2Z" transform="translate(-32.6 -17.9)"/><path class="cls-1" d="M3509.5,87.4c.2,12.9,1.2,25.8,1.9,38.7l2.2,38.7,4.2,76.6c2.7,50.4,4.5,100.8,8.8,151,2.5,28.4,5.9,56.7,11.4,84.7.7,3.6,6.2,2.1,5.4-1.5-10-49.5-13.6-99.8-16.7-150.1s-6.2-101.5-9.1-152.2l-2.4-42.6c-.9-14.4-1.3-29-2.8-43.4-.2-1.8-2.9-1.9-2.9,0Z" transform="translate(-32.6 -17.9)"/><path class="cls-1" d="M3542.5,478.4c1.7-4.6,2.5-9.6,3.6-14.4l3-14.5c1.8-9.6,3.4-19.3,5-29.1q4.5-29.1,7.8-58.4c1.2-11,2.2-22,3.2-33a2.5,2.5,0,0,0-2.4-2.4,2.4,2.4,0,0,0-2.4,2.4c-1.6,19.5-3.7,39-6.1,58.4s-5.5,38.7-8.8,57.9c-.9,5.4-1.8,10.8-2.8,16.3s-2.2,10.9-2.5,16.5c-.1,1.4,2,1.5,2.4.3Z" transform="translate(-32.6 -17.9)"/><path class="cls-1" d="M3561.2,328.4a10.4,10.4,0,0,0,1,4.2c.5,1.5,1.1,2.9,1.7,4.3s2.3,5.7,3.4,8.5c2.2,5.8,4.3,11.7,6.1,17.6a260.8,260.8,0,0,1,8.3,36,198.9,198.9,0,0,1,2.3,20.4,2.4,2.4,0,0,0,2.4,2.3,2.3,2.3,0,0,0,2.4-2.3,253.6,253.6,0,0,0-16.4-73.5c-1.3-3.3-2.7-6.6-4.1-9.8-.7-1.6-1.4-3.1-2.2-4.6a12.7,12.7,0,0,0-3.1-4.2c-.8-.6-1.8.2-1.8,1.1Z" transform="translate(-32.6 -17.9)"/><path class="cls-1" d="M3588,421c1.5-5.1,2.9-10.2,4.2-15.4s2.4-10.2,3.5-15.3c2.4-10.2,4.8-20.3,7.5-30.3,1.6-5.7,3.4-11.3,5.1-17,.9-3.1-3.8-4.3-4.8-1.3a308.9,308.9,0,0,0-8.6,30.3c-2.4,10.1-4.7,20.2-6.7,30.5q-1.6,8.7-3,17.7a1.4,1.4,0,0,0,2.8.7Z" transform="translate(-32.6 -17.9)"/><path class="cls-1" d="M3607.7,345.1c18.1,1.2,36.3.8,54.4.8s36.2.1,54.3,0c36,0,72.1-.2,108.1-.4l60.8-.6c3.8,0,3.8-5.8,0-5.8-36.1,0-72.3.2-108.5.4s-72,.3-108.1.2h-30.5c-10.2-.1-20.3-.2-30.5.2a2.8,2.8,0,0,0-2.5,2.8,2.8,2.8,0,0,0,2.5,2.5Z" transform="translate(-32.6 -17.9)"/><path class="cls-1" d="M3889.3,343.6c1.3-.7,1.7-1.9,2.3-3.2s1.2-3,1.8-4.4,1.8-5.3,2.6-8a136.9,136.9,0,0,0,3.7-16.6c2-11.3,3.2-22.7,5-34,1-6.4,2.6-12.9,2.9-19.4.1-2-3.1-3-3.9-1-2.3,5.2-3.2,11-4.2,16.6s-1.8,11.3-2.6,17c-1.6,11.1-3.2,22.2-5.7,33.2-.7,3.2-1.4,6.4-2.2,9.5-.3,1.5-.7,3-1.1,4.5s-1.3,3.3-.8,5a1.6,1.6,0,0,0,1.9,1h.3Z" transform="translate(-32.6 -17.9)"/><path class="cls-1" d="M3904.2,258.4c.3,9.1,1.6,18.2,2.7,27.3s2.4,18,3.6,27c2.3,17.6,4.8,35.2,8.7,52.5,1.1,4.8,2.3,9.6,3.6,14.3s2.6,10,4.8,14.5c1.3,2.7,5.3.7,4.7-2s-2.7-8.4-3.9-12.5-2.4-8.4-3.4-12.7c-2.1-8.5-3.9-17.2-5.3-25.8-3-17.5-5.2-35-7.6-52.5-1.4-10.2-2.6-20.6-5-30.6a1.4,1.4,0,0,0-1.8-1,1.6,1.6,0,0,0-1.1,1.4Z" transform="translate(-32.6 -17.9)"/><path class="cls-1" d="M3933,392.6c2.6-9.2,4.7-18.6,6.9-28,1-4.6,2.2-9.2,3.4-13.8l1.8-7.1.9-3.3c.3-1.2.9-2.6.4-3.9s-1.6-1.9-2.7-1.1-2.2,4.5-2.8,6.7-1.2,4.7-1.8,7.1c-1.2,4.7-2.3,9.5-3.4,14.3a214.9,214.9,0,0,0-4.7,28.9c-.1,1.1,1.7,1.3,2,.2Z" transform="translate(-32.6 -17.9)"/><path class="cls-1" d="M3943.6,337.3c4.3,5.3,10.4,8.2,15.8,12.2a41.5,41.5,0,0,1,7,6.9c2.1,2.6,3.7,5.5,5.6,8.3s6.1.3,4.5-2.6a59.6,59.6,0,0,0-6.2-8.7,41.5,41.5,0,0,0-7.8-7.3c-5.5-4-11.7-6.9-17.3-10.9-1.3-.9-2.4,1-1.6,2.1Z" transform="translate(-32.6 -17.9)"/><path class="cls-1" d="M3977.3,365.3c1.9-36.3,2.1-72.6,3.6-108.9s3.7-72.6,7.2-108.7c1.9-20.3,4.7-40.4,6.4-60.7.1-1.7-2.7-2.1-3-.4-3.5,18-5.4,36.3-7.2,54.5s-3.4,36.2-4.6,54.3q-3.6,54.3-4.9,108.8c-.5,20.4-.8,40.7-.2,61.1a1.3,1.3,0,0,0,1.3,1.3A1.3,1.3,0,0,0,3977.3,365.3Z" transform="translate(-32.6 -17.9)"/><path class="cls-1" d="M3991.1,87.4c.2,12.9,1.2,25.8,1.9,38.7l2.2,38.7,4.2,76.6c2.7,50.4,4.5,100.8,8.9,151a804.5,804.5,0,0,0,11.2,84.7c.7,3.6,6.2,2.1,5.5-1.5-10.1-49.4-13.6-99.8-16.7-150.1s-6.2-101.5-9.1-152.2l-2.5-42.6c-.8-14.4-1.2-29-2.7-43.3a1.5,1.5,0,0,0-2.9,0Z" transform="translate(-32.6 -17.9)"/><path class="cls-1" d="M4024.1,478.4c1.8-4.6,2.6-9.6,3.6-14.4l3-14.5c1.8-9.6,3.5-19.3,5-29.1q4.5-29.1,7.8-58.4c1.2-11,2.3-22,3.2-33a2.5,2.5,0,0,0-2.4-2.4,2.4,2.4,0,0,0-2.4,2.4c-1.6,19.5-3.6,38.9-6.1,58.4s-5.5,38.6-8.8,57.8c-.9,5.4-1.9,10.8-2.8,16.3s-2.2,10.9-2.5,16.5c-.1,1.5,2,1.5,2.4.3Z" transform="translate(-32.6 -17.9)"/><path class="cls-1" d="M4042.8,328.4a12.3,12.3,0,0,0,1,4.2c.6,1.5,1.1,2.9,1.7,4.3s2.3,5.7,3.4,8.5c2.2,5.8,4.3,11.7,6.1,17.6a247.1,247.1,0,0,1,8.3,36,198.9,198.9,0,0,1,2.3,20.4,2.4,2.4,0,0,0,2.4,2.3,2.3,2.3,0,0,0,2.4-2.3,250.4,250.4,0,0,0-16.4-73.5c-1.3-3.3-2.7-6.6-4.1-9.8-.7-1.6-1.4-3.1-2.2-4.6a11.5,11.5,0,0,0-3.1-4.2c-.8-.6-1.8.2-1.8,1.1Z" transform="translate(-32.6 -17.9)"/><path class="cls-1" d="M4069.6,421c1.5-5.1,2.9-10.2,4.2-15.4s2.4-10.2,3.6-15.3c2.3-10.2,4.7-20.3,7.4-30.3,1.6-5.7,3.4-11.3,5.1-17,.9-3.1-3.8-4.3-4.8-1.3a308.9,308.9,0,0,0-8.6,30.3c-2.4,10.1-4.6,20.2-6.6,30.5-1.2,5.8-2.2,11.7-3.1,17.7a1.4,1.4,0,0,0,2.8.7Z" transform="translate(-32.6 -17.9)"/><path class="cls-1" d="M4089.3,345.1c18.1,1.2,36.3.8,54.4.8s36.2.1,54.3,0c36.1,0,72.1-.2,108.1-.4l60.9-.6c3.7,0,3.7-5.8,0-5.8-36.2,0-72.4.2-108.5.4s-72.1.3-108.2.2h-30.5c-10.1-.1-20.3-.2-30.5.2a2.7,2.7,0,0,0,0,5.3Z" transform="translate(-32.6 -17.9)"/><path class="cls-1" d="M4369.5,343.6c1.4-.7,1.7-1.9,2.3-3.2l1.8-4.4c1-2.7,1.9-5.3,2.7-8a158.4,158.4,0,0,0,3.6-16.6c2-11.3,3.2-22.7,5-34,1-6.4,2.6-12.9,2.9-19.4.1-2-3.1-3-3.9-1-2.3,5.2-3.2,11-4.2,16.6s-1.8,11.3-2.6,17c-1.6,11.1-3.2,22.2-5.7,33.2-.8,3.2-1.4,6.4-2.2,9.5-.3,1.5-.7,3-1.1,4.5s-1.3,3.3-.8,5a1.6,1.6,0,0,0,1.9,1h.3Z" transform="translate(-32.6 -17.9)"/><path class="cls-1" d="M4384.4,258.4c.3,9.1,1.6,18.2,2.7,27.3s2.4,18,3.6,27c2.3,17.6,4.8,35.2,8.7,52.5,1.1,4.8,2.3,9.6,3.6,14.3s2.6,10,4.8,14.5c1.3,2.7,5.3.7,4.7-2s-2.7-8.4-3.9-12.5-2.4-8.4-3.4-12.7c-2.1-8.5-3.9-17.2-5.4-25.8-2.9-17.5-5.1-35-7.5-52.5-1.4-10.2-2.6-20.6-5-30.6a1.4,1.4,0,0,0-1.8-1,1.6,1.6,0,0,0-1.1,1.4Z" transform="translate(-32.6 -17.9)"/><path class="cls-1" d="M4413.2,392.6c2.6-9.2,4.7-18.6,6.9-28,1-4.6,2.2-9.2,3.4-13.8l1.8-7.1.9-3.3c.3-1.2.9-2.6.4-3.9s-1.6-1.9-2.7-1.1-2.2,4.5-2.8,6.7-1.2,4.7-1.8,7.1c-1.2,4.7-2.3,9.5-3.4,14.3a214.9,214.9,0,0,0-4.7,28.9c-.2,1.1,1.7,1.3,2,.2Z" transform="translate(-32.6 -17.9)"/><path class="cls-1" d="M4423.8,337.3c4.3,5.3,10.4,8.2,15.8,12.2a41.5,41.5,0,0,1,7,6.9c2.1,2.6,3.7,5.5,5.6,8.3s6.1.3,4.5-2.6a59.6,59.6,0,0,0-6.2-8.7,38.1,38.1,0,0,0-7.7-7.3c-5.5-4-11.8-6.9-17.3-10.9-1.3-.9-2.5,1-1.6,2.1Z" transform="translate(-32.6 -17.9)"/><path class="cls-1" d="M4457.5,365.3c1.9-36.3,2.1-72.6,3.6-108.9s3.7-72.6,7.2-108.7c1.9-20.3,4.7-40.4,6.4-60.7.1-1.7-2.7-2.1-3-.4-3.5,18-5.4,36.3-7.2,54.5s-3.3,36.2-4.5,54.3c-2.5,36.2-4,72.5-4.9,108.8-.6,20.4-.8,40.7-.3,61.1a1.3,1.3,0,0,0,1.4,1.3,1.3,1.3,0,0,0,1.3-1.3Z" transform="translate(-32.6 -17.9)"/><path class="cls-1" d="M4471.3,87.4c.2,12.9,1.2,25.8,1.9,38.7l2.2,38.7,4.2,76.6c2.7,50.4,4.5,100.8,8.9,151a779.3,779.3,0,0,0,11.3,84.7c.7,3.6,6.2,2.1,5.4-1.5-10-49.5-13.6-99.8-16.7-150.1s-6.1-101.5-9.1-152.2l-2.4-42.6c-.9-14.4-1.3-29-2.8-43.4-.2-1.8-2.9-1.9-2.9,0Z" transform="translate(-32.6 -17.9)"/><path class="cls-1" d="M4504.3,478.4a101.1,101.1,0,0,0,3.6-14.4l3-14.5c1.8-9.6,3.5-19.3,5-29.1q4.5-29.1,7.8-58.4c1.2-11,2.2-22,3.2-33a2.5,2.5,0,0,0-2.4-2.4,2.4,2.4,0,0,0-2.4,2.4q-2.4,29.3-6.1,58.4c-2.5,19.4-5.5,38.7-8.8,57.9-.9,5.4-1.8,10.8-2.8,16.3s-2.2,10.9-2.5,16.5c-.1,1.4,2,1.5,2.4.3Z" transform="translate(-32.6 -17.9)"/><path class="cls-1" d="M4523,328.4a12.3,12.3,0,0,0,1,4.2c.5,1.5,1.1,2.9,1.7,4.3s2.3,5.7,3.4,8.5c2.2,5.8,4.3,11.7,6.1,17.6a247.1,247.1,0,0,1,8.3,36c1.1,6.8,1.8,13.5,2.3,20.4a2.4,2.4,0,0,0,2.4,2.3,2.3,2.3,0,0,0,2.4-2.3,250.4,250.4,0,0,0-16.4-73.5c-1.3-3.3-2.7-6.6-4.1-9.8-.7-1.6-1.4-3.1-2.2-4.6a10.4,10.4,0,0,0-3.1-4.1c-.7-.6-1.7.2-1.8,1Z" transform="translate(-32.6 -17.9)"/><path class="cls-1" d="M4549.8,421c1.5-5.1,2.9-10.2,4.2-15.4s2.4-10.2,3.6-15.3c2.3-10.2,4.7-20.3,7.4-30.3,1.6-5.7,3.4-11.3,5.1-17,.9-3.1-3.8-4.3-4.8-1.3a308.9,308.9,0,0,0-8.6,30.3c-2.4,10.1-4.7,20.2-6.6,30.5-1.2,5.8-2.2,11.7-3.1,17.7a1.4,1.4,0,0,0,2.8.7Z" transform="translate(-32.6 -17.9)"/><path class="cls-1" d="M4569.5,345.1c18.1,1.2,36.3.8,54.4.8s36.2.1,54.3,0c36.1,0,72.1-.2,108.2-.4l60.8-.6c3.7,0,3.7-5.8,0-5.8-36.2,0-72.4.2-108.5.4s-72.1.3-108.2.2H4600c-10.1-.1-20.3-.2-30.5.2a2.7,2.7,0,0,0,0,5.3Z" transform="translate(-32.6 -17.9)"/><path class="cls-1" d="M4849.7,343.6c1.3-.7,1.7-1.9,2.3-3.2s1.2-3,1.7-4.4,1.9-5.3,2.7-8a136.9,136.9,0,0,0,3.7-16.6c2-11.3,3.2-22.7,5-34,1-6.4,2.6-12.9,2.9-19.4.1-2-3.1-3-3.9-1-2.3,5.2-3.2,11-4.2,16.6s-1.8,11.3-2.6,17c-1.6,11.1-3.2,22.2-5.7,33.2-.7,3.2-1.4,6.4-2.2,9.5-.3,1.5-.7,3-1.1,4.5s-1.3,3.3-.8,5a1.6,1.6,0,0,0,1.9,1h.3Z" transform="translate(-32.6 -17.9)"/><path class="cls-1" d="M4864.6,258.4c.3,9.1,1.6,18.2,2.7,27.3s2.4,18,3.6,27c2.3,17.6,4.8,35.2,8.7,52.5,1.1,4.8,2.3,9.6,3.6,14.3s2.6,10,4.8,14.5c1.3,2.7,5.3.7,4.7-2s-2.7-8.4-3.9-12.5-2.4-8.4-3.4-12.7c-2.1-8.5-3.9-17.2-5.4-25.8-3-17.5-5.1-35-7.5-52.5-1.4-10.2-2.6-20.6-5-30.6a1.4,1.4,0,0,0-1.8-1,1.6,1.6,0,0,0-1.1,1.4Z" transform="translate(-32.6 -17.9)"/><path class="cls-1" d="M4893.4,392.6c2.6-9.2,4.7-18.6,6.9-28,1-4.6,2.2-9.2,3.3-13.8.7-2.3,1.3-4.7,1.9-7.1l.9-3.3c.3-1.2.9-2.6.4-3.9s-1.7-1.9-2.7-1.1-2.2,4.5-2.8,6.7-1.2,4.7-1.8,7.1c-1.2,4.7-2.3,9.5-3.4,14.3a217.5,217.5,0,0,0-4.7,28.9c-.2,1.2,1.7,1.4,2,.3Z" transform="translate(-32.6 -17.9)"/><path class="cls-1" d="M4904,337.3c4.2,5.3,10.4,8.2,15.8,12.2a41.5,41.5,0,0,1,7,6.9c2.1,2.6,3.7,5.5,5.6,8.3s6.1.3,4.5-2.6a59.6,59.6,0,0,0-6.2-8.7,41.5,41.5,0,0,0-7.8-7.3c-5.5-4-11.8-6.9-17.3-10.9-1.3-.9-2.4,1-1.6,2.1Z" transform="translate(-32.6 -17.9)"/><path class="cls-1" d="M4937.7,365.3c1.9-36.3,2.1-72.6,3.6-108.9s3.7-72.6,7.2-108.7c1.9-20.3,4.7-40.4,6.4-60.7.1-1.7-2.7-2.1-3-.4-3.5,18-5.3,36.3-7.2,54.5s-3.3,36.2-4.5,54.3c-2.5,36.2-4,72.5-4.9,108.8-.5,20.4-.8,40.7-.3,61.1a1.3,1.3,0,0,0,1.4,1.3,1.3,1.3,0,0,0,1.3-1.3Z" transform="translate(-32.6 -17.9)"/><path class="cls-1" d="M4951.5,87.4c.2,12.9,1.2,25.8,2,38.7l2.1,38.7,4.2,76.6c2.7,50.4,4.5,100.8,8.9,151a804.8,804.8,0,0,0,11.3,84.7c.7,3.6,6.2,2.1,5.5-1.5-10.1-49.5-13.7-99.8-16.8-150.1s-6.1-101.5-9.1-152.2l-2.4-42.6c-.8-14.4-1.3-29-2.8-43.4-.1-1.8-2.9-1.9-2.9,0Z" transform="translate(-32.6 -17.9)"/><path class="cls-1" d="M4984.5,478.4c1.8-4.6,2.6-9.6,3.6-14.4l3-14.5c1.8-9.6,3.5-19.3,5-29.1q4.6-29.1,7.8-58.4c1.2-11,2.3-22,3.2-33a2.4,2.4,0,0,0-4.8,0q-2.4,29.3-6.1,58.4c-2.5,19.4-5.5,38.7-8.8,57.9l-2.7,16.3c-1,5.4-2.3,10.9-2.6,16.5,0,1.4,2,1.5,2.5.3Z" transform="translate(-32.6 -17.9)"/><path class="cls-1" d="M5003.2,328.4a12.3,12.3,0,0,0,1,4.2c.6,1.5,1.2,2.9,1.7,4.3s2.4,5.7,3.4,8.5c2.2,5.8,4.3,11.7,6.1,17.6a247.1,247.1,0,0,1,8.3,36c1.1,6.8,1.9,13.5,2.4,20.4a2.3,2.3,0,0,0,2.3,2.3,2.3,2.3,0,0,0,2.4-2.3,250.4,250.4,0,0,0-16.4-73.5c-1.3-3.3-2.7-6.6-4.1-9.8-.7-1.6-1.4-3.1-2.2-4.6a11.5,11.5,0,0,0-3.1-4.2c-.8-.6-1.7.2-1.8,1.1Z" transform="translate(-32.6 -17.9)"/><path class="cls-1" d="M5030,421c1.5-5.1,2.9-10.2,4.2-15.4s2.4-10.2,3.6-15.3c2.3-10.2,4.7-20.3,7.4-30.3,1.6-5.7,3.4-11.3,5.1-17,.9-3.1-3.8-4.3-4.8-1.3a308.9,308.9,0,0,0-8.6,30.3c-2.4,10.1-4.7,20.2-6.6,30.5-1.2,5.8-2.2,11.7-3.1,17.7a1.4,1.4,0,0,0,2.8.7Z" transform="translate(-32.6 -17.9)"/><path class="cls-1" d="M5049.7,345.1c18,1.2,36.3.8,54.4.8s36.2.1,54.3,0c36.1,0,72.1-.2,108.1-.4l60.8-.6c3.8,0,3.8-5.8,0-5.8-36.1,0-72.3.2-108.4.4s-72.1.3-108.2.2h-30.5c-10.2-.1-20.3-.2-30.5.2a2.7,2.7,0,0,0,0,5.3Z" transform="translate(-32.6 -17.9)"/><path class="cls-1" d="M5329.9,343.6c1.3-.7,1.7-1.9,2.3-3.2s1.2-3,1.7-4.4,1.9-5.3,2.7-8a134.3,134.3,0,0,0,3.7-16.7c2-11.2,3.2-22.6,5-33.9,1-6.4,2.6-12.9,2.9-19.4.1-2-3.1-3-3.9-1.1-2.3,5.3-3.2,11-4.2,16.7s-1.8,11.3-2.6,16.9c-1.6,11.2-3.2,22.3-5.7,33.3-.7,3.2-1.4,6.3-2.2,9.5-.3,1.5-.7,3-1.1,4.5s-1.3,3.3-.8,4.9a1.6,1.6,0,0,0,1.9,1.1l.3-.2Z" transform="translate(-32.6 -17.9)"/><path class="cls-1" d="M5344.8,258.4c.3,9.1,1.5,18.2,2.7,27.3s2.4,18,3.6,27c2.3,17.6,4.8,35.2,8.7,52.5,1.1,4.8,2.3,9.6,3.6,14.3s2.6,10,4.7,14.5c1.4,2.7,5.4.7,4.8-2s-2.7-8.4-3.9-12.5-2.4-8.4-3.4-12.7c-2.1-8.5-3.9-17.2-5.4-25.8-3-17.5-5.1-35-7.5-52.5-1.4-10.2-2.6-20.6-5-30.6a1.4,1.4,0,0,0-1.8-1,1.6,1.6,0,0,0-1.1,1.4Z" transform="translate(-32.6 -17.9)"/><path class="cls-1" d="M5373.5,392.6c2.6-9.2,4.7-18.6,6.9-28,1.1-4.6,2.2-9.2,3.4-13.8.6-2.3,1.2-4.7,1.9-7.1s.6-2.2.8-3.3,1-2.6.5-3.9-1.7-1.9-2.8-1.1-2.1,4.5-2.7,6.7-1.3,4.7-1.8,7.1c-1.2,4.7-2.4,9.5-3.4,14.3a232.3,232.3,0,0,0-4.8,28.9C5371.4,393.5,5373.3,393.7,5373.5,392.6Z" transform="translate(-32.6 -17.9)"/><path class="cls-1" d="M5384.2,337.3c4.2,5.3,10.4,8.2,15.8,12.2a41.5,41.5,0,0,1,7,6.9c2.1,2.6,3.7,5.5,5.6,8.3s6.1.3,4.5-2.6a59.6,59.6,0,0,0-6.2-8.7,41.5,41.5,0,0,0-7.8-7.3c-5.5-4-11.8-6.9-17.3-10.9-1.3-.9-2.4,1-1.6,2.1Z" transform="translate(-32.6 -17.9)"/><path class="cls-1" d="M5417.9,365.3c1.9-36.3,2.1-72.6,3.6-108.9s3.7-72.6,7.2-108.7c1.9-20.3,4.7-40.4,6.4-60.7.1-1.7-2.7-2.1-3-.4-3.6,18-5.4,36.3-7.2,54.5s-3.3,36.2-4.5,54.3c-2.5,36.2-4,72.5-4.9,108.8-.6,20.4-.8,40.7-.3,61.1a1.4,1.4,0,0,0,1.5,1.2,1.5,1.5,0,0,0,1.2-1.2Z" transform="translate(-32.6 -17.9)"/><path class="cls-1" d="M5431.7,87.4c.2,12.9,1.2,25.8,1.9,38.7l2.2,38.7,4.2,76.6c2.7,50.4,4.5,100.8,8.8,151,2.5,28.4,5.9,56.7,11.4,84.7.7,3.6,6.2,2.1,5.4-1.5-10-49.5-13.6-99.8-16.7-150.1s-6.1-101.5-9.1-152.2l-2.4-42.6c-.9-14.4-1.3-29-2.8-43.4-.2-1.8-2.9-1.9-2.9,0Z" transform="translate(-32.6 -17.9)"/><path class="cls-1" d="M5464.7,478.4c1.7-4.6,2.5-9.6,3.6-14.4l3-14.5c1.8-9.6,3.5-19.3,5-29.1q4.5-29.1,7.8-58.4c1.2-11,2.3-22,3.2-33a2.4,2.4,0,0,0-4.8,0q-2.4,29.3-6.1,58.4c-2.5,19.4-5.5,38.7-8.8,57.9-.9,5.4-1.8,10.8-2.8,16.3s-2.2,10.9-2.5,16.5c0,1.4,2,1.5,2.4.3Z" transform="translate(-32.6 -17.9)"/><path class="cls-1" d="M5483.4,328.4a12.3,12.3,0,0,0,1,4.2c.6,1.5,1.2,2.9,1.7,4.3s2.3,5.7,3.4,8.5c2.2,5.8,4.3,11.7,6.1,17.6a247.1,247.1,0,0,1,8.3,36,198.9,198.9,0,0,1,2.3,20.4,2.4,2.4,0,0,0,2.4,2.3,2.3,2.3,0,0,0,2.4-2.3,250.4,250.4,0,0,0-16.4-73.5c-1.3-3.3-2.7-6.6-4.1-9.8-.7-1.6-1.4-3.1-2.2-4.6a11.5,11.5,0,0,0-3.1-4.2c-.8-.6-1.7.2-1.8,1.1Z" transform="translate(-32.6 -17.9)"/><path class="cls-1" d="M5510.2,421c1.5-5.1,2.9-10.2,4.2-15.4l3.6-15.3c2.3-10.2,4.7-20.3,7.4-30.3,1.6-5.7,3.4-11.3,5.1-17,.9-3.1-3.8-4.3-4.8-1.3a308.9,308.9,0,0,0-8.6,30.3c-2.4,10.1-4.7,20.2-6.6,30.5-1.2,5.8-2.2,11.7-3.1,17.7a1.4,1.4,0,0,0,2.8.7Z" transform="translate(-32.6 -17.9)"/><path class="cls-1" d="M5529.9,345.1c18.1,1.2,36.3.8,54.4.8s36.2.1,54.3,0c36,0,72.1-.2,108.1-.4l60.8-.6c3.8,0,3.8-5.8,0-5.8-36.1,0-72.3.2-108.5.4s-72,.3-108.1.2h-30.5c-10.2-.1-20.3-.2-30.5.2a2.7,2.7,0,0,0-2.4,2.8,2.6,2.6,0,0,0,2.4,2.5Z" transform="translate(-32.6 -17.9)"/><path class="cls-1" d="M35.4,343.6c1.3-.7,1.7-1.9,2.3-3.2s1.2-3,1.8-4.4,1.8-5.3,2.6-8a136.9,136.9,0,0,0,3.7-16.6c2-11.3,3.2-22.7,5-34,1-6.4,2.6-12.9,2.9-19.4.1-2-3.1-3-3.9-1-2.3,5.2-3.2,11-4.2,16.6s-1.8,11.3-2.6,17c-1.6,11.1-3.2,22.2-5.7,33.2-.7,3.2-1.4,6.4-2.2,9.5-.3,1.5-.7,3-1.1,4.5s-1.3,3.3-.8,5a1.6,1.6,0,0,0,1.9,1h.3Z" transform="translate(-32.6 -17.9)"/><path class="cls-1" d="M50.3,258.4c.3,9.1,1.6,18.2,2.7,27.3s2.4,18,3.6,27c2.3,17.6,4.8,35.2,8.7,52.5,1.1,4.8,2.3,9.6,3.6,14.3s2.6,10,4.8,14.5c1.3,2.7,5.3.7,4.7-2s-2.7-8.4-3.9-12.5-2.4-8.4-3.4-12.7c-2.1-8.5-3.9-17.2-5.3-25.8-3-17.5-5.2-35-7.6-52.5-1.4-10.2-2.6-20.6-5-30.6a1.4,1.4,0,0,0-1.8-1,1.8,1.8,0,0,0-1.1,1.4Z" transform="translate(-32.6 -17.9)"/><path class="cls-1" d="M79.1,392.6c2.6-9.2,4.7-18.6,6.9-28,1.1-4.6,2.2-9.2,3.4-13.8l1.8-7.1.9-3.3c.3-1.2.9-2.6.4-3.9s-1.6-1.9-2.7-1.1-2.2,4.5-2.8,6.7-1.2,4.7-1.8,7.1c-1.2,4.7-2.3,9.5-3.4,14.3a214.9,214.9,0,0,0-4.7,28.9c-.1,1.1,1.7,1.3,2,.2Z" transform="translate(-32.6 -17.9)"/><path class="cls-1" d="M89.7,337.3c4.3,5.3,10.4,8.2,15.8,12.2a41.5,41.5,0,0,1,7,6.9c2.1,2.6,3.7,5.5,5.6,8.3s6.1.3,4.5-2.6a59.6,59.6,0,0,0-6.2-8.7,41.5,41.5,0,0,0-7.8-7.3c-5.5-4-11.7-6.9-17.3-10.9-1.3-.9-2.4,1-1.6,2.1Z" transform="translate(-32.6 -17.9)"/><path class="cls-1" d="M123.4,365.3c1.9-36.3,2.1-72.6,3.6-108.9s3.7-72.6,7.2-108.7c1.9-20.3,4.7-40.4,6.4-60.7.1-1.7-2.7-2.1-3-.4-3.5,18-5.4,36.3-7.2,54.5s-3.4,36.2-4.6,54.3q-3.6,54.3-4.9,108.8c-.5,20.4-.8,40.7-.2,61.1a1.3,1.3,0,0,0,1.3,1.3A1.3,1.3,0,0,0,123.4,365.3Z" transform="translate(-32.6 -17.9)"/><path class="cls-1" d="M137.2,87.4c.2,12.9,1.2,25.8,1.9,38.7l2.2,38.7,4.2,76.6c2.7,50.4,4.5,100.8,8.9,151a804.5,804.5,0,0,0,11.2,84.7c.7,3.6,6.2,2.1,5.5-1.5-10.1-49.4-13.6-99.8-16.7-150.1s-6.2-101.5-9.1-152.2l-2.5-42.6c-.8-14.4-1.2-29-2.7-43.3a1.5,1.5,0,0,0-2.9,0Z" transform="translate(-32.6 -17.9)"/><path class="cls-1" d="M170.2,478.4c1.8-4.6,2.6-9.6,3.6-14.4l3-14.5c1.8-9.6,3.5-19.3,5-29.1q4.5-29.1,7.8-58.4c1.2-11,2.3-22,3.2-33a2.4,2.4,0,0,0-2.4-2.4A2.4,2.4,0,0,0,188,329c-1.6,19.5-3.6,38.9-6.1,58.4s-5.5,38.6-8.8,57.8c-.9,5.4-1.8,10.8-2.8,16.3s-2.2,10.9-2.5,16.5c-.1,1.5,2,1.5,2.4.3Z" transform="translate(-32.6 -17.9)"/><path class="cls-1" d="M188.9,328.4a12.3,12.3,0,0,0,1,4.2c.6,1.5,1.1,2.9,1.7,4.3s2.3,5.7,3.4,8.5c2.2,5.8,4.3,11.7,6.1,17.6a247.1,247.1,0,0,1,8.3,36,198.9,198.9,0,0,1,2.3,20.4,2.4,2.4,0,0,0,2.4,2.3,2.3,2.3,0,0,0,2.4-2.3,250.4,250.4,0,0,0-16.4-73.5c-1.3-3.3-2.7-6.6-4.1-9.8-.7-1.6-1.4-3.1-2.2-4.6a11.5,11.5,0,0,0-3.1-4.2c-.8-.6-1.8.2-1.8,1.1Z" transform="translate(-32.6 -17.9)"/><path class="cls-1" d="M215.7,421c1.5-5.1,2.9-10.2,4.2-15.4s2.4-10.2,3.6-15.3c2.3-10.2,4.7-20.3,7.4-30.3,1.6-5.7,3.4-11.3,5.1-17,.9-3.1-3.8-4.3-4.8-1.3a308.9,308.9,0,0,0-8.6,30.3c-2.4,10.1-4.6,20.2-6.6,30.5-1.2,5.8-2.2,11.7-3.1,17.7a1.4,1.4,0,0,0,2.8.7Z" transform="translate(-32.6 -17.9)"/><path class="cls-1" d="M235.4,345.1c18.1,1.2,36.3.8,54.4.8s36.2.1,54.3,0c36.1,0,72.1-.2,108.1-.4l60.9-.6c3.7,0,3.7-5.8,0-5.8-36.2,0-72.4.2-108.5.4s-72.1.3-108.2.2H265.9c-10.1-.1-20.3-.2-30.5.2a2.7,2.7,0,0,0,0,5.3Z" transform="translate(-32.6 -17.9)"/><path class="cls-1" d="M515.6,343.6c1.4-.7,1.7-1.9,2.3-3.2l1.8-4.4c1-2.7,1.9-5.3,2.7-8a158.4,158.4,0,0,0,3.6-16.6c2-11.3,3.2-22.7,5-34,1-6.4,2.6-12.9,2.9-19.4.1-2-3.1-3-3.9-1-2.3,5.2-3.2,11-4.2,16.6s-1.8,11.3-2.6,17c-1.6,11.1-3.2,22.2-5.7,33.2-.8,3.2-1.4,6.4-2.2,9.5-.3,1.5-.7,3-1.1,4.5s-1.3,3.3-.8,5a1.6,1.6,0,0,0,1.9,1h.3Z" transform="translate(-32.6 -17.9)"/><path class="cls-1" d="M530.5,258.4c.3,9.1,1.6,18.2,2.7,27.3s2.4,18,3.6,27c2.3,17.6,4.8,35.2,8.7,52.5,1.1,4.8,2.3,9.6,3.6,14.3s2.6,10,4.8,14.5c1.3,2.7,5.3.7,4.7-2s-2.7-8.4-3.9-12.5-2.4-8.4-3.4-12.7c-2.1-8.5-3.9-17.2-5.4-25.8-2.9-17.5-5.1-35-7.5-52.5-1.4-10.2-2.6-20.6-5-30.6a1.4,1.4,0,0,0-1.8-1,1.6,1.6,0,0,0-1.1,1.4Z" transform="translate(-32.6 -17.9)"/><path class="cls-1" d="M559.3,392.6c2.6-9.2,4.7-18.6,6.9-28,1.1-4.6,2.2-9.2,3.4-13.8l1.8-7.1.9-3.3c.3-1.2.9-2.6.4-3.9s-1.6-1.9-2.7-1.1-2.2,4.5-2.8,6.7-1.2,4.7-1.8,7.1c-1.2,4.7-2.3,9.5-3.4,14.3a214.9,214.9,0,0,0-4.7,28.9c-.2,1.1,1.7,1.3,2,.2Z" transform="translate(-32.6 -17.9)"/><path class="cls-1" d="M569.9,337.3c4.3,5.3,10.4,8.2,15.8,12.2a41.5,41.5,0,0,1,7,6.9c2.1,2.6,3.7,5.5,5.6,8.3s6.1.3,4.5-2.6a59.6,59.6,0,0,0-6.2-8.7,38.1,38.1,0,0,0-7.7-7.3c-5.5-4-11.8-6.9-17.3-10.9-1.3-.9-2.5,1-1.6,2.1Z" transform="translate(-32.6 -17.9)"/><path class="cls-1" d="M603.6,365.3c1.9-36.3,2.1-72.6,3.6-108.9s3.7-72.6,7.2-108.7c1.9-20.3,4.7-40.4,6.4-60.7.1-1.7-2.7-2.1-3-.4-3.5,18-5.4,36.3-7.2,54.5s-3.3,36.2-4.5,54.3c-2.5,36.2-4,72.5-4.9,108.8-.6,20.4-.8,40.7-.3,61.1a1.3,1.3,0,0,0,1.4,1.3,1.3,1.3,0,0,0,1.3-1.3Z" transform="translate(-32.6 -17.9)"/><path class="cls-1" d="M617.4,87.4c.2,12.9,1.2,25.8,1.9,38.7l2.2,38.7,4.2,76.6c2.7,50.4,4.5,100.8,8.9,151a779.3,779.3,0,0,0,11.3,84.7c.7,3.6,6.2,2.1,5.4-1.5-10-49.5-13.6-99.8-16.7-150.1s-6.1-101.5-9.1-152.2l-2.4-42.6c-.9-14.4-1.3-29-2.8-43.4-.2-1.8-2.9-1.9-2.9,0Z" transform="translate(-32.6 -17.9)"/><path class="cls-1" d="M650.4,478.4A101.1,101.1,0,0,0,654,464l3-14.5c1.8-9.6,3.5-19.3,5-29.1q4.5-29.1,7.8-58.4c1.2-11,2.2-22,3.2-33a2.5,2.5,0,0,0-2.4-2.4,2.4,2.4,0,0,0-2.4,2.4q-2.4,29.3-6.1,58.4c-2.5,19.4-5.5,38.7-8.8,57.9-.9,5.4-1.8,10.8-2.8,16.3s-2.2,10.9-2.5,16.5c-.1,1.4,2,1.5,2.4.3Z" transform="translate(-32.6 -17.9)"/><path class="cls-1" d="M669.1,328.4a12.3,12.3,0,0,0,1,4.2c.5,1.5,1.1,2.9,1.7,4.3s2.3,5.7,3.4,8.5c2.2,5.8,4.3,11.7,6.1,17.6a247.1,247.1,0,0,1,8.3,36c1.1,6.8,1.8,13.5,2.3,20.4a2.4,2.4,0,0,0,2.4,2.3,2.3,2.3,0,0,0,2.4-2.3,250.4,250.4,0,0,0-16.4-73.5c-1.3-3.3-2.7-6.6-4.1-9.8-.7-1.6-1.4-3.1-2.2-4.6a10.4,10.4,0,0,0-3.1-4.1c-.7-.6-1.7.2-1.8,1Z" transform="translate(-32.6 -17.9)"/><path class="cls-1" d="M695.9,421c1.5-5.1,2.9-10.2,4.2-15.4s2.4-10.2,3.6-15.3c2.3-10.2,4.7-20.3,7.4-30.3,1.6-5.7,3.4-11.3,5.1-17,.9-3.1-3.8-4.3-4.8-1.3a308.9,308.9,0,0,0-8.6,30.3c-2.4,10.1-4.7,20.2-6.6,30.5-1.2,5.8-2.2,11.7-3.1,17.7a1.4,1.4,0,0,0,2.8.7Z" transform="translate(-32.6 -17.9)"/><path class="cls-1" d="M715.6,345.1c18.1,1.2,36.3.8,54.4.8s36.2.1,54.3,0c36.1,0,72.1-.2,108.2-.4l60.8-.6c3.7,0,3.7-5.8,0-5.8-36.2,0-72.4.2-108.5.4s-72.1.3-108.2.2H746.1c-10.1-.1-20.3-.2-30.5.2a2.7,2.7,0,0,0,0,5.3Z" transform="translate(-32.6 -17.9)"/><path class="cls-1" d="M995.8,343.6c1.3-.7,1.7-1.9,2.3-3.2s1.2-3,1.7-4.4,1.9-5.3,2.7-8a136.9,136.9,0,0,0,3.7-16.6c2-11.3,3.2-22.7,5-34,1-6.4,2.6-12.9,2.9-19.4.1-2-3.1-3-3.9-1-2.3,5.2-3.2,11-4.2,16.6s-1.8,11.3-2.6,17c-1.6,11.1-3.2,22.2-5.7,33.2-.7,3.2-1.4,6.4-2.2,9.5-.3,1.5-.7,3-1.1,4.5s-1.3,3.3-.8,5a1.6,1.6,0,0,0,1.9,1h.3Z" transform="translate(-32.6 -17.9)"/><path class="cls-1" d="M1010.7,258.4c.3,9.1,1.6,18.2,2.7,27.3l3.6,27c2.3,17.6,4.8,35.2,8.7,52.5,1.1,4.8,2.3,9.6,3.6,14.3s2.6,10,4.8,14.5c1.3,2.7,5.3.7,4.7-2s-2.7-8.4-3.9-12.5-2.4-8.4-3.4-12.7c-2.1-8.5-3.9-17.2-5.4-25.8-3-17.5-5.1-35-7.5-52.5-1.4-10.2-2.6-20.6-5-30.6a1.4,1.4,0,0,0-1.8-1,1.6,1.6,0,0,0-1.1,1.4Z" transform="translate(-32.6 -17.9)"/><path class="cls-1" d="M1039.5,392.6c2.6-9.2,4.7-18.6,6.9-28,1-4.6,2.2-9.2,3.3-13.8.7-2.3,1.3-4.7,1.9-7.1l.9-3.3c.3-1.2.9-2.6.4-3.9s-1.7-1.9-2.7-1.1-2.2,4.5-2.8,6.7-1.2,4.7-1.8,7.1c-1.2,4.7-2.3,9.5-3.4,14.3a217.5,217.5,0,0,0-4.7,28.9c-.2,1.2,1.7,1.4,2,.3Z" transform="translate(-32.6 -17.9)"/><path class="cls-1" d="M1050.1,337.3c4.2,5.3,10.4,8.2,15.8,12.2a41.5,41.5,0,0,1,7,6.9c2.1,2.6,3.7,5.5,5.6,8.3s6.1.3,4.5-2.6a59.6,59.6,0,0,0-6.2-8.7,41.5,41.5,0,0,0-7.8-7.3c-5.5-4-11.8-6.9-17.3-10.9-1.3-.9-2.4,1-1.6,2.1Z" transform="translate(-32.6 -17.9)"/><path class="cls-1" d="M1083.8,365.3c1.9-36.3,2.1-72.6,3.6-108.9s3.7-72.6,7.2-108.7c1.9-20.3,4.7-40.4,6.4-60.7.1-1.7-2.7-2.1-3-.4-3.5,18-5.3,36.3-7.2,54.5s-3.3,36.2-4.5,54.3c-2.5,36.2-4,72.5-4.9,108.8-.5,20.4-.8,40.7-.3,61.1a1.3,1.3,0,0,0,1.4,1.3,1.3,1.3,0,0,0,1.3-1.3Z" transform="translate(-32.6 -17.9)"/><path class="cls-1" d="M1097.6,87.4c.2,12.9,1.2,25.8,2,38.7l2.1,38.7c1.4,25.5,2.9,51.1,4.2,76.6,2.7,50.4,4.5,100.8,8.9,151a804.8,804.8,0,0,0,11.3,84.7c.7,3.6,6.2,2.1,5.5-1.5-10.1-49.5-13.7-99.8-16.8-150.1s-6.1-101.5-9.1-152.2l-2.4-42.6c-.8-14.4-1.3-29-2.8-43.4-.1-1.8-2.9-1.9-2.9,0Z" transform="translate(-32.6 -17.9)"/><path class="cls-1" d="M1130.6,478.4c1.8-4.6,2.6-9.6,3.6-14.4l3-14.5c1.8-9.6,3.5-19.3,5-29.1q4.6-29.1,7.8-58.4c1.2-11,2.3-22,3.2-33a2.4,2.4,0,0,0-4.8,0q-2.4,29.3-6.1,58.4c-2.5,19.4-5.5,38.7-8.8,57.9l-2.7,16.3c-1,5.4-2.3,10.9-2.6,16.5,0,1.4,2,1.5,2.5.3Z" transform="translate(-32.6 -17.9)"/><path class="cls-1" d="M1149.3,328.4a12.3,12.3,0,0,0,1,4.2c.6,1.5,1.2,2.9,1.7,4.3s2.4,5.7,3.4,8.5c2.2,5.8,4.3,11.7,6.1,17.6a247.1,247.1,0,0,1,8.3,36c1.1,6.8,1.9,13.5,2.4,20.4a2.3,2.3,0,0,0,2.3,2.3,2.3,2.3,0,0,0,2.4-2.3,250.4,250.4,0,0,0-16.4-73.5c-1.3-3.3-2.7-6.6-4.1-9.8-.7-1.6-1.4-3.1-2.2-4.6a11.5,11.5,0,0,0-3.1-4.2c-.8-.6-1.7.2-1.8,1.1Z" transform="translate(-32.6 -17.9)"/><path class="cls-1" d="M1176.1,421c1.5-5.1,2.9-10.2,4.2-15.4s2.4-10.2,3.6-15.3c2.3-10.2,4.7-20.3,7.4-30.3,1.6-5.7,3.4-11.3,5.1-17,.9-3.1-3.8-4.3-4.8-1.3A308.9,308.9,0,0,0,1183,372c-2.4,10.1-4.6,20.2-6.6,30.5-1.2,5.8-2.2,11.7-3.1,17.7a1.4,1.4,0,0,0,2.8.7Z" transform="translate(-32.6 -17.9)"/><path class="cls-1" d="M1195.8,345.1c18,1.2,36.3.8,54.4.8s36.2.1,54.3,0c36.1,0,72.1-.2,108.1-.4l60.8-.6c3.8,0,3.8-5.8,0-5.8-36.1,0-72.3.2-108.4.4s-72.1.3-108.2.2h-30.5c-10.2-.1-20.3-.2-30.5.2a2.7,2.7,0,0,0,0,5.3Z" transform="translate(-32.6 -17.9)"/><path class="cls-1" d="M1476,343.6c1.3-.7,1.7-1.9,2.3-3.2s1.2-3,1.7-4.4,1.9-5.3,2.7-8a134.3,134.3,0,0,0,3.7-16.7c2-11.2,3.2-22.6,5-33.9,1-6.4,2.6-12.9,2.9-19.4.1-2-3.1-3-3.9-1.1-2.3,5.3-3.2,11-4.2,16.7s-1.8,11.3-2.6,16.9c-1.6,11.2-3.2,22.3-5.7,33.3-.7,3.2-1.4,6.3-2.2,9.5-.3,1.5-.7,3-1.1,4.5s-1.3,3.3-.8,4.9a1.6,1.6,0,0,0,1.9,1.1l.3-.2Z" transform="translate(-32.6 -17.9)"/><path class="cls-1" d="M1490.9,258.4c.3,9.1,1.5,18.2,2.7,27.3s2.4,18,3.6,27c2.3,17.6,4.8,35.2,8.7,52.5,1.1,4.8,2.3,9.6,3.6,14.3s2.6,10,4.7,14.5c1.4,2.7,5.4.7,4.8-2s-2.7-8.4-3.9-12.5-2.4-8.4-3.4-12.7c-2.1-8.5-3.9-17.2-5.4-25.8-3-17.5-5.1-35-7.5-52.5-1.4-10.2-2.6-20.6-5-30.6a1.4,1.4,0,0,0-1.8-1,1.6,1.6,0,0,0-1.1,1.4Z" transform="translate(-32.6 -17.9)"/><path class="cls-1" d="M1519.6,392.6c2.6-9.2,4.7-18.6,6.9-28,1.1-4.6,2.2-9.2,3.4-13.8.6-2.3,1.2-4.7,1.9-7.1s.6-2.2.8-3.3,1-2.6.5-3.9-1.7-1.9-2.8-1.1-2.1,4.5-2.7,6.7-1.3,4.7-1.8,7.1c-1.2,4.7-2.4,9.5-3.4,14.3a232.3,232.3,0,0,0-4.8,28.9C1517.5,393.5,1519.4,393.7,1519.6,392.6Z" transform="translate(-32.6 -17.9)"/><path class="cls-1" d="M1530.3,337.3c4.2,5.3,10.4,8.2,15.8,12.2a41.5,41.5,0,0,1,7,6.9c2.1,2.6,3.7,5.5,5.6,8.3s6.1.3,4.5-2.6a59.6,59.6,0,0,0-6.2-8.7,41.5,41.5,0,0,0-7.8-7.3c-5.5-4-11.8-6.9-17.3-10.9-1.3-.9-2.4,1-1.6,2.1Z" transform="translate(-32.6 -17.9)"/><path class="cls-1" d="M1564,365.3c1.9-36.3,2.1-72.6,3.6-108.9s3.7-72.6,7.2-108.7c1.9-20.3,4.7-40.4,6.4-60.7.1-1.7-2.7-2.1-3-.4-3.6,18-5.4,36.3-7.2,54.5s-3.3,36.2-4.5,54.3c-2.5,36.2-4,72.5-4.9,108.8-.6,20.4-.8,40.7-.3,61.1a1.4,1.4,0,0,0,1.5,1.2,1.4,1.4,0,0,0,1.2-1.2Z" transform="translate(-32.6 -17.9)"/><path class="cls-1" d="M1577.8,87.4c.2,12.9,1.2,25.8,1.9,38.7l2.2,38.7,4.2,76.6c2.7,50.4,4.5,100.8,8.8,151,2.5,28.4,5.9,56.7,11.4,84.7.7,3.6,6.2,2.1,5.4-1.5-10-49.5-13.6-99.8-16.7-150.1s-6.1-101.5-9.1-152.2l-2.4-42.6c-.9-14.4-1.3-29-2.8-43.4-.2-1.8-2.9-1.9-2.9,0Z" transform="translate(-32.6 -17.9)"/><path class="cls-1" d="M1610.8,478.4c1.7-4.6,2.5-9.6,3.6-14.4l3-14.5c1.8-9.6,3.5-19.3,5-29.1q4.5-29.1,7.8-58.4c1.2-11,2.3-22,3.2-33a2.4,2.4,0,0,0-4.8,0q-2.4,29.3-6.1,58.4c-2.5,19.4-5.5,38.7-8.8,57.9-.9,5.4-1.8,10.8-2.8,16.3s-2.2,10.9-2.5,16.5c0,1.4,2,1.5,2.4.3Z" transform="translate(-32.6 -17.9)"/><path class="cls-1" d="M1629.5,328.4a12.3,12.3,0,0,0,1,4.2c.6,1.5,1.2,2.9,1.7,4.3s2.3,5.7,3.4,8.5c2.2,5.8,4.3,11.7,6.1,17.6a247.1,247.1,0,0,1,8.3,36,198.9,198.9,0,0,1,2.3,20.4,2.4,2.4,0,0,0,2.4,2.3,2.3,2.3,0,0,0,2.4-2.3,250.4,250.4,0,0,0-16.4-73.5c-1.3-3.3-2.7-6.6-4.1-9.8-.7-1.6-1.4-3.1-2.2-4.6a11.5,11.5,0,0,0-3.1-4.2c-.8-.6-1.7.2-1.8,1.1Z" transform="translate(-32.6 -17.9)"/><path class="cls-1" d="M1656.3,421c1.5-5.1,2.9-10.2,4.2-15.4l3.6-15.3c2.3-10.2,4.7-20.3,7.4-30.3,1.6-5.7,3.4-11.3,5.1-17,.9-3.1-3.8-4.3-4.8-1.3a308.9,308.9,0,0,0-8.6,30.3c-2.4,10.1-4.6,20.2-6.6,30.5-1.2,5.8-2.2,11.7-3.1,17.7a1.4,1.4,0,0,0,2.8.7Z" transform="translate(-32.6 -17.9)"/><path class="cls-1" d="M1676,345.1c18.1,1.2,36.3.8,54.4.8s36.2.1,54.3,0c36,0,72.1-.2,108.1-.4l60.8-.6c3.8,0,3.8-5.8,0-5.8-36.1,0-72.3.2-108.5.4s-72,.3-108.1.2h-30.5c-10.2-.1-20.3-.2-30.5.2a2.7,2.7,0,0,0-2.4,2.8,2.6,2.6,0,0,0,2.4,2.5Z" transform="translate(-32.6 -17.9)"/><path class="cls-2" d="M1647.3,162.9c1-3.3,2.3-6.6,3.1-9.9s1.7-7.3,2.6-11q2.6-10,5.7-20.1c4.3-12.9,9.5-25.5,17-36.9a83.2,83.2,0,0,1,12.8-15.5c5.7-5.1,12.4-9,19.1-12.6a229.8,229.8,0,0,1,42-18.2c29.2-9.2,60.1-9.3,89,1.2a124.9,124.9,0,0,1,35.6,20.2A127.1,127.1,0,0,1,1901,90.3a124.9,124.9,0,0,1,16.7,37.3c4.2,15.5,6,31.5,6.6,47.6s-.4,33.2-5.3,49.2-11.7,29.3-18.5,43.5c-14.3,29.8-28.9,59.7-47.1,87.4-16.5,25.2-35.7,48.3-56.5,70.1s-43.3,42.6-66.3,62.5q-17.2,15-35,29.7l-17.7,14.8c-3.2,2.8-6.1,5.9-9.2,8.8s-6.5,5.5-9.7,8.3l-19.6,16.6c-2.3,1.9-2,5.8,0,7.8s5.5,1.9,7.8,0c6.9-5.6,13.8-11.3,20.8-16.8s14.5-10.6,21.5-16.2c12.3-9.9,24.4-20.1,36.5-30.2,24.1-20.3,47.9-41.1,70.2-63.4a568.9,568.9,0,0,0,61.2-71.2c19.6-27.4,35.3-57.2,50-87.5,7.5-15.5,15.3-30.9,21.7-46.9a150.2,150.2,0,0,0,10.6-50.8,253.6,253.6,0,0,0-3.6-51.5,152.2,152.2,0,0,0-15.1-45,144.3,144.3,0,0,0-61.6-60.7,142.9,142.9,0,0,0-92.6-13.1c-16.6,3.3-32.7,9.5-48,16.8A121.9,121.9,0,0,0,1698.7,49c-6.4,4.6-11.8,10.2-17.2,15.8-20.2,21.1-29.3,49.2-35.3,77.1-.8,3.4-1.5,6.8-2.2,10.2s-.7,6.8-1,10.2,3.6,2.8,4.3.6Z" transform="translate(-32.6 -17.9)"/><path class="cls-2" d="M1645.7,159.1c-1.5-15.7-5.4-30.8-10.7-45.6a212.5,212.5,0,0,0-20.4-42.1,87.5,87.5,0,0,0-13.9-17c-6-5.4-12.9-9.1-20.3-12.2a365.9,365.9,0,0,0-45.9-15.9c-15.6-4.1-31.8-6.3-47.9-4.3a142.9,142.9,0,0,0-43.9,12.7,191.2,191.2,0,0,0-38.9,24.4c-12.5,10.1-21.2,22.8-28,37.2s-13.8,30.1-17.7,45.9c-4.3,17.3-3.9,34.4-.7,51.8s7.1,32,11.2,47.9a386,386,0,0,0,14.4,45.8,259.7,259.7,0,0,0,22.5,43.9c8.4,13.3,17.6,26.1,26.8,38.8,17.8,24.9,36.3,49.5,56.6,72.4s40.6,44.5,63.9,63.5c11.8,9.6,24.1,18.7,36.8,27.1,6.2,4,12.3,8,18.3,12.2s11.6,8,17,12.5a106.1,106.1,0,0,1,15.3,15.4c1.9,2.4,6,2,8,0s1.9-5.7,0-8.1a177.8,177.8,0,0,0-31-30.3c-11.5-8.8-23.3-17-34.8-25.8a495.5,495.5,0,0,1-63.1-58.3c-10-11-19.3-22.4-28.6-33.9S1474,396,1465,383.9s-17.4-23.8-26-35.9-17.8-25.5-25.4-39.1-13-26.2-18.1-41.2-9.1-30.1-12.9-45.3c-2-7.6-3.9-15.2-5.7-22.9a200.4,200.4,0,0,1-4-22.4c-.8-7.7-1-16.8.1-23.5a133.6,133.6,0,0,1,6-22.3c2.5-7.3,5.5-14.5,8.5-21.6s5.5-13.6,9.3-20.3c7-12.2,17.7-21.4,29.1-29.5s24.4-15.7,38-20.6a100.1,100.1,0,0,1,43-6.2c15.5,1.1,30.6,5.7,45.1,10.8q11.3,3.8,22.2,8.1c6.6,2.6,13,5.8,18.3,10.5,10.5,9.3,17.6,22.5,24,34.7a236.5,236.5,0,0,1,17.1,41.3c2.2,7.1,4.3,14.2,6.2,21.4.9,3.1,6.2,2.6,5.9-.8Z" transform="translate(-32.6 -17.9)"/></svg>