<svg xmlns="http://www.w3.org/2000/svg" id="Layer_1" data-name="Layer 1" viewBox="0 0 150 150"><defs><style>.cls-2{fill:#ffd555}.cls-4{fill:#21282d}</style></defs><circle id="Ellipse_283" cx="74.52" cy="75.26" r="73.51" data-name="Ellipse 283" style="fill:#c3e3f2"/><path id="Path_110792" d="m108.47 74.87-6.76 9.8 1.86 8.58 6.07 2.5 5.63-1.93.81-9.15Z" class="cls-2" data-name="Path 110792"/><path id="Path_110793" d="M38.9 42H63v7.2l-2.2 11.37-1.66 39.73 3.9 2.42 5.12-2.07 3.67-6.11-6.37-2.86.35-9.39h4.48v-9.92l6.44-10 12.53-5.8 9-2.45v-4.6l9-.32v25.73l-2.72 1.23h-2.18l-7.35-3.79h-8.15l-3.38 5.94.68 4h3.39l2.4 10-3.41 2.29-2.38 9.56-6.66 10-13 6.12-13.5-4.92-6.56-9.54L43 93.31V54.1l-4.85-3.53Z" data-name="Path 110793" style="fill:#fff"/><path d="M105.53 75.11c1.07-.07 2.13-.17 3.17-.25.11-1.4.72 1.25 1.84.38v7-30.79a2.45 2.45 0 0 0-2.48-2.45h-7.35a4.88 4.88 0 0 0-4.48 2.93l-6.89 2-2.11.07a22.08 22.08 0 0 0-19.6 22v3.68A3.67 3.67 0 0 0 64 83.3v7.35a3.68 3.68 0 0 0 3.68 3.68V98a2.45 2.45 0 0 1-2.45 2.45H64A2.45 2.45 0 0 1 61.5 98V60.37l2-6.89A4.89 4.89 0 0 0 66.4 49v-7.35A2.45 2.45 0 0 0 64 39.2H39.45A2.45 2.45 0 0 0 37 41.65V49a4.89 4.89 0 0 0 2.93 4.48l2 6.89V98A22.08 22.08 0 0 0 64 120.06h1.23a22.08 22.08 0 0 0 22-22.06v-3.67a3.67 3.67 0 0 0 3.67-3.68V83.3a3.67 3.67 0 0 0-3.67-3.67V76a2.45 2.45 0 0 1 2.16-2.44l6.83 1.95 1.61.37 2.87-2.33V53.89h4.9v20.22a5.5 5.5 0 0 1-.07 1M41.9 44.1h19.6V49H41.9ZM82.33 98a17.17 17.17 0 0 1-17.15 17.16H64A17.18 17.18 0 0 1 46.8 98V62.47l-.6-4.9-1.05-3.67h13.11l-1.56 5.45a2.6 2.6 0 0 0-.1.67V98a7.38 7.38 0 0 0 7.4 7.36h1.22A7.36 7.36 0 0 0 72.53 98v-3.67h9.8ZM86 89.43H68.85v-4.9H86Zm9.81-19.17-5.46-1.56a2.5 2.5 0 0 0-.67-.1 7.36 7.36 0 0 0-7.35 7.4v3.68h-9.8V76a17.16 17.16 0 0 1 14.7-17l4.9-.79 3.68-1.05Z" class="cls-4"/><circle cx="98.23" cy="73.83" r="2.45" class="cls-4"/><path d="M109.13 70.93a.81.81 0 0 0-1.19 0L100 80.19a11 11 0 0 0 4.19 17.39 11.3 11.3 0 0 0 4.41.9 11.11 11.11 0 0 0 8.4-18.29Z" class="cls-2"/><path d="m108.36 76.06-6.46 7.55a8.27 8.27 0 0 0-1.24 8.94 8.45 8.45 0 1 0 14.16-8.94Z" style="fill:none"/><path d="M109 71a.9.9 0 0 0-1.31 0L99 81.17a12.11 12.11 0 0 0 4.61 19.11 12.6 12.6 0 0 0 4.84 1 12.2 12.2 0 0 0 9.24-20.1Zm5.35 24a8.5 8.5 0 0 1-13.7-2.45 8.27 8.27 0 0 1 1.24-8.94l6.46-7.55 6.46 7.55a8.32 8.32 0 0 1-.45 11.39Z" style="fill:#21282d;stroke:#21282d;stroke-miterlimit:10;stroke-width:.5px"/></svg>