<svg xmlns="http://www.w3.org/2000/svg" width="48.959" height="62.254" data-name="Group 331"><path fill="#4AACD7" d="m24.381 13.784-11.807 13.89a15.578 15.578 0 0 0 3.162 23.008l.011-.016.021.016a4.446 4.446 0 0 0 .123-5.809 11.2 11.2 0 0 1 .09-14.331l7.435-8.726a4.4 4.4 0 0 0 1.038-3.129v-4.9l-.074.087Z" data-name="Path 110465"/><path fill="#4AACD7" d="M43.099 21.954 24.47 0 5.849 21.954a24.23 24.23 0 0 0-5.85 15.81c0 21.734 26.4 32.682 41.784 17.305a24.365 24.365 0 0 0 1.316-33.115m-3.195 28.579c-.4.478-.818.944-1.266 1.391a19.95 19.95 0 0 1-14.139 5.867C9.041 57.779.01 41.36 6.652 28.627a20.6 20.6 0 0 1 2.576-3.812L24.474 6.84l15.255 17.975q.592.7 1.113 1.438c.234.333.445.678.659 1.023.1.161.208.316.3.48.233.4.444.815.647 1.231.056.114.117.224.171.338q.3.656.556 1.331c.039.1.083.2.119.3.164.453.307.913.438 1.376.03.108.064.214.092.322.122.457.222.92.31 1.386q.036.18.069.36.115.685.184 1.38.021.2.038.4.054.683.06 1.371c0 .179.006.358 0 .537q-.002.422-.027.839a20 20 0 0 1-.181 1.774q-.092.629-.221 1.243-.061.285-.132.567-.152.647-.351 1.277c-.051.163-.109.324-.165.486q-.213.624-.463 1.229-.104.241-.212.479-.262.582-.558 1.145-.129.241-.264.48-.335.593-.708 1.162-.116.177-.236.351-.45.653-.949 1.268l-.113.146Z" data-name="Path 110466"/></svg>