<svg xmlns="http://www.w3.org/2000/svg" width="63.053" height="67.177" data-name="Group 333"><path fill="#4AACD7" d="M62.047 14.542 32.29.178a1.77 1.77 0 0 0-1.544 0L.997 14.509a1.79 1.79 0 0 0-1 1.634v34.853a1.78 1.78 0 0 0 1.005 1.634l29.744 14.366a1.8 1.8 0 0 0 .768.18 1.8 1.8 0 0 0 .776-.18l29.757-14.3a1.8 1.8 0 0 0 1-1.634V16.176a1.78 1.78 0 0 0-1-1.634m-15.124-3.3 2.288 1.038 7.975 3.865-25.672 12.411-14.581-7.051c-.574-.329-1.178-.673-1.85-1.054l-.711-.4-.223.108-1.844-.892-6.463-3.121L31.514 3.751ZM29.74 31.628V62.57L3.54 49.922v-31l5.107 2.451Zm3.554.041 2.141-1.079a314 314 0 0 0 4.036-1.945l20.026-9.666v30.934l-26.2 12.7Z" data-name="Path 110473"/><path fill="#4AACD7" d="M8.078 38.357a1.551 1.551 0 0 0-1.337 2.8l5.156 2.451a1.6 1.6 0 0 0 .67.147 1.55 1.55 0 0 0 1.446-.882 1.53 1.53 0 0 0 .065-1.185 1.48 1.48 0 0 0-.817-.874l-5.18-2.451Z" data-name="Path 110474"/><path fill="#4AACD7" d="M6.888 44.944a1.571 1.571 0 0 0-.163 2.876l9.952 4.78a1.6 1.6 0 0 0 .67.155 1.544 1.544 0 0 0 .637-2.958l-9.919-4.788a1.51 1.51 0 0 0-1.177-.065" data-name="Path 110475"/></svg>