<svg xmlns="http://www.w3.org/2000/svg" viewBox="0 0 574 647"><defs><style>.cls-1{fill:#ffc000;}.cls-2{fill:#42515a;}</style></defs><g id="Layer_5" data-name="Layer 5"><path class="cls-1" d="M183.5,32c-1.2,1.8-1.9,3.8-3.2,5.5a53.2,53.2,0,0,1-4.7,4.8c-3.6,3.4-6.4,7.6-9.2,11.7s-6,8.2-7.8,13.1S156,77,155,82s-1.2,10.8,1.2,15.7,7.3,8.7,12.4,10.9c6.7,2.9,13.4,3,19.2-1.9,4.1-3.4,7.1-7.8,11.2-11.2L188.7,85.1a113.4,113.4,0,0,1-8.5,9.7c-6.5,6.6,3.4,16.4,10,10.1a97.1,97.1,0,0,0,8.8-9.4c6.1-7.4-2.9-16.1-10.3-10.4-3.2,2.5-7.6,3.7-10.5,6.3-1,1,.5-.2.9-.1l-1.6-.4a19.5,19.5,0,0,1-5.1-2.3c-4.6-3.6-2.2-12.6-.9-17.2,2.3-7.6,6-13.8,10-20.6,3.1-5,9.9-11.5,7.6-18a3.2,3.2,0,0,0-5.6-.8Z"/><path class="cls-1" d="M179.1,99.4c6.8,0,14.1-1.6,18.9-6.7s6.8-13.4,7.7-20.2a63.7,63.7,0,0,0-1-23c-1.7-7.2-5-16-9.3-22.1a1.9,1.9,0,0,0-3.5.9c.1,6.4,2.1,13,2.9,19.5s1.8,12.1,1.6,18.3a39.3,39.3,0,0,1-4.2,17.2c-3,5.7-7.9,8.5-13.8,10.9-2.6,1.1-2.4,5.2.7,5.2Z"/><path class="cls-1" d="M164.5,81.1c-5.5,12.5,10.1,16.8,19.6,15.7a24.1,24.1,0,0,0,14.4-7.3c3.5-3.8,6.5-9.2,4-14.2-1.1-2.3-4.9-3.5-7-1.9s-2.7,3.6-4.3,5.9a10.8,10.8,0,0,1-5.6,4.2c-3.3,1.2-12.5,3.1-14.5-1.6-1-2.5-5.2-4.1-6.6-.9Z"/><path class="cls-1" d="M413.3,269.8c-1.4,3.3-3.4,6.5-4.8,10s-2.6,6.8-4,10.2c-2.6,7-7.5,12.6-10.2,19.4a27.3,27.3,0,0,0-.7,18.9c2.1,6.2,5.4,12.7,11.5,15.8,13.2,6.6,27.9-4.2,31.6-16.8,4.1-14.3-2.7-28.9-11.5-39.7-5.2-6.4-15.6.5-13.4,7.7,1.4,4.6,3.4,8.8,5.1,13.2s2.4,7.4,2,11.1-1.6,5.5-4.3,6.7a5.8,5.8,0,0,1-2.6.5c1.2.2-.9-.4-1.2-.5s-.5.1-1.6-.8-3.1-6.7-2.6-9.7c.7-4.6,2.2-9.3,3.1-13.9s2.9-10,4.4-14.9c.7-2.5,1.3-5.1,1.8-7.6s.4-5.7.8-8.7a1.8,1.8,0,0,0-1.3-2.1,1.8,1.8,0,0,0-2.1,1.2Z"/><path class="cls-1" d="M416.5,330.8c4.1-4.4,5.5-10,6.5-15.8s2.2-12.7.3-18.6-10.6-7.7-13.9-1.9c-4.9,8.6-7,18.1-10.4,27.2l10.8-6.2-.7-.2,3.9,2.2-.5-.6,2.3,4c-.4-.9,0-.9-.2-.3a10.8,10.8,0,0,0,.2-3.1c.2-2.2.4-4.4.7-6.5.6-4.2,1.3-8.4,2-12.6s-1.2-9.8-6.3-11.2a9.3,9.3,0,0,0-11.2,6.4,74.8,74.8,0,0,0-1.8,32.6l17.9-5c-1.2-4.7-2.7-9.7-2.1-14.6a16.9,16.9,0,0,1,1.2-4.4,34.5,34.5,0,0,0,2.7-9.2c.5-4.5-4-8.6-8-9.1s-8.4,2.2-10.2,6.6a78,78,0,0,0-5.3,22.9c-.5,5,4.5,9.2,9.2,9.2s8.8-4.2,9.2-9.2a56.5,56.5,0,0,1,4.8-18l-18.2-2.5c-.1,1-2.1,4.2-2.6,5.6a34,34,0,0,0-1.4,9.4c-.2,6.2,1.3,12.3,2.8,18.2a9.4,9.4,0,0,0,11.4,6.5c5.3-1.5,7.2-6.4,6.5-11.4a56.6,56.6,0,0,1,1.4-22.8L400,293.5c-1.1,7.2-2.3,14.4-2.9,21.6s-.2,15,8,17.4a9.1,9.1,0,0,0,10.9-6.2c2.8-8.6,4.1-17.6,7.3-25.9l-13.9,1.8c1.3,2.9.9,7.9,1.1,11.1s1.5,9.2-.8,12.2,3.6,8.9,6.8,5.3Z"/><path class="cls-1" d="M412.1,300.7a53.4,53.4,0,0,1,4.2-10.9c1.8-3.3,4.5-6.6,5.1-10.4s-5-9.6-8.9-5.2-4.2,7.7-5.8,11.7a72.9,72.9,0,0,0-4.1,12.2c-1.4,6.2,7.9,8.8,9.5,2.6Z"/><path class="cls-1" d="M412.9,298.7c7.5-1.5,8.1-14.4,8.6-20.3l-11.3,1.5c1,5.9,3.5,11.5,6.2,16.7s10.9,1.5,10.1-4.2q-1.8-11.8-4.2-23.4c-1.4-7.3-12.5-4.2-11,3s3.1,15.5,4.6,23.3l10-4.2c-2.5-4.5-3.6-9.2-4.6-14.2s-11.7-5-11.3,1.5a56.1,56.1,0,0,1,0,8.2c-.1,1.2,0,6.1-.4,6.4-2.9,2.4.3,6.3,3.3,5.7Z"/><path class="cls-1" d="M421,284.9l-1.3-4.9c-.4-1.5-.5-3.1-2-4a1.7,1.7,0,0,0-2.4.7c0,.1-.1.2-.1.3s.5,3.1,1.1,4.5l1.9,4.6c.7,1.6,3.3.4,2.8-1.2Z"/><path class="cls-1" d="M414.6,273.8c-7.9,3.5-12.5,12.7-13.3,21-.5,5.7,8.3,5.6,8.8,0,.8-7.2,5.1-13.3,5.2-20.6a.5.5,0,0,0-.5-.4Z"/><path class="cls-1" d="M409.8,290.3c2.8-6.2,7.5-12.6,8.2-19.5.4-3.3-4.7-5.5-6.9-2.9-4.4,5.6-5.1,13.5-6.3,20.3-.5,2.8,3.6,5.1,4.9,2.1Z"/><path class="cls-1" d="M402.2,319.7c-.7-5.5,1.1-10.4,3-15.5s3.6-10.1,5.4-15.2,3.5-9.5,5.4-14.1,3.5-8.6,3-13.3c-.2-2.7-4.2-2.8-4.2,0,0,5.8-2.3,10.4-4.7,15.6s-4.2,9.2-6,14c-3.4,9-6.4,19.2-4.4,28.9.3,1.4,2.7,1.1,2.5-.4Z"/><path class="cls-1" d="M416.2,269.3a17.6,17.6,0,0,0,2.4-11.4c-.3-2.7-1.2-6.5-4.2-7.1a1.2,1.2,0,0,0-1.6,1.2c.3,2.5,1.8,4.6,2,7.3a52.5,52.5,0,0,1,.3,9.7c-.1.7.8.8,1.1.3Z"/><path class="cls-1" d="M176.7,80.4c2.9-6.2,5.2-11.9,6.3-18.7s-5.9-8.8-9-3.8c-5.3,8.2-10.3,19-9.1,29,.4,3.6,3.6,7.5,7.8,5.9,6.1-2.3,9.4-7.8,12.6-13.3A93,93,0,0,0,193,61.1c2.1-7-8.6-11.8-12-5.1a61.1,61.1,0,0,0-7.2,30.1c.2,6.3,7.8,9.6,12.3,5.1a43.5,43.5,0,0,0,13.1-30.4,7.5,7.5,0,0,0-7.4-7.4c-4.4,0-7.1,3.4-7.5,7.4-.5,5.8-1.2,11.6-2,17.4-.5,3.6,3.2,6.9,6.5,7.3s6.9-1.7,8.2-5.3a53.7,53.7,0,0,0,2.5-19.9c-.3-3.3-.7-6.7-1.3-10s-2.3-6-4.4-9.2-7.8-3.1-8.7,1.2-1.7,5.4-1.4,8.5.7,5.9.9,8.8a40.6,40.6,0,0,1-2,16.6l14.7,2c.7-5.8,1.4-11.5,1.9-17.3H184.4a30.3,30.3,0,0,1-8.5,20.2l12.4,5.1a45.2,45.2,0,0,1,4.1-23.5l-12-5.1a71.1,71.1,0,0,1-5.2,13.5c-1.6,3.2-3.8,8.8-7.2,10.4l9.1,3.7c-1.5-7.2,2.3-16,5.5-22.3l-9.3-2.5a86.1,86.1,0,0,1-2.7,17.5c-1.1,3.5,4.4,6.1,6.1,2.6Z"/><path class="cls-1" d="M176.5,59.9c11.1,5.3,15.9-15.7,17.7-22.4s-8-9.1-10.1-2.8a75.9,75.9,0,0,0-3.4,16.4c-.6,5.2,7.4,7,9.6,2.6,3.5-6.6,6.4-14.9,4.6-22.4-1-4.4-7.9-4.4-9,0-1.4,6-1.6,11.6-4.5,17.2l9.6,2.6a70.8,70.8,0,0,1,3.2-13.6l-10.1-2.8c-.8,4-1.7,8-2.9,12-.7,2.4-1.8,9.7-4.3,10.7-1,.4-1.5,1.9-.4,2.5Z"/><path class="cls-1" d="M188.2,37.6a48.8,48.8,0,0,0,3.6-9.2c.7-2.6-3.3-4.5-4.4-1.9s-2.4,5.6-3.7,8.3l4.8,2.1c1.1-3.1,2.4-6.1,3.8-9.2s-3.5-6.7-5.3-3.1a58.7,58.7,0,0,0-3.7,9c-1.2,3.5,4.5,6,6,2.5s2.7-6.2,4-9.4H187l.7,3.8c.7,3.6,6.8,2.9,6.4-.8s-.2-6.7-1.7-9.9-5.2-1.2-5,1.4.9,5.1.3,7.6H194l-.6-3.8c-.5-2.7-5-3.3-6.1-.9s-2.7,6.3-4,9.5l6.3,1.7c.9-2.8,1.9-5.6,3-8.3l-5.9-1.7c-1,3.4-2.1,6.8-3.2,10.1s3.5,4.8,4.7,2a76.7,76.7,0,0,0,3.6-9l-4.7-.7c-.4,3-.7,6-1.1,8.9-.1,1.2,1.6,2.3,2.2,1Z"/><path class="cls-1" d="M191.3,25.5a26.9,26.9,0,0,0,.3-4c.1-1.4.6-2.9.1-4.3a1.5,1.5,0,0,0-2.7-.3c-.7,1.4-.5,2.8-.4,4.3a15.7,15.7,0,0,0,.9,4.3c.3.8,1.6,1.1,1.8,0Z"/><path class="cls-2" d="M170.7,149.9c-4,2.9-9.6.3-13,4.5s-4.7,6.8-10.6,7.1a.4.4,0,0,0,0,.7h0c5.3,2.7,10,1.5,14.7-1.5s10.5-3.7,10.4-9.3A1.5,1.5,0,0,0,170.7,149.9Z"/><path class="cls-2" d="M179.7,124.7c19.5-1,40.1-2.7,59.5.3-8.4-5.9-20.4-6.5-30.5-6.7C204.6,118.7,173.7,117,179.7,124.7Z"/><path class="cls-2" d="M241.9,125.6c2.8,1.1,7.3,2,9.9,3.6,3.1-.9-9.5-3.6-9.9-3.6Z"/><path class="cls-2" d="M408.3,406c-5.1.3-7.3,5.3-11.9,6.7-2.3.4-3.6-.6-5.7-1.2s-8.4-.2-7.5-.7-.2-1.9-.4-2.4-4.1-2.8-4.3-.2h0c-3,13.7,11.5,9.9,19.2,6.5,5.1-.6,11.7-1.4,11.9-7.7C409.7,406.2,408.9,405.9,408.3,406Z"/><path class="cls-2" d="M518.2,399.4c2.2,7.4,9.3,6.7,12.5.3,4-2.4,4.4-7.1,6.3-10.9,5.2-5.5,11.4-12.4,6.1-20.1a3.3,3.3,0,1,0-5.3,4c6.7,9.2-14.6,11.4-11.5,26.1-1.9,5.4-4.6-.6-3-3.4,1.8-9.4-10.2-1.2-12.4,2.3-2.8,1.9-2.8,7.4-5.6,8.4-5.7-.3-.5-5.9-7-6.8a1.6,1.6,0,0,0-2.6,0h.1c-3.4,3.2,1.5,6.6,4,8.5,2.5.3,4.7.9,7.1,1.3C511.6,407.4,514,402,518.2,399.4Z"/><path class="cls-2" d="M553.9,381.9c-1.2-7.1-4.1-13.7-5.4-20.9s-10.2-8.5-16.5-6.5c-14.3-15.8-36.7-7.8-55.4-10.8-14.6-1-29.1-2.5-43.6-3.7,17-22.3-1.5-47.5-10-68.7-1-2.4-.8-21.8-5.1-17.5h.1c.5,7.7.7,16.3,3.8,23.4,1,11.5,9.4,20.8,11.2,32.2s.8,23.2-7.8,30h-.3c-.2-2.5.2-5.5-1.2-7.4,1.7-1.7,3.4-20.2-1.2-14-.4,3.4-.5,7.9-1.8,11.4-4.3-2.5-9.9-.7-12.4,3.4-10.2-16.3,4-34.8,5.4-50.5-8.6,12.4-20.6,44.9-5,56l-6.6-.2c-16.5-17-4-44.4,7.2-61,5-7.7,8.5-16.6,6.2-25.8-.9-3.2-5.7-1.8-5,1.4h0c2.8,12.6-7.6,22.8-14.2,32.2-10,15.1-15.6,36.2-6.6,53a497.9,497.9,0,0,0-86.2,7.8,1278.7,1278.7,0,0,0,3.9-138.4c-1.2-9.4,1.7-44.9-5.8-48.5,11.4-6.2,10.5-11.5,5.3-21.9,5-4.1-.9-6.2-4.9-6.7a2.5,2.5,0,0,0-.8-1.6,3.2,3.2,0,0,0-2.4-2.8c-3.9.1-7.8-4.5-11.4-2.9-30.7-15.2-66.3-11.8-99.6-11.7,21.9-11.5,20-41.3,17.1-62.4-1.2-11.6-11.7-22.1-10.3-33.7,1.6-4.7-5.3-4.5-6.4-1.7h0c-3.6,20.4-24.2,31.4-32.3,49.8-7.4,15.1-9.5,35.5,5.6,46.6,0,.1-.1.3-.1.4-36.9,1.8-75.8,5.3-110.1,19-8.5-3.4-15.8,10.2-13.3,17.5-4,2-3.6,7.8-3.7,11.7,0,5.6.3,11.7-.7,17.2a1.9,1.9,0,0,0,.9,1.9c-1.8,17.1-1.8,34.4-2.6,51.6.1,6.3-1.5,14.1,1.4,19.7-.5,21.1.5,42.2-.6,63.3-2.6,4.4-4.9,9.5-4.7,14.5a1.6,1.6,0,0,0-.5,2h0c.4,1.4,1.6,2.1,2.7,2.9s1.3,2.8,2.6,3.9,4.2,2.1,5.8,3.5a312.5,312.5,0,0,0-.7,38.7c1.7,23-2.7,47.1.7,69.6-2.7,6.7-1.9,14.8-1.9,21.7-.6,20.7,0,41.2,1,61.8,1,5.6-2.6,32.2,2.6,32.9,5,10.7,19.8,11.7,29.5,17.1,6.5,2.9,13.2,2.8,20,4.4,20.7,7.2,42.1,11.9,64.2,11,43.8.5,87.4-6.8,127.5-24.4a76.1,76.1,0,0,1,.9,10.8c.1,2.6,3.2,3.9,5.1,3,18.1,11,38.5,16.6,58.8,21.6s44.4,10.6,67.1,10c34-1.4,67.2-10.4,100.1-17.8,6.4,1.4,36.3-10.5,31.3-18.4,4.3-20.7,2.8-42.1,2.1-63.1-.4-16.5,2.5-32.5,2.2-48.9,0-5.3-.4-10.6-2.2-15.6,1.6-6.9,1.6-14.3,1.6-21.4.3-9-1.4-18.1,0-27a17.6,17.6,0,0,0,2.4-10.7C553.9,391.1,554.2,386.1,553.9,381.9ZM411.2,341.3a1.8,1.8,0,0,0,.7.5,12.2,12.2,0,0,1-4.2-.6ZM346.8,345c14.9-1.7,30.1-3.4,45.1-3.8,5.8,7.8,18.2,14.1,27.5,9.1.1,2.3-1.4,4.6-2.2,6.9-1.8,5.7-1.9,11.9-6.9,16.1-1,.9.4,2.7,1.5,1.9,6.5-4.1,12.3-9.3,14.5-16.8,1.2-4.3-.2-7.9-.8-12a23.3,23.3,0,0,0,5.1-3.8c28.3,3.6,57,4.3,85.2,6.7,5.9,2.3,19.4,13.1,10.5,18.8-3.5,3.9-11.3,4.1-13.4,7.5-29,6.1-58.5,7.5-88,8.9-28.3,5.1-56.4.2-84-5.9-10.5-4.8-23.8-3.5-34-10.2-1.6-.5-4.2-6-5.5-3.3C274,349.1,338,347.1,346.8,345ZM295.6,167.3a1.9,1.9,0,0,0-.2-.7h.3C295.7,166.8,295.6,167,295.6,167.3Zm-6.6-6.2h-.2v-.6l.3.7ZM156.5,81.8c-.3-26.3,30.2-40.1,32.8-65.1,3.9,8.5,7,17.6,10.5,26.3,6.9,23.5,6.3,63.7-25.1,66.9,2.4-2.1,5.1-4.3,6.6-7.2,22.1-3.7,19.3-36.1,13.2-52a.6.6,0,0,0-1.1.3c4.5,14.6,7.4,43-11.6,48.1-1.5-5.5-6.9-4.9-11.1-2.9-5.5-2.7-5-18.1-7.4-14.9h0c-2.5,5.7.1,12.4,4.4,16.6a12.8,12.8,0,0,0-4.1,5.4C158.1,98,156.1,89.2,156.5,81.8ZM65.6,128a421.3,421.3,0,0,1,95.2-16,11.5,11.5,0,0,0-.3,2.6c-3.5,1.3-3.5,19.5.3,17.2.4.1.8-.1.8-.5.3-6.1,2.4-13.8,6.7-17.7,25.4-.4,51.6-1.4,77.4,1.8,14.3,1.8,27.1,4.2,40.1,11.9,8.7,7.8-11.1,7.5-15.8,8.6-71.1,9.8-144.9,12.7-215-4.4C57.8,129.5,62.8,128.8,65.6,128ZM38,328.4c-2.1-1.3-4.2-.6-5.9-1.8a12.8,12.8,0,0,1,2.1-4.8,1.8,1.8,0,0,0,1.5-.8h0c1.3-3,5-8,1.8-10.7,1.4-20.6,3.3-41.7-.7-61.9,3-11.9-1.9-25.4-.6-37.8s1.2-24,2.5-36a1.7,1.7,0,0,0-.9-1.7c2.6-7.9,1.3-16.4,3.4-24.5,4.9.8-.4,16.1,1.9,21.1-5.5,15.5-4,32.4-3,48.5,0,33.3.3,67.4-.2,100.3-.3,3.7-.6,7.4-.8,11.1A5.2,5.2,0,0,0,38,328.4ZM280.9,565.9a75.9,75.9,0,0,0-11,3.9c-6.8-1.4-12.4,5.2-18.6,7-30.8,9.7-63.9,14.6-96.6,12.8-16.8-7-36.5-2.6-53.4-8.5-6.3-2.6-13-3.6-19.6-4.7-10-2.6-17.7-9.8-28.5-9.5L45,560c-.3-37.6,1.9-75.4-.8-113,4.1-33.3-.1-67.8,2-101.4,4.4-23.2-4.4-45.7-2.5-68.9.6-12.9.6-26.1,3.3-38.7,4.3-19.5-4.4-39.8.5-59.3,3.8,3.2,8.1,1.4,12.3,0s2-5.8-1.2-5.5c1.2-8.8,7.2-9.3,7.5-16.7.2-2.5-.3-1,.9-2.2a9.5,9.5,0,0,1,3.4-1.5,13.7,13.7,0,0,0,1.9,2.2h0c-.7,3.5,2.5,7.5,6.2,7,1.1.1.3-.6,1.5.2a3.9,3.9,0,0,0,6.8.3c1-1.3,1.2-3.2,2.1-.8s-.5,2.3-.4,4.3c-.1.1-.1.2-.2.2h0c-2.5,3.6,1,7.8,4.3,9.4,3.2-.1,5.1,3.8,3.7,6.2-1,4.5-4.3,10.5.3,14.3s7.5-.3,10.6-2.9c4-4.1-.2-10.7,2-15.6,2.5-1,4.5-3.9,6-6.4,4.2,4.7,2.4,5.3.8,10.8-.5,10.3,4.5,21.7,1,31.8h.1c-3.9,7.2.7,16.3-.9,24.3s-2.1,16.8-1,25.1c-3.1,20.7-1.3,43-1.2,64.2,1.4,15.3-3.1,30.2-2.3,45.2-1.8,16.1,4.7,36.3-6.4,50.1a2.7,2.7,0,0,0,.7,4.9c-.5,3-2.2,8.4,2.4,8.6,1.6,0,2.3,1.5,3.5,2.1,4.5,1.7,9.8-.4,13.4-3.2,6.4-5.4-2.7-13.5-1.6-20.6.4-19.1,2.9-39.2,1.3-58a1.4,1.4,0,0,0,.9-1.1h.1c1.7-8.5.3-17.4,1.4-26s1.8-18.4,3.1-27.4a2.5,2.5,0,0,0-3.5-3c-.5-11.5,1.9-23,1.9-34.3,1.2-2.7,2.2-5.9.1-8.7a1.7,1.7,0,0,1-1.1-2c-.1-12.8,2.5-25.9,2.5-38.8.1-4.9-1.9-9.4.3-14.1,2.6-8.2-.3-17.5,3-25.6.6-1.6,1.8-2.7,1.7-4.5s-1.1-4.9,1.4-7c3.4,1,6.2.1,9.3-1s-2.6-3.9-3.7-4.7c-5.2-.8-10.4-1.6-15.4-2.6-1.4-2.4-6.7-1.3-7.3,1.8-5.8,4.7-20.6,9.9-14.2,19.5-.8,4.1.7,8.3,1.2,12.2s-4.4,5.3-6.6,4c-8.5-8.3,9.2-17.8-8.9-27.6,3-3.6,1.7-9.8-3.6-9.6s-5.9,6.9-10.6.6c1,0,2.2.3,3-.3s.7-.2.1-.2-2.2-.8-3.1-1.4c-.7-2.4-2.6-4.9-5.3-4.8-13.4-4-6.4,6-10.5,8-5.9.3-8.9,5.7-9.9,11h0a3.9,3.9,0,0,0,.4,2.7H51c-4.2-7.8,5.7-30.4-8.7-28.2,2.6-4.2,4.4-7.8,9.1-9.2,73.5,21.6,152.8,16.8,227.7,4.9,4.4-.7,10.3-1,13-5.1a2.7,2.7,0,0,0,3,0h0l3.4-1.8a2.2,2.2,0,0,0,2.2.1c.6.7.8,1.6,1.3,2.2s.6,3,2.5,3.6c.7,10-5.9,11.1-11.5,17a4.2,4.2,0,0,0-4.1,6.1c-.9,3.3,1.5,9.5,1.3,12.9-.5,1.6-2.8,2.2-3.2,4.1-10.5-10.7,5.2-17.5-10.5-27.2a13,13,0,0,1,3.5-1.1c3.7-3.5-7.7-2.7-7.5.8s.9,7,4.3,9.4.7,9.4,2.6,14.2,6.4,7,6.9,12.2c2.2,4.6,7.1-.4,6.1-4s1.6-2.9,2.8-4.7c-1.4,57,4.1,114-1,170.9a2.8,2.8,0,0,0-1,1.7,10,10,0,0,0-3.6,2.8c-8.8.7-5.1,12.3-12.1,15.4s-5.2,10.3-2.4,15.6-.2,13.1-.4,19.5c1.2,19.7-1.8,39.7.3,59.3-3.4,13.5.3,28-2.7,41.2-2.3,6-8.4,13.3-5,19.9a1.8,1.8,0,0,0-.3,2h0c1,2.4,5.4,4.7,6.6,1.4,2.5,2.3,5,5.9,9,4.3-.1.9-.1,1.7-.2,2.5-1.6,10,1.1,21.1-.2,31.4A2.9,2.9,0,0,0,280.9,565.9ZM119.7,165.4a40.7,40.7,0,0,1,2.9-3.4,4.8,4.8,0,0,0,4.4-1.3l5,1.6a10.3,10.3,0,0,0-3.4,8.3c-6.3,8.6-2.4,19-2.7,28.6-3.2,6.1-.7,12.7-1.1,19.1-2.2,13.8,0,27.3-.5,40.9-.9,16.4-3.8,33-1.1,49.4-2.7,10.7-2.3,22.2-1.9,33.3.5,4.7-.6,10.8,2.3,14.6-1.7,19.8-4.4,40.8-4.4,60.9.9,7.9,9,15.2-4.5,16.3,0-.1-2.5-2.9-3.4-3.1a32.5,32.5,0,0,0-.8-4.3c8.3-10.8,9.8-26.5,7.4-40.1,3.1-3,2.4-48.2-1.6-27.9,1.1-31,5.7-62.1,2.1-93.2,3.6-8.1.1-18.8,1.1-27.7-.4-7.4,3.5-14.8,1.9-22.1-.3-9.9-3.5-19.4-1.7-29.4-.4-6,.7-12.4-2.4-17.8A15.5,15.5,0,0,1,119.7,165.4Zm164,238.5a3.1,3.1,0,0,0,1.3,3.4c-.4,8.1-1,15.5.3,23.3-.5,16-3,32.5-.5,48.7-4.1,15.9-1,32.3-1.9,48.5-3.6.8-5.1-2-7.4-4.1-9.4-2-4.8-10.7-.3-15.8s4.7-12.6,3.6-19.6c-.3-9.4,4.2-20.6,0-29.2.4-21.9,0-44.1,3.2-66a9.1,9.1,0,0,0,2.2,1.1C283.7,397.4,284.4,401.3,283.7,403.9Zm241,185.2c-41.1,12.2-84.6,24.4-127.7,22.6-36-8.5-73.1-14-106.7-30.3a4.3,4.3,0,0,0,0-1.6h0c-.4-1.7-.4-3.5-.7-5.2,2-2-.1-5.4-.7-7.8-.5-4.2.4-8.6-1.5-12.5-.6-6.4,1.2-13.8-.8-19.8,2.6-6.7,2.1-13.8,1.2-20.8-.8-11.9,3.6-24.9-.5-36.3,2.1-12.5,4-25.7,2.2-38.2s3.3-26.5.5-39.1c-.3-2-.7-3.9-.2-5.7,5-2.9,10.2-4.5,12.8,2.2-3.2,1.4-1.4,5.1-3.7,7.3a2.9,2.9,0,0,0-.7,2.8c1.9,5.2-.4,9.2-.5,14.4s1.9,11.5-.5,16.8c-1.5,11.5-.7,23.4-.1,35,0,.7,1.2.9,1.3.1a258.3,258.3,0,0,0,3.7-30.3c0-9.4-1-18.9,2.6-27.8-.7,8.2-1.7,16.9.1,25,.2,10.8-1.3,22.7-.8,34s-2.9,23.2-.4,34.4c-2.9,11.9,6.3,19.4-1.6,26.4-2.3-1.6-4.6.9-6.2,1.5-1.1-4,.5-8.8,2.2-12.5,1.9-6.5,1.2-13.8.4-20.5,3.6-4-1.2-9.9-1.3-13.9-3.3,11.8-.8,24.2-2.5,36.2-1.1,5.3-4.1,12.1,2.3,15,6.4,5,10.7-4.5,13.3-9,1.1-2.9-.7-6.4-1-9.4-1.4-4.7,1.7-13.3-2.4-16.3,1.7-11.7.6-23.6,1.9-35.3-.5-7.8,4.2-26.7-1.7-31.5,1.8-10.1,1.4-20.7,5.2-30.5h0c.5-6.4-8.2-6.2-7.3,3.7,0-4.2-2.4-9.2-1.2-13.4,2.7,5.3,10.6,2.5,14.8-.1,1.9,1.1,4.2.5,6.2.3,6.8,2.4-5.3,8.3,9.1,16,.2,2.1-.7,2.8-2.3,3.7-4.3,7.7,9.5,10.6,11.7,3,.7-1.5.4-2,1.7-2.8,9.9-2.4-2.5-14.7,16.4-16.4,1.3.5,3.9,9.6,5.3,4.5-.2-4.8-2.1-10.5-7.9-7.7-8.3.6-15.2,5.8-15.9,14.5.3-.5-1.6.6-1.5.6-1.8,1.2-2.7,4.8-5.5,4.3.1-1.3.4-3.1,1.8-4h0c4.9-3.3,1.2-9.3-4.1-8.4q-1.2.6-1.5-.9c-1.4-2.4.2-5.3-1.3-8-1.6-4.3-6.5-3.5-8.9-7-4.9-4.4-10.1,3.8-14.4,5.4-.5-8.2-10.6-11.4-18.1-9.9-5,.4-6-6.9-8.1-10.5s6-1.8,6.9-15.8c8.9,23.6,93.4,34.9,117.6,34.1,38.6-4.6,81.4-.7,117.1-15.9,6.5-2.1,15.5-8.1,14.1-15.7,3.4.4,4.7-.1,6.9,3.2,6.1,6,5.2,20.1.4,26.5a19.6,19.6,0,0,0-7.8,10.1c-.6,1.6,1.8,2.8,2.8,1.6s2.6-2.8,3.9-4c-5.3,9.5-13.1,20.1-10.2,31.7,1.8,8.8-2.2,18,.8,26.8a3.1,3.1,0,0,0-1.5,3.2c1.2,17.7.4,35.4.1,53.2-.7,9.7-1.9,19.5-.3,29.1,2,4.6-.2,8-1.2,12.4a10.5,10.5,0,0,0-6.4-3.8c1.7-9.8,6.2-26.7,5-37.7.1-19.5-1.2-39-1.6-58.5-.3-6.2-1-12.4-.5-18.6s1.7-10.7-1.5-15.1c-4.4-7.4-17.7-1.7-9.7,3.4H516c6.4.6,3.6,8.2,4.4,12.5,1.5,11.9,3.5,23.8,3.9,35.7,1.6,17.1.7,34.3,1.1,51.5a98.8,98.8,0,0,1-3.6,28.2,2.5,2.5,0,0,0,.7,3.7h0c2.7,2.6,3.7,5.1,7.8,3.2a1.5,1.5,0,0,0,2.3.2c13.9-12.6,1.8-15.9,2.2-29.5s2.2-27.4,3.1-41.1c-.2-8.2,4.2-25.3.5-31.6a157.9,157.9,0,0,1,1.8-23.8c-1.7-6.2-2.1-12.3,1.3-18.1,1.1,11.4.4,23,1.5,34.5-2.6,2.1-1.2,7-1.8,10.1a156.8,156.8,0,0,1-.2,24.7c-2.6,21.7-.6,43.5-.7,65.3-.3,9.5-1,19,.2,28.4C535.4,582.7,530.7,587.1,524.7,589.1Z"/><path class="cls-2" d="M522.4,414.9c4.2-.3,14.9-2.4,9.6-8.2.4-.9,2.4-3.8.2-3.5h0c-4,2.9-9.7,10.8-15,9.4-2-.5-2.8-1-4.8-.6C508.4,415,521,415.3,522.4,414.9Z"/><path class="cls-2" d="M323.3,362.2c2.4,6,15.6-3.7,21-3.8a69.7,69.7,0,0,1,21.7-3.8,1.2,1.2,0,0,0,1.2-1.2c-1.2-3-11.3-.1-14.4-.2-7.5,1.6-29.5-1.9-29.5,9Z"/><path class="cls-2" d="M297.1,475.6c1.8.7,1.7-3,0-1.5h0C296.8,474.6,296.5,475.3,297.1,475.6Z"/><path class="cls-2" d="M296.5,487.4c-.3,1.8,1.4,1.8,1.1,0,.5-.3.2-1.9.3-2.4a3.9,3.9,0,0,0,.1-2.6,1.1,1.1,0,0,0,0-.8,12.1,12.1,0,0,0-.1-1.9c.4-.3.3-1.4.1-1.8.7-2.1-1.7-2.1-1,0a3.8,3.8,0,0,0-.1,1.5c-.6.2-.3,1.8-.3,2.2a.8.8,0,0,0-.1.8c-.2.2-.1,1.6-.1,1.9A3.7,3.7,0,0,0,296.5,487.4Z"/><path class="cls-2" d="M380.1,122c-8.1-39.4,42.7-76.4,61.4-29.1,10.3,28-3.4,57.5-20.4,79.8-19.8,23.1-44,51.3-37.8,84,.7,2.7,4.8,1.5,4.1-1.1h0c-5.2-23.6,9.7-47,23.9-64.7,28.8-27.5,56.1-71.3,31.8-110.1-8.8-15.9-29.3-20.8-44.9-12.1-19.5,10-23,33.9-19.6,53.5C378.8,123,380.3,122.9,380.1,122Z"/><path class="cls-2" d="M404.7,136.6a60.1,60.1,0,0,1-9.4.6C396.6,137.3,406.4,138.2,404.7,136.6Z"/><path class="cls-2" d="M414.4,126.1a.7.7,0,0,0-1.1-.9c-8.1,9.4-19.2,8.8-29.1,3-1-.4-1.7.8-1.3,1.6C390.2,140.2,409.1,137.1,414.4,126.1Z"/><path class="cls-2" d="M454.8,184.8c-6.8,10.1-17.4,21-15.3,34.2.2,1.6,2.9,1.2,2.8-.4-.9-8.2,4.5-14.7,9.9-20.3,18.6-16.2,20.5-35.4,12.1-57.6-4.4-3.5-.5,10-1,12C463.6,164,461.1,175.3,454.8,184.8Z"/></g></svg>