<svg xmlns="http://www.w3.org/2000/svg" width="68.054" height="64.76" data-name="Group 332"><path fill="#4AACD7" d="M44.244 55.348c0 3.17-2.075 5.466-4.9 5.466-1.977 0-3.84-1.634-3.84-3.268a1.774 1.774 0 0 1 1.773-1.773V51.81a5.72 5.72 0 0 0-5.719 5.719c0 3.848 3.636 7.231 7.77 7.231 5.049 0 8.865-4.036 8.865-9.4a13.02 13.02 0 0 0-4-9.527c-2.95-2.827-7.354-4.322-12.664-4.322H0v3.93h31.514c9.388-.012 12.73 5.111 12.73 9.907" data-name="Path 110468"/><path fill="#4AACD7" d="M58.657 12.313a7.24 7.24 0 0 0-7.231 7.239 5.72 5.72 0 0 0 5.719 5.719v-3.906a1.773 1.773 0 0 1-1.773-1.773 3.267 3.267 0 0 1 3.227-3.308h.041a5.474 5.474 0 0 1 5.466 5.466c0 4.167-2.868 8.988-10.957 8.988H19.977v3.93h33.189c4.518 0 8.334-1.332 11.022-3.857a12.33 12.33 0 0 0 3.865-9.1 9.4 9.4 0 0 0-9.396-9.398" data-name="Path 110469"/><path fill="#4AACD7" d="M31.514 18.441H7.651v3.93h23.863c6.389 0 10-2.345 11.9-4.314a12.2 12.2 0 0 0 3.35-8.988 9.413 9.413 0 0 0-9.383-9.072h-.319a7.23 7.23 0 0 0-6.986 7.468v.008a5.72 5.72 0 0 0 5.883 5.507l-.131-3.922a1.77 1.77 0 0 1-1.83-1.713 3.267 3.267 0 0 1 3.117-3.412h.078a5.474 5.474 0 0 1 5.646 5.278 8.27 8.27 0 0 1-2.247 6.12c-1.969 2.04-5.107 3.11-9.078 3.11" data-name="Path 110470"/></svg>