<svg id="Layer_11" data-name="Layer 11" xmlns="http://www.w3.org/2000/svg" viewBox="0 0 600 760"><defs><style>.cls-1{fill:#fff;}</style></defs><path class="cls-1" d="M587.5,500c-1.7-19.3-5.1-38.6-7.8-53.2-3.3-17.7-7.3-35.5-12-52.7-8.4-31.1-19.8-63.7-35.8-102.8l-1.2-2.8c-12.7-31-25.8-63-42-92.8-4.3-8.1-8.6-15.4-13.1-22.3a166.9,166.9,0,0,0-14.5-20,61.8,61.8,0,0,0-18.9-15.2,99.9,99.9,0,0,0-23.6-8.1c-15.5-3.5-33.4-6-47.9,3.2s-21.6,25.4-24.8,37.5a165.4,165.4,0,0,0-3.8,20.6,73.9,73.9,0,0,1-6.2-8.5,79.4,79.4,0,0,1-9.4-22,91.1,91.1,0,0,1-2.7-25.5c.1-2.7.2-5.5.4-8.1.2-6.8.6-13.8.1-20.7s-1.8-15.6-3-23.2c-.3-1.6-.5-3.1-.8-4.7A170.7,170.7,0,0,1,318.2,51c.1-9.3,1.4-18.7,2.8-28.2l.6-5.3.2-1.8a2.4,2.4,0,0,0-2.2-2.7,2.7,2.7,0,0,0-3.1,1.7c0,.1,0,.1-.1.2a189.2,189.2,0,0,0-4.8,29.2A133.3,133.3,0,0,0,312.7,73a11.1,11.1,0,0,1,.2,1.7,1.7,1.7,0,0,0-1,.1L309.5,76c-3.7,2-7.6,3.9-11.1,1.9a49.2,49.2,0,0,1-5.2-4.1l-2.9-2.4-.6-.7A162,162,0,0,0,288,51.1l-.3-2.2.7.3h.5l.6.2,1.5.6h.1l2.5.3h.6a17,17,0,0,0,10.9-4.3,2.5,2.5,0,0,0,.2-3.5,2.5,2.5,0,0,0-3.5-.6,14.7,14.7,0,0,1-7.7,2.5h-2.3a6,6,0,0,1-1.9,0,18.2,18.2,0,0,1-3-1.1c-.7-4.3-1.3-8.5-1.9-12.7s-.9-5.6-1.3-8.4l-1.1-7.1h0a3.1,3.1,0,0,0-3.9-2.2,3.2,3.2,0,0,0-2.2,3.8c1.4,9.4,2.9,18.9,4.3,28.4s2.8,18.9,2.8,27.8-1.2,19.5-2.3,28.1l-3.6,28.7c-.2,2-.4,3.9-.7,5.9-.8,6.7-1.6,13.6-2.9,20.3-1.8,9.4-4.5,16.5-8.4,22.4l-3.3,4.5-3.3,4.7a49.9,49.9,0,0,0-7.7-38.2,52,52,0,0,0-36.1-21.7c-10-1.2-20,1-27.5,2.9a127.6,127.6,0,0,0-24.6,9.1c-12.7,6.5-24.5,16.6-36.1,31-18.4,23-34.2,50.8-49.7,87.5-14.8,35.2-26.9,71.1-35.7,98.4-13.2,40.8-21.1,74.2-24.9,105.2a323.4,323.4,0,0,0-2.4,53.9c.8,18.5,6.1,29.7,16.2,34.3a23.9,23.9,0,0,0,10.3,2.2c5.3,0,10.5-1.4,15.3-3l17.2-5.9,8.9-3.1c17.6-6,35.6-12,53.3-17.7l26.4-8.5,26.1-8.3c14.3-4.7,30.7-11,43.7-22.6,9.9-8.8,18.1-21.2,24.6-36.8a142.7,142.7,0,0,0,10.3-46.4c1-18.6.2-36.9-.8-55.5-1.1-21-1.7-39.5-1.7-56.4v-3.7c0-7.9,0-16.1.3-24.1a2.9,2.9,0,0,0-.9-2.1l-.4-.3c7.9-7.3,16.2-14.8,25.2-22.5l.2-.2c2.8-2.4,5.7-5,9.2-4.8a20.4,20.4,0,0,1,6.3,1.7l6.3,2.5c9.6,3.9,16.2,7.9,21.5,13.2a106.9,106.9,0,0,1,7.1,8,4,4,0,0,0-.8,2.1v.3c1,40,1.1,76.6.3,111.7v4.1c-.8,32.1-1.7,65.3,16.2,92.8a69.8,69.8,0,0,0,35.1,28.1c7.5,2.9,15.3,5.4,22.9,7.7l2,.7c7.1,2.2,16.5,4.9,26.3,7,6.8,1.4,13.8,2.4,20.6,3.3,8.9,1.3,18.2,2.6,27,4.8a82.5,82.5,0,0,1,21.4,8.5,145.9,145.9,0,0,1,12.1,8.5c2.7,2.1,5.4,4.2,8.3,6.1,9,6.1,18,9.2,26.2,9.2a27.8,27.8,0,0,0,18.3-6.6C585.2,535.1,589.4,520.7,587.5,500ZM185.2,234.3h0ZM347.6,251h0a.4.4,0,0,1,.1-.3h0v-.4a.7.7,0,0,0,.1-.5l.3-1a.8.8,0,0,1,.2-.4,1,1,0,0,1,.1-.3,2,2,0,0,1,.4-.8l.6-.9h.1l.4-.4.7-.7.2-.2.5-.3.9-.5.3-.2h.3l1-.3h3.6a32.9,32.9,0,0,0,1.7,3.9,31.3,31.3,0,0,0,2.4,4.5l-.3.3a10.4,10.4,0,0,0-3.2,6.8,14,14,0,0,0,.2,3.5,6.4,6.4,0,0,0,.6,1.8,5.6,5.6,0,0,0,1,1.5,1.5,1.5,0,0,0,.9.6h.3l.8-.2a1.5,1.5,0,0,0,.6-1.5v-1.2a7.6,7.6,0,0,0-.1-1.5,9.7,9.7,0,0,1,.2-2.4c.2-.7.5-1.5.7-2.1s.7-1.1,1-1.6a27.7,27.7,0,0,0,7.2,6.6,2.2,2.2,0,0,0,1.2,2.5,33.6,33.6,0,0,1,10.4,9,3.6,3.6,0,0,0-.7,1,7.9,7.9,0,0,0-1.1,2.9,8.7,8.7,0,0,0,.9,6.1,1.4,1.4,0,0,0,1.3.8l.7-.2a1.7,1.7,0,0,0,.8-1.7c0-.1-.1-.2-.1-.4a5.3,5.3,0,0,1-.5-3.9,4.8,4.8,0,0,1,.7-1.8,33.2,33.2,0,0,0,8.1,8.2l.5.3,1.4,1.4c2.1,2.2,4.4,4.5,6.5,6.9a136.4,136.4,0,0,1,12.7,16.5,71.1,71.1,0,0,1,8.5,18.6,116.5,116.5,0,0,1,3,16.3c.4,2.5.7,5.1,1.2,7.6,1.4,8.6,3.5,15.1,6.6,20.6a36.5,36.5,0,0,0,6.6,8.6,61.1,61.1,0,0,0,9.4,6.6l2.4,1.4,2.2,1.2,2.9,2.1,1.3.9c2.7,2,5.5,4.1,8.1,6.2a142.3,142.3,0,0,1,15.2,13.8,132.6,132.6,0,0,1,15.3,19l-.2.3a1.7,1.7,0,0,0-.2,1.4c1.1,4.5.6,9-.2,14s-1.5,9.5-.2,14.2c1.9,7.2,7.5,13.2,17.2,18.2l3.1,1.6c3.4,1.6,6.7,3.2,9.2,6a1.6,1.6,0,0,0,1.2.6,1.4,1.4,0,0,0,.9-.3,1.8,1.8,0,0,0,.6-2.3c-1.9-3.6-5.8-5.4-9.3-7.1l-1.2-.5-2.9-1.5a16.7,16.7,0,0,0,4.4-.6,42.7,42.7,0,0,0,11.5-5.3,1.4,1.4,0,0,0,.2-1.8,1.3,1.3,0,0,0-1.2-.5,39.5,39.5,0,0,0-5.9,1.6h-.4c-1.5.5-3,1.1-4.5,1.5a26.5,26.5,0,0,1-4.8.7,9.3,9.3,0,0,1-2.2-.4,9.3,9.3,0,0,0-2.5-.4h0a1.9,1.9,0,0,0-1.4.7l-1-.8a21.4,21.4,0,0,1-6.8-9.5c-1.5-4.5-.7-9.4-.1-13.4v-.9a59.7,59.7,0,0,0,.8-8.6l3.7,7.1c.4.8.7,1.6,1.1,2.3l1.1,2.4a2.3,2.3,0,0,0,2.1,1.3l1-.2a2.4,2.4,0,0,0,1.5-3c-4-11.4-11.3-22.8-22.3-35a177.6,177.6,0,0,0-31.7-27l-2-1.5-2.1-1.7-1.4-.9a34.3,34.3,0,0,1-3.3-2.4,33.4,33.4,0,0,1-7.8-7.2,33.1,33.1,0,0,1-3.5-5.8l.7.3,3.7,1.9a80.8,80.8,0,0,1,7.2,4.4c4.9,3.2,9.9,6.3,15.1,9a48.5,48.5,0,0,0,16.5,5l4.4.2a45.7,45.7,0,0,0,12.6-1.8,42.8,42.8,0,0,0,16.5-9.2,1.3,1.3,0,0,0,.2-1.9,1.4,1.4,0,0,0-2-.2,31.5,31.5,0,0,1-7.1,4.5c-2.5,1-5,1.9-7.4,2.6a54.1,54.1,0,0,1-5.8,1.2h.1a26.7,26.7,0,0,0,8.8-5.7c6.5-6.2,8.7-14.4,9.5-20.1a39.9,39.9,0,0,0,.4-6.9v-.8a15.2,15.2,0,0,0-.6-6,1.4,1.4,0,0,0-.8-1,1.7,1.7,0,0,0-1.2-.1,1.7,1.7,0,0,0-1.2,1.5,48,48,0,0,0,.3,5.5c0,1.8-.1,3.5-.2,5.2a40.3,40.3,0,0,1-2.3,10.4,26,26,0,0,1-12.8,14.1,25.1,25.1,0,0,1-8.6,2l-1.6.2a1.4,1.4,0,0,0-1.2,1.3.9.9,0,0,0,.1.5,43,43,0,0,1-14-4.3,127.1,127.1,0,0,1-11.9-6.9l-2.4-1.5c-2.6-1.6-5.3-3.3-8.1-4.8a32.9,32.9,0,0,0-8.9-3.7,69.2,69.2,0,0,1-2.1-7.9c-.7-3.9-1.2-7.9-1.7-11.7s-1.1-8.2-2-12.3a72.8,72.8,0,0,0-7.7-20.7,98.7,98.7,0,0,0-12.8-17.4,182.9,182.9,0,0,0-15.4-15.1l-3.3-2.7c-1.7-2.1-3.3-4.5-5.1-6.8l-.9-1.1,2.4.2a23,23,0,0,0,6.4-.9h2.8c5.2-1.5,10.7,1.5,15.9,4.4l4.3,2.3c6,2.8,13.2,5.8,20.9,6h1.1a26.1,26.1,0,0,0,17.8-7c4-3.8,6.5-8.8,8.3-13.3a14.1,14.1,0,0,1,4.7-.7,19.7,19.7,0,0,0,3.5-.4,16.8,16.8,0,0,0,4.9-1.7,11.8,11.8,0,0,0,2.2-1.4,5.8,5.8,0,0,0,2.2-2.2,1.8,1.8,0,0,0,.2-1.6,1.9,1.9,0,0,0-1-1.3,2,2,0,0,0-2,.1,11.2,11.2,0,0,0-2.2,1.6l-1.8,1.2a17.9,17.9,0,0,1-4.4,1.6l-2.1.3-2.7.4c2.1-6.2,4.5-15.1,2.8-24.1a1.6,1.6,0,0,0-2-1.4,2.1,2.1,0,0,0-1.7,2.2c.9,6.2,0,13.1-2.8,21.2-1.8,5.4-4.3,11.5-8.7,15.8a17,17,0,0,1-3.4,2.6h.2c3.1-2.5,4.2-7.2,4.6-9.9a30.3,30.3,0,0,0-1-12c-.8-2.7-1.8-5.4-2.7-7.9s-1.3-3.5-1.8-5.2a45.3,45.3,0,0,1-2.4-13.7,57.2,57.2,0,0,1,2.1-15.4,1.6,1.6,0,0,0-1.2-2,1.5,1.5,0,0,0-2,1.1,47.1,47.1,0,0,0-1.3,26.8,80.5,80.5,0,0,0,3,9.5c1.8,4.9,3.7,10,3.8,15.3a20.6,20.6,0,0,1-.8,6,16,16,0,0,1-2,3.9l-.9,1.5a1.7,1.7,0,0,0,.4,2.1,1.4,1.4,0,0,0,1,.4h.5c-7.5,4.3-18.1,3.4-32.4-2.9l-4.2-2c-3.4-1.7-7.1-3.6-10.9-4.2a28.2,28.2,0,0,0,7.4-7.6c5.1-7.4,7.3-16.7,6.6-27.8-.2-6.8-.2-14,1.8-20.6a25.5,25.5,0,0,1,5.3-9.5c2.7-2.9,5.8-5.5,8.1-8.7a16.2,16.2,0,0,0,2.9-5.7,9.2,9.2,0,0,0-.6-6.3c-.4-1.1-2.2-.5-2.2.6a16.3,16.3,0,0,1-3.6,10.2c-2.5,3.1-5.6,5.6-8.1,8.6a31,31,0,0,0-6.3,15.7l-.2-.5a184.1,184.1,0,0,0-9.9-26.5,1.5,1.5,0,0,0-2.1-.7,1.6,1.6,0,0,0-.9,2l1.4,3.6c5.2,12.9,10.5,26.3,10.2,40.2-.2,7.7-1.7,13.9-4.5,19.1a28.9,28.9,0,0,1-5.5,7,26.1,26.1,0,0,1-7.2,4.2,22.6,22.6,0,0,1-12.5,1.5.6.6,0,0,1-.1-.4,3.3,3.3,0,0,0-2.3-2c-5.7-1.1-10.9-5.3-14.2-11.5s-5-13.6-6.4-20.6l-.3-1.4c-1.6-7.7-3.2-15.7-7.6-22.4l-2.5-3.5a3.1,3.1,0,0,0,.9-1.8h0c2.2-15.5,4.4-31.6,13.1-44.7a41.1,41.1,0,0,1,14-13.2c5.9-3.3,12.9-4.6,21.6-4.2a122.3,122.3,0,0,1,23.3,4.1c8.9,2.4,15.7,5.2,21.4,8.8,12.7,8,21.5,22.3,29.2,34.8l.6.9c17.7,28.7,31,60.1,43.9,90.5,11.2,26.3,25.4,61.2,36.8,97.8A658,658,0,0,1,576.8,474c1.1,8.3,2.4,17.1,3.1,25.9s1,16-1.7,24.2c-2.2,6.4-6,11.7-10.7,14.7-6.8,4.4-14.3,3.5-19.3,1.9-7.2-2.2-13.3-6.5-20-11.5l-1-.8c-5.9-4.4-12-9-18.9-12.2-14-6.7-29.6-8.9-44.7-11.1h-.3c-8.3-1.2-15.9-2.3-23.3-4-9.3-2.1-18.4-4.8-25.3-7l-4.9-1.5c-13.4-4.1-27.1-8.3-37.5-17.8-24.4-22.2-27-58.2-26.9-83.4.1-9.2.3-18.5.5-27.5s.4-17.1.5-25.7c.1-18,0-36.1-.4-54.1-.1-7-.3-13.9-.6-20.5l2.7,3.3a149.8,149.8,0,0,0,19.2,19l.8.7c6.6,5.7,13.5,11.5,19.5,18.2a108.2,108.2,0,0,1,8.5,10.5,26.8,26.8,0,0,1,4.6,10.7,8.5,8.5,0,0,1-.7,4.7,3.3,3.3,0,0,0,1.5,4.2l.6.2c.4,2.1.8,4.2,1,6.3a124,124,0,0,1,.8,13.6,97.9,97.9,0,0,1-1,16.2,1.6,1.6,0,0,0-1.5.7.1.1,0,0,1-.1.1c-2,3.5-5.2,5.1-8.4,6.2s-8.6,3.3-13.1,3.3h0a20.7,20.7,0,0,1-10.6-3,21.2,21.2,0,0,1-4.4-3.5,18.4,18.4,0,0,1-1.7-2.2,20.3,20.3,0,0,0-1.8-2.3,1.5,1.5,0,0,0-2-.3,1.7,1.7,0,0,0-1,2c.6,2.6,2.8,5.4,6.4,8.2a25,25,0,0,0,9.4,4.6,24.2,24.2,0,0,0,5.4.6,25.1,25.1,0,0,0,5.5-.6,63.5,63.5,0,0,0,11.3-4.1,18.9,18.9,0,0,0,5.6-3.8c-.4,1.6-.7,3.2-1.1,4.7-2.2,8.5-5.9,16.5-9.5,24.3s-8.2,17.8-10.3,27.5-1.8,20.8,1.8,29.2a1.9,1.9,0,0,0,1.5,1.1h.2a2.1,2.1,0,0,0,1.8-.9,2.2,2.2,0,0,0,.2-2.1c-4.7-10.6-3.3-21.5.6-32.7a23.5,23.5,0,0,0,1.6,6.7c1.9,4.7,4.9,9,7.7,13.1,1.5,2.2,3.1,4.4,4.5,6.8a28.1,28.1,0,0,1,2.7,5.5,29,29,0,0,1,1.2,6,1.5,1.5,0,0,0,1.5,1.3h.1a1.7,1.7,0,0,0,1.7-1.2c.8-2.8.3-6.3-1.7-10.5a60.7,60.7,0,0,0-5.9-9.5l-1-1.5c-3.8-5.4-7.7-11.1-8.7-17.6a15.1,15.1,0,0,1,2-10.4,1.3,1.3,0,0,0-.3-1.7l2.4-5.1.7-1.4c3.8-7.7,7.8-15.8,10.3-24.3a95,95,0,0,0,3.7-42.5,71.8,71.8,0,0,0-2.3-11h0l.5-.6.4-.3h0c.1,0,.1,0,.1-.1l.8-.4.3-.2h.1c0-.1,0-.1.1-.1l.8-.2h.6c1.2-.1,2.5.1,3.7-.1a1.4,1.4,0,0,0,.6-2.3c-1.2-1.3-3.2-1.3-4.8-1a7.6,7.6,0,0,0-3.2,1.1c.2-6.9-4.1-13.5-7.7-18.3a143.1,143.1,0,0,0-20.3-21.6c-1.7-1.6-3.6-3.1-5.4-4.7-5.2-4.5-10.7-9.1-15.4-14.2a135.5,135.5,0,0,1-10.6-13.4l-.8-1,.2-.4a5,5,0,0,0,.2-1.2A1.7,1.7,0,0,0,347.6,251ZM482.3,383.2ZM314.5,84.7c.8,5.3,1.7,10.8,2.3,16.2,1.1,9.6.8,19.2.3,29-.3,8.2-.4,17.8,1.6,27.6a90.7,90.7,0,0,0,8.6,24.2,84.6,84.6,0,0,0,6.6,10.6c2,2.7,4.2,5.2,6.3,7.7l2.1,2.5a39.8,39.8,0,0,1,6.5,10.3,81.7,81.7,0,0,1,3.6,11.6c.3,1.5.7,3.1,1,4.6.9,3.6,1.7,7.3,2.9,10.9a11.6,11.6,0,0,0-9,3.2,10.4,10.4,0,0,0-2.8,4.6,8.3,8.3,0,0,0-.4,1.5c-.6-.8-1.3-1.6-1.9-2.5a61.8,61.8,0,0,0-10.1-9.7,8,8,0,0,1,3.4-4.8,8.5,8.5,0,0,1,3.1-1.3l1.5-.2a8.1,8.1,0,0,0,2.2,0h.2a1.6,1.6,0,0,0,1-.8,1.9,1.9,0,0,0,.1-1.3,1.7,1.7,0,0,0-.8-.9,5.1,5.1,0,0,0-2.7-.6l-2.4.3a11.5,11.5,0,0,0-4.3,2.1,11.2,11.2,0,0,0-4.1,5.5,48.9,48.9,0,0,0-6.3-3.6,1.5,1.5,0,0,0-.1-.7v-.2a4.1,4.1,0,0,1-.1-2.9,10.4,10.4,0,0,1,1.5-3.4c1.6-2.2,4.2-3.5,6.7-4.8h.2a1.3,1.3,0,0,0,.6-1.8,1.2,1.2,0,0,0-1.7-.7c-2.9,1.2-6.4,2.7-8.9,5.2a8.4,8.4,0,0,0-2.7,4.6,10.7,10.7,0,0,0-.3,2.5c-3.9-1.7-7.8-3.2-11.2-4.4s-9.9-3.2-15.2-1-7.2,4.5-10.3,7.4l-1.5,1.3-7.9,7.3-3.2,3c-8.6,8-15.6,14.5-21.8,20.6l-5.6,5.5a6.7,6.7,0,0,0-3.3-6.4l-.5-.3a1.7,1.7,0,0,0-2.3.6,1.5,1.5,0,0,0-.2,1.3,1.9,1.9,0,0,0,.7,1.1h.1a4,4,0,0,1,1.6,5.2,1.6,1.6,0,0,0,.4,1.9l-12.3,12.5c-6.1,6.4-11.9,13.1-17.5,19.7l-2.1,2.5a24.5,24.5,0,0,0-4.4,4.7,2.3,2.3,0,0,0-1.5-1.2,2.2,2.2,0,0,0-2.4,1.2l-.2.3a115.9,115.9,0,0,0-3.3,15.3,134.6,134.6,0,0,0-1.8,15.4,117,117,0,0,0,1.9,30.7,74.4,74.4,0,0,0,11.5,27.9c1.3,1.9,2.7,3.7,4.1,5.5a57,57,0,0,1,5.8,8.1c2.3,4.2,3.7,9.4,4.2,15.9a73.7,73.7,0,0,1-1.1,19.3,79.3,79.3,0,0,1-6.3,18.9,1.7,1.7,0,0,0,.8,2.1l.7.2a1.5,1.5,0,0,0,1.4-.9,89.7,89.7,0,0,0,8.5-33.8,54,54,0,0,0-1.2-17c-1.3-5-3.8-9.8-8.2-15.3a81.9,81.9,0,0,1-8.7-13,72.4,72.4,0,0,1-5.3-13.6c-.5-1.9-.9-3.9-1.3-5.8l1,1.1a22.9,22.9,0,0,0,8.7,5.6,28,28,0,0,0,8.6,1.3l3.7-.2c3.2-.3,7.3-1,10.1-3.6a1.6,1.6,0,0,0,.1-2.2,1.7,1.7,0,0,0-2.2-.2c-2.4,1.9-5.5,1.8-8.7,1.6h-2.2a24.7,24.7,0,0,1-8.2-1.2c-4.7-1.6-8.9-5.7-12-11.5a1,1,0,0,0-.4-.5,97.6,97.6,0,0,1-.4-14.3,123.5,123.5,0,0,1,1.5-17.2c.4-2.9.8-5.8,1.4-8.8a7.8,7.8,0,0,1,.2-1.4,22.2,22.2,0,0,1,2.3-4.3,2.2,2.2,0,0,0,1.3-.4l.2-.2a116.4,116.4,0,0,0,8.8-8.4l1.6-1.6c3.3-3.4,6.7-6.7,10.2-10.1l10.3-10.3c3.4-3.4,6.8-6.9,10.3-10.2s8.7-8.5,13.3-12.8c-.6,20.6-.7,37.5-.3,53.1.3,8.5.7,17.1,1.1,25.4s.9,18.9,1.1,28.4c.6,27.5-1.1,62.6-19.6,90.7a85.5,85.5,0,0,1-31.5,28.5c-11.6,6-24.5,10-37,13.8l-9.7,3c-34.4,11-69,22.6-103.1,34.5l-2.7.9c-6.4,2.4-13.7,5-20.4,3.3s-9.9-7.7-11.2-11.1a59.4,59.4,0,0,1-3.2-18.4c-.5-9.3-.6-17.7-.3-25.8.9-29.7,6.7-62.1,18.1-102,8.3-29,18.6-59.8,32.5-96.9s26.9-64.9,41.8-88.8c6.9-11,16.3-25.3,28.4-37.4a96.1,96.1,0,0,1,17.6-14.2,95,95,0,0,1,22.6-10c13.7-4.3,31.5-8.3,47.2-.7a44.1,44.1,0,0,1,24.2,33,48.5,48.5,0,0,1-1.6,21.4,2,2,0,0,0,.5,2.2,46.1,46.1,0,0,0-2.1,7.5,2.4,2.4,0,0,0,0,1.2c-1.8,4.9-3.3,9.8-4.8,14.7-.7,2.1-1.3,4.2-2,6.4-4.2,13.1-10.2,27.6-22.6,35.1a32.3,32.3,0,0,1-4.1,2.2,1.4,1.4,0,0,0,.3-1.1,1.4,1.4,0,0,0-1-1.3h-2.1a48.8,48.8,0,0,1-11.5-1,13.5,13.5,0,0,1-6.2-3.1,35.3,35.3,0,0,0-5.7-12.8c-.1-1.3-.3-2.5-.4-3.7a93.8,93.8,0,0,1-.1-15.9,98.6,98.6,0,0,1,2-12.3l.9-4.4a19.8,19.8,0,0,0,2.2-5.7.1.1,0,0,0,.1-.1,26.1,26.1,0,0,1,1.7-2.8c1.2-1.8,2.7-3.8,4.7-4.2s4.5,2.1,5.2,3.1a24.6,24.6,0,0,1,2.2,3.9,39,39,0,0,0,1.9,3.5,1.9,1.9,0,0,0,2.7.5,1.9,1.9,0,0,0,.5-2.4c-.5-1-.9-2.1-1.4-3.2a21.1,21.1,0,0,0-3.1-5.7c-1.7-2.3-4.8-4.5-8.3-4s-5.9,3.1-7.4,5.1l-3,4.6a11.5,11.5,0,0,0-2.7,4.8,2.5,2.5,0,0,0-.1.8,46,46,0,0,0-2,6.6l-.6-1.2a27.7,27.7,0,0,0-2.2-3.7l-1.5-2.5c-2.3-3.9-3.6-8.4-4.9-12.8v-.4a17.8,17.8,0,0,1-.1-11.4,21.2,21.2,0,0,1,6.3-9.3,1.4,1.4,0,0,0,.3-1.8,1.5,1.5,0,0,0-1.9-.5,19.4,19.4,0,0,0-10.3,15.9c-.3,3.8.7,7.4,1.7,10.9s2.2,7.6,3.5,11.5a31.8,31.8,0,0,0,2.6,6.4,18.9,18.9,0,0,1,1.6,3.6v.9h0a3.2,3.2,0,0,0-.3.9,49.4,49.4,0,0,0,0,13.3l-.7-.7a98.9,98.9,0,0,0-16.3-11.7c-6.2-3.4-12.8-6.5-19.5-5.7a19.5,19.5,0,0,0-15.2,10.3,2.1,2.1,0,0,0,.9,2.6,1.8,1.8,0,0,0,2.5-.7,15.2,15.2,0,0,1,11.6-8,14.6,14.6,0,0,1,7.9,1.6l2.5,1.1c2,1,4.1,1.9,6.1,3a103.1,103.1,0,0,1,14.8,10.7,64.9,64.9,0,0,1,10.4,11.2,31.4,31.4,0,0,0,2.9,8.8,19.8,19.8,0,0,0,3.7,4.9,25.9,25.9,0,0,1,.9,4,1.1,1.1,0,0,0,.3.8c-10.3,3.9-18.8,11.3-26.4,17.9a158,158,0,0,1-13.5,11,98.4,98.4,0,0,1-16.2,9,108.7,108.7,0,0,1-20.1,6.2,2,2,0,0,0-1.5,2.4,1.7,1.7,0,0,0,1.4,1.5.7.7,0,0,0,.6.2h.1A89.1,89.1,0,0,0,154,298a153,153,0,0,0,16.7-13.1c3.5-3,7.1-6.1,10.9-9a54.2,54.2,0,0,1,16.4-8.8,2.7,2.7,0,0,0,1.8-1.9,3.2,3.2,0,0,0-.8-2.8l-1.1-.5h0v-.4l2.4.9a27.4,27.4,0,0,0,7.4,1,51.6,51.6,0,0,0,9-1,2.7,2.7,0,0,0-1.1,2.9,2.7,2.7,0,0,0,2.6,1.9h.7c12.1-4.4,21.6-15.6,28.3-33.1,1.8-4.7,3.3-9.6,4.8-14.3,1-3.2,2-6.5,3.1-9.7,3.1-9.2,6.7-16.4,11.3-22.4a79.5,79.5,0,0,0,4.8-6.6h0l.3.2a9.1,9.1,0,0,1,1.9,1.3l.8.9.9,1.1a25.2,25.2,0,0,0,4.5,4.1,43.9,43.9,0,0,0,5.1,3.2,18,18,0,0,0,5.6,2.1,18.7,18.7,0,0,0,4.2.4c6.3,0,13-2.6,15.7-8.6a2.7,2.7,0,0,0-.9-3.2,2.3,2.3,0,0,0-3,.4,16.6,16.6,0,0,1-16.8,5.2,16.2,16.2,0,0,1-4.8-1.7,22.9,22.9,0,0,1-4.3-3.2l-2.2-2.2-1.6-1.7a5,5,0,0,0-3.2-1.8l.6-1.1a56.2,56.2,0,0,0,4.6-12c.4-1.5.8-3,1.1-4.6a1.3,1.3,0,0,0,.4,1h.1a39.2,39.2,0,0,1,3.7,3.4l.2.2c1,1,1.7,1.9,2.5,2.8l.8,1a17.3,17.3,0,0,0,9.7,5.1,12.7,12.7,0,0,0,2.8.3,15.1,15.1,0,0,0,7.7-2.1,33.4,33.4,0,0,0,7.9-6.6c.1-.1.1-.1.1-.2a1.9,1.9,0,0,0-.8-2.7,2.1,2.1,0,0,0-1.9,0h-.2a21,21,0,0,1-7.4,4.8,15.5,15.5,0,0,1-8,.5,25,25,0,0,1-5.5-2.6l-2.3-1.2a20,20,0,0,1-3.7-2.8,15.5,15.5,0,0,0-4.1-2.5,1.4,1.4,0,0,0-1.8.6h-.1c1.3-5.9,2-12,2.8-17.9l.7-5.7a6.3,6.3,0,0,0,1.1,1.2,9.5,9.5,0,0,0,2.8,1.8,8,8,0,0,0,2,.7,17.5,17.5,0,0,0,9.7,3.9h3.6a12.9,12.9,0,0,0,3.9-.3,25.3,25.3,0,0,0,7.4-3.1,3.1,3.1,0,0,0,1.1-1.6,3.2,3.2,0,0,0-.3-1.9,2.7,2.7,0,0,0-2.8-1.1,60.5,60.5,0,0,0-6.4,2.4l-3,1.2a6.4,6.4,0,0,1-2.8.6c-4.4.1-7.7-2.3-11.1-5a2,2,0,0,0-2-.1h0l-.3-.3-.5-.5-.4-.5h-.1l-.2-.3-.7-1.1c0-.2-.1-.3-.1-.4h-.1a6.4,6.4,0,0,0-.2-.7l2.6-20.9c.2-1.4.4-2.9.5-4.4l.3-2.3.5.2a1.7,1.7,0,0,0-.3,2,13.5,13.5,0,0,0,8.6,5.1l.4.5h.1a8.5,8.5,0,0,0,4.7,1.4c4.9,0,9.7-3.8,12.1-7a2,2,0,0,0-.2-2.8,2.3,2.3,0,0,0-3-.5l-3.3,1.9a11.3,11.3,0,0,1-3.4,1.1l-3.2.6h-3.4a6.6,6.6,0,0,1-2.3-1.7.1.1,0,0,1-.1-.1l-.9-.7-1.7-1.5a12.7,12.7,0,0,0-4.1-2.3c.7-6.1,1.4-12.3,1.7-18.5.1-1,.1-2,.1-3l.8.7a16.9,16.9,0,0,0,7.3,3.7,17.6,17.6,0,0,0,3.3.3,21,21,0,0,0,12.3-4.4Z"/><path class="cls-1" d="M270.4,229.6h-4.9l-.8-.2h-.1l-1.3-.5a6.1,6.1,0,0,1-3-4.6,2.3,2.3,0,0,0-2.3-2.1,2.1,2.1,0,0,0-2,1.8v.4a10.5,10.5,0,0,0,4.9,8.3,10,10,0,0,0,4.5,1.8h2.5c1-.1,2.7-.3,3.4-1.7a2.3,2.3,0,0,0-.9-3.1Z"/><path class="cls-1" d="M255.4,241.8l-1.4-.2-.6-.3-.8-.4h-.3l-.2-.2-.4-.4h-.1l-.4-.6a.5.5,0,0,0-.2-.4l-.3-.5a1.6,1.6,0,0,0-2.4-.7,1.7,1.7,0,0,0-.9,1.6v.2a8.3,8.3,0,0,0,.4,1.5l.7,1.1a9.5,9.5,0,0,0,2.1,1.9,7.2,7.2,0,0,0,4,1.2h1.3a1.9,1.9,0,0,0,1.3-2.1A1.7,1.7,0,0,0,255.4,241.8Z"/><path class="cls-1" d="M187,337.5a1.9,1.9,0,0,0-2.5.5h0c-4.5,5.9-7.3,13.6-8.7,23.3s-.9,18.2-.2,26.6c.2,2,.3,3.9.5,5.9a194,194,0,0,1,1.1,22.9,1.4,1.4,0,0,0-2.1.9c-.6,3.6-.9,7.2-2.3,10.6a25.9,25.9,0,0,1-5.7,9.2,33.1,33.1,0,0,1-9.5,6.6,24.5,24.5,0,0,0-9.2,7.4,61.9,61.9,0,0,0-6.3,11.6c-.6,1.4,1.4,2.7,2.1,1.2a60.3,60.3,0,0,1,6.1-10.4c2.6-3.4,5.9-5.4,9.7-7.3a31.5,31.5,0,0,0,15.2-14.7,79,79,0,0,1-3.2,10.8c-3.5,9.3-8.7,17.8-13.8,25.5a2,2,0,0,0,.5,2.6,2.1,2.1,0,0,0,1.2.5,1.7,1.7,0,0,0,1.4-.7,94.5,94.5,0,0,0,13.6-22.3,89.7,89.7,0,0,0,7-24.9c1.3-10.6.4-21.3-.6-31.6-.7-8.3-1.4-16.8-1-25.2a59.3,59.3,0,0,1,7.3-26.7A1.8,1.8,0,0,0,187,337.5Z"/><path class="cls-1" d="M206.3,277.7a4.3,4.3,0,0,0,.4-.7,1.8,1.8,0,0,0-1.3-2.2h-.2c-4.6-1.7-9.9-1.1-15.5,1.7s-8.4,5.9-12.1,11.2c-2.5,3.5-4.6,7.3-6.7,10.9l-2.3,4.1a147.8,147.8,0,0,1-9.5,14.7,163.2,163.2,0,0,1-13.3,15.4l-.2.2a1.8,1.8,0,0,0,.6,2.4,1.6,1.6,0,0,0,.9.3,1.7,1.7,0,0,0,1-.3.1.1,0,0,1,.1-.1A118.3,118.3,0,0,0,160,322.5a152.9,152.9,0,0,0,10.3-13.7c1.8-2.7,3.5-5.7,5.1-8.6,3.7-6.6,7.5-13.5,13.7-18s10.3-4.9,15.3-3.9h.2l-.2.2c-5.9,5.4-11,11.8-15.7,18a148.8,148.8,0,0,0-13.3,20.1,59.9,59.9,0,0,0-3.6,8.2l-.3.2a2.4,2.4,0,0,0-1.1,1.3,57,57,0,0,1-11.8,19.2A52.4,52.4,0,0,1,140.3,358c-8.8,3.4-18.2,3.7-27.8,3.7H110a95,95,0,0,0-13,.6,94.6,94.6,0,0,0-11.5,2.5c-10.6,3-17.5,7.4-21.5,14a1.6,1.6,0,0,0,1.4,2.4,2.1,2.1,0,0,0,1.4-.7c4.1-6,10.7-10.3,18.9-12.3a38.3,38.3,0,0,1,11.7-.9l8.6.2,6.9.2c9,.3,19.4.3,29-3.3a54.3,54.3,0,0,0,26.8-21.9,84.3,84.3,0,0,1-1.7,9,69.4,69.4,0,0,1-4.2,11,164.2,164.2,0,0,1-11.2,20.6,39.9,39.9,0,0,1-7,8.8,49,49,0,0,1-8.9,6.2l-4.6,2.7a124.9,124.9,0,0,0-13.7,8.6,101,101,0,0,0-14.6,13.9l-.9,1-.6.6-1.9,2L95.7,431c-1.3,1.3-2.5,2.7-3.8,4.1h-.1A76.7,76.7,0,0,1,81,441.3a46.9,46.9,0,0,1-7.5,2.4,1.3,1.3,0,0,0-1-.6,17.1,17.1,0,0,0-5.1.9l-1.7.5a10.3,10.3,0,0,1-7-2.6,18.4,18.4,0,0,1-3-4.3,22,22,0,0,1-.9-2.1c-.5-.9-.9-2-1.5-2.9a1.4,1.4,0,0,0-1-.8,2,2,0,0,0-1.3.1,1.8,1.8,0,0,0-.8,2,22.6,22.6,0,0,0,4,8.6,13.5,13.5,0,0,0,5.1,4.4,29,29,0,0,0-5.4,3.1,22.5,22.5,0,0,0-6.5,7.2c-1.9,3.5-2.6,7.4-3.2,11.2-.2,1.4,1.8,2,2.1.6.8-3.6,1.6-7.2,3.5-10.4a19.3,19.3,0,0,1,6.3-6.4,38.3,38.3,0,0,1,8.2-3.8H67a27.2,27.2,0,0,0,6.3-.8,35.6,35.6,0,0,0,10.1-3.5,49.4,49.4,0,0,0,4.9-3,1.3,1.3,0,0,0,2.1.1l.5-.5a86.2,86.2,0,0,0-7.2,18.2c-.4,1.5-.8,3.1-1.2,4.9a2.2,2.2,0,0,0,1.6,2.5h.5l1-.2a2.4,2.4,0,0,0,.9-1.3,90.4,90.4,0,0,1,6.4-19,86.4,86.4,0,0,1,13.3-20.6c-1.6,4.5-1.2,10.3,1.4,17,.5,1.1.9,2.2,1.4,3.4a41.8,41.8,0,0,1,3.2,9.2,26.5,26.5,0,0,1-.8,13.4,69.5,69.5,0,0,1-4,9.8c-.8,1.6-1.6,3.4-2.4,5.1a2.4,2.4,0,0,0,0,1.2,1.5,1.5,0,0,0,.8.8l.6.2a1.7,1.7,0,0,0,1.3-.7,69.2,69.2,0,0,0,6.2-12.5,37.2,37.2,0,0,0,2.9-13.6,31.7,31.7,0,0,0-3-12.9l-.9-2.1a41.4,41.4,0,0,1-3.4-9.7c-.5-3.2-.5-7.8,2.7-10.9a1.9,1.9,0,0,0,.1-2.7,2,2,0,0,0-.9-.5,64.7,64.7,0,0,1,5.6-5,105.4,105.4,0,0,1,17.4-11.2c6.2-3.4,12.7-7.3,17.6-13.5a73.7,73.7,0,0,0,6.2-9.5l6.1-10.3a74.5,74.5,0,0,0,8.6-22q.8-4.1,1.2-8.1c.6-5.4,1.2-10.4,3.2-15.3,3.1-7.2,7.9-13.9,12.1-19.7s9.7-12.7,14.8-18.7l3.9-4.6a2.8,2.8,0,0,0,.6-1.8,3.2,3.2,0,0,0-.9-1.7A2.8,2.8,0,0,0,206.3,277.7Z"/><path class="cls-1" d="M73.1,356.5a11.7,11.7,0,0,0,6.3,1.9h.8a20,20,0,0,0,3.5-.9l1.7-.5a4.1,4.1,0,0,0,2.1-1,1.6,1.6,0,0,0,.5-1.1,1.5,1.5,0,0,0-.4-1.1,1.4,1.4,0,0,0-.8-.5h-.3a4.8,4.8,0,0,0-2.4.3l-.6.2-.9.2-2.1.5a8.3,8.3,0,0,1-5.3-.9,5.9,5.9,0,0,1-1.7-1,2.5,2.5,0,0,1-.9-1.9,30.3,30.3,0,0,1,.4-6,1.6,1.6,0,0,0-1.3-1.8A1.5,1.5,0,0,0,70,344a18.3,18.3,0,0,0-.2,7A7.2,7.2,0,0,0,73.1,356.5Z"/><path class="cls-1" d="M73.8,386.1l.7-.2,3.6-2.1c2.8-1.8,5.7-3.6,8.8-4.2a15.5,15.5,0,0,1,6.4.4,12.3,12.3,0,0,1,5.4,2.6,2.8,2.8,0,0,0,3.7-.3,2.3,2.3,0,0,0-.1-3.2h-.1a15.8,15.8,0,0,0-6.8-3.8c-2.9-.7-5.4,0-8.1.7h-.2a37.1,37.1,0,0,0-14.3,7.5,1.5,1.5,0,0,0-.3,2A1.7,1.7,0,0,0,73.8,386.1Z"/><path class="cls-1" d="M67.1,390.8h.2l2-1.6,2-1.7h0a1,1,0,0,0,.3-1.4,1.1,1.1,0,0,0-1.4-.2L68,387.3l-2.1,1.6c-.1,0-.1,0-.1.1a1,1,0,0,0,.1,1.6,1.1,1.1,0,0,0,.7.3Z"/><path class="cls-1" d="M102.4,295.2a16.1,16.1,0,0,0,10.9,3.8c4.1,0,8.8-1.1,14.3-3.3a1.9,1.9,0,0,0,1.1-2.4,1.8,1.8,0,0,0-2.2-1.1h0l-1.6.4c-6.2,1.8-13.2,3.8-19.1.3a10.3,10.3,0,0,1-4.8-7.6c-.3-3,.7-5.8,3.3-9.1a1.7,1.7,0,0,0-.1-2.2,1.4,1.4,0,0,0-1.9-.1,13.3,13.3,0,0,0-4.9,11A14.7,14.7,0,0,0,102.4,295.2Zm24.3-2.1Z"/><path class="cls-1" d="M233.4,373.6h.2l.6-.2a21.3,21.3,0,0,0,8-10.4,1.2,1.2,0,0,0-2.3-.7,18.6,18.6,0,0,1-6.9,9.4,1.2,1.2,0,0,0-.4.8h0a.9.9,0,0,0,.3.7A.5.5,0,0,0,233.4,373.6Z"/><path class="cls-1" d="M496.1,299.1a1.8,1.8,0,0,0-1.5.8h0a37.9,37.9,0,0,0-1.8,4.2c-.7,1.6-1.4,3.3-2.2,4.9a36.1,36.1,0,0,1-5.4,7.8,28.4,28.4,0,0,1-7.6,5.8,38.3,38.3,0,0,1-11.1,3.2c-2.2.3-4.5.6-7,.7H448.4a51,51,0,0,1-11.5-14.2,77,77,0,0,1-4.8-12q-1.4-4.1-3-8.1a41.1,41.1,0,0,0-5.9-10.1,37.4,37.4,0,0,0-7.8-6.5c-7-4.4-15.1-5.9-22.3-4.1a2.3,2.3,0,0,0-1.7,2.7,2.2,2.2,0,0,0,2.4,1.9h.3a29.9,29.9,0,0,1,17.6,3.9c4.8,2.9,8.5,8,11.3,15.5l.4,1.1c2.4,6.3,4.9,12.8,8.8,18.6a70.9,70.9,0,0,0,13.5,14.9c6.6,5.5,13.2,9.1,19.6,10.8h.5a1.9,1.9,0,0,0,1.8-1.3,1.7,1.7,0,0,0-1-2.2,88.5,88.5,0,0,1-13.2-7,25.2,25.2,0,0,0,4.8.5h1.3c2,0,4.1-.2,6.1-.4a51.3,51.3,0,0,0,12.7-3.1c6.5-2.7,11.9-7.9,15.7-14.9,1.7-3.2,3.7-7.4,4-12A1.7,1.7,0,0,0,496.1,299.1Z"/><path class="cls-1" d="M532.5,422.8a2.3,2.3,0,0,0,1.9-2.4c0-3.6-1.7-7.6-5.2-12a51.6,51.6,0,0,0-9.3-8.8,44.9,44.9,0,0,0-11.7-7,24.5,24.5,0,0,0-6.6-1.6c-2.5-.3-5.1-.4-6.7.8a1.7,1.7,0,0,0-.5,2.2,2.8,2.8,0,0,0,.9.7h.5a12.2,12.2,0,0,0,2.7-.1,13.7,13.7,0,0,1,2.9.2,17.2,17.2,0,0,1,5.4,1.8,42.5,42.5,0,0,1,10,6.9,48.6,48.6,0,0,1,7.8,7.9,34,34,0,0,1,2.8,4.5,23.7,23.7,0,0,1,1.3,3.2l.8,2.1a2.6,2.6,0,0,0,2.5,1.6Z"/><path class="cls-1" d="M460.5,463.9l1.5.2a9.1,9.1,0,0,0,4-1,6.5,6.5,0,0,0,1.6-.9c.1-.2.3-.3.4-.4h0a2.6,2.6,0,0,0,0-3.6,2.3,2.3,0,0,0-3.2-.4l-.5.3-.4.3h-.2c-.1-.1-.2-.3-.1-.4h.1a2.1,2.1,0,0,0,1-1.4,2.2,2.2,0,0,0-.2-1.8,1.3,1.3,0,0,0-.6-.7,30.5,30.5,0,0,0,2.8-5c.2.5.5,1,.7,1.4,1.5,2.7,3.6,5.1,5.3,7.6a20.9,20.9,0,0,1,3.9,7.9,12,12,0,0,1,.2,3.8c-.2,1.4-.9,2.7-.9,4.1a1.4,1.4,0,0,0,2,1.2c2.8-1.2,3-5.6,2.7-8.1a20.1,20.1,0,0,0-3.3-8.8c-1.8-2.6-3.9-5-5.8-7.6a26.2,26.2,0,0,1-3.3-5.3c.3-1,.5-2.1.8-3.2a25.7,25.7,0,0,0-.5-12.6c-.7-2.2-2.7-7.7-6.8-10.4a1.6,1.6,0,0,0-2.1.2,2,2,0,0,0-.2,2.2c.1.1.1.2.2.2a39,39,0,0,1,3.1,4,18.2,18.2,0,0,1,2.1,4.7,21.6,21.6,0,0,1,.4,10.4,2.4,2.4,0,0,1-.2.8,1.4,1.4,0,0,0-.2.7h0a24.6,24.6,0,0,1-4,8.5l-.8,1c-1.7,2.4-3.9,5.4-2.8,8.9A4.8,4.8,0,0,0,460.5,463.9Z"/><path class="cls-1" d="M416,338.2a199.8,199.8,0,0,1,4.5,24.3,147.8,147.8,0,0,1,.3,24.9c-.4,4-.9,8.2-1.6,12.4s-1.5,8.4-1.9,12.6a39.9,39.9,0,0,0,1.2,12.9,112,112,0,0,0,4.4,11.9c3.5,9.3,7.1,18.6,10.7,27.9a2.5,2.5,0,0,0,1.9,1.5h.4a2.1,2.1,0,0,0,1.8-.9,1.8,1.8,0,0,0,.3-2l-9.6-24.6c-.4-1.2-.9-2.4-1.4-3.6-2.6-6.6-5.4-13.4-5.2-20.5a89.8,89.8,0,0,1,1.5-12.7c.8-4.6,1.4-8.6,1.7-12.4a133.7,133.7,0,0,0,0-25.3,112.8,112.8,0,0,0-5.6-27.6,2.2,2.2,0,0,0-.9-1,1.7,1.7,0,0,0-1.4-.2,2.1,2.1,0,0,0-1.1.8,2.3,2.3,0,0,0-.1,1.4C415.9,338.1,415.9,338.2,416,338.2Z"/><path class="cls-1" d="M300.6,209.6a32.9,32.9,0,0,1-20.3-2.2,35.8,35.8,0,0,1-10-6.7c-1.4-1.4-3.5.7-2.2,2.2a34.1,34.1,0,0,0,20,11.2,36.2,36.2,0,0,0,22.8-3.7c3.7-1.9,8-4.7,9.9-8.6.7-1.3-.8-3.2-2.2-2.2-2.9,1.9-5.3,4.4-8.4,6.2A33.2,33.2,0,0,1,300.6,209.6Z"/></svg>