<svg xmlns="http://www.w3.org/2000/svg" width="45" height="45"><path d="M42.191 31.348c-.03-1.258-.062-2.578-.16-3.926-.195-2.7-1.52-8.09-3.601-12.727-1.805-4.05-4.77-8.879-8.645-8.879-1.61 0-2.832.442-3.633 1.309-1.109 1.203-1.113 2.863-1.015 4.012q.053.762.02 1.523l-1.286-.96V4.07h-2.176v7.578l-1.332.954c.02-.422.055-.903.098-1.457.098-1.145.094-2.81-1.016-4.008-.8-.871-2.023-1.313-3.633-1.313-3.87 0-6.84 4.828-8.648 8.88-2.078 4.64-3.402 10.019-3.601 12.726-.098 1.347-.13 2.66-.16 3.93q-.017.716-.04 1.425c-.09 2.996.598 5.016 2.106 6.16.898.684 2.031 1.016 3.468 1.016 2.25 0 4.907-.828 7.477-1.621l.129-.04c2.918-.91 4.129-2.32 4.793-5.593 1.309-6.437.773-9.203.34-11.426v-.02a24 24 0 0 1-.223-1.292A24 24 0 0 0 20.7 16.3c-.11-.36-.195-.727-.265-1.094l2.316-1.633 2.223 1.653v.07l1.797 1.246.046-.777c.016-.25.086-.672.172-1.164.02-.11.04-.23.059-.348l.098-.133-.067-.047c.16-.98.324-2.16.246-3.117-.097-1.172.043-1.922.446-2.355.375-.407 1.058-.614 2.035-.614 2.043 0 4.457 2.758 6.633 7.563 1.523 3.37 3.195 8.582 3.44 12.023.095 1.29.126 2.578.157 3.824q.017.718.04 1.438c.07 2.219-.348 3.687-1.243 4.367-1.71 1.305-5.402.152-8.98-.957l-.13-.039c-2.152-.668-2.8-1.441-3.308-3.95-1.008-4.956-.855-6.054-.648-7.57l.027-.19-2.031-2.462-.137.992c-.25 1.813-.398 4.547.645 9.676.66 3.274 1.87 4.68 4.793 5.594l.125.039c2.57.797 5.222 1.617 7.476 1.617 1.441 0 2.574-.328 3.469-1.012 1.512-1.148 2.199-3.168 2.101-6.168a83 83 0 0 1-.043-1.425m-22.988.922c-.508 2.503-1.156 3.277-3.308 3.949l-.125.039c-3.575 1.11-7.274 2.262-8.985.957-.898-.684-1.312-2.153-1.242-4.367q.022-.72.039-1.442c.031-1.238.063-2.52.156-3.82.246-3.45 1.918-8.66 3.442-12.031 2.175-4.809 4.59-7.559 6.633-7.559.976 0 1.66.203 2.035.61.402.437.539 1.187.445 2.355-.309 3.754-.078 4.574.305 5.941.316 1.102.55 2.23.691 3.371.07.489.16.97.25 1.438.395 2.016.887 4.543-.336 10.559m0 0" style="stroke:none;fill-rule:nonzero;fill:#42515a;fill-opacity:1"/><path d="M30.16 14.516v-.575l-2.039.54v.332c0 .417-.23.769-.539 1.257-.16.25-.34.528-.508.848-.96 1.844-2.281 4.375-.222 7.355.464.672.996 1.336 1.511 1.98 1.367 1.696 2.657 3.298 2.367 4.571l-.046.203c-.262 1.172-.293 1.32-1.227 2.184l-.2.18.645 2.32.528-.484c1.258-1.16 2.015-2.13 2.425-3.922.52-2.301-1.167-4.39-2.796-6.414-.489-.61-.997-1.239-1.418-1.848-1.313-1.902-.54-3.39.359-5.117.566-1.082 1.145-2.192 1.16-3.41M16.934 24.75c0-.91-.727-1.652-1.622-1.652-.89 0-1.617.742-1.617 1.652 0 .914.727 1.656 1.617 1.656.895 0 1.622-.742 1.622-1.656M16.41 30.512c0-.914-.726-1.657-1.62-1.657-.892 0-1.618.743-1.618 1.657 0 .91.726 1.652 1.617 1.652.895 0 1.621-.742 1.621-1.652M10.852 26.168a1.66 1.66 0 0 0-1.555.996 1.66 1.66 0 0 0 .336 1.816 1.654 1.654 0 0 0 2.836-1.156 1.636 1.636 0 0 0-1.617-1.656m0 0" style="stroke:none;fill-rule:nonzero;fill:#42515a;fill-opacity:1"/></svg>