<svg id="Layer_1" data-name="Layer 1" xmlns="http://www.w3.org/2000/svg" viewBox="0 0 150 150"><defs><style>.cls-1{fill:#c3e3f2;}.cls-2{fill:#fff;}.cls-3{fill:#ffd555;}.cls-4{fill:#21282d;}.cls-5{fill:none;stroke:#21282d;stroke-linecap:round;stroke-linejoin:round;stroke-width:5px;}</style></defs><circle id="Ellipse_282" data-name="Ellipse 282" class="cls-1" cx="74.44" cy="75.29" r="73.51"/><path id="Path_110788" data-name="Path 110788" class="cls-2" d="M78.5,113.79H37.2v-64H78.5V75.86L68.18,77V83L78.5,84.72Z"/><rect id="Rectangle_1517" data-name="Rectangle 1517" class="cls-2" x="63.02" y="77.47" width="47.79" height="6.13"/><rect id="Rectangle_1518" data-name="Rectangle 1518" class="cls-3" x="69.02" y="37.19" width="36.75" height="36.75"/><path id="Path_110790" data-name="Path 110790" class="cls-4" d="M46.85,78.46a2.45,2.45,0,1,0,0,4.9H51a2.45,2.45,0,0,0,0-4.9Z"/><path id="Path_110791" data-name="Path 110791" class="cls-4" d="M109.23,73.55h-2.45V39.25a2.45,2.45,0,0,0-2.45-2.45H67.57a2.45,2.45,0,0,0-2.45,2.45v34.3H62.67A2.45,2.45,0,0,0,60.22,76v9.79a2.5,2.5,0,0,0,2.45,2.5h46.56a2.5,2.5,0,0,0,2.45-2.5V76A2.45,2.45,0,0,0,109.23,73.55Zm-7.35,0H88.4v-13h13.48Zm0-31.85V55.62H88.4V41.7ZM70,41.7H83.5V55.62H70Zm0,18.82H83.5v13H70Zm36.75,22.87H65.12V78.45h41.66Z"/><polyline class="cls-5" points="78.5 95.29 78.5 112.79 38.51 112.79 38.51 48.79 65.36 48.79"/></svg>