<svg xmlns="http://www.w3.org/2000/svg" viewBox="0 0 1102 608"><defs><style>.cls-1{fill:#42515a;stroke:#42515a;stroke-miterlimit:10;}</style></defs><g id="Layer_5" data-name="Layer 5"><path class="cls-1" d="M354.8,427.6c4.1,8.9,10.8,15.4,19.2,20.2,16.5,10.6,38,16.9,56,6.6,15.9-4.2,25.5-21.1,31.3-35.3,8.5-18.7,2.2-39.7-7.3-56.8-30-53-114-25.6-105.8,34.9a1.3,1.3,0,0,0-.1.6h0C347.5,407.5,350.7,418.9,354.8,427.6Zm11.4-72.8c68.9-58,136.8,54.1,61.9,98.5-9.1,2.4-17.5,5.3-27.2,4-17.4-3.8-33.8-16.2-42.5-31.8-4.7-9-4.4-19.5-7.4-28.8C351.1,381.3,355.2,366,366.2,354.8Z"/><path class="cls-1" d="M934.6,461.2c20.7,9.1,43.2-4.8,52.7-23.6,13.8-26.2,5.4-79.4-23.7-92.4-9.5-4.2-26-3.4-34,3.2,5.5-1.6,10.5-4.8,16.7-4.4,29.7,1.5,40.9,29.7,43.5,55.5,5.4,28.2-18.6,68.9-51,58.4-40.5-17.2-42-80-11.8-107.5,1.3-1.1-.5-2.8-1.8-1.8h0C892.7,375.5,892.9,443.2,934.6,461.2Z"/><path class="cls-1" d="M1004.7,374.5c-8.5-31.8-38-63.5-73.4-52.1-3.2-1-30,18.2-20.2,17.1,65.3-50,111.2,51.5,84.4,104.7-7.7,16.5-21.2,26.8-36.2,36.3a2.1,2.1,0,1,0,2.1,3.6C1003.5,463.9,1015,417.2,1004.7,374.5Z"/><path class="cls-1" d="M1084.4,344.3c-1.6-5.5-5.5-9.5-8-14.6.8-33.6,10.1-76.3-14.9-103.3-18.6-37.7-31.3-89.4-73.7-107.7a7.1,7.1,0,0,0-2.2-1.3,3.1,3.1,0,0,0-2.9-1.7c-22.2-19.9-52.5-25.6-81.5-25.1.2-2.7,5.7-12,1.5-12.3,6.6-22.4,11.9-45.2,19.4-67.4,2.9-.6,2.7-5.5-.7-5.5a2.8,2.8,0,0,0-2.5,3.9c-6.1,22.9-13,45.8-17.2,69.2-2.9,2.7-3.2,8.4-5.2,12-46.6-.6-93.3-4.1-139.9-2.2a1.8,1.8,0,0,0-1.8-1.9c-39.8,1.5-84-6.4-120.6,12,1.1-6.4-19.3-1.4-23.8-2.2-27.3-4.7-56.7-1-84.8-.3-24.3.7-52,1.2-69,21.4-40.4,8.7-78.4,26.1-113.8,47.2-22.6,13.6-44.1,28.8-66,43.3-7,4.6-14.3,9.6-23.1,8.8-.9-.1-1.5.8-1.5,1.7-24.3,1.6-48,7.7-71,15.3-23.8,5.7-47.7,10.4-69.9,21-13.9,6.1-30.9,10.5-41.8,21.3-15.9,8.6-20.4,26-25.6,41.9-5.1,7.1-12.3,14.7-8.3,24.1a.8.8,0,0,0,1,.5c1.2-6.8,2-13.2,7.6-18.3,10.6-14.2,9.5-36.3,26.9-45.9.1,0,.2.1.4,0,3.5,11.7,2.3,24,2.9,36a1.3,1.3,0,0,0,.4,2.3h0c7.5,2.4,19.8,1.2,27.8,1.9,29.2,2,58.3-1.5,87.4-2.8,0,.5.4,1,.9.8h0c5.5-2.4,9.9-6.1,14-10.2,51.9,3.1,104.5,1.2,156.6-.3-9.3,9.7-18.9,21.8-21.8,34.6-56.2-2.9-116.4,1.6-172.7,2,.3-4.1,3.5-16.9-4-14.8a1.5,1.5,0,0,0-.5,2c2.1,1.3,1.7,3.1,1.4,5.4s.4,4.1.1,6.1c-1.7-.4-2.1,2.4-.4,2.4-1,4.4-1.5,8.7-2.7,12.9.5-8.1,2.1-16.9.7-24.9,2-7.8-15.2-3.4-19.5-3.8l-21.8.9L89.1,330c-2.5.5-16.8-2.8-11.5,2.6h0c23,3.7,48.7-.2,71.9-.2a75.8,75.8,0,0,0-1.7,24.7c-17.1.1-34.3,1.6-51.4.3-3.5,0-18-1.7-18,2.2h0c23.1,2.6,46.7-.1,69.8,1.5-26.4.9-52.9,2-79.4,1.9-2.9.7-38.2-3.2-29.1,3.2h.7a.8.8,0,0,0,.2.7c-.6,9.8,7.6,9.9,3.6-.3,58.8,2.2,117.7-3.9,176.5-1.8,24.4,1.4,36.6-2.6,31.6,28q-4.8-.5-9.6-.6a4.4,4.4,0,0,0,.8-1.1c6.8,4.1,8.2-14.2,3.2-16.7,3.6-5.5-3-10.3-2.2-1.6-48.6-2.4-97.5-1.5-146.2,0-16.5.6-33,.9-49.3,3-.8.1-.9,1.4,0,1.4,65-2.3,130-3.2,195,.3a8.1,8.1,0,0,1,.7,2.2c-62.5-3.3-125-2.6-187.5-.8-2.9.1-12.6,1.9-12.3-3.1a1.1,1.1,0,0,0-1.9-.8h-.1a4.2,4.2,0,0,0-1,1.7c-3.3-10.9-8.3-21.5-4.6-32.6a1,1,0,0,0-1.9-.8h0c-8.8,17.3,5.3,34.3,3.9,52.2a2.3,2.3,0,0,0,2.6,2.3,1.9,1.9,0,0,0,.2,3H42a48.8,48.8,0,0,0,14.1,7.4,1.2,1.2,0,0,0-.5.7h0c-1.6,6-9,15.2,2.8,13.9,7.1-.7,14.3,1.2,21.3.8,2.1-.9,4-3.1,5.6-4.7l8.2.3a1.6,1.6,0,0,0,.5,1.1h0c2.4,24.4,22.5,44.1,44.6,53.5,24.1,9.6,54.1,9.3,77.2-2.8,13.4-8.4,24.1-23.8,32.5-36.8,1.6-2.5-2.4-4.8-4-2.3-7.2,11.3-16.7,25.1-27.8,33.1C175,490.6,106.2,471.7,98,419.7c10.9.6,21.8.8,32.6,1.6-.2,17.6,19.2,27.9,34.6,30.6,13.4,2.4,30.5-4.9,35.4-18-.5-3.9-9.5,9.8-12.8,10.1-.4-3.6-4.5-7-6.4-10.1a163.5,163.5,0,0,1,26.1-4.4c1.9-.1,1.5-3.1-.3-2.6-22.8,3.7-39.9,5.5-60.6-6.6-19.7-6.4-41.4-5.7-61.9-4.5a2.4,2.4,0,0,0-3.4.1c-3.1,3.2-5,3.4-9.1,3s-10.4-.5-15.4,0a22.6,22.6,0,0,0,2.1-9.5c40.4,7.5,82,.4,122.8,1.6,44.6-2.7,89.1,8.2,133.4,2.2,21.4-.2,23.3-10.9,23.3-29.5a85.6,85.6,0,0,1,13.7-37.4,1.7,1.7,0,0,0-.3-2.5,1.3,1.3,0,0,0,1.7-.4c6.1-7.9,11.2-16.6,17.5-24.2-.3,1.5,1,3.3,2.7,2.7h0c24.3-10,49.7-5.8,71,9.3,47.2,34.2,40.6,119.1-15,140.9-22.7,5.9-57.6,4.9-77.3-8.7-9.7-6.4-22.8-14.6-24.4-27.2a2.6,2.6,0,0,0-1.8-2.5c4.8-4,5.5-13.2,4.6-18.5-.6-3.6-6.2-2.1-5.4,1.5,1.9,8.5-1.4,15.8-11.2,14.2-12.1.8-24.2,1.9-36.4,1.9s-24.9-.2-36.5-3.9c-3.1-3.3-.8-5.8-7.4-7.1-1-.4-1.8,1.2-.8,1.8,3.6,1.5,3.2,5.4,6.3,7.1,26.6,7.5,55.8,4.8,83.2,4.6,1.6,21.7,35.1,40.1,54.8,42.9,26.3,1.9,57.1,6.2,77.5-14.3,51.8-45.6,31.9-138.8-37.7-152.9-15.3-4.9-31.8-2-45,6.9,24.4-28.9,73.5-21.6,97.3,4.4,18.9,20.5,16.9,49.7,15.8,75.5-.3,8.7-.3,18.1,3.1,26.3a4,4,0,1,0,7.3-3.1c-7.4-17.2-1.9-37.1-4.2-55.3s-5.4-33.5-16.5-46.9c-23.5-28.2-73.7-36.8-102-11.4-.4-1.3-2-2-3.2-2.6,38.4-35.3,108.3-25.4,126.3,26.5a108.8,108.8,0,0,1,5.3,64.3c-.8,3.3,4.4,4.7,5,1.4s1-6,1.3-9c.2,3.7.4,7.4.9,11.1-3,.5-22.1-2.1-15.2,2.9,49.6,3.4,99.3-3.3,149-.7,24.9,1.3,49.9,3.9,74.9,2.7,52.1-5.3,104.3-.7,156.5.7,0,4.9.2,9.9.6,14.8-51.7-1.9-103.6.5-155.3,1.7-17,1.1-34.3.1-51.2,1.9a.9.9,0,0,0,0,1.7h-.1c68.1,0,136.4-3.2,204.5.4,0,1.2,0,2.4.1,3.6-5.1-.2-12.9-1.7-16.4,2.3-13-1.2-26.2,2.5-38.6-2.6-8.4-2.2-16.4-1.2-24.8-.3s-22.6,1.2-31.5,3.2a.8.8,0,0,0-.6,1c17,1.9,40-5.3,57.3.8,21.4,7.3,24.7-4,48.6,7.2a.9.9,0,0,0,.3.6h0c7.6,17.1,14.8,29.1,31.4,39.1,7.6,5.1,15.7,4,24.4,4.4s28.7,1.4,38.7-.1c2.2-.3,1.3-3.2-.4-3.4-27.2-1.4-59.2,4.5-78.8-19.7-6.8-6.5-7-16.9-13.2-23.2.6-4-5.4-4.7-8.1-6,4.1-.5,8.2-1.3,12.3-1.5,5,3.9,4.9-5,5.2-8.1,3-3.1,3.2-26.8-3.4-24.7-48.3-.9-96.7-5.5-144.9-1,3.4-8,1.7-19,3.2-28s1.6-17.3,1.3-25.7h.4c25.5,2.8,51.1-.5,76.7.5,12.8.3,25.6.7,38.3,1.7,7.2.5,17.1,2.9,24-.9-4.2,12.2-7.4,24.6-10.8,37-.3,3.5-4.5,11.5-1.1,13.6,4.9-4.5,5.5-13.8,7.7-20.1s4-13.7,5.9-20.6c4.9-26.1,25.6-41,40.4-61.1,9.8-20.6,15.1-50,.3-69.4,42.7-.8,31.2-5.6-2.4-4.1l.3-1h.5c39.3,1,79.1-5,118.3-.7-22.6-2.1-43.5,1.7-65.9,2-6.7,0-17.2-3.1-22.7.3h-.1c17.8,5.5,37.2,2.2,55.6,1.3a246.9,246.9,0,0,1,28.5,1.1c5.5.5,15.4,1.5,13.6-7.2a2.2,2.2,0,0,0-1.5-1.8,2.3,2.3,0,0,0,.8-2.8c-13.4-25.1-31-60.9-58.4-72.4-17.1-4.2-35.1-4.8-52.6-6.9s-38.7-6.7-54,.6c-4-5.4-9.2-11.1-15.6-11.3-48.5-7.2-99.9-4.2-148.7-5-50.9-5.2-105.7,4.5-145.2,39.7-25.4,21.8-58.1,47.2-59,83.5,2.5,6.9,7.2-21.1,9.8-23,16.4-33.2,55.3-64.4,87.7-81.7,33.3-15,72.2-17.1,107.9-14.1,3,8.5,6.9,19.3,9.8,26.5-.8-8.5-2.4-18.2-6.6-26,47.3.7,97.5-1.3,144.5,3.9,22.1,12.1,41.8,68,48.7,92.6a3.2,3.2,0,0,0-1.1,2.4l-13,.3a.4.4,0,0,1,.1-.3c12.7-5.1-26.8-73-33.1-83.3s-20.1-9.9-31.4-9.3c-16.1.8-32,.6-48.1.1-17.9-.5-36.7-2.3-54.4,1.4-1.9.4-1.7,2.2-1.3,3.6,3.8,14.5,8.3,28.4,9.2,43.5s1.1,28.7,3.1,43a.7.7,0,0,0,1.3,0h0c1-28.8.6-57.9-8.2-85.6,28.2-.2,56.5,1.1,84.7.7,12.3.3,25.9-4,37.4,2,5.9,3.7,8.9,11.9,12.1,17.8,10.5,20.2,24.6,39.5,26,62.8-34.8-2.4-73.9,1.7-109,2.1-10.3,1.2-27.6-1-36.4,3.4,42.2,4,90.8-3.7,133.5-1.5-46.8,2.2-94.1,2.1-140.6,7-2.2-2.1-7.2-.6-10.3-1.2,1.3-23.9-.6-50-6.2-72.4h0c3.4,23.9,4.1,48.2,3.8,72.3-52,1.3-104.1,2.7-155.9,7,11.8-3.9,24.4-2.8,36.6-2.9a2.4,2.4,0,0,0,2.3-1.5c15.4-1.2,6.2-32.8-4-31.5-6.2-3.9-41.4-4.9-45.8.6-5.8,2.6-20.5,10.5-17.6,17.9-3.1-.7-6.6.8-9.7,1.7,27.4-39.3,66.6-77.2,116-83.7,16.8-1.8,33.7-.7,50-5.5,2.4-.5,1.4-4.4-1-3.6-29.6,6.3-61.7,1.6-89.1,17.4-30.2,16.1-88,61-88.6,97.4a1.8,1.8,0,0,0,3.3.8h.2c67.5-2.7,135.2-9.5,202.9-10.9.3,7.6,4.2,15.3,5.4,22.9,4.5,25.2.5,50.8-.1,76.1l-25.7,1.7a29.7,29.7,0,0,0-11.7,2.2h0c6,2,15.2.3,21.5.3l15-.8a47.3,47.3,0,0,0,.5,7.5c-59.2-2.2-118.4,3.4-177.5,3.7-4.5.8-24.6-3-24.9.6,15,4.7,32.2,1.1,47.8,1.4,51.7-2.7,103.7-3.1,155.2-1.7-1.5,8-1.7,16.5-2.3,24.5s-1.5,18.5-2,27.7a1.1,1.1,0,0,0,1,1.2c-26.1,2.2-52.1.2-78.2-1-47-2.5-93.6,2.6-140.5,3.3-.9-27,2.6-53.9,1.2-80.9-1.2-21.2,10.5-61-3.7-77.2-1.4,3.1,2.4,6.9,2.7,10.3,2.2,9.5,1.5,19.5.5,29.1-4.3,27.8-2,55.8-3.2,83.8-1.8-76.2-89.3-113.5-144.5-60.5.1-4.1-32-.1-37.5-1.1,5-8.2,7.8-22.6.7-30.4-9.6-7.8-23.9-4.9-35.4-5.9-13.8.1-26.5,4.4-40,6.6-12,1.9-22.8,4.3-31.9,12.8s-16.9,19.7-27.3,27.6a1.6,1.6,0,0,0-1.8-1.5c-19.7,1.4-39.5,0-59.2,1.4-17.3.4-35.6-.6-52.9,0-1.5-12,1.2-25.4-4.1-36.5a356.8,356.8,0,0,1,85-33.3c30.6-7.3,60.3-19.4,92.1-21.2a1.9,1.9,0,0,0,2,1.1c18.5-1.7,36.5-4.8,55.1-4.9,54.2.8,108.6,4.5,162.6-.3a1,1,0,0,0,1.4.6h.1c41.6-14.2,73.1-54.5,106.7-81.3,9.7-9.2,20.9-17.6,34.5-19.6,103.3-25.7,212.5-6.1,316.2-.2,17.4,1.8,34.8,2.8,52.3,4.5,35.3,29.5,45.5,56.1,64.8,96.1-1.5-.6-5.8-.2-3.5,2.1h0c5.4,1.8,10.6,4.2,14.7,8,8.6,8.4,12.4,20.4,13.9,32.1-1.7,0-4.8-.1-4.7,2.2-.6,20.1,1.7,40.8.3,61.2,0,1.8,2.9,1.8,3,0s.1-4.6.2-6.8h1.6c-.1,3.2-.3,6.3-.5,9.4a53.6,53.6,0,0,0-6.9.6c1.4-32.8,7.1-72.3-11.6-100.6,12.9,31.1,6.9,67.7,8.3,101.2-16.8,2-33.7,1.5-50.4,3.6a2.7,2.7,0,0,0,.7-4.1c-17.5-22.6-43.5-40.2-73.4-35-37.7,5.7-54.9,42.8-65.4,75.4-.7,3.6-12,28.3-7.7,27.3h0c13.8-23.4,16.7-52.3,33.9-74,19.9-29.5,67.5-34.3,92.7-9.3,6.1,6.4,11,14,17.3,19.9l-6.6,1c-1.6.2-1.3,3,.4,2.9h0c23.3-1.9,46.8.3,69.9-3.8,3.4,10.2,10.5,19.4,11.5,30.7-15.2.7-29.8,5.2-44.7,7.7-2.4.9-18.7.3-16.2,3.7h.1c19.2,1.4,39.1-3.4,58.3-5.3-3.4,7.4-4.7,16.2-9,23.4-8.5-1.6-21.6,7.7-30.7,9.6s-17,3.8-25.1,6.3c11.9-44-25-110.1-75.8-98.4-39.8,8.7-58.7,50.6-65.5,87.2a1.2,1.2,0,0,0,2.3.6h0c6.3-16.5,10.5-33.7,19.7-49,31.9-49.5,90.1-46,109.9,11.6a95.3,95.3,0,0,1,3.8,48.8,3,3,0,0,0,2.2,3.3c20,2.1,38.5-9.7,57-15.5a1.5,1.5,0,0,0,2.4.6h0c3.7-3.4,16.7-25.9,11.5-28.9l.8-.4C1096.6,369.8,1085.8,348.9,1084.4,344.3ZM41,367.6a.1.1,0,0,1-.1-.1H41ZM156.6,445h-.1c.2-3.6,3.7-8.7,1.4-11.6a8.3,8.3,0,0,0,.8-1.2c1.6,0,3.9,2.3,5.1.4a29,29,0,0,0,14.6,1.8c.9,3.9,3.7,8.7,6.9,11-9,5.2-19.9,4.1-29.2.1C156.3,445.5,156.5,445.3,156.6,445Zm-1.6-.2c0,.1.1.2.1.3l-2.6-1.1c.3-.7,1.1-1.9.3-2.6a15.1,15.1,0,0,0,2.2-3.7A33.7,33.7,0,0,0,155,444.8Zm-3.8-15.7a3,3,0,0,0,2.7-1.1l.4.2a1.7,1.7,0,0,0,.3,1.7c-.6,2.2-3.7,10.4-2.4,11.6-.5.5-.5,1.4-.8,2-4.4-2.1-9.1-4.6-11.9-8.6h.1C143.2,431.9,146.3,429.5,151.2,429.1Zm-6.6-5.1a3.4,3.4,0,0,0-.3,2.2c-1.8,2.5-4.2,4.5-6,7-2.3-3.6-3.9-7.7-5.7-11.6A60.8,60.8,0,0,1,144.6,424ZM550.4,210.4c4.1-3.5,8.8-6.6,12.7-10.3,14.1-1.5,28.4-.9,42.5-.3.1,1.4,1.7,1.9,2.4,3-17.7,4.5-39,8-56.4,10.4h0c.3,3.5,8.4.5,10.8.4,15.8-2.4,31.5-5.4,47.2-8.4A41.1,41.1,0,0,1,613,219c-10-1.7-21,1.7-31.3,2.2s-19.2.3-28.1,3A44.1,44.1,0,0,0,549,216C546.8,213,547.6,212.9,550.4,210.4Zm-1.7,24.2-.3.6c-7.9.6-16,.9-23.7,2.8a81.1,81.1,0,0,1,7.5-18.2c1.6.7,12,.6,12-1.8,2.3,2.4,4.1,10.9,7.9,9.6,10.1,1.2,21-2,31-3.2s19.8-1.5,29.4-3.8c-.8,1.8-2.8,3.2-4,4.8-11.3-.8-22.7,1.3-34,2.1C566,228.9,554.4,226.7,548.7,234.6ZM876.8,336.9a2.6,2.6,0,0,0-3.8.3c-8.2,6.7-20.5,1.7-30.3,2.8-35.9-1.5-72,.2-107.9,1.4,2.1-2.6.7-6.6.1-9.7,31.5-3.6,62.6,1.3,94.2.8,12.9,0,33.8.5,45.9.7a2.2,2.2,0,0,0,2.7,1.7Zm30.5-141.3c-8.4-21.5-17.2-43.2-30.4-62.3,25.9-2.7,52.1,2.2,78,4.6,16,1.4,33.5,2.6,43.3,17.2,16.3,17.5,29,38,40.1,59a1,1,0,0,0-.5.4c-5.9-2-12.3-2-18.6-1.8,5.4-9.7-13.3-26.2-17.8-35.2-8.2-10.4-13.9-24.1-26.2-30.3-12.6-4.5-35.6-4.3-49-6.6-1.9-.2-1.8,2.8,0,3l26.1,2.8c8.2.9,18.1.6,25.2,5.4,12.8,10.6,20.4,26.4,30.6,39.4,3.3,5,8,10.8,8.2,17.1-.9,2.5-5.6,1.9-7.5,2-25,2.2-50-.6-74.9-1.7-3.6-.8-5.8-6.9-7-10.2-4-9.1-7.3-18.6-11.4-27.6a112.4,112.4,0,0,0-18.1-28.4c-1.2-1.2-.8-.1.5-1.2,7.1.8,15.1,3.5,22.1,1.1h0c-2.6-1.5-5.7-1.2-8.6-1.5-4.7,0-10.2-2.7-14.5-1.5-5.4-1.1-4.2,4.1-1.5,6.7a155,155,0,0,1,14.7,24.4c4,8.6,7.2,17.6,10.7,26.4,2.1,5.2,5.3,18,13.1,15.1,19.8,4.2,40.6,1.6,60.8,2.5-26.8,2.4-53.9.8-80.7,2.2C912.7,209.2,909.9,202.5,907.3,195.6Zm-179.5,34h-.1a120.9,120.9,0,0,0,12.1-1.1,1.7,1.7,0,0,0,1.5,1.9h0c56.9-3.6,114-5.3,171-6.3,14,12.3,12.2,31.8,9.9,48.6-3.8,25.8-32.2,36.7-42.7,58.7-1.1-5.9-31.3-2.5-37.9-3.5-36,2.4-70.5-3.5-106.2.5C737.3,295.9,742.9,259.7,727.8,229.6Zm-567,127c-.3,1-.6,2.1-1,3.1s-.1-.4-.2-.6A6.4,6.4,0,0,0,160.8,356.6Zm-2.9.8c-2.3-.2-4.7-.2-7-.2.3-2.3.3-4.6.5-7h2.8a5.8,5.8,0,0,0-.8,3c-1.3,2.9,3.4,2.5,5.1,2.5A4.4,4.4,0,0,1,157.9,357.4Zm1-4.6-.7-.2h-1.1c-.2-.9-.1-1.7-.7-2.3a5.1,5.1,0,0,0,2.5-.6Zm0-6.9v1.2c-2.1-1.1-5.1-.1-7.4.1.1-1.8.1-3.6.1-5.5,1.9,4.5,9.4.8,6-1.8a1.1,1.1,0,0,0-1.3.7c-2.5,2.5-3.5-4-1.6-5.1s1.2.1,1.2.7a1.1,1.1,0,0,0,2.2,0h0c.1-3.9-5.4-3.8-6.4-.5-.1-1.1,0-2.3-.1-3.4a22.7,22.7,0,0,1,7.4.2C159.8,336.8,159.1,341.5,158.9,345.9Zm171.7,54.9c-7.9,12.7-54.1,10-68.5,8.5-61.3-5.7-122.6.1-184-2.2-12.1-.5-24.4-3-34.9-9.4,2.8-4.7.9-11.3-.1-16.5,5.4,4,13.2,1.3,19.5,1.9l44.5-.8c45.8-.9,91.6-.8,137.3,1.5a38.1,38.1,0,0,1-1.5,4.4c-48.2-5.2-97.5,1.9-146.1,1.7l-24,.5c-5.8.1-22.9,3.3-23.5-5.7-.1-1.1-1.8-1.5-2.1-.3h0c-.7,15.3,23.3,8.3,32.7,9.1,52.1.5,104.1-7.3,155.9-1.4-25.6-1.4-51.2,2.7-76.8,1.2-8.7-.7-17.2-1.1-25.9.3a82.2,82.2,0,0,1-27.5,2c-19-1.2-38.1.4-57.2,0a1,1,0,0,0,0,1.9c19,1.7,38.1-1,57.2.4a98.1,98.1,0,0,0,24.8-1.1c9.7-1.7,18.8-1.5,28.6-.7,37.1,1.3,74.2-3.1,111.2,1.8,8.1,2.9,55.4,4.6,61.4-.3A29.9,29.9,0,0,1,330.6,400.8Zm5.2-28.2a97.9,97.9,0,0,0-3.8,21.5c-.9-1.3-3.4-1.1-3.2.9s-48.7-.1-57.5.8c-3.5-3-10.1-1.4-14.6-2.5,3.5-9.6,3.9-28.9-9.4-30.2-29.2-2.1-58.4-3.2-87.7-2.2v-.3h.5c3.6-4.5,5-10.1,5.6-15.6,59,3.5,122.4-4.6,181.5,1.3A104.5,104.5,0,0,0,335.8,372.6Zm31-65.2c1.4.4,2.6,1.7,4.1,2.1-4.4,4.8-21.5,28.7-19.7,33.9l-.7-.2c-1.1-3.9-7.1-2-10.2-2.7l.3-.3h0A131.9,131.9,0,0,1,366.8,307.4Zm-62.9-11.3c-7.1,2.2-14.8,2.4-22.3,3.2,1.3-6.3,12.4-15.1,5.7-20.7l12.6-.4a.8.8,0,0,0-.2.5h0c.7,2.8-3.2,11.6,2.3,9.9.2,0,.3,0,.4-.2h0c.9-2.1,5.2-7.4,1.2-8.2-.4-.1-.8.4-.8.8s-.5,4.2-.8,6a1,1,0,0,0-.5-.4c0-2.8.5-5.8-.2-8.5,2.8-.1,5.6-.8,8.4-.8A21.2,21.2,0,0,0,303.9,296.1Zm-43.4-14.6h0c4.8,3.8,11.4,4.9,17.1,7.1-11.5-.2-22.7-3.3-34-4.7a117.2,117.2,0,0,1,16.7-3.2A.7.7,0,0,0,260.5,281.5Zm11.7,3.4c-3.4-1.1-6.1-3.5-9.5-4.6a187.6,187.6,0,0,1,22.4-1.7c-1.8,2.4,2.9,3.1-.3,8C280.7,285.8,276.3,286.2,272.2,284.9Zm11.4,4.4Zm23.4-.6c.8-4.1,3.4-7.2,5-11,9.1,4.6,0,17.5-4.4,22.9C307.6,296.6,306.3,292.8,307,288.7Zm1.7,14.2.2-.2v.2Zm12.3-2.4a2.9,2.9,0,0,0-.2,2.2l-10.5.2c2.8-3.6,8.7-5,12.7-6.9A25.7,25.7,0,0,1,321,300.5Zm-102.7-9.1c15.1-16.7,39.6-14.4,59.7-20.5,12.1-2,24.2-.4,36.3,1.3,11.3,0,11.8,13.5,9.4,21.8-2.5-2.3-8.2,2.4-10.8,3.7,10.9-13.8,9.2-28.6-10.5-22-22.9,1.9-57.6-1.1-76.4,12.9-4.9,3.5-6.9,9.7-11.9,13a.9.9,0,0,0-.2,1.1c6.1,1.1,12.9-13.1,20.7-15.3-.3,2.7-22.3,15.9-15.1,16.1,5-4.4,19.5-10.7,18.6-17.7l.8-.2c13.7,1.6,29,6.8,43.6,6.5a31.3,31.3,0,0,0-2.1,7.4c-1.9.6-13.4,0-12.1,2.5h0c8.8,3,18.3-2,27.5-.9a15.7,15.7,0,0,0,6.4-.8,1.8,1.8,0,0,0,2.8-.7c.4.8.7,2.3,1.9,2.1a1.1,1.1,0,0,0,.3,1.2l-57.8.6a1.5,1.5,0,0,0,.3-.7h0c0-2.5,2.1-4.4,2.7-6.7,2.4-.2,20.8-1.4,18.6-3.8-6.7-.3-13.3.9-20,1.1s-10.7-2.1-15.7.4a.8.8,0,0,0,.6,1.4h0c4.2-1.3,8.8.1,13.3.7-1,2.1-3,5.4-1.7,7.6l-40.3.2C211,299.7,214.5,295.3,218.3,291.4ZM473.8,108.8c35-13.3,74.1-12,111.1-10.8-14.1,1.2-28.2,2.7-42.3,4.3-11.3.2-42.9-4.7-48.5,6.8-10.6,1.8-21,4-31.4,6.6A73.8,73.8,0,0,1,473.8,108.8Zm38.1-2.6-9.9,1.5A35.4,35.4,0,0,1,511.9,106.2Zm101.8,7.4c-12.5,1.9-23.7,8-32.9,16.6-35.1,28.8-65.2,64.6-106.7,84.5-67.2,6.7-135.5-6.3-202.7.9,37.3-23.7,73-50.7,113.8-68.5,16.3-8.5,35.2-12.5,51.3-20.4,48.3.2,97.2-9.2,145.2.7,3.3.7,4.6-4.4,1.4-4.9-40.6-6.6-81.9-3.2-122.7-1.8a920.7,920.7,0,0,1,170.4-19.9C625.2,105.1,618.7,108.7,613.7,113.6Zm185.7-11.9c-46.7-3-93.9-5.3-140.5,1.4,6.9-12.1,34.4-5,47-6.7,40.9.4,81.9-1.7,122.7,1.9a24.7,24.7,0,0,0,1.9,5.6Zm32.9-.4a19.4,19.4,0,0,1-2.1-2.9l2.2.2a11.5,11.5,0,0,0,1.5,4.4Zm57.3,7.8,5.1-1.8c1.5-.6.2-3-1.4-2.3a31,31,0,0,1-7.2,2.6,1.1,1.1,0,0,0-1,1.1c-15.7-1.5-31.5-2.9-47.3-4.2-.2-2.2-2.6-3.6-3.3-5.7q30.4,2.5,60.9,5.4c-.4,1.7.3,3.7.5,5.5Zm50.3,4.1c-13.9-.4-27.7-1.6-41.6-3.2a52.8,52.8,0,0,1-.1-5.6c6.9.3,14,1.9,20.9,1.5,9.9,3.7,22.9-3.2,29.1,7.8Zm15.6,1c-2.7-6.7-10.2-13.1-17.9-13s-13-.7-19.2-.2c-72.8-6.9-145.7-11.3-218.8-8.4-13.9,1.3-35.9-4.7-43.1,10.9a199.4,199.4,0,0,0-28.8,6.2c35.6-28,84.6-18.4,126.7-19.4a1.5,1.5,0,0,0,.7.3h0l137.6,4.2c27.8-.1,57.2,2.8,79.9,20.4Zm66,42.9a129.4,129.4,0,0,0-23.3-27.8c26.8,19.3,38.7,52.4,51.4,81.6C1040.3,193,1032.4,174.2,1021.5,157.1Zm30.4,62.7a3.4,3.4,0,0,0,.9-1.5l1,2.4A11.1,11.1,0,0,0,1051.9,219.8Zm18.2,61.7c-.6-5.9.6-11.7-.7-17.4a6.9,6.9,0,0,0,3.1-.9c.5,5.9.8,11.8,1,17.8Zm2.7,32.4h-1.6c.1-3.9.3-7.7.3-11.6l1.8.2C1073.2,306.3,1073,310.1,1072.8,313.9Zm.6-15.4h-2c-.1-4.8-.6-9.5-1-14.3a6.7,6.7,0,0,0,3.1.4C1073.6,289.3,1073.5,293.9,1073.4,298.5Z"/><path class="cls-1" d="M353.6,343.3h0Z"/><path class="cls-1" d="M759.7,433c-3.4,31.1-34.7,49.9-64.2,48.4-33.3-2.9-47.2-27.9-66.8-50.1.9-.8-.2-2.3-1.3-1.7-9.9,5.2-21.2,6.2-32.2,5.1-40.1-1.7-80.7-3.6-120.7-1.4a1.3,1.3,0,0,0,0,2.5h4c27.1,1.9,54.5.1,81.8,1.5,18.1-1.2,53.2,5.7,67-4.7h0c18,32.8,55,65.5,94.4,49,15.1-3.4,25.2-12.8,32.1-26.4C755.8,453.4,765.7,429,759.7,433Z"/><path class="cls-1" d="M233.2,423.6h0Z"/><path class="cls-1" d="M702,450.6c9.4,1.4,23.8-13.3,16-11.9-8.6,10.9-24,9.2-34.8,2.6a.6.6,0,0,0-.9.9h0C685.8,448.3,695.4,450.6,702,450.6Z"/><path class="cls-1" d="M678.1,445a1.1,1.1,0,0,0-.2,1.4h0c12.1,16.9,44.1,16.1,51-5.3.3-1.1-1.3-1.8-1.8-.8-6.6,12.4-22.2,19.8-35.1,12.3C687.7,452,680.1,443.8,678.1,445Z"/><path class="cls-1" d="M179.6,445.7c3.2,1.3.7-7.7-.4-6.5h0C179.6,441.2,177.7,444.5,179.6,445.7Z"/><path class="cls-1" d="M947.6,400.5c-5.3,8.5,6,13.1,5.6,2.1.1-1.6-2.4-1.6-2.5,0a10.9,10.9,0,0,1-.3,2.6c-1,2.6-2.3-1.2-1.3-2.3s1.4-2.4,1.8-2.2a1.1,1.1,0,0,0,1.3-1.8h.1C950.5,397.5,948.7,399,947.6,400.5Z"/><path class="cls-1" d="M950.8,396.4h0Z"/><path class="cls-1" d="M952.5,397.3c4.4,1.1,8.5-9.3,2.1-8.4-1.8,1.3,2.8,1.6,1,3.7s-1.5,3-2.6,2.7A1,1,0,0,0,952.5,397.3Z"/><path class="cls-1" d="M954,389.6h-.1c-.7-.3-1.5.6-1.5,1.3s-.8,3,.5,3.4S954.1,390.7,954,389.6Z"/><path class="cls-1" d="M945.2,397.5c-2.3-14.3-13.1,6.5-1.2,3.9-.6,2.4-1,6.5.2,9.2h-.5c-7.4,4.2,3,13.6,4.6,4.1.1-1.3-2-1.6-2.2-.3s-1.6,2.7-2.7,1.6-1.5-.6-1-1.1,2.1-1.4,2.7-2.9c2.5,2.4,6.7,1.3,9-.9,3.1,9.7,13.5-8,3.8-6.4-2.1.6-.5,3.9,1.1,2.6s.6.4.4.9c-1,3.1-2.4,5.3-3.8,1,2.2-1.2.3-13.6-1.4-10.5a11.3,11.3,0,0,1,.1,7.5c-2.8,7.6-11.3,3.9-9.7-3.4.6-3.7,3.2-4.6,6.4-5,2.1-2.7-5.3-.4-5.5.8s-.2-.5-.4-.6S945.2,397.7,945.2,397.5Zm-1.1.2c-1,0-1,1.2-1.7,1.2-4.6-1.2,1.1-8.1,1.7-1.2Z"/><path class="cls-1" d="M932.2,371.7c-5.3-5.1-12.2-7.8-14.9-3.9-3.7,1.6-6.2,7.8-5.8,11.1a1.2,1.2,0,0,0,2.4,0h0c4.3-23.7,28.2,14.7,10.2,9.6-3.6-1.3-6.7-5-9.3-7.7s-3.2.7-1.9,1.9c20,19.1,30.9,1,10.3-13.7,8.4,2.7,17.4,16.2,8.8,23.2-.8.7.2,2.1,1.1,1.5,8.3-5.6,6.1-14,.9-20.1,1-1.5,2.7-2.1,3.9-3.4C938.4,366.3,933,369.9,932.2,371.7Z"/><path class="cls-1" d="M920.2,421.6Z"/><path class="cls-1" d="M944.6,376.5c-3.9-7.2-6.3-15.3-8.1-23.3-.3-1.1-2.2-.9-2.1.3h.1c1.8,8.5,3.4,22.1,10.6,27.4,8.2,3.4,14.5-14.7,10.2-18.9a26.6,26.6,0,0,0,3.9-4.3c1.6,8.6-.2,19.4-8.2,24.1-.5,0-.3.7.2.6,6.7-1.1,9.8-6.9,10.8-13.3,2.1.6,3.4,2.5,5,3.7-2.3,3.1-5.9,8-4.4,11.8-1,3.8.4,13.1,5.8,13.2,7.2-1.1,11.6-1.5,16.1-7.8a1.3,1.3,0,0,0,.1-1.8c4.3.1-8.3-27.8-10.3-23.1-1.6-3-4.2,2.9-5,4.3a21.9,21.9,0,0,0-7-2.6c-.2-4,1.1-10.2-1.9-12.1a1.5,1.5,0,0,0-1.2-.7c-1.8-2.1-5.3-3.4-8.2-4s-12.6-.5-9.4,3c5.6,0,11.7-1.5,17,1.1-1.4,2.1-3.3,4.1-4.6,6.3-1.5-1.1-17.3-6.1-15.4-2h0c4.2,2.1,9.7,1.5,13.6,4.6a1.3,1.3,0,0,0,1.9-.3C955.3,368.1,951.6,380.9,944.6,376.5Zm24.1-2.8c1.6-3,4.9-4.7,5.6-8.1,3.8,7,7.3,14.1,8.8,22-4,3.5-7.4,9.8-14,7.4,3-1.3,4.8-5,8.5-4.9,7.5-1.8,1.5-4.1-2.5-2.2.4-3-1.7-13.2-5.6-12.6,1.1,9.5,7.8,9.7-2.3,18.5-2.1-2.4-1.9-6.6-3.5-9.3A35.5,35.5,0,0,1,968.7,373.7Z"/><path class="cls-1" d="M985.7,407.1a1.1,1.1,0,0,0-.7-.3c0-.1-.1-.1-.1-.2h0a44.4,44.4,0,0,0-7-2.8c2.7-.9,1.3-5.4-.3-6.9s-1.8,5.8-.1,6.8c-13.5-2.8-17.5,15.8-6.5,22.9-5.4,6-1.1,7.9,2.8,1.9,3.1,2.3,11.8,2.9,10.4-2C986.9,421,989.4,412.6,985.7,407.1Zm-2.1,11.8a48.4,48.4,0,0,1-1.9,6.5l-6.1-1.6c2.9-3.2,5.4-9.2,3.2-13.3,5.4-1.9,1.8-4.1-1.5-1.5l-2.1-1.2c-.9-.4-1.8.9-.8,1.4,6.4,2.9,1.6,9.6.2,14.3-16.2-5.9-3.7-23.2,9.5-16.3a1,1,0,0,0-.2,1.3h0C985.4,411.1,984.2,416.3,983.6,418.9Z"/><path class="cls-1" d="M958.4,420.9Z"/><path class="cls-1" d="M953.5,447.5c.3,3.5,3.2,8.3,7.1,6.9a.9.9,0,0,0,1,.3c3.2-1.8,10.3-5.3,11.3-8.9a1.1,1.1,0,0,0-2-.9c-2.5,3.8-5.7,6.7-10.1,7.9-5.5-3.9-5-12.4-6.4-18.5,0-.1.1-.1.1-.2h0c1.1-6.2-3.6-4.3-.7.2A41.8,41.8,0,0,0,953.5,447.5Z"/><path class="cls-1" d="M967.8,431.7c-2.7-3.2-4.5-8.2-8.2-10.1-1.7-1.8-4.4.7-6,1.8s-.6,3.5,0,5,1.4-2.8,2.8-3.2c1.8,5.8,9.1,13.4,1.5,17.8-1.3-.4-2.1,1.6-.9,2.3,2.9,1.1,4.5-2.8,6.9-4.3,1.6.9,4.7,5.4,6.2,3s-3.4-3.2-4.6-5c1.1-5.1-4.4-10.4-6.5-14.9h.1c4.3,6.6,10.5,12.1,12.7,19.9a.7.7,0,1,0,1.3-.4h.1A30.7,30.7,0,0,0,967.8,431.7Z"/><path class="cls-1" d="M935.3,451.3c-.9-.1-1,1.1-.4,1.6,7.1,4.9,9.6-4.9,11.3-10.5,7.3,3.5,10.4-4.3.4-1.5,3.8-14.6-8.6-28.5-19.9-13.5,0-2.4-1.9-4.9-3.2-6.9,7.1-2,16.3-11.1,9.7-17.3-1.4-4.3-7.8-4.9-11.6-6.2a29.4,29.4,0,0,1,1.2-5.9c.6-1.8-2.4-2.6-2.9-.8a12,12,0,0,0-.5,6.5c-1.4-.1-10.1,1.2-7,3.2,3.6-.3,6.4-1,9.9.5-1.8-.3-15.3-1.6-12.6,1.7h0c4.2,1.8,15.5,0,16.6,5,.2,7.9-9.6,7-13.5,10.5-.6-4.2-4.9,1.2-.3,1.5-.5.3-.8,1-.2,1.4h0c1.9,1.6,4.9,1.6,7.9.9.5,2.6,1.7,8.7,5.5,7.2-1.4,1.3-7.7,14.3-2.5,10.7,1.7-7.7,13.1-22.9,20.4-12.6,2.8,6.9.4,15.8-3.2,22-.5-1.2-.4-2.5-1.1-3.6,4.2-4.7,5.5-13.9,2.3-19.3-.9-1.1-2.7.1-2.3,1.3,1.1,4.1,1.3,9.7-.6,13.6s-9,1.5-12.9,0a.4.4,0,0,0-.3.5h0c2.4,3.4,7.2,6.3,11.3,5.2-.2,1.6-.7,3.5.3,4.7Zm-22-32.1h-.2c7.3-1.2,19.9-5,16.6-14.8a1.9,1.9,0,0,0,2.9.3C935,412,919.2,422.3,913.3,419.2Z"/><path class="cls-1" d="M927,446.5a19.6,19.6,0,0,1-3.7-3.9c-6.2-1.3,6.8,8.3,8.6,8h.1C930.1,449.7,928.5,447.8,927,446.5Z"/><path class="cls-1" d="M911.5,409.9c-.1-1.5-.3-3-.3-4.5s-3-1.9-2.9,0,.3,6.7,2.6,8.4h0A9.8,9.8,0,0,0,911.5,409.9Z"/><path class="cls-1" d="M907.1,340.5c-16.6,14.5-18.4,37.7-18,58.3-.1,1.5,2.2,1.5,2.3,0h0c1.6-15,4.1-30.7,11.7-44C904.4,352.1,915,339.6,907.1,340.5Z"/><path class="cls-1" d="M37.4,343.8c6.2,4,27.3,2.3,35.3,1.1-.4,3.3-2.1,18.2,4.4,14.2-1.5-2.9,1.9-36.4-3.9-27.4h0c-.4,3.1,0,6.3-.2,9.5-5.8-1.5-12.8.2-18.9.2S41.3,340.6,37.4,343.8Z"/><path class="cls-1" d="M244.1,296.1a16.5,16.5,0,0,1-11.8,5.9c-.3,1.5,6,.6,7.2,0a17.4,17.4,0,0,0,6.1-4.3C246.6,296.6,244.9,295,244.1,296.1Z"/><path class="cls-1" d="M301.5,291.1c-1,0-1.5.9-2.2,1.5a5.2,5.2,0,0,1-.9-2,1,1,0,0,0-1.9.5c.1,2.4,2.5,5.7,4.7,2.9C302.1,293.4,303.1,291.5,301.5,291.1Z"/><path class="cls-1" d="M296.5,291.1Z"/><path class="cls-1" d="M66.8,287.9c1.3,0,2.8-.6,4.1-.2C72.9,286.5,66.6,286.7,66.8,287.9Z"/><path class="cls-1" d="M68.1,284.5C62.2,282,56.3,303,55.9,307.4c-2.4.1-7,2.9-3.4,4.8,6.2,1.2,13.2-.7,19.4-1.5,5.5-5.1-6.7-3.9-9.5-3.7,2.4-2.2,2.7-6.4,3.4-9.5h.1c3.9,2.6,7.1,4.2,7.6-2.1h0c.1-4-4.2-2.2-4.4.8-1-.2-2-1.1-3.1-.5-.2-1.3,1.6-7.3.4-7.1h0c-2.1,6.1-5.2,12.3-6.5,18.5H58.1c3.4-5.4,4-17.1,9.7-20.4A1.2,1.2,0,0,0,68.1,284.5Z"/><path class="cls-1" d="M1018.1,269c-.6-7.8-6-15.1-14.5-14.6-19,3.3-17.3,33.2-1.8,40.3s19.7-19.4,12.9-11.8c-.5,3.5-3.3,7.9-6.8,8.9-9.3,1.1-14.9-12.3-14.1-20,2.6-16.7,18.2-18.4,22-1.5-.7.2-1.4.9-1.1,1.6-5.3,2.3-1.4,11.5,3.9,8.6,3.7-2.2,4.1-9.9-1-10.4A1.3,1.3,0,0,0,1018.1,269Zm-.8,9.3c-.9.6-1.6.1-2.2-.6a10.9,10.9,0,0,0,2.6.3Zm1.4-3.7c-1.4.6-3.6.1-4.5,1.4a3.3,3.3,0,0,1,.8-3.5C1016.3,273.9,1018.3,271.3,1018.7,274.6Z"/><path class="cls-1" d="M1033.7,339.4c9.6-.8,19.1-1.1,28.7-1.8.7-.1.4-1.2-.2-1.2-18.1-.8-36.6,1.7-54.6.3a1.1,1.1,0,0,0-.8,2c-.1,1,6,12.2,6.2,9.7h0c-1.4-3-2.3-6-3.4-9C1017.3,340.8,1026,339.8,1033.7,339.4Z"/><path class="cls-1" d="M1065.4,336.5c-.1,0-.1.1,0,.1S1065.5,336.5,1065.4,336.5Z"/><path class="cls-1" d="M412.5,377.5Z"/><path class="cls-1" d="M456.4,395.3a5.7,5.7,0,0,1-.4,1.4,24.1,24.1,0,0,0-5.7-2.5c.5-3.4-.4-10-3.1-11.2-.8,3,1.1,6.4.9,9.6-1,7.3-10.7,7.2-16.2,5.1,1.5-1.5,1.6-11.5-1.8-8.1-.3,1.6,1.5,6.9-.5,7.6-7.5,2,10,4.1,11.6,4.1a28.2,28.2,0,0,1,0,8.7c1.9,1.8,3.3-7.2,2.1-8.7,3.9-.3,9.4,1,12.6-1.6,3.6,1.2,4.4-3.6,3.6-6.1s-1.3-9.5-4.4-12C453.4,386,457.1,390.8,456.4,395.3Zm-12.1,4.6a9.6,9.6,0,0,0,5.1-3.5,8.9,8.9,0,0,1,4.4,2.6C450.7,399.1,447.5,400.1,444.3,399.9Z"/><path class="cls-1" d="M445.6,380.6c-.4-.3-.8.3-.4.5s1.5.9,1.3.4h0Z"/><path class="cls-1" d="M453.3,419.9h-.1c-.7-6-19.8-12.9-23.9-9.9a1.2,1.2,0,0,0-.4,2.4,41,41,0,0,1,13,7.8c2.6,3.6.3,5.8-1.9,7.9-6.3,6.4-12.4-5.4-16.7-9.4,5.9-3.3,6.8-12.4-.2-3.3,1.2-1.4,1.1-5.1,3.5-4.3.3,0,.3-.4.1-.5h0c-2.8-2.1-5.5,4.3-5.6,6.5a1.2,1.2,0,0,0,.2,1.6,1.2,1.2,0,0,0-.1,1.3h0c3.3,5.3,7.1,12.2,13.2,14.6.9,2.8,7.7,7.8,8.8,3.6h0a10.6,10.6,0,0,1-5.3-4c3.8-2,8-6.8,8.1-11.2h.1c.4-2.3,3.8-.8,5.6-1.4-.9,3.1-1.5,6.3-3.4,9.1s-5.3,5.2-4.3,7.8c2.8.2,4-3.7,4.9-5.8C449.8,428.8,456,423.2,453.3,419.9Zm-7.1-.3a2.2,2.2,0,0,0-.9.7c-3.2-4.9-9.2-7.9-14.5-9.9,7.3.2,12.2,4.1,17.2,8.8Z"/><path class="cls-1" d="M372.6,366.6c.9,1.3,2.2,2.4,2.7,4s2.5.7,2.1-.6c-1.7-4.1-5.7-8-4.9-12.8,9-5.5,1.1-7.4-1.5-.7C367.6,359.1,371.4,363.6,372.6,366.6Z"/><path class="cls-1" d="M378.4,351.8h0c3.7-1,9.9-5.9,13.9-4.4-.1.4-.2.9-.3,1.2a3.2,3.2,0,0,0-.9.8c-.9.1-2.3-.3-2.7.8-3.8.3-9.4,1.7-12.3,4.3-.9.8.5,2.2,1.3,1.3h0c8.9-7.6,17-1.1,18.1,9.1-5.8.5-12.6,2.3-15.4,8-1.2-1.3-3,.1-2.6,1.6-1.3.8-4.4,4.9-2.3,5.5h0c1-1.5,2.4-2.7,3.5-4.2,4.3,2.9,9.9,9.2,15.1,6,6.8-2.9,9.6-9.7,8.3-16.8s-2.6-15.1-7.7-20.2c-4.3-3.3-13.6,3.1-16.4,6.4A.4.4,0,0,0,378.4,351.8Zm14.5,27.1c-3.8,1.6-7.3-1.4-10.4-4,2.8-4.7,8.6-7,13.8-6.9a44.8,44.8,0,0,0,2,6.2A11.4,11.4,0,0,1,392.9,378.9Zm1.2-26.8c.1-.4.4-.9.5-1.3l.7-.3c3.1,6.1,6,12.7,4.6,19.6-1.6-5.8-2.6-12-6.2-16.9A4.9,4.9,0,0,0,394.1,352.1Z"/><path class="cls-1" d="M404,360.9c2.6,0,5.1,1,7.5,1.1-.2,4.3-2.6,11.5.7,14.6,8.5,11.2,20-7.5,20.9-16,2.3-.2,3.5-1.7,5.5-2.7h.5c-1.9,8.5-8.3,13.9-14.4,19.6-.8,4.3,6.3-3.6,7.8-4.5,1.8,2.1,2.7,4.7,3.8,7.3-5.3,2.9-15.3,11.3-9.5,17.7a.6.6,0,0,0,1-.5h0c-2.9-10.6,18.2-20.9,26.6-18-.7-6.8-12-1.2-16.1-.2a11.1,11.1,0,0,0-5-7.1c4.1-3.9,7.5-8.5,6.7-14.3,1.2,0,1.6-1.8.7-2.5-1-4.6-15.7-12.1-18.4-9.4h0a37.6,37.6,0,0,1,14.2,9.9c-1.5.6-3,.8-4.3,1.9-.5-2-14-9-10.6-3.9,11.6,2.4,9.5,13.3,2.8,19.9-1.7-3.1-6.5-6-10.1-5.5.9-7.7,3.3-14.7,5.9-22.4-2.4-5.7-8.1,12.3-8.3,14.4C410.2,358.5,404.9,359,404,360.9Zm10,14.3a34.9,34.9,0,0,1,.1-4.6l.3.2h0a12.7,12.7,0,0,1,6.8,5c-2.3,1.1-5,.6-7.3-.1C413.9,375.6,414,375.4,414,375.2Z"/><path class="cls-1" d="M425.7,433.4a11.6,11.6,0,0,1-4.3,1.8c-1.2-5.9-4.9-14.5-11.7-15-2-1.7-8.7-1.9-7.5,2.2-3.3,4.5-4.5,10-5,15.5H397a33.1,33.1,0,0,1-9.7-3c4.9-5.6,11.8-23.7-.3-24.2-4.4-.3-8.5,2.1-11.4,4.4-1.9-1.7-3-4.1-4.4-6.2-2,1.8,1.6,5.7,2.5,7.8-3.1,3.7-7.7,8-9.5,12.5a1.2,1.2,0,0,0-.4,1.3h.1c6.7,11.2,12.1,17.6,22.6,5.4,0,.1.1.2.2.3h0c2.3,2.3,6.2,4.5,9.6,3.9-3.2,12.4,1.5,16.8,13.7,14.3,12.4-.4,15.7-4.6,11.9-17.2C423,437.2,428.2,433.7,425.7,433.4Zm-39.3-21.6c3.5,1.2,5.9,4.2,4.2,8.1,1.1-1-4.5-8.8-4.3-5.1,4.5,2.9,1.5,7.2-.7,10.8-4.5-1.9-5.4-4.6-7.8-8Zm-20.3,17.4-.3-.2c2.8-4.3,7.1-7.9,11.5-11.1v.2h-.1c.4,3.9,3,8.7,6.8,10.3C379.8,434.6,370.8,435.6,366.1,429.2Zm18.4,5c-2.3,2.5-5.8,3.8-8,6.3-2.2.2-3.6-1.6-4.5-3.4,8.6,1.6,13.2-7.8,17.5-13.7C388.7,427.6,387.7,431.1,384.5,434.2Zm14.4-1.1c.8-3.5,2.7-6.6,3.6-10.2,2.7,2.4,8-3.5,9.1,3-3.2,1.5-6,2.7-9.8,2.3-5.6,3.6,9.5,3.1,10.7,1.3a44.5,44.5,0,0,1,1.6,4.2c-2.3-.6-4.4.9-6.8,1.2s-5.6-.7-8.5-.9C398.8,433.6,398.9,433.3,398.9,433.1Zm18,17.3c-5.1,1.6-20.8,6.1-17.6-4.1.7.9,2.8.5,1.6-.7s-2.4-6.4-2.2-9.8c4.9,1,11.3,2.9,16,1,1.4,10.1-8.1,6.5-12.6,9.2h0c3.9.9,10.2,1.7,13.7-.5,2.9,4.4,6,.8,1.5-1.7,2.2-6.2-.7-13.3-3.6-18.8C418.8,428.8,423.9,447.1,416.9,450.4Z"/><path class="cls-1" d="M427.8,431.7c-.5.3-.5,1-1,1.3h0C427.4,433.1,428.9,431.7,427.8,431.7Z"/><path class="cls-1" d="M356.1,404.5a.9.9,0,0,0,.8-1c.1-4.9-1.8-14,1.2-18.7a1.1,1.1,0,0,0,.8.2h.1a20.8,20.8,0,0,1,8.1,1c-3.7,4.4-3.1,12.1-2.2,17.5-23,3,15.6,3.6,19.6-.6s5.6-12.6.4-15.1c-1-.5-2.3.8-1.3,1.7,3.2,2.7,1.8,9.1-1.6,11.1.6-2.8,3.2-6.6,2-9.5-5.8-5.2-15.6-8.2-23.6-8.6,7.3-3.1,15.7,4.2,22.3,4.9h0c-7.6-4.3-25.3-14.8-28.3-.6C354.1,392,352.5,400.9,356.1,404.5Zm20.9-9.9a26.7,26.7,0,0,1,0-4c.1-.1.1-.2.2-.4,3.3,2.5,4,6.5,4.1,10.9a26.3,26.3,0,0,1-6.3,1.5A9.5,9.5,0,0,0,377,394.6Zm-3.8-6.5,1.6.6a2,2,0,0,0-.1,1.3l-2.1-1.6c-1.4-1.2-3.3,1.2-1.8,2.3h.1a16.2,16.2,0,0,0,3.5,2.1c.4,3.5-.5,6.9-1.3,10.1l-5,.5c-2.6-4.7-.5-12.3.4-16.9Z"/><path class="cls-1" d="M398.8,397.4c-4.5,3,1.3,9.9,5.5,10.2a1,1,0,0,0,.7,1.5,2.6,2.6,0,0,1,2.5,1.9c2.1,4-5.4,3.5-3.5-2.1-2.8-1.1-3.5,2.4-1.9,4.3,3.8,8.2,13.5-.6,5.8-5.9l.7-.2h0C396.5,406.1,402.7,399.4,398.8,397.4Z"/><path class="cls-1" d="M402.3,402.5c7.8,9.5,15.3-9.8,3.3-9.3-4.5,0-5.5,8-2.6,5.6,5.1-10.8,12.2,8.3-.2,2.8a.7.7,0,0,0-.6,1Z"/><path class="cls-1" d="M403.5,401.3c.7-.9-.4-1.7-1.1-1.9S402.2,402.2,403.5,401.3Z"/><path class="cls-1" d="M402.2,385.3c.4,1,1.7,3,2.8,2.4s0,.5.2.6a8.7,8.7,0,0,0-7.6,6c-2.4-2.4-8-1.4-8.2,2.4s5.4,9.3,7.7,4a.3.3,0,0,0-.5-.3h0c-2.6,1.9-5.2-.8-3.9-3.5-.2-1,1.2-1.2,2.1-1.1s3.1,2.9,3.6.4a1.1,1.1,0,0,0,1.2-.6c7.7-12.9,21.1,3.1,9.4,11-.3.2-.1.7.3.7,3.2-.2,5.2-3.6,6.1-6.4,1.5,1.2,4.9.7,5.6-1.1,0-.1-.1-.3-.3-.2-1.9.9-3-1.5-4.8-1.5a2,2,0,0,0,.1-.7c1.6.4,3.9-3.3,4.3-.1,1.2,5.9,4.2-3.1.3-3.8a5.3,5.3,0,0,0-5,1.5,9.6,9.6,0,0,0-8.2-6.7c4.5-1,5.9-7.7,1-9.1C405.4,378.6,401.7,382.2,402.2,385.3Zm2.2-1.8c-.2-3.3,5.9-2.6,4.8.7a4.5,4.5,0,0,1-4,3.2C404.8,386.1,404.2,384.9,404.4,383.5Z"/><path class="cls-1" d="M707.9,174.2c1,15.7,1.6,31.5,1.7,47.3,0,3.2,5,3.2,5,0,.2-5.9-2.1-111.6-13.2-92.8h0C706.9,143.1,706.4,159,707.9,174.2Z"/><path class="cls-1" d="M198.9,278.1a4.3,4.3,0,0,0-4.8-3.3c-26.1-3.2-52.9-.8-79.1.5-2.8.5-30.1.9-24.8,5h0c13.3.1,26.7-2.4,40.1-2.5a18.5,18.5,0,0,0-5.4,3.7c-1.7-4.2-11.8-.1-15.6,0-6,1.7-14.3,0-19.2,3.4-.3-1-.2-5.3-2-4.1h0C86,284.5,85.8,305.3,93,303c-2.6,4.9,19,.4,22.1,1.1,20.3-1.7,40.8-1.5,61.1-3.7-.4.9-4.6,5-1.9,4.5h0C179.7,299.3,199.3,285.1,198.9,278.1Zm-74.3,15a1.2,1.2,0,0,0-1.3-1c-3,1.9.4,7.3,2.5,8.6-8.4.2-16.8.7-25.2,1.2-.2-1-3.2-.2-3.7.1h.6l-3.3.2c1-1.7-3.3-2-3.4-6.5,2.2,1.9,41.2.2,28.7-5.1-9.4,1.5-19.9.4-28.9,3.3-.3-3.2-.3-5-.4-7.7,2.3,4,15.7-1.8,20.4-1.4s9.7-.5,13.6-2.6a19.5,19.5,0,0,0-3.5,5.3c-.8,1.7,1.7,3.2,2.6,1.5h0c2.1-6.2,15.5-15.4,18.4-5.7.4,3.2-1.5,7.8-3.3,10.3C135.4,298.2,125.2,301.9,124.6,293.1Zm52.6,6c-12.9-1.3-26.2-.6-39.1.6a20.1,20.1,0,0,0,4.7-5.3c13-.5,26.1-1.7,39.3-1.2Zm11.6-13.5-4.3,4.8c-13.3-1-27,.6-40.4,1.6,1.4-3.1,2.5-6.3,2.3-9.5,14.7,1.8,29.6,1.2,44.5.9Zm5.1-5.8c-15.8-1.4-32.3-.3-48.1.1a5.9,5.9,0,0,0-2.2-2.5c16.8-.3,33.4,1.4,50.1,1.5l.8.2C194.4,279.1,194.2,279.4,193.9,279.8Z"/><path class="cls-1" d="M84.9,281.4c-.1,0-.2,0-.2.1h0c-3.1,8-4.1,20.8,3.1,26.6,4.6,2.5,12,.7,16.9.6,7.2-.2,14.4.1,21.6-.1l20.6-.3c10.8-.7,23.2,3.6,32.8-3.1a168.7,168.7,0,0,0,15.9-14.6c1.4-6.7-12.4,8.7-14.1,9.6-12.9,11.8-32.7,3.9-48.7,5.9-14.1-.2-28.6,1.7-42.6.3C81.2,301.8,86.3,289,84.9,281.4Z"/><path class="cls-1" d="M716.8,273c10.6-21.7-33.5-12.6-24.2.3a.5.5,0,0,0,1-.3h0c.1-6.7,5.9-10.3,12.1-10,3.8-.4,9.8-.7,9.4,4.7-10.6.1-12.1,3.7-.3,2.3a9.8,9.8,0,0,1-.5,1.6C713.5,273.2,715.9,274.6,716.8,273Z"/><path class="cls-1" d="M692.1,281c10.9-3.8,32.6,4.3,33.4-12.8.3-2.9,1.3-7.9-1.3-10s-7.8-1.3-10.9-1.4c-7.7.3-19.6-2.7-24.2,5.3-1,2-2.7,11.6.9,10.4h-.1c2.4-7.9,1.9-12.3,12.1-13.6,6.3-.1,14.5-1.2,20,2.2,2.6,2.6,1.6,8.7.2,11.7-3.8,7-13.4,3.6-19.9,3.8-3.6-.1-7.2,0-10.9-.3S688.4,282,692.1,281Z"/><path class="cls-1" d="M697.6,269.9a.3.3,0,0,0,0,.6c2.6.7,5.2,1,7.4-.8h0C702.5,268.3,700,269.1,697.6,269.9Z"/><path class="cls-1" d="M884.2,268.3c-2.6.7-8.9-1.4-9.6,1.6,3.8,1.7,9-1.2,13.3-.7,2-.1,2.8-.4,3.6-2.3,1.1-3.6,2.9-11.9-2.9-11.6s-14-1.5-18.7,2.9c-1.6,2.3-1.6,9.4,1.4,10.6.8.3,1.3-1,.6-1.4h0c-1.3-.6-.5-5.9,0-6.8s2.9-1.9,4.9-2.1,12.3-2.9,12.8,2.1c-5.3,1.3-12.1.3-16.5,3.6,5.5.6,10.9-1.7,16.5-1.3C889.6,267.2,888.2,268,884.2,268.3Z"/><path class="cls-1" d="M868.3,267.7h0c.4-6.6-1.4-14.8,8-14.8,5.8-.5,12.5-2.4,18.2-1.4,3.6,1.5,2.7,7.6,2.5,10.8-.6,13.3-19.2,8.9-28.1,8-10.5,4.8,27.5,4.4,28.5.9,2.9-2.4,2.9-5.5,2.9-8.9s.9-9.1-2.1-11.4c-7.6-2.5-16.3-1.8-24.2-.7-2.5.5-6.5,1.5-7.7,4.1S864.9,273,868.3,267.7Z"/><path class="cls-1" d="M278,388.2c15.5,3.8,36.7-4,52,4.9-3.5-6.5-15.1-6.4-21.8-6.7a282.1,282.1,0,0,0-29.1.6A1.1,1.1,0,0,0,278,388.2Z"/><path class="cls-1" d="M667.6,330c-41.4.4-82.7.5-124.1,2.1-8,.6-16.5-.1-24.4,1.1-5,1.2-4.3,7.2-3.6,11.3,1.9,2.4,6.4-.6,9.3,0,3.2-2.1-5.1-1.2-6.2-1.6.6-2.7.4-6,4.2-5.3,11.1-.3,22.2-.8,33.3-1.2,45.1-2.1,90.3-1.7,135.3-3C697.5,327.1,670.6,330.5,667.6,330Z"/><path class="cls-1" d="M533.1,429.1c42.5-2.8,85.1-6,127.8-3.7,8.5-5.7-39.3-3.1-42.7-3.5-40.7.8-86.9,2-124.7,6.1h0C506,432.6,520.2,430.2,533.1,429.1Z"/></g></svg>