<svg xmlns="http://www.w3.org/2000/svg" xml:space="preserve" width="208" height="242"><path fill="#43525B" d="M49.563 159.35c2.98-17.471 6.176-34.899 9.676-52.274a1746 1746 0 0 1 11.338-52.137c1.127-4.823 2.475-9.636 3.329-14.514.873-4.979 2.289-9.841 3.412-14.766.12-.525-.666-.747-.81-.223-1.182 4.286-2.041 8.672-3.325 12.926-1.289 4.268-2.313 8.579-3.336 12.918a1747.054 1747.054 0 0 0-16.507 78.035c-1.852 9.859-3.653 19.732-5.187 29.648-.14.914 1.251 1.319 1.41.387M36.709 154.26c1.176-8.93 2.952-17.783 4.739-26.606 1.775-8.77 3.559-17.538 5.338-26.307l5.343-26.322c.863-4.253 1.712-8.512 2.767-12.723 1.051-4.202 2.35-8.333 3.559-12.492 1.37-4.717 2.529-9.472 3.199-14.343.652-4.741 1.035-9.535 1.359-14.308.061-.882-1.328-.885-1.375 0-.236 4.318-.416 8.624-.939 12.921-.537 4.417-1.459 8.744-2.614 13.039-1.124 4.181-2.417 8.315-3.545 12.495-1.128 4.181-2.024 8.418-2.886 12.66-3.564 17.531-7.103 35.068-10.652 52.601-1.975 9.747-3.914 19.487-4.962 29.386-.047.431.613.417.669-.001M63.104 19.292c1.511-.43 2.693-.478 4.188-.004 1.049.332 2.097.662 3.121 1.064 2.229.874 4.326 2.043 6.084 3.682.733.683 1.838-.417 1.103-1.103-1.962-1.829-4.284-3.11-6.772-4.083-1.252-.49-2.568-.993-3.901-1.21-1.394-.226-2.779.251-4.095.667-.626.198-.365 1.168.272.987"/><path fill="#43525B" d="M63.388 17.071c2.68-.266 5.203.191 7.801.858 2.408.619 4.268 1.577 6.211 3.1.71.556 1.677-.33 1.018-1.016-1.664-1.727-4.422-2.589-6.699-3.072-2.728-.578-5.661-1.123-8.416-.504-.349.078-.282.67.085.634"/><path fill="#43525B" d="M78.167 20.339c1.033-1.331 1.097-3.482 1.302-5.107.139-1.108.862-3.397-.402-4.069-.364-.194-.856.129-.726.557.435 1.41-.043 3.165-.238 4.593-.169 1.239-.617 2.692-.311 3.926.037.151.27.236.375.1"/><path fill="#43525B" d="M66.044 8.958c4.467-.359 8.293.847 12.037 3.236.801.511 1.467-.712.731-1.252-3.532-2.592-8.475-3.514-12.768-2.984-.621.077-.65 1.051 0 1M63.408 16.521c1.046-1.936 1.649-4.457 2.249-6.571.121-.424-.549-.736-.734-.309-.881 2.021-1.82 4.577-1.799 6.803.002.147.211.213.284.077M72.888 15.373c.877.319 1.79.355 2.602.883.719.468 1.221 1.149 2.058 1.421.639.208.932-.586.592-1.018-.581-.741-1.581-1.027-2.44-1.324-.855-.296-1.836-.528-2.746-.44-.275.025-.332.381-.066.478M73.563 12.71c.897.608 1.793.456 2.745.843.929.378 1.656.992 2.503 1.485.317.184.733-.122.627-.482-.281-.95-1.346-1.294-2.176-1.672-.398-.183-.795-.398-1.23-.476-.746-.135-1.306-.057-2.008-.487-.505-.31-.942.462-.461.789"/><path fill="#43525B" d="M66.37 7.958c1.254-1.893 1.475-4.408 2.411-6.463.187-.406-.401-.767-.61-.355-.529 1.04-.815 2.179-1.141 3.296-.33 1.136-.779 2.294-.796 3.486-.001.075.098.094.136.036"/><path fill="#43525B" d="M68.448 1.545c2.234-.383 4.174-.129 6.342.484 1.955.553 3.762 1.134 5.303 2.51.502.448 1.199-.243.74-.741-1.514-1.642-3.935-2.179-6.017-2.703-2.081-.524-4.565-1.081-6.575-.04-.287.149-.074.538.207.49"/><path fill="#43525B" d="M80.194 4.639c-.414 1.212-.487 2.505-.603 3.772-.114 1.27-.456 2.569-.26 3.837.069.448.702.36.821 0 .4-1.197.271-2.585.367-3.837.1-1.259.229-2.518.025-3.772-.029-.193-.298-.154-.35 0"/><path fill="#43525B" d="M79.741 9.617c-.022-.878-.371-1.594-1.033-2.16-.744-.636-1.641-1.576-2.59-1.876-.252-.079-.381.277-.174.412.783.507 1.506 1.096 2.231 1.683.698.566.901 1.18 1.241 1.985.067.157.329.158.325-.044M36.427 154.689c2.49-.557 4.675.375 6.775 1.633 1.771 1.061 3.473 2.273 4.872 3.803.487.531 1.306-.279.793-.793-1.755-1.752-3.938-2.98-6.127-4.113-2.032-1.051-4.224-1.863-6.495-1.188-.422.126-.246.754.182.658"/><path fill="#43525B" d="M48.684 159.661c-2.397 2.174-3.926 5.366-5.478 8.149-.856 1.535-1.694 3.078-2.559 4.604-.896 1.587-1.961 3.131-2.673 4.812-.073.176.147.412.297.229 1.06-1.303 1.853-2.826 2.712-4.266.911-1.528 1.855-3.041 2.778-4.564 1.751-2.893 3.653-5.713 5.372-8.617.17-.287-.212-.562-.449-.347"/><path fill="#43525B" d="M36.036 154.565c.152 1.922.604 3.796.715 5.733.113 1.955.236 3.908.327 5.865.087 1.867.146 3.737.267 5.604.123 1.869.102 3.818.424 5.663.045.253.398.165.418-.058.18-1.918-.014-3.935-.066-5.86-.054-1.953-.188-3.907-.297-5.859-.105-1.868-.156-3.743-.311-5.61-.152-1.821-.224-3.836-.867-5.561-.113-.302-.639-.292-.61.083M38.228 166.92c.756.244 1.519.486 2.213.879.701.395 1.035.908 1.481 1.543.325.459 1.202.199.979-.414-.627-1.729-2.937-2.244-4.52-2.572-.366-.077-.514.447-.153.564"/><path fill="#43525B" d="M40.64 171.5c.592-.507.825-1.371.926-2.117.086-.638-.688-1.052-1.08-.455-.432.66-.771 1.361-.961 2.127-.146.594.638 1.14 1.082.631.506-.58 1.559-2.006.776-2.713a.61.61 0 0 0-.708-.092c-.542.307-.879.803-1.1 1.373l1.016.278c.159-.806.278-1.576.126-2.392-.071-.381-.603-.486-.853-.226-.473.492-.56 1.408-.744 2.042h1.056c-.085-.289.132-.826.154-1.141a3.7 3.7 0 0 0-.149-1.313c-.139-.482-.779-.55-1.041-.138-.376.593-.391 1.319-.76 1.905l1.07.289c-.051-.711-.117-1.416-.34-2.098-.162-.502-1-.597-1.114 0-.191 1-.41 2.09-.136 3.09.115.416.73.416.846 0 .248-.904.225-1.863.404-2.783h-1.114c.19.591.258 1.176.305 1.791.043.559.757.795 1.071.291.371-.596.384-1.322.752-1.909l-1.042-.136c.153.517.135.99.05 1.516-.053.331-.124.6-.012.926.166.487.92.555 1.056 0 .084-.34.166-1.352.41-1.611l-.854-.225c.125.635-.004 1.225-.156 1.842-.135.551.714.971.963.404.058-.133.285-.668.432-.688l-.505-.289c.054.074-.69.998-.774 1.088l1.082.629c.178-.658.399-1.277.733-1.875l-1.101-.297c-.02.679-.279 1.258-.387 1.912-.06.37.327.616.621.364"/><path fill="#43525B" d="M38.437 170.355c.038 1.142-.262 2.307-.361 3.438-.055.638.94.747 1.102.149.178-.662.217-1.381.246-2.063.023-.529.072-1.263-.203-1.736-.206-.351-.798-.209-.784.212"/><path fill="#43525B" d="M38.803 174.408c.374-.367.538-.889.75-1.358.231-.515.583-1.007.726-1.554.08-.299-.307-.545-.528-.309-.345.365-.521.857-.706 1.318-.209.52-.273 1.18-.576 1.645-.135.207.164.426.334.258"/><path fill="#43525B" d="m39.147 173.475-.023.115c-.028.14.115.274.25.192.43-.26.697-.558.924-1.009.232-.467.543-.953.598-1.477.038-.363-.506-.586-.738-.307-.578.701-.631 1.752-1.017 2.559q.156.067.312.131l.023-.114c.043-.215-.286-.305-.329-.09M38.763 174.076c-.152.119-.24.299-.32.473-.086.178-.188.375-.197.573-.014.263.324.304.454.124.112-.156.157-.398.194-.586.037-.184.076-.357.032-.541-.019-.079-.109-.085-.163-.043"/><path fill="#43525B" d="M38.526 174.684c-.115.293-.248.576-.318.888-.062.269.322.372.41.112.111-.318.119-.639.111-.974-.001-.122-.161-.132-.203-.026"/><path fill="#43525B" d="m38.538 174.824-.252.376c-.136.205.193.396.33.192.185-.274.363-.555.543-.832.172-.264.36-.518.465-.817.086-.251-.285-.479-.459-.267-.393.48-.623 1.16-.879 1.724l.33.192.185-.414c.079-.177-.153-.32-.263-.154M40.35 153.717c1.687-8.623 3.034-17.316 4.69-25.947a1409 1409 0 0 1 5.295-26.123c3.644-17.221 7.721-34.344 11.47-51.542 2.093-9.606 4.097-19.284 5.358-29.039.07-.546-.888-.681-.969-.131-2.582 17.498-6.58 34.671-10.47 51.913-3.876 17.175-7.624 34.382-10.89 51.685-1.822 9.654-3.748 19.365-4.94 29.122-.03.257.406.316.456.062M45.112 155.106c2.406-8.272 3.275-16.771 4.057-25.313.801-8.746 2.335-17.375 4.213-25.948 3.811-17.393 8.172-34.683 12.26-52.013l6.941-29.426c.164-.694-.904-.99-1.068-.295L59.259 74.18c-3.996 16.978-8.607 34.021-10.546 51.391-.534 4.789-.798 9.603-1.351 14.389-.586 5.07-1.572 10.048-2.731 15.015-.073.312.391.441.481.131M46.17 155.375c.369.235.782.344 1.131.631.332.273.539.648.818.969.262.301.807.063.79-.327-.025-.604-.393-1.113-.836-1.501-.42-.365-1.075-.755-1.65-.705-.486.042-.692.652-.253.933M46.506 152.869c.39.357.788.724 1.144 1.114.327.361.564.903.971 1.166.279.183.537-.116.502-.385-.065-.481-.61-.981-.936-1.317a5.2 5.2 0 0 0-1.341-1.018c-.271-.142-.585.217-.34.44M46.735 151.104c.521.516 1.08.964 1.531 1.55.412.532.619 1.254 1.07 1.733.223.234.637.054.635-.264-.006-.712-.59-1.465-1.01-2.005-.479-.614-1.082-1.233-1.791-1.578-.353-.172-.739.263-.435.564M47.162 149.172c.322.611.771 1.147 1.151 1.726.358.542.65 1.128 1.09 1.612.197.216.648.058.613-.254-.151-1.34-1.211-2.883-2.33-3.609-.337-.219-.693.203-.524.525M47.649 146.636q.489.615.944 1.253c.24.334.44.749.834.904.16.063.334-.096.331-.252-.006-.441-.393-.813-.652-1.146a34 34 0 0 0-1-1.216c-.276-.318-.71.137-.457.457M48.224 144.183c.212.498.727.888 1.036 1.336.312.448.565.923.917 1.341.275.329.709-.037.65-.379-.105-.628-.461-1.158-.848-1.652-.353-.451-.773-1.014-1.337-1.191-.341-.109-.536.27-.418.545M48.562 141.503c.241.444.604.847.899 1.258.303.419.585.853.887 1.272.356.496 1.089.078.821-.479-.453-.938-1.173-2.015-2.04-2.616-.358-.25-.751.224-.567.565"/><path fill="#43525B" d="M48.733 138.848c.439.371.801.785 1.107 1.271.283.447.431.971.735 1.398.185.26.582.17.601-.163.074-1.222-1.143-2.375-2.067-2.994-.289-.194-.647.26-.376.488M49.368 135.226c-.085.565.453 1.076.747 1.528.366.566.638 1.209 1.091 1.712.274.303.713-.022.642-.374-.142-.691-.604-1.313-1-1.885-.302-.432-.679-1.123-1.25-1.155-.093-.007-.214.077-.23.174M49.931 132.227c.281.618.845 1.124 1.197 1.717.356.6.636 1.233.945 1.855.207.414.85.121.735-.311-.199-.748-.565-1.439-1.007-2.072-.389-.557-.854-1.281-1.471-1.59-.272-.136-.52.135-.399.401M50.522 130.125c.506.824.973 1.673 1.478 2.496.333.543 1.071.07.831-.485-.396-.917-1-1.767-1.658-2.515-.313-.354-.897.105-.651.504M51.114 126.731c-.012.614.408 1.228.67 1.771.324.677.58 1.438 1.021 2.05.244.338.794.146.69-.291-.172-.724-.59-1.402-.932-2.06-.294-.566-.57-1.306-1.12-1.658-.143-.094-.327.029-.329.188M51.634 122.584c.188 1.637 1.172 3.399 2.461 4.432.473.377 1.081-.203.672-.672-1.067-1.224-1.748-2.353-2.332-3.869-.15-.391-.858-.387-.801.109"/><path fill="#43525B" d="M52.052 120.823c.494 1.216 1.021 2.429 1.531 3.638.188.44.819.108.735-.31-.257-1.274-.93-2.635-1.798-3.601-.179-.198-.575.011-.468.273M52.431 118.405c.115.538.576.998.818 1.489.269.546.391 1.139.641 1.689.168.372.66.136.691-.187.068-.676-.226-1.377-.564-1.95-.297-.5-.727-1.166-1.33-1.296a.21.21 0 0 0-.256.255M53.488 116.229c.317 1.117.84 2.2 1.276 3.275.235.578 1.166.36.963-.266-.367-1.132-.887-2.307-1.535-3.306-.232-.355-.827-.137-.704.297M52.929 112.158c.478.632 1.18 1.061 1.681 1.688.587.733.901 1.591 1.17 2.479.137.456.896.395.86-.117-.067-1.02-.478-1.953-1.08-2.774-.522-.713-1.353-1.609-2.273-1.741-.235-.034-.547.216-.358.465M54.128 108.745c.234.599.596 1.142.881 1.72.328.664.564 1.367.836 2.054a.427.427 0 0 0 .822-.226c-.222-1.327-.904-2.996-1.929-3.903-.245-.219-.755-.013-.61.355M54.162 106.316c.444.633.92 1.239 1.337 1.891.416.647.743 1.347 1.178 1.982.182.265.653.111.545-.23-.459-1.448-1.547-2.922-2.639-3.968-.211-.201-.602.067-.421.325M55.097 104.066c.392.624.74 1.265 1.067 1.925.321.647.549 1.366.961 1.958.149.213.599.173.556-.15-.19-1.457-1.259-2.865-2.133-3.997-.199-.259-.637-.031-.451.264M55.791 101.37c-.267.054-.259-.12-.083.197.093.168.271.363.39.517.282.37.55.748.794 1.143.451.732.786 1.561 1.305 2.244.199.263.759.233.715-.193-.102-.976-.631-1.912-1.174-2.713-.416-.618-1.063-1.771-1.842-1.915-.195-.036-.427.051-.473.268l-.011.053c-.033.158.045.364.224.396a.4.4 0 0 0 .155.003M56.1 97.312c.483 1.001 1.144 1.9 1.603 2.917.445.988.664 2.104 1.199 3.043.151.265.545.137.557-.151.082-2.004-1.479-4.83-2.938-6.134-.233-.206-.554.05-.421.325M58.02 94.554l-.216.083c-.246.034-.338.327-.303.531.086.482.35.964.559 1.403.227.477.439.974.787 1.376.33.383.887-.034.794-.463-.134-.609-.507-1.213-.81-1.756-.146-.262-.291-.526-.461-.774-.07-.103-.271-.335-.302-.316.054-.033.003-.119-.048-.084M57.588 90.045c-.161.815.552 1.765.903 2.461.54 1.067.91 2.293 1.576 3.28.209.308.711.204.716-.193.021-2.101-1.738-3.815-2.523-5.636-.124-.287-.614-.207-.672.088M58.018 85.958c-.531.781.557 1.704.936 2.38.666 1.189.88 2.499 1.425 3.723.168.378.674.138.703-.19.092-.968-.269-1.957-.658-2.833a11 11 0 0 0-.72-1.363c-.28-.45-1.03-1.158-1.151-1.647-.065-.259-.401-.268-.535-.07M59.339 83.556c1.059 1.797 1.492 3.594 2.033 5.572.087.317.609.265.586-.079-.132-2.02-1.125-4.058-2.198-5.739-.168-.263-.581-.026-.421.246M60.804 79.442l.027-.025a.19.19 0 0 0 .028-.225c-.041-.064-.086-.123-.164-.14-.178-.038-.354.08-.356.271-.002.567.348 1.228.548 1.751.247.648.495 1.288.841 1.889.175.305.635.098.557-.234-.177-.747-.474-1.464-.775-2.169-.174-.405-.354-1.167-.707-1.45l-.096.364.043-.009q-.12-.09-.235-.179l-.001.035c-.005.154.184.218.29.121M60.563 76.151c.273.983.787 1.893 1.123 2.858.34.971.546 1.975.795 2.971.111.444.844.363.813-.11-.129-1.977-.851-4.538-2.273-5.986-.192-.196-.531.004-.458.267M60.924 73.898c1.321 1.485 1.873 3.017 2.282 4.927.111.51.826.35.863-.117.157-2.033-1.01-4.146-2.517-5.439-.434-.371-1.012.199-.628.629M62.648 71.11c-.142.543.283 1.079.503 1.559.268.58.426 1.302.805 1.815.252.34.783.234.806-.218.034-.663-.315-1.36-.597-1.946-.24-.504-.532-1.295-1.135-1.427-.162-.036-.338.048-.382.217M63.42 67.152c.634 1.27 1.212 2.649 2.021 3.817.291.421.869.063.674-.393-.561-1.306-1.42-2.527-2.158-3.738-.21-.344-.715-.042-.537.314M64.22 64.405c.897 1.537 1.369 3.084 1.85 4.779.139.488.857.382.873-.118.061-1.9-.865-3.752-2.13-5.119-.294-.317-.808.092-.593.458M65.118 60.814c-.147.656.184 1.332.373 1.957.218.711.402 1.466.789 2.106.174.287.701.189.67-.181-.064-.749-.344-1.459-.586-2.165-.209-.606-.344-1.388-.838-1.825-.13-.114-.365-.081-.408.108M65.355 57.477c-.183.73.048 1.479.394 2.131.389.733.912 1.537 1.492 2.131.277.285.809-.004.682-.397-.201-.623-.643-1.083-1.021-1.606-.498-.685-.799-1.325-.912-2.173-.044-.333-.538-.473-.635-.086M66.283 54.186q-.019.014-.041.028c-.093.065-.188.177-.172.302.112.91.601 2.489 1.5 2.909.274.128.528-.081.483-.371-.106-.67-.688-1.272-.974-1.883-.078-.17-.371-1.28-.796-.985M66.304 50.867c.623.865 1.143 1.822 1.432 2.851.236.842.123 1.843.557 2.6.129.227.445.207.578 0 .544-.843.169-2.172-.139-3.056-.385-1.107-.981-2.043-1.787-2.889-.312-.328-.917.111-.641.494M68.038 47.852c.131.647.504 1.273.731 1.896.177.484.274 1.135.743 1.405.121.069.322.039.385-.101.244-.546-.086-1.13-.307-1.65-.268-.63-.522-1.368-.982-1.882-.243-.272-.631.022-.57.332M69.136 44.522c.092.67.258 1.297.484 1.935.184.514.326 1.144.76 1.5.219.179.5.056.531-.219.063-.56-.28-1.113-.51-1.611a9.5 9.5 0 0 0-1-1.718c-.1-.137-.289-.052-.265.113M69.626 41.972c.146.428.322.828.516 1.238.187.396.341.888.684 1.174.247.206.793.106.738-.306-.064-.477-.35-.849-.604-1.25a13 13 0 0 0-.814-1.158c-.196-.243-.617.019-.52.302M70.769 39.156c.377.292.619.679.789 1.121.159.415.186.897.42 1.278.234.382.738.185.783-.212.061-.523-.214-1.148-.436-1.612a2.62 2.62 0 0 0-1.099-1.168c-.358-.202-.807.322-.457.593M71.463 35.39c.34.554.812 1.002 1.106 1.592.309.618.379 1.28.593 1.924.106.325.676.403.739 0 .213-1.35-.765-3.344-2.021-3.933-.259-.121-.589.138-.417.417M71.901 32.2c.256.629.664 1.211.998 1.803.336.594.65 1.29 1.125 1.78.219.227.641-.004.539-.314-.21-.646-.697-1.251-1.103-1.794-.406-.546-.81-1.164-1.316-1.617-.096-.088-.302-.004-.243.142M72.575 28.865c-.198.608.531 1.255.82 1.752.187.322.377.65.516.995.148.366.186.754.391 1.093.162.268.579.286.736 0 .43-.781-.111-1.762-.545-2.437-.361-.562-.977-1.714-1.756-1.565-.08.016-.138.089-.162.162M73.384 26.389c.189.601.756 1.067 1.074 1.616.346.599.479 1.277.811 1.878.212.384.74.177.771-.209.063-.763-.338-1.535-.731-2.166-.347-.554-.877-1.343-1.55-1.493-.217-.049-.449.142-.375.374M73.56 24.478c.377.604.909 1.09 1.282 1.702.372.611.526 1.304.862 1.927.22.407.826.203.84-.227.043-1.434-1.287-3.375-2.613-3.885-.271-.105-.514.253-.371.483M39.63 171.893c.607-.182.837-.828 1.068-1.371.392-.92-.957-1.482-1.264-.531a37 37 0 0 1-.737 2.07l1.503.203c.064-.709.13-1.418.186-2.129.061-.76-1.146-1.102-1.469-.396-.386.842-.416 1.802-.826 2.623q.727.305 1.453.613c.159-1.06.283-2.094-.042-3.137-.265-.848-1.578-.714-1.575.213.004.676.154 1.321.133 2.004-.023.713-.221 1.525.199 2.143.2.293.699.454.965.124.5-.619.409-1.343.441-2.113.031-.737-.128-1.433-.134-2.157l-1.575.213c.241.76.167 1.51.054 2.287-.116.809 1.017 1.498 1.453.613.416-.843.435-1.787.815-2.631l-1.469-.398c-.053.711-.097 1.42-.141 2.129-.057.908 1.229.975 1.504.203.247-.693.441-1.39.596-2.109l-1.357-.184c-.02.439-.035.9-.182 1.318-.08.236.174.467.401.4"/><path fill="#43525B" d="M38.409 173.453c-.307.434-.346 1.012-.419 1.527-.063.443-.144.959-.084 1.404.039.301.399.535.649.27.336-.357.291-.874.3-1.338.011-.586.151-1.234.008-1.803-.055-.223-.337-.226-.454-.06"/><path fill="#43525B" d="M38.569 175.609c.628-.603 1.011-1.268 1.334-2.07.22-.547-.707-.94-.959-.403-.342.729-.674 1.465-1.01 2.198l.882.516c.594-1.363 1.245-2.688 2.147-3.877l-.979-.572c-.543.84-.962 1.709-1.305 2.646-.229.62.767 1.036 1.067.45.81-1.58 1.688-3.119 2.534-4.678.439-.811-.833-1.535-1.227-.718-.771 1.604-1.508 3.22-2.316 4.806l1.068.451c.31-.835.701-1.621 1.156-2.385.379-.636-.565-1.16-.979-.572-.86 1.225-1.443 2.573-2.051 3.934-.262.591.598 1.113.882.516.346-.729.694-1.454 1.034-2.186q-.479-.203-.959-.403c-.235.666-.541 1.308-.849 1.942-.157.333.244.679.53.405"/><path fill="#43525B" d="M41.813 169.369c.123-.621-.185-1.287-.716-1.633-.285-.186-.624-.286-.926-.444-.348-.183-.605-.319-1.008-.315a.52.52 0 0 0-.447.778c.3.525.822.72 1.363.937.492.197.608.496.928.891.222.274.738.123.806-.214"/><path fill="#43525B" d="M39.4 167.429c-.116-.53-.647-.813-1.131-.953l.306.401c-.027-.361-.24-.557-.592-.598-.216-.024-.439.215-.423.422.021.263.044.521.056.785.012.271-.005.545.159.775.154.216.562.303.693 0 .202-.463-.001-1.07-.063-1.561l-.422.424.07.004-.213-.057-.049-.056-.057-.21.01.07c.021.178.111.354.303.4.341.079.709.107.963.379.168.18.437-.009.39-.225M38.063 177.18c.444.477.983.604 1.569.879.797.372 1.615.815 2.261 1.42.723.678 1.313 1.693.748 2.649-.351.592-1.144.892-1.755 1.118-1.323.486-2.731.753-4.076 1.176-1.526.48-3.401.932-4.691 1.909-.602.456-.251 1.327.51 1.206 1.256-.202 2.47-.852 3.679-1.258a54 54 0 0 1 3.297-.971c1.515-.4 3.348-.838 4.308-2.201 1.018-1.447.475-3.164-.758-4.283-1.09-.989-3.427-2.445-4.961-2.137-.228.047-.273.342-.131.493"/><path fill="#43525B" d="M32.644 186.259c-5.387 2.579-10.534 5.707-15.61 8.845a380 380 0 0 0-7.437 4.707c-2.375 1.545-5.099 3.006-7.193 4.92-.635.578.172 1.496.879 1.139 1.283-.648 2.461-1.605 3.656-2.405a317 317 0 0 1 3.664-2.414 242 242 0 0 1 7.467-4.66c5.064-3.026 10.277-5.795 15.359-8.79.871-.515.106-1.769-.785-1.342"/><path fill="#43525B" d="M1.968 205.211c-2.783 3.938-.238 8.545 3.936 9.977 2.709.93 5.752 1.115 8.588 1.295 3.353.211 6.715.244 10.07.344 6.475.191 12.949.42 19.423.646 6.599.234 13.203.641 19.802.297 6.545-.344 13.047-1.209 19.547-2.018a330 330 0 0 1 19.488-1.869c13.18-.855 26.389-1.375 39.584-1.973 14.366-.65 28.816-.891 42.904 2.428 1.041.246 1.483-1.336.443-1.605-11.845-3.057-24.262-3.246-36.416-2.863-12.609.399-25.219 1.113-37.818 1.75-6.395.322-12.788.703-19.16 1.33-6.191.607-12.351 1.496-18.533 2.184-6.268.699-12.56 1.162-18.869.955-6.383-.211-12.766-.465-19.147-.709-7.101-.27-14.226-.338-21.317-.768-3.102-.188-6.826-.27-9.582-1.887-2.367-1.389-3.371-4.534-1.959-6.939.373-.643-.568-1.165-.984-.575"/><path fill="#43525B" d="M185.038 214.26c3.112 1.725 6.524 2.592 9.991 3.266 1.149.223 2.82.445 3.613 1.428 1.613 1.996-1.64 3.656-3.083 4.174-7.531 2.707-15.294 4.893-23.007 7.01-2.378.654-16.431 4.094-10.666 8.584 2.401 1.873 6.178 2.148 9.114 2.291 3.644.178 7.283-.262 10.86-.918 8.814-1.613 17.636-4.549 26.683-2.967.319.057.457-.432.135-.49-7.52-1.309-15.011.451-22.365 1.941-7.087 1.434-15.363 2.918-22.326.143-.816-.324-1.947-.867-2.338-1.719-.533-1.166.733-2.027 1.545-2.58 1.661-1.129 3.598-1.807 5.506-2.381 3.633-1.094 7.33-1.982 10.982-3.008 3.938-1.107 7.89-2.158 11.812-3.32 2.683-.793 6.626-1.318 8.396-3.775 1.96-2.723-.431-4.967-3.031-5.684-1.725-.477-3.517-.672-5.249-1.135-2.065-.555-4.059-1.326-6.045-2.111-.727-.29-1.195.882-.527 1.251"/><path fill="none" d="M.218.014H209v241.482H.218z"/></svg>