<svg xmlns="http://www.w3.org/2000/svg" viewBox="0 0 780 925"><defs><style>.cls-1{fill:#c3e3f2}.cls-2,.cls-3{fill:none}.cls-3{stroke:#86c8e4;stroke-linecap:round;stroke-linejoin:round;stroke-width:0}.cls-4{fill:#86c8e4}</style></defs><path id="Layer_5" d="M154.4 777.7c.7-5.1 1.5-10.4 2.4-15.8 4.7-30.6 35.2-182.8 35.9-150.7.2 11.8 10 100.5 16.3 166.5h341.8c4.2-31.3 6.1-63.3 6.7-94.1 3.5-187 41.3 45.9 46.5 64.5 2.2 7.7 4.1 18.2 5.9 29.6h92.8a414 414 0 0 1-5.9-50.3c4.2-58.1-27.7-112.3-30-169.1-1.9-48.2-13.1-86-35.5-131.6-21.3-43.3-67.9-50.5-108.8-56.8-34.5-5.3-46.5-9.3-70.3-39-2.3-2.9-6.5-19.1-8.2-27.4h.4s-11.1-45.5 4.6-65.7c0 0 75.5-55.9 55.7-137.8-16.7-69.4-82.4-90.4-124-90.4s-107.7 32-88.4 69.7c0 0-6.3 20.3-11.5 28.7s-12.4 26.5-6.5 34.3c0 0-10.8 14-19.7 19.7a33.3 33.3 0 0 0-8.6 6.8c-2.4 2.5-7.8 13 .7 17 1.9.8 6.5 3.4 9.9 3.7 0 0 6.4 8.1 2.3 12.4a9 9 0 0 0-2.5 4.8c-1.2 5.5 2.2 12 8.7 14.1l-1.8 1.6c-3.5 3.7-10.3 12.5-.2 18.5a14.4 14.4 0 0 1 1.8 14c-3.1 8.1 1.7 21.5 23.7 23.2 16.6 1.3 29.2 3.5 33.8 15.2.3 5.1.4 9.8.3 14a1.1 1.1 0 0 0-.1.5h.1c-1.6 56-38.4 45.4-86.5 56.9-108.6 26.1-125.1 98.2-135.3 204.9-3.2 33.4-17.3 64.6-22.9 97.7-6 36.2-10.1 78.5-15.2 110.4Z" class="cls-1" data-name="Layer 5"/><g id="Layer_9" data-name="Layer 9"><path d="M425.5 227.3a13.2 13.2 0 0 1-1.2 3.5 10.6 10.6 0 0 1 .9 2.5 34 34 0 0 0 1.1-3.4v-.3a15.5 15.5 0 0 0-.8-2.3M514.7 437.8c-3.9 5.9-12.9 14.4-19 20.8a112 112 0 0 1 12.1 21c3.9-13.2 11.3-27.1 6.9-41.8M426.7 219.8l1.3-1.4a18 18 0 0 1 .2 2.3c8.4-10.3 9.7-22.1 9.6-36.2-6.3-1-12.7-3.3-17.4-5-7.1 5.5-14.3 14.5-17.5 21.3 1.3-7.7 7-16.6 13.8-22.6-5.8-1.6-15.5-3.4-18.1-3.2-7.8 4.3-12.3 10.7-13.1 20 0 .2 1.9.3 1.8.5a26 26 0 0 1 4.4 2c4.7 2.6 7.2 6 10 10.3s7.9 4.4 13.5 5.2a23.4 23.4 0 0 1 6.9 2.3 9.3 9.3 0 0 1 4.7 7 6.5 6.5 0 0 0-.1-2.5M425.6 226.8a13.1 13.1 0 0 0 1.2-4.5l-1.3 1.3a6.9 6.9 0 0 1 .1 3.2M494.9 455.1l-1.3.7a.2.2 0 0 1 .2.2ZM408.6 252.6c5.3-7.4 12.7-15.2 15.7-21.8a20 20 0 0 0-1-2.1c-6.6 7.2-12 15.4-14.7 23.9M385.9 196h-.6c.2.4.4.6.6 0M440.5 180.4c3.9-7.6 9.2-16.4 11.6-24.8a43.6 43.6 0 0 1-12 6.9 65.6 65.6 0 0 1 .4 17.9M416.5 246.3a34.7 34.7 0 0 0-9.5 13.3 32.8 32.8 0 0 0 5.3 22.4l2.5 6.6q.4-4.2 1.2-8.1a84 84 0 0 1 5.5-17c2.5-10.1 6.2-21.2 3.7-30.2-2 5.2-5.3 10.2-8.7 13M437.2 173.5a42.5 42.5 0 0 0 .4-10c-6.5 2.3-13.4 3.8-20 5.7a78 78 0 0 0-10.6 3.6c3 .8 7.1 2.2 11.7 3.8 6.4-4.8 13.4-6.9 18.5-3.1M218.9 576.6a188.5 188.5 0 0 1 6.5-23.4c-14.7-3-17.2-19.4-23-30-.8 23.1-8.1 41.6 14.1 55l1.8 1.8ZM215.4 597.5c.6-4.8 1.4-9.5 2.2-14.2-5-5.5-10.1-9.8-15.1-12 .2 10.5 4.7 27.6 10.7 45.6.3-3.1.6-6.2 1-9.3s.8-6.8 1.2-10.1M312.3 414.2c6.6-3.9 16-13 20.2-19.2-4.5-1.4-26.5-4.4-31.1-5.2a20.9 20.9 0 0 0 2.8 10.7c1.8 3 8.4 10.5 8.1 13.7M279.3 442.4l4.2-4.2c.6-.5 1.1-1.1 1.6-1.6l2.4-2 1.7-1.5 2.1-1.7 2-1.5a62 62 0 0 1 10.2-6.4 46 46 0 0 1 8.1-3.3c-1-8.8-13-21.9-13.1-30.9-25.7-3.2-38.2 3.9-60.4 16.7 3.7 11.3 1.5 24.6 3 36.7s8.5 21.1 15.5 31a141 141 0 0 1 17.4-25.4c1.7-2 3.5-4 5.3-5.9M121 582.4a250.3 250.3 0 0 0 42.3-41.9c1.7-35.5 10.7-71.3 28.1-103.6a258.7 258.7 0 0 0-59.6 98.8c-4.9 15.3-7.4 31.1-10.8 46.7M314.5 415.2a33 33 0 0 0-.3 4.3l3.2-.6 3.4-.2h1.8l3.1.4h.5l2.1.4c4.2-7.4 9.1-21.9 4-22.2a50.6 50.6 0 0 1-17.8 17.9M393.6 438.2v29.6l.6.9-.6.3v.9c3.3 2.4 6.8 4.9 7.9 5.5s.1.1.2.2l.3-3.7c.4-3.6.9-7.2 1.6-10.7s1.1-4.7 1.7-7a20 20 0 0 0 .7-2.3c.8-2.3 1.6-4.5 2.5-6.7s2-4.3 3.2-6.4a59 59 0 0 1 5-7.3c4.5-5.8 9.5-9.4 14.6-11.2l3.2-1a33.6 33.6 0 0 1 6.3-.6h1.8a32.3 32.3 0 0 1 5.3.8c16.6 3.9 33.5 19.9 45.5 35.8l.3-.6 1.4.2c7.3-6.1 16.5-13.6 18.3-23.2-2.5-13.8 8.3-47-11.3-48.1-15.4-3.6-23.5-10.2-46.5-2.3h-.4c-3.1 1.1-4.7 2.5-7.7 2.6a11.6 11.6 0 0 0-5.3 1.5 47.7 47.7 0 0 0-8 6 47.7 47.7 0 0 1 8-6c-15.5 7.4-39.8 40.7-46.6 46.4l-2 1.3v4.9Z" class="cls-2"/><path d="M519.6 511.8c9-9.6 18.1-19.9 24.2-30.1 7.9-35.1 21.2-74.1-22.7-92.8-5.1 32 2.7 63.9-11.8 94.6.9 2.4 1.8 4.8 2.6 7.2 2.5 7.1 5 14.1 7.7 21.1M170.7 545.7c8.7 98.9-41.6 98.6-19.9 170 19-42.1 26.4-88.8 24-134.7a281 281 0 0 0-4.1-35.3M367.9 411.2c-1.8-1.2-4.1-3-6.4-3.6-.6-.2-9.2-5.9-9.8-5.9s-.5-.1-.4-.2-6.7-5.6-11.2-4.6-4 9.7-6.5 17.6l-.9 3-2.3 2.8 1.5.6 1.5.7a12 12 0 0 1 1.9 1.1 35.7 35.7 0 0 1 9.7 8.8 63.1 63.1 0 0 1 10.6 20.4 30 30 0 0 1 1 3.2c.5 1.9 1 3.8 1.4 5.7s.7 3.9 1 5.8.8 6 1 9a28 28 0 0 0 3.8-2.6 4.5 4.5 0 0 0 .1 1.1l3.1-1.1v-.2h.2l.7-.3v-3.3h-.7l.5-.6.2-.3v-52.4ZM225.6 552.6c1.5-4.1 3-8.2 4.7-12.2-4.6-2.9-11.5-6-21.1-10.5.7 10.3 10 17.3 16.4 22.7M233.2 524.7c-.5-18.6-19-28.6-29.1-41.9-2.7 39.3-3.8 39.4 26.9 55.7l5.6-13.5 4.5-10.7 3.3-8.5c1.5-4.3 3-8.6 4.6-12.9s3-8.6 4.7-12.9c.4-1 .9-2 1.3-3.1-5.8-8-12.6-15.7-15.7-25.2-8.8 23.5 1.4 20.3 5.2 38.9-29.4-40-.1-38.1-10.3-82.2-27.6 16.5-34.8 38.4-30.1 69 7.3 13.3 37.9 31.7 29.1 47.3" class="cls-2"/><path d="m520.6 514.2 1.2 2.8c.4 1 .7 1.9 1.1 2.8 13.5-12.3 31-6.9 34.7-17.5 5.8-21.7-.1-49-.1-54.8 0 24.7-19.4 49.6-36.9 66.7" class="cls-2"/><path d="M548.1 513c-5.4 8.3-8.7-5.6-23.4 11.2l4.2 10c7-6.7 14.9-13.9 19.2-21.2M621.6 467.7c-6.6-14.8-3-35.8-18.6-45.5-6.2-3.5-13.4-2.1-20.3-1.7a221.9 221.9 0 0 1 50.1 94.8c7.8-17.4-2.4-32.9-11.2-47.6M444.8 355.8a24.5 24.5 0 0 1-5.5 2.3 21.6 21.6 0 0 0-5.4 2 70.3 70.3 0 0 1-3.3 22.2c12.5-6.5 15.6-15.8 14.2-26.5" class="cls-2"/><path d="M631.8 562.7c-.2-54.7-24.9-108.9-63.9-146.6l-2.8-2.6c11.7 36.1 23.9 73.2 29.1 110.8 1.8 17.8 24.8 27.3 37.6 38.4M548.9 562.8a56 56 0 0 0-8 6.1c2 8 3.6 16.2 4.8 24.4a195 195 0 0 0 3.2-30.5M631.8 565.6c-13.8-7.4-26.2-17.4-37.4-28.3-.4 10.9.5 21.4.6 31.9a118.3 118.3 0 0 1-2.1 25.8c15.8 8 23 25.6 35 37.8 9.9 13 25.3 16.8 37.6 26.4-1.6-13-1.8-26.3-4.7-39.2-5.3-18.7-30.8-33.7-29-54.4M422.5 178a131 131 0 0 0 15.3 4.4v-3.3c-3-6.3-9-5.3-15.3-1.1M539.8 564.5l5.2-4.9c9.2-11.9 12.5-33.9 12.5-48.6 0 1.5-15.5 16.6-27.6 25.7 2.2 5.3 4.3 10.7 6.2 16.1 1.4 3.8 2.6 7.8 3.7 11.7M393.6 416v.3c.4 0 .2-.1 0-.3M433.8 356.6c3.5-1.4 7.3-1.6 10.6-3.6-4-20.6-22.7-46-25-67.5a107 107 0 0 0-1 12.6c7.2 18.8 14.5 38.8 15.4 58.5M454.1 215.1c-.1-1.9-.4-3.8-.6-5.7-12.9 14.1-24 27.9-28.3 46.1l3.8-6.9c6.2-10.2 26.6-13.9 25.1-33.5M428.8 359.9c1.3-17.9-3.9-31.8-5.3-34.9-1.5-5.6-3.2-11-5-16.4.2 10.3.6 21 2.5 30.7.1.1.1.2.1.4 2.7 6.7 5.7 13.8 7.2 20.7.1-.2.3-.3.5-.5M179.6 442.9c-25.8-26-41.7 3.5-42 29.5-6 17.6-17.3 34.3-11.8 53.8a64 64 0 0 0 1.7 7.3 261.1 261.1 0 0 1 52.1-90.6" class="cls-2"/><path d="M421.2 340a.4.4 0 0 1-.1-.3c0-.1-.1-.2-.1-.4a1.2 1.2 0 0 0 .2.7M414 296.3c-3.1-8.3-6.5-16.9-9.9-26.2a75.7 75.7 0 0 0 .9 25.1c2.3 11.3 7 22.2 11.7 33-2.7-10.2-3.3-21.2-2.7-31.9" class="cls-2"/><path d="M434.2 391.6a47.7 47.7 0 0 1 8-6" class="cls-3"/><path d="M421 339.3c0 .2.1.3.1.4s0-.3-.1-.4" class="cls-4"/><path d="m329.8 484.7-.8.7a31.6 31.6 0 0 0-6.8 5.8 9.2 9.2 0 0 0-1.9 2.5 17.2 17.2 0 0 0 7.6 13.2 33.6 33.6 0 0 1 5.1-3.2 24 24 0 0 1 6.4-1.2c-5.1-4.4-8-10.9-9.6-17.8M236.6 525l4.5-10.7 3.3-8.5-3.3 8.5ZM249 492.9c1.5-4.3 3-8.6 4.7-12.9.4-1 .9-2 1.3-3.1s1.1-2.1 1.6-3.2a141 141 0 0 1 17.4-25.4 141 141 0 0 0-17.4 25.4c-.5 1.1-1.1 2.2-1.6 3.2s-.9 2.1-1.3 3.1c-1.7 4.3-3.2 8.6-4.7 12.9M348.4 662.2l-2.8 2.5ZM364.5 608.2a10 10 0 0 0-.2-1.6c-1.1-11.1-2.2-22.1-3.1-33.1.9 11 2 22 3.1 33.1a10 10 0 0 1 .2 1.6M398.2 473.3a18.5 18.5 0 0 0 3.3 2.1c-1.1-.6-4.6-3.1-7.9-5.5v-.9a21.7 21.7 0 0 1-5.4 2.4 28.6 28.6 0 0 1-14.8-.1 32.7 32.7 0 0 1-5.5-2v3.3l-.7.3h-.1a28.4 28.4 0 0 0 5.6 1.9 31.7 31.7 0 0 0 15.3 0 24.1 24.1 0 0 0 7.3-3.3 90 90 0 0 1-4.6 21.3 50 50 0 0 1-2.5 6.4h8.5l-5.4-.2a90.3 90.3 0 0 0 6.9-25.7" class="cls-1"/><path d="m327 580 .9-2.6c3.9-11.2.5-20.5-4.6-30.7a56.7 56.7 0 0 1-5.2-13.6 9.1 9.1 0 0 0 2.3 1.5 29 29 0 0 0 4.1 1.6 32 32 0 0 1 3.6 2c.7.4 1.6-.9 1.2-1.6-2.7-3.8-10-1.9-11.6-6.7a25.5 25.5 0 0 1 .4-8.2c.8-4.2 3-7.9 5.5-11.5l1.3-1a18.8 18.8 0 0 1-7.1-10.3 27.5 27.5 0 0 1-2 3.8l-1.5-1.1-3.6-3.5a42.8 42.8 0 0 1-7.4-12c-.4-7.2 2.3-12.8 5.5-19.4 2.6-5.1 2.6-10.6 1.9-16.1a.3.3 0 0 0-.5.1c.5 9.7-3.5 16.1-6.9 24.6a21.2 21.2 0 0 0-1.4 6.9c-.3-1.1-.6-2.2-.8-3.2-1.3-7.9-6.4-13.7-12.1-19-.4-.3-1 .4-.6.8 4.8 4.7 8.7 9.6 10.6 16.2 1 3.5.5 7.6 2.3 10.9l2.8 4.6a14.3 14.3 0 0 0-4.9-.6c-6.3-.2-10.9-.9-14.8-6.3-.3-.5-1 .1-.7.6a13.8 13.8 0 0 0 7.1 6 43 43 0 0 0-6 3.8c-3.9 2.7-11.3 3.3-15.8 1.5-.5-.2-.9.6-.4.8 8.3 3.7 17.8.5 24.1-5.4h.1a42 42 0 0 0 7.6 1.1c4.5.4 7.5 5.8 10.8 8.6a6.7 6.7 0 0 1 2 2.7 15 15 0 0 1 .7 1.9 32 32 0 0 1-6.1 1.5c-6.4.8-13.3 0-19.6 1.6s-10.6 5.1-14.4 9.3a.6.6 0 0 0-.6 0c-3.2 1.2-7.3.6-10.6 1.7a15.6 15.6 0 0 0-7.1 4.7 80 80 0 0 0-5.7 7.3c-1.5 2.1-2.9 4.4-4.3 6.6l-3.8 6.5c-.2.5.1.9.6.8a.7.7 0 0 0 .7-.4c1.8-3 3.7-6 5.6-8.9s3.3-4.8 5.1-7.2l1.9-2.3a16.5 16.5 0 0 1 13.5-6.5h.8a6.4 6.4 0 0 0 2-.3l-3.8 4.8-1.9 2.7c-.7.9.5 1.8 1.1.9l3.7-4.9a71 71 0 0 1 5.1-5.8 32.3 32.3 0 0 1 6.8-5l3.7-1.6a9.1 9.1 0 0 0-1.7 4.3 1.7 1.7 0 0 0-.1.7c-.1 1.3-.3 2.6-.5 3.8-1.5 8.2-6 14.3-11 21.4-.5.8.4 1.6 1.1.8a104 104 0 0 0 9.4-13.4 3.6 3.6 0 0 0 .4-1.1l.3.6c1 2.2.8 4.3.9 6.6.1.7.9.4 1-.1s.6-3.5.4-5.2a35 35 0 0 0-1.5-5.3c.4-1.4.7-2.9 1-4.5a29 29 0 0 1 1.1-4.2c.8-2.4 1.9-4.4 3.8-5.5a.1.1 0 0 0 .1-.1 67.2 67.2 0 0 1 13.5-.7h.4a28 28 0 0 0 7.8-.6l1.7-.5c-6.4 5-11.5 9.6-14.5 18.8-1.8 5.7-1.8 11.6-1.9 17.4a13.8 13.8 0 0 1-9.9 3.4 28.2 28.2 0 0 0-7.1.9c-5.3 1.2-8 5.8-11.4 9.5-.3.4.1.9.4.6 2.2-2.2 4.3-4.4 6.5-6.5s8.7-2.8 12.6-2.5a11.1 11.1 0 0 0 8.9-3.1c-.2 7.8-3.6 13.6-9.6 18.1-2.2 1.7-4.9 3.2-6.6 5.3a24 24 0 0 0-2.4 4.8c-1.6 4-7.2 5.9-11.5 7.4a20.7 20.7 0 0 1-10.2.5c-2.2-.4-4-2-6.4-1.8-5.6.6-9.4 4.1-12.5 8.5-.6.9.4 1.7 1 .9 2.3-3.1 4.8-5.8 8.6-7.1s6.7 1.1 10.2 1.9l2.4.3a29.1 29.1 0 0 0-7.9 7c-5.8 7.1-3.8 22.5-1.5 30.6.3.9 1.5.2 1.3-.6a51.8 51.8 0 0 1-.6-20c1.6-10.2 8.2-14.3 17-17.4 3.1-1 7.2-2.1 9.7-4.5.3 3.3 2.2 6 1.7 10a31.3 31.3 0 0 1-11.3 20.4c-.8.7-.1 2.1.9 1.4 5.5-4.2 8.9-10 11.2-16.5a29.2 29.2 0 0 0 1.7-8.8c.2-3.5-2.2-5.8-1.7-9.4 2.6-3.7 4.2-7.7 8.3-10.7a23.4 23.4 0 0 0 7.3-8.2c.4.8.8 1.7 1.3 2.5 3.4 5.3 7 10.7 4.1 17.3-.4 1 .9 1.3 1.3.5 1.6-3.4 1.6-6.8.9-10.5-.9-5.2-5.4-8.7-5.7-13.9a44.6 44.6 0 0 0 1.9-11.5c.3-9 1.1-17.2 6.2-25 1.9-3 4.9-5.1 7.9-7.2a3.2 3.2 0 0 0 2.4 1.4 38.7 38.7 0 0 0-4.1 13.4c-.6 7 2 13.4 4.9 19.8a.6.6 0 0 0-.3.5c.5 3.3 1.2 6.7-.5 9.8s-2.9 4.3-2.7 7.3c.1.7.9.5 1-.1.6-3.3 3-5.5 3.7-8.7a16.8 16.8 0 0 0-.2-6.7c2.7 5.6 5.3 11.3 5.8 17.3.8 8.2-4.4 16.8-7.6 24s-7.5 14.8-10.8 22.4a27.8 27.8 0 0 0-2.4 14.2c.5 6.3 4.7 15.3 2.8 21.2-.4 1.1 1.2 1.3 1.6.4 1.3-3.5.9-6.4 0-10-2-8.4-2.2-16.4 1.6-24.4a34 34 0 0 1 1.6-3.3 42 42 0 0 0 3.7 5.2c3.1 4 3.1 10.3 2.3 15-.2 1 1.2 1 1.4.1a31.2 31.2 0 0 0-.2-11.4c-.9-4.5-4.1-7.6-5.8-11.7 4.1-8.3 8.6-16.2 12.1-24.8l1.3 2c4.2 6.4 5 12.8 2.3 20.1a.8.8 0 1 0 1.4.6 24.5 24.5 0 0 0 2.1-13.3c-.7-4.8-4.2-8.5-5.7-12.8M363.4 499.9l-2.8.6ZM210.4 661.8c.1 2.7.3 5.3.6 8a24.3 24.3 0 0 0 2 3.5 24.3 24.3 0 0 1-2-3.5c-.3-2.7-.5-5.3-.6-8M348.4 662.2a44.7 44.7 0 0 0 6.4-7.3c.9-1.3 1.6-2.6 2.4-3.8-.8 1.2-1.5 2.5-2.4 3.8a44.7 44.7 0 0 1-6.4 7.3M491.9 612.5a31.2 31.2 0 0 1-11.2-20.4c-.5-4 1.3-6.7 1.7-10 2.5 2.4 6.6 3.5 9.7 4.5 8.8 3.1 15.4 7.2 16.9 17.4a48.2 48.2 0 0 1-.6 20c-.2.8 1.1 1.5 1.4.6 2.3-8.1 4.2-23.5-1.5-30.6a30.6 30.6 0 0 0-7.9-7l2.4-.3c3.4-.8 6.4-3.1 10.1-1.9a14.5 14.5 0 0 1 5.1 3.1 19.3 19.3 0 0 1 3.5 4c.7.8 1.7 0 1.1-.9l-1.1-1.5c-2.9-3.7-6.5-6.5-11.4-7-2.4-.2-4.2 1.4-6.4 1.8a21.1 21.1 0 0 1-10.3-.5c-4.2-1.5-9.8-3.4-11.5-7.4a23.5 23.5 0 0 0-2.3-4.8c-1.8-2.1-4.4-3.6-6.6-5.3-6-4.5-9.4-10.3-9.6-18.1a11 11 0 0 0 8.8 3.1c4-.3 9.5-.3 12.6 2.5s4.3 4.3 6.5 6.5c.4.3.7-.2.5-.6-3.4-3.7-6.2-8.3-11.4-9.5a29 29 0 0 0-7.2-.9c-4.2.1-6.7-1-9.9-3.4-.1-5.8 0-11.7-1.8-17.4-3-9.2-8.1-13.8-14.5-18.8 2.9 1.1 6.3 1.2 9.9 1.1a65.8 65.8 0 0 1 13.4.7h.2c4 2.2 4.6 8.9 5.8 14.2a34.6 34.6 0 0 0-1.4 5.3c-.3 1.7.2 3.5.4 5.2s.9.8.9.1c.2-2.3 0-4.4 1-6.6a1.4 1.4 0 0 0 .2-.6 12 12 0 0 0 .5 1.1 95 95 0 0 0 9.4 13.4c.6.8 1.6 0 1-.8-5.7-8.2-10.7-14.9-11.4-25.2a8.9 8.9 0 0 0-1.8-5l3.6 1.6c7.3 3.9 10.8 9.5 15.6 15.7a.8.8 0 1 0 1.2-.9q-2.8-3.9-5.7-7.5a8 8 0 0 0 2.8.3 16.7 16.7 0 0 1 13.5 6.5c2 2.5 3.8 5 5.6 7.5l2.6 3.8c1.5 2.3 2.9 4.7 4.3 7.1.5.8 1.9.4 1.4-.5-1.7-2.9-3.3-5.7-5.1-8.5-.8-1.3-1.7-2.7-2.6-3.9a80 80 0 0 0-6.1-8 16.1 16.1 0 0 0-7.1-4.7c-3.4-1.1-7.4-.5-10.6-1.7q-.5-.2-.6 0c-3.8-4.2-8.2-7.7-14.4-9.3-8.4-2.2-17.9 0-25.7-3.1.5-1.5.8-3.1 2.7-4.6s6.3-8.2 10.8-8.6a42 42 0 0 0 7.6-1.1c6.4 5.9 15.9 9.1 24.2 5.4.5-.2.1-1-.4-.8-4.5 1.8-12 1.2-15.9-1.5a33.8 33.8 0 0 0-6-3.8 14 14 0 0 0 7.2-6c.3-.5-.4-1.1-.7-.6-4 5.4-8.6 6.1-14.8 6.3a14.3 14.3 0 0 0-4.9.6c1-1.6 1.9-3.1 2.7-4.6 1.9-3.3 1.4-7.4 2.4-10.9 1.9-6.6 5.8-11.5 10.6-16.2.4-.4-.2-1.1-.6-.8-5.8 5.3-10.9 11.1-12.1 19-.2 1-.5 2.1-.8 3.2a21.2 21.2 0 0 0-1.4-6.9c-3.4-8.5-7.4-14.9-6.9-24.6 0-.3-.5-.4-.5-.1-.7 5.5-.7 11 1.8 16.1 3.3 6.6 5.9 12.2 5.6 19.4a48 48 0 0 1-7.4 12 40 40 0 0 0-3.6 3.5h-.1l-1.3 1a29.8 29.8 0 0 1-6.2 10.2 26.9 26.9 0 0 1 3.8 8.9 25.5 25.5 0 0 1 .4 8.2c-1.7 4.8-9 2.9-11.6 6.7-.5.7.4 2 1.2 1.6a25.3 25.3 0 0 1 3.6-2 29 29 0 0 0 4.1-1.6 7.1 7.1 0 0 0 2.2-1.5 52.8 52.8 0 0 1-5.2 13.6c-5 10.2-8.4 19.5-4.6 30.7.4.9.7 1.8 1 2.6-1.5 4.3-5 8-5.8 12.8a25.5 25.5 0 0 0 2.2 13.3.8.8 0 1 0 1.4-.6c-2.7-7.3-1.9-13.7 2.3-20.1l1.2-2c3.6 8.6 8 16.5 12.2 24.8-1.7 4.1-5 7.2-5.8 11.7a29.2 29.2 0 0 0-.2 11.4c.2.9 1.6.9 1.4-.1-.9-4.7-.8-11 2.2-15a34.3 34.3 0 0 0 3.8-5.2c.5 1.1 1.1 2.1 1.6 3.3 3.8 8 3.6 16 1.6 24.4-.9 3.6-1.3 6.5 0 10 .3.9 2 .7 1.6-.4-2-5.9 2.3-14.9 2.8-21.2a28.9 28.9 0 0 0-2.4-14.2c-3.3-7.6-7.4-14.8-10.8-22.4s-8.4-15.8-7.7-24c.6-6 3.2-11.7 5.8-17.3a18.9 18.9 0 0 0-.1 6.7c.6 3.2 3 5.4 3.6 8.7.1.6 1 .8 1.1.1.1-3-1.4-4.8-2.7-7.3s-1-6.5-.6-9.8a.5.5 0 0 0-.3-.5c3-6.4 5.6-12.8 5-19.8a38.7 38.7 0 0 0-4.1-13.4 3.2 3.2 0 0 0 2.4-1.4c3 2.1 5.9 4.2 7.9 7.2 5.1 7.8 5.9 16 6.2 25a40.7 40.7 0 0 0 1.9 11.5c-.3 5.2-4.8 8.7-5.8 13.9-.6 3.7-.7 7.1.9 10.5.5.8 1.7.5 1.3-.5-2.8-6.6.7-12 4.2-17.3a14 14 0 0 0 1.2-2.5 24.8 24.8 0 0 0 7.4 8.2c4.1 3 5.7 7 8.3 10.7.5 3.6-2 5.9-1.8 9.4a32.8 32.8 0 0 0 1.8 8.8c2.3 6.5 5.6 12.3 11.2 16.5.9.9 1.7-.5.8-1.2M539.1 681.2a54 54 0 0 1-11.7 4 54 54 0 0 0 11.7-4M348 479.1h-1.7a21.1 21.1 0 0 0-13.6 3.4c1.7 8 5.5 15.7 12.5 19.5l9.5-.8c-4.9-5.4-7-14.2-6.7-22.1M447.9 419.6c16.6 3.9 33.5 19.9 45.5 35.8.1.1.1.2.2.4a.2.2 0 0 1 .2.2l1.9 2.6a112 112 0 0 1 12.1 21c0 .1.1.3.1.4s.9 2.3 1.4 3.5c-.5-1.2-.9-2.4-1.4-3.5s-.1-.3-.1-.4a112 112 0 0 0-12.1-21l-1.9-2.6a.2.2 0 0 0-.2-.2c-.1-.2-.1-.3-.2-.4-12-15.9-28.9-31.9-45.5-35.8M367.9 437.6a19.5 19.5 0 0 0 10.4 3.1 30.6 30.6 0 0 0 15.3-3.9v-3.3a26 26 0 0 1-15.1 3.7 16.9 16.9 0 0 1-10.6-4.4zM544.1 678.2a19.8 19.8 0 0 0 6.5-8.4c.4-3.1.6-6.1.7-9.2-.1 3.1-.3 6.1-.7 9.2a19.8 19.8 0 0 1-6.5 8.4M210.4 649c.1-2.2.3-4.4.5-6.6-.2 2.2-.4 4.4-.5 6.6M522.9 519.9l1.8 4.3zc-.4-.9-.7-1.8-1.1-2.8.4 1 .7 1.9 1.1 2.8M335.3 422.7a35.7 35.7 0 0 1 9.7 8.8 63.1 63.1 0 0 1 10.6 20.4 63.1 63.1 0 0 0-10.6-20.4 35.7 35.7 0 0 0-9.7-8.8M403.6 461.2c-.7 3.5-1.2 7.1-1.6 10.7.4-3.6.9-7.2 1.6-10.7M402.3 521.7c.4 15.6-.3 31-1.4 46.4 1.1-15.4 1.8-30.8 1.4-46.4" class="cls-1"/><path d="M438.1 510.2h.1a24.4 24.4 0 0 0 5.7-11.2c-1.2-2.7-2.2-5.6-4.4-7.9a35 35 0 0 0-3.4-3.3 30.1 30.1 0 0 1-6.3 16.4 69 69 0 0 1 8.3 6M432.8 485.5a.1.1 0 0 0-.1-.1 22.9 22.9 0 0 0-15.6-6.4c-.3 7.6-2.8 16.5-7.2 22.5 6.7.5 13.8.9 17.3 1.7 3.9-4.5 5.9-11.7 5.6-17.7M406.5 501.2c4.6-5.1 7.1-14.6 7.4-22.1a26.6 26.6 0 0 1-12.2-3.5 209 209 0 0 0-.3 25ZM360 475.6a29.7 29.7 0 0 1-8.9 3.2c-.2 8.3 2.6 17.6 8.7 21.8h.5a209 209 0 0 0-.3-25M367.2 469l.5-.6zM373.7 374.3a17.4 17.4 0 0 1-5.7-1.9 17.4 17.4 0 0 0 5.7 1.9M529.9 536.7c2.2 5.3 4.3 10.7 6.2 16.1 1.4 3.8 2.6 7.8 3.7 11.7.4 1.5.8 2.9 1.1 4.4a250.45 250.45 0 0 0 0 0c-.3-1.5-.7-2.9-1.1-4.4-1.1-3.9-2.3-7.9-3.7-11.7-1.9-5.4-4-10.8-6.2-16.1-.3-.8-.6-1.6-1-2.5l-4.2-10 4.2 10c.4.9.7 1.7 1 2.5M527.4 685.2q-3.1.8-6.3 1.2 3.2-.4 6.3-1.2M372 413.7a12.5 12.5 0 0 1-4.1-2.6v4.7a18.2 18.2 0 0 0 7.3 2.6 31 31 0 0 0 17-2.6l1.4-.7v-3.3a24.3 24.3 0 0 1-4 1.8c-5.6 2.2-12.5 2.4-17.6.1M367.9 394.3l1.5.9c6.7 3.4 16.7 1.9 24.2-1.7v-3.4c-8.2 4.1-20.2 5.6-25.7-.7zM380 499.1h-5.3a29.5 29.5 0 0 1-4.2-7.3c-2.3-5.8-3.2-12.4-3.5-18.8l-3.1 1.1c.5 8.8 1.9 17.9 6.5 25.1l-5.4.2h15ZM213.2 616.9c.3-3.1.6-6.2 1-9.3-.4 3.1-.7 6.2-1 9.3L212 629l-.3 4 .3-4ZM391.5 456.1a13.6 13.6 0 0 0 2.1-1v-3.4l-1.6.9c-4.1 2-10 2.3-15.3 1.3a22 22 0 0 1-8.8-3.6v4.5a25.8 25.8 0 0 0 8.1 2.7 30.8 30.8 0 0 0 15.5-1.4M238.9 686.1l3.1.5a82.4 82.4 0 0 0 12.2.6 82.4 82.4 0 0 1-12.2-.6Z" class="cls-1"/><path d="M249 492.9c-1.6 4.3-3.1 8.6-4.6 12.9M477.1 684.2l-5.3-.8" class="cls-3"/><path d="M353.1 132.8a30 30 0 0 0 4.1 1.8 12.2 12.2 0 0 0 4.6.6l.6-.2c1.5 2.4 3.1 4.7 4.7 7l1.3 1.8 1.1 1.5c3.4 4.5 5.8 9.4 3.9 15-1.2 3.6-3.7 6.6-5.6 9.8-2.8 4.7-4.8 10-2.3 15.2 4.1 8.8 16.9 10.3 24.7 14.7a20.4 20.4 0 0 1 7.3 6.7c1.5 2.4 2.8 5.2 5.2 6.9a8.7 8.7 0 0 0 3 1.6c4.9 1.6 10.7.3 15.5 3.1 2.5 1.5 3.9 3.3 4.3 5.3h.1c0 .2 0 .2-.1 0l-1.5 1.5c-.4-1.6-3.4-3.3-2.9-.6-2.6 13.1-18.6 19.4-18.4 33.6-3.4-10.6-4.7-11.8-5-23.6-.1-6.3-4.8.1-.2 15.4 1.6 5.5 3.2 10.6 4.9 15.5-2.6 14.6-2.3 28 2.3 42.4.5 1.7 8.9 32.6 9.5 34.3-8.8-10.4-8.8-12.5-13.4-25.7a.2.2 0 0 0-.4.2c4 15.9 5.9 21.7 17.2 34.2 3.9 9.5 2.3 3.3 5.1 13.2s2.8 12.2.7 18.7c-7.9 19.1-24.1 29.1-29.7 32.7-.1 0-.1 0-.1.1v-.3l-1.4.7a31 31 0 0 1-17 2.6 18.2 18.2 0 0 1-7.3-2.6v16.9a16.9 16.9 0 0 0 10.6 4.4 26 26 0 0 0 15.1-3.7v-.2l2-1.3c6.8-5.7 31.1-39 46.6-46.4a11.6 11.6 0 0 1 5.3-1.5c3-.1 4.6-1.5 7.7-2.6h.4c23-7.9 31.1-1.3 46.5 2.3 19.6 1.1 8.8 34.3 11.3 48.1-1.8 9.6-11 17.1-18.3 23.2l-1.4-.2-.3.6c.1.1.1.2.2.4l1.3-.7-1.1.9 1.9 2.6c6.1-6.4 15.1-14.9 19-20.8 4.4 14.7-3 28.6-6.9 41.8 0 .1.1.3.1.4s.9 2.3 1.4 3.5c14.5-30.7 6.7-62.6 11.8-94.6 43.9 18.7 30.6 57.7 22.7 92.8-6.1 10.2-15.2 20.5-24.2 30.1-2.7-7-5.2-14-7.7-21.1-.8-2.4-1.7-4.8-2.6-7.2s-.9-2.4-1.4-3.5-.1-.3-.1-.4a112 112 0 0 0-12.1-21l-1.9-2.6a.2.2 0 0 0-.2-.2c-.1-.2-.1-.3-.2-.4-12-15.9-28.9-31.9-45.5-35.8a32.3 32.3 0 0 0-5.3-.8h-1.8a33.6 33.6 0 0 0-6.3.6l-3.2 1c-5.1 1.8-10.1 5.4-14.6 11.2a59 59 0 0 0-5 7.3c-1.2 2.1-2.2 4.2-3.2 6.4s-1.7 4.4-2.5 6.7a20 20 0 0 1-.7 2.3c-.6 2.3-1.2 4.6-1.7 7s-1.2 7.1-1.6 10.7l-.3 3.7a26.6 26.6 0 0 0 12.2 3.5c-.3 7.5-2.8 17-7.4 22.1l-5.1-.6c0 1.1.1 2.3.2 3.4s.1 3.5.2 5.1v.5c.3 4 .4 8.1.5 12.1.4 15.6-.3 31-1.4 46.4-.1 2.2-.3 4.4-.5 6.6l-.6 7.6c-.8 8.1-1.6 16.2-2.5 24.3l-.3 3.3c-.4 15.8.6 31.7 9.9 45a49.8 49.8 0 0 0 16.5 14.8 80.6 80.6 0 0 0 16.2 6.9l6.7 1.9 6.7 1.6 5.8 1.1 5.6 1 7.4 1.2 5.3.8a211.6 211.6 0 0 0 30.4 3 88 88 0 0 0 13.6-.8q3.1-.4 6.3-1.2a54 54 0 0 0 11.7-4l1.8-1 1.8-1 1.4-1a19.8 19.8 0 0 0 6.5-8.4c.4-3.1.6-6.1.7-9.2.1-1 .1-2.1.1-3.1a206 206 0 0 0-1.2-22.2c-.1-.8-.1-1.6-.2-2.3s-.3-3.4-.5-5.1-.3-3.3-.4-5-.7-6.4-1-9.6a338 338 0 0 0 6.5-34.5c5.7-43.1 26.2-103.2 5.8-141.9 57.2 108.6-.8 142 30.5 224.7 26.2 49.2 8.5 89.3 29 112.7.1 1.1.3 2.3.5 3.4h8.6c-11.1-15.8-18.6-32.7-13.7-55.2 8.8 14.8 16.4 23.4 26.7 37.1 2.3 2 1.3 3 2.1 4.9 1 3.9.2 8.7.1 13.2h2.6c.1-3.4.6-7 .7-10.4 3.5 2 5.5 6.5 7.4 10.4h3.6c-1.8-6.6-6.8-12.3-12.1-16.3-11-18.2-24.9-35-35.3-53.7-2.8-32.6-22.3-61.7-20.6-94.9-.6-11.5 3.5-11.5 9.9-3 3.5 5.4 16.9 18.2 13.6 24.4 1.6 26.8 13.8 47 4.7 72.7 18.9-18.1 2.4-50 1.7-73.4 37.3 26.2 12.3 36.8 26.6 71.6 12.9 24.3 24.4 21.6 10 51.2 30.9-39.1-21-28.5-9.3-102.1 9.3 3.4 20.8 6.7 19.1 18.7 1.9 34.5 12.6 69.5 5 103.8l-.3 1h2.3l3.9-11.1a69 69 0 0 0 1.1-9 192 192 0 0 1 3.7 20.1h7.6c-2.7-11.5-6.1-20.5-11-24.3-3.6-48.7-.7-131.3-32.7-167.4-21.9-24.8-4.8-38.4-13-68.5 11.4-17.1 1.1-35.4-8-50.8-6.2-16.3-2.6-37.7-19.1-48.7-37.1-9.4-21.9 3-54.6-26.2 24.3-4.9 36.4 6.5 51.4 18.4-12.1-22.7-32-27.8-57.6-22.5-28-16.1-62.3-24.9-94-15-.7-8.8 4-18.2 12.5-18.2a4.9 4.9 0 0 0 3.5-.9 1.1 1.1 0 0 0-.3-2 .3.3 0 0 0-.4 0c-1.3.7-4.9.9-5.8 1.3-3.9 2.1-7.6 4.5-10.9 6.5-.2-1.7-.5-3.4-.8-5.1a31.5 31.5 0 0 0-.9-4.2c-5.5-23.4-18.6-35.5-22.6-57.6a91 91 0 0 1-2.2-26.7c2.7-8.9 7.1-19.3 14.9-23.3 13.1-6.8 18.6-19.1 17.5-29.9a40 40 0 0 0-1.4-4.4c8.8-9.4 18.2-19 27-30.1 9.5-19.7 10.3-61.3-8.1-80.9l-4-3.9c-9.7-9.2-21.7-17.5-34.9-18.8 42.5 15.5 52.3 43.6 48.2 85 0 15.3-8.8 25.8-19.4 35.5a60.2 60.2 0 0 0 6.5-10.6c.1-.2.2-.3.2-.5 7.1-4 8.2-11.1 9.3-18.9.1-.5-.7-.8-.8-.2-1.4 6.5-1.5 12.2-7.1 15.8a49.3 49.3 0 0 0 3.9-22.1c0-.2-.4-.2-.4 0a67.9 67.9 0 0 1-6.4 23.8 2.2 2.2 0 0 0-1 1.9c0 .3-.1.4-.2.4h.1a64.3 64.3 0 0 1-6.9 10.1q-2.1 2.4-4.2 4.5l-2.6 2.2c.8-17.9 11.4-33.4 17.8-50.1 5.7-14.7 8.6-33.2-2.6-46.2-.2-.2-.7.1-.5.4 12.6 17.8 4.6 39.3-4.1 57-4.2 8.7-8.8 17.3-11.3 26.7-1.4 5-1 10-.4 15-10.1 8.9-20 18.4-24.3 31.6a11.2 11.2 0 0 1-1.9-4c-.1-.9-.2-1.6-.2-2v-.2a.1.1 0 0 1 .1.1 23 23 0 0 0 1-3.5 2.8 2.8 0 0 0 .1-.9c3.4-7.1 12.7-14.3 12.1-25.4a73.4 73.4 0 0 1 3.4-15c4.2.2 8.1-.5 10.9-2.7a.3.3 0 1 0-.3-.4c-2.6 1.4-6 1.8-10 1.4 3.7-10.1 8.8-18.9 12.1-31.1 15.6-16.8 15-45.9-3-61.1-.3-.2-.7.1-.5.3 8.8 12 15.1 24.9 11.8 40a40 40 0 0 1-7 15.2 100.6 100.6 0 0 0 1.8-17.7c.2-13.9-3.7-25.6-1.3-12 .5 3-1.4 12.7-2.4 17.6-3.4-15.5-11.7-35.1-9.3-25.2 3.3 13.7 8 23.2 7.5 38.9a25 25 0 0 1-.2 2.8 42.5 42.5 0 0 1-10 7.2c5-5.4 5.4-14.6 4.4-21.4s-3.5-12.6-5.4-18.9c.8-.2 1-1.3.1-1.5l-.6-.2c-1.7-6.6-2.4-13.2.5-19.8a.2.2 0 0 0-.4-.2c-3.5 6.2-3.3 12.8-1.8 19.3a13.8 13.8 0 0 1-6.1-5.4 15.5 15.5 0 0 1-2.3-10.3c0-.1-.2-.2-.3 0a11.7 11.7 0 0 0-.7 5.6 14.7 14.7 0 0 0 2 5.4 16.2 16.2 0 0 0 7.9 6.7c1.1 4.6 2.8 9.2 4 13.6a39.3 39.3 0 0 1 1.3 16 17.6 17.6 0 0 1-6.4 11.5 43 43 0 0 0-6-13.7c-7.6-11.2-19.3-16-28.5-15.7 16.2 2.8 29.8 14.5 32.5 31.2a.5.5 0 0 0 0 .5l-.8.3c-10.7 3.7-25.4 6-36.5 12a21.3 21.3 0 0 0-10.4 4.6c-2.3 2.1-7.8 10.5-7 15.9-8.4-3.3-17.4-7.3-14.8-16.7 1.7-6.1 6.9-10.6 8.7-16.6.1-.3.1-.6.2-.9 1.3-5.8-1.3-10.9-4.9-15.5-.5-.6-3-3.2-3.5-3.9 1.5-2 4.2-2.8 4.1-5.4 0-.2-.1-.4-.1-.7 3.4-4.3 7.5-8 13.2-8.4s14 2.5 19.5-2.7c2.6-2.5 4.4-6.6 8.3-7.1s7.5 2.9 11 4.4 9.4 1.6 10.9-2.8c.1-.4-.5-.7-.7-.3-3.4 7.8-14.5-2.7-19.3-3.4a6.3 6.3 0 0 0-3.1.2c.5-1 1-1.9 1.4-2.9a24 24 0 0 0 1.2-6.5c.1-4.2-.8-9.5-4-12.4a.3.3 0 0 0-.4.2 41 41 0 0 1 2.2 5.8 18.4 18.4 0 0 1 .5 6.2 19.2 19.2 0 0 1-1.4 6.2c-.4.9-.9 1.8-1.4 2.7a7.6 7.6 0 0 0-1.6 2.5c-2.7 2.4-4.6 6.1-8.3 7.4s-8.5 0-12.6-.1a16.8 16.8 0 0 0-8.8 1.8 24 24 0 0 0-7.2 5.9c-.4-1.7-.9-3.3-1.3-5s-.8-4.5.1-6.6 2.9-3.3 4.8-4.6c5.3-3.5 7.5-9.2 7-15.4a6.9 6.9 0 0 0-.3-2 28.8 28.8 0 0 0 3-5c3.9-8.5 3-20.6-3.5-27.8-.2-.2-.4.1-.3.3 2.2 4.3 4 8.6 4.3 13.5a26.2 26.2 0 0 1-2.7 13.2 15 15 0 0 1-1.5 2.8c-1.7-5.2-5-9.9-8.2-14.4-.3-.5-1.2-.1-.9.5 3.2 4.8 6.7 9.9 7.9 15.6a24.7 24.7 0 0 1-5.3 5.4 26.4 26.4 0 0 1-5.5 3.4c-1.9.9-4 1.2-5.7 2.3s-.4 1.1.2 1.2c2.2.4 4.3-.6 6.3-1.5a30.2 30.2 0 0 0 10.5-7.7v.7a16.2 16.2 0 0 1-2.2 9.1c-1.7 2.6-4.3 3.9-6.8 5.7-4.5 3.4-4.3 8.4-3 13.3.3 1.3.8 3.3 1.2 5.4-1.1 1.4-2 2.9-3 4.3a67.7 67.7 0 0 1-8.1-13.2 80.8 80.8 0 0 1-6.5-27.4c-.1-.1-.3-.1-.3 0-1.2 13.7 2.9 25.4 9.5 36.4l-3.5-.6a16.4 16.4 0 0 1-3.9-1.4 23.6 23.6 0 0 1-6.8-4.9c-.2-.2-.6.1-.5.4a18.4 18.4 0 0 0 6.4 6m40.5 283.5v-.3c.2.2.4.3 0 .3M660.8 620c2.9 12.9 3.1 26.2 4.7 39.2-12.3-9.6-27.7-13.4-37.6-26.4-12-12.2-19.2-29.8-35-37.8a118.3 118.3 0 0 0 2.1-25.8c-.1-10.5-1-21-.6-31.9 11.2 10.9 23.6 20.9 37.4 28.3-1.8 20.7 23.7 35.7 29 54.4M603 422.2c15.6 9.7 12 30.7 18.6 45.5 8.8 14.7 19 30.2 11.2 47.6a221.9 221.9 0 0 0-50.1-94.8c6.9-.4 14.1-1.8 20.3 1.7m-35.1-6.1c39 37.7 63.7 91.9 63.9 146.6-12.8-11.1-35.8-20.6-37.6-38.4-5.2-37.6-17.4-74.7-29.1-110.8Zm-131.8 71.8a35 35 0 0 1 3.4 3.3c2.2 2.3 3.2 5.2 4.4 7.9a24.4 24.4 0 0 1-5.7 11.2h-.1a69 69 0 0 0-8.3-5.9 30.1 30.1 0 0 0 6.3-16.5m-26.2 13.6c4.4-6 6.9-14.9 7.2-22.5a22.9 22.9 0 0 1 15.6 6.4.1.1 0 0 1 .1.1c.3 6-1.7 13.2-5.6 17.7-3.5-.8-10.6-1.2-17.3-1.7m111.6 90.4a19.3 19.3 0 0 0-3.5-4 14.5 14.5 0 0 0-5.1-3.1c-3.7-1.2-6.7 1.1-10.1 1.9l-2.4.3a30.6 30.6 0 0 1 7.9 7c5.7 7.1 3.8 22.5 1.5 30.6-.3.9-1.6.2-1.4-.6a48.2 48.2 0 0 0 .6-20c-1.5-10.2-8.1-14.3-16.9-17.4-3.1-1-7.2-2.1-9.7-4.5-.4 3.3-2.2 6-1.7 10a31.2 31.2 0 0 0 11.2 20.4c.9.7.1 2.1-.8 1.4-5.6-4.2-8.9-10-11.2-16.5a32.8 32.8 0 0 1-1.8-8.8c-.2-3.5 2.3-5.8 1.8-9.4-2.6-3.7-4.2-7.7-8.3-10.7a24.8 24.8 0 0 1-7.4-8.2 14 14 0 0 1-1.2 2.5c-3.5 5.3-7 10.7-4.2 17.3.4 1-.8 1.3-1.3.5-1.6-3.4-1.5-6.8-.9-10.5 1-5.2 5.5-8.7 5.8-13.9a40.7 40.7 0 0 1-1.9-11.5c-.3-9-1.1-17.2-6.2-25-2-3-4.9-5.1-7.9-7.2a3.2 3.2 0 0 1-2.4 1.4 38.7 38.7 0 0 1 4.1 13.4c.6 7-2 13.4-5 19.8a.5.5 0 0 1 .3.5c-.4 3.3-1.1 6.7.6 9.8s2.8 4.3 2.7 7.3c-.1.7-1 .5-1.1-.1-.6-3.3-3-5.5-3.6-8.7a18.9 18.9 0 0 1 .1-6.7c-2.6 5.6-5.2 11.3-5.8 17.3-.7 8.2 4.4 16.8 7.7 24s7.5 14.8 10.8 22.4a28.9 28.9 0 0 1 2.4 14.2c-.5 6.3-4.8 15.3-2.8 21.2.4 1.1-1.3 1.3-1.6.4-1.3-3.5-.9-6.4 0-10 2-8.4 2.2-16.4-1.6-24.4-.5-1.2-1.1-2.2-1.6-3.3a34.3 34.3 0 0 1-3.8 5.2c-3 4-3.1 10.3-2.2 15 .2 1-1.2 1-1.4.1a29.2 29.2 0 0 1 .2-11.4c.8-4.5 4.1-7.6 5.8-11.7-4.2-8.3-8.6-16.2-12.2-24.8l-1.2 2c-4.2 6.4-5 12.8-2.3 20.1a.8.8 0 1 1-1.4.6 25.5 25.5 0 0 1-2.2-13.3c.8-4.8 4.3-8.5 5.8-12.8-.3-.8-.6-1.7-1-2.6-3.8-11.2-.4-20.5 4.6-30.7a52.8 52.8 0 0 0 5.2-13.6 7.1 7.1 0 0 1-2.2 1.5 29 29 0 0 1-4.1 1.6 25.3 25.3 0 0 0-3.6 2c-.8.4-1.7-.9-1.2-1.6 2.6-3.8 9.9-1.9 11.6-6.7a25.5 25.5 0 0 0-.4-8.2 26.9 26.9 0 0 0-3.8-8.9 29.8 29.8 0 0 0 6.2-10.2l1.3-1h.1a40 40 0 0 1 3.6-3.5 48 48 0 0 0 7.4-12c.3-7.2-2.3-12.8-5.6-19.4-2.5-5.1-2.5-10.6-1.8-16.1 0-.3.5-.2.5.1-.5 9.7 3.5 16.1 6.9 24.6a21.2 21.2 0 0 1 1.4 6.9c.3-1.1.6-2.2.8-3.2 1.2-7.9 6.3-13.7 12.1-19 .4-.3 1 .4.6.8-4.8 4.7-8.7 9.6-10.6 16.2-1 3.5-.5 7.6-2.4 10.9-.8 1.5-1.7 3-2.7 4.6a14.3 14.3 0 0 1 4.9-.6c6.2-.2 10.8-.9 14.8-6.3.3-.5 1 .1.7.6a14 14 0 0 1-7.2 6 33.8 33.8 0 0 1 6 3.8c3.9 2.7 11.4 3.3 15.9 1.5.5-.2.9.6.4.8-8.3 3.7-17.8.5-24.2-5.4a42 42 0 0 1-7.6 1.1c-4.5.4-7.5 5.8-10.8 8.6s-2.2 3.1-2.7 4.6c7.8 3.1 17.3.9 25.7 3.1 6.2 1.6 10.6 5.1 14.4 9.3q.2-.2.6 0c3.2 1.2 7.2.6 10.6 1.7a16.1 16.1 0 0 1 7.1 4.7 80 80 0 0 1 6.1 8c.9 1.2 1.8 2.6 2.6 3.9 1.8 2.8 3.4 5.6 5.1 8.5.5.9-.9 1.3-1.4.5-1.4-2.4-2.8-4.8-4.3-7.1l-2.6-3.8c-1.8-2.5-3.6-5-5.6-7.5a16.7 16.7 0 0 0-13.5-6.5 8 8 0 0 1-2.8-.3q2.8 3.6 5.7 7.5a.8.8 0 1 1-1.2.9c-4.8-6.2-8.3-11.8-15.6-15.7l-3.6-1.6a8.9 8.9 0 0 1 1.8 5c.7 10.3 5.7 17 11.4 25.2.6.8-.4 1.6-1 .8a95 95 0 0 1-9.4-13.4 12 12 0 0 1-.5-1.1 1.4 1.4 0 0 1-.2.6c-1 2.2-.8 4.3-1 6.6 0 .7-.8.4-.9-.1s-.7-3.5-.4-5.2a34.6 34.6 0 0 1 1.4-5.3c-1.2-5.3-1.8-12-5.8-14.2h-.2a65.8 65.8 0 0 0-13.4-.7c-3.6.1-7 0-9.9-1.1 6.4 5 11.5 9.6 14.5 18.8 1.8 5.7 1.7 11.6 1.8 17.4 3.2 2.4 5.7 3.5 9.9 3.4a29 29 0 0 1 7.2.9c5.2 1.2 8 5.8 11.4 9.5.2.4-.1.9-.5.6-2.2-2.2-4.2-4.4-6.5-6.5s-8.6-2.8-12.6-2.5a11 11 0 0 1-8.8-3.1c.2 7.8 3.6 13.6 9.6 18.1 2.2 1.7 4.8 3.2 6.6 5.3a23.5 23.5 0 0 1 2.3 4.8c1.7 4 7.3 5.9 11.5 7.4a21.1 21.1 0 0 0 10.3.5c2.2-.4 4-2 6.4-1.8 4.9.5 8.5 3.3 11.4 7l1.1 1.5c.6.7-.4 1.5-1.1.7m36.1-89.5c-3.7 10.6-21.2 5.2-34.7 17.5l1.8 4.3c14.7-16.8 18-2.9 23.4-11.2-4.3 7.3-12.2 14.5-19.2 21.2.4.9.7 1.7 1 2.5 12.1-9.1 27.6-24.2 27.6-25.7 0 14.7-3.3 36.7-12.5 48.6l-5.2 4.9c.4 1.5.8 2.9 1.1 4.4a56 56 0 0 1 8-6.1 195 195 0 0 1-3.2 30.5c-1.2-8.2-2.8-16.4-4.8-24.4-.3-1.5-.7-2.9-1.1-4.4-1.1-3.9-2.3-7.9-3.7-11.7-1.9-5.4-4-10.8-6.2-16.1-.3-.8-.6-1.6-1-2.5l-4.2-10-1.8-4.3c-.4-.9-.7-1.8-1.1-2.8l-1.2-2.8c17.5-17.1 36.9-42 36.9-66.6 0 5.7 5.9 33 .1 54.7M452.1 155.6c-2.4 8.4-7.7 17.2-11.6 24.8a65.6 65.6 0 0 0-.4-17.9 43.6 43.6 0 0 0 12-6.9m-28.8 73.1a20 20 0 0 1 1 2.1h.1c-3.3 6.5-10.8 14.9-15.8 21.9 2.7-8.6 8.1-16.8 14.7-24M405 295.2a75.7 75.7 0 0 1-.9-25.1c3.4 9.3 6.8 17.9 9.9 26.2-.6 10.7 0 21.7 2.7 31.9-4.7-10.8-9.4-21.7-11.7-33m23.8 64.7c-.2.2-.4.3-.5.5-1.5-6.9-4.5-14-7.2-20.7a.4.4 0 0 0 .1.3 1.2 1.2 0 0 1-.2-.7c-1.9-9.7-2.3-20.4-2.5-30.7 1.8 5.4 3.5 10.8 5 16.4 1.4 3.1 6.6 17 5.3 34.9m1.8 22.4a70.3 70.3 0 0 0 3.3-22.2 21.6 21.6 0 0 1 5.4-2 24.5 24.5 0 0 0 5.5-2.3c1.4 10.7-1.7 20-14.2 26.5m13.8-29.3c-3.3 2-7.1 2.2-10.6 3.6-.9-19.7-8.2-39.7-15.4-58.5a107 107 0 0 1 1-12.6c2.3 21.5 21 46.9 25 67.5m-22.9-89.5a84 84 0 0 0-5.5 17q-.7 3.9-1.2 8.1l-2.5-6.6a32.8 32.8 0 0 1-5.3-22.4 34.7 34.7 0 0 1 9.5-13.3c3.4-2.8 6.7-7.8 8.7-13 0-.3-.1-.7-.1-1.1l.3.7c-.1.1-.1.3-.2.4 2.5 9-1.2 20.1-3.7 30.2m32-54.1c.2 1.9.5 3.8.6 5.7 1.5 19.6-18.9 23.3-25.1 33.5l-3.8 6.9c4.3-18.2 15.4-32 28.3-46.1m-15.7-27a131 131 0 0 1-15.3-4.4c6.3-4.2 12.3-5.2 15.3 1.1Zm-20.2-13.2c6.6-1.9 13.5-3.4 20-5.7a42.5 42.5 0 0 1-.4 10c-5.1-3.8-12.1-1.7-18.5 3.1-4.6-1.6-8.7-3-11.7-3.8a78 78 0 0 1 10.6-3.6m-19 5.8c2.6-.2 12.3 1.6 18.1 3.2-6.8 6-12.5 14.9-13.8 22.6 3.2-6.8 10.4-15.8 17.5-21.3 4.7 1.7 11.1 4 17.4 5 .1 14.1-1.2 25.9-9.6 36.2 0-.8-.2-1.2-.2-2.3s-1-8.9-2-4.9a85 85 0 0 1 .8 8.7c0 .3-.1.3-.2.2l.2-.2a9.3 9.3 0 0 0-4.7-7 23.4 23.4 0 0 0-6.9-2.3c-5.6-.8-9.9.3-13.5-5.2s-5.3-7.7-10-10.3a26 26 0 0 0-4.4-2c.1-.2-1.8-.3-1.8-.5.8-9.2 5.3-15.6 13.1-19.9m-12.7 21c-.2.6-.4.4-.6 0ZM426.3 229.9" class="cls-4"/><path d="M518.8 771.8c-1.3 2-2.4 4-3.5 5.9h5.1l.9-2.2a11.2 11.2 0 0 1 .9 2.2h3.7c-2.5-9.8-7.5-18.1-9.7-23.8-7.7-20.2 3.1-40.7 8.7-60 .8-2.9 1.6-5.8 2.5-8.7q-3.1.8-6.3 1.2c-5.8 22.9-7.7 27.4-40.6 57.6 9.8-6.7 19.9-17.5 31-24.1-6.2 19.2-.7 34.7 7.3 51.9M338.2 752.2c11.1-4.5 23-7.9 35-5.9-8.3 6.6-14.1 19.1-26.3 16.9 12.7 8 21.3-11.2 30.8-16.1.1.5.1.9.2 1.3s.1 1 .1 1.5c.2 10.5-8.5 19.4-15.3 27.8h3.9a180 180 0 0 0 12.2-15.8c.1.7.1 1.5.2 2.2a26 26 0 0 1-3.9 13.6h33.2c-5.2-3-8.2-5.4-6.3-13.5 6.7 1.6 18.1 1.2 21.6-4.1-22.3 10.2-27.9-3-29.3-20-1.1-12-.1-25.8-1.6-34.6l-1-21.5c-1-51.1 0-130.1-1-169.6 0-.4-.1-9.1-.1-15.1h-2.4a50 50 0 0 0 2.5-6.4 90 90 0 0 0 4.6-21.3 24.1 24.1 0 0 1-7.3 3.3 31.7 31.7 0 0 1-15.3 0 28.4 28.4 0 0 1-5.6-1.9h-.1v.2c.3 6.4 1.2 13 3.5 18.8a29.5 29.5 0 0 0 4.2 7.3h-3.8c3.2 43.7 2.1 121.5 3.3 164.3.6 21.3 1 35.7 1.5 47.5-2.3 3.7-6.8 6.7-11.4 10.2-6.7 7.9-16.5 7.9-25.9 6.4 11.9 9.1 25.7-3.6 36.4-9.8l2.4 24.4c-12.7-2.2-31.4 0-39 9.9M260 712c-3.6 7.2-.6 20.2 5.9 25.4-1.8-5.6-10.9-26.9 2.1-22.3 10.3-1.9 19.6 3.6 25.7 10.4-4.5-15.2-22.3-10.2-32.3-16.6-2.7-2.4-4.4-2.8-7-5.6-5.1-5.1-7-10-11-14.7a16 16 0 0 1-1.4-2l-3.1-.5c11.5 19.8 12.4 19.6 21.1 25.9" class="cls-4"/><path d="M84.2 777.7c1.3-4.9 2.6-9.7 3.8-14.6.5 4.7.8 9.6 1.1 14.6h2.3a288 288 0 0 1 .9-34.9c6.7-24.5-5-56 22.8-69 13.9 33.6-35.5 68.6-9.7 92.7-3.3-7.4-8.3-16.8-4-25.9 6.7-15.6 18-29.7 18.4-47.4 2.9-8.2-5.3-21.3 1.6-28.6s12.6-28.6 16.2-40.5c-23.8 55.6-25.9 43.8-40.8 61.6-2.6-34.8 14-65.2 22.9-97.7 16.2-12.6 31.1-27 43.3-43.4.5 10.9.9 19.9 1 27.6.8 47-6 44.1-23 101.4-2.8 30.9 15.9 48-7.3 75.8-4.1 11-11.3 19.5-18.2 28.3h7.9c6.5-17.5 18.9-33.3 26.5-50.2 5.8 15 3 32.7-3.8 50.2h3.7c7.4-16.4 10.9-33.7 4.1-51.7 6.4-31.3 23.7-63.9 24.9-97.9 7.8-68.6-21.6-111.4 19.7-177.7q1 10.1 1.5 20.1c1.2 39.7-8.2 94.1 6.7 138.2A91.6 91.6 0 0 0 212 629l1.2-12.1c-6-18-10.5-35.1-10.7-45.6 5 2.2 10.1 6.5 15.1 12-.8 4.7-1.6 9.4-2.2 14.2s-.9 6.7-1.2 10.1-.7 6.2-1 9.3L212 629l-.3 4c-.3 3-.6 6-.8 9v.4c-.2 2.2-.4 4.4-.5 6.6s-.1 3.2-.1 4.8a71 71 0 0 0 .1 8c.1 2.7.3 5.3.6 8a24.3 24.3 0 0 0 2 3.5 18.9 18.9 0 0 0 4.3 4.7l1.7 1.2 1.8 1 1.8 1 3.7 1.6a53.5 53.5 0 0 0 6.8 2.1c-.5 11.8.8 23.3 9.2 32.5 13.6 17.3 3.7 39.8.4 60.3h2.7c2.2-13.4 7-27.2 7.1-39.7s-8-21.8-13.7-31.9c-3.7-8.7-1.5-13.4-2.4-20.4l2.5.4 3.1.5a82.4 82.4 0 0 0 12.2.6 211.6 211.6 0 0 0 30.4-3l5.2-.8 8.5-1.4 3.2-.5 9.4-1.9 4.9-1.2 4.8-1.4a96 96 0 0 0 11.7-4.3l2.2-1a64 64 0 0 0 6.3-3.6l2-1.3 2.8-2.1 2.8-2.5a44.7 44.7 0 0 0 6.4-7.3c.9-1.3 1.6-2.6 2.4-3.8 7-12.5 7.8-26.9 7.5-41.2-.1-.6-.1-1.1-.2-1.7a10 10 0 0 0-.2-1.6c-1.1-11.1-2.2-22.1-3.1-33.1q-.6-6.2-.9-12.3c-.3-5-.6-10.1-.8-15.1-.1-3-.1-6-.2-9.1v-6.8c0-6.8.2-13.6.5-20.5.2-3 .4-6 .5-9h-.5c-6.1-4.2-8.9-13.5-8.7-21.8a29.7 29.7 0 0 0 8.9-3.2c-.2-3-.6-6-1-9s-.6-3.9-1-5.8-.9-3.8-1.4-5.7a30 30 0 0 0-1-3.2 63.1 63.1 0 0 0-10.6-20.5 35.7 35.7 0 0 0-9.7-8.8 12 12 0 0 0-1.9-1.1l-1.5-.7-1.5-.6 2.3-2.8.9-3c2.5-7.9 1.2-16.3 6.5-17.6s10.4 4 11.2 4.6.6.1.4.2 9.2 5.7 9.8 5.9c2.3.6 4.6 2.4 6.4 3.6a12.5 12.5 0 0 0 4.1 2.6c5.1 2.3 12 2.1 17.6 0a24.3 24.3 0 0 0 4-1.8v-18.5c-7.5 3.6-17.5 5.1-24.2 1.7l-1.5-.9c-34.1-20.1-16.5-6-29.3-50.9-18.4-36.7 8.1 23.2 1.4 36.8-14.2-6.8-11.4-23.4-26.2-32.9 4.6 9.8 11.5 17.3 16 30.1-37.2-9.2-80.9-1.3-109.9 23.2-23.6-.4-47.6 10.3-64.4 26.7 15.1-8.1 37.5-22.3 58.8-21.6-10.4 11.7-20.7 22.8-31.8 34-15.9-20.3-45.3-7.9-45.5 16.9-.4 16-8.5 29.4-13.6 44.1-2.8 12.5-.6 25 2.6 37.5-5.7 16.3-6.8 34.4-12.4 50.2-2 20.8-15.4 40.5-18.5 61.7-4 23.5-1.6 47.3-3.9 70.9a515 515 0 0 1-11.1 56.7Zm141.4-225.1c-6.4-5.4-15.7-12.4-16.4-22.7 9.6 4.5 16.5 7.6 21.1 10.5-1.7 4-3.2 8.1-4.7 12.2m105 53.5a.8.8 0 1 1-1.4-.6c2.7-7.3 1.9-13.7-2.3-20.1l-1.3-2c-3.5 8.6-8 16.5-12.1 24.8 1.7 4.1 4.9 7.2 5.8 11.7a31.2 31.2 0 0 1 .2 11.4c-.2.9-1.6.9-1.4-.1.8-4.7.8-11-2.3-15a42 42 0 0 1-3.7-5.2 34 34 0 0 0-1.6 3.3c-3.8 8-3.6 16-1.6 24.4.9 3.6 1.3 6.5 0 10-.4.9-2 .7-1.6-.4 1.9-5.9-2.3-14.9-2.8-21.2a27.8 27.8 0 0 1 2.4-14.2c3.3-7.6 7.3-14.8 10.8-22.4s8.4-15.8 7.6-24c-.5-6-3.1-11.7-5.8-17.3a16.8 16.8 0 0 1 .2 6.7c-.7 3.2-3.1 5.4-3.7 8.7-.1.6-.9.8-1 .1-.2-3 1.3-4.8 2.7-7.3s1-6.5.5-9.8a.6.6 0 0 1 .3-.5c-2.9-6.4-5.5-12.8-4.9-19.8a38.7 38.7 0 0 1 4.1-13.4 3.2 3.2 0 0 1-2.4-1.4c-3 2.1-6 4.2-7.9 7.2-5.1 7.8-5.9 16-6.2 25a44.6 44.6 0 0 1-1.9 11.5c.3 5.2 4.8 8.7 5.7 13.9.7 3.7.7 7.1-.9 10.5-.4.8-1.7.5-1.3-.5 2.9-6.6-.7-12-4.1-17.3-.5-.8-.9-1.7-1.3-2.5a23.4 23.4 0 0 1-7.3 8.2c-4.1 3-5.7 7-8.3 10.7-.5 3.6 1.9 5.9 1.7 9.4a29.2 29.2 0 0 1-1.7 8.8c-2.3 6.5-5.7 12.3-11.2 16.5-1 .7-1.7-.7-.9-1.4a31.3 31.3 0 0 0 11.3-20.4c.5-4-1.4-6.7-1.7-10-2.5 2.4-6.6 3.5-9.7 4.5-8.8 3.1-15.4 7.2-17 17.4a51.8 51.8 0 0 0 .6 20c.2.8-1 1.5-1.3.6-2.3-8.1-4.3-23.5 1.5-30.6a29.1 29.1 0 0 1 7.9-7l-2.4-.3c-3.5-.8-6.4-3.1-10.2-1.9s-6.3 4-8.6 7.1c-.6.8-1.6 0-1-.9 3.1-4.4 6.9-7.9 12.5-8.5 2.4-.2 4.2 1.4 6.4 1.8a20.7 20.7 0 0 0 10.2-.5c4.3-1.5 9.9-3.4 11.5-7.4a24 24 0 0 1 2.4-4.8c1.7-2.1 4.4-3.6 6.6-5.3 6-4.5 9.4-10.3 9.6-18.1a11.1 11.1 0 0 1-8.9 3.1c-3.9-.3-9.4-.3-12.6 2.5s-4.3 4.3-6.5 6.5c-.3.3-.7-.2-.4-.6 3.4-3.7 6.1-8.3 11.4-9.5a28.2 28.2 0 0 1 7.1-.9 13.8 13.8 0 0 0 9.9-3.4c.1-5.8.1-11.7 1.9-17.4 3-9.2 8.1-13.8 14.5-18.8l-1.7.5a28 28 0 0 1-7.8.6h-.4a67.2 67.2 0 0 0-13.5.7.1.1 0 0 1-.1.1c-1.9 1.1-3 3.1-3.8 5.5a29 29 0 0 0-1.1 4.2c-.3 1.6-.6 3.1-1 4.5a35 35 0 0 1 1.5 5.3c.2 1.7-.3 3.5-.4 5.2s-.9.8-1 .1c-.1-2.3.1-4.4-.9-6.6l-.3-.6a3.6 3.6 0 0 1-.4 1.1 104 104 0 0 1-9.4 13.4c-.7.8-1.6 0-1.1-.8 5-7.1 9.5-13.2 11-21.4.2-1.2.4-2.5.5-3.8a1.7 1.7 0 0 1 .1-.7 9.1 9.1 0 0 1 1.7-4.3l-3.7 1.6a32.3 32.3 0 0 0-6.8 5 71 71 0 0 0-5.1 5.8l-3.7 4.9c-.6.9-1.8 0-1.1-.9l1.9-2.7 3.8-4.8a6.4 6.4 0 0 1-2 .3h-.8a16.5 16.5 0 0 0-13.5 6.5l-1.9 2.3q-2.7 3.6-5.1 7.2c-1.9 2.9-3.8 5.9-5.6 8.9a.7.7 0 0 1-.7.4c-.5.1-.8-.3-.6-.8l3.8-6.5c1.4-2.2 2.8-4.5 4.3-6.6a80 80 0 0 1 5.7-7.3 15.6 15.6 0 0 1 7.1-4.7c3.3-1.1 7.4-.5 10.6-1.7a.6.6 0 0 1 .6 0c3.8-4.2 8.1-7.7 14.4-9.3s13.2-.8 19.6-1.6a32 32 0 0 0 6.1-1.5 15 15 0 0 0-.7-1.9 6.7 6.7 0 0 0-2-2.7c-3.3-2.8-6.3-8.2-10.8-8.6a42 42 0 0 1-7.6-1.1h-.1c-6.3 5.9-15.8 9.1-24.1 5.4-.5-.2-.1-1 .4-.8 4.5 1.8 11.9 1.2 15.8-1.5a43 43 0 0 1 6-3.8 13.8 13.8 0 0 1-7.1-6c-.3-.5.4-1.1.7-.6 3.9 5.4 8.5 6.1 14.8 6.3a14.3 14.3 0 0 1 4.9.6l-2.8-4.6c-1.8-3.3-1.3-7.4-2.3-10.9-1.9-6.6-5.8-11.5-10.6-16.2-.4-.4.2-1.1.6-.8 5.7 5.3 10.8 11.1 12.1 19 .2 1 .5 2.1.8 3.2a21.2 21.2 0 0 1 1.4-6.9c3.4-8.5 7.4-14.9 6.9-24.6a.3.3 0 0 1 .5-.1c.7 5.5.7 11-1.9 16.1-3.2 6.6-5.9 12.2-5.5 19.4a42.8 42.8 0 0 0 7.4 12l3.6 3.5 1.5 1.1a27.5 27.5 0 0 0 2-3.8 18.8 18.8 0 0 0 7.1 10.3l-1.3 1c-2.5 3.6-4.7 7.3-5.5 11.5a25.5 25.5 0 0 0-.4 8.2c1.6 4.8 8.9 2.9 11.6 6.7.4.7-.5 2-1.2 1.6a32 32 0 0 0-3.6-2 29 29 0 0 1-4.1-1.6 9.1 9.1 0 0 1-2.3-1.5 56.7 56.7 0 0 0 5.2 13.6c5.1 10.2 8.5 19.5 4.6 30.7l-.9 2.6c1.5 4.3 5 8 5.7 12.8a24.5 24.5 0 0 1-2.1 13.3m15.7-127h1.7c-.3 7.9 1.8 16.7 6.7 22.1l-9.5.8c-7-3.8-10.8-11.5-12.5-19.5a21.1 21.1 0 0 1 13.6-3.4m-6.9 23.4a24 24 0 0 0-6.4 1.2 33.6 33.6 0 0 0-5.1 3.2 17.2 17.2 0 0 1-7.6-13.2 9.2 9.2 0 0 1 1.9-2.5 31.6 31.6 0 0 1 6.8-5.8l.8-.7c1.6 6.9 4.5 13.4 9.6 17.8m-11.1-82.9-2.1-.4h-.5l-3.1-.4h-1.8l-3.4.2-3.2.6a33 33 0 0 1 .3-4.3 50.6 50.6 0 0 0 17.8-17.8c5.1.2.2 14.7-4 22.1m4.2-24.6c-4.2 6.2-13.6 15.3-20.2 19.2.3-3.2-6.3-10.7-8.1-13.7a20.9 20.9 0 0 1-2.8-10.7c4.6.8 26.6 3.8 31.1 5.2m-98.3 13.4c10.2 44.1-19.1 42.2 10.3 82.2-3.8-18.6-14-15.4-5.2-38.9 3.1 9.5 9.9 17.2 15.7 25.2.5-1 1.1-2.1 1.6-3.2-7-9.9-15.3-19.9-15.5-31s.7-25.4-3-36.7c22.2-12.8 34.7-19.9 60.4-16.7.1 9 12.1 22.1 13.1 30.9a46 46 0 0 0-8.1 3.3 62 62 0 0 0-10.2 6.4l-2 1.5-2.1 1.7-1.7 1.5-2.4 2c-.5.5-1 1.1-1.6 1.6l-4.2 4.2c-1.8 1.9-3.6 3.9-5.3 5.9a141 141 0 0 0-17.4 25.4c-.5 1.1-1.1 2.2-1.6 3.2s-.9 2.1-1.3 3.1c-1.7 4.3-3.2 8.6-4.7 12.9s-3.1 8.6-4.6 12.9l-3.3 8.5-4.5 10.7-5.6 13.5c-30.7-16.3-29.6-16.4-26.9-55.7 10.1 13.3 28.6 23.3 29.1 41.9 8.8-15.6-21.8-34-29.1-47.3-4.7-30.6 2.5-52.5 30.1-69m-31.8 114.8c5.8 10.6 8.3 27 23 30a188.5 188.5 0 0 0-6.5 23.4l-.6 3.4-1.8-1.8c-22.2-13.4-14.9-31.9-14.1-55m-51.6 192.5c-21.7-71.4 28.6-71.1 19.9-170a281 281 0 0 1 4.1 35.3c2.4 45.9-5 92.6-24 134.7m-25-189.5c-5.5-19.5 5.8-36.2 11.8-53.8.3-26 16.2-55.5 42-29.5a261.1 261.1 0 0 0-52.1 90.6 64 64 0 0 1-1.7-7.3m6 9.5a258.7 258.7 0 0 1 59.6-98.8C174 469.2 165 505 163.3 540.5a250.3 250.3 0 0 1-42.3 41.9c3.4-15.6 5.9-31.4 10.8-46.7" class="cls-4"/><path d="M393.5 348.7c.1-22.3.7-54.3 0-72.8-.9-24.5-4.1-51.4-19-71s-38.3-25.6-61.3-27.3-49.2 3.1-70.9-.4c-.9 7.2 4.5 9.9 12.6 9.9 24-1.2 41.1 2.8 64.7 7.1 4.8.9 10.3 2.5 12.2 6.9s-1.9 11.1-7.1 13.1-10.9 1-16.4.1c-13.5-2.2-27-3.9-40.6-5.3-3.4-.3-8.1-1.4-11.3-1.1-1 4.8 3 11.1 8.8 12.9 0 0-10.7 8.6-6.4 15l19.2-7.5c8.2-3.3 25.2-3 39.5-1.5 12 1.2 29.1 3.5 37.6 12 10.4 10.3 15.4 30.9 15.7 45.5s-1.2 31.5-1.5 46.2c-.2 9-1.5 28.2-1.6 41.9h.2v16.9c5.5 6.3 17.5 4.8 25.7.7v-41.3Zm-25.6 23.6h.1a17.4 17.4 0 0 0 5.7 1.9 17.4 17.4 0 0 1-5.7-1.9ZM392 452.6l1.6-.9v-14.9a30.6 30.6 0 0 1-15.3 3.9 19.5 19.5 0 0 1-10.4-3.1v12.7a22 22 0 0 0 8.8 3.6c5.3 1 11.2.7 15.3-1.3M393.6 467.8v-12.7a13.6 13.6 0 0 1-2.1 1 30.8 30.8 0 0 1-15.5 1.4 25.8 25.8 0 0 1-8.1-2.7v13.3l-.2.3-.5.6h.7a32.7 32.7 0 0 0 5.5 2 28.6 28.6 0 0 0 14.8.1 21.7 21.7 0 0 0 5.4-2.4l.6-.3ZM401.7 475.6c-.1-.1-.2-.1-.2-.2a18.5 18.5 0 0 1-3.3-2.1 90.3 90.3 0 0 1-6.9 25.9l5.4.2 2 .6 2.7.6a209 209 0 0 1 .3-25M363.9 474.1a4.5 4.5 0 0 1-.1-1.1 28 28 0 0 1-3.8 2.6 209 209 0 0 1 .3 25h.3l2.8-.6 1.6-.5 5.4-.2c-4.6-7.3-6-16.4-6.5-25.2" class="cls-4"/><path d="M450.8 450.7c-.7 5.5-.7 11 1.8 16.1s5.8 12.2 5.5 19.5a44.9 44.9 0 0 1-7.3 12c-1.2 1.2-2.4 2.3-3.5 3.5h-.1l-1.3.9a30.6 30.6 0 0 1-6.1 10.3 24.6 24.6 0 0 1 4.1 17.2c-1.6 4.7-8.8 2.8-11.4 6.7-.5.7.4 2 1.2 1.5a39 39 0 0 1 3.5-1.9 37 37 0 0 0 4-1.6 9.4 9.4 0 0 0 2.3-1.6 60 60 0 0 1-5.1 13.7c-5 10.2-8.4 19.6-4.6 30.8l1 2.7c-1.5 4.3-5 8-5.7 12.8s.4 9.1 2.1 13.3c.4.9 1.8.5 1.4-.5-2.7-7.4-1.9-13.9 2.3-20.3l1.2-1.9c3.5 8.5 7.9 16.6 12 24.8-1.7 4.1-4.9 7.3-5.8 11.8a31.2 31.2 0 0 0-.1 11.4c.1.9 1.5 1 1.3-.1-.8-4.7-.8-11 2.2-15.1a22.6 22.6 0 0 0 3.7-5.2c.6 1.1 1.1 2.2 1.6 3.3 3.7 8.1 3.5 16.1 1.6 24.6-.9 3.6-1.3 6.5 0 10 .3.9 1.9.7 1.6-.4-2-5.9 2.3-15 2.7-21.3a28.8 28.8 0 0 0-2.3-14.2c-3.3-7.6-7.3-14.9-10.7-22.5s-8.3-15.9-7.5-24.2c.5-6 3.1-11.6 5.7-17.3a21.6 21.6 0 0 0-.2 6.7c.7 3.2 3 5.4 3.6 8.8.1.5 1 .7 1 .1.2-3-1.3-4.9-2.6-7.3s-.9-6.5-.5-9.9a.6.6 0 0 0-.3-.5c2.9-6.4 5.5-12.9 4.8-19.8a36.5 36.5 0 0 0-4-13.5 3.2 3.2 0 0 0 2.4-1.4c3 2 5.9 4.1 7.8 7.2 5 7.8 5.8 16 6.1 25.1a40.2 40.2 0 0 0 1.8 11.5c-.2 5.3-4.7 8.7-5.6 14-.7 3.7-.7 7.1.9 10.5.4.9 1.6.5 1.2-.5-2.7-6.6.7-12 4.1-17.3a19 19 0 0 0 1.2-2.5 25.5 25.5 0 0 0 7.3 8.2c4 3 5.6 7 8.2 10.7.5 3.7-1.9 5.9-1.7 9.4a29.9 29.9 0 0 0 1.7 8.9c2.2 6.5 5.5 12.3 11 16.5 1 .7 1.7-.6.8-1.3-6-4.8-10.1-12.7-11.1-20.5-.5-4 1.4-6.7 1.7-10 2.5 2.3 6.6 3.5 9.6 4.5 8.7 3 15.2 7.2 16.7 17.4a52.3 52.3 0 0 1-.6 20.1c-.2.8 1 1.5 1.3.6 2.3-8.1 4.2-23.6-1.5-30.7a29.3 29.3 0 0 0-7.8-7.1 8.8 8.8 0 0 0 2.4-.3c3.4-.8 6.4-3 10-1.8s6.3 4 8.5 7.1c.6.8 1.7-.1 1-.9-3-4.5-6.8-8-12.3-8.6-2.3-.2-4.1 1.4-6.3 1.9a20.4 20.4 0 0 1-10.1-.6c-4.2-1.4-9.7-3.3-11.3-7.3a27.5 27.5 0 0 0-2.3-4.9c-1.7-2.1-4.4-3.6-6.5-5.3-5.9-4.6-9.3-10.4-9.5-18.2a10.9 10.9 0 0 0 8.7 3.1c3.9-.2 9.3-.3 12.4 2.5s4.3 4.4 6.4 6.5a.4.4 0 0 0 .5-.5c-3.3-3.8-6.1-8.4-11.2-9.6a28.2 28.2 0 0 0-7.1-.9c-4.1.1-6.6-1-9.7-3.4-.1-5.8-.1-11.8-1.9-17.4-2.9-9.3-7.9-13.9-14.3-18.9 2.9 1.1 6.3 1.2 9.8 1.1a65.2 65.2 0 0 1 13.3.6c0 .1 0 .1.1.2 4 2.2 4.5 8.9 5.8 14.2a48 48 0 0 0-1.5 5.4 22 22 0 0 0 .5 5.1c0 .5.9.9.9.2.1-2.4-.1-4.4.9-6.6l.3-.6a4.2 4.2 0 0 0 .4 1 90 90 0 0 0 9.3 13.5c.6.8 1.6 0 1-.8-5.7-8.2-10.6-15-11.2-25.3a9.9 9.9 0 0 0-1.9-5 16.5 16.5 0 0 1 3.6 1.6c7.2 3.9 10.7 9.5 15.4 15.8.7.9 1.8-.1 1.1-1-1.9-2.6-3.7-5.1-5.6-7.5a8 8 0 0 0 2.8.3 16.6 16.6 0 0 1 13.3 6.5 152 152 0 0 1 12.3 18.5c.5.8 1.9.4 1.3-.5-4-7.2-8.1-14.2-13.5-20.5a15.8 15.8 0 0 0-7-4.7c-3.3-1.1-7.3-.5-10.5-1.7h-.5c-3.8-4.2-8.1-7.7-14.2-9.3-8.3-2.2-17.6 0-25.3-3.2a7.8 7.8 0 0 1 2.6-4.6c3.2-2.7 6.2-8.2 10.6-8.6a53 53 0 0 0 7.6-1.1c6.3 5.9 15.6 9.1 23.8 5.4.5-.2 0-.9-.4-.8-4.4 1.8-11.8 1.2-15.6-1.5a42 42 0 0 0-5.9-3.8 13.4 13.4 0 0 0 7-6.1c.3-.4-.4-1-.7-.5-3.9 5.4-8.4 6.1-14.5 6.3a14 14 0 0 0-4.9.6c1-1.6 1.9-3.1 2.7-4.6 1.9-3.3 1.4-7.4 2.4-11 1.8-6.6 5.6-11.5 10.4-16.2.4-.4-.2-1.2-.6-.8-5.7 5.3-10.7 11.1-12 19a19.4 19.4 0 0 1-.7 3.3 21.3 21.3 0 0 0-1.4-7c-3.4-8.5-7.3-14.9-6.8-24.6 0-.1-.5-.3-.5.1M432.8 485.6a21.8 21.8 0 0 0-15.3-6.5c-.3 7.7-2.8 16.6-7.1 22.6 6.5.5 13.5.9 16.9 1.7 3.9-4.5 5.9-11.7 5.6-17.7ZM407 501.4c4.5-5.1 7-14.7 7.2-22.2h-2a202 202 0 0 0-5.5 22.3Z" class="cls-1"/><path d="M438.2 510.6a24.8 24.8 0 0 0 5.7-11.3c-1.2-2.7-2.2-5.6-4.4-8a35 35 0 0 0-3.4-3.2 30.6 30.6 0 0 1-6.2 16.5 58.6 58.6 0 0 1 8.2 5.9ZM345.3 478.5a21 21 0 0 0-13.4 3.5c1.7 8.1 5.3 15.7 12.2 19.5l9.4-.7c-4.8-5.4-6.8-14.3-6.6-22.3a8.6 8.6 0 0 1-1.6 0M321.5 490.7a11 11 0 0 0-1.9 2.5c.6 5.6 3.2 10.4 7.6 13.2a41 41 0 0 1 4.9-3.1c1-.6 3.4-1 6.3-1.3-4.9-4.4-7.9-10.9-9.4-17.8l-.8.7a37.2 37.2 0 0 0-6.7 5.8" class="cls-1"/><path d="M288.5 566.1c-2.1 1.7-4.8 3.2-6.5 5.3a22 22 0 0 0-2.3 4.9c-1.6 4-7.1 5.9-11.3 7.4s-6.6 1.3-10.1.5-4-2.1-6.3-1.8c-5.5.5-9.3 4-12.4 8.5-.6.9.5 1.7 1.1.9 2.2-3.1 4.7-5.9 8.5-7.1s6.6 1 9.9 1.8l2.5.4a27.3 27.3 0 0 0-7.8 7c-5.7 7.1-3.8 22.6-1.5 30.7.2.9 1.5.2 1.3-.6a52.3 52.3 0 0 1-.6-20.1c1.5-10.2 8-14.4 16.7-17.4 3-1 7.1-2.2 9.6-4.5.3 3.3 2.1 6 1.7 10-1 7.8-5.1 15.7-11.2 20.5-.8.7-.1 2.1.9 1.3 5.5-4.2 8.8-10 11-16.5a29.8 29.8 0 0 0 1.7-8.8c.2-3.5-2.2-5.8-1.7-9.5 2.6-3.6 4.2-7.7 8.2-10.6a25.2 25.2 0 0 0 7.2-8.3l1.3 2.5c3.4 5.3 6.8 10.7 4.1 17.3-.4 1 .8 1.4 1.2.5 1.6-3.4 1.6-6.8.9-10.5-.9-5.3-5.4-8.7-5.6-13.9a41.5 41.5 0 0 0 1.8-11.6c.3-9 1.1-17.2 6.1-25.1 1.9-3 4.8-5.1 7.8-7.2a2.9 2.9 0 0 0 2.4 1.4A38.6 38.6 0 0 0 313 527c-.6 7 2 13.4 4.9 19.8a.5.5 0 0 0-.3.5c.4 3.4 1.2 6.7-.5 9.9s-2.8 4.3-2.7 7.3c.1.6.9.5 1-.1.6-3.4 3-5.5 3.7-8.8a21.7 21.7 0 0 0-.2-6.7c2.6 5.7 5.2 11.3 5.7 17.4.7 8.2-4.3 16.8-7.6 24.1s-7.3 14.9-10.6 22.5a27.7 27.7 0 0 0-2.3 14.2c.4 6.3 4.7 15.4 2.7 21.3-.3 1.1 1.2 1.3 1.6.4 1.3-3.5.9-6.4 0-10-2-8.5-2.2-16.5 1.5-24.6.6-1.1 1.1-2.2 1.6-3.3a30.8 30.8 0 0 0 3.7 5.2c3.1 4.1 3.1 10.4 2.3 15.1-.2 1.1 1.2 1 1.3.1a31.2 31.2 0 0 0-.1-11.4c-.9-4.5-4.1-7.7-5.8-11.8 4.1-8.2 8.5-16.3 12-24.8l1.2 1.9c4.2 6.4 5 12.9 2.3 20.3-.4 1 .9 1.5 1.4.5 1.7-4.1 2.8-8.8 2.1-13.3s-4.2-8.5-5.7-12.8l1-2.7c3.7-11.2.4-20.6-4.6-30.7a62.4 62.4 0 0 1-5.1-13.8 8.9 8.9 0 0 0 2.2 1.6 33 33 0 0 0 4 1.6 25.3 25.3 0 0 1 3.6 2c.7.4 1.6-.9 1.2-1.6-2.6-3.8-9.8-2-11.4-6.7a25.9 25.9 0 0 1 .3-8.3c.9-4.2 3.1-7.9 5.5-11.5l1.2-1a19.4 19.4 0 0 1-6.9-10.4 27.5 27.5 0 0 1-2 3.8 7 7 0 0 1-1.4-1h-.1c-1.1-1.2-2.3-2.3-3.5-3.4a45.4 45.4 0 0 1-7.3-12.1c-.4-7.2 2.2-12.9 5.5-19.5s2.5-10.6 1.8-16.1c-.1-.4-.5-.2-.5.1.5 9.7-3.5 16.1-6.8 24.6a21.8 21.8 0 0 0-1.4 7c-.3-1.1-.6-2.2-.8-3.2-1.2-8-6.2-13.8-11.9-19.1-.4-.3-1 .4-.6.8 4.7 4.8 8.6 9.7 10.4 16.3 1 3.5.5 7.6 2.4 10.9.8 1.5 1.7 3.1 2.7 4.6a17.3 17.3 0 0 0-4.9-.6c-6.1-.2-10.6-.9-14.5-6.3-.3-.5-1 .1-.7.6a13.9 13.9 0 0 0 7 6.1 34.7 34.7 0 0 0-5.9 3.8c-3.8 2.7-11.2 3.2-15.6 1.5-.4-.2-.9.5-.4.8 8.2 3.7 17.5.4 23.8-5.5a42.5 42.5 0 0 0 7.5 1c4.5.4 7.4 5.9 10.7 8.7a7.9 7.9 0 0 1 2.6 4.5c-7.7 3.2-17 1-25.3 3.2-6.1 1.6-10.4 5.1-14.2 9.3a.4.4 0 0 0-.5 0c-3.2 1.2-7.2.6-10.5 1.7a16.7 16.7 0 0 0-7 4.7c-5.4 6.3-9.5 13.3-13.5 20.5-.6 1 .8 1.4 1.3.5a134 134 0 0 1 12.3-18.4 16.4 16.4 0 0 1 13.3-6.6 8.4 8.4 0 0 0 2.8-.2c-1.9 2.3-3.8 4.9-5.7 7.4s.5 1.9 1.2 1c4.7-6.3 8.2-11.9 15.4-15.8l3.5-1.6a9.8 9.8 0 0 0-1.8 5c-.6 10.3-5.5 17.1-11.2 25.3-.6.8.4 1.6 1 .8a103 103 0 0 0 9.3-13.4 7.6 7.6 0 0 0 .4-1.1l.3.6c1 2.2.8 4.2.9 6.6 0 .7.9.4.9-.2s.7-3.4.4-5.1a32 32 0 0 0-1.4-5.3c1.3-5.4 1.8-12.1 5.8-14.3.1 0 .1-.1.1-.2a73.3 73.3 0 0 1 13.3-.6c3.5.1 6.9 0 9.7-1.1-6.3 5-11.3 9.7-14.2 18.9-1.8 5.6-1.8 11.6-1.9 17.4-3.1 2.4-5.6 3.5-9.7 3.4a33.7 33.7 0 0 0-7.1.9c-5.1 1.2-7.9 5.8-11.2 9.6-.3.3.1.8.4.5 2.2-2.1 4.2-4.4 6.5-6.4s8.5-2.8 12.4-2.6a10.9 10.9 0 0 0 8.7-3.1c-.2 7.7-3.6 13.5-9.5 18.1" class="cls-1"/></g></svg>