<svg xmlns="http://www.w3.org/2000/svg" viewBox="0 0 780 925"><g data-name="Layer 5"><path d="M151.4 777.7q1-7.8 2.4-15.9c4.7-30.6 35.2-182.9 35.9-150.8.2 11.9 10.1 100.7 16.3 166.7h341.8a838 838 0 0 0 6.7-94.2c3.5-187 41.3 45.8 46.5 64.5 2.2 7.7 4.1 18.3 5.9 29.7h92.8a416 416 0 0 1-5.9-50.4c4.2-58.2-27.7-112.3-30-169.2-1.9-48.2-13.1-85.9-35.5-131.5-21.3-43.3-67.9-50.6-108.8-56.8-34.5-5.3-46.5-9.3-70.3-39.1-2.3-2.9-6.5-19.1-8.2-27.4h.4s-11.1-45.4 4.6-65.7c0 0 75.5-55.8 55.7-137.7-16.7-69.4-82.4-90.4-124-90.4s-107.7 32-88.4 69.7c0 0-6.3 20.3-11.5 28.7-4.2 6.9-12.4 26.5-6.5 34.2 0 0-10.8 14.1-19.7 19.7a36.7 36.7 0 0 0-8.6 6.9c-2.4 2.5-7.8 13 .7 16.9 1.9.9 6.5 3.5 9.9 3.7 0 0 6.4 8.2 2.3 12.5a8.6 8.6 0 0 0-2.5 4.8c-1.2 5.5 2.2 11.9 8.7 14l-1.8 1.7c-3.5 3.6-10.3 12.4-.2 18.5a14.2 14.2 0 0 1 1.8 13.9c-3.1 8.1 1.7 21.5 23.7 23.3 16.6 1.3 29.2 3.5 33.8 15.2.3 5 .4 9.7.3 14a.9.9 0 0 0-.1.5h.1c-1.6 55.9-38.4 45.4-86.5 56.9-108.6 26-125.1 98.2-135.3 204.9-3.2 33.3-17.3 64.6-22.9 97.7-6 36.2-10.1 78.6-15.2 110.5Z" style="fill:#c3e3f2"/><path d="M390.5 275.9c.7 18.5.1 50.5 0 72.8-.1 26.7-.8 45.6-12.5 47.8-5.2.9-8-7-9.2-11.2s-.8-40.8-.5-54.8-.2-31.5-.5-46.2-5.3-35.2-15.7-45.5c-8.5-8.5-25.6-10.8-37.6-12-14.3-1.5-33.5-.3-41.5 1.5-5.6 1.3-12.7 5.7-17.2 7.5-4.3-6.4 6.4-15 6.4-15-5.8-1.8-9.8-8.1-8.8-12.9 3.2-.3 9.9 2.8 13.3 3.1 13.6 1.4 25.1 1.1 38.6 3.3 5.5.9 11.3 1.9 16.4-.1s9.3-8 7.1-13.1-7.4-6-12.2-6.9c-23.6-4.3-38.6-5.9-62.6-4.7-8.1 0-15.6-5.1-14.7-12.3 21.7 3.5 49-1.3 70.9.4s47.4 8.9 61.3 27.3 18.1 46.5 19 71" style="fill:#86c8e4"/></g></svg>