<?xml version="1.0" encoding="utf-8"?>
<!-- Generator: Adobe Illustrator 25.2.0, SVG Export Plug-In . SVG Version: 6.00 Build 0)  -->
<svg version="1.1" id="Layer_1" xmlns="http://www.w3.org/2000/svg" xmlns:xlink="http://www.w3.org/1999/xlink" x="0px" y="0px"
	 viewBox="0 0 1520.5 821.7" style="enable-background:new 0 0 1520.5 821.7;" xml:space="preserve">
<style type="text/css">
	.st0{fill:#C3E3F2;}
	.st1{fill:none;}
	.st2{fill:#86C8E4;}
	.st3{fill:none;stroke:#C3E3F2;stroke-width:6;stroke-miterlimit:10;}
	.st4{fill:#4AACD7;}
	.st5{fill:#FFFFFF;}
	.st6{fill:#458EAD;}
	.st7{fill:#42515A;}
</style>
<g id="Layer_1_1_">
	<path class="st0" d="M365.2,761h102.5V500.4h776c5.3-34.9,7.9-70.2,8-105.5H365.2V761z"/>
	<path class="st0" d="M472.7,505.2V761h676.2c47.7-78.3,79.6-165.2,94-255.8H472.7z"/>
	<path class="st0" d="M21.2,761h339V390.4h891.5C1251.4,262,1216,136,1149.3,26.2L21.2,28.4V761z"/>
	<path class="st1" d="M1498.1,500.7V395.2h-247.4c0,35.3-2.7,70.6-8,105.5H1498.1z"/>
	<path class="st1" d="M1497.6,761V505.5h-255.7c-14.6,92.3-2.1,178.8-48.9,255.5H1497.6z"/>
	<path class="st2" d="M1192.9,763.8L1192.9,763.8z"/>
	<path class="st0" d="M1250.7,393.6v1.6h247.4v105.5h0.2V390.8h-247.6V393.6z"/>
	<path class="st0" d="M1241.9,505.5h255.7V761h0.5V500.7h-255.4C1242.5,502.3,1242.2,503.9,1241.9,505.5z"/>
	<path class="st2" d="M1497.7,763.8h-304.8c-0.1,0.1-0.2,0.2-0.2,0.3h305.5v-0.4h-0.5V763.8z"/>
	<rect x="1498.1" y="500.7" class="st2" width="0.2" height="260.4"/>
	<rect x="18.7" y="26.1" class="st3" width="1482" height="736"/>
</g>
<g id="Layer_6">
	<path class="st4" d="M562.8,550c-0.4-4.1-3.3-8.2-7.5-8.8s-7.1,2.1-9,5.4s-2.9,7-5.5,9.9c-2.7,3-6.2,5.2-10.2,6.1
		c-4.8,1.3-10.4,2.5-12.5,7.6s0.7,8.1,4.4,8.9h0.3c0.6,0.1,1.3,0.1,1.9-0.1h0.1c1.7-0.2,3.4-0.5,5-0.9c2.1-0.4,4.2-1,6.3-1.7
		c4.1-1.4,8-3.3,11.6-5.7c3.7-2.4,7-5.3,9.9-8.6C560.5,558.8,563.2,554.6,562.8,550z"/>
	<ellipse class="st5" cx="426.9" cy="446.1" rx="23.1" ry="22.1"/>
	<circle class="st5" cx="541.1" cy="705.3" r="8"/>
</g>
<g id="Layer_3">
	<circle class="st2" cx="538.2" cy="631.6" r="12"/>
	<path class="st6" d="M243.9,136.1c-5.6-14.1-15.2-26.4-27.5-35.3c-12.5-9-27.4-14-42.8-14.3c-15.4-0.2-30.6,3.7-44,11.4
		c-13.2,7.5-24.5,18.2-31.8,31.2s-11.9,32.3-6.7,48.2c0.4,1.2,0.9,2.4,1.4,3.7c3,14.7,13.2,27.3,25.3,36.6
		c6.8,5.1,14.1,9.6,21.8,13.2c8.8,4.2,18.2,7.3,28,7.9c18.5,1.2,36.2-8.6,49.8-19.8s22.6-23.6,27.6-38.7
		C249.8,165.9,249.4,150.3,243.9,136.1z"/>
	<path class="st6" d="M334.2,379.8L334.2,379.8z"/>
	
		<ellipse transform="matrix(2.792189e-02 -0.9996 0.9996 2.792189e-02 -147.1839 486.3136)" class="st4" cx="176.5" cy="318.8" rx="41.1" ry="57.5"/>
	<circle class="st6" cx="541.6" cy="705.3" r="7.1"/>
	<ellipse class="st6" cx="427.4" cy="445.8" rx="23.1" ry="22.1"/>
	<path class="st7" d="M406,453.1c-0.6-5,0.2-10,2.3-14.5c1.8-4,4.8-7.3,8.5-9.5c3.5-2.3,7.7-3.6,11.9-3.5c4.6,0.2,8.6,3.4,11.8,6.5
		s6.6,7.3,7.6,12.1c0.7,3.9,0,7.9-1.8,11.4c-1.8,3.7-4.8,6.6-8.4,8.5c-4,1.9-8.5,2.5-12.9,1.9c-2.3-0.4-4.6-1-6.7-2
		c-1.2-0.6-2.4-1.2-3.5-1.9l-1.5-1.1c0.8,0.6,0,0-0.2-0.2l-0.3-0.4c-0.4-0.4,0.3,0.4-0.1-0.1l-0.6-0.8l-0.4-0.5
		c-0.6-1-1.3-2-2.1-2.9c-1-1.3-2.3-2.6-3.2-3.8s-3.3-0.6-2.8,1.2s0.9,3.3,1.5,4.9c0.7,2,1.7,4,3,5.7c2.9,4,8.4,6.2,13.1,7.3
		c5.4,1.3,11.2,1,16.4-1.1c4.8-2,8.9-5.4,11.6-9.8c2.7-4.2,4-9.1,3.9-14.1c-0.3-5.7-2.9-10.7-6.7-14.9s-8.4-8.2-13.9-9.8
		s-10.1-0.2-14.7,1.9c-5.1,2.3-9.4,6.2-12,11.2c-1.5,2.8-2.4,5.8-2.7,8.9c-0.4,3.3,0.3,6.4,1.1,9.6
		C404.4,454.3,406.2,454.2,406,453.1L406,453.1z"/>
</g>
<g id="Layer_2_1_">
	<path class="st7" d="M523.2,573.7c-1.1-0.3-2-1.2-2.2-2.3c-0.2-1.6,1.1-3.1,2.3-4c3.4-2.5,8-2.5,11.9-4c3.7-1.5,7.1-3.8,9.8-6.8
		c2.4-2.9,3.8-6.2,5.5-9.6s2.7-5.5,5.6-5.2s4.8,4.6,4.2,7.4s-3.7,7-6.4,9.8c-2.4,2.6-5,5-7.8,7.1c-3.1,2.4-6.7,4.2-10.4,5.4
		c-2,0.6-4,1.1-6.1,1.3c-2.3,0.1-4.7,0.1-7-0.1c-1.4,0-2.5,1.1-2.5,2.5v0.1c0,1.4,1.1,2.5,2.5,2.6c4.7,0.4,9.4-0.1,13.8-1.6
		c4.1-1.3,7.9-3.3,11.4-5.8c3.4-2.4,6.6-5.2,9.5-8.3c3.2-3.5,6.6-7.4,7.5-12.1s-0.9-9.6-5.2-11.9s-8.5-0.3-11.1,3.3
		s-3.4,7.2-5.6,10.5c-2.5,3.6-6.2,6.3-10.4,7.7c-5.2,1.7-11.2,2.1-14.5,7.2c-1.5,2.2-1.6,5-0.3,7.3c1.1,2,3.2,3.2,5.5,3.3
		C525.7,577.5,525.6,573.9,523.2,573.7L523.2,573.7z"/>
	<path class="st7" d="M97.2,189.5c-3.3-11.3-5.8-23.3-5-35.2c0.7-9.8,3.8-19.2,8.9-27.6c6.5-11.3,15.8-20.8,27-27.6
		c5.2-3.2,10.8-5.7,16.6-7.4c2.9-0.9,5.8-1.7,8.8-2.2c1.5-0.4,3.1-0.6,4.6-0.8h1.7l2.3-0.3c6-0.5,12-0.3,18,0.5h1.8l2.3,0.4l4.3,0.9
		c2.9,0.8,5.8,1.6,8.6,2.6c2.7,1,5.3,2.1,7.9,3.4c2.6,1.3,5.1,2.7,7.6,4.2l3.8,2.6l3.1,2.5c2.3,1.9,4.5,3.9,6.5,6.1
		c4.1,4.2,7.6,9,10.3,14.2c3,5.5,5.2,11.4,6.6,17.5c1.5,6.7,2.1,13.5,1.9,20.3c-0.1,4.1-0.7,8.1-1.7,12.1c-1.1,4.3-2.6,8.5-4.5,12.5
		c-8.1,16.6-21.5,30.1-38,38.4c-16.8,8.8-36.4,10.6-54.6,5.1c-17.4-5.1-33.7-16.2-43.1-31.7c-2.2-3.5-3.9-7.3-5.1-11.2
		c-0.5-1.5-2.1-2.3-3.6-2c-1.5,0.5-2.4,2.1-2,3.6c5.9,18.2,20.8,32.9,37.8,41.1s39.4,11.1,58.9,5.1c18.7-5.8,35-17.5,46.4-33.3
		c5.6-7.7,9.8-16.4,12.4-25.6c2-8,2.5-16.2,1.7-24.4c-2-26.5-18-49.9-42-61.3c-11.3-5.5-23.7-8.5-36.3-8.8
		c-12.8-0.3-25.5,2.3-37.2,7.6c-12.3,5.8-23,14.5-31.1,25.3c-4.9,6.5-8.8,13.7-11.6,21.4c-4,11.2-4.2,23.7-2.1,35.3
		c1.2,6,2.8,11.9,4.7,17.7C94.5,192.6,97.9,191.7,97.2,189.5L97.2,189.5z"/>
	<path class="st7" d="M121.3,328.4c-0.8-5.5-0.3-11.1,1.5-16.4c0.8-2.5,1.9-4.8,3.3-7c1.3-2.2,2.9-4.2,4.7-6
		c7.8-8.3,18.6-13.3,29.6-16.1c5.8-1.5,11.7-2.3,17.7-2.6c5.9-0.2,11.9,0.2,17.7,1.3c2.8,0.6,5.6,1.3,8.3,2.2
		c2.5,0.8,4.9,1.8,7.2,3.1c1.2,0.6,2.4,1.3,3.5,2l1.5,1l1.3,1c2,1.6,3.8,3.4,5.5,5.3l0.3,0.4c0.2,0.3-0.4-0.4,0,0.1l0.5,0.6l1.1,1.7
		c0.7,1.1,1.4,2.3,1.9,3.6l1.7,3.7c0.5,1.4,1,2.8,1.4,4.2l0.9,3.7l0.3,1.8c0,0.1,0.2,1.1,0.1,0.5s0.1,0.6,0.1,1
		c0.3,2.3,0.3,4.5,0,6.8c0,0.1-0.1,1.1,0,0.4c-0.1,0.2-0.1,0.5-0.1,0.7c-0.1,0.6-0.2,1.1-0.4,1.7c-0.2,1-0.5,2-0.8,2.9l-0.5,1.4
		c-0.3,0.6,0.1-0.3-0.1,0.3c-0.2,0.2-0.3,0.5-0.4,0.8c-0.5,0.9-0.9,1.8-1.5,2.7l-1.7,2.4c0.4-0.5-0.1,0.2-0.2,0.3l-0.5,0.5
		c-0.3,0.5-0.7,0.9-1.1,1.3c-0.7,0.8-1.4,1.5-2.2,2.1l-1.1,1l-0.7,0.5c-0.1,0.1-0.1,0.2-0.2,0.2s0,0-0.1,0.1
		c-1.8,1.3-3.7,2.5-5.6,3.6l-3.1,1.6l-1.5,0.7l-0.9,0.4c0.6-0.3-0.2,0.1-0.4,0.1c-4.6,1.8-9.3,3.2-14.2,4.2l-3.7,0.6l-1.8,0.3H187
		l-7.7,0.6c-5.2,0.2-10.5,0-15.7-0.6l-1.7-0.2c-0.2,0-1.3-0.1-0.5,0l-1-0.2l-3.8-0.6c-2.4-0.4-4.7-1-7.1-1.6s-4.4-1.4-6.6-2.2
		l-1.5-0.6c-0.8-0.3,0.1,0.1-0.2-0.1l-1-0.4l-2.8-1.4c-1.9-0.9-3.6-2-5.3-3.2l-0.6-0.4c-0.3-0.2-0.6-0.5-0.1-0.1l-1.1-0.9l-2.2-2
		c-0.6-0.7-1.1-1.4-1.7-2s0.1,0.2,0.2,0.2l-0.3-0.3l-0.3-0.5c-0.3-0.3-0.6-0.8-0.8-1.2c-0.5-0.7-0.9-1.4-1.3-2.2
		c-0.1-0.4-0.3-0.7-0.5-1.1c0.5,1-0.1-0.4-0.3-0.6c0-0.2-0.1-0.4-0.2-0.6c0.4,0.8-0.2-0.4-0.3-0.7l-0.2-0.6c0-0.2-0.1-0.4-0.2-0.5
		c-0.3-1,0.2,0.4,0-0.1c-0.2-1.1-0.6-2.1-1.3-3l0.6,1.3V329c-0.1-2.3-3.7-2.3-3.6,0c0,0.8,0.3-1.7,0-0.1v0.3c-0.1,0.3-0.1,0.7-0.2,1
		c0,0.5,0,0.9-0.1,1.4c0,0.4,0.1,0.8,0.1,1.2s-0.1-0.5,0-0.2s0.1,0.6,0.1,0.9s0.1,0.9,0.2,1.3c0.5,1.9,1.2,3.8,2.3,5.5
		c2.3,3.5,5.3,6.5,8.8,8.9c7.7,5.5,17.2,8.5,26.5,10.1c10.7,1.8,21.6,2.1,32.3,0.7c10.2-1.3,20.6-4,29.6-9.3s14.6-11.4,17.5-20.2
		c3.3-10.4,0.4-21.6-4.3-31.2s-15.1-16.8-25.7-20.2s-25-4.3-37.3-2.4s-24.4,6.4-34.2,14s-15.6,17.5-16.4,29.3
		c-0.2,3.1-0.1,6.2,0.4,9.2c0.3,1.1,1.4,1.8,2.5,1.5s1.7-1.4,1.4-2.4c0,0,0,0,0-0.1L121.3,328.4z"/>
	<path class="st7" d="M550.3,627.4c-0.8-2.7-2.5-5-4.8-6.5c-2.2-1.4-4.9-2.1-7.5-2c-6.1,0-11.7,3.2-14.1,9s-0.3,11.8,4.5,15.4
		s11.1,4,15.9,0.8c2.7-1.9,4.8-4.6,5.9-7.7c1-2.9,1.7-7.3-0.5-9.9s-3-0.4-3.4,0.9c-0.2,1.2-0.3,2.3-0.2,3.5c0,1-0.1,2-0.4,3
		c-0.4,1.9-1.4,3.6-2.8,4.9c-2.7,2.6-6.9,3.2-10.2,1.4c-3.3-1.7-5.8-5.1-4.9-8.9c0.8-4,4.1-7.1,8.2-7.7c4.3-0.6,8.6,0.5,10.3,4.9
		c0.3,1.1,1.4,1.8,2.5,1.5C549.9,629.7,550.6,628.6,550.3,627.4L550.3,627.4z"/>
	<path class="st7" d="M549.2,701c-0.5-1.8-1.7-3.3-3.2-4.4c-1.5-1-3.2-1.4-5-1.3c-1.9,0-3.8,0.4-5.5,1.4c-1.6,1.1-2.9,2.7-3.7,4.5
		s-1,3.9-0.3,5.8c0.6,1.9,1.8,3.5,3.5,4.6c3.1,2.3,7.3,2.4,10.5,0.3c1.8-1.3,3.1-3.1,3.8-5.2c0.7-1.9,1.3-5.9-1.1-6.9
		c-0.8-0.4-1.8-0.3-2.5,0.3c-0.7,0.8-0.9,1.9-0.8,2.9v1c-0.1,0.1-0.1,0.2-0.1,0.3c0.1-0.3,0.1-0.4,0-0.1c0,0.1,0,0.3-0.1,0.4
		c0,0.3-0.1,0.6-0.2,0.9c0,0.1-0.1,0.2-0.1,0.3s0-0.1-0.1,0.1l-0.5,0.7c0,0.1-0.3,0.5-0.1,0.2s-0.2,0.3-0.2,0.3l-0.7,0.6
		c0.5-0.2,0.1,0-0.1,0.1h-0.3c-0.1,0.2-0.3,0.3-0.5,0.3c0.4,0,0.4-0.1,0.1,0s-0.9,0.3-1,0.2h-1.1c0.4,0.1-0.2,0-0.2,0l-0.6-0.2h-0.4
		l-0.9-0.5l-0.3-0.2c-0.5-0.3,0.4,0.4-0.1,0l-0.6-0.6c0,0-0.4-0.5-0.1-0.2l-0.3-0.3c-0.2-0.3-0.3-0.5-0.4-0.8c0.2,0.7,0-0.3-0.1-0.4
		l0,0v-1c0-0.6-0.1,0.5,0-0.1s0.1-0.6,0.2-0.9s0.3-0.7,0.1-0.2s0.1-0.2,0.1-0.3l0.6-0.9c0.2-0.3-0.4,0.4,0,0s0.3-0.4,0.5-0.5
		l0.3-0.3c0.5-0.5-0.4,0.2,0.2-0.1l0.8-0.5l0.3-0.2c-0.5,0.2,0.1,0,0.2,0h2.8l0.6,0.2h0.6l0.8,0.5c0.1,0,0.3,0.2-0.1-0.1l0.5,0.4
		l0.2,0.3c-0.3-0.4,0.1,0.1,0.2,0.2s0.1,0.2,0.2,0.4s0.1,0.2,0.1,0.3s0-0.2,0.1,0c0.3,1.1,1.4,1.8,2.5,1.5s1.8-1.5,1.5-2.6
		L549.2,701z"/>
</g>
<path class="st5" d="M1388.2,58.2c0,1.4-0.3,2.8-0.9,4.1c-0.6,1.1-1.4,2.1-2.5,2.8s-2.3,1.2-3.6,1.5c-1.4,0.3-2.8,0.5-4.2,0.5h-3.4
	v10.7h-6.9V49.4h10.4c1.5,0,3,0.2,4.4,0.5c1.3,0.3,2.4,0.8,3.5,1.5c1,0.7,1.8,1.6,2.3,2.7C1388,55.4,1388.3,56.8,1388.2,58.2z
	 M1381.4,58.2c0-0.6-0.1-1.1-0.4-1.6c-0.3-0.4-0.6-0.8-1.1-1c-0.5-0.3-1-0.4-1.6-0.5h-4.7v6.6h4.7c0.6-0.1,1.1-0.3,1.6-0.6
	c0.4-0.3,0.8-0.6,1.1-1C1381.3,59.6,1381.5,58.9,1381.4,58.2z"/>
<path class="st5" d="M1418,77.8l0.2-20.1h-0.2l-7.3,20.1h-4.8l-7.2-20.1h-0.1l0.2,20.1h-6.5V49.4h9.8l6.4,18.2h0.2l6.1-18.2h9.9
	v28.4H1418z"/>
<path class="st5" d="M1438.9,77.8V57l-5.3,4l-3.4-4.7l9.3-6.9h6.1v28.4L1438.9,77.8z"/>
<path class="st5" d="M1477.4,63.5c0,1.9-0.2,3.8-0.6,5.7c-0.3,1.7-1,3.3-1.9,4.8c-0.8,1.4-2,2.5-3.4,3.3c-4.7,2.7-10.7,1.2-13.7-3.3
	c-0.9-1.5-1.6-3.1-1.9-4.8c-0.8-3.8-0.8-7.6,0-11.4c0.3-1.7,1-3.3,1.9-4.7c0.9-1.3,2.1-2.4,3.5-3.2c3.2-1.6,7-1.6,10.2,0
	c1.4,0.8,2.5,1.9,3.4,3.2c0.9,1.4,1.6,3,1.9,4.7C1477.2,59.7,1477.5,61.6,1477.4,63.5z M1470.6,63.5c0-0.9-0.1-1.8-0.2-2.9
	c-0.1-1-0.3-2-0.6-3c-0.3-0.9-0.7-1.6-1.3-2.3c-0.5-0.6-1.3-0.9-2.1-0.9c-0.8,0-1.6,0.3-2.2,0.9c-0.6,0.7-1,1.5-1.3,2.3
	c-0.3,1-0.5,2-0.6,3c-0.1,1.1-0.1,2-0.1,2.9s0,1.9,0.1,3c0.1,1,0.3,2,0.6,3c0.3,0.8,0.7,1.6,1.3,2.3c0.6,0.6,1.4,1,2.2,1
	c0.8,0,1.6-0.4,2.1-1c0.6-0.7,1-1.4,1.3-2.3c0.3-1,0.5-2,0.6-3C1470.5,65.4,1470.6,64.4,1470.6,63.5L1470.6,63.5z"/>
<path class="st7" d="M533.1,446c0,1.7-0.4,3.3-1.1,4.8c-0.6,1.3-1.6,2.4-2.7,3.3c-1.1,0.9-2.4,1.5-3.8,1.9c-1.4,0.5-2.8,0.7-4.3,0.7
	h-8v-21.3h7.7c1.5,0,3,0.2,4.5,0.5c1.4,0.4,2.7,1,3.9,1.8c1.1,0.9,2.1,1.9,2.7,3.2C532.8,442.5,533.2,444.3,533.1,446z M527.7,446
	c0-1-0.2-2-0.5-3c-0.4-0.7-0.9-1.4-1.6-1.9c-0.7-0.5-1.4-0.8-2.2-1c-0.9-0.2-1.7-0.3-2.6-0.3h-2.5v12.4h2.4c0.9,0,1.7-0.1,2.6-0.3
	c1.7-0.3,3.1-1.4,3.9-2.9C527.6,448.1,527.8,447.1,527.7,446z"/>
<path class="st7" d="M553.8,452.1c-0.4,1-1,2-1.8,2.7c-0.8,0.8-1.8,1.4-2.9,1.8c-2.5,0.8-5.1,0.8-7.6,0c-1.1-0.4-2-1-2.8-1.8
	c-0.8-0.7-1.4-1.7-1.8-2.7c-0.4-1.1-0.6-2.2-0.6-3.4v-13.3h5.1v12.8c0,0.6,0,1.2,0.2,1.7c0.1,0.5,0.4,1,0.7,1.4s0.7,0.7,1.2,1
	c0.6,0.2,1.2,0.3,1.8,0.3s1.3-0.1,1.9-0.3c0.5-0.3,0.9-0.6,1.2-1c0.4-0.4,0.6-0.9,0.7-1.4c0.2-0.5,0.2-1.1,0.2-1.7v-12.8h5.2v13.3
	C554.5,449.9,554.3,451.1,553.8,452.1z"/>
<path class="st7" d="M569.8,440.9c-0.5-0.6-1-1-1.7-1.3s-1.4-0.5-2.1-0.5h-1l-0.9,0.3c-0.3,0.2-0.5,0.4-0.7,0.7
	c-0.2,0.3-0.3,0.6-0.3,1s0,0.7,0.2,0.9c0.2,0.3,0.4,0.5,0.7,0.7l1,0.5l1.3,0.4l2.3,0.8c0.8,0.3,1.5,0.7,2.1,1.2
	c0.7,0.5,1.2,1.1,1.6,1.8c0.4,0.8,0.6,1.7,0.6,2.6c0.2,2.1-0.7,4.1-2.4,5.4c-0.8,0.6-1.7,1-2.7,1.3s-2,0.4-3,0.4
	c-1.5,0-3-0.3-4.4-0.8c-1.3-0.5-2.5-1.3-3.5-2.3l3.3-3.4c0.5,0.7,1.3,1.3,2.1,1.6c0.8,0.5,1.6,0.7,2.5,0.7h1.1l1-0.4
	c0.3-0.2,0.5-0.5,0.6-0.8c0.2-0.3,0.3-0.6,0.3-1s-0.1-0.8-0.3-1.1c-0.3-0.3-0.6-0.5-0.9-0.7c-0.4-0.3-0.9-0.5-1.4-0.7l-1.9-0.6
	l-2-0.7c-0.6-0.3-1.2-0.7-1.7-1.2s-0.9-1.1-1.2-1.7c-0.3-0.8-0.5-1.6-0.5-2.5c0-1,0.3-2.1,0.7-3c0.5-0.8,1.1-1.5,1.9-2.1
	c0.8-0.5,1.7-0.9,2.7-1.1c0.9-0.3,1.9-0.4,2.9-0.4c1.3,0,2.5,0.2,3.7,0.6s2.4,1.1,3.3,2L569.8,440.9z"/>
<path class="st7" d="M585,439.8v16.9h-5.1v-16.9h-6v-4.4H591v4.4H585z"/>
<path class="st7" d="M616.3,442c0,1.1-0.2,2.1-0.7,3.1c-0.5,0.8-1.1,1.5-1.9,2.1c-0.8,0.5-1.7,0.9-2.7,1.1c-1.1,0.2-2.1,0.4-3.2,0.4
	h-2.5v8h-5.1v-21.3h7.8c1.1,0,2.2,0.1,3.2,0.4c0.9,0.2,1.8,0.6,2.6,1.1s1.4,1.2,1.8,2C616.1,439.9,616.4,441,616.3,442z M611.1,442
	c0-0.4-0.1-0.8-0.3-1.2c-0.2-0.4-0.4-0.6-0.8-0.8c-0.3-0.2-0.7-0.3-1.1-0.3h-3.6v5h3.5c0.4-0.1,0.8-0.3,1.2-0.5s0.6-0.4,0.8-0.8
	C611.1,443,611.2,442.5,611.1,442L611.1,442z"/>
<path class="st7" d="M632,456.7l-1.7-4.2h-8.2l-1.6,4.2h-5.6l9-21.3h4.9l8.9,21.3H632z M626.3,441.1l-2.7,7.3h5.3L626.3,441.1z"/>
<path class="st7" d="M650.8,456.7l-4.6-8.5h-1.8v8.5h-5v-21.3h8.1c1,0,2,0.1,3,0.3c0.9,0.2,1.8,0.6,2.6,1.1s1.4,1.2,1.9,2
	c0.5,0.9,0.7,2,0.7,3c0,1.3-0.4,2.6-1.2,3.7c-0.8,1-2,1.8-3.3,2.1l5.6,9.1L650.8,456.7L650.8,456.7z M650.6,441.9
	c0-0.4-0.1-0.8-0.3-1.2c-0.2-0.3-0.5-0.5-0.8-0.7c-0.4-0.2-0.8-0.3-1.2-0.3h-3.9v4.9h3.7c0.4-0.1,0.8-0.2,1.2-0.4
	c0.4-0.1,0.7-0.4,0.9-0.7C650.6,443.1,650.7,442.5,650.6,441.9L650.6,441.9z"/>
<path class="st7" d="M668,439.8v16.9h-5.1v-16.9h-6v-4.4H674v4.4H668z"/>
<path class="st7" d="M676.4,456.7v-21.3h5.1v21.3H676.4z"/>
<path class="st7" d="M701.1,456.3c-1.5,0.6-3.1,0.9-4.7,0.9c-1.6,0.1-3.1-0.2-4.6-0.8c-1.4-0.5-2.6-1.3-3.6-2.3s-1.8-2.2-2.4-3.5
	c-1.2-2.9-1.2-6.3,0-9.2c0.5-1.4,1.4-2.6,2.5-3.5c1-1,2.3-1.8,3.6-2.3c2.9-0.9,6.1-0.9,9,0c1.3,0.5,2.5,1.4,3.5,2.4l-3.5,3.5
	c-0.5-0.7-1.1-1.2-1.9-1.5c-1.5-0.7-3.3-0.7-4.8,0c-1.5,0.6-2.7,1.9-3.2,3.4c-0.3,0.8-0.5,1.7-0.5,2.6s0.2,1.8,0.5,2.7
	c0.3,0.7,0.7,1.4,1.2,2s1.2,1,1.9,1.3c0.7,0.4,1.6,0.5,2.4,0.5c0.9,0,1.9-0.2,2.7-0.6c0.7-0.3,1.3-0.8,1.8-1.5l3.6,3.3
	C703.7,454.9,702.5,455.8,701.1,456.3z"/>
<path class="st7" d="M706.8,456.7v-21.3h5.2v16.8h8.2v4.5H706.8z"/>
<path class="st7" d="M722.6,456.7v-21.3h14.3v4.3h-9.4v4.1h8.9v4.1h-8.9v4.4h9.9v4.4H722.6z"/>
<path class="st7" d="M761.8,456.7h-13.9v-2.8l8.5-8.4c0.6-0.7,1.1-1.4,1.6-2.1s0.7-1.5,0.7-2.4c0-0.5-0.1-1-0.3-1.5
	c-0.2-0.4-0.5-0.9-0.8-1.2c-0.3-0.3-0.7-0.6-1.2-0.7c-0.5-0.2-1-0.3-1.5-0.3c-1,0-1.9,0.3-2.6,1c-0.7,0.7-1.2,1.7-1.4,2.7l-2.8-0.5
	c0.1-0.8,0.4-1.5,0.7-2.2c0.4-0.7,0.9-1.3,1.5-1.8s1.3-0.9,2.1-1.2c0.8-0.3,1.7-0.4,2.6-0.4c0.9,0,1.7,0.1,2.5,0.4
	c0.8,0.2,1.5,0.6,2.1,1.1c0.7,0.5,1.2,1.1,1.5,1.9c0.4,0.8,0.6,1.7,0.6,2.6c0,0.6-0.1,1.3-0.3,1.9s-0.4,1.2-0.7,1.7s-0.7,1-1.1,1.4
	l-1.3,1.4l-6.9,6.8h10.4L761.8,456.7L761.8,456.7z"/>
<path class="st7" d="M773.9,442.4h2.7v7.6c-0.1,1.3,0.2,2.5,0.8,3.6c0.7,0.8,1.7,1.2,2.8,1.1c1.1,0,2.1-0.5,2.8-1.3
	c0.8-1.1,1.2-2.4,1.1-3.8v-7.2h2.8v12.7c0,0.5,0.1,1,0.1,1.6h-2.8v-2.2l0,0c-0.4,0.7-1,1.3-1.7,1.8c-0.6,0.5-1.4,0.7-2.2,0.7
	c-0.8,0.1-1.7-0.2-2.4-0.6c-0.5-0.5-0.9-1.1-1.1-1.8h-0.1v9.3H774L773.9,442.4z"/>
<path class="st7" d="M796.4,442.8c0.8-0.5,1.8-0.7,2.8-0.7c0.9,0,1.8,0.2,2.6,0.6c0.8,0.6,1.4,1.3,1.8,2.2c0.4-0.9,1.1-1.6,2-2.1
	s1.8-0.7,2.8-0.7c0.8,0,1.6,0.1,2.4,0.4c1.2,0.7,2.2,1.8,2.6,3.1c0.2,0.7,0.3,1.5,0.3,2.2v8.9h-2.8v-7.9c0-0.6,0-1.1-0.1-1.7
	c-0.1-0.5-0.3-1-0.6-1.4c-0.2-0.4-0.5-0.7-0.9-0.9c-0.4-0.3-1-0.4-1.5-0.4c-0.6,0-1.2,0.2-1.7,0.4c-0.5,0.3-0.8,0.6-1.1,1.1
	c-0.3,0.4-0.5,0.9-0.7,1.4c-0.1,0.6-0.1,1.1-0.1,1.7v7.7h-2.9v-8.5c0-0.5,0-1-0.1-1.5c-0.1-0.4-0.3-0.8-0.5-1.2
	c-0.3-0.3-0.6-0.6-1-0.8c-0.4-0.2-0.9-0.3-1.4-0.3c-1,0-2,0.5-2.6,1.3c-0.7,1-1.1,2.2-1,3.4v7.6h-2.8V444c-0.1-0.5-0.1-1.1-0.1-1.6
	h2.6c0.1,0.4,0.1,0.9,0.1,1.3s0.1,0.8,0.1,1.1l0,0C795.1,444,795.7,443.4,796.4,442.8z"/>
<path class="st7" d="M647.3,563.8c0.1,1.9-0.9,3.8-2.5,4.8c-0.8,0.5-1.7,0.8-2.6,1c-1,0.2-2,0.3-3,0.3h-8.5v-21.2h8.5
	c0.8,0,1.7,0.1,2.5,0.3c0.8,0.1,1.7,0.4,2.4,0.8c0.7,0.4,1.3,1,1.7,1.7c0.4,0.8,0.6,1.8,0.6,2.7c0,1-0.3,2.1-0.9,2.9
	c-0.7,0.8-1.5,1.3-2.5,1.6l0,0c0.6,0.1,1.2,0.3,1.7,0.6c0.5,0.2,0.9,0.6,1.3,1c0.4,0.4,0.7,0.9,1,1.5
	C647.3,562.5,647.4,563.2,647.3,563.8z M641.5,554.8c0-0.6-0.3-1.2-0.8-1.5c-0.8-0.4-1.6-0.6-2.5-0.5h-2.5v4.4h2.8
	c0.8,0,1.6-0.2,2.2-0.6C641.3,556.2,641.6,555.5,641.5,554.8z M642.2,563.3c0-0.8-0.3-1.5-1-1.9c-0.9-0.3-1.8-0.5-2.7-0.5h-2.8v4.9
	h4.1l1.2-0.4c0.3-0.2,0.6-0.4,0.8-0.7C642.1,564.3,642.3,563.8,642.2,563.3z"/>
<path class="st7" d="M665.1,569.9l-1.7-4.1h-8.2l-1.5,4.1h-5.6l8.9-21.2h5l8.8,21.2H665.1z M659.4,554.4l-2.7,7.3h5.3L659.4,554.4z"
	/>
<path class="st7" d="M687.2,569.6c-1.5,0.6-3.1,0.9-4.7,0.9c-1.6,0-3.1-0.3-4.6-0.8c-1.4-0.5-2.6-1.3-3.6-2.3s-1.8-2.3-2.4-3.6
	c-0.6-1.4-0.9-3-0.9-4.5c0-1.6,0.3-3.1,0.9-4.6c0.6-1.4,1.4-2.6,2.5-3.6c1-1,2.3-1.7,3.6-2.2c1.5-0.5,3-0.8,4.6-0.8
	c1.5,0,3,0.3,4.4,0.8c1.3,0.5,2.5,1.3,3.5,2.3l-3.5,3.5c-0.5-0.6-1.2-1.1-1.9-1.4c-1.5-0.7-3.3-0.7-4.8,0c-0.7,0.3-1.4,0.8-2,1.3
	c-0.5,0.6-0.9,1.3-1.2,2.1s-0.5,1.7-0.5,2.6c0,0.9,0.2,1.8,0.5,2.6s0.7,1.5,1.2,2.1s1.2,1,1.9,1.3c0.8,0.3,1.6,0.5,2.4,0.5
	c0.9,0,1.9-0.2,2.7-0.6c0.8-0.3,1.4-0.9,1.8-1.6l3.6,3.4C689.8,568.2,688.6,569,687.2,569.6z"/>
<path class="st7" d="M701.8,553.1v16.8h-5.1v-16.8h-6v-4.4h17.1v4.4H701.8z"/>
<path class="st7" d="M710.2,569.9v-21.2h14.2v4.3h-9.3v4h8.8v4.1h-8.8v4.5h9.9v4.3L710.2,569.9L710.2,569.9z"/>
<path class="st7" d="M739.7,569.9l-4.6-8.4h-1.7v8.4h-5v-21.2h8.1c1,0,1.9,0.1,2.9,0.3s1.9,0.6,2.7,1.1c0.7,0.5,1.4,1.2,1.8,2
	c0.5,0.9,0.8,2,0.7,3c0.1,1.3-0.4,2.6-1.2,3.6s-1.9,1.8-3.2,2.1l5.5,9.1L739.7,569.9z M739.5,555.2c0-0.4-0.1-0.8-0.3-1.2
	c-0.2-0.3-0.5-0.6-0.8-0.7l-1.1-0.4h-4v5h3.8l1.2-0.4c0.3-0.2,0.7-0.5,0.9-0.8C739.5,556.3,739.6,555.8,739.5,555.2z"/>
<path class="st7" d="M748.3,569.9v-21.2h5.1v21.2H748.3z"/>
<path class="st7" d="M775.1,565.4c-0.4,1-1,2-1.8,2.7c-0.8,0.8-1.8,1.4-2.9,1.8c-1.2,0.4-2.5,0.6-3.8,0.6s-2.5-0.2-3.7-0.6
	c-1.1-0.4-2.1-1-2.9-1.8c-0.8-0.7-1.4-1.7-1.8-2.7c-0.4-1.1-0.6-2.3-0.6-3.5v-13.2h5.1v12.8c0,0.6,0.1,1.1,0.2,1.7
	c0.2,0.5,0.4,1,0.7,1.4s0.7,0.7,1.2,0.9c0.6,0.3,1.2,0.4,1.9,0.4c0.6,0,1.2-0.1,1.8-0.4c0.5-0.2,0.9-0.5,1.3-0.9
	c0.3-0.4,0.5-0.9,0.7-1.4c0.1-0.6,0.2-1.1,0.2-1.7v-12.8h5.1v13.2C775.9,563.2,775.6,564.3,775.1,565.4z"/>
<path class="st7" d="M799.2,569.9v-15h-0.1l-5.5,15H790l-5.4-15h-0.1l0.2,15h-4.9v-21.2h7.3l4.9,13.6h0.1l4.6-13.6h7.4v21.2H799.2z"
	/>
<path class="st7" d="M825.2,569.9h-2.8v-17.7l-4.1,3.4l-1.7-2l6-4.9h2.6V569.9z"/>
<path class="st7" d="M840,563.8h-6.9v-2.4h6.9V563.8z"/>
<path class="st7" d="M847.7,557.7h1l1.7-0.2c0.5-0.1,1.1-0.3,1.5-0.6c0.5-0.2,0.9-0.6,1.1-1.1c0.3-0.5,0.4-1.1,0.4-1.7
	c0-0.5-0.1-1-0.3-1.4s-0.5-0.8-0.8-1.1l-1.2-0.8l-1.4-0.2c-0.8,0-1.6,0.2-2.3,0.7s-1.2,1.1-1.5,1.9l-2.6-0.9c0.5-1.3,1.3-2.3,2.5-3
	c1.2-0.8,2.6-1.2,4-1.1c0.8,0,1.7,0.1,2.5,0.3s1.5,0.6,2.1,1.1c0.5,0.5,1,1.1,1.4,1.8c0.3,0.8,0.5,1.6,0.5,2.5
	c0,0.6-0.1,1.2-0.3,1.7s-0.5,1-0.8,1.4s-0.7,0.8-1.2,1.1s-1,0.5-1.5,0.7l0,0c0.6,0.1,1.2,0.4,1.8,0.7c0.5,0.3,0.9,0.7,1.3,1.1
	c0.4,0.4,0.7,0.9,0.9,1.5s0.4,1.2,0.4,1.9c0,1-0.2,1.9-0.6,2.8c-0.4,0.8-0.9,1.4-1.6,2c-0.7,0.6-1.5,1-2.3,1.3
	c-0.8,0.2-1.7,0.4-2.6,0.4c-1.6,0-3.1-0.4-4.5-1.2c-1.3-0.8-2.3-2-2.8-3.5l2.7-0.9c0.3,0.9,0.9,1.7,1.7,2.2c0.8,0.6,1.8,0.9,2.8,0.9
	l1.6-0.2l1.4-0.8c0.4-0.3,0.7-0.8,0.9-1.3c0.3-0.5,0.4-1.1,0.4-1.7c0-0.7-0.2-1.3-0.5-1.9c-0.3-0.5-0.8-0.9-1.3-1.2l-1.7-0.7
	l-1.9-0.2h-0.9L847.7,557.7L847.7,557.7z"/>
<path class="st7" d="M869.1,555.7h2.8v7.6c-0.1,1.3,0.1,2.5,0.8,3.6c0.5,0.7,1.4,1,2.8,1c1.1,0,2.1-0.5,2.8-1.3
	c0.8-1.1,1.2-2.4,1.1-3.7v-7.2h2.7v11.1c0,0.5,0,1.1,0.1,1.6c0,0.5,0,1,0.1,1.5h-2.9v-2.2h-0.1c-0.4,0.8-0.9,1.4-1.6,1.9
	c-1.4,0.9-3.2,0.9-4.6,0.1c-0.6-0.5-1-1.1-1.2-1.8l0,0v9.2h-2.8L869.1,555.7z"/>
<path class="st7" d="M891.6,556.1c0.8-0.5,1.8-0.8,2.8-0.8c0.9,0,1.8,0.2,2.6,0.7s1.5,1.3,1.8,2.2c1-1.8,2.9-2.9,4.9-2.9
	c1.5,0,2.9,0.6,4,1.7c0.4,0.6,0.7,1.2,0.9,1.9c0.3,0.7,0.4,1.4,0.4,2.2v8.8h-2.9V562c0-0.5,0-1.1-0.1-1.6s-0.3-1-0.5-1.4
	c-0.3-0.4-0.6-0.7-1-0.9c-0.4-0.3-1-0.4-1.5-0.4c-0.6,0-1.2,0.1-1.7,0.4c-0.4,0.3-0.8,0.7-1.1,1.1c-0.3,0.4-0.5,0.9-0.6,1.4
	c-0.1,0.6-0.2,1.1-0.2,1.7v7.6h-2.8v-8.4c0-0.5-0.1-1.1-0.2-1.6c-0.1-0.4-0.2-0.8-0.5-1.1c-0.2-0.4-0.5-0.6-0.9-0.8
	s-0.9-0.3-1.4-0.3c-1,0-2,0.4-2.6,1.3c-0.8,1-1.2,2.2-1.1,3.4v7.5h-2.8v-12.6c0-0.6-0.1-1.1-0.1-1.6h2.7c0,0.4,0,0.8,0.1,1.2v1.2
	h0.1C890.3,557.3,890.9,556.6,891.6,556.1z"/>
<path class="st7" d="M645.7,640.3h-5l-4.2-14.4h-0.1l-4.2,14.4h-5.1l-6-21.3h5.5l3.3,14.2h0.1l3.8-14.2h5.3l3.9,14.2l0,0l3.5-14.2
	h5.3L645.7,640.3z"/>
<path class="st7" d="M654,640.3V619h5.2v21.3H654z"/>
<path class="st7" d="M663.5,640.3V619h5.2v16.8h8.2v4.5H663.5z"/>
<path class="st7" d="M699.1,629.6c0.1,1.7-0.3,3.3-1,4.8c-0.6,1.3-1.5,2.4-2.7,3.3c-1.2,0.9-2.4,1.5-3.8,2c-1.4,0.4-2.9,0.6-4.4,0.6
	h-7.9V619h7.7c1.5,0,3,0.2,4.4,0.6c1.4,0.3,2.7,0.9,3.9,1.7s2.2,2,2.8,3.3C698.9,626.2,699.2,627.9,699.1,629.6z M693.8,629.6
	c0-1-0.2-2.1-0.6-3c-0.4-0.7-0.9-1.4-1.5-1.9c-0.7-0.5-1.5-0.8-2.3-1s-1.7-0.3-2.5-0.3h-2.6v12.4h2.5c0.9,0,1.7-0.1,2.6-0.3
	c0.8-0.2,1.6-0.5,2.3-1c0.6-0.5,1.1-1.2,1.5-1.9C693.7,631.7,693.9,630.7,693.8,629.6L693.8,629.6z"/>
<path class="st7" d="M707.6,623.4v4.4h8.2v4.2h-8.2v8.3h-5.1V619h14v4.4H707.6z"/>
<path class="st7" d="M719.8,640.3V619h5.2v21.3H719.8z"/>
<path class="st7" d="M740.7,640.3l-4.6-8.5h-1.7v8.5h-5V619h8.1c1,0,1.9,0.1,2.9,0.3c0.9,0.2,1.8,0.6,2.6,1.1s1.4,1.2,1.9,2
	c0.5,0.9,0.8,2,0.7,3.1c0,1.3-0.4,2.6-1.2,3.6s-1.9,1.8-3.2,2.1l5.5,9.1L740.7,640.3z M740.5,625.5c0-0.4-0.1-0.8-0.3-1.2
	c-0.2-0.3-0.5-0.5-0.8-0.7s-0.7-0.3-1.1-0.3h-4v4.8h3.8l1.2-0.4c0.3-0.2,0.7-0.4,0.9-0.7C740.5,626.6,740.6,626.1,740.5,625.5z"/>
<path class="st7" d="M749.2,640.3V619h14.3v4.4h-9.3v4h8.8v4.1h-8.8v4.4h9.9v4.4L749.2,640.3z"/>
<path class="st7" d="M786.2,624.6c-0.5-0.6-1.1-1.1-1.8-1.4c-0.6-0.3-1.3-0.5-2-0.5h-1l-1,0.4c-0.3,0.1-0.5,0.3-0.7,0.6
	s-0.3,0.7-0.3,1.1c0,0.3,0.1,0.6,0.2,0.9l0.7,0.6l1,0.5l1.4,0.4l2.2,0.8c1.6,0.5,2.9,1.6,3.8,3c0.4,0.8,0.6,1.7,0.6,2.6
	c0.1,1.1-0.2,2.2-0.7,3.2c-0.4,0.9-1,1.6-1.8,2.2c-0.8,0.6-1.7,1-2.6,1.3c-1,0.3-2,0.4-3,0.4c-1.5,0-3-0.3-4.4-0.8
	c-1.3-0.5-2.6-1.2-3.6-2.2l3.4-3.5c0.5,0.7,1.2,1.2,2,1.6c0.8,0.5,1.7,0.7,2.6,0.7h1.1l0.9-0.4c0.3-0.2,0.5-0.4,0.7-0.7
	c0.1-0.4,0.2-0.7,0.2-1.1c0-0.4-0.1-0.7-0.3-1s-0.5-0.6-0.9-0.8c-0.4-0.3-0.8-0.5-1.3-0.6l-1.9-0.7l-2-0.7c-0.6-0.3-1.2-0.7-1.7-1.2
	c-0.6-0.4-1-1-1.3-1.7c-0.3-0.8-0.4-1.6-0.4-2.4c0-1.1,0.2-2.1,0.7-3.1c0.5-0.8,1.1-1.5,1.9-2c0.8-0.6,1.7-1,2.6-1.2
	c1-0.3,2-0.4,3-0.4c1.3,0,2.5,0.2,3.7,0.7c1.2,0.4,2.3,1,3.2,1.9L786.2,624.6z"/>
<path class="st7" d="M811.9,640.3l0.2-15.1H812l-5.5,15.1h-3.6l-5.4-15.1h-0.1v15.1h-4.7V619h7.3l4.8,13.7h0.1l4.7-13.7h7.4v21.3
	H811.9z"/>
<path class="st7" d="M843.5,629.6c0,1.6-0.3,3.1-0.9,4.6c-0.6,1.3-1.4,2.5-2.4,3.5c-1.1,1-2.3,1.8-3.7,2.3c-3,1.1-6.2,1.1-9.2,0
	c-2.8-1-5-3.1-6.1-5.8c-0.6-1.5-0.9-3-0.9-4.6s0.3-3.1,0.9-4.6c0.5-1.3,1.4-2.5,2.4-3.5c1.1-1,2.3-1.8,3.7-2.3c3-0.9,6.2-0.9,9.2,0
	c1.4,0.5,2.6,1.3,3.7,2.3c1,1,1.9,2.2,2.4,3.5C843.3,626.5,843.6,628.1,843.5,629.6z M838,629.6c0-0.9-0.2-1.8-0.5-2.6
	s-0.7-1.5-1.2-2.1c-0.5-0.5-1.2-1-1.9-1.3c-1.6-0.7-3.4-0.7-5,0c-0.7,0.3-1.3,0.8-1.9,1.3c-0.5,0.6-0.9,1.3-1.2,2.1
	s-0.5,1.7-0.5,2.6c0,0.9,0.2,1.8,0.5,2.6s0.7,1.5,1.2,2.1c0.6,0.6,1.2,1,1.9,1.4c1.6,0.7,3.4,0.7,5,0c0.7-0.4,1.3-0.8,1.9-1.4
	c0.5-0.6,0.9-1.3,1.2-2.1C837.9,631.4,838,630.5,838,629.6z"/>
<path class="st7" d="M859.8,640.3l-7.9-9.8l0,0v9.8h-5V619h5v8.7h0.1l7.6-8.7h6.4l-9.2,9.8l9.7,11.5H859.8z"/>
<path class="st7" d="M868.2,640.3V619h14.3v4.4h-9.4v4h8.9v4.1h-8.9v4.4h9.9v4.4L868.2,640.3z"/>
<path class="st7" d="M900.7,618.5c1.1,0,2.2,0.3,3.2,0.9c1,0.6,1.7,1.3,2.3,2.3c0.6,1.1,1,2.4,1.3,3.6c0.2,1.5,0.4,2.9,0.4,4.4
	c0,1.4-0.2,2.9-0.4,4.3c-0.3,1.2-0.7,2.5-1.3,3.6c-0.6,1-1.3,1.7-2.3,2.3s-2.1,0.9-3.2,0.9c-1.2,0-2.3-0.3-3.3-0.9
	c-1-0.6-1.7-1.3-2.3-2.3c-0.6-1.1-1-2.3-1.3-3.6c-0.3-1.4-0.4-2.9-0.4-4.3c0-1.5,0.1-3,0.4-4.4c0.3-1.3,0.7-2.5,1.3-3.6
	c0.6-1,1.3-1.7,2.3-2.3C898.4,618.8,899.6,618.5,900.7,618.5z M900.7,620.9c-0.8,0-1.6,0.3-2.2,0.9c-0.6,0.6-1,1.3-1.3,2.1
	c-0.3,1-0.5,1.9-0.7,2.9c-0.1,1-0.1,2-0.1,2.9s0,1.9,0.1,2.8c0.2,1,0.4,2,0.7,2.9c0.3,0.8,0.7,1.5,1.3,2.1s1.4,0.9,2.2,0.9
	s1.6-0.3,2.1-0.9c0.5-0.6,1-1.3,1.3-2.1c0.3-0.9,0.5-1.9,0.6-2.9c0.2-0.9,0.2-1.9,0.2-2.8c0-1,0-1.9-0.2-2.9c-0.1-1-0.3-2-0.6-2.9
	c-0.3-0.8-0.7-1.5-1.3-2.1C902.3,621.3,901.5,620.9,900.7,620.9L900.7,620.9z"/>
<path class="st7" d="M913,644.3h-2.4l2.1-7.5h2.8L913,644.3z"/>
<path class="st7" d="M930.9,633h3.1v2.5h-3.1v4.8h-2.8v-4.8h-9.8v-2.6l9-13.9h3.6V633z M928.1,622.4L928.1,622.4l-6.8,10.6h6.8
	V622.4z"/>
<path class="st7" d="M943.5,634.2h-7v-2.4h7V634.2z"/>
<path class="st7" d="M953.8,618.5c1.1,0,2.2,0.3,3.2,0.9c1,0.6,1.7,1.3,2.3,2.3c0.6,1.1,1,2.4,1.3,3.6c0.2,1.5,0.4,2.9,0.4,4.4
	c0,1.4-0.2,2.9-0.4,4.3c-0.3,1.2-0.7,2.5-1.3,3.6c-0.6,1-1.3,1.7-2.3,2.3s-2.1,0.9-3.2,0.9c-1.2,0-2.3-0.3-3.3-0.9
	c-1-0.6-1.7-1.3-2.3-2.3c-0.6-1.1-1-2.3-1.3-3.6c-0.3-1.4-0.4-2.9-0.4-4.3c0-1.5,0.1-3,0.4-4.4c0.3-1.3,0.7-2.5,1.3-3.6
	c0.6-1,1.3-1.7,2.3-2.3C951.5,618.8,952.7,618.5,953.8,618.5z M953.8,620.9c-0.8,0-1.6,0.3-2.2,0.9c-0.6,0.6-1,1.3-1.3,2.1
	c-0.3,1-0.5,1.9-0.7,2.9c-0.1,1-0.1,2-0.1,2.9s0,1.9,0.1,2.8c0.2,1,0.4,2,0.7,2.9c0.3,0.8,0.7,1.5,1.3,2.1s1.4,0.9,2.2,0.9
	s1.6-0.3,2.1-0.9c0.5-0.6,1-1.3,1.3-2.1c0.3-0.9,0.5-1.9,0.6-2.9s0.2-1.9,0.2-2.8s-0.1-1.9-0.2-2.9c-0.1-1-0.3-2-0.6-2.9
	c-0.3-0.8-0.7-1.5-1.3-2.1C955.4,621.3,954.6,620.9,953.8,620.9L953.8,620.9z"/>
<path class="st7" d="M966.1,644.3h-2.4l2-7.5h2.9L966.1,644.3z"/>
<path class="st7" d="M985.9,621.7l-8.5,18.6h-3.3l8.8-18.7h-10.5V619h13.5V621.7z"/>
<path class="st7" d="M998.2,626h2.8v7.6c-0.1,1.3,0.2,2.5,0.8,3.6c0.7,0.8,1.7,1.2,2.8,1.1c1.1,0,2.1-0.5,2.8-1.3
	c0.8-1.1,1.2-2.4,1.1-3.8V626h2.7v11.2c0,0.5,0,1,0.1,1.5c0,0.5,0,1.1,0.1,1.6h-2.9v-2.2h-0.1c-0.4,0.7-0.9,1.3-1.6,1.8
	c-1.4,0.9-3.2,0.9-4.6,0.1c-0.6-0.4-1-1.1-1.2-1.8l0,0v9.3h-2.8L998.2,626z"/>
<path class="st7" d="M1020.7,626.5c0.8-0.6,1.8-0.9,2.8-0.8c0.9,0,1.8,0.2,2.6,0.6c0.8,0.5,1.5,1.3,1.8,2.2c0.5-0.9,1.2-1.6,2-2.1
	c0.9-0.5,1.9-0.7,2.9-0.7c0.8,0,1.6,0.1,2.3,0.4c0.6,0.3,1.2,0.8,1.7,1.3c0.4,0.5,0.8,1.1,1,1.8s0.3,1.5,0.3,2.3v8.8h-2.8v-7.9
	c0-0.6-0.1-1.1-0.2-1.7c-0.1-0.5-0.3-0.9-0.5-1.3c-0.2-0.4-0.6-0.8-1-1c-0.5-0.3-1-0.4-1.5-0.4c-0.6,0-1.1,0.2-1.6,0.4
	c-0.5,0.3-0.9,0.7-1.2,1.1c-0.3,0.4-0.5,0.9-0.6,1.4c-0.1,0.6-0.2,1.1-0.2,1.7v7.7h-2.8v-8.5c0-0.5-0.1-1-0.2-1.5
	c0-0.4-0.2-0.9-0.5-1.2c-0.2-0.3-0.5-0.6-0.9-0.8s-0.9-0.3-1.4-0.3c-1,0-2,0.5-2.6,1.3c-0.7,1-1.1,2.2-1,3.4v7.6h-2.9v-12.7
	c0-0.5,0-1-0.1-1.5h2.7c0,0.3,0.1,0.7,0.1,1.2v1.1h0.1C1019.4,627.7,1020,627,1020.7,626.5z"/>
<path class="st5" d="M1372.2,421.2c0,1.4-0.3,2.8-0.9,4.1c-0.6,1.1-1.4,2.1-2.5,2.8c-1.1,0.7-2.3,1.2-3.6,1.5
	c-1.4,0.3-2.8,0.5-4.2,0.5h-3.4v10.7h-6.9v-28.4h10.4c1.5,0,3,0.2,4.4,0.5c1.3,0.3,2.4,0.8,3.5,1.5c1,0.7,1.8,1.6,2.3,2.7
	C1372,418.4,1372.3,419.8,1372.2,421.2z M1365.4,421.2c0-0.6-0.1-1.1-0.4-1.6c-0.3-0.4-0.6-0.8-1.1-1c-0.5-0.3-1-0.4-1.6-0.5h-4.7
	v6.6h4.7c0.6-0.1,1.1-0.3,1.6-0.6c0.4-0.3,0.8-0.6,1.1-1C1365.3,422.6,1365.5,421.9,1365.4,421.2z"/>
<path class="st5" d="M1403,440.8l0.2-20.1h-0.2l-7.3,20.1h-4.8l-7.2-20.1h-0.1l0.2,20.1h-6.5v-28.4h9.8l6.4,18.2h0.2l6.1-18.2h9.9
	v28.4H1403z"/>
<path class="st5" d="M1416.3,440.8v-5.6l11.1-10c0.6-0.6,1.2-1.3,1.6-2.1c0.5-0.7,0.7-1.5,0.7-2.3c0-0.9-0.3-1.8-1-2.4s-1.6-1-2.5-1
	c-1.1,0-2.1,0.4-2.8,1.2c-0.7,0.9-1.2,2-1.2,3.1l-6.5-0.9c0.2-1.3,0.6-2.6,1.2-3.8c0.6-1.1,1.4-2.1,2.4-2.9s2.1-1.4,3.3-1.8
	c1.3-0.4,2.6-0.6,3.9-0.6s2.6,0.2,3.8,0.5c1.2,0.3,2.3,0.9,3.3,1.6s1.8,1.6,2.3,2.7c0.6,1.2,0.9,2.5,0.9,3.9c0,0.9-0.2,1.8-0.4,2.7
	c-0.3,0.8-0.7,1.6-1.1,2.3c-0.5,0.7-1,1.3-1.6,1.9l-1.9,1.8l-6.6,5.8h11.6v5.9L1416.3,440.8z"/>
<path class="st5" d="M1446.6,445.7h-5.4l3-11.3h6.3L1446.6,445.7z"/>
<path class="st5" d="M1476.7,431.4c0,1.5-0.3,3.1-0.9,4.5c-0.5,1.2-1.4,2.3-2.5,3.1c-1,0.9-2.2,1.5-3.5,1.9s-2.6,0.6-4,0.6
	c-1.3,0-2.5-0.1-3.7-0.5c-1.1-0.3-2.1-0.8-3.1-1.4s-1.8-1.4-2.5-2.3c-0.6-0.9-1.1-1.9-1.5-3l6.2-1.9c0.3,1,0.8,1.8,1.6,2.5
	c0.8,0.6,1.9,0.9,2.9,0.9c1.1,0,2.2-0.3,3-1c0.9-0.8,1.4-1.9,1.3-3.1c0-0.7-0.2-1.5-0.6-2.1c-0.3-0.5-0.8-1-1.3-1.3
	c-0.6-0.4-1.2-0.6-1.9-0.7l-2-0.2l-3.5,0.3l-3.5,0.9l0.7-16.2h17.4v5.8h-11.4l-0.3,4.5l1.5-0.2h1.4c1.4,0,2.7,0.2,4,0.6
	c1.2,0.3,2.3,0.9,3.2,1.7c1,0.7,1.7,1.7,2.2,2.8C1476.5,428.8,1476.8,430.1,1476.7,431.4z"/>
<path class="st5" d="M1412,539.2c0,1.4-0.3,2.8-0.9,4.1c-0.6,1.1-1.4,2.1-2.5,2.8s-2.3,1.2-3.6,1.5c-1.4,0.3-2.8,0.5-4.2,0.5h-3.4
	v10.7h-6.8v-28.4h10.4c1.4,0,2.9,0.2,4.3,0.5c1.3,0.3,2.4,0.8,3.5,1.5c1,0.7,1.8,1.6,2.4,2.7C1411.9,536.4,1412.1,537.8,1412,539.2z
	 M1405.2,539.2c0.1-0.6-0.1-1.1-0.4-1.6c-0.2-0.5-0.6-0.8-1.1-1c-0.5-0.3-1-0.5-1.5-0.5h-4.8v6.6h4.7c0.6-0.1,1.1-0.3,1.6-0.6
	c0.5-0.2,0.8-0.6,1.1-1C1405.2,540.6,1405.3,539.9,1405.2,539.2z"/>
<path class="st5" d="M1442.8,558.8l0.2-20.1h-0.1l-7.4,20.1h-4.8l-7.1-20.1h-0.2l0.2,20.1h-6.4v-28.4h9.7l6.4,18.2h0.2l6.2-18.2h9.9
	v28.4H1442.8z"/>
<path class="st5" d="M1464.8,558.8V538l-5.3,4l-3.5-4.7l9.3-6.9h6.1v28.4H1464.8z"/>
<path class="st7" d="M310.5,170.3c0.1,1.7-0.3,3.3-1,4.8c-0.6,1.3-1.6,2.5-2.8,3.4c-1.1,0.8-2.4,1.5-3.8,1.9s-2.8,0.6-4.3,0.6h-7.9
	v-21.3h7.6c1.5,0,3,0.2,4.5,0.6c1.4,0.3,2.7,0.9,3.9,1.7c1.2,0.9,2.1,2,2.8,3.3C310.2,166.9,310.6,168.6,310.5,170.3z M305.2,170.3
	c0-1-0.2-2.1-0.6-3c-0.4-0.8-0.9-1.4-1.6-1.9s-1.4-0.8-2.2-1c-0.9-0.2-1.7-0.3-2.6-0.3h-2.5v12.5h2.4c0.9,0,1.8-0.2,2.7-0.4
	c0.8-0.2,1.5-0.5,2.2-1s1.2-1.1,1.6-1.9C305.1,172.4,305.3,171.4,305.2,170.3z"/>
<path class="st7" d="M331.2,176.5c-0.4,1-1,1.9-1.8,2.7c-1.9,1.6-4.3,2.4-6.7,2.4c-1.3,0-2.5-0.2-3.7-0.7c-1.1-0.4-2.1-0.9-2.9-1.7
	s-1.4-1.7-1.8-2.7c-0.4-1.1-0.6-2.3-0.6-3.5v-13.3h5.1v12.9c0,0.5,0.1,1.1,0.2,1.6c0.2,0.5,0.4,1,0.7,1.4c0.3,0.4,0.7,0.7,1.2,1
	c0.6,0.2,1.3,0.3,1.9,0.3s1.2-0.1,1.8-0.3l1.3-1c0.3-0.4,0.5-0.9,0.6-1.4c0.2-0.5,0.3-1.1,0.3-1.6v-12.9h5.1V173
	C332,174.2,331.7,175.4,331.2,176.5z"/>
<path class="st7" d="M347.2,165.3c-0.4-0.6-1-1.1-1.7-1.4c-0.6-0.3-1.3-0.5-2-0.5h-1.1l-0.9,0.4c-0.3,0.1-0.5,0.4-0.7,0.6
	c-0.2,0.3-0.3,0.7-0.3,1.1c0,0.3,0.1,0.6,0.2,0.9l0.7,0.6l1,0.5l1.4,0.5l2.2,0.8c0.8,0.2,1.5,0.6,2.1,1.1c0.7,0.5,1.2,1.1,1.6,1.8
	c0.5,0.8,0.8,1.7,0.7,2.7c0,1.1-0.2,2.1-0.7,3.1c-0.5,0.8-1.1,1.6-1.8,2.2c-0.8,0.6-1.7,1-2.6,1.3c-1,0.3-2.1,0.4-3.1,0.4
	c-1.5,0-3-0.2-4.4-0.8c-1.3-0.4-2.5-1.2-3.5-2.2l3.3-3.4c0.6,0.6,1.3,1.1,2.1,1.6c0.8,0.4,1.6,0.6,2.5,0.6h1.1l1-0.4
	c0.3-0.2,0.5-0.4,0.6-0.7c0.2-0.3,0.3-0.7,0.3-1.1c0-0.4-0.1-0.7-0.3-1c-0.2-0.3-0.5-0.6-0.9-0.8l-1.4-0.6l-1.8-0.6l-2-0.8
	c-0.7-0.3-1.3-0.7-1.8-1.2s-0.9-1-1.2-1.7c-0.3-0.8-0.5-1.6-0.5-2.4c0-1.1,0.3-2.2,0.8-3.1c0.4-0.8,1.1-1.5,1.8-2
	c0.8-0.6,1.7-1,2.7-1.2c1-0.3,2-0.4,3-0.4c1.2,0,2.5,0.2,3.6,0.7c1.2,0.4,2.3,1,3.3,1.9L347.2,165.3z"/>
<path class="st7" d="M362.5,164.1V181h-5.2v-16.9h-6v-4.4h17.2v4.4H362.5z"/>
<path class="st7" d="M393.7,166.3c0.1,1.1-0.2,2.2-0.7,3.1c-0.4,0.9-1.1,1.6-1.9,2.1c-0.8,0.6-1.7,0.9-2.7,1.1
	c-1,0.3-2.1,0.4-3.1,0.4h-2.6v8h-5.1v-21.3h7.8c1.1,0,2.1,0.2,3.2,0.4c1,0.2,1.9,0.6,2.7,1.1c0.7,0.5,1.3,1.2,1.7,2
	C393.6,164.2,393.8,165.3,393.7,166.3z M388.6,166.3c0-0.4-0.1-0.8-0.3-1.2c-0.2-0.3-0.5-0.6-0.9-0.8c-0.3-0.2-0.7-0.3-1.1-0.3h-3.6
	v5h3.5l1.2-0.4c0.4-0.2,0.7-0.5,0.9-0.8C388.6,167.4,388.7,166.9,388.6,166.3z"/>
<path class="st7" d="M409.4,181l-1.7-4.2h-8.2l-1.6,4.2h-5.5l8.9-21.3h5l8.8,21.3H409.4z M403.7,165.4l-2.7,7.3h5.3L403.7,165.4z"/>
<path class="st7" d="M428.2,181l-4.6-8.4h-1.7v8.4h-5.1v-21.3h8.1c1,0,2,0.2,3,0.4c0.9,0.1,1.8,0.5,2.6,1c0.8,0.5,1.4,1.2,1.9,2
	c0.5,1,0.7,2,0.7,3.1c0,1.3-0.4,2.6-1.2,3.6c-0.8,1-1.9,1.7-3.2,2.1l5.5,9.1L428.2,181z M428,166.3c0-0.5-0.1-0.9-0.3-1.3
	c-0.2-0.3-0.5-0.5-0.8-0.7c-0.4-0.1-0.7-0.2-1.1-0.3h-4v4.9h3.8l1.2-0.3l0.9-0.8C428,167.4,428.1,166.9,428,166.3z"/>
<path class="st7" d="M445.5,164.1V181h-5.2v-16.9h-6v-4.4h17.2v4.4H445.5z"/>
<path class="st7" d="M453.8,181v-21.3h5.2V181H453.8z"/>
<path class="st7" d="M478.6,180.6c-1.5,0.7-3.1,1-4.8,1c-1.6,0-3.1-0.3-4.6-0.9c-1.3-0.5-2.5-1.3-3.6-2.2c-2.2-2.2-3.3-5.1-3.2-8.2
	c0-1.6,0.3-3.1,0.8-4.6c0.6-1.3,1.4-2.5,2.5-3.5c1-1,2.3-1.7,3.6-2.2c1.5-0.6,3-0.8,4.6-0.8c1.5,0,3,0.2,4.4,0.8
	c1.4,0.4,2.6,1.2,3.5,2.3l-3.5,3.5c-0.4-0.7-1.1-1.2-1.8-1.5c-0.8-0.3-1.6-0.5-2.4-0.5c-0.9,0-1.7,0.2-2.5,0.5
	c-0.7,0.3-1.4,0.8-2,1.4c-0.5,0.6-0.9,1.3-1.2,2c-0.3,0.8-0.5,1.7-0.5,2.6c0,0.9,0.2,1.8,0.5,2.7c0.3,0.7,0.7,1.4,1.2,2
	s1.2,1.1,1.9,1.4c0.8,0.3,1.6,0.5,2.5,0.5s1.8-0.2,2.6-0.7c0.8-0.3,1.4-0.8,1.9-1.5l3.5,3.4C481.1,179.2,479.9,180,478.6,180.6z"/>
<path class="st7" d="M484.2,181v-21.3h5.2v16.8h8.2v4.5H484.2z"/>
<path class="st7" d="M500,181v-21.3h14.3v4.4H505v4h8.8v4.1H505v4.4h9.8v4.4L500,181L500,181z"/>
<path class="st7" d="M542,172.4L542,172.4l-1.3,0.4h-1.4c-0.9,0-1.8-0.2-2.6-0.5s-1.5-0.8-2.1-1.4c-0.6-0.6-1.1-1.3-1.4-2.1
	c-0.4-0.8-0.6-1.8-0.6-2.7c0-1,0.2-2,0.6-2.9c0.4-0.8,0.9-1.6,1.5-2.2c0.7-0.6,1.5-1.2,2.4-1.5s1.9-0.5,2.9-0.5s2,0.2,2.9,0.5
	c0.9,0.4,1.6,0.9,2.3,1.5s1.2,1.4,1.5,2.2c0.4,0.9,0.6,1.8,0.6,2.8c0,1.1-0.2,2.2-0.6,3.2c-0.4,1-0.9,1.9-1.4,2.8l-5.6,8.8h-3.4
	L542,172.4z M544.4,166.2c0-0.6-0.1-1.2-0.3-1.8c-0.2-0.5-0.5-1-0.9-1.4s-0.9-0.8-1.4-1c-1.1-0.5-2.5-0.5-3.6,0
	c-0.5,0.2-1,0.5-1.4,0.9s-0.7,0.9-0.9,1.5s-0.3,1.2-0.3,1.8s0.1,1.2,0.3,1.8c0.2,0.5,0.5,1,0.9,1.4s0.9,0.7,1.4,0.9
	c0.6,0.2,1.2,0.3,1.8,0.3s1.2-0.1,1.8-0.3c1.1-0.4,1.9-1.2,2.3-2.3C544.3,167.5,544.4,166.9,544.4,166.2z"/>
<path class="st7" d="M558.8,166.7h2.8v7.6c0,1.7,0.2,2.9,0.8,3.6c0.7,0.8,1.7,1.2,2.7,1.1c1.1,0.1,2.1-0.4,2.8-1.3
	c0.9-1.1,1.2-2.4,1.1-3.8v-7.2h2.8v12.7c0.1,0.5,0.1,1.1,0.1,1.6h-2.8v-2.2l0,0c-0.4,0.7-1,1.3-1.6,1.8c-0.7,0.5-1.5,0.8-2.3,0.8
	c-0.9,0-1.7-0.2-2.4-0.7c-0.5-0.4-0.9-1-1.1-1.7h-0.1v9.2h-2.7L558.8,166.7z"/>
<path class="st7" d="M581.3,167.2c0.8-0.6,1.8-0.9,2.8-0.8c0.9,0,1.8,0.2,2.6,0.6c0.8,0.5,1.5,1.3,1.8,2.2c0.5-0.9,1.2-1.6,2-2.1
	c0.9-0.5,1.8-0.7,2.8-0.7c0.8,0,1.6,0.1,2.4,0.4c0.6,0.4,1.2,0.8,1.7,1.3c0.4,0.5,0.7,1.1,0.9,1.8s0.3,1.5,0.3,2.3v8.8h-2.8v-7.9
	c0-0.5,0-1.1-0.1-1.6s-0.3-1-0.5-1.4c-0.3-0.4-0.6-0.7-1-1c-0.5-0.3-1-0.4-1.5-0.4c-0.6,0-1.2,0.2-1.7,0.5c-0.4,0.3-0.8,0.6-1.1,1
	s-0.5,1-0.6,1.5c-0.2,0.5-0.2,1.1-0.2,1.6v7.7h-2.8v-8.5c0-0.5-0.1-1-0.2-1.5c-0.1-0.4-0.3-0.8-0.5-1.2c-0.2-0.3-0.6-0.6-0.9-0.8
	c-0.4-0.2-0.9-0.3-1.4-0.3c-1,0-2,0.5-2.6,1.3c-0.7,1-1.1,2.2-1.1,3.4v7.6h-2.8v-12.6c0-0.6-0.1-1.2-0.1-1.6h2.7v1.2
	c0.1,0.4,0.1,0.7,0.1,1.1h0.1C580,168.4,580.6,167.7,581.3,167.2z"/>
<path class="st7" d="M304.6,325.4l-4.6-8.5h-1.7v8.5h-5.1v-21.3h8.1c1,0,2,0.1,3,0.3c0.9,0.2,1.8,0.6,2.6,1.1c0.8,0.5,1.4,1.2,1.9,2
	c0.5,0.9,0.7,2,0.7,3c0,1.3-0.4,2.6-1.2,3.7c-0.9,0.9-2,1.7-3.2,2.1l5.5,9.1L304.6,325.4z M304.4,310.6c0-0.4-0.1-0.8-0.3-1.2
	c-0.2-0.3-0.5-0.5-0.8-0.7l-1.1-0.4h-4v4.9h3.8l1.2-0.4c0.3-0.2,0.7-0.5,0.9-0.8C304.4,311.6,304.5,311.1,304.4,310.6L304.4,310.6z"
	/>
<path class="st7" d="M313.1,325.4v-21.3h14.3v4.3h-9.3v4.1h8.8v4.1h-8.8v4.4h9.9v4.4H313.1z"/>
<path class="st7" d="M351.2,314.7c0,1.7-0.4,3.3-1.1,4.8c-0.6,1.3-1.6,2.4-2.7,3.3s-2.4,1.5-3.8,1.9c-1.4,0.5-2.8,0.7-4.3,0.7h-8
	v-21.3h7.7c1.5,0,3,0.2,4.5,0.5c1.4,0.4,2.7,1,3.9,1.8c1.1,0.9,2.1,1.9,2.7,3.2C350.9,311.2,351.3,313,351.2,314.7z M345.8,314.7
	c0-1-0.2-2.1-0.6-3c-0.3-0.8-0.8-1.4-1.5-1.9s-1.4-0.8-2.2-1c-0.9-0.2-1.7-0.3-2.6-0.3h-2.5v12.4h2.4c0.9,0,1.7-0.1,2.6-0.3
	c0.8-0.2,1.6-0.5,2.3-1c0.7-0.5,1.2-1.2,1.5-2C345.7,316.7,345.9,315.7,345.8,314.7z"/>
<path class="st7" d="M378.6,319.2c0,1-0.2,2-0.7,2.9c-0.4,0.8-1,1.4-1.8,1.9s-1.7,0.8-2.6,1c-1,0.3-2,0.4-3,0.4h-8.4v-21.3h8.4
	c0.8,0,1.7,0.1,2.5,0.3c0.8,0.1,1.7,0.4,2.4,0.8c0.7,0.4,1.3,1,1.7,1.7c0.5,0.8,0.7,1.8,0.7,2.7c0,1.1-0.3,2.1-1,2.9
	s-1.5,1.4-2.5,1.7l0,0c0.6,0.1,1.2,0.3,1.7,0.6c0.5,0.3,0.9,0.6,1.3,1s0.7,0.9,1,1.5C378.6,318,378.7,318.6,378.6,319.2z
	 M372.8,310.3c0.1-0.6-0.3-1.3-0.8-1.6c-0.8-0.4-1.6-0.5-2.5-0.5H367v4.4h2.8c0.8,0,1.6-0.2,2.2-0.6
	C372.6,311.6,372.9,311,372.8,310.3z M373.5,318.7c0.1-0.8-0.3-1.5-1-1.8c-0.8-0.4-1.7-0.6-2.6-0.5H367v4.8h4.1l1.2-0.4
	c0.4-0.1,0.6-0.4,0.9-0.7C373.5,319.7,373.6,319.2,373.5,318.7L373.5,318.7z"/>
<path class="st7" d="M382,325.4v-21.3h5.2v16.8h8.2v4.5H382z"/>
<path class="st7" d="M419,314.6c0,1.6-0.3,3.2-0.8,4.7c-0.6,1.3-1.4,2.5-2.5,3.5c-1,1-2.2,1.8-3.6,2.3c-1.5,0.6-3,0.8-4.6,0.8
	s-3.2-0.2-4.7-0.8c-1.4-0.5-2.6-1.3-3.6-2.3s-1.8-2.2-2.4-3.5c-0.6-1.5-0.9-3.1-0.9-4.7s0.3-3.1,0.9-4.6c0.6-1.3,1.4-2.5,2.4-3.5
	s2.3-1.7,3.6-2.2c1.5-0.5,3.1-0.8,4.7-0.8s3.1,0.3,4.6,0.8c1.3,0.5,2.6,1.2,3.6,2.2c1.1,1,1.9,2.2,2.5,3.5
	C418.8,311.5,419,313.1,419,314.6z M413.5,314.6c0-0.9-0.1-1.7-0.4-2.5s-0.7-1.5-1.3-2.1c-0.5-0.6-1.2-1-1.9-1.3
	c-0.7-0.4-1.6-0.5-2.4-0.5c-0.9,0-1.7,0.1-2.5,0.5c-0.7,0.3-1.4,0.7-1.9,1.3c-0.6,0.6-1,1.3-1.3,2.1c-0.3,0.8-0.4,1.6-0.4,2.5
	s0.1,1.8,0.4,2.7c0.3,0.8,0.8,1.5,1.3,2.1s1.2,1,1.9,1.4c0.8,0.3,1.6,0.4,2.5,0.4c0.8,0,1.6-0.1,2.4-0.4c0.7-0.3,1.4-0.8,1.9-1.4
	c0.6-0.6,1-1.3,1.3-2.1S413.6,315.6,413.5,314.6z"/>
<path class="st7" d="M444.6,314.6c0,1.6-0.3,3.2-0.9,4.7c-0.6,1.3-1.4,2.5-2.4,3.5c-1.1,1-2.3,1.8-3.7,2.3c-1.5,0.6-3,0.8-4.6,0.8
	c-1.6,0.1-3.1-0.2-4.6-0.8c-1.4-0.5-2.6-1.3-3.7-2.3c-1-1-1.8-2.2-2.4-3.5c-0.6-1.5-0.9-3.1-0.9-4.7s0.3-3.1,0.9-4.6
	c0.6-1.3,1.4-2.5,2.4-3.5c1.1-1,2.3-1.7,3.7-2.2c1.5-0.5,3-0.8,4.6-0.8s3.1,0.3,4.6,0.8c1.4,0.5,2.6,1.3,3.7,2.2
	c1,1,1.8,2.2,2.4,3.5C444.4,311.5,444.7,313.1,444.6,314.6z M439.1,314.6c0-0.9-0.2-1.7-0.5-2.5s-0.7-1.5-1.2-2.1s-1.2-1-1.9-1.3
	c-1.6-0.7-3.4-0.7-5,0c-0.7,0.3-1.4,0.7-1.9,1.3c-0.6,0.6-1,1.3-1.2,2.1c-0.3,0.8-0.5,1.6-0.5,2.5s0.2,1.8,0.5,2.7
	c0.3,0.8,0.7,1.5,1.2,2.1s1.2,1,1.9,1.4c0.8,0.3,1.6,0.4,2.5,0.4c0.8,0,1.6-0.1,2.4-0.4c1.5-0.6,2.7-1.9,3.2-3.5
	C439,316.5,439.1,315.6,439.1,314.6z"/>
<path class="st7" d="M467.8,314.7c0,1.7-0.4,3.3-1.1,4.8c-0.6,1.3-1.5,2.4-2.7,3.3c-1.1,0.9-2.4,1.5-3.8,1.9
	c-1.4,0.5-2.8,0.7-4.3,0.7H448v-21.3h7.6c1.5,0,3,0.2,4.5,0.5c1.4,0.4,2.7,1,3.9,1.8c1.1,0.9,2.1,1.9,2.7,3.2
	C467.5,311.2,467.9,313,467.8,314.7z M462.4,314.7c0-1-0.2-2-0.5-3c-0.4-0.7-0.9-1.4-1.6-1.9s-1.4-0.8-2.2-1
	c-0.9-0.2-1.7-0.3-2.6-0.3H453v12.4h2.4c0.9,0,1.7-0.1,2.6-0.3c0.8-0.2,1.6-0.5,2.3-1c0.7-0.6,1.2-1.2,1.6-2
	C462.3,316.7,462.5,315.7,462.4,314.7z"/>
<path class="st7" d="M493.9,325c-1.5,0.6-3.2,0.9-4.8,0.9c-1.5,0-3.1-0.2-4.5-0.8c-1.4-0.5-2.6-1.3-3.6-2.3c-1.1-1-1.9-2.2-2.4-3.5
	c-1.2-2.9-1.2-6.3,0-9.2c0.5-1.3,1.4-2.5,2.4-3.5c1.1-1,2.3-1.8,3.7-2.3c2.9-1.1,6-1.1,8.9,0c1.4,0.5,2.6,1.3,3.6,2.4l-3.5,3.4
	c-0.5-0.6-1.2-1.1-1.9-1.4c-0.8-0.3-1.6-0.5-2.4-0.5c-0.9,0-1.7,0.2-2.5,0.5c-0.7,0.3-1.4,0.8-1.9,1.4c-0.6,0.5-1.1,1.2-1.3,2
	c-0.3,0.8-0.4,1.7-0.4,2.6s0.1,1.8,0.4,2.6c0.3,0.8,0.7,1.5,1.3,2.1c0.5,0.6,1.2,1,1.9,1.3c0.7,0.4,1.6,0.5,2.4,0.5
	c0.9,0,1.9-0.2,2.7-0.6c0.7-0.4,1.3-0.9,1.8-1.5l3.6,3.3C496.5,323.6,495.3,324.4,493.9,325z"/>
<path class="st7" d="M499.6,325.4v-21.3h14.2v4.3h-9.3v4.1h8.8v4.1h-8.8v4.4h9.9v4.4H499.6z"/>
<path class="st7" d="M517.8,325.4v-21.3h5.1v16.8h8.2v4.5H517.8z"/>
<path class="st7" d="M533.5,325.4v-21.3h5.2v16.8h8.2v4.5H533.5z"/>
<path class="st7" d="M570.1,306.8l-8.5,18.6h-3.4l8.9-18.7h-10.5v-2.6h13.5V306.8z"/>
<path class="st7" d="M580.8,319.2h-7v-2.3h7V319.2z"/>
<path class="st7" d="M594.1,314.2c0.6,0.1,1.1,0.3,1.6,0.7c0.5,0.3,0.9,0.7,1.3,1.2c0.3,0.5,0.6,1,0.8,1.5c0.2,0.6,0.3,1.3,0.3,2
	c0,0.9-0.2,1.8-0.5,2.6c-0.4,0.8-0.9,1.5-1.6,2c-0.6,0.6-1.4,1-2.2,1.3c-0.9,0.3-1.9,0.4-2.8,0.4c-0.9,0-1.8-0.1-2.7-0.4
	s-1.6-0.7-2.3-1.3c-0.7-0.5-1.2-1.2-1.5-2c-0.4-0.8-0.6-1.7-0.6-2.6c0-0.7,0.1-1.4,0.3-2s0.5-1.1,0.9-1.6c0.4-0.4,0.8-0.8,1.3-1.1
	c0.4-0.3,1-0.6,1.5-0.7l0,0c-0.9-0.3-1.8-0.9-2.4-1.7c-0.6-0.9-0.9-1.9-0.9-3c0-0.8,0.2-1.6,0.5-2.4c0.4-0.7,0.8-1.3,1.4-1.8
	c0.6-0.5,1.3-0.9,2-1.2c1.6-0.5,3.4-0.5,5,0c0.7,0.2,1.4,0.6,2,1.1s1,1.1,1.4,1.8c0.3,0.8,0.5,1.6,0.5,2.4c0,1.1-0.3,2.1-0.9,3
	C596,313.3,595.1,314,594.1,314.2L594.1,314.2z M586.9,319.4c0,0.6,0.1,1.2,0.3,1.7c0.1,0.5,0.4,0.9,0.8,1.2
	c0.4,0.4,0.8,0.7,1.3,0.9c1.1,0.4,2.3,0.4,3.4,0c0.5-0.2,0.9-0.5,1.3-0.9c0.4-0.3,0.7-0.7,0.8-1.2c0.3-0.5,0.4-1.1,0.4-1.7
	s-0.1-1.1-0.4-1.6c-0.2-0.5-0.4-0.9-0.8-1.3c-0.4-0.3-0.8-0.6-1.3-0.8c-0.5-0.2-1.1-0.3-1.7-0.3c-0.5,0-1.1,0.1-1.6,0.3
	c-0.5,0.2-1,0.5-1.4,0.8c-0.3,0.4-0.6,0.8-0.8,1.3C587,318.4,586.9,318.9,586.9,319.4L586.9,319.4z M587.5,309.4
	c0,0.5,0.1,1,0.3,1.4c0.3,0.8,1,1.5,1.8,1.8c0.4,0.2,0.9,0.3,1.4,0.3s1-0.1,1.4-0.3c0.4-0.1,0.8-0.4,1.1-0.7
	c0.3-0.3,0.5-0.7,0.7-1.1s0.3-0.9,0.3-1.4s-0.1-1-0.3-1.4c-0.3-0.8-1-1.5-1.8-1.8c-0.4-0.2-0.9-0.3-1.4-0.3s-1,0.1-1.4,0.3
	c-0.4,0.2-0.8,0.4-1.1,0.7c-0.3,0.3-0.6,0.7-0.7,1.1C587.6,308.5,587.5,309,587.5,309.4L587.5,309.4z"/>
<path class="st7" d="M609.8,311.1h2.8v7.6c-0.1,1.3,0.2,2.5,0.8,3.6c0.7,0.8,1.8,1.1,2.8,1c1.1,0,2.1-0.4,2.8-1.2
	c0.8-1.1,1.2-2.4,1.1-3.8v-7.2h2.8v12.7c0,0.5,0.1,1,0.1,1.6h-2.8v-2.2h-0.1c-0.4,0.7-0.9,1.3-1.6,1.8c-0.7,0.5-1.5,0.7-2.3,0.7
	c-0.8,0.1-1.6-0.2-2.3-0.6c-0.5-0.5-0.9-1.1-1.1-1.8h-0.1v9.3h-2.8L609.8,311.1z"/>
<path class="st7" d="M632.3,311.5c0.9-0.5,1.9-0.8,2.9-0.8c0.9,0,1.7,0.3,2.5,0.7c0.9,0.5,1.5,1.3,1.9,2.2c0.4-0.9,1.1-1.6,2-2.1
	c0.8-0.5,1.8-0.8,2.8-0.8c0.8,0,1.6,0.2,2.4,0.5c1.2,0.7,2.2,1.8,2.6,3.1c0.2,0.7,0.3,1.5,0.3,2.2v8.9h-2.8v-7.9
	c0-0.6-0.1-1.1-0.2-1.7c-0.1-0.5-0.2-1-0.5-1.4c-0.2-0.4-0.5-0.7-0.9-0.9c-0.5-0.3-1-0.5-1.6-0.4c-0.6,0-1.1,0.2-1.6,0.4
	c-0.5,0.2-0.9,0.6-1.1,1.1c-0.3,0.4-0.5,0.9-0.7,1.4c-0.1,0.6-0.2,1.1-0.2,1.7v7.7h-2.8v-8.5c0-0.5,0-1-0.1-1.5
	c-0.1-0.4-0.3-0.8-0.5-1.2c-0.3-0.3-0.6-0.6-1-0.8c-0.4-0.2-0.9-0.3-1.4-0.3c-1,0-2,0.5-2.6,1.3c-0.7,1-1.1,2.2-1,3.4v7.6h-2.8
	v-11.2c0-0.5,0-1-0.1-1.5c0-0.5,0-1.1-0.1-1.6h2.7c0.1,0.4,0.1,0.9,0.1,1.3v1.1h0.1C631.1,312.8,631.6,312.1,632.3,311.5z"/>
<path class="st7" d="M638.5,712.6c-1.5,0.6-3.2,0.9-4.8,0.9c-1.6,0.1-3.1-0.2-4.6-0.8c-1.4-0.5-2.6-1.3-3.6-2.3s-1.8-2.2-2.4-3.5
	c-1.1-3-1.1-6.2,0-9.2c0.5-1.4,1.4-2.6,2.5-3.5c1-1,2.3-1.8,3.6-2.3c1.5-0.5,3-0.7,4.6-0.7c1.5,0,3,0.2,4.4,0.7
	c1.3,0.5,2.5,1.4,3.5,2.4l-3.5,3.5c-0.4-0.7-1.1-1.2-1.8-1.5c-0.8-0.3-1.6-0.5-2.4-0.5c-0.9,0-1.7,0.2-2.5,0.5
	c-1.5,0.6-2.7,1.9-3.2,3.4c-0.3,0.8-0.5,1.7-0.5,2.6c0,0.9,0.2,1.8,0.5,2.7c0.3,0.7,0.7,1.4,1.2,2s1.2,1,1.9,1.3
	c0.8,0.4,1.6,0.5,2.5,0.5s1.8-0.2,2.6-0.6c0.7-0.4,1.4-0.9,1.9-1.5l3.5,3.3C641,711.2,639.9,712,638.5,712.6z"/>
<path class="st7" d="M665.9,702.3c0,1.6-0.3,3.1-0.9,4.6c-0.5,1.3-1.3,2.5-2.4,3.5c-1,1-2.3,1.8-3.7,2.3c-1.5,0.6-3,0.9-4.6,0.8
	c-1.6,0-3.1-0.2-4.6-0.8c-1.4-0.5-2.6-1.3-3.6-2.3c-1.1-1-1.9-2.2-2.5-3.5c-0.5-1.5-0.8-3-0.8-4.6s0.3-3.2,0.8-4.7
	c0.6-1.3,1.4-2.5,2.5-3.4c1-1,2.3-1.8,3.6-2.3c1.5-0.5,3-0.7,4.6-0.7s3.1,0.2,4.6,0.7c1.4,0.5,2.6,1.3,3.7,2.3
	c1.1,0.9,1.9,2.1,2.4,3.4C665.7,699.1,666,700.7,665.9,702.3z M660.4,702.3c0-0.9-0.1-1.8-0.4-2.6c-0.3-0.8-0.8-1.5-1.3-2.1
	s-1.2-1-1.9-1.3c-0.8-0.4-1.6-0.5-2.5-0.5c-0.8,0-1.7,0.1-2.4,0.5c-0.8,0.3-1.4,0.7-2,1.3c-0.5,0.6-0.9,1.3-1.2,2.1
	s-0.4,1.7-0.4,2.6c0,0.9,0.1,1.8,0.4,2.6c0.3,0.8,0.7,1.5,1.3,2.1c0.5,0.6,1.2,1.1,1.9,1.4c0.8,0.3,1.6,0.5,2.4,0.5
	c0.9,0,1.7-0.2,2.5-0.5c0.7-0.4,1.4-0.8,1.9-1.4C659.9,705.8,660.5,704.1,660.4,702.3L660.4,702.3z"/>
<path class="st7" d="M680.7,713l-4.6-8.5h-1.8v8.5h-5v-21.3h8.1c1,0,2,0.1,3,0.3c0.9,0.2,1.8,0.6,2.6,1.1s1.4,1.2,1.8,2
	c0.5,0.9,0.8,2,0.7,3c0,1.3-0.3,2.6-1.1,3.7c-0.8,1-2,1.8-3.3,2.1l5.6,9.1L680.7,713z M680.5,698.2c0-0.4-0.1-0.9-0.4-1.2
	c-0.2-0.3-0.5-0.5-0.8-0.7s-0.7-0.3-1.1-0.3h-3.9v4.9h3.7l1.2-0.4c0.4-0.1,0.7-0.4,0.9-0.7C680.4,699.4,680.6,698.8,680.5,698.2
	L680.5,698.2z"/>
<path class="st7" d="M711.3,702.3c0,1.6-0.3,3.1-0.8,4.6c-0.6,1.3-1.4,2.5-2.5,3.5c-1,1-2.2,1.8-3.6,2.3c-1.5,0.6-3.1,0.8-4.7,0.8
	c-1.6,0-3.1-0.2-4.6-0.8c-1.4-0.5-2.6-1.3-3.6-2.3s-1.8-2.2-2.4-3.5c-0.6-1.5-0.9-3-0.9-4.6s0.3-3.2,0.9-4.7
	c0.5-1.3,1.4-2.5,2.4-3.4c1-1,2.3-1.8,3.6-2.3c1.5-0.5,3-0.7,4.6-0.7s3.2,0.2,4.7,0.7c1.3,0.5,2.6,1.3,3.6,2.3
	c1.1,0.9,1.9,2.1,2.5,3.4C711.1,699.2,711.3,700.7,711.3,702.3z M705.8,702.3c0-0.9-0.1-1.8-0.4-2.6c-0.3-0.8-0.7-1.5-1.3-2.1
	c-0.5-0.6-1.2-1-1.9-1.3c-0.8-0.4-1.6-0.5-2.5-0.5c-0.8,0-1.7,0.1-2.4,0.5c-0.7,0.3-1.4,0.7-1.9,1.3c-0.6,0.6-1,1.3-1.3,2.1
	s-0.4,1.7-0.4,2.6c0,0.9,0.1,1.8,0.4,2.6c0.3,0.8,0.7,1.5,1.3,2.1c0.5,0.6,1.2,1.1,1.9,1.4c0.8,0.3,1.6,0.5,2.4,0.5
	c0.9,0,1.7-0.2,2.5-0.5c0.7-0.4,1.4-0.8,1.9-1.4c0.6-0.6,1-1.3,1.3-2.1C705.7,704.1,705.9,703.2,705.8,702.3z"/>
<path class="st7" d="M728.2,713l-8.5-13.9h-0.1V713h-5v-21.3h5.9l8.5,13.9h0.1v-13.9h4.9V713H728.2z"/>
<path class="st7" d="M752.8,713l-1.6-4.2h-8.3l-1.5,4.2h-5.6l8.9-21.3h5l8.8,21.3H752.8z M747.1,697.4l-2.7,7.3h5.4L747.1,697.4z"/>
<path class="st7" d="M777.2,713h-5.1l-8-21.3h5.7l4.9,15.1h0.2l4.9-15.1h5.6L777.2,713z"/>
<path class="st7" d="M787.2,713v-21.3h5.1V713H787.2z"/>
<path class="st7" d="M808.1,713l-4.6-8.5h-1.8v8.5h-5v-21.3h8.1c1,0,2,0.1,3,0.3c0.9,0.2,1.8,0.6,2.6,1.1s1.4,1.2,1.8,2
	c0.5,0.9,0.8,2,0.7,3c0,1.3-0.3,2.6-1.1,3.7c-0.8,1-2,1.8-3.3,2.1l5.6,9.1L808.1,713z M807.9,698.2c0-0.4-0.1-0.9-0.4-1.2
	c-0.2-0.3-0.5-0.5-0.8-0.7s-0.7-0.3-1.1-0.3h-3.9v4.9h3.7l1.2-0.4c0.4-0.1,0.7-0.4,0.9-0.7C807.8,699.4,808,698.8,807.9,698.2
	L807.9,698.2z"/>
<path class="st7" d="M833.9,708.4c-0.4,1-1,2-1.8,2.7c-0.8,0.8-1.8,1.4-2.9,1.8c-1.2,0.4-2.5,0.6-3.8,0.6s-2.5-0.2-3.7-0.6
	c-1.1-0.4-2.1-1-2.9-1.8c-0.8-0.7-1.4-1.7-1.8-2.7c-0.4-1.1-0.6-2.2-0.6-3.4v-13.3h5.1v12.8c0,0.6,0.1,1.1,0.2,1.7
	c0.2,0.5,0.4,1,0.7,1.4s0.7,0.7,1.2,1c0.6,0.2,1.3,0.3,1.9,0.3c0.6,0,1.2-0.1,1.8-0.3l1.3-1c0.3-0.4,0.5-0.9,0.7-1.4
	c0.1-0.6,0.2-1.1,0.2-1.7v-12.8h5.1V705C834.7,706.2,834.4,707.4,833.9,708.4z"/>
<path class="st7" d="M850,697.2c-0.5-0.5-1.1-1-1.8-1.3c-0.6-0.3-1.3-0.5-2-0.5h-1.1l-0.9,0.3c-0.3,0.2-0.5,0.4-0.7,0.7
	s-0.3,0.6-0.3,1c0,0.3,0.1,0.6,0.2,0.9c0.2,0.3,0.4,0.5,0.7,0.7l1,0.5l1.4,0.4l2.2,0.8c0.8,0.3,1.5,0.7,2.2,1.2
	c0.6,0.5,1.1,1.1,1.5,1.8c0.5,0.8,0.7,1.7,0.7,2.6c0.1,3.2-2,5.9-5.1,6.7c-1,0.3-2.1,0.4-3.1,0.4c-1.5,0-3-0.3-4.4-0.8
	c-1.3-0.5-2.5-1.3-3.5-2.3l3.4-3.4c0.5,0.7,1.2,1.2,2,1.6c0.8,0.4,1.6,0.7,2.5,0.7h1.2l0.9-0.4c0.3-0.2,0.5-0.5,0.6-0.8
	c0.2-0.3,0.3-0.6,0.3-1s-0.1-0.8-0.3-1.1c-0.3-0.3-0.6-0.5-0.9-0.7c-0.4-0.3-0.9-0.6-1.4-0.7l-1.8-0.6l-2-0.7
	c-0.7-0.3-1.3-0.7-1.8-1.2s-0.9-1.1-1.2-1.7c-0.3-0.8-0.5-1.6-0.5-2.5c0-1.1,0.3-2.1,0.8-3c0.5-0.8,1.1-1.6,1.9-2.1
	c0.8-0.5,1.7-0.9,2.6-1.1c1-0.3,2-0.4,3-0.4c1.2,0,2.4,0.2,3.6,0.6c1.2,0.4,2.4,1.1,3.3,2L850,697.2z"/>
<path class="st7" d="M870.7,691.2c1.2,0,2.3,0.3,3.3,0.9c0.9,0.6,1.7,1.4,2.2,2.3c0.6,1.1,1.1,2.3,1.3,3.6c0.3,1.4,0.4,2.9,0.4,4.3
	c0,1.5-0.1,3-0.4,4.4c-0.2,1.2-0.7,2.4-1.3,3.5c-0.5,1-1.2,1.8-2.2,2.4c-1,0.6-2.1,0.9-3.3,0.9s-2.3-0.3-3.3-0.9
	c-1-0.6-1.7-1.4-2.2-2.4c-0.6-1.1-1.1-2.3-1.3-3.5c-0.3-1.4-0.4-2.9-0.4-4.4c0-1.4,0.1-2.9,0.4-4.3c0.2-1.3,0.7-2.5,1.3-3.6
	c0.5-0.9,1.3-1.7,2.2-2.3C868.4,691.5,869.6,691.2,870.7,691.2z M870.7,693.6c-0.8,0-1.6,0.3-2.1,0.9c-0.6,0.6-1.1,1.3-1.4,2.1
	c-0.3,0.9-0.5,1.9-0.6,2.9s-0.2,1.9-0.2,2.8s0.1,1.9,0.2,2.9c0.1,1,0.3,1.9,0.6,2.8c0.3,0.8,0.8,1.6,1.4,2.2c1.2,1,3,1,4.2,0
	c0.6-0.6,1-1.4,1.3-2.2c0.4-0.9,0.6-1.8,0.7-2.8c0.1-1,0.2-2,0.2-2.9s-0.1-1.8-0.2-2.8c-0.1-1-0.3-2-0.7-2.9
	c-0.3-0.8-0.7-1.5-1.3-2.1C872.3,693.9,871.5,693.6,870.7,693.6z"/>
<path class="st7" d="M883,717h-2.4l2.1-7.5h2.8L883,717z"/>
<path class="st7" d="M898.8,713h-2.9v-17.7l-4,3.3l-1.7-2l6-4.9h2.6L898.8,713z"/>
<path class="st7" d="M913.6,706.8h-7v-2.3h7V706.8z"/>
<path class="st7" d="M923.8,691.2c1.2,0,2.3,0.3,3.3,0.9c0.9,0.6,1.7,1.4,2.2,2.3c0.6,1.1,1.1,2.3,1.3,3.6c0.3,1.4,0.4,2.9,0.4,4.3
	c0,1.5-0.1,3-0.4,4.4c-0.2,1.2-0.7,2.4-1.3,3.5c-0.5,1-1.2,1.8-2.2,2.4c-1,0.6-2.1,0.9-3.3,0.9s-2.3-0.3-3.3-0.9
	c-1-0.6-1.7-1.4-2.2-2.4c-0.6-1.1-1.1-2.3-1.3-3.5c-0.3-1.4-0.4-2.9-0.4-4.4c0-1.4,0.1-2.9,0.4-4.3c0.2-1.3,0.7-2.5,1.3-3.6
	c0.5-0.9,1.3-1.7,2.2-2.3C921.5,691.5,922.7,691.2,923.8,691.2z M923.8,693.6c-0.8,0-1.6,0.3-2.1,0.9c-0.6,0.6-1.1,1.3-1.4,2.1
	c-0.3,0.9-0.5,1.9-0.6,2.9s-0.2,1.9-0.2,2.8s0.1,1.9,0.2,2.9c0.1,1,0.3,1.9,0.6,2.8c0.3,0.8,0.8,1.6,1.4,2.2c1.2,1,3,1,4.2,0
	c0.6-0.6,1-1.4,1.3-2.2c0.4-0.9,0.6-1.8,0.7-2.8c0.1-1,0.2-2,0.2-2.9s-0.1-1.8-0.2-2.8c-0.1-1-0.3-2-0.7-2.9
	c-0.3-0.8-0.7-1.5-1.3-2.1C925.4,693.9,924.6,693.6,923.8,693.6z"/>
<path class="st7" d="M936.1,717h-2.4l2.1-7.5h2.8L936.1,717z"/>
<path class="st7" d="M955.2,694.3h-8.7l-0.2,5.6c0.4-0.2,0.8-0.3,1.3-0.3h1.4c0.9,0,1.9,0.1,2.8,0.4c0.9,0.3,1.7,0.8,2.3,1.4
	c0.6,0.6,1.1,1.3,1.5,2.1c0.3,0.9,0.5,1.8,0.5,2.8s-0.2,2-0.5,3c-0.4,0.9-0.9,1.7-1.6,2.3c-0.7,0.6-1.5,1.1-2.3,1.5
	c-1,0.3-2,0.5-3,0.5c-1.5,0-3-0.4-4.2-1.2c-1.1-0.8-2-1.8-2.6-3.1l2.7-1c0.3,0.9,0.8,1.6,1.6,2.1c0.7,0.5,1.6,0.7,2.5,0.7
	c0.6,0,1.2-0.1,1.8-0.3c0.5-0.2,1-0.5,1.4-0.9s0.7-0.9,0.9-1.5s0.4-1.2,0.4-1.8c0-0.7-0.2-1.4-0.5-2.1c-0.2-0.6-0.6-1.1-1-1.5
	l-1.6-0.8c-0.6-0.2-1.3-0.3-1.9-0.3c-0.8,0-1.7,0.1-2.5,0.4l-2.2,0.8l0.3-11.3h11.4L955.2,694.3z"/>
<path class="st7" d="M968.3,698.7h2.8v7.6c0,1.7,0.2,2.9,0.8,3.6c0.7,0.8,1.7,1.2,2.7,1.1c1.1,0,2.1-0.5,2.8-1.3
	c0.8-1.1,1.2-2.4,1.1-3.8v-7.2h2.8v12.7c0.1,0.5,0.1,1.1,0.1,1.6h-2.8v-2.2l0,0c-0.4,0.7-1,1.3-1.6,1.8c-0.7,0.5-1.5,0.7-2.3,0.7
	s-1.7-0.2-2.4-0.6c-0.5-0.5-0.9-1.1-1.1-1.8h-0.1v9.3h-2.7L968.3,698.7z"/>
<path class="st7" d="M990.8,699.1c0.8-0.5,1.8-0.7,2.8-0.7c0.9,0,1.8,0.2,2.6,0.6c0.8,0.5,1.5,1.3,1.8,2.2c0.5-0.9,1.2-1.6,2-2.1
	c0.9-0.5,1.8-0.7,2.8-0.7c0.8,0,1.6,0.1,2.4,0.4c0.7,0.3,1.3,0.7,1.7,1.3c0.4,0.5,0.7,1.1,0.9,1.8s0.3,1.5,0.3,2.2v8.9h-2.8v-7.9
	c0-0.6,0-1.1-0.1-1.7c-0.1-0.5-0.3-1-0.5-1.4c-0.3-0.4-0.6-0.7-1-0.9c-0.4-0.3-1-0.4-1.5-0.4c-0.6,0-1.2,0.2-1.7,0.4
	c-0.4,0.3-0.8,0.7-1.1,1.1c-0.3,0.4-0.5,0.9-0.6,1.4c-0.2,0.6-0.2,1.1-0.2,1.7v7.7h-2.8v-8.5c0-0.5-0.1-1-0.2-1.5
	c-0.1-0.4-0.3-0.8-0.5-1.2c-0.2-0.3-0.6-0.6-0.9-0.8c-0.4-0.2-0.9-0.3-1.4-0.3c-1-0.1-2,0.4-2.6,1.3c-0.8,1-1.2,2.2-1.1,3.4v7.6
	h-2.8v-12.7c0-0.6-0.1-1.1-0.1-1.6h2.7v1.3c0.1,0.4,0.1,0.7,0.1,1.1h0.1C989.5,700.3,990.1,699.6,990.8,699.1z"/>
</svg>
