<svg xmlns="http://www.w3.org/2000/svg" viewBox="0 0 780 932"><defs><style>.cls-2,.cls-3{fill:#86c8e4}.cls-3{stroke:#c3e3f2;stroke-miterlimit:10}</style></defs><g id="Layer_5" data-name="Layer 5"><path d="M151.4 777.7c.7-5.1 1.5-10.4 2.4-15.8 4.7-30.6 35.2-182.8 35.9-150.7.2 11.8 10 100.5 16.3 166.5h341.8c4.2-31.3 6.1-63.3 6.7-94.1 3.5-187 41.3 45.9 46.5 64.5 2.2 7.7 4.1 18.2 5.9 29.6h92.8a414 414 0 0 1-5.9-50.3c4.2-58.1-27.7-112.3-30-169.1-1.9-48.2-13.1-86-35.5-131.6-21.3-43.3-67.9-50.5-108.8-56.8-34.5-5.3-46.5-9.3-70.3-39-2.3-2.9-6.5-19.1-8.2-27.4h.4s-11.1-45.5 4.6-65.7c0 0 75.5-55.9 55.7-137.8-16.7-69.4-82.4-90.4-124-90.4s-107.7 32-88.4 69.7c0 0-6.3 20.3-11.5 28.7s-12.4 26.5-6.5 34.3c0 0-10.8 14-19.7 19.7a33.3 33.3 0 0 0-8.6 6.8c-2.4 2.5-7.8 13 .7 17 1.9.8 6.5 3.4 9.9 3.7 0 0 6.4 8.1 2.3 12.4a9 9 0 0 0-2.5 4.8c-1.2 5.5 2.2 12 8.7 14.1l-1.8 1.6c-3.5 3.7-10.3 12.5-.2 18.5a14.4 14.4 0 0 1 1.8 14c-3.1 8.1 1.7 21.5 23.7 23.2 16.6 1.3 29.2 3.5 33.8 15.2.3 5.1.4 9.8.3 14a1.1 1.1 0 0 0-.1.5h.1c-1.6 56-38.4 45.4-86.5 56.9-108.6 26.1-125.1 98.2-135.3 204.9-3.2 33.4-17.3 64.6-22.9 97.7-6 36.2-10.1 78.5-15.2 110.4Z" style="fill:#c3e3f2"/><path d="M390.5 275.9c.7 18.5.1 50.5 0 72.8-.1 26.7 3.2 43.6-8.5 45.8-5.2.9-12.3-.8-15.2-5.2s1.2-44.8 1.5-58.8-.2-31.5-.5-46.2-5.3-35.2-15.7-45.5c-8.5-8.5-25.6-10.8-37.6-12-14.3-1.5-31.3-1.8-39.5 1.5l-19.2 7.5c-4.3-6.4 6.4-15 6.4-15-5.8-1.8-9.8-8.1-8.8-12.9 3.2-.3 7.9.8 11.3 1.1 13.6 1.4 27.1 3.1 40.6 5.3 5.5.9 11.3 1.9 16.4-.1s9.3-8 7.1-13.1-7.4-6-12.2-6.9c-23.6-4.3-40.7-8.3-64.7-7.1-8.1 0-13.5-2.7-12.6-9.9 21.7 3.5 49-1.3 70.9.4s47.4 8.9 61.3 27.3 18.1 46.5 19 71" class="cls-2"/><path d="M348.9 482.7a27 27 0 0 0 8.8-3.3c-1.2-16.1-5.1-31.9-14.9-44.6-30.8-39.9-80.4 22.5-90.8 49.1-4.4 11.6-7.9 23.4-12.5 34.8-5.2 13-10.9 25.8-15.5 39-9 25.9-11.3 54.1-13.8 81.3-1.1 12.4-2.1 25-.6 37.3a20.9 20.9 0 0 0 9.7 10.6c18.8 10.3 43.2 7.2 63.4 4 23.9-3.8 54.8-7.7 69.8-29.8 9.2-13.4 10.2-29.5 9.9-45.5-.2-1.1-.3-2.2-.4-3.3-3.4-33.1-6.3-65.1-4.5-98.4.2-3 .4-6 .5-9.1h-.5c-6.1-4.2-8.8-13.7-8.6-22.1Zm-20.5 129a.7.7 0 1 1-1.3-.5c2.7-7.5 1.9-14-2.3-20.5a13.7 13.7 0 0 1-1.3-2c-3.5 8.7-7.9 16.8-12.1 25.1 1.8 4.2 5 7.4 5.8 11.9a30.2 30.2 0 0 1 .2 11.6c-.2.9-1.6.9-1.4-.1.9-4.8.8-11.2-2.2-15.3a30.8 30.8 0 0 1-3.7-5.2l-1.7 3.3c-3.7 8.1-3.5 16.3-1.5 24.8.8 3.6 1.3 6.6 0 10.1-.4.9-2 .7-1.6-.4 1.9-6-2.3-15.1-2.8-21.5a29.7 29.7 0 0 1 2.4-14.4c3.3-7.7 7.3-15 10.7-22.6s8.4-16.1 7.6-24.4c-.5-6.1-3.1-11.8-5.7-17.5a21.6 21.6 0 0 1 .2 6.7c-.7 3.3-3.1 5.5-3.7 8.9-.1.5-1 .7-1 .1-.2-3 1.3-4.9 2.6-7.4s1-6.6.6-10a.5.5 0 0 1 .3-.5c-2.9-6.4-5.6-12.9-4.9-20a37 37 0 0 1 4-13.6 2.7 2.7 0 0 1-2.3-1.4c-3 2.1-6 4.2-7.9 7.2-5 8-5.9 16.3-6.2 25.4a38.7 38.7 0 0 1-1.9 11.7c.3 5.2 4.8 8.7 5.8 14.1.6 3.7.7 7.1-.9 10.6-.4.8-1.7.5-1.3-.5 2.8-6.7-.7-12.2-4.1-17.6a9.4 9.4 0 0 1-1.3-2.4 26.8 26.8 0 0 1-7.3 8.3c-4 3-5.7 7-8.2 10.8-.6 3.7 1.9 5.9 1.7 9.5a34.3 34.3 0 0 1-1.8 8.9c-2.2 6.6-5.6 12.4-11.1 16.7-1 .7-1.7-.6-.8-1.3a32.3 32.3 0 0 0 11.2-20.7c.5-4.1-1.4-6.8-1.7-10.2-2.5 2.4-6.6 3.6-9.7 4.6-8.7 3.1-15.3 7.3-16.8 17.6a51.4 51.4 0 0 0 .6 20.3c.1.8-1.1 1.5-1.4.6-2.3-8.2-4.2-23.8 1.5-31.1a30.8 30.8 0 0 1 7.9-7l-2.4-.4c-3.4-.8-6.4-3.1-10.1-1.8s-6.3 4-8.6 7.1c-.6.9-1.6 0-1-.9 3.1-4.5 6.9-8 12.4-8.6 2.4-.2 4.2 1.4 6.4 1.9a20.8 20.8 0 0 0 10.2-.6c4.2-1.5 9.8-3.4 11.4-7.4.7-1.6 1.3-3.6 2.4-4.9s4.3-3.7 6.5-5.3c6-4.7 9.4-10.5 9.6-18.5a10.9 10.9 0 0 1-8.8 3.2c-4-.3-9.4-.3-12.6 2.6s-4.3 4.3-6.4 6.5a.4.4 0 0 1-.5-.5c3.4-3.9 6.1-8.5 11.3-9.7a25.2 25.2 0 0 1 7.1-.9c4.3.1 6.8-1.1 9.9-3.4.1-6 .1-12 1.9-17.7 2.9-9.3 8-13.9 14.4-19-2.9 1.1-6.3 1.2-9.9 1.1a65.2 65.2 0 0 0-13.3.6l-.2.2c-4 2.2-4.5 9-5.8 14.4a33 33 0 0 1 1.4 5.4c.3 1.7-.2 3.5-.4 5.2s-.9.8-.9.1c-.1-2.4 0-4.4-1-6.7-.1-.2-.1-.4-.2-.6a12 12 0 0 1-.5 1.1 91 91 0 0 1-9.3 13.6c-.6.8-1.6 0-1.1-.8 5.8-8.3 10.8-15.1 11.4-25.5a9 9 0 0 1 1.8-5.1 28 28 0 0 0-3.6 1.6c-7.2 4-10.8 9.6-15.5 15.9-.7 1-1.9 0-1.2-.9 1.9-2.6 3.8-5.2 5.7-7.6a8 8 0 0 1-2.8.3 16.6 16.6 0 0 0-13.4 6.6 155 155 0 0 0-12.5 18.6c-.5.9-1.8.5-1.3-.5 4.1-7.3 8.2-14.3 13.7-20.6a16 16 0 0 1 7-4.8c3.4-1.1 7.4-.6 10.6-1.8.3-.1.4 0 .6 0 3.8-4.2 8.1-7.7 14.3-9.3 8.3-2.2 17.8 0 25.5-3.2a8.3 8.3 0 0 0-2.6-4.7c-3.3-2.8-6.3-8.3-10.7-8.7a40 40 0 0 1-7.6-1h-.1c-6.3 6-15.7 9.3-24 5.5-.5-.2 0-1 .4-.8 4.5 1.8 11.9 1.2 15.8-1.5a31 31 0 0 1 5.9-3.8 14.7 14.7 0 0 1-7.1-6.2c-.2-.4.4-1 .8-.6 3.9 5.5 8.4 6.2 14.6 6.4a16.5 16.5 0 0 1 4.9.6c-.9-1.6-1.9-3.1-2.7-4.7-1.9-3.3-1.4-7.4-2.4-11-1.9-6.7-5.7-11.6-10.5-16.4-.4-.4.2-1.1.6-.8 5.7 5.3 10.8 11.2 12.1 19.2a19.4 19.4 0 0 0 .7 3.3 22.4 22.4 0 0 1 1.4-7.1c3.4-8.6 7.4-15 6.9-24.8 0-.3.4-.5.5-.1.7 5.5.7 11.1-1.9 16.2-3.2 6.7-5.8 12.4-5.5 19.8a45.8 45.8 0 0 0 7.4 12.1l3.6 3.5 1.5 1a27.5 27.5 0 0 0 2-3.8 19 19 0 0 0 7 10.4l-1.3 1.1c-2.4 3.6-4.7 7.4-5.5 11.6a30 30 0 0 0-.4 8.4c1.7 4.7 8.9 2.8 11.6 6.7.4.7-.5 2-1.3 1.6a24.3 24.3 0 0 0-3.5-2 29 29 0 0 1-4.1-1.6 8.9 8.9 0 0 1-2.2-1.6 58.4 58.4 0 0 0 5.1 13.9c5.1 10.2 8.4 19.7 4.6 31.1a28 28 0 0 1-1 2.6c1.6 4.4 5.1 8.1 5.8 12.9a25.1 25.1 0 0 1-2.2 13.6Zm2.4-103.7a38.4 38.4 0 0 0-5 3.2c-4.4-2.9-7-7.8-7.6-13.4a11 11 0 0 1 1.9-2.5 34.2 34.2 0 0 1 6.7-5.9l.9-.7c1.5 7 4.5 13.6 9.5 18-3 .3-5.4.7-6.4 1.3Zm12.2-1.8c-7-3.8-10.7-11.6-12.4-19.7a20.2 20.2 0 0 1 13.5-3.5h1.7c-.3 8.1 1.8 17 6.7 22.5ZM546.6 639c-2.5-27.2-4.7-55.4-13.8-81.3-4.6-13.2-10.2-26-15.4-39-4.6-11.4-8.2-23.2-12.6-34.8-10.3-26.6-59.9-89-90.7-49.1-9.9 12.7-13.7 28.5-15 44.7a25.8 25.8 0 0 0 12.2 3.5c-.3 7.6-2.8 17.3-7.4 22.4l-5-.6c.1 3.1.2 6.1.4 9.1 1.8 33.3-1.1 65.3-4.5 98.4l-.3 3.3c-.4 16 .6 32.1 9.8 45.5 15 22.1 45.9 26 69.8 29.8 20.3 3.2 44.7 6.3 63.4-4a20.9 20.9 0 0 0 9.7-10.6c1.6-12.3.5-24.9-.6-37.3ZM436.8 495.3c2.1 2.3 3.1 5.2 4.4 8a26.3 26.3 0 0 1-5.8 11.4c0-.1 0-.1-.1-.1a62.7 62.7 0 0 0-8.3-6 30 30 0 0 0 6.3-16.6 36 36 0 0 1 3.5 3.3Zm-29.5 10.4c4.4-6 6.9-15.1 7.2-22.8 6.1 0 11.2 2.6 15.5 6.5a.1.1 0 0 0 .1.1c.3 6.1-1.7 13.4-5.6 18-3.5-.9-10.6-1.2-17.2-1.8Zm111 91.6c-2.3-3.1-4.8-5.9-8.6-7.1s-6.6 1-10 1.8l-2.5.4a30.8 30.8 0 0 1 7.9 7c5.7 7.3 3.8 22.9 1.5 31.1-.3.9-1.5.2-1.3-.6a53.3 53.3 0 0 0 .6-20.3c-1.5-10.3-8.1-14.5-16.9-17.6-3-1-7.2-2.2-9.6-4.6-.4 3.4-2.2 6.1-1.7 10.2a31.5 31.5 0 0 0 11.2 20.7c.8.7.1 2-.9 1.3-5.5-4.3-8.8-10.1-11.1-16.7a30.5 30.5 0 0 1-1.7-8.9c-.2-3.6 2.2-5.8 1.7-9.5-2.6-3.8-4.2-7.8-8.2-10.8a26 26 0 0 1-7.4-8.3 13.4 13.4 0 0 1-1.2 2.4c-3.4 5.4-6.9 10.9-4.2 17.6.4 1-.8 1.3-1.2.5-1.6-3.5-1.6-6.9-.9-10.6.9-5.4 5.4-8.9 5.7-14.1a42.1 42.1 0 0 1-1.9-11.7c-.3-9.1-1.1-17.4-6.2-25.4-1.9-3-4.8-5.1-7.8-7.2a2.9 2.9 0 0 1-2.4 1.4 39.1 39.1 0 0 1 4.1 13.6c.6 7.1-2 13.6-5 20 .2.1.4.3.3.5-.4 3.4-1.1 6.8.6 10s2.8 4.4 2.7 7.4c-.1.6-1 .4-1.1-.1-.6-3.4-2.9-5.6-3.6-8.9a18.9 18.9 0 0 1 .1-6.7c-2.6 5.7-5.2 11.4-5.7 17.5-.8 8.3 4.4 17 7.6 24.4s7.5 14.9 10.8 22.6a28.5 28.5 0 0 1 2.3 14.4c-.4 6.4-4.7 15.5-2.7 21.5.3 1.1-1.3 1.3-1.7.4-1.3-3.5-.8-6.5 0-10.1 2-8.5 2.2-16.7-1.5-24.8l-1.6-3.3a26.6 26.6 0 0 1-3.8 5.2c-3 4.1-3 10.5-2.2 15.3.2 1-1.2 1-1.4.1a32.3 32.3 0 0 1 .2-11.6c.8-4.5 4.1-7.7 5.8-11.9-4.2-8.3-8.6-16.4-12.1-25.1l-1.2 2c-4.2 6.5-5 13-2.4 20.5a.7.7 0 1 1-1.3.5 26.1 26.1 0 0 1-2.2-13.5c.8-4.8 4.3-8.5 5.8-12.9-.3-.9-.7-1.7-1-2.6-3.8-11.4-.4-20.9 4.6-31.1a54.4 54.4 0 0 0 5.1-13.9 7.3 7.3 0 0 1-2.2 1.6 33 33 0 0 1-4 1.6 21 21 0 0 0-3.6 2c-.8.4-1.7-.9-1.2-1.6 2.6-3.9 9.9-2 11.5-6.7a26.7 26.7 0 0 0-.4-8.4 25.5 25.5 0 0 0-3.8-9 30.6 30.6 0 0 0 6.2-10.4l1.3-.9h.1c1.1-1.2 2.3-2.3 3.5-3.5a43.3 43.3 0 0 0 7.4-12.1c.4-7.4-2.3-13.1-5.5-19.8-2.5-5.1-2.5-10.7-1.8-16.2 0-.4.5-.2.5.1-.6 9.8 3.4 16.2 6.8 24.8a22.4 22.4 0 0 1 1.4 7.1c.3-1.1.6-2.2.8-3.3 1.2-8 6.3-13.9 12-19.2.4-.3 1 .4.6.8-4.7 4.8-8.6 9.7-10.5 16.4-1 3.6-.5 7.7-2.4 11-.8 1.6-1.7 3.1-2.7 4.7a17.3 17.3 0 0 1 4.9-.6c6.2-.2 10.8-.9 14.7-6.4.3-.4 1 .2.7.6a14.3 14.3 0 0 1-7.1 6.2 32 32 0 0 1 6 3.8c3.8 2.7 11.3 3.3 15.7 1.5.5-.2.9.6.4.8-8.2 3.8-17.7.5-24-5.5a42.4 42.4 0 0 1-7.6 1c-4.5.4-7.5 5.9-10.8 8.7a8.3 8.3 0 0 0-2.6 4.7c7.8 3.2 17.2 1 25.6 3.2 6.1 1.6 10.5 5.1 14.3 9.3.1 0 .3-.1.5 0 3.2 1.2 7.2.7 10.6 1.8a15.5 15.5 0 0 1 7 4.8c5.5 6.3 9.7 13.3 13.7 20.6.6 1-.8 1.4-1.3.5A154 154 0 0 0 503 533a16.8 16.8 0 0 0-13.5-6.6 8 8 0 0 1-2.8-.3c1.9 2.4 3.8 5 5.7 7.6.7.9-.5 1.9-1.2.9-4.7-6.3-8.3-11.9-15.5-15.9a28 28 0 0 0-3.6-1.6 9 9 0 0 1 1.8 5.1c.7 10.4 5.7 17.2 11.4 25.5.6.8-.4 1.6-1.1.8a99 99 0 0 1-9.3-13.6 3.6 3.6 0 0 1-.4-1.1l-.3.6c-1 2.3-.8 4.3-.9 6.7-.1.7-.9.4-1-.1s-.6-3.5-.4-5.2a33 33 0 0 1 1.5-5.4c-1.3-5.4-1.9-12.2-5.9-14.4 0-.1-.1-.1-.1-.2a66.2 66.2 0 0 0-13.4-.6c-3.6.1-6.9 0-9.8-1.1 6.3 5.1 11.4 9.7 14.4 19 1.8 5.7 1.7 11.7 1.8 17.7 3.2 2.3 5.7 3.5 9.9 3.4a24.3 24.3 0 0 1 7.1.9c5.2 1.2 8 5.8 11.3 9.7.3.3-.1.8-.4.5-2.2-2.2-4.3-4.5-6.5-6.5s-8.6-2.9-12.5-2.6a10.8 10.8 0 0 1-8.8-3.2c.2 8 3.6 13.8 9.5 18.5 2.2 1.6 4.9 3.1 6.6 5.3a20 20 0 0 1 2.3 4.9c1.7 4 7.2 5.9 11.5 7.4a20.3 20.3 0 0 0 10.1.6c2.2-.5 4-2.1 6.4-1.9 5.6.6 9.4 4.1 12.5 8.6.6.9-.5 1.8-1.1.9Z" class="cls-3"/><path d="M391.1 414.9v-18.6c-8.1 3.9-18.9 5.4-25.5.8v17.1c6 5.8 18.1 5.3 25.5.7" class="cls-2"/><path d="M391.1 392.9v-19.4c-8.1 3.9-18.7 5.4-25.5 1.3v17.3c5.5 6.4 17.4 4.9 25.5.8M391.1 436.9v-18.7c-7.6 4.3-18.6 5.3-25.5.8v17.1c6.4 6.3 17.7 5.6 25.5.8" class="cls-2"/><path d="M391.1 455.3v-15.1c-7.9 4.5-18.4 5.6-25.5.8v12.9c6.1 4.8 19.2 5.7 25.5 1.4" class="cls-2"/><path d="m391.7 472.5-.6-.9v-12.9c-7 3.9-18.5 3.7-25.5-.2v13.4l-.7.9h.3c7.9 4.2 18.8 4.8 26.5-.3" class="cls-2"/><path d="M364.7 476.7c.4 9.5 2 19.4 7.6 26.6h13.5a92.9 92.9 0 0 0 7-28c-8.2 5.5-19.2 5.4-28.1 1.4M399.1 479.5a21 21 0 0 1-3.4-2.4 95.3 95.3 0 0 1-6.8 26.3l5.3.2a17.5 17.5 0 0 0 4.7 1.2 214 214 0 0 1 .2-25.3M357.7 479.4a216 216 0 0 1 .3 25.4 16.6 16.6 0 0 0 4.6-1.2l5.4-.2c-4.7-7.6-6.1-17.3-6.5-26.6a17 17 0 0 1-3.8 2.6" class="cls-2"/></g></svg>