<svg id="Layer_11" data-name="Layer 11" xmlns="http://www.w3.org/2000/svg" viewBox="0 0 391 919"><defs><style>.cls-1{fill:#c3e3f2;}.cls-2{fill:#fff;}</style></defs><g id="icons"><path class="cls-1" d="M302,661.5a14.6,14.6,0,0,0-20.5,0h0A14.6,14.6,0,0,0,302,682.2h0a14.4,14.4,0,0,0,0-20.5h0m-10.2-15.9a26.1,26.1,0,0,1,25.9,26.3,25.6,25.6,0,0,1-7.5,18.1h0a26.1,26.1,0,0,1-38-35.8l1.1-1.1h0a26,26,0,0,1,18.5-7.6Zm-59.1,43.9a14.3,14.3,0,0,0-8.8,6.8h0a14.4,14.4,0,0,0,16.3,21.2,14.4,14.4,0,0,0,8.9-6.7h0a14.5,14.5,0,0,0-5.4-19.8h0A14.1,14.1,0,0,0,232.7,689.7Zm-18.9.9a26.2,26.2,0,0,1,35.7-9.6h0l.8.4h0a25.9,25.9,0,0,1,8.7,35.1l-.4.8h0a26.1,26.1,0,0,1-44.8-26.7Zm8.7,73.2a14.1,14.1,0,0,0,1.4,11h0a14.4,14.4,0,0,0,19.8,5.3h0a14.5,14.5,0,0,0,5.3-19.8h0a14.5,14.5,0,0,0-19.8-5.3,14.7,14.7,0,0,0-6.8,8.8Zm-8.7,16.8A26.1,26.1,0,0,1,259,754.5h0a26,26,0,0,1-9.7,35.5h0a26,26,0,0,1-35.6-9.6Zm67.8,29a14.3,14.3,0,0,0,20.4,0h.1a14.5,14.5,0,1,0-20.6-20.5h0a14.5,14.5,0,0,0,0,20.4h.1Zm10.2,15.9a26.1,26.1,0,0,1-18.4-7.7h0a26.1,26.1,0,0,1,0-36.9h0a26.1,26.1,0,0,1,36.8,37h0a25.6,25.6,0,0,1-18.4,7.7Zm59-43.9a14.4,14.4,0,0,0,8.8-6.8h0a14.5,14.5,0,0,0-25.1-14.5h0a14.5,14.5,0,0,0,5.3,19.8h0A14.6,14.6,0,0,0,350.8,781.6Zm18.9-1a26.1,26.1,0,0,1-35.5,9.7l-.8-.5h0a25.9,25.9,0,0,1-8.7-35.1l.4-.8h0a26.1,26.1,0,0,1,44.8,26.7Zm-8.6-73.1a14.1,14.1,0,0,0-1.5-11h0a14.5,14.5,0,0,0-19.8-5.4h0a14.2,14.2,0,0,0-6.7,8.8,14.8,14.8,0,0,0,1.4,11.1h0a14.9,14.9,0,0,0,19.9,5.3A14.5,14.5,0,0,0,361.1,707.5Zm8.6-16.9A26.1,26.1,0,1,1,326,719.3l-1.5-2.5h0a26.2,26.2,0,0,1,9.6-35.7h.1a26.1,26.1,0,0,1,35.7,9.7h0ZM302,725.4a14.5,14.5,0,0,0-20.5-.1h-.1A14.5,14.5,0,0,0,302,745.9h0a14.5,14.5,0,0,0,0-20.5Zm-10.3-15.9a26.1,26.1,0,0,1,18.5,44.6h0a26.1,26.1,0,0,1-38-35.8,11.4,11.4,0,0,1,1.1-1.1h0a26.1,26.1,0,0,1,18.5-7.7Z"/></g><path class="cls-2" d="M261.2,870.5a9.6,9.6,0,0,1-1.1,4.7,8.4,8.4,0,0,1-2.8,3.1,12.1,12.1,0,0,1-4,1.7,19.1,19.1,0,0,1-4.8.5h-3.8v12.1H237V860.7h11.7a19.4,19.4,0,0,1,4.9.5,11.4,11.4,0,0,1,3.9,1.6,7.4,7.4,0,0,1,2.7,3.1A10.4,10.4,0,0,1,261.2,870.5Zm-7.7,0a3.5,3.5,0,0,0-.5-1.8,2.5,2.5,0,0,0-1.2-1.1,4.9,4.9,0,0,0-1.7-.6h-5.4v7.5h3.2l2.1-.2a5.5,5.5,0,0,0,1.8-.6,3.4,3.4,0,0,0,1.2-1.2A3.6,3.6,0,0,0,253.5,870.5Z"/><path class="cls-2" d="M294.8,892.6,295,870h-.1l-8.3,22.6h-5.4L273.1,870H273l.2,22.6h-7.3V860.7h11l7.2,20.4h.2l7-20.4h11.1v31.9Z"/><path class="cls-2" d="M314.8,884.4l-3.9,2.9-3.5-4.5,7.9-5.8h6.1v22.1h-6.6Z"/><path class="cls-2" d="M337.9,899.8a8.2,8.2,0,0,1-4.2-1,9.1,9.1,0,0,1-3-2.5,12.1,12.1,0,0,1-1.8-3.8,17.2,17.2,0,0,1,0-9,11.6,11.6,0,0,1,1.8-3.7,9.1,9.1,0,0,1,3-2.5,10.2,10.2,0,0,1,8.4,0,9.1,9.1,0,0,1,3,2.5,11.6,11.6,0,0,1,1.8,3.7,17.2,17.2,0,0,1,0,9,12.1,12.1,0,0,1-1.8,3.8,9.1,9.1,0,0,1-3,2.5A8.2,8.2,0,0,1,337.9,899.8Zm0-17.7a2.5,2.5,0,0,0-2.2,1.7,10.2,10.2,0,0,0-.7,4.2,10.8,10.8,0,0,0,.7,4.3,2.3,2.3,0,0,0,4.4,0,10.8,10.8,0,0,0,.7-4.3,10.2,10.2,0,0,0-.7-4.2A2.4,2.4,0,0,0,337.9,882.1Z"/><path class="cls-1" d="M25.8,391a8.8,8.8,0,0,0,12.3,0h0a8.7,8.7,0,0,0-12.3-12.3h0a8.6,8.6,0,0,0,0,12.2h0Zm6.2,9.4a15.4,15.4,0,0,1-11-4.5h0a15.6,15.6,0,0,1,0-22.1h0a15.6,15.6,0,0,1,22,22.1h0a15.5,15.5,0,0,1-11.1,4.6Zm35.2-26.2a8.9,8.9,0,0,0,5.3-4h0a8.7,8.7,0,0,0-3.8-11.7,8.5,8.5,0,0,0-11.2,3h0a8.6,8.6,0,0,0,3.1,11.8h0A8.5,8.5,0,0,0,67.2,374.2Zm11.3-.5a15.5,15.5,0,0,1-21.2,5.7l-.5-.2h0a15.6,15.6,0,0,1-5.2-21l.2-.5h0a15.6,15.6,0,0,1,26.8,16Z"/><path class="cls-1" d="M92,391a8.8,8.8,0,0,0,12.3,0h0A8.7,8.7,0,0,0,92,378.7h0a8.6,8.6,0,0,0,0,12.2h0Zm6.1,9.4a15.8,15.8,0,0,1-11-4.5h0a15.6,15.6,0,0,1,0-22.1h0a15.6,15.6,0,0,1,22,22.1h0a15.3,15.3,0,0,1-11,4.6Zm35.3-26.2a8.9,8.9,0,0,0,5.3-4h0a8.7,8.7,0,0,0-15.1-8.7h0a8.8,8.8,0,0,0,3.2,11.8h0A8.5,8.5,0,0,0,133.4,374.2Zm11.2-.5a15.4,15.4,0,0,1-21.1,5.7l-.5-.2h0a15.6,15.6,0,0,1-5.2-21l.2-.5h0a15.6,15.6,0,0,1,26.8,16Zm-40.4-33a8.7,8.7,0,0,0-12.2-.1h-.1a8.7,8.7,0,0,0,12.3,12.2h0a8.6,8.6,0,0,0,0-12.2Zm-6.1-9.5a15.6,15.6,0,0,1,15.6,15.6,15.3,15.3,0,0,1-4.6,11h0a15.6,15.6,0,1,1-22.7-21.4,4.6,4.6,0,0,0,.7-.7h0a15.6,15.6,0,0,1,11-4.5Z"/><path class="cls-1" d="M38.1,454.2a8.7,8.7,0,0,0-12.3,0h0a8.7,8.7,0,1,0,12.3,12.3h0a8.8,8.8,0,0,0,0-12.2h0m-6.2-9.5A15.6,15.6,0,0,1,43,471.3h0a15.6,15.6,0,1,1-22.7-21.4l.6-.6h0a15.7,15.7,0,0,1,11-4.6Zm41.4,36.8a8.9,8.9,0,0,0-.8-6.6h0a8.7,8.7,0,0,0-11.9-3.1h0a8.6,8.6,0,0,0-3.1,11.8h0a8.4,8.4,0,0,0,5.2,4,8.9,8.9,0,0,0,6.6-.8A8.5,8.5,0,0,0,73.3,481.6Zm5.2-10a15.6,15.6,0,0,1-26.1,17.1l-.9-1.5h0a15.6,15.6,0,0,1,5.7-21.3h.1a15.6,15.6,0,0,1,21.3,5.7h-.1Z"/><path class="cls-1" d="M67.2,450.1a9,9,0,0,0,5.3-4.1h0a8.7,8.7,0,0,0-15-8.7h0a8.7,8.7,0,0,0,3.1,11.9h0A9.5,9.5,0,0,0,67.2,450.1Zm11.3-.6a15.7,15.7,0,0,1-21.2,5.8l-.5-.3h0a15.6,15.6,0,0,1-5.2-21l.2-.5h0a15.6,15.6,0,0,1,26.8,16Zm-5.2-43.7a8.9,8.9,0,0,0-.8-6.6h0A8.8,8.8,0,0,0,60.6,396h0a8.9,8.9,0,0,0-4,5.3,8.5,8.5,0,0,0,.9,6.6h0a8.4,8.4,0,0,0,5.2,4,8.9,8.9,0,0,0,6.6-.8A8.5,8.5,0,0,0,73.3,405.8Zm5.2-10.1a15.6,15.6,0,1,1-26.1,17.2l-.9-1.6h0a15.5,15.5,0,0,1,5.7-21.2h.1a15.7,15.7,0,0,1,21.3,5.8h-.1ZM38,416.5a8.6,8.6,0,0,0-12.2,0h0A8.7,8.7,0,0,0,38,428.8h0a8.8,8.8,0,0,0,.1-12.3ZM31.9,407A15.6,15.6,0,0,1,43,433.6h0a15.6,15.6,0,1,1-22.7-21.4l.6-.6h0a15.7,15.7,0,0,1,11-4.6Z"/><path class="cls-1" d="M104.2,454.2a8.6,8.6,0,0,0-12.2,0h0a8.8,8.8,0,0,0-.1,12.3,8.7,8.7,0,0,0,12.3,0h0a8.7,8.7,0,0,0,.1-12.2h-.1m-6.1-9.5a15.6,15.6,0,0,1,15.5,15.7,15.3,15.3,0,0,1-4.5,10.8h0a15.6,15.6,0,1,1-22.7-21.4l.7-.6h0a15.7,15.7,0,0,1,11-4.6Zm41.4,36.8a8.9,8.9,0,0,0-.8-6.6h0a8.7,8.7,0,0,0-11.9-3.1h0a8.4,8.4,0,0,0-4,5.2,8.9,8.9,0,0,0,.8,6.6h0a8.6,8.6,0,0,0,15.9-2.1Zm5.1-10a15.6,15.6,0,1,1-26,17.1,6,6,0,0,1-.9-1.5h0a15.6,15.6,0,0,1,5.7-21.3h.1a15.7,15.7,0,0,1,21.3,5.7h-.2Zm-40.4,20.7a8.6,8.6,0,0,0-12.2,0h-.1a8.9,8.9,0,0,0,0,12.3,8.7,8.7,0,0,0,12.3,0h0a8.6,8.6,0,0,0,0-12.2Zm-6.1-9.5a15.6,15.6,0,0,1,11,26.7h0a15.6,15.6,0,0,1-22.7-21.4,4.6,4.6,0,0,1,.7-.7h0a15.7,15.7,0,0,1,11-4.6Z"/><path class="cls-1" d="M133.4,450.1a9,9,0,0,0,5.3-4.1h0a8.7,8.7,0,0,0-3.8-11.7,8.8,8.8,0,0,0-11.3,3h0a8.9,8.9,0,0,0,3.2,11.9h0A9.5,9.5,0,0,0,133.4,450.1Zm11.2-.6a15.5,15.5,0,0,1-21.1,5.8l-.5-.3h0a15.6,15.6,0,0,1-5.2-21l.2-.5h0a15.6,15.6,0,0,1,26.8,16Zm-5.1-43.7a8.9,8.9,0,0,0-.8-6.6h0a8.8,8.8,0,0,0-11.9-3.2h0a8.9,8.9,0,0,0-3.2,11.9h0a8.6,8.6,0,0,0,15.9-2.1Zm5.1-10.1a15.6,15.6,0,1,1-26,17.2,5.1,5.1,0,0,1-.9-1.6h0a15.5,15.5,0,0,1,5.7-21.2h.1a15.7,15.7,0,0,1,21.3,5.8h-.2Zm-40.4,20.8a8.6,8.6,0,0,0-12.2,0h-.1a8.7,8.7,0,0,0,12.3,12.3h0a8.7,8.7,0,0,0,0-12.3ZM98.1,407a15.6,15.6,0,0,1,15.6,15.6,15.3,15.3,0,0,1-4.6,11h0a15.6,15.6,0,1,1-22.7-21.4l.7-.6h0a15.7,15.7,0,0,1,11-4.6Z"/><path class="cls-1" d="M122.9,363.6a8.9,8.9,0,0,0,.8,6.6h0a8.8,8.8,0,0,0,11.9,3.2h0a8.9,8.9,0,0,0,3.2-11.9h0a8.8,8.8,0,0,0-11.9-3.2,8.9,8.9,0,0,0-4,5.3Zm-5.2,10a15.6,15.6,0,0,1,27-15.6h0a15.4,15.4,0,0,1-5.8,21.2h0a15.2,15.2,0,0,1-11.8,1.6,15.8,15.8,0,0,1-9.5-7.3ZM158.2,391a8.7,8.7,0,0,0,12.2,0h0a8.7,8.7,0,0,0,0-12.3,8.6,8.6,0,0,0-12.2,0h0a8.6,8.6,0,0,0,0,12.2h0Zm6.1,9.4a15.6,15.6,0,0,1-11-4.5h0a15.6,15.6,0,0,1,0-22.1h0a15.6,15.6,0,0,1,22,22.1h0a15.3,15.3,0,0,1-11,4.6Z"/><path class="cls-1" d="M170.4,454.2a8.6,8.6,0,0,0-12.2,0h0a8.7,8.7,0,1,0,12.2,12.3h0a8.6,8.6,0,0,0,0-12.2h0m-6.1-9.5a15.6,15.6,0,0,1,15.5,15.7,15.3,15.3,0,0,1-4.5,10.8h0a15.6,15.6,0,1,1-22.7-21.4l.7-.6h0a15.5,15.5,0,0,1,11-4.6ZM129,471a8.9,8.9,0,0,0-5.3,4h0a8.9,8.9,0,0,0,3.2,11.9,9.5,9.5,0,0,0,6.6.9,9,9,0,0,0,5.3-4.1h0a8.7,8.7,0,0,0-3.2-11.8h0A8.5,8.5,0,0,0,129,471Zm-11.3.6a15.6,15.6,0,0,1,21.3-5.8h0l.5.3h0a15.4,15.4,0,0,1,5.2,20.9l-.2.5h0a15.6,15.6,0,0,1-26.8-16h0Z"/><path class="cls-1" d="M129,395.2a8.9,8.9,0,0,0-5.3,4h0a8.7,8.7,0,0,0,15.1,8.7h0a8.7,8.7,0,0,0-3.2-11.8h0A8.5,8.5,0,0,0,129,395.2Zm-11.3.5A15.7,15.7,0,0,1,139,390h0l.5.2h0a15.5,15.5,0,0,1,5.2,21l-.2.5h0a15.6,15.6,0,0,1-26.8-16Zm5.2,43.7a8.9,8.9,0,0,0,.8,6.6h0a8.7,8.7,0,0,0,11.9,3.2h0a8.8,8.8,0,0,0,3.2-11.8h0a8.7,8.7,0,0,0-11.9-3.2,8.3,8.3,0,0,0-4,5.3Zm-5.2,10.1a15.6,15.6,0,0,1,27-15.6h0a15.5,15.5,0,0,1-5.8,21.2h0a15.2,15.2,0,0,1-11.8,1.5,15.7,15.7,0,0,1-9.5-7.2Zm52.7-33a8.7,8.7,0,0,0-12.3,0h0a8.7,8.7,0,0,0,0,12.3,8.9,8.9,0,0,0,12.3,0h0a8.7,8.7,0,0,0,0-12.3Zm-6.2-9.5a15.6,15.6,0,0,1,11.1,26.6h0a15.6,15.6,0,1,1-22.7-21.4l.7-.6h0a15.5,15.5,0,0,1,11-4.6Z"/><path class="cls-2" d="M59.6,564.5a9.3,9.3,0,0,1-1.1,4.7,7.6,7.6,0,0,1-2.8,3.1,10.3,10.3,0,0,1-4,1.7,18.6,18.6,0,0,1-4.8.6H43.1v12H35.4V554.7H47.1a25.4,25.4,0,0,1,4.9.5,13.1,13.1,0,0,1,4,1.7,7.6,7.6,0,0,1,2.6,3A9.2,9.2,0,0,1,59.6,564.5Zm-7.7.1a3.6,3.6,0,0,0-.5-1.9,3.2,3.2,0,0,0-1.2-1.1,4.9,4.9,0,0,0-1.7-.6H43.1v7.5h5.3a7.5,7.5,0,0,0,1.8-.7,3.5,3.5,0,0,0,1.7-3Z"/><path class="cls-2" d="M93.2,586.6l.2-22.6h-.1L85,586.6H79.6L71.5,564h-.1l.2,22.6H64.3V554.7h11l7.2,20.5h.2l7-20.5h11.1v31.9Z"/><path class="cls-2" d="M115.9,581a5,5,0,0,0,1.4-1.7,2.8,2.8,0,0,0,.4-1.5,1.7,1.7,0,0,0-.5-1.3,1.7,1.7,0,0,0-1.4-.6,2.5,2.5,0,0,0-1.6.6,5.1,5.1,0,0,0-.9,2.1l-6.2-.8a10,10,0,0,1,1-3.2,9.1,9.1,0,0,1,2.1-2.3,8.7,8.7,0,0,1,2.7-1.4,11.9,11.9,0,0,1,3.2-.5,10.6,10.6,0,0,1,3.1.4,8.4,8.4,0,0,1,2.7,1.3,5.8,5.8,0,0,1,2,2.1,6.6,6.6,0,0,1,.7,3,7,7,0,0,1-1,3.8,12.8,12.8,0,0,1-3,3.4l-4.2,3.5h8.3v5.3H107.5v-4.8Z"/><path class="cls-2" d="M137.8,589.7a3.8,3.8,0,0,1-1.2,2.8,3.9,3.9,0,0,1-2.7,1.1,4.1,4.1,0,0,1-1.6-.3,5.7,5.7,0,0,1-1.3-.8,8.3,8.3,0,0,1-.8-1.2,4.2,4.2,0,0,1-.4-1.5,3.3,3.3,0,0,1,.4-1.5,3.3,3.3,0,0,1,2.1-2.1,4.1,4.1,0,0,1,1.6-.3,3.5,3.5,0,0,1,2.7,1.1A3.4,3.4,0,0,1,137.8,589.7Z"/><path class="cls-2" d="M160.2,585.8a9.1,9.1,0,0,1-.7,3.5,7.1,7.1,0,0,1-2,2.5,6.9,6.9,0,0,1-2.8,1.5,13.4,13.4,0,0,1-3.5.5,10.6,10.6,0,0,1-5.8-1.5,8.3,8.3,0,0,1-3.3-4.4l6-1.8a3.4,3.4,0,0,0,1.2,1.8,2.7,2.7,0,0,0,1.7.6,2.9,2.9,0,0,0,1.9-.7,2.4,2.4,0,0,0,.7-1.8,2.8,2.8,0,0,0-1-2.3,5.3,5.3,0,0,0-2.6-.6h-1.3l-1.6.3-1.6.4-1.5.4.6-13.2H159v5h-8.6l-.2,2.8,1.1-.2h1.1a10.1,10.1,0,0,1,3.1.4,6.8,6.8,0,0,1,2.5,1.4,6.3,6.3,0,0,1,1.6,2.3A7.5,7.5,0,0,1,160.2,585.8Z"/><path class="cls-1" d="M215.4,65.2a5.6,5.6,0,0,0,.6,4.7h0a6.1,6.1,0,0,0,8.4,2.3h0a6.3,6.3,0,0,0,2.2-8.5h0a6.1,6.1,0,0,0-8.4-2.2,6.4,6.4,0,0,0-2.9,3.7Zm-3.7,7.2a11.1,11.1,0,0,1,19.2-11.1h0a11,11,0,0,1-4.1,15h0a11.7,11.7,0,0,1-8.4,1.1,11.5,11.5,0,0,1-6.8-5.2Zm28.8,12.3a6.2,6.2,0,0,0,8.7,0h0a6.2,6.2,0,1,0-8.7-8.7h0a6.2,6.2,0,0,0,0,8.7Zm4.3,6.7a11,11,0,0,1-7.8-3.2h0a11.2,11.2,0,0,1,0-15.7h0a11.1,11.1,0,0,1,15.7,15.7h0a11.1,11.1,0,0,1-7.9,3.3Zm25.1-18.6a6.2,6.2,0,0,0,3.8-2.9h0a6.2,6.2,0,0,0-2.7-8.3,6.1,6.1,0,0,0-8,2.1h0a6.3,6.3,0,0,0,2.2,8.5h0A6.4,6.4,0,0,0,269.9,72.8Zm8-.4a11,11,0,0,1-15,4.1l-.4-.2h0a11.1,11.1,0,0,1-3.7-14.9l.2-.4h0a11.1,11.1,0,0,1,19,11.4Zm-3.6-31.1a6.4,6.4,0,0,0-.6-4.7h0a6.2,6.2,0,0,0-8.5-2.3h0a6.4,6.4,0,0,0-2.2,8.5h0a6.1,6.1,0,0,0,3.7,2.8,6.4,6.4,0,0,0,4.7-.6A6,6,0,0,0,274.3,41.3Zm3.6-7.2a11.1,11.1,0,1,1-18.5,12.2,4.1,4.1,0,0,1-.7-1.1h0a11.1,11.1,0,0,1,4.1-15.1h.1A11,11,0,0,1,278,34.2h-.1ZM249.1,48.9a6.2,6.2,0,0,0-8.7,0h0a6.2,6.2,0,0,0,0,8.7,6.3,6.3,0,0,0,8.8,0h0a6.2,6.2,0,0,0,0-8.7h-.1Zm-4.3-6.8a11.2,11.2,0,0,1,7.9,19h0a11.1,11.1,0,0,1-16.2-15.2l.5-.5h0a11.1,11.1,0,0,1,7.8-3.3Z"/><path class="cls-1" d="M296.3,21.7a6.2,6.2,0,0,0-8.7,0h0a6.2,6.2,0,0,0-.1,8.8,6.3,6.3,0,0,0,8.8,0h0a6.2,6.2,0,0,0,0-8.7h0m-4.4-6.7A11.1,11.1,0,0,1,303,26.2a11.4,11.4,0,0,1-3.2,7.7h0a11.1,11.1,0,0,1-16.2-15.2l.5-.5h0a11.4,11.4,0,0,1,7.8-3.2Zm-4.3,69.6a6.2,6.2,0,0,0,8.7,0h0a6.2,6.2,0,1,0-8.7-8.7h0a6.2,6.2,0,0,0,0,8.7Zm4.3,6.7a11,11,0,0,1-7.8-3.2h0a11.2,11.2,0,0,1,0-15.7h0a11.1,11.1,0,0,1,15.7,15.7h0a11.1,11.1,0,0,1-7.9,3.3ZM317,72.8a6.2,6.2,0,0,0,3.8-2.9h0a6.2,6.2,0,0,0-2.7-8.3,6.1,6.1,0,0,0-8,2.1h0a6.3,6.3,0,0,0,2.2,8.5h0A6.4,6.4,0,0,0,317,72.8Zm8-.4a11,11,0,0,1-15,4.1l-.4-.2h0a11.1,11.1,0,0,1-3.7-14.9l.2-.4h0a11.1,11.1,0,0,1,19,11.4Zm-3.6-31.1a6.4,6.4,0,0,0-.6-4.7h0a6.2,6.2,0,0,0-8.5-2.3h0a6,6,0,0,0-2.8,3.8,6.4,6.4,0,0,0,.6,4.7h0a6.1,6.1,0,0,0,3.7,2.8,6.4,6.4,0,0,0,4.7-.6A6,6,0,0,0,321.4,41.3Zm3.6-7.2a11.1,11.1,0,1,1-18.5,12.2,4.1,4.1,0,0,1-.7-1.1h0a11.1,11.1,0,0,1,4.1-15.1h.1a11,11,0,0,1,15.1,4.1H325ZM296.2,48.9a6.2,6.2,0,0,0-8.7,0h0a6.2,6.2,0,0,0,0,8.7,6.3,6.3,0,0,0,8.8,0h0a6.2,6.2,0,0,0,0-8.7h-.1Zm-4.3-6.8a11.2,11.2,0,0,1,7.9,19h0a11.1,11.1,0,0,1-16.2-15.2c.2-.2.3-.4.5-.5h0a11.1,11.1,0,0,1,7.8-3.3Z"/><path class="cls-1" d="M249.2,129.7a6.2,6.2,0,0,0-8.7,0h0a6.1,6.1,0,0,0-.1,8.7,6.2,6.2,0,0,0,8.8.1h0a6.2,6.2,0,0,0,0-8.7h0m-4.4-6.8a11.2,11.2,0,0,1,11.1,11.2,11.6,11.6,0,0,1-3.2,7.7h0a11.1,11.1,0,0,1-16.2-15.2l.5-.5h0a11,11,0,0,1,7.8-3.2Zm-25.1,18.7a5.8,5.8,0,0,0-3.7,2.8h0a6.3,6.3,0,0,0,2.2,8.5,6.4,6.4,0,0,0,4.7.6,6.5,6.5,0,0,0,3.8-2.9h0a6.2,6.2,0,0,0-2.3-8.4h0A5.9,5.9,0,0,0,219.7,141.7Zm-8,.4a11,11,0,0,1,15.1-4.1h.4a11.1,11.1,0,0,1,3.7,15l-.2.3h0a11.1,11.1,0,0,1-19-11.4h0Zm58.2,38.6a6,6,0,0,0,3.8-2.8h0a6.3,6.3,0,0,0-2.7-8.4,6.2,6.2,0,0,0-8,2.2h0a6.2,6.2,0,0,0,2.2,8.4h0A6.4,6.4,0,0,0,269.9,180.7Zm8-.4a11,11,0,0,1-15,4.1l-.4-.2h0a11.1,11.1,0,0,1-3.7-14.9l.2-.3h0a11.1,11.1,0,0,1,19,11.3Zm-3.6-31.1a6.4,6.4,0,0,0-.6-4.7h0a6.3,6.3,0,0,0-8.5-2.2h0a5.8,5.8,0,0,0-2.8,3.7,5.9,5.9,0,0,0,.6,4.7h0a6.7,6.7,0,0,0,3.7,2.9,6.4,6.4,0,0,0,4.7-.6A6.2,6.2,0,0,0,274.3,149.2Zm3.6-7.1a11.1,11.1,0,1,1-18.5,12.2l-.7-1.1h0a11.2,11.2,0,0,1,4.1-15.2h.1a11.1,11.1,0,0,1,15.1,4.1h-.1Zm-28.8,14.7a6.2,6.2,0,0,0-8.7,0h0a6.2,6.2,0,0,0,8.8,8.8h0a6.2,6.2,0,0,0,0-8.7h-.1Zm-4.3-6.7a11.1,11.1,0,0,1,11.1,11.1,10.8,10.8,0,0,1-3.2,7.8h0a11.1,11.1,0,0,1-16.2-15.2l.5-.5h0a11.4,11.4,0,0,1,7.8-3.2Z"/><path class="cls-1" d="M219.7,87.7a5.7,5.7,0,0,0-3.7,2.9h0a6.2,6.2,0,0,0,2.2,8.4,6.4,6.4,0,0,0,4.7.6,6.1,6.1,0,0,0,3.8-2.9h0a6.2,6.2,0,0,0-2.3-8.4h0A6.4,6.4,0,0,0,219.7,87.7Zm-8,.4A11,11,0,0,1,226.8,84h.1l.3.2h0a11,11,0,0,1,3.7,14.9l-.2.3h0a11.1,11.1,0,1,1-19-11.3Zm3.7,31.1a5.6,5.6,0,0,0,.6,4.7h0a6.1,6.1,0,0,0,8.4,2.2h0a6.2,6.2,0,0,0,2.2-8.4h0a6.2,6.2,0,0,0-8.4-2.3,6.9,6.9,0,0,0-2.9,3.8Zm-3.7,7.1a11.1,11.1,0,0,1,19.2-11.1h0a11.1,11.1,0,0,1-4.1,15.1h0a10.8,10.8,0,0,1-8.4,1.1,11,11,0,0,1-6.8-5.1Zm58.2.5a6.6,6.6,0,0,0,3.8-2.9h0a6.2,6.2,0,0,0-2.7-8.3,6.1,6.1,0,0,0-8,2.1h0a6.2,6.2,0,0,0,2.2,8.4h0A6.5,6.5,0,0,0,269.9,126.8Zm8-.4a11.1,11.1,0,0,1-15,4.1l-.4-.2h0a11.2,11.2,0,0,1-3.7-15l.2-.3h0a11.1,11.1,0,0,1,19,11.4Zm-3.6-31.2a6.2,6.2,0,0,0-.6-4.6h0a6.2,6.2,0,0,0-8.5-2.3h0a6,6,0,0,0-2.8,3.8,5.8,5.8,0,0,0,.6,4.6h0a6.3,6.3,0,0,0,3.7,2.9,6.4,6.4,0,0,0,4.7-.6A6.2,6.2,0,0,0,274.3,95.2Zm3.6-7.1a11.1,11.1,0,1,1-18.5,12.2l-.7-1.1h0a11.1,11.1,0,0,1,4.1-15.1h.1A11.1,11.1,0,0,1,278,88.1h-.1Zm-28.8,14.8a6.2,6.2,0,0,0-8.7,0h0a6.2,6.2,0,0,0,0,8.7,6.3,6.3,0,0,0,8.8,0h0a6.2,6.2,0,0,0,0-8.7h-.1Zm-4.3-6.8a11.2,11.2,0,0,1,7.9,19h0a11.1,11.1,0,0,1-16.2-15.3l.5-.4h0a11.1,11.1,0,0,1,7.8-3.3Z"/><path class="cls-1" d="M296.3,129.7a6.2,6.2,0,0,0-8.7,0h0a6.1,6.1,0,0,0-.1,8.7,6.2,6.2,0,0,0,8.8.1h0a6.2,6.2,0,0,0,0-8.7h0m-4.4-6.8A11.2,11.2,0,0,1,303,134.2a11.6,11.6,0,0,1-3.2,7.7h0a11.1,11.1,0,0,1-16.2-15.2l.5-.5h0a11,11,0,0,1,7.8-3.2Zm-4.3,69.7a6.2,6.2,0,0,0,8.7,0h0a6.3,6.3,0,0,0,0-8.8,6.2,6.2,0,0,0-8.7,0h0a6.2,6.2,0,0,0,0,8.7h0Zm4.3,6.7a11.1,11.1,0,0,1-7.8-3.3h0a11,11,0,0,1,0-15.6h0a11.1,11.1,0,0,1,15.7,15.7h0a11.1,11.1,0,0,1-7.9,3.3ZM317,180.7a6,6,0,0,0,3.8-2.8h0a6.3,6.3,0,0,0-2.7-8.4,6.2,6.2,0,0,0-8,2.2h0a6.2,6.2,0,0,0,2.2,8.4h0A6.4,6.4,0,0,0,317,180.7Zm8-.4a11,11,0,0,1-15,4.1l-.4-.2h0a11.1,11.1,0,0,1-3.7-14.9l.2-.3h0a11.1,11.1,0,0,1,19,11.3Zm-3.6-31.1a6.4,6.4,0,0,0-.6-4.7h0a6.3,6.3,0,0,0-8.5-2.2h0a5.8,5.8,0,0,0-2.8,3.7,6.4,6.4,0,0,0,.6,4.7h0a6.7,6.7,0,0,0,3.7,2.9,6.4,6.4,0,0,0,4.7-.6A6.2,6.2,0,0,0,321.4,149.2Zm3.6-7.1a11.1,11.1,0,1,1-18.5,12.2l-.7-1.1h0a11.2,11.2,0,0,1,4.1-15.2h.1a11.1,11.1,0,0,1,15.1,4.1H325Zm-28.8,14.7a6.2,6.2,0,0,0-8.7,0h0a6.2,6.2,0,1,0,8.8,8.8h0a6.2,6.2,0,0,0,0-8.7h-.1Zm-4.3-6.7A11.1,11.1,0,0,1,303,161.2a10.8,10.8,0,0,1-3.2,7.8h0a11.1,11.1,0,0,1-16.2-15.2l.5-.5h0a11.4,11.4,0,0,1,7.8-3.2Z"/><path class="cls-1" d="M317,126.8a6.6,6.6,0,0,0,3.8-2.9h0a6.2,6.2,0,0,0-2.7-8.3,6.1,6.1,0,0,0-8,2.1h0a6.2,6.2,0,0,0,2.2,8.4h0A6.5,6.5,0,0,0,317,126.8Zm8-.4a11.1,11.1,0,0,1-15,4.1l-.4-.2h0a11.2,11.2,0,0,1-3.7-15l.2-.3h0a11.1,11.1,0,0,1,19,11.4Zm-3.6-31.2a6.2,6.2,0,0,0-.6-4.6h0a6.2,6.2,0,0,0-8.5-2.3h0a6,6,0,0,0-2.8,3.8,6.2,6.2,0,0,0,.6,4.6h0a6.3,6.3,0,0,0,3.7,2.9,6.4,6.4,0,0,0,4.7-.6A6.2,6.2,0,0,0,321.4,95.2Zm3.6-7.1a11.1,11.1,0,1,1-18.5,12.2l-.7-1.1h0a11.1,11.1,0,0,1,4.1-15.1h.1a11.1,11.1,0,0,1,15.1,4.1H325Zm-28.8,14.8a6.2,6.2,0,0,0-8.7,0h0a6.2,6.2,0,0,0,0,8.7,6.3,6.3,0,0,0,8.8,0h0a6.2,6.2,0,0,0,0-8.7h-.1Zm-4.3-6.8a11.2,11.2,0,0,1,7.9,19h0a11.1,11.1,0,0,1-16.2-15.3l.5-.4h0a11.1,11.1,0,0,1,7.8-3.3Z"/><path class="cls-1" d="M313.9,33.7a6,6,0,0,0-3.7,2.9h0a6.2,6.2,0,0,0,2.2,8.4,5.9,5.9,0,0,0,4.7.6,6.3,6.3,0,0,0,3.8-2.8h0a6.3,6.3,0,0,0-2.3-8.5h0A6.4,6.4,0,0,0,313.9,33.7Zm-8,.4A11.1,11.1,0,0,1,321,30h.1l.3.2h0a11,11,0,0,1,3.7,14.9l-.2.3h0a11.1,11.1,0,1,1-19-11.3Zm3.7,31.1a5.6,5.6,0,0,0,.6,4.7h0a6.1,6.1,0,0,0,8.4,2.3h0a6.4,6.4,0,0,0,2.3-8.5h0a6.3,6.3,0,0,0-8.5-2.2,6.4,6.4,0,0,0-2.9,3.7Zm-3.7,7.2a11.1,11.1,0,0,1,19.2-11.1h0a11,11,0,0,1-4.1,15h0a11.7,11.7,0,0,1-8.4,1.1,11.5,11.5,0,0,1-6.8-5.2Zm28.8,12.3a6.2,6.2,0,0,0,8.7,0h0a6.2,6.2,0,0,0-8.7-8.7h0a6.2,6.2,0,0,0,0,8.7Zm4.3,6.7a11,11,0,0,1-7.8-3.2h0a11.2,11.2,0,0,1,0-15.7h0a11.1,11.1,0,0,1,15.7,15.7h0a11.1,11.1,0,0,1-7.9,3.3Zm25.1-18.6a6.2,6.2,0,0,0,3.8-2.9h0a6.2,6.2,0,0,0-2.7-8.3,6.1,6.1,0,0,0-8,2.1h0a6.3,6.3,0,0,0,2.2,8.5h0A6.4,6.4,0,0,0,364.1,72.8Zm8-.4a11,11,0,0,1-15,4.1l-.4-.2h0A11.1,11.1,0,0,1,353,61.4l.2-.4h0a11.1,11.1,0,0,1,19,11.4ZM343.3,48.9a6.2,6.2,0,0,0-8.7,0h0a6.2,6.2,0,0,0,0,8.7,6.3,6.3,0,0,0,8.8,0h0a6.2,6.2,0,0,0,0-8.7h-.1ZM339,42.1a11.2,11.2,0,0,1,7.9,19h0a11.1,11.1,0,0,1-16.2-15.2l.5-.5h0a11.1,11.1,0,0,1,7.8-3.3Z"/><path class="cls-1" d="M343.4,129.7a6.2,6.2,0,0,0-8.7,0h0a6.1,6.1,0,0,0-.1,8.7,6.2,6.2,0,0,0,8.8.1h0a6.2,6.2,0,0,0,0-8.7h0M339,123a11.2,11.2,0,0,1,11.1,11.2,11.6,11.6,0,0,1-3.2,7.7h0a11.1,11.1,0,0,1-16.2-15.2l.5-.5h0A11,11,0,0,1,339,123Zm-25.1,18.7a5.8,5.8,0,0,0-3.7,2.8h0a6.3,6.3,0,0,0,2.2,8.5,6.4,6.4,0,0,0,4.7.6,6.5,6.5,0,0,0,3.8-2.9h0a6.2,6.2,0,0,0-2.3-8.4h0A5.9,5.9,0,0,0,313.9,141.7Zm-8,.4A11,11,0,0,1,321,138h.4a11.1,11.1,0,0,1,3.7,15l-.2.3h0a11.1,11.1,0,0,1-19-11.4h0Zm3.7,31.1a5.6,5.6,0,0,0,.6,4.7h0a6.2,6.2,0,0,0,8.4,2.2h0a6.3,6.3,0,0,0,2.3-8.4h0a6.2,6.2,0,0,0-8.5-2.3,6.6,6.6,0,0,0-2.9,3.8Zm-3.7,7.1a11.1,11.1,0,0,1,19.2-11.1h0a11.1,11.1,0,0,1-4.1,15.1h0a11.2,11.2,0,0,1-15.2-4.1Zm62.6-31.1a6.4,6.4,0,0,0-.6-4.7h0a6.3,6.3,0,0,0-8.5-2.2h0a5.8,5.8,0,0,0-2.8,3.7,6.4,6.4,0,0,0,.6,4.7h0a6.7,6.7,0,0,0,3.7,2.9,6.4,6.4,0,0,0,4.7-.6A6.2,6.2,0,0,0,368.5,149.2Zm3.6-7.1a11.1,11.1,0,1,1-18.5,12.2l-.7-1.1h0A11.2,11.2,0,0,1,357,138h.1a11.1,11.1,0,0,1,15.1,4.1h-.1Zm-28.8,14.7a6.2,6.2,0,0,0-8.7,0h0a6.2,6.2,0,0,0,8.8,8.8h0a6.2,6.2,0,0,0,0-8.7h-.1Zm-4.3-6.7a11.1,11.1,0,0,1,11.1,11.1,10.8,10.8,0,0,1-3.2,7.8h0a11.1,11.1,0,0,1-16.2-15.2l.5-.5h0a11.4,11.4,0,0,1,7.8-3.2Z"/><path class="cls-1" d="M313.9,87.7a5.7,5.7,0,0,0-3.7,2.9h0a6.2,6.2,0,0,0,2.2,8.4,6.4,6.4,0,0,0,4.7.6,6.1,6.1,0,0,0,3.8-2.9h0a6.2,6.2,0,0,0-2.3-8.4h0A6.4,6.4,0,0,0,313.9,87.7Zm-8,.4A11,11,0,0,1,321,84h.1l.3.2h0a11,11,0,0,1,3.7,14.9l-.2.3h0a11.1,11.1,0,1,1-19-11.3Zm3.7,31.1a5.6,5.6,0,0,0,.6,4.7h0a6.1,6.1,0,0,0,8.4,2.2h0a6.3,6.3,0,0,0,2.3-8.4h0a6.3,6.3,0,0,0-8.5-2.3,6.9,6.9,0,0,0-2.9,3.8Zm-3.7,7.1a11.1,11.1,0,0,1,19.2-11.1h0a11.1,11.1,0,0,1-4.1,15.1h0a10.8,10.8,0,0,1-8.4,1.1,11,11,0,0,1-6.8-5.1Zm58.2.5a6.6,6.6,0,0,0,3.8-2.9h0a6.2,6.2,0,0,0-2.7-8.3,6.1,6.1,0,0,0-8,2.1h0a6.2,6.2,0,0,0,2.2,8.4h0A6.5,6.5,0,0,0,364.1,126.8Zm8-.4a11.1,11.1,0,0,1-15,4.1l-.4-.2h0a11.2,11.2,0,0,1-3.7-15l.2-.3h0a11.1,11.1,0,0,1,19,11.4Zm-3.6-31.2a6.2,6.2,0,0,0-.6-4.6h0a6.2,6.2,0,0,0-8.5-2.3h0a6,6,0,0,0-2.8,3.8,6.2,6.2,0,0,0,.6,4.6h0a6.3,6.3,0,0,0,3.7,2.9,6.4,6.4,0,0,0,4.7-.6A6.2,6.2,0,0,0,368.5,95.2Zm3.6-7.1a11.1,11.1,0,1,1-18.5,12.2l-.7-1.1h0A11.1,11.1,0,0,1,357,84.1h.1a11.1,11.1,0,0,1,15.1,4.1h-.1Zm-28.8,14.8a6.2,6.2,0,0,0-8.7,0h0a6.2,6.2,0,0,0,0,8.7,6.3,6.3,0,0,0,8.8,0h0a6.2,6.2,0,0,0,0-8.7h-.1ZM339,96.1a11.2,11.2,0,0,1,7.9,19h0a11.1,11.1,0,0,1-16.2-15.3l.5-.4h0a11.1,11.1,0,0,1,7.8-3.3Z"/><path class="cls-2" d="M271.7,249.2a10,10,0,0,1-1,4.8,8.1,8.1,0,0,1-2.8,3,12.8,12.8,0,0,1-4.1,1.8,24.2,24.2,0,0,1-4.7.5h-3.9v12h-7.7V239.4h11.7a24.6,24.6,0,0,1,4.9.5,11.2,11.2,0,0,1,4,1.7,9.7,9.7,0,0,1,2.7,3A10.8,10.8,0,0,1,271.7,249.2Zm-7.7.1a3.6,3.6,0,0,0-.4-1.9,4.3,4.3,0,0,0-1.2-1.1,5.3,5.3,0,0,0-1.8-.5l-2-.2h-3.4v7.6h3.3l2.1-.2a4.9,4.9,0,0,0,1.7-.6,3,3,0,0,0,1.3-1.2A3.8,3.8,0,0,0,264,249.3Z"/><path class="cls-2" d="M305.4,271.3l.2-22.6h-.2l-8.3,22.6h-5.4l-8-22.6h-.2l.2,22.6h-7.2V239.4h10.9l7.3,20.5h.2l6.9-20.5H313v31.9Z"/><path class="cls-2" d="M325.4,263.2l-4,2.9-3.4-4.6,7.9-5.7h6v22.1h-6.5Z"/></svg>