<svg xmlns="http://www.w3.org/2000/svg" viewBox="0 0 50.5 55.8"><defs><style>.cls-1{fill:#fff;}</style></defs><g id="Layer_2" data-name="Layer 2"><g id="icons"><path class="cls-1" d="M28.4,4.9a4.4,4.4,0,0,0-3.2-1.3,4.4,4.4,0,0,0-3.1,1.3h0a4.4,4.4,0,0,0,0,6.4,4.4,4.4,0,0,0,3.1,1.3,4.4,4.4,0,0,0,3.2-1.3h0a4.6,4.6,0,0,0,0-6.4M25.2,0A8.1,8.1,0,0,1,31,2.4a8.2,8.2,0,0,1,0,11.4h0a8.1,8.1,0,0,1-11.5,0,8.3,8.3,0,0,1-2.4-5.7,8.3,8.3,0,0,1,2.4-5.7h0A8,8,0,0,1,25.2,0ZM6.9,13.7a4.2,4.2,0,0,0-2.7,2h0a5.4,5.4,0,0,0-.5,3.5,4.7,4.7,0,0,0,2.1,2.7,4.7,4.7,0,0,0,3.5.4,4.5,4.5,0,0,0,2.7-2h0a4.5,4.5,0,0,0,.4-3.4,4.5,4.5,0,0,0-2-2.7h-.1A4.5,4.5,0,0,0,6.9,13.7Zm-5.8.2A7.9,7.9,0,0,1,6,10.2a7.7,7.7,0,0,1,6.1.8h.3a8.3,8.3,0,0,1,3.5,4.8,7.7,7.7,0,0,1-.8,6.1v.3h0a8.3,8.3,0,0,1-4.8,3.5A8,8,0,0,1,4,25,7.9,7.9,0,0,1,.3,20.1,7.7,7.7,0,0,1,1.1,14ZM3.7,36.6a5.4,5.4,0,0,0,.5,3.5h0a4,4,0,0,0,2.7,2.1,4.5,4.5,0,0,0,3.4-.4h.1a4.5,4.5,0,0,0,2-2.7,4.8,4.8,0,0,0-.4-3.5h0a4.5,4.5,0,0,0-2.7-2,4.7,4.7,0,0,0-3.5.4A4.7,4.7,0,0,0,3.7,36.6ZM1.1,41.8a7.7,7.7,0,0,1-.8-6.1A7.9,7.9,0,0,1,4,30.8a8,8,0,0,1,6.2-.8,7.7,7.7,0,0,1,4.9,3.8h0a8,8,0,0,1,.8,6.2,7.7,7.7,0,0,1-3.8,4.9h0a7.7,7.7,0,0,1-6.1.8,7.7,7.7,0,0,1-4.9-3.8Zm21,9.1a4.4,4.4,0,0,0,3.1,1.3,4.4,4.4,0,0,0,3.2-1.3h0a4.6,4.6,0,0,0,0-6.4,4.4,4.4,0,0,0-3.2-1.3,4.4,4.4,0,0,0-3.1,1.3h0a4.4,4.4,0,0,0,0,6.4Zm3.1,4.9a8,8,0,0,1-5.7-2.4h0a8,8,0,0,1,0-11.4h0A8.1,8.1,0,0,1,31,42a8.2,8.2,0,0,1,0,11.4h0A8.1,8.1,0,0,1,25.2,55.8ZM43.6,42.1a4.2,4.2,0,0,0,2.7-2h0a4.8,4.8,0,0,0,.4-3.5,4.3,4.3,0,0,0-2.1-2.7,4.5,4.5,0,0,0-3.4-.4,4.5,4.5,0,0,0-2.7,2h0A4.5,4.5,0,0,0,38,39a4.7,4.7,0,0,0,2.1,2.7h0A4.7,4.7,0,0,0,43.6,42.1Zm5.8-.2a7.9,7.9,0,0,1-4.9,3.7,8,8,0,0,1-6.2-.8h-.2a8.3,8.3,0,0,1-3.5-4.8,7.7,7.7,0,0,1,.8-6.1v-.3h0A8.3,8.3,0,0,1,40.3,30a8.1,8.1,0,0,1,9.9,5.7,8.2,8.2,0,0,1-.8,6.1ZM46.7,19.2a4.8,4.8,0,0,0-.4-3.5h0a4,4,0,0,0-2.7-2.1,4.7,4.7,0,0,0-3.5.4h0A4.7,4.7,0,0,0,38,16.8a4.8,4.8,0,0,0,.5,3.5h0a4.5,4.5,0,0,0,2.7,2,4.5,4.5,0,0,0,3.4-.4A4.3,4.3,0,0,0,46.7,19.2ZM49.4,14a8.2,8.2,0,0,1,.8,6.1,8.1,8.1,0,0,1-9.9,5.7A7.7,7.7,0,0,1,35.4,22h0a8,8,0,0,1-.8-6.2A7.9,7.9,0,0,1,38.3,11h0a8,8,0,0,1,6.2-.8A7.7,7.7,0,0,1,49.4,14Zm-21,10.7a4.4,4.4,0,0,0-3.2-1.3,4.4,4.4,0,0,0-3.1,1.3h0a4.4,4.4,0,0,0,0,6.4,4.4,4.4,0,0,0,3.1,1.3,4.4,4.4,0,0,0,3.2-1.3h0a4.6,4.6,0,0,0,0-6.4Zm-3.2-4.9A8.1,8.1,0,0,1,31,22.2a8.2,8.2,0,0,1,0,11.4h0a8.1,8.1,0,0,1-11.5,0,8,8,0,0,1,0-11.4h0A8,8,0,0,1,25.2,19.8Z"/></g></g></svg>