<svg id="Layer_1" data-name="Layer 1" xmlns="http://www.w3.org/2000/svg" viewBox="0 0 464 954"><defs><style>.cls-1{fill:#c3e3f2;}</style></defs><path class="cls-1" d="M411.1,49.2c-2.7,8.6-4.7,17-9.8,24.6a57.2,57.2,0,0,1-17.8,16.5c-15.5,9.4-34,12.2-51.2,17.1-32.7,9.4-65.3,23.5-89.5,48.2-14,14.4-24,31.6-30.7,50.5-1.5,4,5,5.9,6.4,1.8,11.8-34.8,37.5-60.6,69.8-77.2,16.2-8.4,33.5-14.4,51-19.2s33.4-9.1,48.3-19.1S414,66.9,412.3,49.3a.6.6,0,0,0-1.2-.1Z"/><path class="cls-1" d="M213.8,204.3c-10.3,21.2-11.3,48.4-8.2,71.4a155.8,155.8,0,0,0,18.2,54.6c7.8,14.5,17.6,28,27.8,40.9,7.3,9.3,15.6,18.9,19.9,30,1.8,4.4,2.6,9.2,1.3,13.8s-6.3,9.4-10.3,13.5a1.9,1.9,0,0,0,2.2,2.9c9-4.5,15.5-14.4,14.4-24.5s-8.5-20.9-14.8-29.7c-20.3-28.4-41.7-55.7-49.5-90.5a142.3,142.3,0,0,1-3.1-37.4c.6-14.9,4.4-29.2,6.1-43.9.2-2.1-3.1-2.9-4-1.1Z"/><path class="cls-1" d="M418.1,39.4c-3.4,7.3-3.8,15.7-4.6,23.6-1.1,11.6-3.2,23-7.5,33.9s-9.9,21.2-18.1,29.7a103.9,103.9,0,0,1-21.8,16.6c-27.3,15.9-66.9,21.4-83,52a56.9,56.9,0,0,0-6.3,28c.3,8.6,5.9,23.5,17.2,20.2,1.9-.6,1.6-3.9-.5-3.7-5.3.6-8.3-7.2-9.4-11.4s-.8-9.5-.3-14.1a47.9,47.9,0,0,1,8.2-21.6c8.9-12.5,23.3-20,36.8-26.4s29.7-13.9,43.6-22.7c15.7-10.1,27.3-23.3,34.7-40.5A114.9,114.9,0,0,0,416,68c1-9.4,1.5-18.6,4.3-27.7.4-1.3-1.6-2.2-2.2-.9Z"/><path class="cls-1" d="M314,236.6c3.6,1.4,12.9,5.9,5.8,9.4a18.9,18.9,0,0,1-12.4,1.3c-9.3-2.1-14-11.5-8.8-19.7s17.7-11.9,26.7-7.4,14.7,12.7,18,21.2c1.7,4.6,2.7,9.8,1.5,14.6s-6,8.2-10.4,11.7c-2.3,1.8.2,5,2.5,4.4,14.1-3.3,16.6-20.4,12.5-31.9s-14-23.9-26.4-26.6-27.8,4.1-31.2,17,8.1,22.3,19.7,22c4.6-.2,11.6-1.7,13.1-6.9s-6.5-8.5-10.4-9.6c-.4-.1-.5.3-.2.5Z"/><path class="cls-1" d="M328,268.7c9.4,2.5,14.3,11.1,10.9,20.5s-11.3,11.7-19.9,9.1c-3.2-1-5.5,4.1-2.3,5.5,11.2,5.3,22.8-1.9,26.3-13.1s-2.7-21.9-14.5-23.9c-1.2-.2-1.8,1.6-.5,1.9Z"/><path class="cls-1" d="M296.1,279.3c2.3.6,7.2,1.8,6.8,5s-2.3,2.9-4.1,2.9c-4.8,0-8.4-6.1-8.6-10.4-.2-7.2,9.2-8.8,14.6-8.1,8.8,1.3,14.1,7.5,14.5,16.3s-5.6,16.5-13.8,19.9-19.4,1.6-26.1-6c-2.5-2.8-7.2.8-5.2,3.9,7.6,12.1,23.2,13.9,35.3,7.8s19-20.5,14.3-33.9c-3.9-10.8-16.6-15-27.1-12.5s-14.9,14.4-7.1,23.1c3.7,4.1,11.2,6,14.8.7s-3.4-9.3-8-10c-.8-.1-1.2,1.1-.3,1.3Z"/><path class="cls-1" d="M320.3,248.1c-11.7,6.3-24.8,9.7-37.5,4a28.3,28.3,0,0,1-13.1-11.3c-3.7-6.5-3.1-13.2-2.1-20.3a2.5,2.5,0,0,0-4.9-1.4c-13.4,33.2,38.7,56.9,59.2,31a1.3,1.3,0,0,0-1.6-2Z"/><path class="cls-1" d="M365.8,134.4a172,172,0,0,0-59.9,24.3c-13,8.4-24.6,19.2-33,32.3-13.4,21-16.8,46.3-13.2,70.6,1.5,10.3,3.9,21.1,8.4,30.5,8.7,18.5,24.7,32.5,39.6,46s32.4,28.6,42,47.9a120.6,120.6,0,0,1,9.3,27.3c2.1,8.8,4.2,17.9,8.3,26.1s11.1,15.8,19.6,16.9,17.9-5.5,16.4-14.8c-1.2-6.8-7.3-12.1-14.5-10.8s-6.3,7.2-2.1,11.4c.9.9,2.4-.5,1.5-1.5-8.1-8.3,6.9-10.8,11-3.8,3.1,5.2,2.1,11.7-3.2,14.9s-10.7,2-15.3-1.3c-14.4-10.1-15-30.3-18.6-45.8-8.2-35.7-38-57.5-63.1-81.5-11.9-11.2-23.7-24-28.9-39.8a136.8,136.8,0,0,1-6-25.1c-2.9-21.5.1-43.7,11.3-62.6,7.8-13.2,19.1-24,31.8-32.4,18.4-12.2,38.9-18.4,59.6-25a2,2,0,0,0-1-3.8Z"/><path class="cls-1" d="M385.8,439.3c-.9-6.7-.2-15.3,8.7-11.8a26.8,26.8,0,0,1,13.9,14.2c2.7,6.9,1,16.1-5,20.7s-14.7,4.8-21.9,3c-12.8-3.2-20.3-12.4-22.9-25s-3.6-25.8-7.7-38.4c-7.6-23.1-22.8-44.2-41.3-59.9-1.8-1.6-4.3.9-2.6,2.6,18.8,18.7,34.9,38.5,41.9,64.5a199.6,199.6,0,0,1,4.4,24.3c.9,5.9,1.7,11.9,4.2,17.3,6,13.3,23.1,20.4,37,18.3,16.4-2.4,23.4-20.7,13.7-33.9-3.7-5.1-10.7-11-17.5-10.6s-7.4,9.3-5.8,14.8a.5.5,0,0,0,.9-.1Z"/><path class="cls-1" d="M365.5,421c.7-4.4-.3-8.6,3.9-11.6,2.6-1.8,6.7-1.6,9.7-1,8.3,1.5,14.8,6,20.8,11.5a1.4,1.4,0,0,0,2.4-1.4c-2.5-9.8-16-15.9-25.3-16.2s-18,9.1-13.1,18.9c.3.6,1.5.5,1.6-.2Z"/><path class="cls-1" d="M401.5,415.8c2.4-9.5,11.9-5.8,17.2-1s10.6,13.9,1.7,19.4a.5.5,0,0,0,.4.9c5-1.7,9-4.9,9.1-10.7s-3.5-10.9-7.7-14.4-9.7-6.5-15.2-5.5-7.8,5.6-8.2,10.9c-.1,1.5,2.3,1.8,2.7.4Z"/><path class="cls-1" d="M428.3,429.9c14.2,5,21.1,25.7,15.5,39-2.9,7-12.4,11.9-19,6.2a4.6,4.6,0,0,1-.4-6.9c3-2.8,5.3.4,7.4,2.4.5.4,1.4.2,1.3-.5-.7-6.4-8-8.6-12-3.6s-.3,13.2,6.1,15.5c8.2,2.9,17.1-2.1,20.8-9.6s2.8-17.3,0-25.2-9.5-16.9-19.3-18.9a.8.8,0,0,0-.4,1.6Z"/><path class="cls-1" d="M436.1,481.8c.8,5.7.6,10.7-3.2,15.3a15.9,15.9,0,0,1-13.3,6c-3.8-.1-3.8,5.9,0,6,12.4.1,27.3-16.2,17.5-27.9-.4-.6-1.1,0-1,.6Z"/><path class="cls-1" d="M357,511.1c.8,6.3,7.8,11.1,13.2,13.5a41.4,41.4,0,0,0,19.7,3.2c11-.8,25.6-5.9,28.9-17.7s-9.7-27.9-22-29.1c-6.5-.6-14.4,1.6-18.5,7-5.3,7.1-1.4,15.8,4.9,20.8,4.7,3.8,12.1,4.7,16-1s-2.1-8.5-6.9-8.8c-1-.1-1,1.5,0,1.5,2.8.1,7.3.9,6.7,4.7s-3.3,4-5.7,4c-6.4.2-14.3-7.8-13.9-14.2s7.4-9.1,12.7-9.7,11.4,1.8,15.9,6.5c6.3,6.4,10.1,15.4,3.3,22.8s-15.9,8.9-24.5,9a35.3,35.3,0,0,1-16-3.5c-5-2.5-7.6-6.9-11.9-10.1-.7-.6-2.1.2-1.9,1.1Z"/><path class="cls-1" d="M308.2,343c1.3,3.3,3.9,5.5,5.7,8.5s4.9,7.6,7.2,11.4a222.7,222.7,0,0,1,11.6,21.5,120.1,120.1,0,0,1,8.6,24.2c1.6,7.3,3.4,15,3.8,22.5.6,13.5-2.6,26.8-4.4,40.1-.8,6-1.5,12.1-1,18.2.4,3.8,1.1,9.1,4.3,11.6,7.1,5.4,21.3-.5,16.1-10.1a.9.9,0,0,0-1.6.6c.8,4.2-.8,7.4-5.2,8.2a7,7,0,0,1-8.3-4.9c-2-5.8-1.5-12.4-.9-18.4,1.5-14.6,5.1-29.2,4.5-44-.4-7.1-2.1-14.4-3.8-21.3a145.6,145.6,0,0,0-8.5-24,179.6,179.6,0,0,0-13-23.5c-2.4-3.8-4.8-7.7-7.5-11.3s-4.2-7-7.2-9.5c-.2-.1-.5,0-.4.2Z"/><path class="cls-1" d="M359,491c.5-1.4-2-2.5-3.1-2.7s-3.4,0-4,1.5a.3.3,0,0,0,.4.4c1.3-.3,2.4-.8,3.8-.5a6.6,6.6,0,0,1,1.9.9,2.6,2.6,0,0,0,.9.5.1.1,0,0,0,.1-.1Z"/><path class="cls-1" d="M352.2,492.9l.4.4h.1l-.4-.4c-.1,0-.2,0-.1.1Z"/><path class="cls-1" d="M355.5,494c-.2-.7-1.2-1-1.7-1.6a1,1,0,0,1-.3-.9c0-.3.5-.5.7-.8a.6.6,0,0,0-.4-.9c-1.5-.2-2.1,1.6-1.6,2.8s2,2.7,3.1,2a.5.5,0,0,0,.2-.6Z"/><path class="cls-1" d="M354,493.1c-3.5.9-7.6.7-7.7-3.8a7,7,0,0,1,5.5-6.9c9.1-1.8,16,8,13.6,16.2s-11.8,12.8-19.4,10.8-10.2-8.3-11.8-14.1a31.8,31.8,0,0,1,1.2-21.3c3.6-8.5,4.8-18.3,5.3-27.4,1.3-20.5-3.9-41.8-11.6-60.7-8.9-21.8-21.8-41.6-37.3-59.2-.7-.8-1.9.4-1.2,1.2,18.2,21.3,33.2,46.1,41.3,73a132.4,132.4,0,0,1,5.3,41,99.8,99.8,0,0,1-2.5,20.4c-1.2,5.5-3.9,10.4-5.4,15.7-3.7,13.6.9,37,18.4,37.8,8.2.3,17.8-6.4,21-13.7s1.2-16.5-5.9-20.6-15.3-3-17.9,4.9,3.5,10.3,9.5,7.8c.7-.2.4-1.3-.4-1.1Z"/><path class="cls-1" d="M292.5,327.2c-1.6-4-4.9-7.5-7.1-11.2s-4.2-8.1-7.3-11.4c-.8-.9-2.1.3-1.6,1.3a134.8,134.8,0,0,0,7.2,12.8c2,3.3,4.1,7.5,7.8,9.2a.6.6,0,0,0,1-.7Z"/><path class="cls-1" d="M327.8,494.1c-1.2,6.1-2,12-3.5,18.1a76.8,76.8,0,0,1-7,17.7,74.4,74.4,0,0,1-26.2,27.8c-2.4,1.4-.2,5.1,2.2,3.7,11.8-6.7,21.9-16.1,28.6-28s11.2-25.7,9.6-38.8c-.2-1.9-3.3-2.8-3.7-.5Z"/><path class="cls-1" d="M261.8,628.5c-3.6-6.8-5-14.6,0-21.1s11.5-8.8,18.3-10.2a41.3,41.3,0,0,1,44,19.6c11.7,19.8,4.8,44.5-12.2,59s-38.4,13.3-56.2,2.3c-9.7-5.9-18.8-14.2-24.4-24.2a26.1,26.1,0,0,1-3.7-14.1c.2-5.7,3-9.8,6.1-14.3a.9.9,0,0,0-1.3-1.2c-8.7,5.1-10.6,16-7.7,25.1,3.5,10.9,11.6,20,20.4,27.1,18,14.3,42.1,20.4,62.8,7.8s33.1-39.9,23.7-63.2c-8.1-20-26.8-32.4-48.6-29.4-9,1.2-18.3,5.1-23.5,12.9s-3.8,17.1,1,24.7a.8.8,0,0,0,1.3-.8Z"/><path class="cls-1" d="M276.6,631.5c-4.5,1.6-8.6-.7-10.1-5.2s2-9.8,7.6-10.4,11.6,1.2,15.3,4.9,4.5,7.6,5.3,11.3c2.6,12.2-9.9,14-19,12.4-10.8-1.9-22.9-7.5-29-17-4.2-6.6-7.9-14.3-7.6-22.2s4.4-16.1,10-22.1c13-13.8,33.7-22.2,52.6-20.9,3.6.3,3.7-5.5,0-5.6-21.2-.8-44.9,9.3-58.2,26.2-6,7.7-9.7,17.2-8.4,27s5.7,18.1,11.6,24.4c9.4,10,26.1,16.9,39.9,14.4,5.1-1,10.1-3.8,11.6-9.2s-1.5-17.4-6.7-21.7-24.4-9-26.9,2.4c-1.6,7.5,4.6,15.8,12.4,12.3a.5.5,0,0,0-.4-1Z"/><path class="cls-1" d="M299.1,562c11.3-.4,22.1.1,32.9,4a61.8,61.8,0,0,1,14.7,7.5c3.5,2.6,6,6.7,8,10.6,4,7.3,7.1,15.7,7.3,24.1s-3.3,15.8-9.7,22.4c-.7.7,0,2.2,1,1.8,18.6-7.3,13.7-35.8,6.7-49.4a46.1,46.1,0,0,0-7.7-11.3c-4.2-4.4-10.5-7.4-16-9.8-11.4-4.9-25.7-7.9-37.7-3.5-1.8.7-1.7,3.7.5,3.6Z"/><path class="cls-1" d="M367.5,611.3c8.2-4.4,17.9,1.1,20.3,9.8,1.2,4.5-.1,9.3-2.3,13.3-1.1,2.2-2.6,4.1-5.1,4.8s-6.1-.1-6.3-3.8c-.1-.8-1.2-1-1.4-.2-1.4,5.2,4.5,7.5,8.8,7,7-.9,11.5-9.1,11.9-15.5,1-14.9-14.4-25.9-27.6-18.3-1.8,1.1-.2,3.8,1.7,2.9Z"/><path class="cls-1" d="M382.5,641.1c3.1,3.8,6.3,7,8.7,11.4a49.1,49.1,0,0,1,4.8,12.4c2,8.6,1.3,17.7-1.1,26.2-4.8,16.6-17.2,32.8-34.3,37.8-10.6,3.1-21.1,3.4-31.2-1.5-1-.5-1.9,1-.9,1.5,8.6,4.2,19.1,7.8,28.6,6s18-7,24.8-13.5c14.2-13.7,22-34.6,19-54.2-1.6-10.6-7.3-22.4-16.7-28.3-1.4-.9-2.6,1-1.7,2.2Z"/><path class="cls-1" d="M344.1,733.5c.1,4,1.5,7.4.5,11.6a17.3,17.3,0,0,1-5.6,8.7c-6,5.4-14.4,8.1-22.3,8.4s-15.7-1.8-21.5-7.7c-3.2-3.1-6.9-8.2-4.1-12.7s6.3-1.6,8.5,1.5a1.2,1.2,0,0,0,2.2-.6c-.1-7.4-8.9-8.7-13.7-4.6-8.2,7.1.2,18.3,6.2,23.4,13.2,11,37.7,7.5,49.1-4.5,5.6-5.8,9.5-17.8,2.5-24.3a1.1,1.1,0,0,0-1.8.8Z"/><path class="cls-1" d="M300.1,744.2v.2c0,.1,0,.3.1.3s.2,0,.3-.1v-.5Z"/><path class="cls-1" d="M259.1,437.5c3.7-13.1-1.6-25.4-15.3-28.9-9.2-2.3-24.3,0-27.8,10.4-2.3,7,1.8,12.4,6.1,17.4.5.5,1.4-.2,1-.8-3.1-4.6-5.3-11.8-1.5-16.6s8.7-5.1,13.7-5.1c13.8,0,24.1,9.1,22.8,23.4-.1.6.9.7,1,.2Z"/><path class="cls-1" d="M224,438.4c-8.8,1.3-13.7,8.1-10.2,16.6s13.1,13.2,21.3,13.6c.6,0,.8-.9.2-1-7.3-1.1-12.6-6.1-16.4-12.2-1.5-2.4-3.1-5-2.8-8s4.8-6.7,8.2-8.3c.4-.2.1-.7-.3-.7Z"/><path class="cls-1" d="M233.5,408.9c-4.8-7.5-18.1-8-25.7-6.1-9.6,2.5-10.8,10.6-7.1,18.9.5,1.1,2.5.3,2-.9-1.5-3.5-2.7-7.7.3-10.8s5.8-3.1,8.9-3.2c7.1-.1,13,3,19.7,4.5a1.7,1.7,0,0,0,1.9-2.4Z"/><path class="cls-1" d="M216.6,390.2c-6.2-2-12.3.6-9.1,7.8a13.3,13.3,0,0,0,19.5,6c15.1-9.2-7.5-34.2-20.7-24.7a.4.4,0,0,0,.3.7c6.1-1.3,10.5,1.5,14.8,5.6s7.6,8.1,5.5,12.6S216.8,403,213,400c-1.6-1.4-3.3-3.4-3.6-5.6-.5-4.1,4.1-3.4,6.8-2.8a.7.7,0,0,0,.4-1.4Z"/><path class="cls-1" d="M210.3,376.9c1.8-2.6-2.1-7.3-4-9-3.5-3.4-8.4-4.7-13.2-5.3-8.7-1-22.2.4-27.7,8.4-1.8,2.6,1.9,6.4,4.5,4.5,6.8-4.9,13-7.7,21.6-7.1a31.6,31.6,0,0,1,11.3,3,16.7,16.7,0,0,1,4.7,3.1c.9,1,1.4,2.1,2.7,2.5Z"/><path class="cls-1" d="M168.4,403.6c-5.7,5.4-.8,10.5,5.6,11.5s16.5-2.4,19.2-10.1c4.9-13.6-7.3-25.2-18.5-30.4-12.8-5.9-27.7-4.8-40.4.8-15.1,6.7-27.8,20-31,36.4-.8,3.8,4.9,5.4,5.7,1.6,5.2-22.7,28.1-38.4,51.1-37,10.7.7,25.1,5.9,29.4,16.8,3.2,8.1.1,16.5-8.7,18.7-4.8,1.2-17.4.3-11.4-7.3.6-.7-.3-1.7-1-1Z"/><path class="cls-1" d="M179.2,414c6.9-8.2,1.9-15.9-7.3-18.3s-21.7-1.5-28.8,5.6c-21.3,21.2-19.1,55.2-4,79.2a73.3,73.3,0,0,0,37.7,30.6c2.7,1,3.9-3.3,1.2-4.3-23.8-8.2-41.4-30.2-45.7-54.8-2.1-12-.8-24.7,4.8-35.6,2.6-5,6.2-10.8,10.9-14.1s8.4-3.4,12.7-3.7,10.5-.2,15,2.1,4.8,7.5,2.4,12.3c-.4.8.6,1.6,1.1,1Z"/><path class="cls-1" d="M104.8,408.4a19.9,19.9,0,0,0-3.2,9.4c-.2,2.5,3.1,3.6,4.7,2a7.2,7.2,0,0,0,2.2-4.1c.5-3.4-4.5-4.9-5.3-1.4-2.9,12.8-5.2,25-3.7,38.3A86,86,0,0,0,109.8,485c11.3,20.4,30.6,35.1,51.6,44.2,12.8,5.6,27,10.5,41,11.1,2.6.1,2.9-3.6.6-4.3-11.3-3.4-22.8-5.7-33.9-10.1a125,125,0,0,1-29.8-16.7c-16.8-12.9-28.9-31-32.7-52a98.5,98.5,0,0,1,1.9-41.5l-5.3-1.4-.8,1.6,4.7,1.9a16.3,16.3,0,0,1,1.5-7.2c1.3-2.5-2.3-4.7-3.8-2.2Z"/><path class="cls-1" d="M200.5,421.3c-9.2-3-21.1-1.5-28,5.7s-8.8,17.6-8.2,27c1.8,26.6,22.1,48.5,47.9,53.7,22.3,4.5,45.2-1.7,65.4-10.8,2.6-1.2.4-5-2.2-3.8-29,13-66,19-91-5.1-13.7-13.1-23.7-38.1-12.4-55.7,6.5-10.2,17-10.6,27.8-8.6a1.3,1.3,0,0,0,.7-2.4Z"/><path class="cls-1" d="M293.4,343.4c2.6,7.4,7.6,14,11.2,20.8a214.5,214.5,0,0,1,10.2,21.7,210.6,210.6,0,0,1,7.5,21.5c1.3,4,2.8,8.1,2.7,12.3a70.9,70.9,0,0,1-1.4,10.3c-5.3,27-23.7,50.2-48.1,62.8-2.9,1.5-.3,5.9,2.6,4.4,25.5-13.1,45.2-37.5,50.8-65.8,1.4-7.1,2.1-13.5.2-20.4s-5.2-16.8-8.4-24.9a228.6,228.6,0,0,0-10.6-23c-3.9-7.3-7.9-15.7-14.2-21.1-1-.9-3-.1-2.5,1.4Z"/><path class="cls-1" d="M338.4,436.8c-13,27.8-22.2,57.9-49.1,75.9A129.6,129.6,0,0,1,267.4,524a106.5,106.5,0,0,1-32.6,7.3c-12.2,1-24.5,1.1-36.7,2.7-5.1.6-10.6,1.1-15.3,3.2s-7.8,3.7-11.6,5.9c-8.2,4.7-16.1,10.5-22.1,18s-8.1,16.7-7.5,26.3c.2,2.7,4.4,2.8,4.3,0-.6-18.4,16.5-31.7,31.1-39.8,4.2-2.3,8.3-4.7,13-5.8a122.9,122.9,0,0,1,19-2.9c11.8-1.1,23.6-1.5,35.3-3.1,30.9-4.1,60.2-22.1,75.9-49.2,8.8-15.2,15-32.3,19.8-49.2.3-.9-1.2-1.6-1.6-.6Z"/><path class="cls-1" d="M112.1,601.6c-3.6-3.3-8.5-5.3-12.6-1.7s-4.9,9.8-3.4,14.5c2.1,6.8,10.5,11.6,16.6,14s13.4,2.6,19.5-.6c13.1-6.9,17.9-25.7,14-39.2s-16.2-24.5-29.4-29.5-32.2-2.8-42.1,9.7c-1,1.3.6,3.1,1.9,1.9,8.3-8.5,18.2-10,29.5-7.7a49.4,49.4,0,0,1,27.2,15.6c7.9,9,10,19.5,6.5,31S126.1,629,113.6,624c-6.1-2.4-13.6-6.9-14.5-14a11.2,11.2,0,0,1,1.8-7.8c2.9-3.7,7-1.9,10,.5.8.6,1.9-.4,1.2-1.1Z"/><path class="cls-1" d="M74.3,568.5c-12.9-7.7-30.8-2.6-38.5,9.7s-2.4,29.8,9.6,38.4c1.5,1.1,3.1-1.2,1.9-2.4-4.8-4.8-10.1-10.1-10.2-17.4,0-5.6.6-10.9,3.6-15.8a25.3,25.3,0,0,1,12.7-10.1c7.1-2.5,12.8-1.3,19.9-.1,1.3.2,2.3-1.5,1-2.3Z"/><path class="cls-1" d="M49.5,617.4c-9.3.2-19.3,8.6-22.8,16.9s-2.3,16,1.8,23.2c9.3,16.8,32.2,25.7,50.1,17.6,2.3-1,.6-4.2-1.6-3.8-16.2,2.9-34-.8-43.1-16-3.3-5.6-4.9-12.8-2.8-19.2,1.3-3.9,3.9-6.9,6.8-9.8s8.1-5.1,11.8-8.3a.3.3,0,0,0-.2-.6Z"/><path class="cls-1" d="M255.5,531.9c-6.1,1.8-11.9,4.3-18.1,5.9a164.7,164.7,0,0,1-20.7,4.1c-5.2.7-10.5.5-15.5,2a64.2,64.2,0,0,0-13.4,5.9c-15.4,9.2-24.9,24.6-31.4,40.9a265.5,265.5,0,0,0-8.6,26.1c-2.3,8.1-5,14.9-12.7,19.2-11,6.2-25.7,3.7-36-2.9-5-3.2-9.6-8-10.7-14.1-1.4-8.4,5.5-14.8,11.9-19,1.1-.7,0-2.5-1.1-1.7-9.9,6.5-18,17.8-10.4,29.3s20.6,15.9,32.7,15.5a30.5,30.5,0,0,0,18.2-6c6.3-4.7,8.9-10.9,10.9-18.2,5.5-20,11.8-41.6,26.6-56.9a59.5,59.5,0,0,1,13.7-10.7c7.2-4,14.2-5.7,22.3-6.7,14.1-1.8,30.9-2.7,43.1-11a1,1,0,0,0-.8-1.7Z"/><path class="cls-1" d="M108.4,601.5c-9.7,5.1,3.2,12.1,9.5,9.2s4.2-9.1,1.6-13.3c-4.2-7.2-12.6-10.7-20.5-11.8-12.4-1.8-25.6,4-31.5,15.3s-4.9,23.4-.4,34.3c5.3,12.8,16,23.1,29.9,25.5,1.6.2,2.3-2.1.7-2.5-18.9-3.9-30.7-22.1-30.2-40.9.2-8.4,3.3-16.9,10-22.2,9.4-7.6,22-7.8,32.3-1.9,3.9,2.2,15.8,13.6,6.1,16.2-4.1,1.1-13.6-2.6-6.7-6.6.9-.5.1-1.8-.8-1.3Z"/><path class="cls-1" d="M112.8,656c1.5,5.1,8.7,4.8,10.4-.2,2.2-6.6-6.4-11.6-11.8-12s-13.9,3.5-14.7,10.7,3.2,14.4,8.9,18.7c13.2,10,31.4,8.7,42.1-3.8,15-17.4,13.4-43.1,15.1-64.5,1-13.3,9.2-27.2,17.6-37.3s20.2-18.3,33.6-21.5c3-.7,1.7-5.5-1.3-4.6-16.1,4.8-29.5,15.4-39.2,29a101.6,101.6,0,0,0-11.7,22.1c-3.1,8-3,16.2-3.5,24.7-1,18.7-3,37.4-17.5,50.9-9.1,8.4-25.7,8-34.7-.3-5.1-4.7-9-15.2-1.4-19.7a12.2,12.2,0,0,1,12,.1,8.5,8.5,0,0,1,4.1,5.2c1.1,5-5,6.3-7.5,2.2-.1-.2-.6-.1-.5.3Z"/><path class="cls-1" d="M158.2,681.2c-2.5,3-3.4,6.6-6.3,9.4a32.5,32.5,0,0,1-10.7,6.8c-7.9,3-17,3.8-25.4,3.2s-16.7-2.7-23.4-7.6S83,681.2,81.3,672.8a1.3,1.3,0,0,0-2.4,0c-4.6,14.9,10,26.6,22.4,30.7,14.9,4.8,31.6,3.4,45-4.8,5.1-3.1,13.5-10.3,12.9-17,0-.5-.6-.9-1-.5Z"/><path class="cls-1" d="M180.5,658.5c.1,6.7-.1,12.5-5,17.5a20,20,0,0,1-7.9,5.1c-3.2,1.1-6.5.7-9.7,1.6a.6.6,0,0,0-.1,1c6.3,3.6,15.8,0,20.2-5.1s6.6-13.9,4.5-20.4a1,1,0,0,0-2,.3Z"/><path class="cls-1" d="M170.8,679.4c-2.4,4-4.3,7.9-7.8,11.2a66,66,0,0,1-10.1,7.2c-6.2,3.9-11.8,7.5-14.8,14.6-3.7,9-3.4,19.1-1.4,28.5a63.8,63.8,0,0,0,5,14.7c1.8,3.6,4,8.6,7.2,11a.9.9,0,0,0,1.4-.8c-.2-4-2.6-8.2-3.8-12.2s-3.1-9.4-4.2-14.2c-2-9.3-2.9-22.5,3.2-30.7,7.9-10.6,25.1-13.7,27.1-28.8.2-1-1.3-1.2-1.8-.5Z"/><path class="cls-1" d="M143.5,755.1c-10.6-11.5-28.1-16.6-43.4-15.9-7.7.4-14.9,2.5-21,7.2S68.7,758.3,67.6,765c-.2.9,1.2,1.7,1.7.7,1.7-3.3,2.8-6.8,5.4-9.6a29.1,29.1,0,0,1,8.2-6.2,43.3,43.3,0,0,1,19.4-4.6c14-.3,27.4,5.2,39.3,12.2a1.5,1.5,0,0,0,1.9-2.4Z"/><path class="cls-1" d="M67.8,764c-17.4-4.7-32.8,12.8-35.7,28.1-1.6,8.6-.8,17.1,3.7,24.6s11.5,12.3,20,14.5a1.1,1.1,0,1,0,.6-2.2c-15.5-4.5-21.1-20.8-18.3-35.7a41.3,41.3,0,0,1,9-18.7c5.4-6.3,12.6-7.4,20.3-8.3,1.3-.1,1.8-1.9.4-2.3Z"/><path class="cls-1" d="M87.8,779.6c-4.4-2.4-11.3.3-14.9,3.1s-7.5,10.3-8.6,16.2A31.8,31.8,0,0,0,66,817.2c2.6,5.9,7.4,9.2,13.7,10.6a1,1,0,0,0,.5-1.9c-10.6-3.2-13.4-16.7-11.6-26.3a29,29,0,0,1,6.2-13.4c3.9-4.7,7.3-4.5,12.8-5.5a.6.6,0,0,0,.2-1.1Z"/><path class="cls-1" d="M138.2,807.6c4.8,6.3,11.8,9.7,17.8,3s7.4-17.8,6.3-26.3c-2.8-22.4-33-30.6-52.2-28.5-13,1.3-22.2,8.6-24.2,21.8a.8.8,0,0,0,1.5.4c5.9-21.3,32.5-18.4,48.6-12.5,6.7,2.5,16.5,6.5,20,13.1s3.5,16.2,1.2,23.5c-1.1,3.4-2.9,7.8-6.3,9.5s-8.7-1.7-11.5-4.8c-.6-.6-1.7.2-1.2.8Z"/><path class="cls-1" d="M79.3,827.1c-8.8,16.4-2.7,34.2,9.5,46.9s31.2,22.1,48.5,17.7c1.2-.3,1-2.3-.3-2.2-16.6,1.5-32.2-5.4-44-17s-19.5-28.6-12.3-44.6c.4-.9-.9-1.7-1.4-.8Z"/><path class="cls-1" d="M219.4,863.3c-.5,4.4-.7,8.9-3.1,12.9a49.8,49.8,0,0,1-7.3,9.3c-5.8,5.9-12.9,9.5-20.8,11.9-15.7,4.6-33.4,3.1-46.5-7-1-.8-2,.8-1.3,1.6,12.9,13.3,33.7,15.9,50.7,9.8,8.1-2.9,16.3-8,21.8-14.7s8.9-15.7,8.6-23.8c0-1.4-1.9-1.3-2.1,0Z"/><path class="cls-1" d="M218.5,846c-2.2-1.5-6.2-5.3-1.4-6.2a11.4,11.4,0,0,1,6.3,1.1c3.8,2,5,7,4.6,11-.6,6.2-6.8,8-12.2,7.6a27.1,27.1,0,0,1-18.4-8.8c-6.1-7.1-5.8-15.9-3.1-24.5.5-1.4-1.8-2.4-2.5-1-8.7,16.8,2.9,36,21,39,6.5,1.1,14.3.1,17.9-6.1s1.7-17.6-5.5-20.8c-3.5-1.5-8.7-1.3-11.3,1.9s1,6.4,3.9,8a.7.7,0,1,0,.7-1.2Z"/><path class="cls-1" d="M180,770.6c3.9,13.1,14.9,24.4,14.6,38.9-.3,11.6-8.6,21.2-10.3,32.5-3,19.1,18.5,26,33.9,22.5,1.2-.3.7-2.3-.6-2-8.5,2-19.6,1-26.2-5.4-8.7-8.5-1.9-20.5,2.1-29.7s6.2-16.9,3.8-26.3-8-23.4-15.7-31.4a.9.9,0,0,0-1.6.9Z"/><path class="cls-1" d="M191,822.2c-3,4-5.2,8.1-8.7,11.7a48.2,48.2,0,0,1-10,8,50.9,50.9,0,0,1-26.2,6.4c-19.2-.4-36.5-10.9-43.2-29.2-.7-1.8-3.5-1-2.9.8,6.3,19.7,25.4,31.6,45.6,32.4a54.6,54.6,0,0,0,28.7-7c8-4.6,16.7-12.9,18.3-22.4a.9.9,0,0,0-1.6-.7Z"/><path class="cls-1" d="M153.8,809.6c1.4-13.6-7.2-26.4-20.6-29.2A28.7,28.7,0,0,0,102,795.2c-4.1,7.8-4,17.1-2.3,25.5.4,1.9,3.4,1.1,2.9-.8-2.2-8.8-1.7-17.9,3.5-25.6,4-6.1,10.4-9.9,17.5-11.4s14.5-.2,20.1,4.4a27.5,27.5,0,0,1,6.7,8.9c2.3,4.4,2.5,8.6,3.3,13.4Z"/><path class="cls-1" d="M156.4,807.5c4.7-19.1-17.4-31.6-33.4-32.8-22.3-1.5-35.2,18.7-32.2,39.3,1.6,11.6,7.8,25.1,18.2,31.4,1.9,1.1,4.2-1.7,2.5-3.2-10-8.4-16.8-18.8-17.7-32.1s4.1-24.4,15.1-30c19-9.5,48.4,4.6,46.7,27.2-.1.5.7.6.8.2Z"/><path class="cls-1" d="M105.5,841.8c3.8,6.1,11.2,8.7,17.5,11a61.3,61.3,0,0,0,22.8,4.1c14-.3,30.3-6.5,36.4-20.1.5-1.1-.9-2.4-1.8-1.3-4.6,5.1-9,10.1-15.3,13.3a44.1,44.1,0,0,1-20.5,4.7,55.6,55.6,0,0,1-20.1-3.8c-6.2-2.5-11.3-7.3-17.4-9.9-1.2-.4-2.1,1.1-1.6,2Z"/><path class="cls-1" d="M148.2,812.6c6.2-2.2,6.3-7.5,3.1-12.4s-10.3-9.8-16.7-9.8a16.8,16.8,0,0,0-16.3,12.7c-2,8.7,2.6,16.8,8.9,22.5,14.4,13,38.4,13.9,51.8-.8,11-12,7.6-27.8,1.9-41.4-7.5-17.6-21-34.9-21.4-54.7a1.9,1.9,0,0,0-3.7,0c-1,12.2,5.3,24.5,10.6,35s13.3,23.8,15.4,37a26.4,26.4,0,0,1-21.6,30.2,36.9,36.9,0,0,1-26.1-5.3c-6.7-4.3-13-11.7-12-20.1S132.2,792.4,140,795s16.7,10.6,7.8,16.7c-.4.3-.1,1.1.4.9Z"/><path class="cls-1" d="M190.9,682.3c-4.3,1-8.3,4.3-11.8,6.9a74.9,74.9,0,0,0-12.6,11.9c-6,7.3-12.3,17.7-11.4,27.5.2,2,3.4,2.8,3.7.5.8-4.7,1-9.3,2.7-13.8a48.3,48.3,0,0,1,8.4-13.9,64.7,64.7,0,0,1,10.8-10.1c3.5-2.7,7.8-4.6,11-7.6a.8.8,0,0,0-.8-1.4Z"/><path class="cls-1" d="M192.3,682.1c-4.9,2.8-9,7.8-12.9,11.8a129.6,129.6,0,0,0-8.8,10.8,39.6,39.6,0,0,0-8,19.1c-.8,7.3,1.4,14.8,4,21.5a124.8,124.8,0,0,0,5.9,12.9c2.7,5.3,5.3,11.3,9,16.1.8,1,3,.5,2.4-1.1-3.3-9.1-9.2-17.5-13.1-26.5-3-6.9-5.3-14-5.3-21.6s3-13.4,6.8-19.4a94.1,94.1,0,0,1,9.5-11.4c3.6-3.8,8.2-7.1,11.2-11.5.3-.4-.3-.9-.7-.7Z"/><path class="cls-1" d="M258.6,744.4c-2-2.1-5.8-6.7-2.5-9.4s5.6-1.4,7.9-.4c8.7,4.1,1.1,15.7-4,19.4-13.4,9.8-34.9,2.7-44.9-8.8-3.1-3.6-5.4-7.7-5.9-12.4s1-17.5,7.7-16.4a1.3,1.3,0,0,0,.7-2.5c-6.7-2.2-9.9,6.7-11.1,11.8a24.7,24.7,0,0,0,1.6,15.4c4.6,10.6,15.9,17.7,26.9,20.2s23.1,1.2,30.9-7.3c5.9-6.6,9.1-20.1-2.4-22.9-3.3-.8-7.9-.3-10.1,2.8s1.6,8.5,4.7,11c.4.2.8-.2.5-.5Z"/><path class="cls-1" d="M216,714.5c-4,1.9-8.5,6-7.1,10.9s6.1,6.8,10.1,8.1c10.7,3.3,23.5-1,23.3-13.9-.2-19.8-27.5-21.7-40.5-14.2-18.4,10.5-14.5,35.4-3.8,50.1,13.5,18.4,39.3,31.9,62.4,29,2.7-.4,2.8-4.6,0-4.4-17.2,1.5-34.4-4.9-47.7-15.6s-23.4-27.1-18.1-44c4.3-14,25.3-18.5,36.6-10.9,5.4,3.6,9.4,10.6,6.4,17-2,4.3-7,5.6-11.3,5.7s-10-1.3-13.4-4.6-.1-8.9,3.9-11.9c.7-.6.1-1.8-.8-1.3Z"/><path class="cls-1" d="M294.8,759.1c-2.2,3.3-3.3,6.9-6.1,9.8a31.7,31.7,0,0,1-8.7,6.3c-6.9,3.7-13.9,4.1-21.5,5.4-2.3.4-1.5,3.7.5,3.9,8.2.8,18.1-2.2,24.9-6.6s12.7-10.9,12.9-18.3c.1-1.1-1.4-1.4-2-.5Z"/><path class="cls-1" d="M191.9,682c-16,17.2-33.7,47.6-17.7,70.2,9.4,13.1,25.5,17.2,40.1,21.7,8.3,2.5,19.2,6.3,21.6,15.8,1.8,7.4-3.8,14.3-10.7,16.1s-20.3-.7-20.2-9.3c0-2.5,1.5-5.3,4-6s6.8,2.9,8.7,5.6a1.2,1.2,0,0,0,2.1-1.3c-2.3-4.3-6.9-8.9-12.3-6.8s-6.1,6.2-5.5,10.3c1.1,6.6,7.4,10.2,13.3,11.8a21.2,21.2,0,0,0,21-5.2,17.3,17.3,0,0,0,3.6-19.4c-4-9.1-14-13.2-22.9-16-17.7-5.6-40.2-10.8-44.6-32-4-19.4,8.5-40.2,21.8-53.1,1.6-1.5-.9-4-2.3-2.4Z"/><path class="cls-1" d="M237.7,803c15.5,8.4,22.5,25.8,19.4,42.8a35.5,35.5,0,0,1-10.3,20,28.8,28.8,0,0,1-10.3,5.9c-5,1.6-9.1.6-14.1.8-.9,0-1.5,1.4-.5,1.9,6.2,2.9,15.9,2.3,22.1-.2a30,30,0,0,0,15-14.6c6.9-13.3,6.4-30.3-1-43.3-4.3-7.6-10.8-13.5-19.1-16.1a1.5,1.5,0,0,0-1.2,2.8Z"/><path class="cls-1" d="M221.6,873.8c2.1,9,1.4,18-3.9,25.8s-12.4,12.5-20.4,15.9c-16.4,7-35.8,6.1-51.1-3.4-.4-.2-1.1.3-.8.8,12.7,16.3,37.6,14.2,54.5,6.6s31.5-26.5,23.8-46.2a1.1,1.1,0,0,0-2.1.5Z"/><path class="cls-1" d="M143.4,910.4c-15.4,5.6-31.3,4.3-46.2-2.2S70.7,891,62.4,877c-1.5-2.6-5-.3-3.9,2.2,6.8,15.2,22.3,26.8,37.3,32.9s33.5,7.6,48.2-.2c.8-.5.2-1.8-.6-1.5Z"/><path class="cls-1" d="M55.8,830.1c-4.9,6.8-5.1,16.4-4,24.3s3.8,19.2,8.4,27c1.2,2.1,4.8.7,4-1.8-2.4-7.8-6.7-14.7-8.6-22.8a49.3,49.3,0,0,1-1.2-12.7c.2-4.9,1.6-8.8,2.8-13.4.3-.9-.9-1.3-1.4-.6Z"/><path class="cls-1" d="M238.2,538.3c-13.3,1.6-26.5,11.2-35.9,20.1a96.5,96.5,0,0,0-23,34.3c-10,25.1-9.6,55,3.5,79,7.7,13.9,19.9,26,34.6,32.2,2.2,1,4.1-2,2-3.2-12-7.1-22.6-15.6-30-27.4a81.2,81.2,0,0,1-11.8-36c-2.3-25.8,6.4-53,23.6-72.5a85.2,85.2,0,0,1,16.6-14.5c6.7-4.2,13.9-6.7,20.9-10.3a.9.9,0,0,0-.5-1.7Z"/><path class="cls-1" d="M305.1,705.4h2.3c.5,0,.3-.7-.1-.6l-2.3.7Z"/><path class="cls-1" d="M307.8,703.9c-2.1,2.2-3.2,5.1-5.5,7.2a34.9,34.9,0,0,1-7.7,5.5,42.2,42.2,0,0,1-17.8,4.1,72.5,72.5,0,0,1-36.6-9.8c-2.4-1.4-4.7,2.5-2.2,3.8,12.5,6.7,27.5,10.5,41.7,9.3,6.5-.6,13-2.2,18.4-5.8s10-8.4,10.7-13.9a.6.6,0,0,0-1-.4Z"/><path class="cls-1" d="M325.5,471.7c-8.2,16.6-18.8,32.2-32.7,44.6a113.8,113.8,0,0,1-23.1,15.8c-8.4,4.2-17.2,6.5-25.9,9.7-25.7,9.5-43.2,31.2-51.4,56.8s-4.2,54.8,10.9,76.5,40.3,35.2,66.2,37.6c13.2,1.3,27.9-.3,39.5-7.4s17.2-19.6,16.4-33.4c-.2-2.4-3.8-2.5-3.8,0,0,11.8-4.9,22.7-15.3,28.9s-22.6,7.2-34.2,6.4c-24.7-1.6-49.5-14.5-63.7-35-30.1-43.4-10.2-110.8,41-127.1a123.5,123.5,0,0,0,78.1-72.6c.5-1.2-1.5-2-2-.8Z"/><path class="cls-1" d="M329.1,478.1c-7.1,11.1-12.4,22.5-21,32.6a128.2,128.2,0,0,1-22.8,20.7c-15.4,11.2-32.3,20.2-47.3,32.1s-28.7,25.5-33.1,44.2a70.3,70.3,0,0,0,6,48.3c8.8,16.9,24.9,28.2,44,29.7,2.9.2,2.9-4.3,0-4.5-36-2.7-54.6-43.5-45.2-75.6,5.3-18.2,20.8-32.2,35.5-43.3s29.5-18.9,43.4-29.6a135.5,135.5,0,0,0,23.1-22.3c7.6-9.3,15.2-20.2,18.8-31.7a.8.8,0,0,0-1.4-.6Z"/><path class="cls-1" d="M418.9,38.8c-2,6.1-2.2,13-3.1,19.3a129.7,129.7,0,0,1-3.1,16.5,54.3,54.3,0,0,1-18.3,28.1c-22,18.1-51,21.5-77.2,30.3-14.2,4.7-28,11.2-38.7,21.9-2.7,2.7,1.5,7,4.3,4.2,20.8-20.7,51-24.8,77.6-33.9,22.7-7.8,46.3-21.4,54-45.6a102,102,0,0,0,3.7-18.1c.9-7.3,2.4-15.2,2-22.6a.6.6,0,0,0-1.2-.1Z"/><path class="cls-1" d="M285.4,151.9c-14.2,6.6-26.4,19.9-34.4,33.2S239.4,214,237.6,230c-.9,8.7-2.8,16.9-2.5,25.8a103.1,103.1,0,0,0,4.3,25.3c4.9,16.3,13.3,31.5,22.5,45.7,10.8,16.9,23.1,32.7,34.1,49.5,2,3,6.9.2,4.9-2.9-18.2-27.7-40.8-53.5-52.8-84.8-6-15.4-8.9-32.1-6.4-48.6s3.8-31.6,11.1-46.1a88.4,88.4,0,0,1,14.3-20.6c6.4-6.8,13.8-12.1,20.9-18.1,1.9-1.7-.6-4.2-2.6-3.3Z"/><path class="cls-1" d="M294.7,372.3c1.5,4,1.9,8.9,2.6,13.2s5.4,2.3,5.5-.7a22.2,22.2,0,0,0-3-11.5c-1.6-2.9-6-.3-4.5,2.6a16.1,16.1,0,0,1,1.9,8.9h5.6a24.6,24.6,0,0,0-1.7-7.1c-.9-2.4-2.5-4.4-3.7-6.6s-3.3-.4-2.7,1.2Z"/><path class="cls-1" d="M298.6,382.2c1.6,11.2,4.4,22.1,3.9,33.5s-2.9,22.7-8.4,32.4a55,55,0,0,1-23.8,22.5,34.7,34.7,0,0,1-17,3.8,22,22,0,0,1-7.6-1.6c-2.9-1.1-4.9-3.3-7.5-4.8a1.3,1.3,0,0,0-1.9,1.5c3.3,11.7,21.3,10.8,30.2,8.1,12-3.7,22.5-12.3,29.5-22.5a74.3,74.3,0,0,0,12.6-36.2c1.1-12.6.1-27.3-7.3-37.9a1.5,1.5,0,0,0-2.7,1.2Z"/><path class="cls-1" d="M216.7,435.5c-11.8-7-31.1-10.5-37.9,4.9-5.8,13.3,1.2,29.5,10.3,39.5,15.5,16.9,40.1,20.1,61.6,15.3,14.8-3.3,28.4-10.9,39.8-20.7s22.6-22.2,27.2-37.1c10.8-34.5-11.3-68.6-31.6-94.5-1.8-2.2-5,1-3.2,3.2A180.8,180.8,0,0,1,306,382.7c6,12.6,10.4,26.4,9.7,40.6-1.3,28.2-26.8,52.2-51.4,63.1-20.1,8.9-46.8,10.4-65.4-3.1-10.8-7.9-19.6-21.8-18.3-35.6.7-6.3,3.9-11.8,9.9-14.2,8.4-3.5,17.8-.2,26,2.5.3.1.5-.4.2-.5Z"/><path class="cls-1" d="M286.7,344.2c-2.9-8.5-9.7-16.2-14.2-23.9a191.6,191.6,0,0,1-13.7-27.6,117.3,117.3,0,0,1-7.2-28.4c-1.2-10.4.7-19.8,2-30.1.4-2.8-3.9-3-4.7-.6-3.2,9.2-2.8,20.3-1.9,29.8a121.6,121.6,0,0,0,7.2,29.7,199.9,199.9,0,0,0,13.1,27.2c2.6,4.5,5.3,9,8.1,13.3s5.3,8.7,9.1,11.9c1,.7,2.7,0,2.2-1.3Z"/><path class="cls-1" d="M251.4,237.2c5.7-19.9,11.9-39.4,25-55.9,9.8-12.2,22.4-21.5,36.3-28.5s28.4-11.7,42.7-17c7.3-2.7,14.4-5.5,21.5-8.7s14.1-6.5,19.6-12.5c9.2-10.2,15.4-24.1,19-37.3.9-3.2-4.1-4.6-5-1.4-3.2,11.8-8.4,24-16.1,33.5-5.4,6.7-12.3,10.1-20,13.5s-14.7,6.2-22.2,9c-28.1,10.6-57.6,20.7-77.3,44.8-13.7,16.8-22.3,38.6-25.3,60a.9.9,0,0,0,1.8.5Z"/><path class="cls-1" d="M271,212.9c-9.8,22.4,11.7,42.7,33.1,43.9a1.2,1.2,0,0,0,0-2.3,35.6,35.6,0,0,1-25.9-12.7c-6.9-8.2-8.1-18.2-5.8-28.4.2-.7-1-1.4-1.4-.5Z"/><path class="cls-1" d="M326.4,425.7c-.2,13.9-1.1,26.7-7,39.5a82.6,82.6,0,0,1-23,29.1c-20,16.2-46.5,24.5-72.2,23.8a101.3,101.3,0,0,1-42.8-10.6c-2.6-1.4-5,2.6-2.3,3.9,47.6,24.6,116.2,8.2,141.6-41,6.9-13.4,10.8-30,8.2-45-.2-1.4-2.4-1-2.5.3Z"/><path class="cls-1" d="M257.8,428.4c-3.9-9.2-18.5-8.9-24-1.4-7.1,9.6,2,24.5,8.8,31.6,9.1,9.5,21.8,13.2,32.5,4,5.5-4.8,9-11.4,11.9-18s6.6-14.2,7.7-21.2c1.5-9.9-.4-19.8-3.5-29.1a180.4,180.4,0,0,0-12.9-29.6c-.9-1.6-3.8-.5-3.1,1.3,5.1,13.5,12.7,25.7,15.5,40,1.4,7.3,1.8,14.9-.9,21.9-2.2,5.4-4,11.1-6.4,16.5-4.5,10.4-13.3,23.7-26.5,19.9-10.7-3.1-19.5-14.4-21.8-25-1.4-6.2.1-12,6.3-14.5s11.5-.4,15.3,4.5c.5.7,1.4-.2,1.1-.9Z"/><path class="cls-1" d="M277.8,364.6c-3.6-13.1-13.5-25-21-36.2s-16.1-24-22-37.2a85.6,85.6,0,0,1-6.4-19.7c-1.3-6.6-1-13.8-1-20.6,0-13.5,1-27.2,4.3-40.4A84,84,0,0,1,254.3,171c2-2-1-5-3.2-3.1-20.1,18.4-25.9,47.3-26.9,73.5-.6,13.8-.9,28,3.5,41.2s12.2,26.6,20.2,38.8c4.7,7.3,9.7,14.4,14.4,21.7s8.7,15.2,13.9,22.2c.6.7,1.9.3,1.6-.7Z"/><path class="cls-1" d="M416.5,39.7c-1,14.4-1.8,28.1-10.5,40.3-7.2,10.2-18.1,17-29.2,22.1-26.6,12.3-55.8,17.8-82.1,30.9-18,8.9-34.6,21.2-46,38-1.4,2,1.9,4,3.3,1.9,20.9-30.4,57.2-43.5,90.9-54.3,23.5-7.5,50.9-15.2,66.1-36.3,8.7-12,12.4-28.4,10.1-43-.2-1.6-2.5-1.1-2.6.4Z"/><path class="cls-1" d="M227,212c-20.3,38.9.1,84.5,19.9,118.9,9.9,17.1,21,33.7,29.6,51.6,6.3,13.2,12.3,29.7,5.8,44a34,34,0,0,1-7.2,10.1c-3.5,3.5-8.5,8-13.2,9.6-6.4,2.2-14.6-.9-17.8-7-1.9-3.7-1.6-8.4,2.9-9.8a7.1,7.1,0,0,1,8.8,3.8c.4.9,1.6.2,1.5-.7-1.6-9.8-17.2-7.8-17.8,1.7-.8,11.9,12.3,21,23.2,16.9,8.3-3.2,16.9-11.6,21.3-19.3a36.4,36.4,0,0,0,4.6-21.7c-1.5-18.9-12.6-36.7-22.1-52.6-12.4-20.7-25.8-41.1-34.9-63.6-5.2-12.7-9.1-26-10-39.6s2.4-28,7.1-41.6c.4-1-1.2-1.6-1.7-.7Z"/></svg>