<svg xmlns="http://www.w3.org/2000/svg" width="71.218" height="61.268"><path fill="#4AACD7" d="M35.617 31.159c-5.867 0-5.867 8.9 0 8.9s5.858-8.9 0-8.9M12.061 8.91a35.58 35.58 0 0 1 47.1 0l-3.154 3.121a31.14 31.14 0 0 0-40.8 0Zm-1.863 51.622a35.59 35.59 0 0 1-1.283-48.5l3.154 3.154a31.17 31.17 0 0 0 .417 41.286 71.15 71.15 0 0 1 46.254 0 31.163 31.163 0 0 0 .417-41.278l3.154-3.162A35.583 35.583 0 0 1 61.036 60.5a2.22 2.22 0 0 1-2.451.629 66.82 66.82 0 0 0-45.96 0 2.22 2.22 0 0 1-2.427-.597m38.4-42.9-6.75 11.623c6.5 6.365.245 17.4-8.62 14.928-.866 1.5-1.977 4.306-4.273 2.982s-.425-3.709.433-5.2c-6.5-6.373-.245-17.4 8.62-14.936l6.801-11.806a4.45 4.45 0 0 1 3.857-2.231 4.45 4.45 0 0 1-.106 4.633Z" data-name="Path 110464"/></svg>