<svg xmlns="http://www.w3.org/2000/svg" width="45" height="45"><path d="M22.398 39.434c-9.203 0-16.664-7.461-16.664-16.664S13.195 6.105 22.398 6.105s16.66 7.461 16.66 16.665c-.007 9.199-7.46 16.652-16.66 16.664m0-31.528c-8.21 0-14.863 6.657-14.863 14.864s6.653 14.863 14.863 14.863c8.207 0 14.864-6.656 14.864-14.863-.012-8.204-6.66-14.852-14.864-14.864m0 0" style="stroke:none;fill-rule:nonzero;fill:#41515a;fill-opacity:1"/><path d="M23.469 21.438a1.61 1.61 0 0 0-2.266 0 1.62 1.62 0 0 0 0 2.269 1.61 1.61 0 0 0 2.266 0 1.62 1.62 0 0 0 0-2.27M9.512 22.574A12.85 12.85 0 0 1 15.93 11.47a.8.8 0 0 1 1.09.297q1.799 3.118 3.597 6.242l-.687.398a4.8 4.8 0 0 0-2.406 4.168v.797h-7.212a.8.8 0 0 1-.8-.797m6.465-.793a6.4 6.4 0 0 1 .804-2.402c.43-.742 1-1.399 1.684-1.918q-1.207-2.093-2.418-4.184a11.22 11.22 0 0 0-4.902 8.504Zm3.261 4.563.696.402c1.105.633 2.414.8 3.644.477.406-.11.797-.27 1.16-.48l.692-.403.398.691 3.215 5.547a.803.803 0 0 1-.293 1.094 12.8 12.8 0 0 1-12.824 0 .8.8 0 0 1-.29-1.094c1.239-1.992 2.419-4.183 3.602-6.238Zm5.582 2.144q-.406.17-.828.282a6.4 6.4 0 0 1-3.32 0 6 6 0 0 1-.832-.282c-.8 1.395-1.61 2.79-2.414 4.184a11.24 11.24 0 0 0 9.812 0Zm7.23-11.52a11.2 11.2 0 0 0-3.429-3.69l-2.414 4.183a6.4 6.4 0 0 1 1.691 1.918c.426.738.7 1.555.801 2.402h4.832a11.3 11.3 0 0 0-1.472-4.82Zm1.384-.8a12.8 12.8 0 0 1 1.722 6.414c0 .441-.36.8-.8.8h-7.211v-.8a4.76 4.76 0 0 0-.637-2.402 4.84 4.84 0 0 0-1.766-1.766L24.055 18l.398-.687 3.203-5.555a.8.8 0 0 1 1.082-.297 12.84 12.84 0 0 1 4.703 4.703Zm-11.094 3.2a3.2 3.2 0 0 1 2.262.94 3.198 3.198 0 0 1 0 4.527 3.202 3.202 0 0 1-4.528-4.526 3.2 3.2 0 0 1 2.266-.942m0 0" style="stroke:none;fill-rule:nonzero;fill:#42515a;fill-opacity:1"/></svg>