<svg xmlns="http://www.w3.org/2000/svg" width="294.67" height="262.949"><g data-name="Group 426" transform="translate(-260.33 -2594.019)"><circle cx="115" cy="115" r="115" fill="#c3e3f2" data-name="Ellipse 284" transform="translate(292 2621)"/><g data-name="Group 360"><path fill="#fff" d="m309.401 2785.001 10.918-4.359 42.82-4.57 17.936-2.373 27.076-2.584 30.962-3.918 46.2-5.059 35.523 6.525-1.132 3.176-42.515 6.829-60.1 6.333-50.923 7.583-25.62 1.9-30.642-4.309-2-2.272Z" data-name="Path 111406"/><g fill="#4aacd7" data-name="Group 364"><path d="M371.826 2663.838c-.852-.1-.757-1.1-.769-1.746-.029-2.047.078-4.09.157-6.135.133-2.54.056-5.081-.012-7.622-.055-2.613-.029-5.227-.12-7.84-.029-6.458-.3-12.915-.74-19.357q-.985-9.014-1.647-18.07a19.5 19.5 0 0 1 .025-4.29.664.664 0 0 1 .846-.4 1.06 1.06 0 0 1 .556 1.039c.092.817.156 1.637.209 2.457a29 29 0 0 1 .052 3.127c.182 2.592.444 5.178.7 7.764.228 3.477.818 6.917 1.083 10.39.525 7.629.687 15.25.724 22.894-.028 2.589.125 5.175.091 7.764-.085 2.473-.251 4.942-.324 7.417-.139.809.293 2.556-.831 2.608" data-name="Path 111407"/><path d="M371.112 2642.609q0 2.172-.008 4.343a.6.6 0 0 1 .33.1 331 331 0 0 0-.194-3.983q-.056-.869-.126-1.736zm-1.037 22.06c-.756-.28-.741-1.177-.6-1.836.055-3.433.1-6.87.2-10.3a426 426 0 0 0-1.594-45.075c-.46-1.8 1.348-1.911 1.461-.108 1.151 5.231 1.033 10.535 1.494 15.811.306 4.442.667 8.86.947 13.28a154 154 0 0 1 .992 19.011c-.181 1.248.377 4.161-.922 4.686q.012.69.018 1.38v.575c.774.036 2.163-.165 2.1.985a31 31 0 0 0 3.753-.386c.576-3.375.486-11.139 3.444-13.078a33.4 33.4 0 0 1 3.9-2.74 26.5 26.5 0 0 0 4.554-1.685 1.15 1.15 0 0 0 .162.612.8.8 0 0 0 .351.279.7.7 0 0 0 .09.19.73.73 0 0 0 .616.319.9.9 0 0 0 .241-.035.76.76 0 0 0 .5-.571 2 2 0 0 0 .037-.257c.028-.229.038-.461.052-.692l.02-.326a39 39 0 0 0 5.873-1.662c1.269-.453 3.6.228 3.4-1.777.719-4.39.444-8.839.262-13.262a108 108 0 0 0-.471-12.377 58 58 0 0 0-.487-8.087c-.266-2.18.019-4.492-.667-6.591a17 17 0 0 0-5.216-1 13.6 13.6 0 0 0-3.806-.522c-.005-.4-.011-.794-.024-1.19a.8.8 0 0 0-.041-.224q-.01-.205-.031-.4c0-.024-.006-.047-.01-.07a19.4 19.4 0 0 1 4.283.655c2.249.354 5.964.184 6.494 2.992.419 3.188.458 6.417.91 9.605.043 5.357.777 10.673.634 16.041.037 4.2.552 8.433.037 12.622-.483 3.762-.209 5.165-4.584 5.419a29 29 0 0 1-7.188 1.836c-1.867.661-3.694 1.467-5.587 2.032-4.558 2.877-4.737 2.975-5.491 8.373-.637 1.787-.148 6.209-1.5 7.095a22 22 0 0 1-5.291.526c-1.109-.008-2.225-.047-3.314-.072Z" data-name="Path 111408"/><path d="M368.545 2599.662a3.61 3.61 0 0 1 3.14-2.693 37.5 37.5 0 0 1 8.659-.284c1.732.077 3.459.154 5.167.088a20 20 0 0 1 3.443.646c0 .074-.007.147-.011.22q-.01.254-.016.509-.011.546.006 1.093c-3.349-.778-6.727-.362-10.122-.81h-1.36c-2.359-.012-4.909-.023-7 .858-.807.422-.407 1.77-1.261 2.032h-.031c-.794-.001-.779-1.102-.614-1.659" data-name="Path 111409"/><path d="m389.129 2597.664-.017-.035z" data-name="Path 111410"/><path d="M357.386 2750.011c-.354-.511-.3-1.176-.615-1.716a26 26 0 0 0-1.738-2.5 6.5 6.5 0 0 1-.457-2.651 22.5 22.5 0 0 1 .7-8.212c.643-1.721.711-3.582 1.324-5.3.381-1.2 1.422-1.98 2.122-2.981a7.05 7.05 0 0 1 3.745-1.63 23.3 23.3 0 0 1 3.857.054c1.578.026 3.154.074 4.726.228 1.8.165 3.555.514 5.352.612 1.289.041 2.582.046 3.87.079a24 24 0 0 0 7.2-.853c1.5-.421 3.069-.444 4.585-.791a36 36 0 0 1 .2-5.954c.152-.822-.349-3.334 1.067-3 .5.195.519.8.753 1.215.305.42.325 1.091-.27 1.222-.112 2.058-.379 4.111-.291 6.178.214.719.368 1.745-.577 1.974q-1.343.299-2.711.473a36 36 0 0 0-4.357.871 51 51 0 0 1-9.78.3c-2.523-.214-4.943-.689-7.469-.716q-1.254-.026-2.509-.071a10.6 10.6 0 0 0-4.6.36 7.4 7.4 0 0 0-1.491.814c-.49.491-.81 1.127-1.335 1.6a7.05 7.05 0 0 0-.978 3.173 48 48 0 0 0-1.453 7.3c-.086 1.375.07 2.751.071 4.127-.033.691.468 1.166.865 1.67a8.5 8.5 0 0 1 1.316 2.34 2.9 2.9 0 0 1 .207 1.4.732.732 0 0 1-1.329.385" data-name="Path 111411"/><path d="M265.465 2760.352c-.734-.723.014-1.336.454-1.97 1.222-2.381 4.114-2.545 6.465-2.88 1.974-.259 3.956-.473 5.936-.675 3.986-.289 7.951-.886 11.955-.819 3.79-.018 7.581.045 11.369-.044 2.427-.1 4.847-.331 7.274-.432 6.252-.157 12.51.058 18.75-.468 3.939-.138 7.848-.675 11.774-.988 3.835-.435 7.653-1.017 11.494-1.411a52 52 0 0 0 6.588-1.2c.238-.1.472-.216.711-.318a.684.684 0 0 1 .988-.138c2.01 2.387-5.25 2.888-6.535 3.229-3.806.543-7.637.906-11.441 1.468-6.9.715-13.821 1.243-20.756 1.5-3.71.093-7.421-.015-11.131.1-4.337.234-8.667.579-13.016.485-3.026 0-6.086-.017-9.1.079-2.94.187-5.87.491-8.808.709-2.8.3-5.608.532-8.377 1.029a5.55 5.55 0 0 0-2.372.956 8.7 8.7 0 0 0-.877 1.1c.046.424-.276.637-.614.751a.655.655 0 0 1-.731-.063" data-name="Path 111412"/><path d="M316.13 2754.865a.7.7 0 0 1 .537-.805c3.075-.758 6.249-.741 9.36-1.262q4.541-.524 9.068-1.171c2.762-.374 5.543-.6 8.308-.956 2.73-.512 5.5-.778 8.226-1.317.829-.089 1.118 1.22.4 1.58-.845.244-1.725.4-2.592.567-3.035.521-6.107.782-9.144 1.279a3.4 3.4 0 0 1-1.181.044l-1.78.2c-5.64.709-11.26 1.639-16.928 2.074-1.188.129-2.372.289-3.561.415a.7.7 0 0 1-.713-.648" data-name="Path 111413"/><path d="M288.164 2792.382a12.77 12.77 0 0 1-6.49-1.229 7.8 7.8 0 0 1-2.9-1.409 21 21 0 0 1-2.532-1.363c-.739-.466-1.439-1-2.144-1.512a49 49 0 0 1-4.048-3.082c-.421-.4-1.033-.818-.941-1.478a68 68 0 0 1-5.729-4.184 4.07 4.07 0 0 1-1.734-3.929 21.3 21.3 0 0 1 .8-4.461 49 49 0 0 0 1.717-3.881 9.4 9.4 0 0 0 1.1-2.873c.036-1.218 0-2.439.018-3.658.046-.613-.16-1.517.534-1.82a2.1 2.1 0 0 1 .9-.664c.254-.111.557-.28.835-.154a.81.81 0 0 1 .4 1.042c-.15.4-.648.537-.994.718-.265.151-.1.5-.126.746q.014.515.02 1.031c.144 4.119-.119 3.985-1.677 7.607-.456 1.155-1 2.007-1.426 3.1a32 32 0 0 0-.6 4.006c-.219 1.219 3.4 3.489 4.37 4.238 2.956 1.96 5.773 4.115 8.718 6.093 1.353.941 2.647 1.963 3.978 2.934a11.5 11.5 0 0 0 3.853 2.112 22.9 22.9 0 0 0 7 .112 41.5 41.5 0 0 0 5.217-.914 40 40 0 0 1 2.246-.315c.65-.147 1.384-.213 1.593.6a.944.944 0 0 1-.548 1.151c-1.715.359-3.5.389-5.191.9a35.7 35.7 0 0 1-6.219.536" data-name="Path 111414"/><path d="M299.326 2790.956c-.453-.993.552-1.261 1.169-1.759 4.282-4.62 10.574-6.271 16.389-8.131 3.476-.992 6.941-2.039 10.466-2.852a67 67 0 0 1 9.836-1.263c5.382-.411 10.758-.837 16.128-1.355 1.389-.074 2.782-.024 4.172-.072a61 61 0 0 0 6.576-.854c3.846-.494 7.65-1.305 11.516-1.621 3.737.06 7.312-.979 10.978-1.508a37 37 0 0 0 4.245-.6c2.113-.459 4.164-1.185 6.311-1.483 2.231-.222 4.469-.5 6.713-.513.88.049 1.012 1.568.1 1.7a70 70 0 0 0-8.153.878c-2.108.468-4.174 1.13-6.318 1.432-1.072.165-2.156.235-3.233.377-2.1.318-4.173.828-6.277 1.147-2.02.309-4.075.236-6.1.53-5.424.7-10.8 1.856-16.248 2.284a66 66 0 0 0-6.655.33c-6.518.81-13.107.934-19.62 1.781a84.4 84.4 0 0 0-12.58 3.027c-4.692 1.406-9.5 2.778-13.757 5.283-1.626.846-2.736 2.411-4.355 3.251-.183.643-1.042.489-1.303-.009" data-name="Path 111415"/><path d="M394.008 2772.665c-.665.077-1-.9-.521-1.325a4.2 4.2 0 0 1 1.585-.51c.941-.19 1.9-.3 2.847-.436a.72.72 0 0 1 .676-.3c1.353-.064 2.7-.231 4.044-.376 1.035-.1 2.061-.283 3.095-.414a17 17 0 0 1 1.75-.179.57.57 0 0 1 .4.16c5.406-.784 10.843-1.289 16.276-1.838 4.014-.583 8.008-1.312 12.026-1.889 3.073-.421 6.059-1.307 9.135-1.7 3.488-.365 6.928-1 10.368-1.67 3.153-.486 6.256-1.241 9.387-1.825a10.5 10.5 0 0 1 2.182-.184.928.928 0 0 1 .206 1.667 7.5 7.5 0 0 1-1.278.427c2.277-.108 4.543-.395 6.8-.683.84-.058 1.772-.518 2.583-.188a52.4 52.4 0 0 1 11.987-1.375 5 5 0 0 0 .783 0c.777-.046 1.624-.091 1.753.794.106 1.01-.917 1.06-1.662 1.032-6.9-.211-13.554 1.724-20.279 2.945-2.05.332-4.115.586-6.186.725-.642 0-1.581.225-1.895-.507-5.566 1.225-11.229 1.9-16.847 2.833-3.9.933-7.8 2.009-11.845 1.95-.59.108-1.18.22-1.775.3a.9.9 0 0 1-.6-.079.761.761 0 0 1 .11-1.353 101 101 0 0 1-10.6 1.3c-1.588.142-3.172.323-4.754.518a37 37 0 0 0-2.016.2l.08-.01h.032-.032q-1.1.137-2.2.29a2 2 0 0 0-.165-.037v-.008a5.5 5.5 0 0 0-1.875.084c-.422.058-.845.114-1.266.187-.623.106-1.239.245-1.85.407-1.55.149-3.1.259-4.662.259-1.593.212-3.2.353-4.78.632-.28.214-.7.1-1.024.191Z" data-name="Path 111416"/><path d="M522.069 2772.131a1 1 0 0 1 .619-1.271 5.6 5.6 0 0 1 .9-.741 13.6 13.6 0 0 0-2.391-.862 43 43 0 0 0-5.952-1.567c-3.069-.739-6.221-1.034-9.311-1.673-2.413-.4-4.729-1.215-7.149-1.581a34.5 34.5 0 0 1-7.079-1.65 7 7 0 0 1-.653-.241.816.816 0 0 1-.154-1.24c.5-.481 1.616.256 2.219.361 3.1.932 6.355 1.058 9.469 1.907 2.315.646 4.691 1.015 7.054 1.432a70.6 70.6 0 0 1 11.49 2.489c1.537.6 4.065.768 4.066 2.911-.01.734-.681 1.1-1.195 1.5-.464.538-1.538 1.179-1.933.226" data-name="Path 111417"/><path d="M542.032 2772.68c-3.17-.452-6.233-1.469-9.371-2.1-.557.749-1.768.132-2.519.022-1.118-.284-2.225-.61-3.337-.919q-1.7-.475-3.4-.96c-.639-.259-1.584-.21-1.954-.869-5.6-1.335-11.272-2.344-16.886-3.61-.272.937-2.133.3-2.826.291-1.375-.178-2.745-.4-4.115-.611a219 219 0 0 0-3.119-.455 6.5 6.5 0 0 1-1.121-.193.93.93 0 0 1-.464-1.168c-.531.032-1.06.126-1.592.134a.685.685 0 0 1-.638-.447c-.231-.677.233-1.048.872-1.1q.702-.134 1.412-.213c.279-1.286 2.073-.507 2.919-.307 2.168-.174 4.345-.316 6.521-.284a63 63 0 0 1 9.8 1.613c1.358-.77 6.425.9 8.032 1.4 4.305 1.171 8.7 1.915 13.077 2.733.929.182 1.855.381 2.782.573a33 33 0 0 1 4.888.365 51.6 51.6 0 0 1 9.329 2.326 19 19 0 0 1 3.757.472 1.023 1.023 0 0 1 .35 1.333c-.685 1.027-3.067.943-4.208.982-1.991 1.158-5.257.33-7.437-.038.076.46-.229 1.069-.752 1.03" data-name="Path 111418"/><path d="M427.04 2746.911q-5.575-.008-11.15-.079a29 29 0 0 1-3.141-.152 2.33 2.33 0 0 1-1.2-.39c-.471-.366-.624-.99-.953-1.468a13 13 0 0 1-1.319-2.049 20 20 0 0 1-2.343-5.168 17 17 0 0 1-.169-2.416c-.121-1.175-.286-2.342-.3-3.526-.191-1.986.144-4.027-.284-5.984-1-.433-2.127-.233-3.159-.488-.835-.3-.708-1.323-.746-2.039-.054-1.035-.031-2.069-.019-3.106a28.3 28.3 0 0 1-8.277-2.446.526.526 0 0 1-.646-.137l.019.022c-.228-.22-.561-.322-.752-.582a.833.833 0 0 1 .138-1.15c.485-.317 1.039.071 1.511.237 1.166.483 2.33.973 3.535 1.348a24 24 0 0 0 4.878 1.1c.967-.041 1.183 1.017 1.146 1.785.029 1.094.006 2.188.074 3.281 4.323.1 4.118 1.561 4.309 5.309a44.5 44.5 0 0 0 .37 5.889 14 14 0 0 0 .316 3.138 37 37 0 0 0 2.246 4.54 9.4 9.4 0 0 1 1.376 2.314 52 52 0 0 0 6.064.152c1.468-.207 2.935-.5 4.406-.658 5.7.093 11.394-.782 17.083-1.035 3.15-.094 6.292.144 9.435.321.712-.077 1.368.131 1.477.946a1 1 0 0 1-.775 1.161c-3.942.165-7.872.537-11.794.946a107 107 0 0 1-11.356.384" data-name="Path 111419"/><path d="M485.134 2761.655a.78.78 0 0 1-.659-.514 13 13 0 0 1-.947-1.84 28.5 28.5 0 0 1-1.5-3.748 26 26 0 0 1-1.309-3.009 2.5 2.5 0 0 1-.189-1.4 5.97 5.97 0 0 0-3.261-3.005.81.81 0 0 1-.857-.076c-.593-.221-1.191-.419-1.79-.622a6.1 6.1 0 0 1-2.12-.306c-.388.643-1.18.369-1.76.2-.97-.284-1.931-.6-2.9-.888a37 37 0 0 0-4.6-1 3.3 3.3 0 0 1-1.319-.322c-1.667.028-3.353-.149-5.031-.047-1.805.055-3.589.364-5.39.474-2.359.169-4.742-.12-7.091.2l.07-.014c-1.015.285-1.54-1.287-.734-1.844a1.85 1.85 0 0 1 1-.278c.866-.058 1.525-.064 2.354-.081.56-.017 1.053-.249 1.6-.3 1.8-.147 3.614-.156 5.419-.182a9 9 0 0 0 1.925-.1 35.6 35.6 0 0 1 5.136-.023 1.7 1.7 0 0 1 .79.194 10 10 0 0 0 1.1.023 22 22 0 0 1 3.876.338c3.524.57 6.869 1.941 10.279 2.851a6.92 6.92 0 0 1 4.254 3.246 14.8 14.8 0 0 1 2.116 5.431 22.4 22.4 0 0 0 1.539 3.541c.468.738 1.407 2.974-.001 3.101" data-name="Path 111420"/><path d="M373.859 2663.945a4 4 0 0 1-.431-.394c-4.8-.382-3.608-5.265-3.557-8.6-.006-4.052.343-8.094.431-12.146.022-.928 0-1.859-.007-2.79-.853-2.765-.108-5.773-.022-8.609.218-2.883-.585-6.129.886-8.751-.083-3.079-.176-6.159-.4-9.233-1.525-2.389-1-5.266-1.435-7.752-.62-3.415-.423-9.274 4.5-8.414 1.8-1.835 4.469-1.775 6.945-1.715.542.013 1.074.026 1.586.02 1.057.051 2.115.044 3.172.037a28.2 28.2 0 0 1 6.568.473c1.729.343 3.264 1.337 5.008 1.6a4.7 4.7 0 0 1 4.519 2.395c1.189 2.275.71 4.935.639 7.393-.108 2.932-.048 5.867-.122 8.8-.5 3.694.873 10.734-3.029 12.6-.249 3-3.313 5.975-6.292 4.165-.19.636-.412 1.347-.685 2.055-.009-.625-.056-1.246-.094-1.87.038-1.1.049-2.2.054-3.307 0-1.5-.03-3.007-.051-4.51a26 26 0 0 0-.115-2.191c-.047-.482-.113-.961-.173-1.442l-.019-.4q-.057-1.172-.06-2.343 0-1.108-.026-2.217c-.018-.719-.048-1.438-.057-2.158v-.049c0-.358 0-.714-.012-1.071v-.088.096q.002-.086-.006-.173v-1.155c0-.778-.027-1.556-.07-2.332-.04-.72-.112-1.438-.173-2.156a.75.75 0 0 0-.112-.33c-.046-.645-.109-1.288-.158-1.933a65 65 0 0 0-.244-2.954c-.052-.453-.1-.906-.178-1.356-.038-.227-.076-.454-.106-.68a.75.75 0 0 0 .265-.575c-.009-.547-.013-1.1-.031-1.643a.8.8 0 0 0-.042-.224 7 7 0 0 0-.03-.4 1.1 1.1 0 0 0-.119-.4q-.036-.062-.072-.122v-.006a.92.92 0 0 0-.484-.516.76.76 0 0 0-.935.341 1.66 1.66 0 0 0-.134.734q-.01.254-.016.509a17 17 0 0 0 .081 2.189c.037.338.094.67.15 1.005s.1.655.134.983q.12 1.006.2 2.016v-.019q.027.363.051.725c.046.715.117 1.428.169 2.143q.073 1.008.122 2.019c.067 1.36.2 2.717.25 4.079v2.715c0 1.524-.026 3.054.066 4.576.025.425.068.849.117 1.272q.044.833.081 1.667c.066 1.49.084 2.983.09 4.475.007 1.558-.006 3.116.078 4.672q.017.325.029.65c-.045 1-.11 2.005-.146 3.009a48 48 0 0 1-.1 1.9 3.58 3.58 0 0 1-3.387 1.085 9 9 0 0 1-.65 1.178l-.226.359a4.89 4.89 0 0 1-2.588 6.448 9.6 9.6 0 0 1-2.379 2.24 68 68 0 0 0-1.73 11.79l.032-.474a3.755 3.755 0 0 1-3.552 3.842 3 3 0 0 1-1.968-.757" data-name="Path 111421"/><path d="M379.361 2660.732h.014q-.002.057-.008.115z" data-name="Path 111422"/><path d="M391.93 2630.453v-.012.043z" data-name="Path 111423"/><path d="M391.588 2614.602v.038z" data-name="Path 111424"/><path d="m389.129 2597.664-.035-.072q.018.038.037.075Z" data-name="Path 111425"/><path d="M376.558 2655.758c-4.034-1.1-3.17-5.863-2.588-9 .659-4.507 1.074-9.045 1.449-13.583.463-3.307.87-13.575 2.85-15.56 2.666-2.552 6.362.757 5.768 3.886-.774 6.514-1.547 13.027-2.232 19.552 1.025-.705 2.273-.875 3.318-1.522a17.4 17.4 0 0 1 2.485-1.569c-.112-2.568-.622-5.916 1.787-7.6a3.93 3.93 0 0 1 1.043-2.086c0 1.462 0 2.924.077 4.384q.018.325.029.651c-.044 1-.109 2.005-.146 3.009a43 43 0 0 1-.134 2.286c-.073.807-.143 1.615-.219 2.421-.071.773-.159 1.546-.2 2.321-.022.4-.036.8-.033 1.2 0 .2 0 .391.013.587a1.23 1.23 0 0 0 .165.663.8.8 0 0 0 .351.28 1 1 0 0 0 .031.081c-.963.554-1.928 1.106-2.911 1.629a9.06 9.06 0 0 0-4.509 2.545c-1.864 1.742-2.89 5.483-5.746 5.483a3.6 3.6 0 0 1-.648-.058" data-name="Path 111426"/><path d="M391.872 2645.037c.033-.552.073-1.1.111-1.653.083-1.226.1-2.453.122-3.681q.008-.566.01-1.133c0-.385-.011-.772 0-1.157.03-.776.022-1.551.011-2.327-.008-.624-.055-1.246-.094-1.869.04-1.1.051-2.2.054-3.309q0-1.31-.021-2.621a3.29 3.29 0 0 1 3.8 1.467c-.348-2.871 2.007-6.365 5.123-4.758a4.365 4.365 0 0 1 2.642 4.629c-.122 2.84.687 6.212-1.257 8.594-.3 2.952-.521 7.376-4.524 7.223a11.2 11.2 0 0 0-5.087.363q-.456.252-.909.509.012-.143.019-.277" data-name="Path 111427"/><path d="M382.901 2608.869c-2.757-.857-5.405-2.148-8.3-2.621a3.72 3.72 0 0 1-4.189-1.853c-3.241-1.548-3.419-6.646-.344-8.458 1.564-.778 3.431-1.622 5.213-1.254 4.346 1.522 9.131 1.666 13.689 2.547a4 4 0 0 0-.03.407q-.01.254-.016.509a17 17 0 0 0 .081 2.19c.037.338.094.67.151 1s.1.655.134.983q.121 1.007.2 2.016v-.019q.028.363.051.725c.046.715.117 1.428.169 2.143q0 .075.01.149a15.4 15.4 0 0 0-2.8-.665 3.77 3.77 0 0 1-3.364 2.26 3.4 3.4 0 0 1-.655-.059" data-name="Path 111428"/><path d="m391.333 2607.812-.009-.1a.7.7 0 0 0-.111-.33c-.046-.644-.11-1.288-.158-1.932a65 65 0 0 0-.245-2.955c-.051-.453-.1-.906-.177-1.356a20 20 0 0 1-.105-.68.75.75 0 0 0 .263-.575c-.009-.547-.013-1.1-.031-1.643a.8.8 0 0 0-.041-.224 6 6 0 0 0-.031-.4 21.3 21.3 0 0 1 5.4 2.055 5.216 5.216 0 0 1 .471 7.567 3.57 3.57 0 0 1-2.649 1 10.2 10.2 0 0 1-2.577-.427" data-name="Path 111429"/><path d="m389.129 2597.664-.036-.073q.02.036.036.074Z" data-name="Path 111430"/><path d="M287.644 2792.003c-3.837-.744-10.188.146-11.629-4.441-2.147-.878-4.4-2.33-4.642-4.86a6 6 0 0 1-.453-.563c-2.335-.272-4.27-1.9-6.072-3.29-4.957-3.293-2.522-9.618.086-13.649.768-3.177-2.488-7.153.97-9.613 1.977-1.361 4.588-.482 6.788-.269a91.6 91.6 0 0 0 13.669.346c15.825-1.771 31.769-1.921 47.668-2.384 7.759-1.121 15.529-2.214 23.353-2.764a14.4 14.4 0 0 1-2-1.278 1.43 1.43 0 0 0 .369-1.691 1.3 1.3 0 0 0-.131-.226 1.4 1.4 0 0 0-.816-.691l-.219-.126a3.4 3.4 0 0 0-.459-.215l-.2-.189a3.8 3.8 0 0 0-.675-.487 2.4 2.4 0 0 0-.337-.155 7.42 7.42 0 0 1 1.582-5.019c.825-2.6 1.071-4.749 2.812-6.75-.93-9.676 1.583-9.278 10.044-9.1.215-.006.43 0 .644 0a4.1 4.1 0 0 0 1.964-.277c4.554-.519 9.127 1.112 13.65 1.615 3.478.667 7.054-.526 10.55-.878-2.569-1.719-3.521-5.838-.768-7.843 2.182-1.417 4.851-.209 7.1.425a4.84 4.84 0 0 1 3.967 5.3c4.26 2.6 1.8 8.277 2.432 12.341 1.845 4.185 6.9 10.1 4.6 14.7a5.55 5.55 0 0 1-.657 6.4c.62.049 1.232.108 1.839.155a.743.743 0 1 0 1.355.393.7.7 0 0 0-.087-.323 10.8 10.8 0 0 0 3.237-.337c5.119-.473 6.887 7.511 2.479 9.716a98 98 0 0 1-13.988 2.827c-1.253 3.3-5.354 2.637-8.195 3.147q-7.453.825-14.91 1.591c-4.04.519-8.172.468-12.143 1.411-2.944.46-6.348 2.081-9.15.427-4.422.748-8.809 1.683-13.2 2.606-2.685.414-5.97 1.809-8.267-.3-1.857.211-3.8.563-5.6-.122-4.087 1.171-8.31 1.775-12.4 2.926-4.626 1.276-9.134 2.951-13.8 4.08-1.957.372-3.872.79-5.318 2.271-1.121 3.139-4.966 3.6-7.831 4.128a24.7 24.7 0 0 1-6.223 1.083 14 14 0 0 1-.988-.048" data-name="Path 111431"/><path d="M412.526 2756.973a.744.744 0 1 0 .717-.77.753.753 0 0 0-.717.77m11.942 2.821a3 3 0 0 0-.478.1.94.94 0 0 0-.49.35.75.75 0 0 0 .109.978 1.4 1.4 0 0 0 .574.274q.165.055.325.124a.74.74 0 0 0 .485.176.75.75 0 0 0 .474-.165.74.74 0 0 0 .264-.485c1.49-.11 2.99-.043 4.481-.155.881-.067 1.759-.17 2.639-.256a29 29 0 0 1 2.514-.126h1.378c.494-.005.985-.028 1.479-.057s.99-.066 1.486-.1c.478-.028.957-.04 1.435-.059.922-.035 1.845-.066 2.767-.117.428-.025.856-.057 1.285-.085q.271-.018.544-.031a1.3 1.3 0 0 0 .91-.419 1.07 1.07 0 0 0-.08-1.493 1.69 1.69 0 0 0-1.29-.331q-.54.002-1.079.023-1.113.041-2.226.086c-.82.033-1.64.055-2.458.1s-1.627.117-2.441.161c-.935.05-1.87.047-2.8.126-1.035.089-2.058.25-3.082.426-.98.167-1.961.337-2.948.461q-1.451.18-2.9.381c-.293.035-.584.069-.877.113m-26.216 8.138c-.051-3.582 3.015-4.7 6.03-5.1a5.3 5.3 0 0 1 .012-1.263 5 5 0 0 1 .79-2.067 4.9 4.9 0 0 1-.433-1.607c-4.931-2.389-3.419-8.8 1.63-10 .8-2.528 3.326-2.909 5.612-2.949 2.258-.194 4.512-.443 6.771-.609 4.153-.165 8.284-.734 12.426-.913a14.4 14.4 0 0 0 4.124.238c5.41-.766 10.881-1.04 16.269-1.986 2.947-.53 12.55-1.54 14.551.5 2.808.106 5.811 1.37 6.628 4.271a5.34 5.34 0 0 1 4.51 2.367 6.11 6.11 0 0 1 2.87 4.262c.6 3.338-3.327 6.259-5.831 3.376a9 9 0 0 1-.8.159c.476 3.614-2.365 5.986-5.739 6.217-7.277 1.38-14.656 2.229-22 3.149-7.309 1.457-14.536 3.3-21.88 4.612q-.763.14-1.527.285c-.562-.06-1.123-.111-1.684-.179-.7-.108-1.4-.238-2.1-.315a14 14 0 0 0-2.27-.033c-.743.04-1.487.076-2.229.121s-1.493.122-2.236.213h.021q-1.072.133-2.141.283a2 2 0 0 0-.165-.038v-.007a5.5 5.5 0 0 0-1.875.084c-.422.058-.845.114-1.266.187a23 23 0 0 0-2.715.653c-.655.2-1.295.432-1.939.661l-.378.1a4.74 4.74 0 0 1-3.035-4.676Z" data-name="Path 111432"/><path d="M478.104 2759.994a8.45 8.45 0 0 1-2.839-2.256c-2.114-1.884-4.335-4.684-2.6-7.557 1.358-1.846 3.516-4.052 6.007-2.826 4.886 1.837 6.998 14.311-.568 12.639" data-name="Path 111433"/><path d="M463.788 2764.684c-3.509-.287-5.052-5.177-2.549-7.541 4.229-3.03 15.843-2.394 21.244-2.175 3.739.872 4.276 6.95.5 8.142-5.364.085-10.9-.291-16.259.7a3.32 3.32 0 0 1-2.936.874" data-name="Path 111434"/><path d="M515.81 2779.938a4.637 4.637 0 0 1-.47-7.428c3.078-1.719 6.963-1.52 9.985-3.5 2.2-6.625 10.06-.857 14.261.454 1.647-.179 3.295-.469 4.953-.5 5.476-.062 5.585 9.611-.184 8.546-1.732 4.068-11.243 2.3-11.826-1.9q-.342-.145-.686-.288-.112.068-.23.126a3 3 0 0 1-1.33.306 9.75 9.75 0 0 1-7.66 3.542c-2.177.603-4.627 1.832-6.813.642" data-name="Path 111435"/><path d="M506.152 2783.6c-2.552-.952-3.429-4.763-1.7-6.822 1.679-2.067 4.655-1.582 7.019-2.015 4.734-.568 9.327-1.987 14.093-2.348a111 111 0 0 1 12.726-.343c1.584.017 3.169.035 4.753.028a4.04 4.04 0 0 1 1.787-2.117c1.028-.847 1.836-2.4 3.357-2.424a4.105 4.105 0 0 1 4.281 3.82c.265 1.392-.548 2.558-.741 3.874-.406 1.674-.772 3.719-2.572 4.465-3.372 1.322-7.1.858-10.649 1.036-.94 2.3-3.408 2.3-5.588 2.286-.385 0-.762 0-1.119.009-2.536.008-5.073.015-7.609-.07q-4.481.253-8.96.541c-.693.012-1.393.065-2.1.129a3 3 0 0 0-1.018-.349 10 10 0 0 0-2.283.009c-.559.04-1.119.11-1.673.2a15 15 0 0 0-1.3.254q-.35-.07-.704-.163" data-name="Path 111436"/><path d="M484.079 2789.455c-6.228.656-7.746-7.319-1.779-9.024 2.171-3.044 7.5-3.361 10.9-4.448 8.759-1.932 17.457-4.308 26.323-5.664 3.675-.256 5.481 4.735 3.328 7.379-1.658 2.037-5.632 1.778-8.115 2.573a4.17 4.17 0 0 1-2.154 3.138 3 3 0 0 0-.467-.11 10 10 0 0 0-2.283.009q-.84.063-1.673.2a10.1 10.1 0 0 0-2.435.631 14.4 14.4 0 0 0-1.961 1 10 10 0 0 0-1.24.889 4.4 4.4 0 0 0-.8.893q-.041.062-.081.126l-.06.026-.165-.019a6.8 6.8 0 0 0-2.282.161 30 30 0 0 0-2.936.878c-1.141.393-2.275.805-3.408 1.219l-.04.014q-2.611.236-5.235.233-1.723-.008-3.437-.104" data-name="Path 111437"/><path d="M406.871 2798.047c-2.99-.656-4.23-4.607-2.739-7.119 1.336-2.542 4.586-1.981 6.98-2.5 3.391-.67 6.908-.831 10.3-1.6a102 102 0 0 0 8.282-2.2 45.5 45.5 0 0 1 8.9-1.272c6.049-.407 12.02-1.475 18.042-2.137a69 69 0 0 1 10.474-.364c5.673-1.018 11.347-1.967 16.988-3.139a23 23 0 0 1 2.67-.333c4.112.281 5.7 7.426 1.465 8.815-5.646 1.193-11.288 2.417-16.964 3.465-2.943 1.32-6.325 1.306-9.462 1.913-18.292 2.179-36.652 4.597-54.936 6.471" data-name="Path 111438"/><path d="M305.023 2794.177c-3.916-2.1-3.709-10.448 1.866-8.983 1.812.7 2.416 2.671 3.014 4.329.984 2.83-1.984 6.395-4.88 4.654" data-name="Path 111439"/><path d="M311.687 2797.218c-16.973-5.573-6.9-18.75-2.863-10.2a23.2 23.2 0 0 0 4.862 2.628c4.118 1.5 2.658 9.114-1.999 7.572" data-name="Path 111440"/><path d="M310.79 2797.083c-3.222-1.047-6.759-1.722-9.341-4.042-4.334-4.369 1.816-11.144 5.726-5.691a64 64 0 0 0 5.132 2.023c3.869 1.33 2.909 8.542-1.517 7.71" data-name="Path 111441"/><path d="M328.127 2800.874c-5.72-1.094-11.34-2.6-16.993-3.975-4.4-.907-3.751-8.828 1.062-8.038 5.676 1.286 11.228 3.109 16.967 4.163 4.327.875 3.622 8.639-1.036 7.85" data-name="Path 111442"/><path d="M367.233 2802.159c-14.349-1.483-28.948.607-43.134-2.412-2.969-.942-7.584-.751-8.443-4.469-.81-4.592 2.742-6.215 6.566-4.244 14.5 4.1 29.709 1.177 44.491 3 4.865-.295 5.531 8.093.52 8.125" data-name="Path 111443"/><path d="M354.954 2801.435c-4.278.086-6.112-5.988-2.644-8.393 4.928-2.206 10.7-1.928 16.019-2.2a74 74 0 0 0 11.266-1.11c8.733-.881 17.442-2 26.131-3.235a82.5 82.5 0 0 1 17.224-1.478c3.326.135 6.8-.465 9.985.745 3.871 1.38 3.37 8.47-1.1 8.362-2.217-.043-4.438.137-6.659.068-11.282-.327-22.395 2-33.571 3.223-5.821.57-11.633 1.155-17.414 2.051-5.716.574-11.392.024-17 1.08a3.18 3.18 0 0 1-2.188.895h-.142Z" data-name="Path 111444"/><path d="M346.349 2826.156c-4.313-2.673-2.16-11.647-2.864-16.226-.126-1.743-.236-3.49-.4-5.23a6.35 6.35 0 0 1-.434-4.036 3.66 3.66 0 0 1 5.846-2.183c3.407-.373 5.584 3.9 4.135 6.671.025.546.063 1.092.065 1.117-.19 3.414 2.342 7.844-.959 10.377-.115 2.3.63 4.61.125 6.88-.534 2.387-3.305 4-5.514 2.63" data-name="Path 111445"/><path d="M304.635 2828.555q-1.644-1.436-3.346-2.806c-1.16-.935-2.29-1.9-3.493-2.777l-.4-.307q.376-.08.751-.175c.738-.19 1.466-.383 2.192-.619a34 34 0 0 0 1.976-.7c.581-.231 1.155-.476 1.748-.678a22 22 0 0 0 2.564-.735 25 25 0 0 0 2.277-.249c5.934-.6 11.788-1.806 17.721-2.394 6.4-.429 12.813-.574 19.215-.95 5.965-1.374 8.149 7.2 2.526 8.627-3.154.109-6.225.286-9.361.543-11.545-.128-22.836 2.514-34.3 3.281Z" data-name="Path 111446"/><path d="M333.919 2852.636a39 39 0 0 0-4.469-3.085c-.2-.164-.393-.328-.591-.49-1.111-.912-2.266-1.765-3.379-2.677a34 34 0 0 1-1.9-1.795 40 40 0 0 0-3.718-3.621c-1.5-1.23-3.111-2.3-4.668-3.449-1.345-1.065-2.576-2.253-3.889-3.356-1.119-.94-2.266-1.845-3.4-2.772s-2.189-1.887-3.277-2.837-2.214-1.892-3.346-2.806c-.577-.465-1.146-.937-1.72-1.4a3.54 3.54 0 0 1 2.814-2.266c3.777-.312 13.39 8.285 17.165 10.651a99 99 0 0 0 11.892 7.956 24.3 24.3 0 0 1 6.4 4.49c2.116 1.805 1.805 5.317.113 7l-.76.187c-.764.188-1.529.375-2.3.552l-.192.044a4.7 4.7 0 0 1-.775-.326" data-name="Path 111447"/><path d="M332.706 2852.406a107 107 0 0 0-3.847-3.345c-1.111-.912-2.266-1.765-3.379-2.677a34 34 0 0 1-1.9-1.795 40 40 0 0 0-3.718-3.621c-1.5-1.23-3.111-2.3-4.668-3.449-1.345-1.065-2.576-2.253-3.889-3.356-1.119-.94-2.266-1.845-3.4-2.772a68 68 0 0 1-1.809-1.548 3.56 3.56 0 0 1 2.064-1.66c2.253-.681 3.988 1.233 5.731 2.338 2.3 1.552 4.55 3.193 6.9 4.679 3.157-1 6.718 4.154 9.124 5.912 2.8 1.672 5.075 3.981 7.5 6.062a5.1 5.1 0 0 1 2.315 4.569q-1.274.308-2.547.623c-.765.188-1.529.375-2.3.552-.374.087-.751.166-1.125.258l-.116.029q-.468-.395-.936-.799" data-name="Path 111448"/><path d="M332.704 2852.406q-1-.902-2.015-1.793a5.13 5.13 0 0 1 1.432-3.17 5.35 5.35 0 0 1-1.029-2.566 5.1 5.1 0 0 1 .705-3.324c-4.409.535-8.244-.414-7.989-5.69-2.618.781-5.783.573-6.976-2.294-1.572.1-3.146.174-4.721.211v-.005c-4.59-.241-5.533-7.806-1.135-9.152 3.778-.59 7.666-.588 11.294-1.985 6.024-3.038 12.205-6.02 18.82-7.638 2.973-.738 6.062-1.8 9.154-1.291l.062-.307a9 9 0 0 1 .292-1.085c-1.269-2.562-.456-5.366.259-7.942.087-6.625 7.587-5.006 12.05-4.8 2.358-1.66 5.281-2.292 8.064-2.86 6.114-1.118 12.313-1.72 18.479-2.465 3.906-.183 9.921-2.326 11.452 2.793 1.169.073 3.047.033 5.186-.009 5.222-.1 11.992-.2 13.772 1.368a5.653 5.653 0 0 1 .943 7.628c-1.355 2.1-6.3 2.033-10.3 1.968a37 37 0 0 0-4.057.062 4.244 4.244 0 0 1-3.516 3.757v.02c-9.146.42-18.31.783-27.47.669a6.2 6.2 0 0 1 .191 1.381c16.081-.8 32.193-.5 48.276-1.231v.026c5.3.252 5.955 9.25.6 10.059-5.943.445-11.672.522-17.54 1.247a5.47 5.47 0 0 1 2 7.243 5.69 5.69 0 0 1-.341 5.625l-.323.068c-3.09.645-6.188 1.252-9.281 1.888s-6.15 1.314-9.222 1.989l-2.459.543q-3.515.636-7.007 1.4c-5.078 1.109-10.14 2.305-15.137 3.72q-.848.151-1.695.319c-1.476.291-2.945.613-4.418.919-2.9.6-5.832 1.051-8.736 1.642-3.013.613-6.008 1.308-9 2.014q-2.095.495-4.183 1.015c-.765.188-1.529.375-2.3.552-.374.086-.751.165-1.125.258l-.117.029q-.469-.401-.939-.806" data-name="Path 111449"/><path d="M340.317 2845.914c1.921-.638 4.013-.541 5.98-1.028 4.085-.69 7.7-2.485 11.7-3.463 12.267-3.192 25.316-6.082 37.527-8.936a5.3 5.3 0 0 1 .217-2.258 131 131 0 0 0-5.1.529c-4.356.429-6.382-5.742-3.489-8.592-7.375-.125-14.768-.37-22.136.033-5.034.561-7.11-6.93-3.131-9.607 5.407-2.719 11.53-3.74 17.378-5.153a4.68 4.68 0 0 1 2.844-5.367 96 96 0 0 1 6.46-1.864c.269-7.695 14.9-7.838 20.605-8.553 4.4-.354 8.81-.7 13.212-1.1 2.292-.035 4.884-.967 6.978.281 7.443-.944 15.052-.236 22.426-1.214 6.579-.331 13.013-2.381 19.613-1.9 1.828-1.772 4.957-3.9 7.148-1.485 1.532 1.507 1.131 3.667 1.374 5.586.073 2.159 1.714 4.169.664 6.333a4.85 4.85 0 0 1-5.146 2.742c-2.657.038-5.314.016-7.971.03-2.662 2.936-8.477 1.486-12.117 2.663-8.122 1.472-16.3 2.74-24.209 5.163 1.835 2.348.609 6.744-2.717 6.676-1.908-.109-4.1-.135-5.563-1.541a59.5 59.5 0 0 0-13.825.522 5.96 5.96 0 0 1 4.792 6.015c2.124.051 4.257.009 6.393-.033a77 77 0 0 1 12.054.391c5.907 1.932 4.267 10.538-2.046 10.293a4.6 4.6 0 0 1 0 1.746c-1.712.319-3.423.646-5.135.962-1.675.309-3.345.647-5.011 1l-2.81.461c-1.518.249-3.036.5-4.547.789q-2.2.423-4.4.885c-3.09.645-6.188 1.252-9.281 1.888s-6.15 1.314-9.222 1.989c-2.961.651-5.919 1.3-8.864 2.027-1.57.386-3.117.862-4.66 1.343-.667.207-1.326.442-1.987.668l-.24.083c-2.07.271-4.123.644-6.173 1.041-1.456.283-2.918.529-4.374.815-1.475.291-2.945.613-4.417.919-2.9.6-5.832 1.051-8.736 1.642-3.013.613-6.008 1.308-9 2.014q-1.246.294-2.488.6c-1.101-1.996-.834-4.971 1.43-6.035" data-name="Path 111450"/><path d="M437.553 2830.006a29 29 0 0 1-4.71-.88c-2.164-.666-5.056-.675-6.275-2.871a5.124 5.124 0 0 1-2.221-8.151c-1.752-2.232-1.365-6.116 1.333-7.438a7.8 7.8 0 0 1 3.438-.417c.407.012.813.023 1.212.013-.8-2.49-.079-6.166 2.965-6.569a33 33 0 0 1 5.843.569c1.835.316 4.039.114 5.344 1.67a9.6 9.6 0 0 0 2.773-.008h.032a1.064 1.064 0 0 0 .517 1.3 2 2 0 0 0 .878.169h-.14c.241.008.483.006.724.01a4 4 0 0 1 .479.037c.279.045.556.1.836.137q.24.042.474.107c.447.138.877.329 1.319.48q.285.096.577.177a4.84 4.84 0 0 1 .05 3.479h-.034a4 4 0 0 0-.443-.021 4 4 0 0 0-.611.063 1.6 1.6 0 0 0-.395.16 1.44 1.44 0 0 0-.692.875 1.4 1.4 0 0 0 .041.884 1 1 0 0 0 .04.093l-.058.018a10.4 10.4 0 0 1 .891 1.531c.008.191.015.382.029.573a.97.97 0 0 0-.354.588 2.5 2.5 0 0 0 .082.919q.066.34.142.679.108.492.229.982.041.327.078.655c.033.286.065.573.112.857a2.86 2.86 0 0 0 .414 1.321l.041.049a2.3 2.3 0 0 0 .221.687 1.93 1.93 0 0 0 1.367.922 2 2 0 0 0 .291.024h.026v.021c.112 3.268-3.514 5.608-6.173 3.338-1.718 2.76-5.373 2.51-8.2 2.144a3.93 3.93 0 0 1-2.428.834Z" data-name="Path 111451"/><path d="M425.54 2827.904c1.184-1.237 2.986-.966 4.523-1.288 2.252-.305 4.5-.643 6.748-.971 5.2-.59 10.428-1.409 15.667-1.3a5.1 5.1 0 0 1 1.681-.695 2 2 0 0 0 .229.016 1.6 1.6 0 0 0 .712-.16q.326-.03.657-.035l.047.032c.438.3.876.6 1.331.879a11 11 0 0 0 1.322.711c.222.1.448.182.675.264a8 8 0 0 0 .857.3 1.2 1.2 0 0 0 .282.034 1.07 1.07 0 0 0 .619-.192q.208.839.407 1.68a2.3 2.3 0 0 0-.37-.133 2.7 2.7 0 0 0-.729-.11c-.228 0-.454.045-.681.067q-.27.027-.539.058-.505.054-1.007.122c-.786.109-1.565.23-2.349.359-1.426.234-2.841.528-4.257.821s-2.808.631-4.187 1.026c-.7.2-1.4.408-2.1.641l-.383.131q-.758.161-1.516.329-1.107.238-2.216.481c-2.248.364-4.495.733-6.739 1.122-3.051.53-6.09 1.125-9.135 1.686l-.029.005a4.64 4.64 0 0 1 .48-5.88" data-name="Path 111452"/></g><g fill="#ffd555" data-name="Group 365"><path d="M371.136 2690.785a34 34 0 0 0-6.432-.348c-3.03.157-4.972-3.081-4.533-5.844.885-3.118-.948-6.58.241-9.655-.54-2.355-1.036-5.028.206-7.243.986-1.7 2.1-3.563 4.323-3.706 3.541-.348 7.34-.914 10.758.161 2.861.185 5.725.329 8.584.539a4.366 4.366 0 0 1 4.274 3.235c4.14.182 8.281.5 12.387 1.077 2.853.1 5.835 1.536 6.119 4.692 2.778 1.274 5.618 5.006 5.8 8.326q-.408.046-.816.089c-1.462.151-2.921.293-4.377.5-.966.136-1.928.3-2.89.462l-.138-.212c-2.442-1.352-5.243-1.852-7.939-2.458-.862 3.7-3.913 3.2-6.9 3.109a4.8 4.8 0 0 1 .238 1.5 4 4 0 0 1-.023.41q-.47.078-.938.17a5.7 5.7 0 0 0-1.309.4l-.035.013a.81.81 0 0 0-.668.759.78.78 0 0 0 .277.6.73.73 0 0 0 .528.247h.021a.74.74 0 0 0 .368-.1q.463.064.932.094a3.34 3.34 0 0 1-1.671 1.269c-1.53 2.293-4.609 1.557-6.965 1.833-2.006.105-4.017.207-6.026.207a53 53 0 0 1-3.396-.126" data-name="Path 111453"/><path d="M408.213 2686.645c.8-.063 1.6-.125 2.4-.2a3.64 3.64 0 0 1-1.493.35 2.8 2.8 0 0 1-.907-.15" data-name="Path 111454"/><path d="M406.765 2717.924a16.6 16.6 0 0 1-3.234-.784c-4.315 1.378-10.462-3.015-12.516-6.681-2.146-6.323-4.694-13.029-3.689-19.838-3.972-1.481-3.487-8.5 1.076-8.562 2.991-1.218 6.349-.1 9.341.613a8.5 8.5 0 0 1 3.374 1.089q-.833.17-1.669.325c-1.972.336-3.955.576-5.939.825-.94.12-1.88.248-2.817.393-.54.083-1.077.172-1.613.277a5.8 5.8 0 0 0-1.31.4l-.034.013a.81.81 0 0 0-.668.758.78.78 0 0 0 .274.594.73.73 0 0 0 .531.251h.021a.74.74 0 0 0 .367-.1 22 22 0 0 0 2.3.153q1.158.044 2.317.045h.155c1.731-.006 3.468-.04 5.192-.184 1.45-.122 2.9-.277 4.346-.408q.4-.037.808-.069a5.4 5.4 0 0 1-.029 1.56c3.22.2 8.027-.161 9.229 3.624 6.963-6.125 9.881 3.291 8.5 9.15.108 4.958-1.773 11.262-6.761 13.262a4.05 4.05 0 0 1-4.056 2.113 4.22 4.22 0 0 1-3 1.212 4 4 0 0 1-.496-.031" data-name="Path 111455"/><path d="M411.346 2715.295c-2.069-.456-3.422-2.55-5.7-2.328-6.25-1.089-4.08-12.059 5.455-7.013 4.313-3.557 8.672 3.8 5.083 7.056-1.335 1.238-2.764 2.872-4.838 2.285" data-name="Path 111456"/><path d="M455.1 2672.68c.006.048.01.1.015.145l.515.011c1.25.031 2.507.083 3.756.151a3.3 3.3 0 0 1 .887.172 13 13 0 0 1 1.428-.223 8 8 0 0 1 1.175-.008 4.38 4.38 0 0 0-2.851-.841c-1.649-.001-3.463.482-4.925.593m-7.484 4.727c-.812.017-1.622.083-2.43.154-.4.036-.812.065-1.212.125a4 4 0 0 0-.722.161 1.03 1.03 0 0 0-.528.424.79.79 0 0 0 .055.89l.036.042a.7.7 0 0 0 .108.1l.017.013a1.96 1.96 0 0 0 1.013.323q.505.057 1.012.1c.76.065 1.524.133 2.287.162q.45.017.9.016c.4 0 .79-.007 1.185-.009h.361c.157 0 .315.006.472 0 .235-.005.467-.033.7-.048l-.113.006a1.38 1.38 0 0 0 .964-.385 1.14 1.14 0 0 0 .249-1.229 1.32 1.32 0 0 0-.836-.743 2.3 2.3 0 0 0-.434-.088 8 8 0 0 0-.825-.051c-.168 0-.336-.006-.5-.006-.59.011-1.175.03-1.759.043m2.249 6.62a1.35 1.35 0 0 0-.734.648.96.96 0 0 0-.32.512 1.02 1.02 0 0 0 .488 1.124 2 2 0 0 0 .309.159 1.42 1.42 0 0 0 .9.345 1.3 1.3 0 0 0 .357-.052 1.35 1.35 0 0 0 .951-1.3 1.3 1.3 0 0 0-.165-.844l-.01-.017a1.1 1.1 0 0 0-.3-.462 1.2 1.2 0 0 0-.817-.327h-.02a1.2 1.2 0 0 0-.639.215Zm1.668 9.759a59 59 0 0 0-9.489-.391c-2.428.031-4.859.062-7.283-.136-3-.106-6.019-.079-9.024-.019-.317-.007-.638 0-.963 0a7.63 7.63 0 0 1-4.32-.81 41 41 0 0 0-4.227.351c-4.755.534-10.491 1.069-11.888-3.348-2.563-.215-5.232.012-7.724-.654a4.3 4.3 0 0 1-1.623-1.107 53 53 0 0 0 3.231-.161c1.45-.122 2.9-.276 4.346-.408 1.368-.124 2.74-.207 4.11-.33 1.423-.126 2.849-.217 4.271-.361 1.4-.143 2.8-.364 4.2-.533s2.8-.3 4.2-.388c.682-.045 1.366-.089 2.044-.179.712-.094 1.421-.215 2.134-.3 1.35-.155 2.706-.2 4.061-.307.653-.054 1.3-.154 1.952-.23a28 28 0 0 1 2.015-.153 20 20 0 0 1 1.827 0c.626.034 1.253.115 1.88.12a17 17 0 0 0 2.1-.143q.313-.034.624-.083a2.1 2.1 0 0 0 .973-.38 2 2 0 0 0 .6-.748 1.71 1.71 0 0 0-.33-1.9 1.96 1.96 0 0 0-1.351-.59c-.186 0-.373.015-.558.026-.494.015-.987.021-1.479.056-.583.041-1.161.126-1.738.211-1 .147-2.013.2-3.023.249-1.753.065-3.509.066-5.262.109-.913.023-1.825.056-2.736.128-.874.07-1.746.158-2.623.2-1.4.038-2.808.008-4.21.1s-2.794.282-4.191.426c-1.462.151-2.921.293-4.377.5-1.321.186-2.636.416-3.949.648-1.429.252-2.846.568-4.272.83-1.9.325-3.816.559-5.732.8a4.87 4.87 0 0 1 .326-2.5c-3.154-2.05-2.637-8.137 1.446-8.707 1.955-.22 3.934-.236 5.9-.3a147.5 147.5 0 0 1 24.852 1.249c1.607-1.187 3.732-1.379 5.651-1.721 1.1-5.9 10.928-6.707 15.743-8.085 5.035-.88 10.266-2.342 15.364-1.168 7.415 1.826 7.824 9.6 8.015 15.931-.478 4.183-5.189 3.493-8.28 3.757-2.779.06-5.52.4-8.287.622.109 1.372-.243 2.875.441 4.109 1.037 2.341-.389 5.716-3.143 5.716a1.3 1.3 0 0 1-.223.003Z" data-name="Path 111457"/><path d="m431.243 2681.141-.144.005Z" data-name="Path 111458"/><path d="M443.797 2677.976h.049Z" data-name="Path 111459"/><path d="M381.386 2652.17c0 .03.008.059.011.09.024-.225.06-.452.1-.679q-.051.296-.111.589m26.682 30.272c-1.516-.057-2.464-1.15-3.629-1.909a45 45 0 0 0-8.732-4.218c-3.43-1.415-7.749.749-9.175-3.857-4.311 1.372-5.764-4.173-6.306-7.364a23.63 23.63 0 0 1 1.1-11.282c-.889-5.511 4.52-5.2 8.27-6.249 5.047-1.952 10.417-2.8 15.637-4.167 5.1-.829 10.049-2.532 15.224-2.891 1.867-1.672 4.712-1 7.027-1.309a42.4 42.4 0 0 1 9.376.656c8.937.7 17.9 1.241 26.844 1.88 9.1-.386 8.932 10.5 9.193 17.024a36.8 36.8 0 0 1-1.432 12.288c-1.069 5.373-4.74 6.336-8.923 3.058-1.664 4.788-6 5.462-10.5 4.441a1 1 0 0 0-.078-.282 1.32 1.32 0 0 0-.836-.743 2.3 2.3 0 0 0-.434-.088 8 8 0 0 0-.825-.051c-.49-.011-.98 0-1.47.008a31.7 31.7 0 0 1-6.97-3.875 5 5 0 0 1-.2.4c-1.221 2.266-3.786 3.028-6.2 3.223-1.642 4.637-7.278 2.875-10.953 2.38-3.945-.758-7.99-.746-11.971-1.26a4.16 4.16 0 0 1-3.837 4.187q-.095.006-.195 0Z" data-name="Path 111460"/></g><g fill="#42515a" data-name="Group 366"><path d="M369.185 2612.021c-.009 0-.019-.092 0-.048a88 88 0 0 1-1.119-11.72c-.025-1.1-.01-2.2-.018-3.305a.07.07 0 0 1 .133-.037 67 67 0 0 1 1.043 9.357 41 41 0 0 1-.039 5.753" data-name="Path 111461"/><path d="M369.066 2663.328c-1.043-.236-.484-2.282-.6-3.1a815 815 0 0 1-.057-7.165c.009-4.971-.209-9.938-.155-14.909-.116-7.7-.412-15.394-.538-23.095-.035-2.158-.168-4.31-.3-6.463a450 450 0 0 1-.122-10.774c.047-.584-.244-1.454.442-1.728 1.012-.141.812 1.176.835 1.825.015 3.834.01 7.67.151 11.5.214 2.676.271 5.36.37 8.042.041 3.419.233 6.832.368 10.248.036 2.875.118 5.717.277 8.537.083 4.234.076 8.468.3 12.7.045 3.139.1 6.278.042 9.417-.011 1.092-.013 2.186-.09 3.276-.036.65.007 1.801-.923 1.689" data-name="Path 111462"/><path d="M402.511 2643.885a.716.716 0 0 1-.628-.658 40 40 0 0 1 .247-6.278c.133-4.847.077-9.7.116-14.553.016-2.84-.28-5.671-.333-8.509-.063-3.272-.265-6.32-.539-9.506-.107-1.1-.188-2.2-.353-3.286a1.43 1.43 0 0 0-.964-1.3c-2.189-1.125-4.648-1.069-6.978-1.5a46 46 0 0 1-4.813-1.2 157 157 0 0 0-6.206-.851 34 34 0 0 0-3.771-.146c-1.817-.088-3.642-.606-5.451-.157a40 40 0 0 0-4.137 1.811.8.8 0 0 1-1.081-1.016.7.7 0 0 1 .589-.428 46 46 0 0 0 1.956-1.061c3.014-2.09 6.2-.838 9.528-.969a27 27 0 0 1 4.9.482c1.473.3 2.989.37 4.441.773a29 29 0 0 0 4.185 1.121c2.655.485 5.5.454 7.84 1.97 1.322.821 1.324 2.53 1.485 3.912q.636 6.063.715 12.167c.047 1.821.207 3.6.281 5.409.129 4.088-.008 8.178.023 12.267 0 1.64.039 3.288-.09 4.923-.124 1.3-.241 2.6-.248 3.9-.07.79.309 2.643-.714 2.683" data-name="Path 111463"/><path d="M390.981 2646.123a.69.69 0 0 1-.6-.72c.092-2.528.239-5.052.486-7.569.265-6.137-.21-12.275-.333-18.411-.153-7.118-.517-14.233-.814-21.345a.63.63 0 0 1 .987-.58 1.04 1.04 0 0 1 .337.737c.077.582.107 1.167.134 1.754.08 2.339.155 4.678.258 7.016.286 9.251.634 18.5.753 27.758.063 3.079-.388 6.177-.539 9.228-.137.657.248 2.081-.669 2.132" data-name="Path 111464"/><path d="M386.789 2647.822c-.2-5.553.07-11.11-.145-16.664-.569-5.887-.824-11.661-1.268-17.5a141 141 0 0 1-.392-16.214 2.3 2.3 0 0 1 .071-.857.567.567 0 0 1 1-.125 2.8 2.8 0 0 1 .246 1.3c.1 2.738-.1 5.476-.065 8.215.01 2.559.217 5.111.417 7.66.3 4.182.568 8.376.821 12.553a77 77 0 0 1 .475 9.108c.011 3.955-.022 7.911.011 11.865.054.469.116 1.171-.488 1.275a.665.665 0 0 1-.683-.616" data-name="Path 111465"/><path d="M378.688 2692.191c-2.172-.055-4.349.025-6.515-.172-2.219-.354-4.257-.455-6.475-.628-1.888-.264-3.751-.623-4.115-2.817-.171-.386-.52-.672-.69-1.064a9.8 9.8 0 0 1-.671-2.743c-.33-1.9-.631-3.655-.8-5.555a31.3 31.3 0 0 1-.046-5.807 4.7 4.7 0 0 1 .415-1.44c.042-.622-.055-1.25-.035-1.874.209-4.575.4-4.758 4.912-5.72a45.2 45.2 0 0 1 10.568-.7c1.271.023 2.538.1 3.8.241a1.5 1.5 0 0 1 .633.14.771.771 0 0 1-.262 1.43c-.346-.028-.812.126-1.044-.216a49 49 0 0 0-12.141.277c-1.592.318-3.339.467-4.732 1.355-.388.426-.267 1.1-.36 1.634-.238 1.344-.014 2.531-.137 3.844a8.4 8.4 0 0 0-.474 3.515 55.7 55.7 0 0 0 1.136 9.806 5.2 5.2 0 0 0 .388 1.345 3.27 3.27 0 0 1 .787 1.4c.249 1.256 1.712 1.292 2.739 1.491.951.109 1.908.128 2.862.194 1.717.1 3.405.451 5.125.493 4.087 0 8.208.234 12.267-.116a6 6 0 0 1 1.236.012c.68.137.714 1.308 0 1.42a68 68 0 0 1-8.371.255" data-name="Path 111466"/><path d="M362.249 2686.591a.728.728 0 0 1-.254-1.431c2.068-.151 4.129-.384 6.189-.618a85.5 85.5 0 0 1 13.75-.354 25.6 25.6 0 0 1 5.487.552c.625.212.541 1.372-.177 1.348a35.4 35.4 0 0 0-5.586-.388c-2.154-.113-4.31-.077-6.464-.005-2.323.122-4.642.287-6.963.443-1.994.176-3.982.443-5.982.453" data-name="Path 111467"/><path d="M361.056 2671.998a.75.75 0 0 1-.334-.954.85.85 0 0 1 .868-.449c.579-.023 1.158-.03 1.648-.04a84 84 0 0 0 6.389-.634 50 50 0 0 1 7.143-.387c.733-.034 1.469-.14 2.2-.109a.65.65 0 0 1 .566.593c.037.3-.14.71-.488.732-2.917.2-5.853.131-8.754.557a59 59 0 0 1-9.238.691" data-name="Path 111468"/><path d="M385.46 2674.377c-2.753-.127-4.281-.545-5.265-3.353a21 21 0 0 1-1.018-4.154 74 74 0 0 1 .049-7.472c.07-3.065.35-6.941 2.087-9.538a5.24 5.24 0 0 1 2.641-1.669 9.5 9.5 0 0 1 3.022-.8.736.736 0 0 1 .459.99.81.81 0 0 1-.675.461 7.7 7.7 0 0 0-1.888.531 4.97 4.97 0 0 0-2.656 1.534 9.6 9.6 0 0 0-1.211 3.362 25.7 25.7 0 0 0-.531 5.249 49.3 49.3 0 0 0 .074 8.124 18.2 18.2 0 0 0 1.006 3.428 2.34 2.34 0 0 0 2.138 1.639 33.6 33.6 0 0 0 6.331.055 29.4 29.4 0 0 0 4.24-.5 38.5 38.5 0 0 1 5.353-.368 30 30 0 0 0 6.527-1.338 37.6 37.6 0 0 1 6.377-.885c2.708-.372 5.4-.882 8.14-.995a24.7 24.7 0 0 1 4.17.119 10 10 0 0 1 1.6.162 1.5 1.5 0 0 1 .488.133.76.76 0 0 1 .348.761.634.634 0 0 1-.817.55 39 39 0 0 0-4.823-.324 72 72 0 0 0-8.127.953c-1.939.266-3.921.38-5.848.712-2.109.5-4.177 1.2-6.326 1.511-1.828.279-3.689.1-5.518.376-1.346.15-2.676.4-4.015.58-2.115.123-4.219.243-6.332.166" data-name="Path 111469"/><path d="M427.449 2670.819c-.674-.115-.542-1.233-1.139-1.337a11 11 0 0 1-3.155-.534 7.03 7.03 0 0 1-2.958-2.017 8.64 8.64 0 0 1-1.223-4.328c-.176-1.443-.389-2.883-.431-4.339 0-2.957-.295-5.987.4-8.888.824-3.591 1.859-7.107 5.649-8.518 3.549-1.462 7.488-1.024 11.238-1.119 1.482 0 2.97-.04 4.448.074 2.078.144 4.115.638 6.2.736 5.932.278 11.945.22 17.758 1.581 1.332.384 2.694.695 3.988 1.2 2.088.969 3.1 3.88 3.731 5.947 1.292 3.548 1.082 7.356 1.093 11.071-.017 1.873-.209 3.742-.3 5.611-.057.657-.148 1.311-.209 1.968a4.5 4.5 0 0 1-.333 1.653c-.541.9-1.861.374-2.731.519-1.572.062-3.149.165-4.724.108-.756-.036-.848-1.34-.086-1.438 2.148-.068 4.374-.012 6.467-.2a82 82 0 0 0 .611-10.491 38 38 0 0 0-.3-5.908 21.4 21.4 0 0 0-2.3-6.274c-.743-1.373-2.364-1.542-3.719-1.948-4.482-1.3-9.2-1.489-13.84-1.7-1.5-.025-3-.082-4.5-.148-3.32-.169-6.572-1-9.9-.836-2.349 0-4.7-.025-7.044.038a14.6 14.6 0 0 0-5.026.914c-2.915.974-4.025 3.747-4.651 6.521a20.7 20.7 0 0 0-.747 6.94 52 52 0 0 0 .681 8.63c.264 2.219 2.46 3.4 4.489 3.666.553.071 1.112.072 1.665.14.708.1 1.029.777 1.3 1.357a.36.36 0 0 0 .11.153c.426.402.136 1.324-.512 1.196" data-name="Path 111470"/><path d="M455.333 2676.164a77 77 0 0 0-12.359-1.024c-1.3-.09-2.55-.356-3.845-.388a35 35 0 0 1-5.69-.279 2.85 2.85 0 0 1-1.328-.333c-.961-.772-.745-2.194-.845-3.294-.8-.131-1.6-.226-2.4-.363a.734.734 0 0 1-.53-.737c0-.334.251-.724.627-.689a25 25 0 0 1 2.554.33c1.57.386.781 2.359 1.239 3.483a17 17 0 0 0 1.724.26c2.733.3 5.5.046 8.221.5 1.472.134 2.955.072 4.43.154a63 63 0 0 1 8.25.9c.067-.574.133-1.15.234-1.719.2-1.427.367-3.5 2.164-3.7a15 15 0 0 1 2.274-.135c1.492-.075 2.8-.138 4.242-.237.467-.019.93.026 1.4.032a.69.69 0 0 1 .836.718.635.635 0 0 1-.762.661c-.5-.007-.912.034-1.4.038-1.851.1-3.7.252-5.555.279-1.959-.052-1.621 1.213-1.916 2.666-.271 1.029.041 3.092-1.565 2.877" data-name="Path 111471"/><path d="M385.621 2648.663a.6.6 0 0 1 .579-.638.66.66 0 0 1 .573.692.6.6 0 0 1-.579.638.66.66 0 0 1-.573-.692" data-name="Path 111472"/><path d="M385.602 2649.011a.75.75 0 0 1-.43-.8c.123-.832 1.428-.828 2.056-1.138a32.4 32.4 0 0 1 4.239-1.348 52 52 0 0 0 5.205-1.48c.987-.3 2.007-.477 3.014-.687 2.151-.524 4.264-1.192 6.412-1.73q3.231-.741 6.429-1.6c2.787-.622 5.609-1.121 8.43-1.564 1.272-.146 2.556-.111 3.834-.144a16.8 16.8 0 0 1 3.83-.014c.781.052.822 1.418-.008 1.416-.507-.022-1.014-.049-1.521-.039-2.2.232-4.415.079-6.6.394-2.207.372-4.412.762-6.609 1.193-2.847.733-5.71 1.4-8.563 2.112-1.666.436-3.313.941-4.989 1.334a37 37 0 0 0-3.76.871c-3.053 1.065-6.23 1.565-9.251 2.755a.65.65 0 0 1-.8.447 2.5 2.5 0 0 1-.918.022" data-name="Path 111473"/><path d="M467.652 2683.917c-.645-.026-1.271-.214-1.916-.232a.95.95 0 0 1-1.044-.538 5.2 5.2 0 0 1-.108-1.52c.024-1.387.069-2.772.063-4.159.018-1.1-.4-2.775 1.1-3.032a15 15 0 0 1 2.214-.217c.532-.035 1.3-.069 1.373.631.089 1.067-1.261.777-1.946.869-2.007.1-1.592-.162-1.578 1.757.024 1.624-.059 3.249-.048 4.872 1.19.089 2.43.491 3.476-.276a36 36 0 0 0 .126-4.734c.031-2.224-.093-4.474.04-6.686a.541.541 0 0 1 .915-.283.75.75 0 0 1 .219.476c.037.558.015 1.119.023 1.679.005 2.132-.01 4.265-.01 6.4a14.8 14.8 0 0 1-.216 3.809 2.92 2.92 0 0 1-2.683 1.184" data-name="Path 111474"/><path d="M465.392 2672.593c-.63-.076-.993-.707-1.175-1.257-.153-.437.26-1.019.74-.822.328.124.36.461.555.7a16.6 16.6 0 0 0 4.193-.5.5.5 0 0 0-.115.018c.575-.172.956.6.668 1.051-.549.749-2.216.622-3.081.7-.594.023-1.189.126-1.785.11" data-name="Path 111475"/><path d="M455.787 2675.775c-.4-1.5 3.425-1.07 4.355-1.366.664-.093 1.321-.22 1.982-.326a11.5 11.5 0 0 1 3.016.348c.589.205.589 1.245-.059 1.342a.47.47 0 0 1-.317.1.51.51 0 0 1-.358-.172 19 19 0 0 0-1.92-.212 37 37 0 0 1-4.149.508 9 9 0 0 0-1.3.128c-.522.158-1.038.331-1.25-.35" data-name="Path 111476"/><path d="M453.357 2684.058c-.424-.308-.338-1.17.237-1.238.4-.027.8-.056 1.2-.107a29 29 0 0 1 3.648-.367c1.374-.045 2.735-.324 4.113-.24.775.095 3.052-.143 3.319.687.271.563-.326 1.336-.893.854a21 21 0 0 0-5.3 0c-.941.083-1.889.045-2.826.186-1.035.111-2.06.3-3.1.344a.58.58 0 0 1-.398-.119" data-name="Path 111477"/><path d="M453.616 2691.303a.74.74 0 0 1-.516-.83c.329-3.35.25-6.74.33-10.106 0-1.617.03-3.237-.02-4.852a.6.6 0 0 1 1.172-.232 117 117 0 0 1-.037 11.926c-.177.965.387 4.065-.929 4.094" data-name="Path 111478"/><path d="M409.04 2693.984c-2.245-.056-4.486-.184-6.73-.282-.474-.058-1.122.117-1.393-.384a.722.722 0 0 1 .334-1.039c2.987-.007 5.989.377 8.987.352 3.3.081 6.59-.151 9.882-.163 4.488.047 8.942-.231 13.409-.288 6.515.158 13.072.646 19.579.222.028-.405.224-.941.726-.841a.705.705 0 0 1 .493.793c-.085 1.3-.67 1.448-1.844 1.47-5.324.327-10.609.064-15.927-.128-3.265-.152-6.629-.072-9.878.08-2.927.14-5.855.09-8.784.133-2.951.091-5.903.153-8.854.075" data-name="Path 111479"/><path d="M409.994 2717.492a10.7 10.7 0 0 1-5.455-1.787c-2.457-1.722-3.57-4.445-4.028-7.315-.918-4.784.014-9.687-.215-14.515a.72.72 0 0 1-.36-.627.65.65 0 0 1 .221-.5.6.6 0 0 1 1.025-.445c.8 1.107.277 5.4.3 6.935-.016 2.929-.329 5.9.263 8.79.455 2.634 1.365 5.014 3.677 6.556a9.86 9.86 0 0 0 4.324 1.445 8.4 8.4 0 0 0 3.856-.751c3.463-1.332 4.941-5.2 5.676-8.566a41.2 41.2 0 0 0 .393-11.911.6.6 0 1 1 1.189-.045c.1 1.418.2 2.835.278 4.254.021 5.347-.495 11.622-4.24 15.76a8.1 8.1 0 0 1-2.645 1.792 10.2 10.2 0 0 1-4.259.93" data-name="Path 111480"/><path d="M402.457 2717.971c-1.112-.148-2.236.052-3.344-.145a13.37 13.37 0 0 1-7.724-4.3 10.7 10.7 0 0 1-1.872-4.012 46 46 0 0 1-2.042-10.872c-.649-5.861-.918-11.754-.989-17.648-.027-1.615-.062-3.23-.14-4.842.015-.468-.291-1 .1-1.379 1.252-.752 1.14 1.547 1.19 2.25.126 2.558.066 5.12.183 7.678.178 2.2.169 4.492.314 6.676.324 3.995.628 8 1.19 11.966a45 45 0 0 0 1.607 6.169 8.05 8.05 0 0 0 2.362 3.923 13.25 13.25 0 0 0 6 2.97c1.19.148 2.393 0 3.585.147 1.28.047 2.4-.161 3.643-.091.73.052.83 1.282.083 1.4-1.422.039-2.764.181-4.146.11" data-name="Path 111481"/><path d="M400.063 2716.606a17.4 17.4 0 0 1-4.666-6.4 30 30 0 0 1-1.542-5.461 64.7 64.7 0 0 1-1.335-12.383 39 39 0 0 1 .089-4.154c0-.493.17-1.244.813-1.135.911.3.407 1.4.412 2.085-.059.975-.039 1.955-.025 2.933a59.1 59.1 0 0 0 2.263 16.314c.981 2.738 2.676 5.721 5.132 7.356a.69.69 0 0 1 .5.688c-.088 1.002-1.139.647-1.641.157" data-name="Path 111482"/><path d="M387.618 2685.262c-.734.02-.887-1.263-.136-1.375 2.111-.072 4.117-.137 6.2-.34 2.954-.181 5.856-.826 8.806-1.02 1.48-.08 2.96-.128 4.429-.339 1.608-.218 3.014-.647 4.611-.749 1.858-.169 3.655-.178 5.494-.276 2.146-.145 4.286-.379 6.431-.528 1.432-.088 2.855-.261 4.275-.458 2.009-.19 4.021-.337 6.026-.568 1.675.01 3.416-.57 5.034.057.532.226 1.345.5 1.15 1.224a.56.56 0 0 1-.73.422 8 8 0 0 0-.992-.43 8.4 8.4 0 0 0-3.084.012c-2.017.112-4.017.409-6.034.529q-6.393.768-12.824 1.228a54 54 0 0 0-6.782.54 29.5 29.5 0 0 1-4.779.624 45 45 0 0 0-6.572.643 98 98 0 0 1-10.523.804" data-name="Path 111483"/><path d="M388.46 2688.745a.77.77 0 0 1-.217-1.22 1.67 1.67 0 0 1 1.05-.254 58 58 0 0 0 5.519-.554c2.32-.274 4.582-.855 6.873-1.258 3.621-.414 7.289-.419 10.9-.973a71 71 0 0 1 10.562-.805c1.424-.046 2.833-.263 4.245-.439 3.352-.294 6.7-.615 10.036-1.075a17 17 0 0 1 1.717-.133c.338-.009.581.349.619.647a.685.685 0 0 1-.533.8c-1.313.051-2.608.284-3.913.409-3.517.462-7.061.65-10.578 1.118-2.786.193-5.585.145-8.364.454-3.632.473-7.256 1-10.922 1.16a52.5 52.5 0 0 0-8.815 1.255 70 70 0 0 1-7.5.814.78.78 0 0 1-.679.054" data-name="Path 111484"/><path d="M438.578 2683.754c-.263-2.525-.21-5.06-.229-7.6-.172-.273-.029-.576 0-.862a.627.627 0 0 1 .982-.591c.53.511.276 1.353.345 2.015.006 1.092-.006 2.184-.006 3.276a25 25 0 0 0 .106 2.726c.02.564.282 1.518-.487 1.674a.69.69 0 0 1-.711-.638" data-name="Path 111485"/><path d="M416.528 2670.012a5.2 5.2 0 0 1-1.372-.923 11.5 11.5 0 0 1-2.688-2.913 30.8 30.8 0 0 1-3.594-7.921 26.3 26.3 0 0 1-1.266-6.315 27.6 27.6 0 0 1 .532-6.81c.261-.733.745-4.02 1.922-2.811.345.455-.009.941-.161 1.392a28 28 0 0 0-.709 2.607 27.9 27.9 0 0 0-.155 7.461 51 51 0 0 0 1.218 4.668 26.4 26.4 0 0 0 4.212 8.153 13.6 13.6 0 0 0 2.148 1.871 1.18 1.18 0 0 1 .564.567c.2.435-.126 1.087-.651.974" data-name="Path 111486"/><path d="M450.005 2687.099a2.72 2.72 0 0 1-2.135-3.043 1.73 1.73 0 0 1 1.939-1.552 3.2 3.2 0 0 1 1.1.268c.628.321.418 1.454-.36 1.254-.4-.05-.9-.24-1.26.005l.022-.018.042-.025c-.706.588.009 1.586.744 1.74.253.047.667.209.782-.117.057-.428.026-1 .618-1.012a.67.67 0 0 1 .574.694 1.57 1.57 0 0 1-2.066 1.806" data-name="Path 111487"/><path d="M445.128 2686.215a1.138 1.138 0 0 1-.719-1.642.59.59 0 0 1 .682-.2c.966.067 1.174 1.96.037 1.842" data-name="Path 111488"/><path d="M441.88 2686.754a1.18 1.18 0 0 1-.776-.789c-.184-.588.445-1.223.987-.793 1.063-.042.793 1.832-.211 1.582" data-name="Path 111489"/><path d="M451.383 2685.18c-.4-.018-.528-.479-.883-.6a.56.56 0 0 1-.886-.365.823.823 0 0 1 .805-1.07 2.26 2.26 0 0 1 1.419.91c.309.393.111 1.144-.455 1.125" data-name="Path 111490"/><path d="M442.538 2678.874a.6.6 0 0 1-.1.282c2.79-.2 5.608.019 8.4-.224a4 4 0 0 0 .049-.5 52 52 0 0 0-8.156-.171 3.3 3.3 0 0 0-.193.613m-.68 1.126a.76.76 0 0 1 .088-.579c-.775-.128-.612-1.154-.6-1.734.016-.613.577-1.289 1.175-.789a36.4 36.4 0 0 1 7.307.081c.706.112 1.665-.113 2.12.573a2.06 2.06 0 0 1 .137 1.289 2.1 2.1 0 0 1-.338 1.044 1.56 1.56 0 0 1-1.231.466c-2.2.138-4.4 0-6.605.069a13 13 0 0 0-1.425.066.606.606 0 0 1-.628-.485Z" data-name="Path 111491"/><path d="M417.038 2692.07a.673.673 0 0 1-.581-.7c.015-.871.089-1.743.138-2.613.034-.661.084-1.32.161-1.977.051-.407.035-.992.5-1.148.63-.145.782.541.79 1.016a9.3 9.3 0 0 0-.249 1.87q-.094 1.5-.183 3.005a.59.59 0 0 1-.576.547" data-name="Path 111492"/><path d="M429.989 2691.313a.76.76 0 0 1-.264-.487 17 17 0 0 1-.19-1.915c-.083-1.283-.023-2.6-.109-3.873a.59.59 0 0 1 1.149-.24 11 11 0 0 1 .138 2.3c.007.99.009 1.813.1 2.723.012.435.2.911 0 1.323a.542.542 0 0 1-.824.169" data-name="Path 111493"/><path d="M403.212 2722.647a.69.69 0 0 1-.6-.72c0-1.3-.044-2.6 0-3.893.116-.8 1.082-.7 1.187.054.037.319.011.645.02.966 0 .977 0 1.954-.011 2.93a.627.627 0 0 1-.596.663" data-name="Path 111494"/><path d="M393.485 2723.92a.663.663 0 0 1-.57-.69c-.029-1.238-.027-2.476-.033-3.714v-2.811c0-.5-.1-1.361.612-1.379.675.072.615.868.606 1.374v2.874c0 1.237 0 2.475-.033 3.711a.6.6 0 0 1-.582.635" data-name="Path 111495"/><path d="M392.056 2725.03c-.772-.106-.546-1.076-.579-1.63q-.001-1.521-.026-3.043c-.022-1.868-.023-3.739-.082-5.607.073-.591-.324-1.674.484-1.843.466-.058.722.425.666.834.03 1.355.116 2.709.111 4.065.012 1.818.01 3.637.013 5.457-.055.574.259 1.696-.587 1.767" data-name="Path 111496"/><path d="M360.023 2725.555a.715.715 0 1 1 .209-1.41c2.417-.011 4.82-.377 7.222-.623 1-.1 1.995-.292 3-.321a.66.66 0 0 1 .583.61.65.65 0 0 1-.5.751c-3.5.354-7.017.966-10.534.994Z" data-name="Path 111497"/><path d="M382.873 2725.997c-2.818-.154-5.663.028-8.459-.4-.781-.165-3.442-.488-3.607-1.333a.68.68 0 0 1 .5-.872 1.65 1.65 0 0 1 .689.173 12 12 0 0 0 1.992.52 29 29 0 0 0 5.517.4c1.441.059 2.88.123 4.323.117a32 32 0 0 0 5.952-.249c2.47-.782 5.068-.432 7.6-.788 2.487-.37 4.917-1.145 7.444-1.223.6-.051 1.379-.078 1.385.73-.026.638-.507.708-1.036.666a40.3 40.3 0 0 0-6.271 1.018 28.4 28.4 0 0 1-5.519.467 26 26 0 0 0-4.167.669 63 63 0 0 1-6.343.105" data-name="Path 111498"/><path d="M355.11 2748.802c-.221-.745.023-1.708-.69-2.218-1.728-.911-1.846-2.414-1.545-4.182a66 66 0 0 1 1.92-8.325c.334-1.445.627-2.9 1.076-4.315a15.2 15.2 0 0 1 1.66-4.154 3.35 3.35 0 0 1 1.828-1.368c.547-.19 1.246-.07 1.246.634-.013.5-.348.659-.791.669a2.83 2.83 0 0 0-1.852 1.971 50 50 0 0 0-2 7.291 71 71 0 0 0-1.492 6.218c-.9 5.156-.224 2.611 1.553 5.393a7.5 7.5 0 0 1 .353 2.116.74.74 0 0 1-.458.807.68.68 0 0 1-.808-.537" data-name="Path 111499"/><path d="M411.674 2760.591a.75.75 0 0 1-.657-.688c-.043-.7 0-1.392-.009-2.089.023-2.023-.018-4.077.115-6.084.053-1.213.25-2.406.212-3.62-.131-1.551-.743-3.014-1.023-4.542a31 31 0 0 0-2.652-7.222c-.994-2.143-.536-4.541-.622-6.82a10.2 10.2 0 0 0-1.149-5c-.766.075-.979-1.2-.206-1.33 1.668-.183 2.111 2.676 2.4 3.888a32 32 0 0 1 .3 4.547 11.8 11.8 0 0 0 .379 3.583c.336 1.015.918 1.922 1.272 2.931.914 2.683 1.554 5.45 2.369 8.162.567 1.962.165 3.994.02 5.985-.112 1.883-.074 3.772-.07 5.657-.106.748.396 2.621-.679 2.642" data-name="Path 111500"/><path d="M357.471 2750.065c-.819-.185-2.639-.06-2.253-1.368.47-.862 1.67 0 2.444-.077.798.154.667 1.588-.191 1.445" data-name="Path 111501"/><path d="M366.375 2750.461c.2 0 .406 0 .609.008-.631-1.829-.26-2.087.984-3.345a4.6 4.6 0 0 0-1.415-.383c-1.7-.22-3.385-.527-5.055-.909a.72.72 0 0 1-.442-.974c-.355.5-.508 1.134-.813 1.674-.32.816-1.465 1.847-.668 2.686a28.8 28.8 0 0 0 6.8 1.243m1.123 1.478a24.3 24.3 0 0 1-6.376-.805c-1.282-.255-2.746-.4-3.07-1.93-.328-1.089.328-2.1.8-3.038a24 24 0 0 1 1.149-2.424.765.765 0 0 1 1.281.836.54.54 0 0 1 .389-.078c1.4.267 2.8.571 4.217.746 1.044.14 2.29.154 3.053.983.872 1.063-.174 2.228-1.013 2.9.095.905 1.231 2.773-.43 2.81" data-name="Path 111502"/><path d="M368.962 2751.258a.79.79 0 0 1-.034-.884 24 24 0 0 0-.409-2.177 2.7 2.7 0 0 1-.17-.9.581.581 0 0 1 1-.382 2.5 2.5 0 0 1 .4.93 17 17 0 0 1 .484 2.663c.058.65-.766 1.409-1.271.75" data-name="Path 111503"/><path d="M371.14 2765.188c-.62-3.033-.734-6.134-1.185-9.191-.207-1.4-.1-3.044-1.157-4.134-.513-.312-.373-1.347.306-1.318 2.635 1.361 2.04 6.249 2.55 8.846.238 1.844.5 3.683.825 5.513a.685.685 0 1 1-1.339.284" data-name="Path 111504"/><path d="M373.151 2766.038a4.4 4.4 0 0 1-.682-.045.8.8 0 0 1-.179-1.442 1.5 1.5 0 0 1 .662-.1 54.5 54.5 0 0 0 11.289-.974c4.494-.639 8.979-1.4 13.5-1.786 3.673-.26 7.339-.6 11.009-.872.877-.1 1.735-.347 2.621-.37a.71.71 0 0 1 .622.652c.074.931-.806.806-1.451.923-.684.112-1.359.292-2.052.35-3.3.2-6.579.575-9.875.79-3.032.21-6.031.683-9.04 1.084-5.463.631-10.888 1.924-16.424 1.79" data-name="Path 111505"/><path d="M369.27 2748.512a.883.883 0 0 1-.229-1.368 2.2 2.2 0 0 1 1.269-.312c.782-.042 1.567-.054 2.35-.074 5.218-.11 10.425-.344 15.615-.889 5.229-.622 10.481-1.067 15.694-1.808 1.948-.2 3.979-.188 5.9-.539a3.3 3.3 0 0 1 .732-.1.714.714 0 0 1 .626.655c.057.584-.355.848-.891.855-2.035.458-4.141.414-6.2.69-6.03.851-12.1 1.369-18.162 1.973-5.4.5-10.768.512-16.149.811a.54.54 0 0 1-.555.106" data-name="Path 111506"/><path d="M376.229 2746.708c-.928-1 1.087-3.189 1.3-4.4 1.112-3.286 3.5-5.714 6.02-7.978 3.473-3.351 8.824-4.118 13.414-3.177 5.322 1.613 9.209 6.7 11.343 11.639.243.726.589 1.432.761 2.173.118.681-.733 1.2-1.176.574-.616-1.114-.9-2.4-1.486-3.54-2.66-4.933-7.13-10.389-13.331-9.7-5-.214-8.849 2.982-11.995 6.5a18.3 18.3 0 0 0-2.562 4.732c-.509.755-1.239 3.945-2.288 3.177" data-name="Path 111507"/><path d="M373.18 2747.488a.83.83 0 0 1-.289-.705.69.69 0 0 1 .182-.9c.654-1.955 1.375-3.887 2.01-5.85a13.6 13.6 0 0 1 2.787-5.122 30.6 30.6 0 0 1 6-5.012 15.6 15.6 0 0 1 6.613-1.949 13.4 13.4 0 0 1 4.288-.088 23.6 23.6 0 0 1 7.417 2.9c1.377.891 2.7 1.792 4.061 2.7.685.554 2.75 1.736 2.029 2.738-.538.639-1.095-.176-1.5-.544a62 62 0 0 0-5.2-3.573 20.8 20.8 0 0 0-7.265-2.7 26.3 26.3 0 0 0-5.939.511 12.9 12.9 0 0 0-5.527 2.644 22.2 22.2 0 0 0-5.041 4.868c-1.548 2.685-2.192 5.778-3.377 8.626-.169.417-.205.88-.385 1.285a.58.58 0 0 1-.864.171" data-name="Path 111508"/><path d="M372.127 2748.664a59 59 0 0 1-2.551-8.81c-.938-3.819-2.5-7.6-2.326-11.594.105-1.783 1.026-4.205 3.122-4.218a.817.817 0 0 1 .939.8.67.67 0 0 1-.687.7c-3.9 1.044-1.341 8.273-.614 10.995.964 3.015 1.537 6.344 2.555 9.288.108.982 1.363 2.368.395 3.147a.65.65 0 0 1-.833-.308" data-name="Path 111509"/><path d="M371.045 2730.079a1.2 1.2 0 0 1-.545-.747c-.235-.687.374-1.894 1.16-1.211a.66.66 0 0 1 .58.358c.544.807-.193 2.128-1.195 1.6" data-name="Path 111510"/><path d="M403.954 2727.34c-1.212-.056-.485-2.44.5-1.575 1.298.23.708 2.247-.5 1.575" data-name="Path 111511"/><path d="M462.482 2664.323c-2.926-.021-5.857.061-8.78-.116-1.5-.1-2.993-.188-4.491-.231a65 65 0 0 1-15.407-1.861 19.25 19.25 0 0 1-7.875-4.048 29.6 29.6 0 0 1-3.06-3.1 30.5 30.5 0 0 1-2.352-3.625c-.3-.605-.783-1.525-.155-2.068a.586.586 0 0 1 .715.064.87.87 0 0 1 .326.93 19.9 19.9 0 0 0 3.961 5.4 22 22 0 0 0 2.677 2.349 25 25 0 0 0 2.684 1.47 24.1 24.1 0 0 0 6.023 1.824 50 50 0 0 0 8.039.961c2.228.14 4.462.187 6.692.291 3.218.258 6.441.288 9.667.259a36 36 0 0 0 6.6-.339c1.112-.26 3.638-1.41 3.973-2.518a.59.59 0 0 1 .75-.358.78.78 0 0 1 .42.918c-.328 1.273-1.615 1.915-2.671 2.52a9.16 9.16 0 0 1-4.586 1.148 22.5 22.5 0 0 1-3.15.13" data-name="Path 111512"/><path d="M456.955 2670.224a12.7 12.7 0 0 0-5.493-1.725 62.2 62.2 0 0 0-11.952-1.01 121.5 121.5 0 0 0-16.58.449.53.53 0 0 1-.361.189h.026l.066-.013a1.3 1.3 0 0 1-.845 0 .824.824 0 0 1 .1-1.561c3.838-.33 7.694-.622 11.548-.754 2.973-.039 5.942.177 8.914.261a42.4 42.4 0 0 1 8.689.869 28 28 0 0 1 4.261.888c.805.34 2.934 1 2.32 2.151a.57.57 0 0 1-.693.256" data-name="Path 111513"/><path d="M260.988 2771.772a.773.773 0 0 1-.087-1.439c1.754-1.21 2.223-3.98 2.516-6.009.487-3.195-1.475-8.7 3.178-9.238a51 51 0 0 1 8.167-.5c6.618-.584 13.24-.616 19.84-1.3 2.749-.229 5.51-.155 8.264-.229 3.957-.268 7.87-1.026 11.844-1.049 8.251 0 16.486-1.032 24.659-2.041a72.4 72.4 0 0 1 11.159-1.142c1.193.148 4.423-.638 4.638.625.184 1.43-2.915.616-3.77.869-2.729.227-5.47.348-8.192.647-6.72 1.254-13.558 1.6-20.351 2.324-5.1.348-10.231.036-15.3.8a90 90 0 0 1-10.713.518c-3.811.208-7.6.749-11.416.85-3.812-.016-7.589.557-11.4.658-2.808.116-5.519-.061-8.2.763-1.58.531-.873 2.467-1.02 3.729a30 30 0 0 1-.3 5.439c-.658 1.921-1.192 5.298-3.516 5.725" data-name="Path 111514"/><path d="M285.645 2793.115a21.8 21.8 0 0 1-6.255-2 37.5 37.5 0 0 1-12.7-8.871c-1.854-1.968-4.2-3.526-5.644-5.847a5.18 5.18 0 0 1-.3-4.681.72.72 0 0 1-.1-.963c.51-.588 1.451.043 1.447.719.018.9-.519 1.724-.474 2.63.28 2.186 2.44 3.675 3.855 5.085 1.527 1.315 2.8 2.693 4.25 4.061a42.8 42.8 0 0 0 8.438 5.781c2.93 1.353 5.927 2.926 9.249 2.753 2.848-.279 5.5-1.18 8.328-1.422 1.439-.144 2.88-.286 4.323-.379q.35-.023.7-.021a.71.71 0 0 1 .621.651.69.69 0 0 1-.535.8c-1.437.128-2.879.218-4.315.377a45 45 0 0 0-4.431.657c-2.153.413-4.336 1-6.542.655Z" data-name="Path 111515"/><path d="M487.642 2761.599a.66.66 0 0 1-.474-.287 30 30 0 0 1-2.44-2.974c-1.263-2.067-1.638-4.518-2.59-6.719a15 15 0 0 0-1.077-2.611 6.95 6.95 0 0 0-2.486-2.173 84.4 84.4 0 0 0-14.722-3.872 3.3 3.3 0 0 1-1.383-.28 9.3 9.3 0 0 0-2.064-.254c-1.377-.024-2.745.135-4.118.22-2.617.1-5.068.2-7.648.39q-4.777.33-9.55.7c-4.729.26-9.46.454-14.188.726-2.464.14-4.917.416-7.38.569-1.585.115-3.188-.082-4.762.134a.94.94 0 0 1-.816-.183.69.69 0 0 1 .094-1.071 2.9 2.9 0 0 1 .715-.161c1.521-.159 3.063-.029 4.59-.115 3.221-.223 6.43-.588 9.66-.7 3.113-.106 6.219-.388 9.334-.452 4.426-.207 8.834-.682 13.257-.927 3.269-.214 6.378-.242 9.612-.489a9.24 9.24 0 0 1 3.894.429 53 53 0 0 1 8.848 1.856c1.728.448 3.512 1.081 5.212 1.559a7.83 7.83 0 0 1 5.508 4.512c.588 1.638 1.248 3.271 1.758 4.929a14 14 0 0 0 1.4 3.354c.669.987 1.565 1.8 2.266 2.758.311.399.12 1.149-.45 1.132" data-name="Path 111516"/><path d="M471.86 2764.305c-1.468-.294-2.39-1.621-3.348-2.661a11.5 11.5 0 0 1-1.869-2.842 12.3 12.3 0 0 1-.76-3.145 15 15 0 0 0-7.749-10.853c-.387.368-.969-.04-1.3-.316a.86.86 0 0 1-.087-1.263 1.15 1.15 0 0 1 1.158-.049 15.1 15.1 0 0 1 6.56 5.566 18.1 18.1 0 0 1 2.852 7.931c.434 2.42 2.181 4.4 3.979 5.968 1.55.811 3.3 0 4.883-.3 2.077-.365 4.188-.5 6.264-.885a21.5 21.5 0 0 1 5.016-.305c.763-.475 1.233.822.6 1.243a2.14 2.14 0 0 1-1.223.146 22.4 22.4 0 0 0-3.372.2c-2.059.37-4.137.605-6.21.873-1.802.221-3.553 1.102-5.394.692" data-name="Path 111517"/><path d="M412.344 2757.357a.718.718 0 0 1-.074-1.265c1.338-.191 2.73-.092 4.084-.244 3.638-.283 7.242-.936 10.885-1.162q4.36-.136 8.69-.679c2.872-.231 5.716-.662 8.568-1.055 2.066-.252 4.162-.035 6.217-.388a40 40 0 0 1 6.2-.848 5.1 5.1 0 0 1 2.332.187 1.96 1.96 0 0 1-.6-2.373 11.1 11.1 0 0 0 .19-3.355c-.2-.791.777-1.249 1.124-.446a10.4 10.4 0 0 1-.277 4.756 3.9 3.9 0 0 0 .922.867c.366.254.886.4 1 .878a.83.83 0 0 1-.711 1.025 3.5 3.5 0 0 1-1.285.2c-.569-.111-1.087-.478-1.695-.4-1.351.082-2.7.176-4.043.372a31.5 31.5 0 0 1-5.682.77 51 51 0 0 0-7.929.778c-3.626.338-7.237.891-10.879 1.033-5.677.089-11.38 1.588-17.037 1.349" data-name="Path 111518"/><path d="M421.812 2764.659c-.761-.58-.393-2.425-.45-3.313-.01-.914-.478-2.217.5-2.783a16 16 0 0 1 3.56-.691 42 42 0 0 1 8.948-.658c1.384-.112 2.739-.466 4.132-.5 1.31-.08 2.758-.039 4.042-.054.836-.033 1.671-.091 2.507-.122a1.31 1.31 0 0 1 1.493.633c.265.612.9 1.7.141 2.171-.851.316-.942-.841-1.2-1.371-2.028.1-4.168.18-6.152.2a34 34 0 0 0-4.418.5c-2.193.141-4.4-.024-6.589.228a20 20 0 0 0-1.694.273c-1.4.287-2.749.318-4.055.661.033 1.282-.041 2.562.052 3.842q.016.203.027.405c.021.427-.455.833-.844.579" data-name="Path 111519"/><path d="M451.559 2764.068c-.185-.542-.708-.864-.986-1.358-.527-.641-.884-1.691-1.78-1.863-3.482-.313-6.911.347-10.38.436-4.964.016-9.925.3-14.842.531a.552.552 0 0 1-.993.087 1.45 1.45 0 0 1-.174-.818c.146-1.021 1.861-.666 2.614-.791.916-.041 1.831-.091 2.655-.122 3.245-.128 6.451-.328 9.7-.327 3.887 0 7.754-.793 11.643-.424 1.459.238 2.027 1.793 2.867 2.815a2.62 2.62 0 0 1 .886 1.6.615.615 0 0 1-1.206.226Z" data-name="Path 111520"/><path d="M431.817 2769.618a6.5 6.5 0 0 1-2.2-1.133c-.8-.517-1.581-1.063-2.429-1.5a50 50 0 0 0-4.691-1.85.728.728 0 0 1-.448-1.156c.45-.8 3.209.722 3.961.934a14.7 14.7 0 0 1 3.342 1.727c.365.248.735.487 1.1.727.511.3 1 .793 1.619.8 2.862-.179 5.675-.736 8.511-1.126 4.019-.619 8.022-1.4 12.019-2.1 2.422-.412 4.9-.319 7.349-.556 2.385-.163 4.8.054 7.146-.462.969-.148 1.941-.272 2.809-.455a9.4 9.4 0 0 1 1.913-.291.6.6 0 0 1 .425.124c.445.334.354 1.21-.248 1.3-.38.049-.76.067-1.135.145a56 56 0 0 1-6.071.96c-2.88.047-5.866.214-8.671.39-3.008-.036-5.935.84-8.868 1.288-2.857.516-5.72.99-8.6 1.4a53 53 0 0 1-6.833.834" data-name="Path 111521"/><path d="M451.421 2763.528a.635.635 0 0 1 .61-.669.7.7 0 0 1 .6.728.635.635 0 0 1-.61.669.7.7 0 0 1-.6-.728" data-name="Path 111522"/><path d="M404.174 2770.692c1.336-.223 2.652-.532 3.973-.825 3.7-.5 7.509-.64 11.22-.816a7.9 7.9 0 0 1 2.84-2.692c-1.718-.344-3.4-.86-5.136-1.1a13.07 13.07 0 0 0-8.033 1.683c-.682.4-1.323.85-1.985 1.28a8.2 8.2 0 0 0-2.879 2.47m-1.006 1.38a1.21 1.21 0 0 1-.361-1.545c.693-2.173 2.958-3.11 4.672-4.347a15.5 15.5 0 0 1 3.015-1.653 15.3 15.3 0 0 1 6.549-.8 34.5 34.5 0 0 1 4.556.971c.834.208 1.7.306 2.517.558a.6.6 0 0 1 .29.223 3.13 3.13 0 0 1 1.7-.021.723.723 0 0 1-.078 1.269 7.28 7.28 0 0 0-5.8 3.47 1.36 1.36 0 0 1-1.028.332c-.63.026-1.259.021-1.889.04-3.121.206-6.283.307-9.373.783-1.163.256-2.327.514-3.5.712a1.86 1.86 0 0 1-1.271.008Z" data-name="Path 111523"/><path d="M418.209 2770.609a.635.635 0 0 1 .49-.734c.585-.07 1.169-.15 1.756-.206 1.082-.086 2.157-.218 3.235-.337a56 56 0 0 0 6.689-.579c.981-.161 1.946-.409 2.928-.564a1.5 1.5 0 0 1 .848.068.724.724 0 0 1 0 1.223c-.649.128-1.34.163-1.99.342a32.4 32.4 0 0 1-5.359.722 41 41 0 0 0-4.766.346q-1.589.164-3.179.312a.637.637 0 0 1-.652-.593" data-name="Path 111524"/><path d="M308.771 2788.446c-.5-.041-.611-.608-.609-1.024a2.58 2.58 0 0 1 .567-1.745 10.1 10.1 0 0 1 3.345-2.444 16.2 16.2 0 0 1 3.856-1.849c5.837-1.453 11.879-1.892 17.845-2.554 3.926-.418 7.839-.951 11.773-1.278 2.986-.16 5.923-.279 8.887-.62 3.4-.2 6.793-.607 10.178-1.018 3.636-.539 7.021-1.462 10.615-2.04 5.527-.813 11.217.212 16.667-1.209 2.718-.748 5.55-.613 8.306-1.118.883-.162 1.76-.334 2.654-.422.585-.06 1.4-.248 1.5.567.086 1.055-1.107.769-1.791.911-1.273.162-2.521.461-3.795.618-1.722.237-3.577.224-5.263.614a46 46 0 0 1-5.494.969c-3.1.3-6.38.1-9.455.224-3.976.18-7.833 1.283-11.736 1.977-1.914.358-3.851.564-5.783.787q-2.891.376-5.8.542c-1.994.141-3.977.414-5.975.506-3.928.128-7.826.64-11.726 1.094-4.971.7-9.987 1.023-14.949 1.8a35.5 35.5 0 0 0-7 1.38 45 45 0 0 0-4.338 2.278c-.982.6-1.949 1.357-1.929 2.611a.57.57 0 0 1-.55.443" data-name="Path 111525"/><path d="M347.545 2793.862c-4.219 0-8.423-.464-12.642-.507-4.122-.017-8.191-.652-12.286-1.03-3.795-.338-7.9-.184-11.232-2.31a4.5 4.5 0 0 1-2-2.272c-.283-.726.158-1.818 1.065-1.345a.834.834 0 0 1 .264 1.158c1.22 1.548 3.229 2.171 5.08 2.583a79 79 0 0 0 7.984.787c2 .192 3.983.513 5.987.675 2.061.181 4.128.243 6.2.285 4.574.106 9.141.6 13.721.458 1.637-.077 3.264-.255 4.891-.439 3.328-.373 6.671-.562 9.994-.979 3-.21 6.026-.119 9.018-.515 2.908-.316 5.713-1.21 8.621-1.518 2.677-.374 5.392-.352 8.063-.788 2.12-.3 4.229-.651 6.358-.867 4.243-.343 8.506-.428 12.738-.927 6.345-.659 12.7-1.212 19.04-1.936 4.328-.655 8.7-1 13.03-1.6 4.19-.827 8.4-1.545 12.641-2.1 5.313-.545 10.6-1.283 15.912-1.87a43 43 0 0 0 4.969-.619 46 46 0 0 1 5.774-1.36c2.151-.28 4.317-.5 6.445-.934 4.57-1.135 9.264-1.779 13.85-2.781a61 61 0 0 1 7.854-1.1c2.176-.227 4.3-.784 6.462-1.061 1.054-.111 2.13-.056 3.175-.247a22 22 0 0 0 2.295-.758c.364-.113.759-.069 1.115-.217a.68.68 0 0 1 .981-.154 1.08 1.08 0 0 1-.405 1.771 10 10 0 0 1-1.326.331 13.35 13.35 0 0 1-5.227.989c-1.916.159-3.76.751-5.67.956-1.834.325-3.7.363-5.54.643-4.77.911-9.525 1.883-14.307 2.73a55 55 0 0 1-5.492 1.107 43.4 43.4 0 0 0-8.255 1.507c-3.012.893-6.178.86-9.269 1.291-4.318.563-8.637 1.1-12.967 1.56-3.166.389-6.308.931-9.451 1.474a60 60 0 0 1-6.337 1.032c-4.363.4-8.69 1.108-13.05 1.532-2.141.153-4.275.36-6.408.591-7.368.72-14.733 1.463-22.128 1.815-3.107.259-6.167.907-9.27 1.2-1.991.165-3.987.246-5.967.534-3.259.435-6.418 1.393-9.711 1.6-2.128.2-4.266.2-6.4.267-2.016.087-4.012.4-6.027.51-4.061.181-8.087.928-12.16.848" data-name="Path 111526"/><path d="M521.264 2769.248c-1.027-1.029-2.84-.775-4.184-1.009-2.226-.281-4.418-.754-6.625-1.142-3.079-.447-6.108-1.137-9.146-1.786-3.044-.508-6.121-.824-9.124-1.565-1.357-.324-2.71-.684-4.031-1.132a4.4 4.4 0 0 1-1.364-.634.783.783 0 0 1 .334-1.306c.368 0 .86-.008 1.057.357a46 46 0 0 0 5.944 1.566c3 .635 6.071.845 9.059 1.538 3.026.762 6.114 1.2 9.182 1.748 1.571.295 3.139.6 4.724.822 1.625.234 4.414.08 5.223 1.8.303.685-.509 1.42-1.049.743" data-name="Path 111527"/><path d="M553.72 2769.965a1 1 0 0 1-.046-.092c-7.614-2.551-15.64-3.2-23.46-4.87-9.714-2.185-19.557-4.04-29.539-4.065-2.691.053-5.393-.019-8.072.261a22 22 0 0 0-3.743.775c-.7.058-.984-.973-.439-1.364 2.953-1.175 6.233-1.089 9.368-1.146a65.4 65.4 0 0 1 9.591.313c9.567.363 18.79 2.913 28.146 4.679 6.248 1.037 12.5 1.969 18.553 3.883 1.395.401.937 2.974-.359 1.626" data-name="Path 111528"/><path d="M494.26 2764.529a.71.71 0 0 1-.621-.562c-.417-1.64 3.454-1.461 4.48-1.688 2.162-.3 4.294-.78 6.456-1.089a42 42 0 0 1 5.9-.83c.786.031.891 1.4.089 1.506-3.979.4-7.9 1.275-11.846 1.906a19.7 19.7 0 0 0-3.825.612 4 4 0 0 1-.633.145" data-name="Path 111529"/><path d="M329.647 2800.768c-4.926-.521-31.307-3.479-29.417-10.517.926-3.883 5.459-5.253 8.772-6.488 1.081-.186 4.8-2.266 5.119-.628.021 1.259-2.369 1.166-3.246 1.708-2.828 1.248-9.6 2.725-9.073 6.7v-.022c2.4 2.928 8.011 3.314 11.516 4.477a116.9 116.9 0 0 0 26.732 2.6c.732.007 1.773-.139 1.984.784a1.03 1.03 0 0 1-.467 1.182c-3.854.764-7.987.311-11.92.204" data-name="Path 111530"/><path d="M340.533 2800.562a.956.956 0 0 1-.356-1.43c.358-.449.991-.356 1.5-.484a17.6 17.6 0 0 1 4.638-1.067c1.889-.118 3.788-.2 5.659-.5 2.864-.379 5.75-.6 8.6-1.082 2.08-.357 4.178-.567 6.272-.835 3.053-.453 6.114-.851 9.2-1.049 4.856-.419 9.745-.268 14.615-.407 2.091-.056 4.156-.429 6.237-.6 3.145-.235 6.272-.6 9.4-.986 3.023-.249 6.057-.385 9.057-.862 1.6-.212 3.2-.384 4.781-.7a18 18 0 0 1 2.549-.45c2.851-.174 5.652-.669 8.469-1.114 1.9-.222 3.8-.4 5.7-.688 1.816-.235 3.651-.343 5.445-.734 1.275-.292 2.549-.6 3.839-.822 3.908-.623 7.835-1.118 11.7-1.975a51 51 0 0 1 6.111-1.148c1.965-.2 3.924-.473 5.884-.712 4.074-.461 8.192-.441 12.229-1.215 6.05-.938 12.086-1.951 18.118-2.986 2.2-.395 4.4-.869 6.615-1.164 2.023-.262 4.056-.439 6.071-.769 2.056-.32 4.079-.816 6.135-1.139 3.249-.42 6.519-.679 9.761-1.158 2.766-.281 5.508-.743 8.268-1.061q2.553-.239 5.1-.578a62 62 0 0 1 9.131-.593c.588-1.42.937-1.451 2.367-1.618.2-.567-.138-1.167.03-1.724a.58.58 0 0 1 .75-.362c.468.2.486.748.543 1.186a4 4 0 0 1 .015 1.231c-.183 1.2-1.161 1.326-2.166 1.417-.208.333-.317.716-.508 1.057-.379.605-1.137.624-1.779.637a47 47 0 0 0-5.64.25c-8.42 1.124-16.849 2.162-25.3 3.033-3.04.443-6.017 1.249-9.071 1.613-4.318.448-8.547 1.425-12.823 2.146-8.091 1.253-16.132 3.022-24.333 3.348-2.761.209-5.493.662-8.241.993a45 45 0 0 0-7.219 1.419c-4.309 1.034-8.734 1.392-13.072 2.26a34 34 0 0 1-5.777.991c-2.98.289-5.957.645-8.924 1.044-2.895.654-5.865.722-8.785 1.18-3.062.646-6.19.968-9.3 1.305-3.1.217-6.2.413-9.272.869-3.578.37-7.163.684-10.741 1.057-5.288.257-10.6.017-15.88.506-4.165.252-8.266 1.041-12.413 1.472-3.773.574-7.551 1.091-11.354 1.424-2.412.425-4.881.3-7.3.607-1.509.328-2.979 1.128-4.535.967" data-name="Path 111531"/><path d="M485.709 2789.992a16.8 16.8 0 0 1-3.5-.953c-.758-.224-1.7-1.035-1.142-1.862a.62.62 0 0 1 .805-.167c.119.07.242.131.366.193 3.141 1.492 6.679 1.272 10.011.662 1.266-.206 2.535-.4 3.792-.652a36 36 0 0 0 5.916-2 81 81 0 0 0 4.149-1.636 17.2 17.2 0 0 1 4.636-1.038 67 67 0 0 1 9.657.227c2.675.049 5.356.077 8.03.006 3.239-.083 6.267-1.12 9.4-1.692 2.419-.329 4.826-.7 7.218-1.194a27 27 0 0 0 3.8-.841c1.23-.47.979-2.075 1.168-3.141.071-.628.207-1.241.336-1.859a1.46 1.46 0 0 1 .31-.855c.444-.467 1.175.039 1.15.609q-.145.784-.28 1.576a18.5 18.5 0 0 1-.634 3.749c-.863 2.03-4.112 2.025-6 2.486-2.373.489-4.771.807-7.161 1.191-1.787.339-3.533.864-5.322 1.2-3.212.682-6.514.491-9.777.544-2.656.093-5.29-.318-7.943-.34a19 19 0 0 0-9.935 1.831c-2.562.919-5.017 2.08-7.654 2.747-3.735.744-7.564 1.624-11.396 1.209" data-name="Path 111532"/><path d="M531.294 2782.087c-.557-1.628 2.327-1.168 1.3-5.569-1.066-1.175 1.033-2.075 1.351-.589a7.1 7.1 0 0 1-.323 5.046c-.378.725-1.59 2.146-2.328 1.112" data-name="Path 111533"/><path d="M485.379 2789.613a.769.769 0 0 1-.083-1.346c.379-.138.8-.108 1.192-.211a9.2 9.2 0 0 0 3.5-1.482 6.7 6.7 0 0 0 1.579-1.928c.345-.6.494-2.037 1.473-1.6a.885.885 0 0 1 .377.983 6.4 6.4 0 0 1-.976 2.24 7.2 7.2 0 0 1-3.635 2.752 6.54 6.54 0 0 1-3.427.592" data-name="Path 111534"/><path d="M480.09 2799.311c-.528-1.609.667-13.052-1.422-12.989-8.24 1.38-16.529 2.66-24.858 3.411-7.219.892-14.156 3.226-21.423 3.854-2.868.328-4.727 1.363-7.2-.806a.87.87 0 0 1 .084-1.414c.672-.215 1.281.483 1.849.764 1.4.9 4.1-.415 5.813-.42 3.547-.566 7.118-.97 10.6-1.882a94.7 94.7 0 0 1 15.062-2.332c6.651-.867 13.285-1.947 19.938-2.763 3.39-.2 2.722 7.6 2.986 9.94-.175.885.442 6.596-1.429 4.637" data-name="Path 111535"/><path d="M426.769 2808.523c-4.02-.632-7.719-2.489-11.41-4.117-2.634-1.179-5.247-2.432-7.969-3.4-1.128-.349-2.277-.616-3.42-.908-3.1-1-6.149-2.125-9.192-3.273-.749-.3-1.515-.545-2.275-.813-.593-.163-1.326-.549-1.118-1.281.3-.98 1.347-.285 1.99-.1 2.909 1 5.765 2.157 8.7 3.089 1.631.629 3.494 1.045 5.147 1.505 5.944 2.047 11.417 5.357 17.466 7.135a15 15 0 0 0 2.091.5 14 14 0 0 0 2.213-.128 80 80 0 0 0 8.121-1.386c3.453-.431 6.923-.734 10.354-1.346 2.626-.372 5.19-1.054 7.8-1.512 1.817-.3 3.628-.634 5.442-.944 5.168-.678 10.25-1.849 15.408-2.6a23.3 23.3 0 0 1 3.917-.469 1.4 1.4 0 0 1 .705.127.836.836 0 0 1 .083 1.342.9.9 0 0 1-.748.075 36 36 0 0 0-4.88.722c-3.338.543-6.608 1.269-9.93 1.857-2.559.473-5.145.776-7.7 1.267-3.951.623-7.828 1.641-11.8 2.121-3.283.559-6.684.639-9.947 1.254a57.5 57.5 0 0 1-9.048 1.283" data-name="Path 111536"/><path d="M452.371 2809.012c-.942-.29-11.078-2.676-7.788-4.107a68 68 0 0 0 7.881 2.614c.94.015.857 1.693-.093 1.493" data-name="Path 111537"/><path d="M441.421 2818.91a15.04 15.04 0 0 1-7.058-2.162c-.523-.3-1.127-.87-.755-1.514a.62.62 0 0 1 .849-.249 9.2 9.2 0 0 0 3.017 1.576 17.9 17.9 0 0 0 6.687.8 8.8 8.8 0 0 0 5.67-1.688c.775-.99-.514-1.938-1.088-2.666a1.042 1.042 0 0 1-.121-1.7 12.4 12.4 0 0 1 3.56-.975c-.162-.713-.282-1.437-.47-2.144-.385-.374-.387-1.264.23-1.372 1.306-.019 1.182 1.882 1.52 2.775a5.2 5.2 0 0 1 .285 1.265c-.029.981-1.122 1.259-1.93 1.268a8.6 8.6 0 0 0-1.65.4c.964.988 1.679 2.471.971 3.8-.758 1.315-2.373 1.772-3.722 2.246a26.3 26.3 0 0 1-5.995.34" data-name="Path 111538"/><path d="M440.358 2827.773a26.3 26.3 0 0 1-4.739-.789c-.585-.142-1.312-.41-1.4-1.09-.041-.779-.243-1.54-.286-2.32-.048-1.542-.1-3.137-.24-4.662-.038-1.01-.189-2.014-.225-3.024a1.136 1.136 0 0 1 1.266-1.4c1.612-.23 3.107-.941 4.7-1.254 3.175-.629 6.318-1.631 9.487-2.2a.5.5 0 0 1 .369-.173 2.3 2.3 0 0 1 .595-.046.83.83 0 0 1 .353 1.359 6.4 6.4 0 0 1-2.27.676q-2.164.472-4.3 1.054c-1.437.39-2.895.672-4.355.96-1.507.3-2.95.908-4.479 1.089.153 1.717.3 3.434.409 5.154a24.4 24.4 0 0 0 .285 4.2c4.99 1.389 8.374 1.063 13.169-.758.966-.5 2.519-.985 2.746-2.178-.278-1.262-.7-2.487-.911-3.765a18 18 0 0 1-.36-2.792c.01-.6-.354-1.531.392-1.813 1.316-.307 1.006 2.9 1.292 3.719a31 31 0 0 0 .779 3.262 3.45 3.45 0 0 1-.117 2.84c-.93 1.556-3.479 2.367-5.142 2.9a18.4 18.4 0 0 1-7.018 1.051" data-name="Path 111539"/><path d="M432.097 2828.136c-.978-.5-1.123-1.729-1.485-2.659-.866-2.524-.9-5.234-1.137-7.868a20 20 0 0 1 .345-3.962c.087-.766.9-.986 1.547-1.1.663-.149 1.333-.265 1.893-.376 2.359-.531 4.673-1.247 7.031-1.787a39 39 0 0 0 4.6-1.591c1.381-.449 2.792-.8 4.19-1.191a5.8 5.8 0 0 1 2.083-.346.718.718 0 0 1 .168 1.36 42 42 0 0 0-8.542 2.614 48 48 0 0 1-4.688 1.342c-2.272.666-4.552 1.283-6.871 1.762a21.4 21.4 0 0 0-.045 6.417 17.3 17.3 0 0 0 .84 4.45c.211.489.246 1.168.657 1.522.951.127 1.752-.6 2.676-.7.523-.1 1.175.037 1.24.665a.705.705 0 0 1-.546.82c-1.349-.07-2.589 1.22-3.956.628" data-name="Path 111540"/><path d="M432.15 2828.454c-6.015-1.4-11.925-4.033-17.548-6.551-5.593-2.189-11.1-4.651-16.8-6.544-1.333-.386-2.493-.762-3.764-1.055a11.2 11.2 0 0 1-3.445-.466c-1.636-.167-3.353.2-4.891-.544-6.737-3.549-18.234-4.894-18.376-14.445.012-.668-.135-2.023.837-1.953a.77.77 0 0 1 .554.77c-.773 9.356 10.841 10.482 17.114 13.944 1.733.96 3.746.231 5.584.726a6.9 6.9 0 0 0 2.707.252 46 46 0 0 1 6.05 1.69c5.618 2.2 11.272 4.381 16.785 6.832a98 98 0 0 0 15.26 5.783l-.08-.011h-.051c.914-.023.998 1.568.064 1.572" data-name="Path 111541"/><path d="M392.843 2813.327c-.706-.216-.693-1.131-.752-1.738a17.8 17.8 0 0 1 .273-4.327c.337-2.483.635-5.1-.121-7.531q-1.961-.665-3.878-1.446a49 49 0 0 1-4.751-1.8c-.615-.3-.4-1.51.358-1.356 1.989.687 3.991 1.356 5.947 2.137.687.273 1.381.521 2.08.761a3.1 3.1 0 0 1 1.216.6 6 6 0 0 1 .672 2.258 22.8 22.8 0 0 1 0 5.147 27.3 27.3 0 0 0-.466 4.4 10.4 10.4 0 0 0 .086 1.84c.213.473-.087 1.163-.664 1.055" data-name="Path 111542"/><path d="M403.727 2808.557a.85.85 0 0 1-.7-.827.92.92 0 0 1 .885-.829c1.046.072.906 1.934-.185 1.656" data-name="Path 111543"/><path d="M403.668 2813.029c-1.109-.129-.663-2.123.408-1.71a2 2 0 0 1 .459.287.73.73 0 0 1-.429 1.245.57.57 0 0 1-.438.178" data-name="Path 111544"/><path d="M427.129 2812.348c-2.605-.8-5.144-1.819-7.733-2.684a79 79 0 0 1-9.072-3.484.76.76 0 0 1-.326-.85c.264-.872 1.187-.252 1.733-.039a63 63 0 0 0 8.729 3.293c2.087.713 4.129 1.538 6.244 2.166a12 12 0 0 1 1.314.475c.434.318.342 1.177-.239 1.255a1.6 1.6 0 0 1-.65-.132" data-name="Path 111545"/><path d="M426.97 2804.96c-.355-.218-.4-.67-.449-1.047a18 18 0 0 1-.089-1.525 17 17 0 0 1 .146-3.053 16 16 0 0 0-.154-2.573.612.612 0 1 1 1.2-.148 13.2 13.2 0 0 1 .192 3.111 20.5 20.5 0 0 0-.071 3.78c.02.294.06.588.073.883a.584.584 0 0 1-.848.572" data-name="Path 111546"/><path d="M462.751 2799.939a3 3 0 0 1-1.688-.469 1.1 1.1 0 0 1 .349-1.887 8.7 8.7 0 0 1 2.954-.639 35 35 0 0 1 4.343-.448 1.5 1.5 0 0 1 .914.281c.627.455.6 2.512-.506 1.979a8 8 0 0 1-1.99.663 17.6 17.6 0 0 1-4.376.52" data-name="Path 111547"/><path d="M452.507 2801.371a1.036 1.036 0 0 1-.576-1.88 10.1 10.1 0 0 1 4.22-.88 4 4 0 0 1 1.435-.137 1.8 1.8 0 0 1 .765.148c.914.535.49 1.588-.346 1.941a10 10 0 0 1-3.182.8 6.9 6.9 0 0 1-2.316.008" data-name="Path 111548"/><path d="M443.29 2802.002a.8.8 0 0 1-.346-.479 2.4 2.4 0 0 0-.793.263 2.17 2.17 0 0 0 1.139.216m-1.173 1.393a1.664 1.664 0 0 1-.313-3.124c1.3-.372 3.34-.933 4.236.418 2.436 2.103-2.334 3.406-3.924 2.705Z" data-name="Path 111549"/><path d="M460.229 2793.16a.81.81 0 0 1 .778-.854.89.89 0 0 1 .769.928.81.81 0 0 1-.778.853.89.89 0 0 1-.769-.927" data-name="Path 111550"/><path d="M449.702 2794.432a.86.86 0 0 1 .825-.906.94.94 0 0 1 .816.985.86.86 0 0 1-.825.906.943.943 0 0 1-.816-.985" data-name="Path 111551"/><path d="M395.75 2824.035a1.7 1.7 0 0 1-.3-.943c-.224-1.076-.329-2.167-.459-3.257a29 29 0 0 1-.465-4.4c-.017-.4.054-.937.539-1a.67.67 0 0 1 .7.63c.085 2.27.517 4.5.749 6.757.025.647.626 2.2-.294 2.388a.56.56 0 0 1-.47-.175" data-name="Path 111552"/><path d="M401.438 2825.63c-.439-.018-.6-.476-.883-.739-.385-.172-.866.146-1.267.207-1.134.391-2.071-.2-3-.773-.762-.077-.762-1.37.023-1.408a1.2 1.2 0 0 1 .692.212c1.385 1.162 2.2.074 3.654.167.855.155 1.947 1.334 1.236 2.156a.63.63 0 0 1-.455.178" data-name="Path 111553"/><path d="M343.114 2837.84c-1.741-.506-3.082-1.858-4.558-2.854-1.858-1.375-3.386-3.137-5.28-4.474a84 84 0 0 0-7.913-5.259 115 115 0 0 0-4-2.422c-1.483-.978-2.947-1.988-4.433-2.963-.993-.63-1.182-1.656-.161-2.388a3.45 3.45 0 0 1 1.653-.367c1.9-.113 3.8-.055 5.7-.116a152 152 0 0 0 9.013-1.066c3.078-.611 6.02-1.445 9.1-1.992.741-.068 1.031 1.029.462 1.432a6.3 6.3 0 0 1-1.552.4c-2.714.457-5.33 1.377-8.048 1.818-3.1.361-6.182.871-9.294 1.058-1.914.064-3.836-.044-5.746.119.95.549 1.907 1.173 2.791 1.8 1.734 1.11 3.564 2.06 5.291 3.181a61.4 61.4 0 0 1 12.07 8.934 55 55 0 0 0 4.617 3.417 5.9 5.9 0 0 0 2.59.181 145 145 0 0 0 18.532-2.608c3.742-.747 7.7-1.33 11.411-1.963a475 475 0 0 1 10.2-2.137c1.952-.369 3.9-.7 5.815-1.112 1.829-.409 3.8-.983 5.593-1.344 4.181-.892 8.278-1.88 12.459-2.691 2.151-.42 4.3-.874 6.447-1.289 1.108-.127 3.357-.917 4.1-.084a.81.81 0 0 1-.931 1.254 7.4 7.4 0 0 0-2.216.24c-5.808 1.171-11.621 2.337-17.39 3.665-2.062.471-4.13.918-6.178 1.449-2.912.718-5.875 1.19-8.817 1.768-3.222.63-6.361 1.344-9.553 2-3.08.484-6.165.949-9.227 1.547-7.451 1.303-14.964 3.001-22.547 2.866" data-name="Path 111554"/><path d="M343.826 2826.013c-1.095-.315-.487-1.978-.694-2.844-.077-3.742.029-7.552-.224-11.267.2-1.637-1.481-12.354.152-12.219.972.176.568 1.454.685 2.157-.051 3.174.329 6.208.489 9.331.214 3.929.178 7.861.193 11.794-.175.915.59 2.751-.601 3.048" data-name="Path 111555"/><path d="M460.226 2826.564c-1.251-.639-2.665-.929-3.949-1.519-1.363-.652-2.824-1.041-4.21-1.63-.672-.271-.458-1.487.331-1.255 1.081.452 2.2.79 3.3 1.212 1.226.5 2.48.909 3.736 1.321a4.8 4.8 0 0 1 1.322.61c.492.424.177 1.466-.542 1.259Z" data-name="Path 111556"/><path d="M461.129 2830.445c-.747-.092-.631-1.031-.726-1.584.008-.659-.517-1.9.391-2.126a.675.675 0 0 1 .694.629c.003.738.81 3.042-.359 3.081" data-name="Path 111557"/><path d="M332.051 2856.369a.673.673 0 0 1 .664-.773 27 27 0 0 1 5.163-1.023c1.851-.393 3.654-.985 5.515-1.337 1.9-.336 3.807-.6 5.694-1 1.459-.292 2.863-.783 4.3-1.157 1.5-.353 3.037-.565 4.547-.883 1.4-.3 2.785-.689 4.206-.87 1.394-.159 2.8-.22 4.177-.512 2.855-.69 5.811-1.653 8.667-2.161 2.006-.431 3.978-1.016 6-1.369 2.032-.382 4.084-.675 6.1-1.1 3.78-.852 7.52-1.806 11.353-2.4 2.679-.4 5.208-1.047 7.831-1.616 2.64-.518 5.29-1 7.9-1.637 2.594-.643 5.138-1.479 7.739-2.1 2.55-.591 5.106-1.155 7.655-1.751a87 87 0 0 1 7.8-1.372 95 95 0 0 0 10.874-1.242c2.456-.561 4.957-1.216 7.416-1.668 1.556-.327 3.108-.679 4.664-1a.693.693 0 0 1 .666 1.1c-.415.387-1.071.352-1.591.523-1.9.427-3.882.843-5.766 1.225a67 67 0 0 1-11.308 2.072c-1.3.129-2.615.206-3.923.3-2.576.245-5.12.772-7.66 1.259-5.141 1.145-10.276 2.3-15.319 3.83-4.4 1.143-8.974 1.8-13.345 2.876-2.738.553-5.673.969-8.361 1.545-2.317.491-4.6 1.14-6.929 1.57-3.248.589-6.525 1.045-9.711 1.93-2.108.51-4.142.859-6.207 1.446a32.2 32.2 0 0 1-8.17 1.611c-1.659.17-3.261.664-4.892.986-1.146.238-2.3.414-3.364.621-1.9.395-3.709 1.1-5.622 1.428-2.66.524-5.369.77-7.98 1.53a41 41 0 0 1-6.223 1.178c-1.009.137-2.24 1.179-2.56-.059" data-name="Path 111558"/><path d="M332.575 2856.926a3.4 3.4 0 0 1-.905-.657 86 86 0 0 0-2.479-1.993c-1.771-1.325-3.354-2.875-5.079-4.256a78 78 0 0 1-6.427-5.365c-1.579-1.507-3.446-2.649-5.112-4.048-1.132-.957-2.157-2.03-3.227-3.054a36 36 0 0 0-4.25-3.654 38 38 0 0 1-4.653-4.116 34 34 0 0 0-3.289-2.557 5.95 5.95 0 0 1-1.807-1.639 5.8 5.8 0 0 1 .013-2.087.615.615 0 0 1 .6-.569c.994.19.467 1.471.509 2.164.96.774 2.022 1.412 3 2.159a39 39 0 0 1 3.833 3.452c2.147 1.879 4.51 3.4 6.525 5.456a58 58 0 0 0 4.355 4 46 46 0 0 1 5.331 4.338c1.61 1.5 3.37 2.831 5.107 4.181 1.715 1.337 3.249 2.881 4.974 4.2 1.118.895 2.277 1.748 3.314 2.737a1.03 1.03 0 0 1 .328.581c.073.378-.265.841-.672.724Z" data-name="Path 111559"/><path d="M296.608 2822.169a.62.62 0 0 1 .481-.719c.556-.059 1.1-.146 1.564-.244 1.367-.291 2.755-.473 4.131-.711 3.024-.609 6.091-.924 9.135-1.4a30.7 30.7 0 0 1 5.668-.847v.006a.69.69 0 0 1 .082 1.287c-.463.07-.94.072-1.407.142-2.63.451-5.227 1.088-7.9 1.309-2.728.395-5.428.956-8.159 1.335a27 27 0 0 1-2.957.419.627.627 0 0 1-.638-.577" data-name="Path 111560"/><path d="M332.483 2854.284c-.46-.359-.406-1.71.339-1.685.993.066.717 2.366-.339 1.685" data-name="Path 111561"/><path d="M331.822 2852.541c-1.47-1.068-2.962-2.112-4.349-3.29a59 59 0 0 0-5.479-4.607c-2.589-1.825-4.822-4.078-7.257-6.093-1.134-.914-2.38-1.684-3.483-2.641a44.6 44.6 0 0 0-4.875-3.96c-3.035-2.046-5.432-4.9-8.321-7.1-.572-.406-.169-1.587.581-1.2a12 12 0 0 1 1.116.869c2.17 1.811 4.1 3.9 6.359 5.6 1.165.883 2.373 1.713 3.511 2.632a47 47 0 0 0 5.016 4.062c2.252 1.706 4.242 3.735 6.446 5.5 1.738 1.326 3.561 2.546 5.167 4.036a46.6 46.6 0 0 0 5.782 4.657c.357.33.978.5.967 1.076a.681.681 0 0 1-1.181.459" data-name="Path 111562"/><path d="M332.102 2853.526c-.345-.789.284-1.159 1-1.265a11 11 0 0 1 2.11-.393c1.316-.214 2.6-.555 3.918-.778 1.241-.276 2.407-.805 3.629-1.142 2.109-.525 4.315-1.126 6.445-1.494 4.8-1.173 9.713-1.782 14.567-2.69 3.5-.72 6.956-1.643 10.478-2.281 5.59-1.376 11.152-2.652 16.789-3.7 4.95-1.192 9.925-2.261 14.857-3.528 2.8-.62 5.652-.908 8.465-1.44 4.512-.94 9.065-1.663 13.563-2.679 4.758-.826 9.531-1.587 14.245-2.63 1.207-.232 2.432-.349 3.639-.583 1.632-.368 3.252-.78 4.89-1.122a36 36 0 0 1 6.348-1.188c.584-.035 1.341-.319 1.463.5.07.975-1.121.752-1.76.86a39 39 0 0 0-5.415 1.047c-1.808.378-3.6.827-5.4 1.214-1.847.318-3.717.553-5.543.964-3.684.854-7.43 1.372-11.156 2.006-2.277.4-4.49 1.037-6.768 1.415-1.709.3-3.43.584-5.124.944-3.382.788-6.874 1.172-10.276 1.808q-7.311 1.8-14.635 3.547c-1.8.439-3.628.711-5.438 1.09-1.774.4-3.612.863-5.378 1.205-3.918.876-7.785 1.961-11.743 2.653-2.372.526-4.714 1.182-7.119 1.555-4.805.791-9.635 1.576-14.362 2.665a60 60 0 0 0-7.942 2.167c-1.85.495-3.747.833-5.636 1.15a9.4 9.4 0 0 0-1.873.388.607.607 0 0 1-.838-.265" data-name="Path 111563"/><path d="M355.238 2820.373c-.615-.168-.487-.894-.445-1.38.105-2.938.1-5.882 0-8.821-.214-3.273-.979-6.51-.96-9.8a.609.609 0 1 1 1.214-.045c.124 1.849.241 3.525.5 5.335a53 53 0 0 1 .547 8.558c0 1.468 0 2.937-.074 4.4-.086.593.098 1.811-.782 1.753" data-name="Path 111564"/><path d="M348.897 2822.802c-.6-.4-.306-1.238-.395-1.843q-.047-1.657-.124-3.313a501 501 0 0 0-.833-14.4c-.04-.738-.064-1.476-.123-2.213-.07-.4.048-.929.521-.992a.684.684 0 0 1 .707.639c.163 2.011.232 3.956.4 5.945.312 4.319.514 8.649.686 12.976a10 10 0 0 0 .172 2.173.7.7 0 0 1-.11.382.73.73 0 0 1-.3.625.57.57 0 0 1-.601.021" data-name="Path 111565"/><path d="M367.411 2828.697a49 49 0 0 1-6.787-3.854c-1.775-1.089-3.394-2.41-5.181-3.474a.76.76 0 0 1-.29-.921.557.557 0 0 1 .789-.3 24 24 0 0 1 3.052 2 62.6 62.6 0 0 0 9.1 5.374c.376-.047.663.357.662.71-.034.79-.794.805-1.345.465" data-name="Path 111566"/><path d="M361.716 2831.026a31 31 0 0 1-4.246-1.93c-1.354-.663-2.711-1.315-4.042-2.023-.938-.51-1.908-.961-2.832-1.5a.8.8 0 0 1-.3-.967.593.593 0 0 1 .891-.286c1.333.616 2.635 1.294 3.936 1.974 1.381.7 2.783 1.362 4.169 2.054a10.3 10.3 0 0 0 2.84 1.2c2.2-.72 4.554-1.164 6.536-2.415.584-.676 1.35.111 1.036.812-.309.615-1.043.866-1.62 1.162a21.3 21.3 0 0 1-4.187 1.382c-.736.145-1.42.644-2.181.537" data-name="Path 111567"/><path d="M368.394 2822.676c-1.019-.206-.505-1.556-.626-2.29.033-3.229-.19-6.454-.472-9.665a.7.7 0 0 1 .536-.8c1.409-.215.989 6.812 1.191 8-.195.953.569 4.778-.629 4.755" data-name="Path 111568"/><path d="M367.619 2822.406c-2.317-2.943-13.846-3-11-8.056 1.554-2.672 3.185-5.584 5.472-7.678.717-.336 1.244.807.7 1.269a27.5 27.5 0 0 0-3.072 4.233c-.824 1.289-2.056 2.549-2.173 4.136 3.209 1.929 7.217 2.211 10.236 4.415.411.388 1.036.884.687 1.5a.567.567 0 0 1-.85.181" data-name="Path 111569"/><path d="M369.242 2810.572c-.779-.071-.924-1.334-.1-1.43.51-.027 1.032.011 1.541-.064.133-1 1.345-.724 1.238.2-.141 1.49-1.539 1.332-2.679 1.294" data-name="Path 111570"/><path d="M362.599 2807.658c-.736-.208-.478-1.1-.393-1.659.237-1.2.384-2.408.529-3.619.144-.881 1.224-.674 1.221.161a15.7 15.7 0 0 1-.505 3.877c-.112.481-.16 1.351-.852 1.24" data-name="Path 111571"/><path d="M368.237 2803.805c-2.506-1.22-5.134-2.2-7.561-3.579-.651-.342-.35-1.606.442-1.326 2.491 1.258 4.984 2.313 7.471 3.543 1.151.014.792 1.938-.352 1.362" data-name="Path 111572"/><path d="M270.28 2771.034a.75.75 0 0 1-.33-.453c-.234-.747-.349-1.521-.542-2.279-.4-1.988-.691-3.791-1.017-5.75-.536-2.273-.116-2.841-2.683-3.464-.284-.09-.6-.2-.71-.514-.181-.422.108-1.02.618-.925 1.114.38 2.48.647 3.157 1.724a21.3 21.3 0 0 1 1.162 5.144c.3 1.4.457 2.835.83 4.224a13 13 0 0 0 .36 1.484c.174.487-.343 1.113-.845.809" data-name="Path 111573"/><path d="M279.518 2786.876a19 19 0 0 1-.084-2.907c-.136-1.345-.424-2.672-.516-4.023-.089-.724-.2-1.445-.288-2.169a10 10 0 0 0-.527-2.878c-.329-.319-.827-.366-1.22-.586a1.816 1.816 0 0 1-.9-2.684.73.73 0 0 1 1.388.352c-.02.323-.156.646-.478.7.313.489.961.553 1.44.809a2.15 2.15 0 0 1 .907.869c.635 1.578.555 3.354.881 5.012.129 1.456.414 2.89.567 4.342.088 1-.095 2.006.091 3a.642.642 0 1 1-1.261.163" data-name="Path 111574"/><path d="M282.324 2789.091v-.005a.71.71 0 0 1-.248-1.3c1.109-.2 2.492-.1 3.679-.275 5.017-.468 10.026-1.114 15.067-1.253.7.023.794 1.254.079 1.339-2.881.184-5.772.3-8.638.657-3.303.318-6.607.809-9.939.837" data-name="Path 111575"/><path d="M281.556 2781.712a1.3 1.3 0 0 1-.59-.1.8.8 0 0 1-.074-1.281 4 4 0 0 1 1.681-.239c.705-.026 1.412-.023 2.022-.042 1.159-.046 2.313-.154 3.467-.258 2.783-.182 5.475-.989 8.253-1.193 3.646-.244 7.28-.247 10.924-.454 2.212-.133 4.407-.441 6.617-.6 4.573-.241 9.085-1.106 13.641-1.532 3.353-.242 6.665-.814 10.009-1.133 2.236-.2 4.481-.311 6.708-.608 2.2-.313 4.4-.625 6.6-.9a50 50 0 0 1 6.588-.721c1.286-.16 2.549-.464 3.834-.63a51 51 0 0 1 6.473-.433c3.344-.2 6.583-1.363 9.964-1.1a44 44 0 0 0 6.141-.541 28 28 0 0 0 3.949-.362 14.4 14.4 0 0 1 2.411-.252.76.76 0 0 1 .667.7c.087 1.116-1.094.854-1.835.983a29 29 0 0 1-4.051.476c-2.273.11-4.508.639-6.792.608a40.4 40.4 0 0 0-8.782 1.006c-1.383.186-2.838.163-4.224.22a45 45 0 0 0-6.757.884 30 30 0 0 1-3.452.285c-5.545.678-11.059 1.668-16.646 1.98-2.231.148-4.439.515-6.658.78-4.511.427-9.009.981-13.5 1.554-2.235.245-4.481.318-6.717.556-1.708.162-3.414.363-5.13.427-4.172.259-8.311.1-12.436.681a66 66 0 0 1-11.958 1.129.45.45 0 0 1-.347.11" data-name="Path 111576"/><path d="M390.185 2771.912a60 60 0 0 1-.354-4.786 7.7 7.7 0 0 1 .052-2.062.61.61 0 0 1 1.117.175 18 18 0 0 1 .173 2.814c.114 1.232.19 2.468.315 3.7a.663.663 0 1 1-1.303.159" data-name="Path 111577"/><path d="M336.815 2767.556c-.191-.809-.314-1.632-.48-2.446a.74.74 0 0 1-.12-.618 1.1 1.1 0 0 1 .024-.619.557.557 0 0 1 .986-.123 14.3 14.3 0 0 1 .761 3.558.68.68 0 0 1-.423.746.626.626 0 0 1-.748-.498" data-name="Path 111578"/><path d="M345.283 2770.607c-3.473-.1-6.951-.69-10.385-1.064a.739.739 0 0 1-.051-1.3 3.7 3.7 0 0 1 1.657.037c.819.1 1.64.183 2.462.268a60.4 60.4 0 0 0 15.465.3c2.242-.267 4.5-.434 6.737-.71 2.208-.282 4.385-.77 6.592-1.057 1.276-.183 2.564-.211 3.842-.371a.722.722 0 0 1 .642 1.021.6.6 0 0 1-.38.363c-.733.148-1.488.151-2.228.245-2.193.234-4.36.616-6.529 1.007-2.949.5-5.942.651-8.906 1.033a47.6 47.6 0 0 1-8.918.228" data-name="Path 111579"/><path d="M335.039 2764.818a.74.74 0 0 1-.629-.941.66.66 0 0 1 .565-.5c.552-.031 1.107-.056 1.659-.093 1.51-.1 3.02-.162 4.532-.231 2.3-.124 4.584-.489 6.879-.7 4.553-.565 9.133-.848 13.684-1.419a37.5 37.5 0 0 1 7.2-.554c.345-.02.686-.06 1.029-.1.8-.071.971 1.273.175 1.408-1.742.3-3.509.082-5.252.354-2.241.325-4.481.666-6.739.853-5.3.379-10.569 1.076-15.857 1.579-2.412.112-4.829.266-7.246.344" data-name="Path 111580"/><path d="M368.809 2765.66c-.187-1.393-.217-2.84-.4-4.226-.123-.465.3-1.025.8-.828a1.03 1.03 0 0 1 .531.887 34 34 0 0 1 .337 4.12.68.68 0 0 1-.546.7.7.7 0 0 1-.722-.653" data-name="Path 111581"/><path d="M364.55 2767.039c-1.136-.331-.653-2.064-.805-2.981.168-.886-.454-2.5.618-2.887 1.289.132.691 2.01.862 2.9-.147.894.537 2.728-.675 2.968" data-name="Path 111582"/><path d="M359.039 2768.391c-.224-1.276-.172-2.59-.3-3.877-.038-.552-.072-1.107-.152-1.656a.8.8 0 0 1-.05-.555.62.62 0 0 1 .9-.437c.39.225.454.751.524 1.155a32 32 0 0 1 .336 5.321.634.634 0 0 1-1.258.049" data-name="Path 111583"/><path d="M353.733 2768.296c-.231-1.716-.18-3.468-.315-5.193v.005c-.025-.382.333-.817.743-.709 1.022.488.6 2.059.81 3-.124.98.672 3.064-.491 3.484a.725.725 0 0 1-.747-.587" data-name="Path 111584"/><path d="M348.388 2769.046a35 35 0 0 1-.257-4.139c-.016-.3-.052-.6-.081-.9a.661.661 0 0 1 1.227-.471 8.1 8.1 0 0 1 .4 2.839c.01.873.056 1.75 0 2.621a.646.646 0 0 1-1.289.05" data-name="Path 111585"/><path d="M342.353 2768.906a26.4 26.4 0 0 1-.313-4.627.661.661 0 0 1 1.313-.153c0 1.076 1.056 5.144-.222 5.386a.75.75 0 0 1-.778-.606" data-name="Path 111586"/><path d="M281.813 2773.637a33 33 0 0 1-4.216-.381.81.81 0 0 1-.089-1.437 14 14 0 0 1 2.964.094c1.06.063 2.124.077 3.184.054 1.684-.112 3.359-.334 5.038-.5 11.513-.964 23.066-1.352 34.58-2.269 3.222-.377 6.437-.795 9.669-1.078a19.4 19.4 0 0 1 3.232-.148.84.84 0 0 1 .609.846c-.007.682-.6.872-1.187.81-3.951.268-7.875.837-11.808 1.291-4.108.321-8.225.516-12.337.8-4.939.314-9.875.651-14.815.938-3.307.211-6.614.417-9.91.74a31 31 0 0 1-4.914.24" data-name="Path 111587"/><path d="M274.246 2768.643a.754.754 0 0 1-.6-.958.64.64 0 0 1 .422-.468c.793-.124 1.611-.075 2.411-.148a422 422 0 0 1 11.116-.584c3.23-.079 6.433-.475 9.649-.746 5.036-.4 10.09-.533 15.132-.814 5.645-.354 11.245-1.465 16.92-1.186.663.011 1.328.013 1.99.023.581-.033 1.338.1 1.319.84a.694.694 0 0 1-.559.716c-1.028.059-2.062-.016-3.093 0a89.5 89.5 0 0 0-12.582.893c-6.016.585-12.059.583-18.081 1.042-3.538.248-7.062.7-10.611.779-4.479.125-8.954.561-13.433.611" data-name="Path 111588"/><path d="M414.633 2755.974a.688.688 0 0 1-.145-1.237 4.1 4.1 0 0 1 1.275-.276c2.187-.244 4.391-.293 6.573-.585 1.5-.2 2.976-.5 4.468-.738a156 156 0 0 1 15.742-1.536c1.439-.043 2.867-.248 4.294-.416a68 68 0 0 1 8.9-.365c.476 0 .951.013 1.427.011.716.035.814 1.261.081 1.374-2.11.163-4.411.01-6.484.113-2.182.076-4.342.4-6.51.632-1.191.121-2.388.118-3.583.167-2.926.122-5.831.493-8.738.826-2.229.222-4.464.418-6.67.822-3.504.729-7.103.743-10.63 1.208" data-name="Path 111589"/></g></g></g></svg>