<svg xmlns="http://www.w3.org/2000/svg" width="59.163" height="61.86"><g fill="#4AACD7" data-name="Group 330"><path d="M16.834 43.475a2.5 2.5 0 0 0-3.416.913 3 3 0 0 0-.1.19l-2.745 4.853a2.25 2.25 0 0 0 .433 3.148 2.3 2.3 0 0 0 .384.234 3 3 0 0 0 1.266.417 2.32 2.32 0 0 0 2.133-1.3l2.958-5.041a2.5 2.5 0 0 0-.913-3.414" data-name="Path 110457"/><path d="M33.163 46.891a2.502 2.502 0 1 0-4.437-2.312l-2.745 5.066a2.386 2.386 0 0 0 .817 3.17 3 3 0 0 0 1.266.417 2.32 2.32 0 0 0 2.141-1.3Z" data-name="Path 110458"/><path d="M47.74 43.296a2.45 2.45 0 0 0-3.327.971l-.047.091-2.745 5.066a2.45 2.45 0 0 0 .958 3.331q.047.027.1.051a3 3 0 0 0 1.266.417 2.32 2.32 0 0 0 2.108-1.291l2.745-5.066a2.77 2.77 0 0 0-1.058-3.57" data-name="Path 110459"/><path d="M21.333 51.929a2.45 2.45 0 0 0-3.33.962l-.052.1-2.745 5.066a2.45 2.45 0 0 0 .962 3.33l.1.052a2.94 2.94 0 0 0 1.266.417 2.3 2.3 0 0 0 2.108-1.266l2.743-5.061a2.77 2.77 0 0 0-1.052-3.6" data-name="Path 110460"/><path d="M36.916 52.035a2 2 0 0 0-.166-.1 2.45 2.45 0 0 0-3.327.971l-.047.091-2.958 5.066a2.45 2.45 0 0 0 .958 3.331q.047.027.1.051a3 3 0 0 0 1.266.417 2.32 2.32 0 0 0 2.116-1.266l2.745-5.066a2.516 2.516 0 0 0-.687-3.495" data-name="Path 110461"/><path d="M47.413 13.458a13.3 13.3 0 0 0-3.063-.377h-.687a18.9 18.9 0 0 0-5.645-8.644A19.13 19.13 0 0 0 25.983 0a18.5 18.5 0 0 0-6.487 1.179A17.97 17.97 0 0 0 7.811 14.511a13.46 13.46 0 0 0-6.545 6.984A13.9 13.9 0 0 0 0 27.257v.049a13.7 13.7 0 0 0 13.722 13.682h31.669l.016-.008a13.89 13.89 0 0 0 13.751-13.939v-.053a13.7 13.7 0 0 0-11.745-13.53M25.982 5.066l-.016-.033a13.6 13.6 0 0 1 13.31 11.439l.417 2.116h5.719a8.661 8.661 0 0 1 0 17.322h-31.69a8.677 8.677 0 0 1-2.7-16.9l1.479-.629.172-1.479A13.457 13.457 0 0 1 25.982 5.066" data-name="Path 110462"/></g></svg>