<svg xmlns="http://www.w3.org/2000/svg" width="1030" height="70.189"><g data-name="Group 334"><path fill="#488eab" d="m712.174 70.058-2.05-.1 1.222-24.214v-20.9h2.053v20.947Zm-14.395 0-1.222-24.214v-21h2.052v20.947l1.222 24.163Zm8.223-.052h-2.052V46.191h2.052Zm-12.315-24.115-2.052-.022.243-23.664c.046-4.619 6.6-6.686 13.075-6.688h.007c6.488 0 13.052 2.067 13.1 6.686l.256 23.647-2.054.022-.254-23.645c-.033-3.025-5.715-4.658-11.05-4.658h-.007c-5.321 0-10.992 1.635-11.026 4.656Zm11.274-31.424a6 6 0 0 1-.94-.088 6.43 6.43 0 0 1-4.133-2.916c-.81-1.478-1.075-4.9-.949-6.276.305-3.29 3.343-4.788 6.035-4.79s5.734 1.5 6.041 4.788c.125 1.372-.14 4.8-.951 6.278a6.46 6.46 0 0 1-4.05 2.9 7 7 0 0 1-1.053.102Zm.013-12.016c-1.853 0-3.805.9-3.993 2.923a13.4 13.4 0 0 0 .707 5.1 4.36 4.36 0 0 0 2.716 1.887 3 3 0 0 0 1.225-.015 4.4 4.4 0 0 0 2.635-1.87 13.5 13.5 0 0 0 .706-5.105c-.189-2.019-2.142-2.922-3.997-2.922Z" data-name="Path 110536"/><path fill="#488eab" d="m746.805 70.058-2.05-.1 1.222-24.214v-20.9h2.052v20.947Zm-14.393 0-1.224-24.214v-21h2.052v20.947l1.222 24.163Zm8.221-.052h-2.052V46.191h2.052Zm-12.315-24.115-2.052-.022.243-23.664c.048-4.619 6.6-6.686 13.076-6.688h.007c6.488 0 13.052 2.067 13.1 6.686l.254 23.647-2.054.022-.254-23.645c-.033-3.025-5.715-4.658-11.05-4.658h-.007c-5.321 0-10.992 1.635-11.024 4.656Zm11.274-31.424a6 6 0 0 1-.94-.088 6.42 6.42 0 0 1-4.131-2.916c-.811-1.478-1.076-4.9-.951-6.276.305-3.29 3.343-4.788 6.037-4.79s5.732 1.5 6.039 4.788c.125 1.372-.138 4.8-.95 6.278a6.47 6.47 0 0 1-4.052 2.9 7 7 0 0 1-1.052.102Zm.015-12.016c-1.853 0-3.807.9-3.995 2.923a13.5 13.5 0 0 0 .707 5.1 4.36 4.36 0 0 0 2.716 1.887 3 3 0 0 0 1.227-.015 4.38 4.38 0 0 0 2.633-1.87 13.5 13.5 0 0 0 .707-5.105c-.189-2.019-2.143-2.922-3.996-2.922Z" data-name="Path 110537"/><path fill="#488eab" d="m781.436 70.058-2.05-.1 1.224-24.214v-20.9h2.052v20.947Zm-14.393 0-1.224-24.214v-21h2.052v20.947l1.222 24.163Zm8.221-.052h-2.052V46.191h2.052Zm-12.315-24.115-2.052-.022.243-23.664c.048-4.619 6.6-6.686 13.077-6.688h.006c6.488 0 13.052 2.067 13.1 6.686l.254 23.647-2.052.022-.256-23.645c-.031-3.025-5.715-4.658-11.05-4.658h-.006c-5.321 0-10.994 1.635-11.026 4.656Zm11.274-31.424a6 6 0 0 1-.94-.088 6.42 6.42 0 0 1-4.131-2.916c-.81-1.478-1.076-4.9-.951-6.276.305-3.29 3.343-4.788 6.037-4.79s5.732 1.5 6.039 4.788c.125 1.372-.138 4.8-.949 6.278a6.46 6.46 0 0 1-4.052 2.9 7 7 0 0 1-1.053.102Zm.015-12.016c-1.853 0-3.807.9-3.995 2.923a13.5 13.5 0 0 0 .707 5.1 4.36 4.36 0 0 0 2.716 1.887 3 3 0 0 0 1.227-.015 4.4 4.4 0 0 0 2.635-1.87 13.4 13.4 0 0 0 .7-5.105c-.184-2.019-2.138-2.922-3.991-2.922Z" data-name="Path 110538"/><path fill="#488eab" d="m816.067 70.058-2.05-.1 1.224-24.214v-20.9h2.054v20.947Zm-14.393 0-1.224-24.214v-21h2.05v20.947l1.222 24.163Zm8.221-.052h-2.052V46.191h2.052ZM797.58 45.891l-2.05-.022.241-23.664c.048-4.619 6.6-6.686 13.077-6.688h.007c6.486 0 13.05 2.067 13.1 6.686l.254 23.647-2.052.022-.254-23.645c-.033-3.025-5.717-4.658-11.051-4.658h-.006c-5.321 0-10.994 1.635-11.026 4.656Zm11.276-31.424a6 6 0 0 1-.942-.088 6.42 6.42 0 0 1-4.131-2.916c-.81-1.478-1.076-4.9-.951-6.276.305-3.29 3.343-4.788 6.037-4.79s5.734 1.5 6.039 4.788c.127 1.372-.138 4.8-.949 6.278a6.46 6.46 0 0 1-4.052 2.9 7 7 0 0 1-1.051.102Zm.013-12.016c-1.853 0-3.807.9-3.993 2.923a13.4 13.4 0 0 0 .707 5.1 4.35 4.35 0 0 0 2.716 1.887 3 3 0 0 0 1.225-.015 4.4 4.4 0 0 0 2.635-1.87 13.4 13.4 0 0 0 .7-5.105c-.183-2.019-2.138-2.922-3.99-2.922Z" data-name="Path 110539"/><path fill="#488eab" d="m850.788 70.058-2.052-.1 1.224-24.214v-20.9h2.053v20.947Zm-14.395 0-1.222-24.214v-21h2.052v20.947l1.222 24.163Zm8.221-.052h-2.05V46.191h2.05Zm-12.311-24.115-2.052-.022.241-23.664c.048-4.619 6.6-6.686 13.077-6.688h.007c6.486 0 13.052 2.067 13.1 6.686l.256 23.647-2.054.022-.254-23.645c-.033-3.025-5.717-4.658-11.05-4.658h-.007c-5.321 0-10.992 1.635-11.026 4.656Zm11.274-31.424a6 6 0 0 1-.94-.088 6.43 6.43 0 0 1-4.133-2.916c-.81-1.478-1.076-4.9-.951-6.276.305-3.29 3.345-4.788 6.037-4.79s5.734 1.5 6.039 4.788c.127 1.372-.138 4.8-.949 6.278a6.46 6.46 0 0 1-4.05 2.9 7 7 0 0 1-1.055.102Zm.013-12.016c-1.853 0-3.805.9-3.993 2.923a13.4 13.4 0 0 0 .707 5.1 4.36 4.36 0 0 0 2.716 1.887 3 3 0 0 0 1.226-.015 4.4 4.4 0 0 0 2.635-1.87 13.4 13.4 0 0 0 .7-5.105c-.186-2.019-2.141-2.922-3.993-2.922Z" data-name="Path 110540"/><path fill="#488eab" d="m885.406 70.058-2.05-.1 1.222-24.214v-20.9h2.053v20.947Zm-14.395 0-1.222-24.214v-21h2.052v20.947l1.222 24.163Zm8.223-.052h-2.052V46.191h2.052Zm-12.319-24.115-2.052-.022.243-23.664c.046-4.619 6.6-6.686 13.075-6.688h.007c6.488 0 13.051 2.067 13.1 6.686l.254 23.647-2.054.022-.254-23.645c-.033-3.025-5.715-4.658-11.05-4.658h-.007c-5.321 0-10.992 1.635-11.024 4.656Zm11.274-31.424a6 6 0 0 1-.94-.088 6.43 6.43 0 0 1-4.133-2.916c-.81-1.478-1.075-4.9-.95-6.276.305-3.29 3.343-4.788 6.035-4.79s5.734 1.5 6.041 4.788c.125 1.372-.14 4.8-.951 6.278a6.46 6.46 0 0 1-4.05 2.9 7 7 0 0 1-1.052.102Zm.013-12.016c-1.851 0-3.805.9-3.993 2.923a13.4 13.4 0 0 0 .707 5.1 4.36 4.36 0 0 0 2.716 1.887 3 3 0 0 0 1.227-.015 4.38 4.38 0 0 0 2.633-1.87 13.5 13.5 0 0 0 .707-5.105c-.193-2.019-2.143-2.922-3.993-2.922Z" data-name="Path 110541"/><path fill="#488eab" d="m920.015 70.058-2.05-.1 1.222-24.214v-20.9h2.052v20.947Zm-14.393 0-1.224-24.214v-21h2.052v20.947l1.222 24.163Zm8.221-.052h-2.052V46.191h2.052Zm-12.315-24.115-2.052-.022.243-23.664c.048-4.619 6.6-6.686 13.076-6.688h.007c6.488 0 13.052 2.067 13.1 6.686l.254 23.647-2.054.022-.254-23.645c-.033-3.025-5.715-4.658-11.05-4.658h-.007c-5.32 0-10.993 1.635-11.024 4.656Zm11.274-31.424a6 6 0 0 1-.94-.088 6.42 6.42 0 0 1-4.131-2.916c-.811-1.478-1.076-4.9-.951-6.276.305-3.29 3.343-4.788 6.037-4.79s5.732 1.5 6.039 4.788c.125 1.372-.138 4.8-.949 6.278a6.47 6.47 0 0 1-4.052 2.9 7 7 0 0 1-1.053.102Zm.015-12.016c-1.853 0-3.807.9-3.995 2.923a13.5 13.5 0 0 0 .707 5.1 4.36 4.36 0 0 0 2.716 1.887 3 3 0 0 0 1.227-.015 4.4 4.4 0 0 0 2.635-1.87 13.5 13.5 0 0 0 .7-5.105c-.184-2.019-2.138-2.922-3.991-2.922Z" data-name="Path 110542"/><path fill="#488eab" d="m954.628 70.058-2.05-.1 1.224-24.214v-20.9h2.052v20.947Zm-14.393 0-1.225-24.214v-21h2.05v20.947l1.222 24.163Zm8.221-.052h-2.052V46.191h2.052Zm-12.315-24.115-2.052-.022.243-23.664c.048-4.619 6.6-6.686 13.077-6.688h.007c6.486 0 13.05 2.067 13.1 6.686l.254 23.647-2.052.022-.256-23.645c-.031-3.025-5.715-4.658-11.05-4.658h-.002c-5.322 0-10.994 1.635-11.026 4.656Zm11.276-31.424a6 6 0 0 1-.942-.088 6.42 6.42 0 0 1-4.131-2.916c-.81-1.478-1.077-4.9-.951-6.276.306-3.29 3.344-4.788 6.037-4.79s5.732 1.5 6.039 4.788c.125 1.372-.138 4.8-.949 6.278a6.46 6.46 0 0 1-4.052 2.9 7 7 0 0 1-1.051.102Zm.013-12.016c-1.853 0-3.807.9-3.995 2.923a13.5 13.5 0 0 0 .708 5.1 4.35 4.35 0 0 0 2.714 1.887 3 3 0 0 0 1.227-.015 4.4 4.4 0 0 0 2.635-1.87 13.4 13.4 0 0 0 .7-5.105c-.183-2.019-2.137-2.922-3.99-2.922Z" data-name="Path 110543"/><path fill="#488eab" d="m989.241 70.058-2.05-.1 1.222-24.217v-20.9h2.053v20.95Zm-14.393 0-1.224-24.214v-21h2.052v20.947l1.22 24.163Zm8.221-.052h-2.056V46.191h2.052Zm-12.315-24.115-2.05-.022.241-23.664c.048-4.619 6.6-6.686 13.077-6.688h.007c6.486 0 13.051 2.067 13.1 6.686l.254 23.647-2.052.022-.254-23.645c-.033-3.025-5.717-4.658-11.051-4.658h-.006c-5.321 0-10.994 1.635-11.026 4.656Zm11.276-31.424a6 6 0 0 1-.942-.088 6.42 6.42 0 0 1-4.131-2.916c-.81-1.478-1.076-4.9-.951-6.276.305-3.29 3.343-4.788 6.037-4.79s5.734 1.5 6.039 4.788c.127 1.372-.138 4.8-.949 6.278a6.46 6.46 0 0 1-4.052 2.9 7 7 0 0 1-1.051.102Zm.013-12.016c-1.853 0-3.807.9-3.993 2.923a13.4 13.4 0 0 0 .707 5.1 4.36 4.36 0 0 0 2.716 1.887 3 3 0 0 0 1.226-.015 4.4 4.4 0 0 0 2.635-1.87 13.4 13.4 0 0 0 .7-5.105c-.184-2.019-2.139-2.922-3.992-2.922Z" data-name="Path 110544"/><path fill="#488eab" d="m1023.856 70.058-2.052-.1 1.224-24.214v-20.9h2.054v20.947Zm-14.395 0-1.222-24.214v-21h2.052v20.947l1.222 24.163Zm8.221-.052h-2.05V46.191h2.05Zm-12.313-24.115-2.052-.022.243-23.664c.046-4.619 6.6-6.686 13.075-6.688h.007c6.486 0 13.052 2.067 13.1 6.686l.256 23.647-2.053.022-.254-23.645c-.033-3.025-5.717-4.658-11.049-4.658h-.007c-5.322 0-10.993 1.635-11.026 4.656Zm11.274-31.424a6 6 0 0 1-.94-.088 6.43 6.43 0 0 1-4.133-2.916c-.81-1.478-1.075-4.9-.949-6.276.3-3.29 3.343-4.788 6.035-4.79s5.734 1.5 6.041 4.788c.125 1.372-.14 4.8-.951 6.278a6.46 6.46 0 0 1-4.05 2.9 7 7 0 0 1-1.053.102Zm.013-12.016c-1.853 0-3.805.9-3.993 2.923a13.4 13.4 0 0 0 .707 5.1 4.36 4.36 0 0 0 2.716 1.887 3 3 0 0 0 1.225-.015 4.4 4.4 0 0 0 2.635-1.87 13.5 13.5 0 0 0 .707-5.105c-.19-2.019-2.138-2.922-3.998-2.922Z" data-name="Path 110545"/><path fill="#488eab" d="m365.861 70.189-2.052-.1 1.224-24.212v-20.9h2.054v20.95Zm-14.395 0-1.222-24.213v-21h2.052v20.95l1.222 24.161Zm8.221-.052h-2.054V46.328h2.05Zm-12.314-24.119-2.052-.02.243-23.666c.046-4.617 6.6-6.685 13.075-6.686h.007c6.486 0 13.051 2.066 13.1 6.686l.256 23.647-2.053.022-.254-23.647c-.033-3.025-5.717-4.656-11.05-4.656h-.007c-5.321 0-10.992 1.633-11.026 4.656Zm11.274-31.422a6 6 0 0 1-.94-.09 6.42 6.42 0 0 1-4.133-2.914c-.81-1.478-1.075-4.9-.949-6.278.3-3.29 3.343-4.788 6.035-4.788s5.734 1.5 6.041 4.787c.125 1.372-.14 4.8-.951 6.276a6.46 6.46 0 0 1-4.05 2.9 7 7 0 0 1-1.052.108Zm.013-12.018c-1.853 0-3.805.906-3.993 2.923a13.4 13.4 0 0 0 .707 5.1 4.37 4.37 0 0 0 2.716 1.887 3.1 3.1 0 0 0 1.225-.015 4.4 4.4 0 0 0 2.635-1.872 13.5 13.5 0 0 0 .707-5.1c-.189-2.018-2.142-2.922-3.996-2.922Z" data-name="Path 110546"/><path fill="#488eab" d="m400.492 70.189-2.05-.1 1.222-24.212v-20.9h2.052v20.95Zm-14.395 0-1.222-24.213v-21h2.052v20.95l1.222 24.161Zm8.223-.052h-2.052V46.328h2.052Zm-12.315-24.119-2.052-.02.243-23.666c.046-4.617 6.6-6.685 13.075-6.686h.007c6.488 0 13.052 2.066 13.1 6.686l.254 23.647-2.054.022-.254-23.647c-.033-3.025-5.715-4.656-11.05-4.656h-.007c-5.321 0-10.992 1.633-11.024 4.656Zm11.274-31.422a6 6 0 0 1-.94-.09 6.42 6.42 0 0 1-4.133-2.914c-.81-1.478-1.075-4.9-.949-6.278.305-3.29 3.343-4.788 6.035-4.788s5.734 1.5 6.041 4.787c.125 1.372-.14 4.8-.951 6.276a6.46 6.46 0 0 1-4.05 2.9 7 7 0 0 1-1.053.108Zm.013-12.018c-1.851 0-3.805.906-3.993 2.923a13.5 13.5 0 0 0 .707 5.1 4.37 4.37 0 0 0 2.716 1.887 3.1 3.1 0 0 0 1.227-.015 4.39 4.39 0 0 0 2.633-1.872 13.5 13.5 0 0 0 .707-5.1c-.189-2.018-2.143-2.922-3.997-2.922Z" data-name="Path 110547"/><path fill="#488eab" d="m435.123 70.189-2.05-.1 1.224-24.212v-20.9h2.052v20.95Zm-14.393 0-1.224-24.213v-21h2.052v20.95l1.215 24.159Zm8.221-.052h-2.052V46.328h2.052Zm-12.315-24.119-2.052-.02.243-23.666c.048-4.617 6.6-6.685 13.077-6.686h.006c6.488 0 13.052 2.066 13.1 6.686l.254 23.647-2.054.022-.254-23.647c-.031-3.025-5.715-4.656-11.05-4.656h-.006c-5.321 0-10.994 1.633-11.026 4.656Zm11.274-31.422a6 6 0 0 1-.94-.09 6.42 6.42 0 0 1-4.131-2.914c-.811-1.478-1.076-4.9-.951-6.278.305-3.29 3.343-4.788 6.037-4.788s5.732 1.5 6.039 4.787c.125 1.372-.138 4.8-.949 6.276a6.47 6.47 0 0 1-4.052 2.9 7 7 0 0 1-1.053.108Zm.015-12.018c-1.853 0-3.807.906-3.995 2.923a13.5 13.5 0 0 0 .707 5.1 4.37 4.37 0 0 0 2.716 1.887 3.1 3.1 0 0 0 1.227-.015 4.4 4.4 0 0 0 2.635-1.872 13.5 13.5 0 0 0 .7-5.1c-.184-2.018-2.142-2.922-3.991-2.922Z" data-name="Path 110548"/><path fill="#fec200" d="m469.754 70.189-2.05-.1 1.224-24.212v-20.9h2.054v20.95Zm-14.393 0-1.224-24.213v-21h2.05v20.95l1.222 24.161Zm8.221-.052h-2.052V46.328h2.052Zm-12.315-24.119-2.052-.02.243-23.666c.048-4.617 6.6-6.685 13.077-6.686h.007c6.486 0 13.05 2.066 13.1 6.686l.254 23.647-2.052.022-.251-23.65c-.031-3.025-5.715-4.656-11.049-4.656h-.006c-5.321 0-10.994 1.633-11.026 4.656Zm11.276-31.422a6 6 0 0 1-.942-.09 6.42 6.42 0 0 1-4.131-2.914c-.81-1.478-1.076-4.9-.951-6.278.305-3.29 3.343-4.788 6.037-4.788s5.732 1.5 6.039 4.787c.127 1.372-.138 4.8-.949 6.276a6.46 6.46 0 0 1-4.052 2.9 7 7 0 0 1-1.052.108Zm.013-12.018c-1.853 0-3.807.906-3.995 2.923a13.5 13.5 0 0 0 .708 5.1 4.36 4.36 0 0 0 2.714 1.887 3.1 3.1 0 0 0 1.227-.015 4.4 4.4 0 0 0 2.635-1.872 13.4 13.4 0 0 0 .7-5.1c-.183-2.018-2.137-2.922-3.99-2.922Z" data-name="Path 110549"/><path fill="#488eab" d="m504.385 70.189-2.05-.1 1.224-24.212v-20.9h2.055v20.95Zm-14.393 0-1.222-24.213v-21h2.052v20.95l1.22 24.161Zm8.221-.052h-2.052V46.328h2.053Zm-12.315-24.119-2.05-.02.241-23.666c.048-4.617 6.6-6.685 13.077-6.686h.007c6.486 0 13.052 2.066 13.1 6.686l.256 23.647-2.053.022-.254-23.647c-.033-3.025-5.717-4.656-11.051-4.656h-.005c-5.321 0-10.992 1.633-11.026 4.656Zm11.276-31.422a6 6 0 0 1-.942-.09 6.42 6.42 0 0 1-4.131-2.914c-.81-1.478-1.076-4.9-.951-6.278.305-3.29 3.343-4.788 6.037-4.788s5.734 1.5 6.039 4.787c.127 1.372-.138 4.8-.949 6.276a6.46 6.46 0 0 1-4.052 2.9 7 7 0 0 1-1.051.108Zm.013-12.018c-1.853 0-3.807.906-3.993 2.923a13.4 13.4 0 0 0 .707 5.1 4.36 4.36 0 0 0 2.716 1.887 3.1 3.1 0 0 0 1.225-.015 4.4 4.4 0 0 0 2.635-1.872 13.4 13.4 0 0 0 .7-5.1c-.183-2.018-2.138-2.922-3.99-2.922Z" data-name="Path 110550"/><path fill="#488eab" d="m539.018 70.189-2.05-.1 1.222-24.212v-20.9h2.053v20.95Zm-14.395 0-1.222-24.213v-21h2.052v20.95l1.222 24.161Zm8.223-.052h-2.052V46.328h2.052Zm-12.312-24.119-2.052-.02.243-23.666c.046-4.617 6.6-6.685 13.075-6.686h.007c6.486 0 13.051 2.066 13.1 6.686l.256 23.647-2.053.022-.256-23.65c-.033-3.025-5.715-4.656-11.049-4.656h-.007c-5.321 0-10.992 1.633-11.026 4.656Zm11.274-31.422a6 6 0 0 1-.94-.09 6.42 6.42 0 0 1-4.133-2.914c-.81-1.478-1.075-4.9-.949-6.278.305-3.29 3.343-4.788 6.035-4.788s5.734 1.5 6.041 4.787c.125 1.372-.14 4.8-.951 6.276a6.46 6.46 0 0 1-4.05 2.9 7 7 0 0 1-1.056.108Zm.013-12.018c-1.853 0-3.805.906-3.993 2.923a13.4 13.4 0 0 0 .707 5.1 4.37 4.37 0 0 0 2.716 1.887 3.1 3.1 0 0 0 1.225-.015 4.4 4.4 0 0 0 2.635-1.872 13.5 13.5 0 0 0 .706-5.1c-.192-2.018-2.145-2.922-4-2.922Z" data-name="Path 110551"/><path fill="#488eab" d="m573.649 70.189-2.05-.1 1.222-24.212v-20.9h2.052v20.95Zm-14.393 0-1.224-24.213v-21h2.052v20.95l1.222 24.161Zm8.221-.052h-2.052V46.328h2.052Zm-12.315-24.119-2.052-.02.243-23.666c.048-4.617 6.6-6.685 13.075-6.686h.007c6.488 0 13.051 2.066 13.1 6.686l.254 23.647-2.054.022-.254-23.647c-.033-3.025-5.715-4.656-11.049-4.656h-.007c-5.321 0-10.992 1.633-11.024 4.656Zm11.274-31.422a6 6 0 0 1-.94-.09 6.42 6.42 0 0 1-4.133-2.914c-.81-1.478-1.075-4.9-.949-6.278.305-3.29 3.343-4.788 6.037-4.788s5.732 1.5 6.039 4.787c.125 1.372-.14 4.8-.951 6.276a6.46 6.46 0 0 1-4.05 2.9 7 7 0 0 1-1.053.108Zm.015-12.018c-1.853 0-3.807.906-3.995 2.923a13.5 13.5 0 0 0 .707 5.1 4.37 4.37 0 0 0 2.716 1.887 3.1 3.1 0 0 0 1.227-.015 4.38 4.38 0 0 0 2.633-1.872 13.45 13.45 0 0 0 .707-5.1c-.192-2.018-2.143-2.922-3.992-2.922Z" data-name="Path 110552"/><path fill="#488eab" d="m608.28 70.189-2.05-.1 1.224-24.212v-20.9h2.052v20.95Zm-14.393 0-1.224-24.213v-21h2.052v20.95l1.222 24.161Zm8.221-.052h-2.052V46.328h2.052Zm-12.315-24.119-2.052-.02.243-23.666c.048-4.617 6.6-6.685 13.077-6.686h.006c6.488 0 13.052 2.066 13.1 6.686l.254 23.647-2.052.022-.256-23.647c-.031-3.025-5.715-4.656-11.05-4.656h-.006c-5.321 0-10.994 1.633-11.026 4.656Zm11.274-31.422a6 6 0 0 1-.94-.09 6.42 6.42 0 0 1-4.131-2.914c-.812-1.478-1.076-4.9-.951-6.278.305-3.29 3.343-4.788 6.037-4.788s5.732 1.5 6.039 4.787c.125 1.372-.138 4.8-.949 6.276a6.47 6.47 0 0 1-4.052 2.9 7 7 0 0 1-1.053.108Zm.015-12.018c-1.853 0-3.807.906-3.995 2.923a13.5 13.5 0 0 0 .706 5.1 4.37 4.37 0 0 0 2.716 1.887 3.1 3.1 0 0 0 1.227-.015 4.4 4.4 0 0 0 2.635-1.872 13.5 13.5 0 0 0 .7-5.1c-.183-2.018-2.137-2.922-3.99-2.922Z" data-name="Path 110553"/><path fill="#488eab" d="m642.911 70.189-2.05-.1 1.224-24.212v-20.9h2.053v20.95Zm-14.393 0-1.224-24.213v-21h2.05v20.95l1.222 24.161Zm8.221-.052h-2.052V46.328h2.052Zm-12.315-24.119-2.052-.02.243-23.666c.048-4.617 6.6-6.685 13.077-6.686h.007c6.486 0 13.05 2.066 13.1 6.686l.254 23.647-2.052.022-.256-23.647c-.031-3.025-5.715-4.656-11.049-4.656h-.002c-5.321 0-10.994 1.633-11.026 4.656ZM635.7 14.596a6 6 0 0 1-.942-.09 6.42 6.42 0 0 1-4.131-2.914c-.81-1.478-1.076-4.9-.951-6.278.305-3.29 3.343-4.788 6.037-4.788s5.732 1.5 6.039 4.787c.127 1.372-.138 4.8-.949 6.276a6.46 6.46 0 0 1-4.052 2.9 7 7 0 0 1-1.052.108Zm.013-12.018c-1.853 0-3.807.906-3.995 2.923a13.5 13.5 0 0 0 .708 5.1 4.36 4.36 0 0 0 2.716 1.887 3.1 3.1 0 0 0 1.225-.015 4.4 4.4 0 0 0 2.635-1.872 13.4 13.4 0 0 0 .7-5.1c-.183-2.018-2.137-2.922-3.99-2.922Z" data-name="Path 110554"/><path fill="#488eab" d="m677.541 70.189-2.05-.1 1.224-24.212v-20.9h2.053v20.95Zm-14.393 0-1.222-24.213v-21h2.052v20.95l1.22 24.161Zm8.221-.052h-2.05V46.328h2.05Zm-12.314-24.119-2.052-.02.241-23.666c.048-4.617 6.6-6.685 13.077-6.686h.007c6.486 0 13.052 2.066 13.1 6.686l.256 23.647-2.053.022-.254-23.647c-.033-3.025-5.717-4.656-11.051-4.656h-.005c-5.321 0-10.992 1.633-11.026 4.656Zm11.274-31.422a6 6 0 0 1-.94-.09 6.42 6.42 0 0 1-4.133-2.914c-.81-1.478-1.076-4.9-.951-6.278.305-3.29 3.345-4.788 6.037-4.788s5.734 1.5 6.039 4.787c.127 1.372-.138 4.8-.949 6.276a6.46 6.46 0 0 1-4.052 2.9 7 7 0 0 1-1.05.108Zm.013-12.018c-1.853 0-3.807.906-3.993 2.923a13.4 13.4 0 0 0 .707 5.1 4.36 4.36 0 0 0 2.716 1.887 3.1 3.1 0 0 0 1.225-.015 4.4 4.4 0 0 0 2.635-1.872 13.4 13.4 0 0 0 .7-5.1c-.182-2.018-2.137-2.922-3.989-2.922Z" data-name="Path 110555"/><path fill="#488eab" d="m20.537 69.663-2.05-.1 1.224-24.213v-20.9h2.054V45.4Zm-14.393 0L4.92 45.45v-21h2.052V45.4l1.22 24.161Zm8.221-.052h-2.051V45.802h2.051ZM2.05 45.492 0 45.472l.241-23.666c.048-4.617 6.6-6.685 13.077-6.686h.007c6.486 0 13.05 2.066 13.1 6.686l.254 23.647-2.052.022-.254-23.647c-.033-3.025-5.717-4.656-11.051-4.656h-.006c-5.321 0-10.994 1.633-11.026 4.656Zm11.276-31.421a6 6 0 0 1-.942-.09 6.42 6.42 0 0 1-4.131-2.914c-.81-1.478-1.076-4.9-.951-6.278.305-3.29 3.343-4.788 6.037-4.788s5.734 1.5 6.039 4.787c.127 1.372-.138 4.8-.949 6.276a6.46 6.46 0 0 1-4.052 2.9 7 7 0 0 1-1.051.107m.013-12.018c-1.853 0-3.807.906-3.993 2.923a13.4 13.4 0 0 0 .707 5.1 4.36 4.36 0 0 0 2.716 1.887 3.1 3.1 0 0 0 1.225-.015 4.4 4.4 0 0 0 2.635-1.872 13.4 13.4 0 0 0 .7-5.1c-.183-2.019-2.138-2.923-3.99-2.923" data-name="Path 110556"/><path fill="#488eab" d="m55.152 69.663-2.052-.1 1.224-24.213v-20.9h2.053V45.4Zm-14.395 0L39.535 45.45v-21h2.052V45.4l1.222 24.161Zm8.221-.052h-2.05V45.802h2.05ZM36.665 45.492l-2.052-.02.243-23.666c.046-4.617 6.6-6.685 13.075-6.686h.007c6.486 0 13.052 2.066 13.1 6.686l.256 23.647-2.053.022-.254-23.647c-.033-3.025-5.717-4.656-11.05-4.656h-.007c-5.321 0-10.992 1.633-11.026 4.656Zm11.274-31.421a6 6 0 0 1-.94-.09 6.42 6.42 0 0 1-4.133-2.914c-.81-1.478-1.075-4.9-.949-6.278.3-3.29 3.343-4.788 6.035-4.788s5.734 1.5 6.041 4.787c.125 1.372-.14 4.8-.951 6.276a6.46 6.46 0 0 1-4.05 2.9 7 7 0 0 1-1.053.107m.013-12.018c-1.853 0-3.805.906-3.993 2.923a13.4 13.4 0 0 0 .707 5.1 4.37 4.37 0 0 0 2.716 1.887 3.1 3.1 0 0 0 1.225-.015 4.4 4.4 0 0 0 2.635-1.872 13.5 13.5 0 0 0 .707-5.1c-.19-2.019-2.143-2.923-3.997-2.923" data-name="Path 110557"/><path fill="#488eab" d="m89.766 69.663-2.05-.1 1.222-24.213v-20.9h2.052V45.4Zm-14.395 0L74.149 45.45v-21h2.052V45.4l1.222 24.161Zm8.219-.052h-2.048V45.802h2.048ZM71.279 45.492l-2.052-.02.243-23.661c.046-4.617 6.6-6.685 13.075-6.686h.007c6.488 0 13.052 2.066 13.1 6.686l.254 23.647-2.053.022-.254-23.647c-.033-3.025-5.715-4.656-11.05-4.656h-.007c-5.321 0-10.992 1.633-11.024 4.656Zm11.274-31.421a6 6 0 0 1-.94-.09 6.42 6.42 0 0 1-4.133-2.914c-.81-1.478-1.075-4.9-.949-6.278.305-3.29 3.343-4.788 6.035-4.788s5.734 1.5 6.041 4.787c.125 1.372-.14 4.8-.951 6.276a6.46 6.46 0 0 1-4.05 2.9 7 7 0 0 1-1.053.107m.013-12.018c-1.851 0-3.805.906-3.993 2.923a13.5 13.5 0 0 0 .707 5.1 4.37 4.37 0 0 0 2.716 1.887 3.1 3.1 0 0 0 1.227-.015 4.39 4.39 0 0 0 2.633-1.872 13.5 13.5 0 0 0 .707-5.1c-.189-2.019-2.143-2.923-3.997-2.923" data-name="Path 110558"/><path fill="#488eab" d="m124.379 69.663-2.05-.1 1.222-24.213v-20.9h2.052V45.4Zm-14.393 0-1.224-24.213v-21h2.05V45.4l1.222 24.161Zm8.221-.052h-2.052V45.802h2.052Zm-12.315-24.119-2.052-.02.243-23.666c.048-4.617 6.6-6.685 13.077-6.686h.006c6.488 0 13.051 2.066 13.1 6.686l.254 23.647-2.053.022-.254-23.647c-.033-3.025-5.715-4.656-11.05-4.656h-.006c-5.321 0-10.994 1.633-11.026 4.656Zm11.274-31.421a6 6 0 0 1-.94-.09 6.42 6.42 0 0 1-4.131-2.914c-.811-1.478-1.076-4.9-.951-6.278.305-3.29 3.343-4.788 6.037-4.788s5.732 1.5 6.039 4.787c.125 1.372-.138 4.8-.949 6.276a6.47 6.47 0 0 1-4.052 2.9 7 7 0 0 1-1.053.107m.015-12.018c-1.853 0-3.807.906-3.995 2.923a13.5 13.5 0 0 0 .707 5.1 4.37 4.37 0 0 0 2.716 1.887 3.1 3.1 0 0 0 1.227-.015 4.4 4.4 0 0 0 2.635-1.872 13.5 13.5 0 0 0 .7-5.1c-.179-2.019-2.138-2.923-3.991-2.923Z" data-name="Path 110559"/><path fill="#488eab" d="m158.994 69.663-2.05-.1 1.224-24.213v-20.9h2.053V45.4Zm-14.393 0-1.224-24.213v-21h2.05V45.4l1.222 24.161Zm8.221-.052h-2.052V45.802h2.052Zm-12.315-24.119-2.052-.02.239-23.661c.048-4.617 6.6-6.685 13.077-6.686h.007c6.486 0 13.05 2.066 13.1 6.686l.254 23.647-2.052.022-.256-23.647c-.031-3.025-5.715-4.656-11.05-4.656h-.006c-5.321 0-10.994 1.633-11.026 4.656Zm11.276-31.422a6 6 0 0 1-.942-.09 6.42 6.42 0 0 1-4.131-2.914c-.81-1.478-1.076-4.9-.951-6.278.305-3.29 3.343-4.788 6.037-4.788s5.732 1.5 6.039 4.787c.127 1.372-.138 4.8-.949 6.276a6.47 6.47 0 0 1-4.052 2.9 7 7 0 0 1-1.053.108Zm.013-12.018c-1.853 0-3.807.906-3.995 2.923a13.5 13.5 0 0 0 .708 5.1 4.36 4.36 0 0 0 2.714 1.887 3.1 3.1 0 0 0 1.227-.015 4.4 4.4 0 0 0 2.635-1.872 13.4 13.4 0 0 0 .7-5.1c-.185-2.018-2.139-2.922-3.991-2.922Z" data-name="Path 110560"/><path fill="#488eab" d="m193.605 69.663-2.05-.1 1.224-24.213v-20.9h2.053V45.4Zm-14.393 0L177.99 45.45v-21h2.052V45.4l1.22 24.161Zm8.221-.052h-2.052V45.802h2.052Zm-12.315-24.119-2.05-.02.241-23.666c.048-4.617 6.6-6.685 13.077-6.686h.011c6.486 0 13.051 2.066 13.1 6.686l.254 23.647-2.052.022-.254-23.647c-.033-3.025-5.717-4.656-11.051-4.656h-.006c-5.321 0-10.994 1.633-11.026 4.656Zm11.279-31.421a6 6 0 0 1-.942-.09 6.42 6.42 0 0 1-4.131-2.914c-.81-1.478-1.076-4.9-.951-6.278.305-3.29 3.343-4.788 6.037-4.788s5.734 1.5 6.039 4.787c.127 1.372-.138 4.8-.949 6.276a6.46 6.46 0 0 1-4.052 2.9 7 7 0 0 1-1.051.107m.013-12.018c-1.853 0-3.807.906-3.993 2.923a13.4 13.4 0 0 0 .707 5.1 4.36 4.36 0 0 0 2.716 1.887 3.1 3.1 0 0 0 1.225-.015 4.4 4.4 0 0 0 2.635-1.872 13.4 13.4 0 0 0 .7-5.1c-.186-2.019-2.141-2.923-3.993-2.923Z" data-name="Path 110561"/><path fill="#488eab" d="m228.326 69.663-2.05-.1 1.222-24.213v-20.9h2.054V45.4Zm-14.395 0-1.226-24.213v-21h2.052V45.4l1.222 24.161Zm8.221-.052h-2.047V45.802h2.05Zm-12.314-24.119-2.052-.02.243-23.666c.046-4.617 6.6-6.685 13.075-6.686h.007c6.486 0 13.052 2.066 13.1 6.686l.256 23.647-2.053.022-.254-23.647c-.033-3.025-5.717-4.656-11.05-4.656h-.005c-5.321 0-10.992 1.633-11.026 4.656Zm11.274-31.422a6 6 0 0 1-.94-.09 6.42 6.42 0 0 1-4.133-2.914c-.81-1.478-1.075-4.9-.949-6.278.305-3.29 3.343-4.788 6.035-4.788s5.734 1.5 6.041 4.787c.125 1.372-.14 4.8-.951 6.276a6.46 6.46 0 0 1-4.05 2.9 7 7 0 0 1-1.052.108Zm.013-12.018c-1.853 0-3.805.906-3.993 2.923a13.4 13.4 0 0 0 .707 5.1 4.37 4.37 0 0 0 2.716 1.887 3.1 3.1 0 0 0 1.225-.015 4.4 4.4 0 0 0 2.635-1.872 13.5 13.5 0 0 0 .707-5.1c-.189-2.018-2.142-2.922-3.996-2.922Z" data-name="Path 110562"/><path fill="#488eab" d="m262.957 69.663-2.05-.1 1.218-24.216v-20.9h2.052v20.95Zm-14.393 0L247.34 45.45v-21h2.052V45.4l1.222 24.161Zm8.221-.052h-2.052V45.802h2.052ZM244.47 45.492l-2.052-.02.243-23.666c.048-4.617 6.6-6.685 13.075-6.686h.007c6.488 0 13.052 2.066 13.1 6.686l.254 23.647-2.054.022-.254-23.647c-.033-3.025-5.715-4.656-11.049-4.656h-.007c-5.321 0-10.992 1.633-11.024 4.656Zm11.274-31.422a6 6 0 0 1-.94-.09 6.42 6.42 0 0 1-4.133-2.914c-.81-1.478-1.075-4.9-.949-6.278.305-3.29 3.343-4.788 6.037-4.788s5.732 1.5 6.039 4.787c.125 1.372-.14 4.8-.951 6.276a6.46 6.46 0 0 1-4.05 2.9 7 7 0 0 1-1.053.108Zm.015-12.018c-1.853 0-3.807.906-3.995 2.923a13.5 13.5 0 0 0 .707 5.1 4.37 4.37 0 0 0 2.716 1.887 3.1 3.1 0 0 0 1.227-.015 4.39 4.39 0 0 0 2.633-1.872 13.5 13.5 0 0 0 .707-5.1c-.189-2.018-2.143-2.922-3.996-2.922Z" data-name="Path 110563"/><path fill="#488eab" d="m297.588 69.663-2.05-.1 1.224-24.213v-20.9h2.052V45.4Zm-14.393 0-1.224-24.213v-21h2.052V45.4l1.222 24.161Zm8.221-.052h-2.052V45.802h2.052Zm-12.315-24.119-2.052-.02.243-23.666c.048-4.617 6.6-6.685 13.077-6.686h.006c6.488 0 13.051 2.066 13.1 6.686l.254 23.647-2.052.022-.256-23.647c-.031-3.025-5.715-4.656-11.05-4.656h-.006c-5.321 0-10.994 1.633-11.026 4.656Zm11.274-31.421a6 6 0 0 1-.94-.09 6.42 6.42 0 0 1-4.131-2.914c-.811-1.478-1.076-4.9-.951-6.278.305-3.29 3.343-4.788 6.037-4.788s5.732 1.5 6.039 4.787c.125 1.372-.138 4.8-.949 6.276a6.47 6.47 0 0 1-4.052 2.9 7 7 0 0 1-1.053.107m.015-12.018c-1.853 0-3.807.906-3.995 2.923a13.5 13.5 0 0 0 .707 5.1 4.37 4.37 0 0 0 2.716 1.887 3.1 3.1 0 0 0 1.227-.015 4.4 4.4 0 0 0 2.635-1.872 13.5 13.5 0 0 0 .7-5.1c-.184-2.019-2.135-2.923-3.991-2.923Z" data-name="Path 110564"/><path fill="#488eab" d="m332.219 69.663-2.05-.1 1.224-24.213v-20.9h2.053V45.4Zm-14.393 0-1.224-24.213v-21h2.05V45.4l1.222 24.161Zm8.221-.052h-2.052V45.802h2.052Zm-12.316-24.119-2.052-.02.243-23.666c.048-4.617 6.6-6.685 13.077-6.686h.007c6.486 0 13.05 2.066 13.1 6.686l.254 23.647-2.052.022-.256-23.647c-.031-3.025-5.715-4.656-11.05-4.656h-.005c-5.321 0-10.994 1.633-11.026 4.656Zm11.276-31.422a6 6 0 0 1-.942-.09 6.42 6.42 0 0 1-4.131-2.914c-.81-1.478-1.076-4.9-.951-6.278.305-3.29 3.343-4.788 6.037-4.788s5.732 1.5 6.039 4.787c.127 1.372-.138 4.8-.949 6.276a6.46 6.46 0 0 1-4.052 2.9 7 7 0 0 1-1.05.108Zm.013-12.018c-1.853 0-3.807.906-3.995 2.923a13.5 13.5 0 0 0 .708 5.1 4.36 4.36 0 0 0 2.716 1.887 3.1 3.1 0 0 0 1.225-.015 4.4 4.4 0 0 0 2.635-1.872 13.4 13.4 0 0 0 .7-5.1c-.182-2.018-2.136-2.922-3.989-2.922Z" data-name="Path 110565"/></g></svg>