<svg id="Layer_11" data-name="Layer 11" xmlns="http://www.w3.org/2000/svg" viewBox="0 0 600 842"><defs><style>.cls-1{fill:#fff;}.cls-2{fill:#ffc000;}</style></defs><path class="cls-1" d="M207.1,579.1c-3.7,3.7-6.4,8.4-9.2,12.8a12.2,12.2,0,0,1,5.4.6C204.2,590.7,211.5,578.2,207.1,579.1Z"/><path class="cls-1" d="M290.5,315.9c-12.1-1.4-21.7,6-33.6-1.8.1-.4-.5-.7-.8-.5-4.9-1.9-6.9-7.5-11.3-10.1-1.3-.4,3.6,6.3,3.7,7.6-8.1,3.7-6.6,6.3,1,1.9l2,2.7c-3.1,6.3-3.7,7.9,3,2.5a26.8,26.8,0,0,0,3.3,1.8c-6,6.7-3.5,6.2,1.1.5l1.7.6a7.9,7.9,0,0,1-2.6,4.8c-1.2,3.5,5.7-2.8,6.6-3.4a37.1,37.1,0,0,0,4.8,1c-1.4,6.1.8,5.4,2.4.3h2c-.2,4.3,1.7,3.9,1.4-.1l3-.6c-.1,6.7,2.2,4.9,1.8-.5h.5c.8,3.7,2.4,2.9,1.1-.4a50.5,50.5,0,0,1,11.4-3C298.9,320.3,292.8,316,290.5,315.9Z"/><path class="cls-1" d="M309.4,579.7c12.2-7,14.5-22.4,20.9-33.9,35.6-52-18.2-122.6,5.5-141.5,24.2,5.9,22.3,83.8,37.4,92.7-6.3-29.4-12.9-59.3-25.3-86.9-3-7.9-13.9-14.4-19.9-5.6-4.4,8.3-2.2,18.5-1.8,27.4-3.7-18.1-18.2-39.6-6.3-57.4h.7c-.4-.3.2,0,.3,0h0c4.5-.1,16.5,25.9,17.1,19.6.4.5-.1-.4-.1-.4-4.3-10.3-18.5-40.6-26.7-15.6-3.9,14.3,4.4,28.4,10.1,41.1,8.5,40.9,7,87.7-8.5,127-11.8-2.2-20.1-19.4-33.4-14.3,19.4-31.8,15.7-52.8,1.9-84,7.8,39.3,12.5,43.5-5.4,81.8-1.8-21-44.3-53.3-60.4-30.1,12.6-36.1,22-73.6,46.4-103.9.5-2.4-3.5,1.1-4.4,1.3-28.9,28.6-34.9,71.5-49.1,108.1-1-5.4-2.4-10.8-3-16.3-.1-.4-.6-.4-.6,0-.3,6.8-1,14.1,1,20.7.8,9.8-4.5,20.3-3.6,30.6.4,13.6,2,27.3,6.7,40,.9,2,1.7,7.6,4.7,4.8a60.2,60.2,0,0,1,10.6-10.8l3.4-7a93.4,93.4,0,0,0-15,13.8c-9.8-24.1-6.6-50.9,1-75.1,14-18,27.3-8.5,42.6,2,26.7,20.2,12.6,38.4,20.6,28a10.6,10.6,0,0,1,2.5-.2l1.4.2a21.5,21.5,0,0,1,2.5.8h0l1,.4a19.1,19.1,0,0,0-3.1,6.8,87.3,87.3,0,0,0-36.2,11.4l-1.9,6c11-7.7,24.1-10.1,36.7-13.8a119.2,119.2,0,0,0-10.2,37.1c1.9,6.8,6.5,12.7,7.9,19.8,2.6,13.2,2.7,3.2,14.3-1.7l-.4-2.6a64.1,64.1,0,0,0-10.5,7.4c-.3-19.3-20.3-25.3,6-37.5v-.5l5.1-6.7c-6,3.1-12,6.3-17.4,10.5a160.8,160.8,0,0,1,7.8-21.4c.6-2.5,5.7-8.6,2-9.8a33.6,33.6,0,0,1,2.2-4.2c8,3.9,15.3,11.9,24.9,10.8-4.4,6.1-11.2,9.7-17.8,13.1l1,4.2c41.4-17.5,36.2-78.7,35-116.3,11.9,41.2,18.7,51-2.2,91.9-9.2,17.8-9.3,30.7-29.4,39.7l.6,2.9c3.6-1.3,7.4-2.4,10.7-4.3-3.8,3.7-5.2,9.1-8.8,13l.7,3.2C303.7,593.5,312.2,582.2,309.4,579.7Zm10.3-205.3h0Z"/><path class="cls-1" d="M388.6,551.6c1.7,1,4.8-8.1,6.4-9.7,17.1-12.5,12.5-27.5,1.5-42.5,2.8-.9-1.9-4.5-2.4-6.1-9.5-18.2-22.7-36.7-32.8-53.2,1.4,8.9,8.9,15.9,12.2,24.2,7.1,11.6,9.6,27.6,22.1,34.8,4.7,9.7,11,21.5,2.9,31.3,0,0-.6.7-.2.3C393.2,536.8,392.5,545,388.6,551.6Z"/><path class="cls-1" d="M284.7,184.5c-16.7-.8-32.1-12.1-46-18.3,23.8,17.7,52.1,36.1,82.7,23.9,33.9,24.8,51.8-1.5,38.5,3.7a12.9,12.9,0,0,1-4.8,0h-.5c-33.3-3.8-67.4-37.4-100.3-41.6,23.7,7,45.2,20,64.2,35.6-11.3,0-21.1-2.3-33.1-3.2h-.7Zm76,9.1c-.3.2-.1.1,0,0Z"/><path class="cls-1" d="M354.6,193.8h.5A.8.8,0,0,0,354.6,193.8Z"/><path class="cls-1" d="M285.5,184.6h.1C285.8,184.7,286.3,184.7,285.5,184.6Z"/><path class="cls-1" d="M140.7,450.2c10.9,21.9-4.8-17.7-4.5-23.2C132.6,425.3,139.3,447.8,140.7,450.2Z"/><path class="cls-1" d="M264.2,361.1c-1.3-3.4-4.5,5.4-5.4,6.5-1.7,4.2-4.1,4.9-8.3,3.7-2,1.3,2.6,3.4,3.8,3.6C261.7,375.4,261.7,365.8,264.2,361.1Z"/><path class="cls-1" d="M146.7,728.2c-6.2,11-10.4,23.4-18.7,33.3-10,8.7-14.6,20.7-20.8,32,1.4,6.4,11.3-19.5,13.3-20.7,11.3-11.5,18.9-25.3,27.1-39,12.1-18,28.9-33,37.6-53.2a22.5,22.5,0,0,1-5.6-3.9C171.2,695.5,157.1,710.7,146.7,728.2Z"/><path class="cls-1" d="M458,636.9c-6.2-51.4,68.9-70.4,73-127.1,4.6-31.2.1-65.7-18-92-10.1-12.4,6.7,9.8,7.2,15.4C564.3,564.7,447.6,560.3,458,636.9Z"/><path class="cls-1" d="M216.4,443.7c5.9-11.5,19.6-15.8,23.5-28.9,8.3-4.8,30-34.1,32-51.8,9-2.4,19.9-11.6,29-9.6h.1c2.2,2.3,1.4,9,1.1,12.2-11.9,13-29.1,19.3-43.3,29.4,9.5-1.4,23.1-9.2,33.2-14.3-9.6,9.7-13.8,20-11.6,33.6.6,1.6-2,10,.5,8.6,4.4-8.6,2.7-19.2,7.3-27.8,19.9-23.9,33.2-66.1-13.6-36.7,9.6-16.1,39.3-27.5,55.9-17.8h0a13.4,13.4,0,0,1,2.1,2c-.1,0,0,.1,0,.1h0a11.9,11.9,0,0,1,2.3,5.3c-16.8.1-12.8,36.6-6.8,12.6.7,7.8,5.4,17.7,14.6,16.6.9-.1,1.3-1.5.2-1.7-8.7-.6-11.6-9.5-14.2-16.4.1-.4.1-.2,0-.1,1.2-2.5,3.3-7,6.6-5.7l.3.2c-.1,0-.1,0-.1-.1,4.6,5.6,4.6,13.5,8,19.7,8.1,18.4,22,33.4,31.7,50.8,7,13.3,14.1,26.6,23,38.7,6.6,9,16.7,15.3,21.8,25.4,4.5,8.1-8.6,16-10.7,30.5,19.7-28.8,15.8-30.2-6.6-54.8-6.9-9-12.6-19-17.9-29a126.9,126.9,0,0,0,23.3,24.7c5,3.8,10.4,7.2,13.7,12.5s.8,17.5,3.4,14.4c10.6-25.4-37.4-41.9-46.3-63.2,30.9-22.3,43-62,49.8-98,4.7,37.9,18.1,81-3.4,115.9,23.9-23.1,14.9-70.9,11.2-103.4-13-50.7,16.7-137.6-60.6-142.2-2.2,1.6,9.9,5.3,11.6,5.9,51.7,17.8,34,78.3,40.5,119.9-10.7,12.8-11.3,30.4-17.7,45.3h0c-8.4,18.8-18.4,37.8-34.5,51.2-8.9-15.4-20.5-29.4-27.6-45.9-3.4-6.7-3.8-15.2-8.5-21.1-4.4-17-1.9-13.7.7-30.1-2.8,3.9-4,12.2-5.7,17.7-16.5-13.7-53.9,0-63,19-.8-3.8-3.2-6.5-7.9-7.5-20.3,14-23.9,39.1-49.1,48.5a.3.3,0,0,0,.2.5,121.5,121.5,0,0,0,12.7-4.7c-11.7,21.4,33.3-39.3,36.3-40.2-.3.2.7-.1.3-.1,15.5,15.3-25.9,55.7-33.4,70.8,12.1-15.8-4.8-35.8-18.6-17.1-10,16.5-31.7,22.5-38.7,40.9-3.5,9.5-1.9,20.5-7.7,29.2,11.7-5.4,9.5-26.4,18-35.2-.1.1-.1.1.1-.2h0c8-10,19.7-16.3,27.3-26.7,3.6-4.7,9.4-14.2,16.2-9.8,13.3,14.7-33.8,42.4-31.4,78.5,3.7,1.8,6.2-13.5,7-16.5C205.7,458.8,212.1,451.8,216.4,443.7Zm82-74.6h0C298.7,368.7,298.5,369,298.4,369.1Zm39.5-11.8c.1.2.1.1,0,0Zm-72.1-2.9Z"/><path class="cls-1" d="M319.9,374.5h.2C320,374.4,319.9,374.4,319.9,374.5Z"/><path class="cls-1" d="M465.3,615.4c-11.9,23.6,5.3,63.1,32.6,65.2a1,1,0,0,0,0-1.9c-47.6-16.9-38.4-70.5,1.9-91.4,47.3-24.3,70.7-85.6,46-133.5,10.8,29.6,8.3,65.6-8.7,92.5C519.8,575.8,479.9,583.9,465.3,615.4Z"/><path class="cls-1" d="M190.2,271.3h0Z"/><path class="cls-1" d="M283.2,536.6h0Z"/><path class="cls-1" d="M189.4,268.5Z"/><path class="cls-1" d="M491.8,460.1c-.7,86.2-122.8,123.9-54.5,225,1.1,1.6,6,8.2,5.4,3.7C371.1,582.7,499.1,548.3,491.8,460.1Z"/><path class="cls-1" d="M225,412.8c-2.8,1.1-4.9,4.5-8.2,3.9-5.7-2.2-6.1,1.5-.5,2.3C219.2,420.8,228.6,414,225,412.8Z"/><path class="cls-1" d="M336.6,424.5c-2.5-.1-2.5-7.6-4.1-6-1.4,15.9,22.6,7.5,12-3.7C346.3,420.9,343.7,426.6,336.6,424.5Z"/><path class="cls-1" d="M189.4,268.6h0Z"/><path class="cls-1" d="M586,422c-1.1-10.1-3.7-20-4.8-30.1,10.3-12.3-.8-40-4.8-54.1-3-46.5-25.5-63.9-54.4-95.3,13.7-40.1-17.8-74.3-36.5-106.6C474.7,94.2,447.2,48,399.3,45.3c-42.2-35.6-78.1-9.6-118,10.6-38.6,1.1-53.9,41.7-68,71.4-7.7,7.3-15.3,16.9-15.9,27.8s-14.5,17.6-20.5,26.8c-45.6,45.1-27.1,101.1.3,148.9-11.5,1.9-23.5,1.3-34.4,6-.3-1.4-.8-4.9-2.9-3.3-7.7-2.8-20.6-1-24.5,8C84,343.4,53.6,353.2,22,354.9c-2.2.6-12.9,1.1-11.7,3.1,25.9-1.6,52.2-1.3,77.9-5.1,9-2.1,20-.2,26.8-7.7-1.3,5.4,13.3,78.7,18.6,74-5.4-24.1-14.9-49.2-13.5-73.9,3.1-5.5,11.9-8.4,19.1-8.8-3.4,32.8,7.8,64.6,17.1,95.6-13.8,10.1-8.3,27.8-6.8,42.2.6,27.8-4,55.9-7.8,83.5-.2-.2-.3-.4-.6-.4,2.4-8.1-23.9,6.7-21.1,15.1l-.8,1.1-.2.3c-10.7,11.6-17.8,25.9-26.8,38.8C77.4,627.8,67,646.1,54.8,663.3c-.3.3.3.7.5.4,8.7-9.2,15.8-19.5,23.1-29.8,15.8-17.4,31.3-35.7,44.3-55.3,8.7,16,17.5,33.1,32.2,44.4v-2.9c-14.2-12.4-22-29.6-31.1-45.6h0c2.3-.2,3.2-2.8,4.5-4.3l-.2.3a124.8,124.8,0,0,1,11.5-11.5c1.4,18.2,14.6,31.9,29.2,41.6a31.5,31.5,0,0,1,10.5-.9c-14.6-9.5-27.4-21.9-34.5-38,11.4-37.6,5.6-78.7,8.6-117.1,7.1-13.4,22.9-18.9,35.2-26.4,8.4-5.9,17.3-11.3,25.2-18-13.2,4.3-29.2,16.2-43.6,22.6,12.2-18.5,35.1-26.3,55.1-33.6-16.2-.7-43,9.4-54.1,23.6-3.8,5.9-4.3,13.5-11.4,16.6-7.5-29.8-13.9-59.6-16.5-90.1,18.2-3.5,41,2.7,55.5-11.4,1.7,19,3.3,41,15.4,56.4,3.8,4.8,9.6,4.4,4.2-3.3-.8-2.4-2.7-4.9-3.6-7.4-2.7-6.1-5-17.2-6-25.4h0c-3.4-16.8-8.6-148.1-11-66-19.7-14.2-16.7-10.7-22.6-34.3,10.3-4.2,25.6.5,36.8-7.6,1.4-.7,8.9-7.3,6.4-7.6-11.4,10.7-31.6.5-45.6,6.8,14.8-9.8,43.7-13.3,47.9-31.9q1.7-1.8,3-3.6c2.1,16.3-7.3,27.3-23.3,29.8-1,3,15.2-3,16.5-4.9,9-5.9,9.9-17.5,8.2-27.2,1.2-1.4,3.3-10.7,1-9.6-3.9,17.8-25.2,21-39.3,27.8-6.3,4-16.5,7.5-23.9,11.8,9-7.5,20.5-10.9,28.6-19.5,12-11.1,24.6-27.3,42.6-26,2.6-.6-2-4.2-3.4-4.3-13.5-1.5-23.9,10.3-31.6,19.9,6.8-20.3,19-35.8,42.4-30,7.5,3.4,1.3-2.3-1.8-3.2-23.7-9.5-37.8,15.4-48.9,32.1h.1c-9.3,14-27.9,17.5-35.7,32.6,6.5-30.2,32.5-55.7,54.8-75a100.5,100.5,0,0,1,35.5-13.3c5.8-.2,12.1,1,17.4-2-19.7.6-42.4,1.1-59.7,12.8,18.8-37.2,36.2-38.1,71.3-45.2-18.2,1-37.6,1.4-53.7,11.2,10.9-12.6,15.6-29.1,25.3-42.4,24.2-31.6,72.4-18.1,96,8.1,1.1.5,3.2,4.6,3.6,2.5-14.2-18.5-36.2-32.7-59.9-34,13.4-.9,24.6-8.7,36.5-13.9,24.1-11.3,52.7-13.3,74.9,3.4-10.4.5-20,5.5-30.5,5.3-.6,0-.6.9,0,1,52.4-9.8,97.1,22.2,110.1,73.3,5.1,23.3,7.8,52.1,18.9,71.5-5-18-10.6-35.9-11.5-54.6,17.7,30.3,42.7,60.6,36,98.1-3.1-4.3-29.2-48.8-16.2-21.3,4,9.3,7.4,19,13.6,27.1a.5.5,0,0,0,.5.6c19.5,23.3,44.2,43.2,50.9,74.6-8-16.3-22.8-27.3-33.8-41.2-9.7-12.3-18.6-27.8-28.4-39,11.7,16.9,22.3,34.7,35.1,50.7s26.3,33.1,31.1,53.8c-5.3-13.1-15.9-25.1-22.7-36.3,11,21.9,27.7,42.5,28.5,68.3-12.8-42.8-47.5-76-70-113.1,25.3,45.9,64,87.9,66.2,142.7,1.8,10.5,5.3,21.1,1.3,31.5-23.6-53.1-54.9-105-81.8-156,27.1,69.5,81,131.8,79.5,209.6,2.3,19.2-6.1,40.2-20.2,53.4-.6.5.2,1.7,1,1.2,28.8-22.9,31.4-67.3,23.7-100.9C584.1,439.3,586.1,430.4,586,422ZM121.9,342.8l.2-.2Zm8.9-4.7Zm55.7-64Zm-29.8-34.7a4,4,0,0,0,1-1.8c18.8-14.8,45.7-10.9,62.8-29.8-5.7,15.4-24.8,16-37.6,22.5-1.9.5-18.4,9.5-10.6,9.4-6.7,1.8-13,10.4-13.1,15.6-.6,13.2-4.1,23.9,2.9,36.7,1,1.3,3.8,10.3,5.4,7.2-9-16.3-10.4-40.9,5.7-50.3.5,22.1,2.5,31.4,24.7,39.2.4,11.2.6,22.3.6,33.4-5.2,5.4-12.8,7.8-20,9.1C168.6,296.6,145.3,278.2,156.7,239.4Zm2.9,36.8a40.3,40.3,0,0,1-.3-4.9Z"/><path class="cls-1" d="M183.1,246.2Z"/><path class="cls-1" d="M578.3,371.7Z"/><path class="cls-1" d="M330.4,391.7c-3.8,8.1-11.8-2.7-14.2-6.9-.7,2.2,2.6,6.2,4.2,8.2C329.2,403.8,334.3,389.8,330.4,391.7Z"/><path class="cls-1" d="M405.9,592.9c9.1-67.1,31-55.9,50.9-103.5-11.8,28.9-45,44.8-50.7,77C405.2,568.9,401.8,596.6,405.9,592.9Z"/><path class="cls-1" d="M299.2,360.1c-6,1.3-12.3,11.4-18,3.9-1.1.6,2.5,4.3,3.7,4.6C287.4,371.6,303,361.2,299.2,360.1Z"/><path class="cls-1" d="M369.6,561.3c13.2-11.5,17.4-34.4,5.3-49.1C383.3,528,375.3,545.9,369.6,561.3Z"/><path class="cls-1" d="M335.5,353.5h0Z"/><path class="cls-1" d="M550.8,679.2c-2.6,20.1-17.9,35.4-32.7,48a.8.8,0,0,0,.9,1.2c10.7-7.1,21.5-14.8,28.6-25.6,13.8-20.9,9.3-48.6.3-70.6-4.6-10.1-11.6-19.3-13.3-30.5,0-.5-.8-.4-.8.1.7,9.7,5.4,18.5,9.2,27.3A107.5,107.5,0,0,1,550.8,679.2Z"/><path class="cls-1" d="M559.7,733.9c-30.5,28.9-61.3,2.1-84.4-21.2-11.3-12.9-13.4-30.5-20.6-45.5,4.4,16.6,7.9,40.1,21.6,54,14.8,11.8,10.1,35.6-.8,48.6,2.6-12.4-6.9-24.1-15.6-32a.4.4,0,1,0-.6.6c6.8,8.6,22.1,24.2,12.5,34.7-.5.6-.1,1.8.8,1.7,16.4-5.7,19.5-29.5,13.5-43.9,12.9,12.4,30,24.5,48.8,20.7,10.1-2.4,20.7-7.6,25.9-17.1A.6.6,0,0,0,559.7,733.9ZM482,759.4c0,.1-.1.2,0,0Z"/><path class="cls-1" d="M438.2,737.8c-.7-.9-1.8-1.1-2.6-1.8-.8-19.6-3.1-39.7-18.8-53.3,0-3.6.4-7.8-1.4-11.1a254.8,254.8,0,0,1-11.6-47.8c-1.6-9.2-3.4-19.8-10.6-26.2,2.8-9.6-2.7-18-7.2-25.9a.9.9,0,0,0-1.7-.2c-10.8,23.3-63.4,51.2-82.7,26.7l1.8,8c21.8,18.7,74.7-5.5,81.8-32,2.4,10.7,4.6,24.9-4.1,33.3-19.5,16.5-46.4,26.4-72.1,24.2l.4,1.8c29.4,2,61.4-10.1,81.4-31.8,5.1,17.7,10.5,35.3,14.9,53.2,4,11.1,6.4,21.4,4.5,32.8.1-.9-.2,1-.2,1-1.3,16.7-6.2,39.1-2.6,53.3-.2-19,5.3-37.1,9-55.5,5.4,13.9,11.2,27.6,13.7,42.5,1.7,18,6.8,35.4,8.8,53.3a.6.6,0,0,0,1.1,0c2.3-14.7-4.1-28.6-4.3-43.2a2.5,2.5,0,0,1,.2.7c2.8,10.1,44.3,92.7,22.3,40.3C451.9,766.4,448.5,748.2,438.2,737.8Z"/><path class="cls-1" d="M284.3,135.8c31.4,2.9,79.6,22.4,81.5,57.8C379.9,163,302.8,123.2,284.3,135.8Z"/><path class="cls-1" d="M357.5,127.3C337.3,99.9,294.6,80,262.9,91.1,297.4,88.2,333,103.4,357.5,127.3Z"/><path class="cls-1" d="M410,688.7h0Z"/><path class="cls-1" d="M307.6,152c7.1,3.1,13.1,8.3,20,11.8,2.2-.7-8.5-5.5-9.6-6.6C314.9,155.6,310.4,152,307.6,152Z"/><path class="cls-1" d="M239.2,275l1.8,1.1c.6,3.3,9.6,7.4,12,10,11.6,9.6,32.4,10.8,45.6,20.1,2.1,1.5,9.4,7.8,5.3.8-.2-9.5-40.9-29.5-49.8-29-2-.4-4.2-.5-6.2-.9S237.8,272.1,239.2,275Z"/><path class="cls-1" d="M272.3,295.5h0Z"/><path class="cls-1" d="M238.6,575.4l-1.5,4.8c19.4,17.8,33.5,46.2,59.5,54.6l-.6-3.7C271.1,621.7,258.9,591.6,238.6,575.4Z"/><path class="cls-1" d="M489.1,184.1c-7.5-27.9-16.1-56.7-32-81-18.6-29.8-80.5-57.3-94.1-10,2.8,7.5,2.1-16.7,22.3-19,72.3-7.2,92.3,84.4,112.9,137.5C498.8,203.9,491.2,192.9,489.1,184.1ZM401.5,73.8h0Zm.3,0Z"/><path class="cls-1" d="M334.4,795c-.4-13.7-5.4-26.5-7.6-40s-3.2-30-5.2-45l-3.1,3c4.3,23,4.3,46.6,11,69.2,1.9,10.6,1,22.4,7.3,31.6.5.7,1.8.3,1.5-.6A66.5,66.5,0,0,1,334.4,795Z"/><path class="cls-1" d="M521.5,734.4c-3.1.6,5.5,6.3,6.8,6.9,11.2,5.4,29.3-2.6,33.6-11.9C551.6,740,533.7,744.9,521.5,734.4Z"/><path class="cls-1" d="M363.6,133.5c.4,1.5,7,11.7,7.5,8.3-18-33.7,30.3-44.2,51.2-24.8.4.3.9-.2.5-.5-12.6-10.7-32.7-16.6-47.8-8.1C366.8,113.5,359.8,123.7,363.6,133.5Z"/><path class="cls-1" d="M399.6,324.6c1.9-5.7-14.5,7.7-17.1,7.6-5,4.5-20.4,2-29.2-2.6-1.2-.3-7.6-4.3-6.4-1.3,4.9,3,10,5.5,15,8.4a17.1,17.1,0,0,1-.9,3h0c-.3,1.2-1.9,1.9-1.7,3.3-1.8,1.1-1.4,2,.3.6,3,1,5.7-2,7.6-4a21.1,21.1,0,0,0,3.4,1.6c-1.9,6.4-.2,7.1,1.3.4a18,18,0,0,0,3.2.6,3.2,3.2,0,0,1-.7,1.9c-3.1,3.5,2.5,1.1,2.2-1.8a17.8,17.8,0,0,0,5.6-1c1.7,7.6,5.4,1.8,5.1-2.9l1.5-1.4c.3,1.1,3,6.5,3.9,3.7a42.9,42.9,0,0,1-2.4-5.9,7.1,7.1,0,0,0,1-1.4c4.1,6.5,5.2,4.4,1-1.1a18.5,18.5,0,0,0,1.4-1.4c2.8,4.1,3.7,2.4.7-.7C396.2,328.3,397.7,326.2,399.6,324.6Z"/><path class="cls-1" d="M403,152.6h0Z"/><path class="cls-1" d="M190.7,200.8h0Z"/><path class="cls-1" d="M361,339.6h0C361.1,339.5,361.1,339.4,361,339.6Z"/><path class="cls-1" d="M385.9,155.3c1-.4.2-.2,0,0Z"/><path class="cls-1" d="M410.3,366.5c.1,0,.1-.1.1-.2S410.5,366.2,410.3,366.5Z"/><path class="cls-1" d="M192.7,321.9c-.5-21-25.5-34.7-20.4-57-8,12.7,7,31.8,14.1,44.2C187.9,310.6,191,324.5,192.7,321.9Z"/><path class="cls-1" d="M378.2,151.7c-1.4,1.6-11.4,14-7.8,14.1,3.6-3.8,7.4-7.9,12.5-9.5l3-1h-.1a46.6,46.6,0,0,1,9.7-2.7h0c.8,0,.8-.1.6-.1a25.8,25.8,0,0,1,6.2.1h.7a68.4,68.4,0,0,1,13.4,3.8h0c26,10,36.3,44.7,40.5,67,2.1-37.4-36.3-105-78.2-72.3,0-.1,0-.2.1-.2l-.6.7c.1,0,.4-.5.2-.2Z"/><path class="cls-1" d="M311.1,337.4Z"/><path class="cls-1" d="M416.7,156.5h-.3C417.3,156.9,417,156.7,416.7,156.5Z"/><path class="cls-1" d="M508.8,614.5c-16.2,20.3-20.4,70.3,13.2,73.4.4-.2.4-.9-.1-.8-3.4,0-6.5-2.2-9-4.4-21-15.8-13.6-47.7.8-65.8,18.5-28.2,71.6-49.5,60.3-89.2C581.6,564.5,526.2,585.5,508.8,614.5Z"/><path class="cls-1" d="M208.8,348.1c-.1-1.1,0-.2,0,0Z"/><path class="cls-1" d="M374.8,315.7c.1,0,.2,0,.2.1Z"/><path class="cls-1" d="M384.7,305l1.5-.2Z"/><path class="cls-1" d="M351.6,310.6c-1.4.3-9.4,5.8-5.9,5.9,4.1-3.1,9.6-3.7,14.5-3.2s9.7,1.9,14.6,2.4h0c.3,0,.9.1.2.1,11.7,2.7,23-2.5,33.4-7.1,2.7-1.5,14.2-3.8,4.9-4.9s-18.8.5-28.2,1.2C373.6,305.7,362.2,305.6,351.6,310.6Zm8.6,2.7h0Z"/><path class="cls-1" d="M422.3,508.9c12.8-10.4,28.3-19.6,37.2-33.8a116.8,116.8,0,0,1-24.4,21c2.5-2.1,14.6-33,8.8-30.3-3.2,11.4-5.7,23.3-12.8,33C429.4,499.9,417.9,508,422.3,508.9Z"/><path class="cls-1" d="M445.5,421.9c0-.3-.5-.3-.4,0,.4,5.6-2.6,10.4-6.1,14.5C428.5,450.1,448.8,430.3,445.5,421.9Z"/><path class="cls-1" d="M435.6,461.3c20-21.6,31.6-61.3,14-86.6,10.6,21.3,6.1,48-4.5,68.6C444.1,445.3,429.8,462.8,435.6,461.3Z"/><path class="cls-1" d="M461.2,314.2c9.6,51.8,22.3,112.7-2.5,159.4,34.4-52,14.9-121.1,3.5-177.9-3.9-11.9-8.5-23.2-8.3-36-.5-17.9.8-36.4-6.4-53.4C440.1,186.8,423,168,401,167.4c-10-.2-23.9,2.6-28.2,12.8-.3.9-.5,4.7,1,2.9,2.1-6.5,9.5-8.9,15.7-10,51.4-3.7,63.3,60.1,64.5,99.9-4.1-8.1-8.4-20.3-13.5-25.6C450.1,268.7,456.3,291.4,461.2,314.2Z"/><path class="cls-1" d="M476.8,242.1c-.3-28.5-.7-59.2-15.1-84.7s-56.5-54.4-80.2-23.9c-.5.7-3.6,6-1.4,4.9,20.2-29.1,59.9-2.5,75.9,18.5,16.6,22.9,16.6,53.1,17.2,80.2-1.8,31.1-9.4,61.8-3.2,92.9,3.2,24.1.2-19.2.6-24.1C470.5,284.4,476.3,263.5,476.8,242.1Z"/><path class="cls-2" d="M231.9,564.6c5.5-10,9.8-20.8,13.7-31.5-1.6-2.7-7.1,13.3-8.3,15.2S228.4,565.3,231.9,564.6Z"/><path class="cls-2" d="M216.8,607.8c3.7-8.1,5.9-16.9,8.4-25.4.1-.4-.5-.6-.6-.2-1.7,4.1-3.2,8.3-4.7,12.5C219.5,596.9,214.8,607.5,216.8,607.8Z"/><path class="cls-2" d="M234.9,610.5h0Z"/><path class="cls-2" d="M247.1,658.3c5.2-6.2,5.1-16.3-.6-22.2,11.8-11.1-4.5-33.7-18.2-22.9,8.5-28,17.4-57,24.6-84.8-9.3,24.1-18.1,48.5-26.9,72.8-1.8,6.2-5.2,12.3-5.9,18.7.5,3.6,2.3,4.6,4.9,1.7a2.7,2.7,0,0,0,2,1.6c-1.8-.6,1.6.4,2.2.1h-.4c1.3-.1,2.3-.7,3.6-.9,3.5-2.3,7.4,1.5,6.5,5.2a.3.3,0,0,0,.1-.2,2,2,0,0,1-.4.8h0c-2.9,2.5-8.9,1.1-9.2,6.3a9.5,9.5,0,0,0-2.1-1.9c-.6-.3-.8-.3-.4-.1a2.6,2.6,0,0,0-.9-.5c-2.3-1.1-9-1.7-2.8,2.7l.4.8c.1.5.5,1,.6,1.5v-.2c-.1.2.2.8,0,.4a13.7,13.7,0,0,1,.3,4.5v-.2a16.9,16.9,0,0,1-2.3,5.9c-3.4,4.3,5.8,2.2,6.6.5,2.4-1.8,3.2-5.4,2.8-8.5,2.8,2.3,6.5-.3,9.4,1.2-.8-.3-.7-.2.3.2-1.1-.4.1.1.4.3l.5.3-.3-.2c2.1,1.3,3.1,3.8,3.4,6.1.8,9.3-7.1,13.9-16.2,8.4-.7-.3-1.6.4-1.1,1.1C232,663.5,242.2,664.8,247.1,658.3Zm-14-36.1Zm7.1,35.4Zm5.1-7.7Z"/><path class="cls-2" d="M238.7,628.1a.5.5,0,0,0,.2-.4l-.3.5C238.7,628.2,238.7,628.2,238.7,628.1Z"/><path class="cls-2" d="M230.6,665.2a4.3,4.3,0,0,0-1.1-1.2c.2-.4-3.8-5.5-3.6-2.3a17.7,17.7,0,0,1,1.3,8.5c-.2,1.7-1.3,5.4-2.9,7.2a10.2,10.2,0,0,1-2,2.2l-.3.2h.2c-3.3,2.7-6.7,1.1-8.4-1.2-5-7.6-6-2.9-10.6,1.3-7.3,5.5-18.4,2.3-23.3-5-1.4-1.1-2.7-7-4.5-3.4-.9,16.4,22.8,22.5,33.3,11.9C219.6,697.6,238.4,678.5,230.6,665.2Zm-30.1,16.2Zm12.1-4.5Zm11.9.2Z"/><path class="cls-2" d="M222.3,679.6a.1.1,0,0,0-.1.1C222.2,679.6,222.2,679.6,222.3,679.6Z"/><path class="cls-2" d="M162.2,628.9c.1,0,0-.1-.2-.1S162.2,628.8,162.2,628.9Z"/><path class="cls-2" d="M160.1,627.3l-.3-.3Z"/><path class="cls-2" d="M162.5,608.6c.2-.2.1-.2,0,0Z"/><path class="cls-2" d="M177,664.1c.7-.2,4.4-1.7,5.7-3.1,2.9,12,23.2,13.5,21.9-.9a.5.5,0,0,0-.9.1c-2.6,10.9-14.2,3.6-16-4.2a.8.8,0,0,0-.5-1.3l-.3-.8c-.4-2.8-.3-5.9,1.7-8.1a.5.5,0,0,0-.6-.7c-5.1,2.3-6.8,8.2-6.1,13a17.1,17.1,0,0,1-5.6.7,11.1,11.1,0,0,1-5.2-1.3c-10.4-4.3-11.7-15.5-7-22.9,1.1-2.2.3-5.3-2.4-5.9h.3a7,7,0,0,1-1.9-1.5c.1.1-.2-.1-.3-.3h0c-3.9-5.8-1.1-13.3,2.7-18.4l-.2.2a23.2,23.2,0,0,1,3.5-3.5c.1-.2,1.2-.9.3-.3,2.8-2.8,8.8-3.4,10.9-2.1s6.5,3.9,8.1,2c.2,1.2,1.4,7.2,2.6,5.5a13.5,13.5,0,0,1,1.2-8.2c1.7-4.4,7.1-10.4,12.2-7.7,0-.2.3.2.4.3h-.1l.6.6a.1.1,0,0,1-.1-.1c0,.1.6.6.4.6a12.3,12.3,0,0,1,1.3,4.1v-.3c0,.2.1.8.1.8,2.2,9.7,13.7,3.7,7.5-6.8-7-12.8-27-3.1-26.3,9.7a18,18,0,0,0-.8-2.1l-.4-.9c-16.3-18.7-43.4,16.1-28.6,32.1-10.1,12,1.4,31.9,13.8,32.3A18.4,18.4,0,0,0,177,664.1Zm25.8-67.2a.1.1,0,0,0,.1.1Zm-1.3-2.1h-.1l.3.2Zm-.2-.2h.1C201.2,594.5,201.1,594.3,201.3,594.6Zm-26.5,7.6h0Z"/><path class="cls-2" d="M201.1,594.5q0,.2.3.3Z"/><path class="cls-2" d="M203.6,600a2.8,2.8,0,0,1,.1.5A1.1,1.1,0,0,0,203.6,600Z"/><path class="cls-2" d="M202.1,595.6c-.1-.1-.1-.1-.1-.2l.3.5Z"/><path class="cls-2" d="M203.9,621c-2.7.8-4.6,3.2-5.8,5.6s3.2-3.4,6.3-2.3a5.2,5.2,0,0,1,4.2,3.5,4.3,4.3,0,0,1,0,3.1c0-.1.1-.1.1-.2s-.3.6-.2.4c-.8,1.4-2.1,2.2-2.7,3.9s2,5.4,4.5,4.5h0l1-.4c6.7,1.6,5.6,11.7-.2,14.1-1.5,5.7,17.9-5.8,3.9-18.2C219.3,627.9,211.8,618.5,203.9,621Zm4.9,7.6h0Zm.1,1.2Z"/><path class="cls-2" d="M208.6,630.9a.3.3,0,0,0-.1.2C208.5,631,208.6,631,208.6,630.9Z"/><path class="cls-2" d="M226.9,632.5h0Z"/><path class="cls-2" d="M224.6,641.2c0-.2-.1-.1-.1.3S224.6,641.3,224.6,641.2Z"/><path class="cls-2" d="M224.2,637h0v0Z"/><path class="cls-2" d="M181.7,655.6v0Z"/><path class="cls-2" d="M185.1,645.3c2.3-2.3,3.2-5.6-.9-2.2-2.1,1-3.9-1.6-4.7-3.4h0a16.2,16.2,0,0,1-1.1-7.2c-.1.3,0-.1,0-.2h0c0-1.3.9-2.2,1.5-3.3.8-3.1-3.3-1.5-4.1.1h.2c-6,4.9-1.5,18.9,6.7,17.5A3.8,3.8,0,0,0,185.1,645.3Zm-2.5-2h0Z"/><path class="cls-2" d="M179.5,639.7c-.1-.3-.1-.4-.1-.2A.3.3,0,0,1,179.5,639.7Z"/><path class="cls-2" d="M178.4,632.6v0Z"/><path class="cls-2" d="M187.4,625.5c2-.9,2.9-3.7,3.4-5.7s-3.4-1.9-3.7.5S185.2,625.4,187.4,625.5Z"/><path class="cls-2" d="M294.2,584.4c2.8,11.3,5.6,22.5,8,33.9,1.1,2.7,3.3,21.1,5.5,19.2-4.1-27.1-4.5-55.4-12.4-81.7a21.2,21.2,0,0,0-1.1-2.1c-.5-.6.2.7-.4-.6-1.2-3.5-3.2-2.6-3,.9C288.7,563.9,292.9,574.5,294.2,584.4Z"/><path class="cls-2" d="M290.4,555h0C290.3,555,290.3,555,290.4,555Z"/><path class="cls-2" d="M289.1,599.8c.7,2.3,2.9,19.6,5.1,17.6-.9-8.9-3-17.6-4.8-26.4-.6-1.4-1.7-10.3-3.2-8.7A172.5,172.5,0,0,0,289.1,599.8Z"/><path class="cls-2" d="M335.4,648.6c-.1.2-.2.3-.1.2Z"/><path class="cls-2" d="M323.8,635.7c.3-.1.4-.1.2-.1Z"/><path class="cls-2" d="M331.8,638l.3.2Z"/><path class="cls-2" d="M311.8,707.5c.3.3.4.3-.2-.3Z"/><path class="cls-2" d="M329.7,700.3c.1-.4.1-.7-.1.2S329.7,700.4,329.7,700.3Z"/><path class="cls-2" d="M336.8,690.3c-1-1.7-2-4.5-3.7-6.8h.1c6,8.1,20,5.6,24.3-3.2,6.6-11.9-3.9-26.4-16.4-27.8,10.4-20.2-26.4-34.3-28.1-9.5.7,3,4.7-7.4,10.8-7.2h-.1a12.3,12.3,0,0,1,5.6.8,20.7,20.7,0,0,1,2.5,1.5h-.1l.4.3a19.9,19.9,0,0,1,2,2.1,8.2,8.2,0,0,1,1.3,8.3c0-.1,0-.1.1-.2a16.4,16.4,0,0,1-4.1,5.3c-2.4,2.2.1,6.6,3.2,5.5,5.7-2.2,12.5.6,16,5.3,8.4,11.7-4.7,22.7-15.5,13.2,2.4-5.9-8.8-17.2-8.8-13.6,4.7,3.8,6.2,10.9,2.4,15.8h.1c-2.4,3.3-7.1,5.5-10.8,4.4h-1.3l-1.3-.2c-2.5-.1-8.8-4.5-5.1,1.2,4.1,8.6,16.2,7.2,21.4.4a33.8,33.8,0,0,1,.1,4.5c0,.1-.3,1.4-.2,1-.3,3.2-.6,6.5-2,9.5h0a24.2,24.2,0,0,1-2.5,4c-1.4,2.6-11.5,8.4-15.7,2.6h.2c-2.3-2.5-3.3-16.1-7.7-8.4a14.6,14.6,0,0,0-.9,1.3c-.4-4-4.8,5-6.6,5.3l-.7.5a7.7,7.7,0,0,1-1.8,1c-6.7,3-16-.9-16.7-8.8,3.6-6.3-6.3-10.1-7-2.4-11.9-2.1-19.8-17.1-9.3-25.7,1-1.2,6.3-1.7,3.9-3.7-21.8-.5-16.3,31.5,5.3,33.7.9,15.7,24.8,21.3,31.9,6.9C309.1,732.3,345.8,711.7,336.8,690.3Zm3.8-31.7Zm11.9,17.1c-.1.1-.1.2,0,0Zm-21.7-1.2c.1-.3.1-.1,0,0Zm-53.7,23.2v0Zm13.3,10.1h0C290,707.9,290.2,707.9,290.4,707.8Z"/><path class="cls-2" d="M331.6,690.9h0Z"/><path class="cls-2" d="M275.6,632.7h-.1C276.5,633,276,632.7,275.6,632.7Z"/><path class="cls-2" d="M262.9,642.5c0,.1,0,.1.1-.2S263,642.5,262.9,642.5Z"/><path class="cls-2" d="M256.3,646.5c-.4,3.6,6,17.6,9.5,15.4-3-6.1-5.8-13-2.8-19.6h0l.4-.9a17.6,17.6,0,0,1,4.7-6.1c1.5-1.2,4.8-3,7.4-2.6h-.2c5.4,1,6.7,7.1,8.6,11.3s10.3,2.2,9.7-3.1c6.4-2.1,11.9,3.5,13.5,9.3a1,1,0,0,0,1.8,0c2.1-8.7-8.5-14.8-16-13.2C286.2,614,254.4,625.7,256.3,646.5Zm21.2-13.2a.1.1,0,0,0,.1.1C278.2,633.8,277.8,633.6,277.5,633.3Zm-.5-.3Zm-.1,0h0Z"/><path class="cls-2" d="M328.7,679.9c-.2.3-.2.3-.1.2S328.7,680,328.7,679.9Z"/><path class="cls-2" d="M286.7,688.2Z"/><path class="cls-2" d="M306.5,692.5a10.6,10.6,0,0,0,2.7-3.3c1.2-2.1.7-5.3-1.4-6.4s-3.6.3-2.2.9,1-.1,1.3.2.1.4.1.6-1.3,1-2,1.4-.3.1.1-.1a24.4,24.4,0,0,1-2.4,1c-4.9,1.1-11.6-.6-13.9-5.4-.4-1.5-1.2-5.2-3-2.6a11.7,11.7,0,0,0,.6,8.8c1.8,6.7,14.1,10.5,19.2,5.6Zm-.3-7.1Z"/><path class="cls-2" d="M278.2,665.5Z"/><path class="cls-2" d="M278.2,665.4c-.4-3,6.3-6.1,3.6-7.7s-3.2.6-4.2,1.5c-10.1,8.5,5.3,24.3,13.7,13.5.7-2.8-7.7,6.6-12.6-3.9a7.4,7.4,0,0,1-.5-3.3v-.1Z"/><path class="cls-2" d="M301.7,654.6c-1.5.4-2.9,5.2-.5,3l.7-.4a2.4,2.4,0,0,1,.9-.5,4.8,4.8,0,0,1,2.4-.3l1,.2s.4.2.1,0c1.4.6,2.1,2,2.7,3.4C314,662.3,309.1,650.1,301.7,654.6Z"/><path class="cls-2" d="M357.3,698.5c-.1.2-.1.2,0,.1Z"/><path class="cls-2" d="M359.8,695.1c-2.4-2.5-10-.8-3.6,1.5a1.6,1.6,0,0,1,1.1,1.9v-.2a5.1,5.1,0,0,1-1,2.4c.2-.3.3-.4.1-.2a6.7,6.7,0,0,1-3,2.5h.3a6.9,6.9,0,0,1-2.5.4c-3.1-.8-4.8,2.9-2.9,5.2a4.4,4.4,0,0,1-1.6,5.1c.5-.5-.5.3-.5.3a5.5,5.5,0,0,1-7.6-.7c-3.6.2,2,5.3,3.7,5.3,6,2,12.4-3.5,11.9-9.7C359.8,707.8,365.1,699.7,359.8,695.1Zm-7.4,8.1h0Zm4.6-3.7c0,.1-.1.2-.1.3A.8.8,0,0,0,357,699.5Zm.3-1.9c-.1-.2,0-.1,0,0Zm.1.2h0Z"/><path class="cls-2" d="M259.7,714.5h0Z"/><path class="cls-2" d="M253.9,710.5c-.1-.2-.1-.1,0,0Z"/><path class="cls-2" d="M266.7,714.1c-1.3.8-2.7.7-4.2.9a9.1,9.1,0,0,1-2.8-.5c.4.2,0,0-.2,0h.1a11.7,11.7,0,0,1-5.7-4l.2.3c-2.5-3-2.5-7-2.1-10.7v.3a6.9,6.9,0,0,0,.2-2.4c.6-1.1-.9-2.2-2-1.4-13.8,6.2-.2,27.9,12.3,22.6C264,719.3,270.8,713.9,266.7,714.1Zm-8.4-.1c.1,0,.1.1,0,0Zm2.4.8Zm1.1.2Z"/><path class="cls-2" d="M161.4,679.7a11.5,11.5,0,0,1-14.9-8.9,9.3,9.3,0,0,1,.6-4.4c5.8-9.9-5.4-8.1-5.9.2-2.3,10.8,11.5,22.1,20.7,14C162.4,680.3,161.9,679.5,161.4,679.7Zm-10.3-1.4Z"/><path class="cls-2" d="M140.1,647c-3.3-1.3-5-4.9-4.7-8.3a5.8,5.8,0,0,1,.4-1.8,14.7,14.7,0,0,1,.9-1.7c.1-.1.4-.6.1-.2,4.8-7.5-5.1-3.8-5.1,1.3C128.7,645.6,142.7,651.6,140.1,647Z"/><path class="cls-2" d="M256.5,609.8c4-16.5,6.6-33.4,8.8-50.2-4-4.5-12,33.2-11.3,37.3C254.2,598.9,252.4,613.9,256.5,609.8Z"/></svg>