<svg xmlns="http://www.w3.org/2000/svg" width="61.165" height="68.502"><path fill="#4AACD7" d="m59.318 15.53-9.625 5.548 2.271-8.448-3.57-.956-3.219 12.019-12.746 7.362V16.33l8.8-8.8-2.615-2.6-6.185 6.185V0h-3.693v11.112L22.543 4.93l-2.607 2.6 8.8 8.8v14.727L15.99 23.695l-3.22-12.019-3.571.956 2.263 8.448-9.615-5.55L0 18.73l9.617 5.556-8.447 2.26.956 3.571 12.019-3.219 12.746 7.354-12.746 7.362-12.019-3.219-.956 3.561 8.448 2.263-9.617 5.556 1.846 3.2 9.617-5.556-2.263 8.448 3.569.963 3.219-12.027 12.746-7.354v14.715l-8.8 8.8 2.606 2.615 6.193-6.193v11.112h3.693V57.39l6.185 6.193 2.615-2.615-8.8-8.8V37.454l12.746 7.354 3.221 12.022 3.57-.964-2.271-8.448 9.625 5.556 1.847-3.2-9.617-5.556 8.448-2.263-.956-3.562-12.019 3.219-12.746-7.362 12.746-7.354 12.019 3.219.956-3.571-8.448-2.263 9.622-5.551Z" data-name="Path 110472"/></svg>