<svg xmlns="http://www.w3.org/2000/svg" width="35.596" height="68.658"><path fill="#4AACD7" d="M28.93 24.178v4.453h-4.453v-4.453Zm0-8.9v4.453h-4.453V15.28ZM15.579 54.734c2.843-1.634 2.222-4.8 2.222-8.3a4.453 4.453 0 0 0-2.222 8.3m4.453-12.468a8.906 8.906 0 1 1-4.453 0V19.733a2.227 2.227 0 0 1 4.453 0ZM6.681 10.826a11.128 11.128 0 0 1 22.249 0h-4.453a6.676 6.676 0 1 0-13.351 0v28.489c-11.774 6.814-6.912 24.92 6.675 24.92s18.449-18.106 6.675-24.92v-6.256h4.453v3.906c13.073 10.5 5.621 31.694-11.128 31.694S-6.425 47.489 6.681 36.99Z" data-name="Path 110463"/></svg>