<svg xmlns="http://www.w3.org/2000/svg" id="Layer_1" data-name="Layer 1" viewBox="0 0 150 150"><defs><style>.cls-2{fill:#fff}.cls-3{fill:#ffd555}.cls-4{fill:none}.cls-5{fill:#21282d}</style></defs><circle id="Ellipse_281" cx="74.24" cy="75.26" r="73.51" data-name="Ellipse 281" style="fill:#c3e3f2"/><path d="m46.49 105.87.06 2h17.86v-2.67a122 122 0 0 1-17.92.67" class="cls-2"/><path d="M51.38 42.28H47.3a2.49 2.49 0 0 0-2.5 2.49v59.63a2.5 2.5 0 0 0 2.5 2.5h64.77a2.5 2.5 0 0 0 2.5-2.5V68.31a2.5 2.5 0 0 0-2.5-2.5H82.18v-21a2.49 2.49 0 0 0-2.5-2.49h-17.1" class="cls-2"/><path d="M46.99 42.74h33.32v11.49H46.99zM80.31 70.32h34.47v10.34H80.31z" class="cls-3"/><path d="M78.41 78.49v5.22h-10.1v7.49h10.1v5.23h-10.1v7.29H97V71.19H68.31v7.3Zm5.19 0h6.57v5.22H83.6Zm0 12.71h6.57v5.23H83.6ZM51.37 83.71h11.72v7.48H51.37zM51.37 96.43h11.72v7.3H51.37zM51.37 71.19h11.72v7.3H51.37z" class="cls-4"/><path d="M81 41.33H47.09a2.61 2.61 0 0 0-2.61 2.61v62.4a2.61 2.61 0 0 0 2.61 2.66h67.79a2.61 2.61 0 0 0 2.61-2.61V68.57a2.61 2.61 0 0 0-2.61-2.57H83.6V44a2.61 2.61 0 0 0-2.6-2.67M61.42 71.19v7.3H49.71v-7.3ZM49.71 66v-7.2h11.71V66Zm0 17.75h11.71v7.45H49.71Zm16.94 0h11.72v7.45H66.65Zm0-5.22v-7.3h11.72v7.3Zm0-12.53v-7.2h11.72V66Zm11.72-19.4v7H49.71v-7ZM49.71 96.43h11.71v7.29H49.71Zm16.94 7.29v-7.29h11.72v7.29Zm45.61-32.53v32.53H83.6v-7.29h10.09V91.2H83.6v-7.49h30.77v-5.22H83.6v-7.3Z" class="cls-5"/><path d="M83.6 78.49h6.57v5.23H83.6zM83.6 91.2h6.57v5.23H83.6z" class="cls-5"/><path d="M106.48 109h-73a2.5 2.5 0 1 1 0-5h73a2.5 2.5 0 0 1 0 5"/></svg>