<svg xmlns="http://www.w3.org/2000/svg" width="71.212" height="71.206"><path fill="#4AACD7" d="M27.533 5.514A31.05 31.05 0 0 0 8.618 20.033l-.065.106a31.1 31.1 0 0 0-3.039 23.539 31.05 31.05 0 0 0 14.519 18.915l.106.065a31.05 31.05 0 0 0 23.531 3.048 31.05 31.05 0 0 0 18.923-14.519l.065-.106a31.05 31.05 0 0 0 3.039-23.539 31.05 31.05 0 0 0-14.47-18.915l-.106-.065a31.05 31.05 0 0 0-23.588-3.048m7.051 43.4a13.3 13.3 0 0 1-5.654-1.757 13.33 13.33 0 0 1-5.237-5.515l-1.266.139c-3.023.327-5.9.629-6.381 1.119a2.14 2.14 0 0 0-.531 2.149 10.94 10.94 0 0 0 2.933 4.453 14.15 14.15 0 0 0 7.182 4.085 8.4 8.4 0 0 0 5-.482 7.47 7.47 0 0 0 3.522-3.268 9 9 0 0 0 .433-.921Zm-9.993-20.827a13.37 13.37 0 0 1 11.733-5.809l.515-1.16c1.234-2.778 2.451-5.425 2.222-6.1a2.12 2.12 0 0 0-1.585-1.528 11.06 11.06 0 0 0-5.327.31A14.16 14.16 0 0 0 25 17.983a8.3 8.3 0 0 0-2.067 4.551 7.47 7.47 0 0 0 1.095 4.714c.172.293.36.563.564.841Zm20.181-2.173a14.6 14.6 0 0 1 3.767-.588 11.84 11.84 0 0 1 7.354 2.255 12.8 12.8 0 0 1 4.494 6.193 18.5 18.5 0 0 1 .147 10.891 16.9 16.9 0 0 1-2.8 5.932c-1.7 2.108-4.028 3.423-7.133 2.6-2.182-.58-4.339-3.538-6.6-6.651l-.245-.327a13.2 13.2 0 0 1-4.33 2.149 14.4 14.4 0 0 1-1.373 3.546 11.87 11.87 0 0 1-5.613 5.27 12.76 12.76 0 0 1-7.607.776 18.44 18.44 0 0 1-9.551-5.311 15.16 15.16 0 0 1-4.085-6.536 6.29 6.29 0 0 1 1.691-6.34c1.634-1.634 5.237-1.994 9.061-2.4l.4-.049a13.4 13.4 0 0 1 .286-4.812 14.8 14.8 0 0 1-2.394-2.933 11.85 11.85 0 0 1-1.691-7.5 12.83 12.83 0 0 1 3.129-6.986 18.5 18.5 0 0 1 9.363-5.572 15.16 15.16 0 0 1 7.7-.278 6.33 6.33 0 0 1 4.649 4.633c.588 2.19-.891 5.531-2.451 9.045l-.172.376a14 14 0 0 1 1.544.76 13.4 13.4 0 0 1 2.461 1.859Zm11.439 17.6a14.1 14.1 0 0 0 0-8.277 8.33 8.33 0 0 0-2.909-4.085 7.53 7.53 0 0 0-4.641-1.405 8 8 0 0 0-.98.082 13.33 13.33 0 0 1-.539 12.452 11 11 0 0 1-.384.613l.76 1.038c1.749 2.4 3.415 4.69 4.085 4.951h.131a2.45 2.45 0 0 0 2.451-1.1 12.2 12.2 0 0 0 1.969-4.29ZM34.454 31.308a4.515 4.515 0 1 0 .01 0Zm-1.152-4.3a8.88 8.88 0 0 0-5.409 4.142 8.914 8.914 0 0 0 3.268 12.158 8.906 8.906 0 0 0 12.158-3.268 8.92 8.92 0 0 0-3.268-12.158 8.85 8.85 0 0 0-6.749-.872ZM26.259 1.257l.261-.074a35.47 35.47 0 0 1 26.751 3.53l.139.065a35.5 35.5 0 0 1 16.545 21.48 1.6 1.6 0 0 1 .074.27 35.48 35.48 0 0 1-3.52 26.739l-.074.131a35.5 35.5 0 0 1-21.48 16.554l-.261.065a35.47 35.47 0 0 1-26.75-3.522l-.139-.074A35.45 35.45 0 0 1 1.26 44.949a1.4 1.4 0 0 1-.074-.261 35.5 35.5 0 0 1 3.523-26.747l.074-.131A35.5 35.5 0 0 1 26.259 1.257" data-name="Path 110467"/></svg>