<svg xmlns="http://www.w3.org/2000/svg" id="Layer_1" data-name="Layer 1" viewBox="0 0 150 150"><defs><style>.cls-3{fill:#fff}.cls-4{fill:#21282d}</style></defs><circle id="Ellipse_280" cx="75.17" cy="75.27" r="73.51" data-name="Ellipse 280" style="fill:#c3e3f2"/><circle cx="60.17" cy="68.59" r="14.68" style="fill:#ffd555"/><path d="M108.93 93.21c0-12.81-15.85-34.56-28.4-34.56S49.28 82.76 49.28 95.57 68 105 80.53 105s28.4 1 28.4-11.79" class="cls-3"/><ellipse cx="107.51" cy="90.37" class="cls-3" rx="15.62" ry="14.68"/><path d="M39.84 53.81a2.5 2.5 0 0 0 1.64.66 2.47 2.47 0 0 0 1.63-.66 3 3 0 0 0 0-3.92l-3.27-4.25a3 3 0 0 0-3.92 0c-1.31 1-1 2.94 0 4.25ZM37.55 69.51a2.74 2.74 0 0 0-2.94-2.94h-5.56c-1.64.33-2.94 1.31-2.94 2.94a2.75 2.75 0 0 0 2.94 2.95h5.56a3.16 3.16 0 0 0 2.94-2.95M39.84 85.54l-3.92 3.92a3 3 0 0 0 0 3.93 2.38 2.38 0 0 0 3.27 0l3.92-3.93a3 3 0 0 0 0-3.92c-.32-.98-1.63-.98-3.27 0M78.11 54.47a2.47 2.47 0 0 0 1.63-.66L84 49.89A2.78 2.78 0 1 0 80.07 46l-4.25 3.93a3 3 0 0 0 0 3.92 6 6 0 0 0 2.29.62M60.12 47a2.75 2.75 0 0 0 2.94-3v-5.23a2.74 2.74 0 0 0-2.94-2.94 2.6 2.6 0 0 0-2.94 2.94v5.56A2.67 2.67 0 0 0 60.12 47M106.24 74.83h-1.41a27.63 27.63 0 0 0-8.08-12.19 25.42 25.42 0 0 0-16-5.88 27 27 0 0 0-7.2 1 17.87 17.87 0 0 0-13.76-6.56 18.49 18.49 0 0 0-18.31 18.31c0 5.89 2.94 10.8 7.19 14.39a19.6 19.6 0 0 0-2 8.83 18.15 18.15 0 0 0 18 18h41.54c9.81 0 18-8.5 18-18.31a17.79 17.79 0 0 0-17.97-17.59M47 69.19a12.57 12.57 0 0 1 12.79-12.76 13.1 13.1 0 0 1 8.51 3.27 25.44 25.44 0 0 0-11.78 16.35 11.94 11.94 0 0 0-4.58 3.6A13.87 13.87 0 0 1 47 69.19m59.5 35.58H64.38c-6.31 0-12.29-5.13-12.29-11.63a12.11 12.11 0 0 1 8-11.29l2-.68.41-3C63.46 69 72 63 81.31 63c8.63 0 16.39 6.7 18.52 15.79.18.78 1 3 1 3h6.71a11.37 11.37 0 0 1 11.29 11.63c0 6.58-5.98 11.35-12.29 11.35Z" class="cls-4"/></svg>