<svg id="Layer_1" data-name="Layer 1" xmlns="http://www.w3.org/2000/svg" viewBox="0 0 250 250"><defs><style>.cls-1{fill:#42515a;}.cls-2{fill:#41515a;}</style></defs><path class="cls-1" d="M183,195.26H48.18a4.88,4.88,0,0,0-4.87,4.87A4.6,4.6,0,0,0,48.18,205H182.51a4.88,4.88,0,0,0,4.87-4.87C187.38,197.21,185.43,195.26,183,195.26Z"/><path class="cls-1" d="M201,213.26H88.18a4.88,4.88,0,0,0-4.87,4.87A4.6,4.6,0,0,0,88.18,223H200.51a4.88,4.88,0,0,0,4.87-4.87C205.38,215.21,203.43,213.26,201,213.26Z"/><path class="cls-1" d="M128.8,28.05c2.94,1.05,6.13,1.68,8.78,3.23a21.69,21.69,0,0,1,7.63,30c-.23.39-.42.79-.79,1.49h1.86c5.17,0,10.35-.11,15.52.06a28.4,28.4,0,0,1,27.5,23.55c3.22,17.53,6.24,35.1,9.34,52.65.89,5,1.82,10.07,2.59,15.12a28.76,28.76,0,0,1-26.76,32.81c-.82.05-1.65.07-2.48.07q-45.7,0-91.41,0c-11.38,0-20.1-5-25.85-14.81-3.59-6.15-4.33-12.85-3.1-19.8,3.8-21.53,7.64-43,11.38-64.57C65.22,75,73.54,66,86,63.33a35.68,35.68,0,0,1,6.78-.57c5.06-.08,10.12,0,15.42,0-.29-.58-.46-1-.68-1.36A22,22,0,0,1,121.9,28.5c.65-.14,1.29-.3,1.93-.45Zm-2.47,149.58c15.26,0,30.51,0,45.77,0,12,0,20.86-9.24,20-21-.3-4-1.24-8-1.94-11.92-3.25-18.47-6.58-36.92-9.76-55.4-1.81-10.51-9.53-17.19-20.23-17.2H118.39c-9.2,0-18.42-.21-27.61.09-7.38.25-12.85,4-16.4,10.52-1.7,3.13-2.07,6.58-2.67,10q-5.1,28.68-10.16,57.37c-.72,4.12-1.61,8.22-.63,12.44,2.11,9,9.92,15.1,19.64,15.12Q103.45,177.66,126.33,177.63ZM126.09,62.7c6.7.32,12.71-5.36,12.82-12.44a12.59,12.59,0,0,0-25.18-.45A12.53,12.53,0,0,0,126.09,62.7Z"/><path class="cls-1" d="M147.26,130.26c-.77,0-1.46,0-2.15,0a4.21,4.21,0,0,1-.19-8.4c2.38-.12,4.78-.1,7.16,0a4,4,0,0,1,3.8,3.54c.26,3.8.28,7.59-1.87,11a13.54,13.54,0,0,1-23.15.21,13.53,13.53,0,0,1-2.11-7.32c0-3-.09-5.9,0-8.85.18-5.74,2.77-10.08,8-12.51A13.45,13.45,0,0,1,153.12,112a4.13,4.13,0,0,1-.59,5.69,4.35,4.35,0,0,1-5.77-.15,10.26,10.26,0,0,0-3.59-2.21,4.71,4.71,0,0,0-5.78,4.26c-.16,3.5-.13,7,0,10.53a4.78,4.78,0,0,0,4.26,4.36,5.08,5.08,0,0,0,5.48-3.23A5,5,0,0,0,147.26,130.26Z"/><path class="cls-1" d="M104.78,119.43c2-1.86,4.27-3.79,6.4-5.83,1.75-1.68,3.39-3.49,5.1-5.23,2.08-2.12,4.6-2.31,6.44-.5s1.67,4.31-.3,6.36c-3.37,3.52-6.76,7-10.23,10.59.39.42.73.8,1.08,1.16q4.68,4.85,9.37,9.7a4.17,4.17,0,0,1,1,4.65,4,4,0,0,1-3.63,2.68,4.49,4.49,0,0,1-3.72-1.62c-3.43-3.58-6.9-7.14-10.35-10.7-.31-.32-.65-.61-1.2-1.13,0,3.26,0,6.24,0,9.22a4.23,4.23,0,1,1-8.44-.27c0-5.76,0-11.52,0-17.28,0-3.33,0-6.65,0-10,0-2.72,1.77-4.61,4.23-4.61s4.21,1.91,4.22,4.62S104.78,117,104.78,119.43Z"/><path class="cls-2" d="M120.11,49.55a6.2,6.2,0,1,0,6.2-6.21A6.21,6.21,0,0,0,120.11,49.55Z"/></svg>