<svg xmlns="http://www.w3.org/2000/svg" viewBox="0 0 487.65 341.48"><defs><style>.cls-1{fill:#c3e3f2}.cls-3{fill:none}.cls-4{fill:#ffd555}.cls-5{fill:#fff}.cls-7{fill:#42515a}</style></defs><g id="Layer_10" data-name="Layer 10"><path id="Path_114899" d="M83.56 47.83 13 315.82l459.1 1.76L421.3 22Z" class="cls-1" data-name="Path 114899"/><path d="M441.65 117.87c-7.56-8.39-2.54 1 0-14 2 1.1 9.75 1.27 8-1-6.19-.77-10.54-2.21-5-8 3.91-.07 3.08 2 2 0 4.65-9.14 2.35-17.82-15-23-67-20-150 7-255.61-11.17-6.61-1.13-4.22 6-4.84 9.44.74 9.67-11.78 59.82-11.55 69.73-4.72 49.53 0 69 .55 115.64-.09-7.68 32.45-4.37 14.5 8.34-1.26 2 20.07 11 22 10 20.28-3.48 25.78 4.95 35 3 109.46-23.14 156 20 183-13 3.26-4-.45-46.32 0-49 4.95-29.98 22.75-59.41 26.95-96.98" style="fill:#488eab"/><path d="M214.16 86.33h174.73v138.71H214.16z" class="cls-3"/><g id="Group_409" data-name="Group 409"><path id="Path_114901" d="M285.48 88.35c2.47 1.63 9.18 12.4 6 16-3.43 15.62 9.63 35.4-2.11 47.62-15.72 17.24-28.22 84.28-60.74 50.29-33.46-40.43-6.45-150.43 56.85-113.91" class="cls-4" data-name="Path 114901"/><path id="Path_114902" d="M384.9 128.35c6.39 26.93-3.41 54.82-18.33 77.67-38 39.71-36.85-33.22-55.86-48.93-13.66-10.87 5.8-32.67 3.13-48.88-6.29-.14-.67-9.4 2.7-10.67C341.88 76 381 99.52 384.9 128.35" class="cls-4" data-name="Path 114902"/></g><path d="m283.13 159.81.4.28.09-.32-.68-.07ZM354.51 90l.5.26c3.89.06 9.68 4.47 12.42 6.06h.27c-8.15-7.87-16.33-10.35-26.07-8.51 4.11-.29 12.19-.36 12.88 2.19M326.62 106c.82-.3 1.64-.58 2.47-.85a44 44 0 0 1 5.34-1.35c1.55-3.07 7.19-1.79 10.13-2.16 2.58-.91 7.4.45 11 1.73 2.67-1.2 5.36-2.32 8.09-3.36-3.14-1.59-6.46-2.83-9.72-4.12a39.4 39.4 0 0 0-5.95-.25c-8.34.35-16.3 3.31-24.26 5.46a51 51 0 0 0-6.06 4.51 32.5 32.5 0 0 0-1.11 4.16 10.6 10.6 0 0 0 2.28-1.2c2.43-.84 5.17-4.12 7.79-2.57M312.24 107a4 4 0 0 1-.19-.47v.91c.08-.12.13-.27.19-.44M181.52 101.9h-.08a3.4 3.4 0 0 1-.48 1.34c.31.55.62 1.1.92 1.65.06-.93.12-1.87.19-2.8ZM217.92 122.63c8.49-6.36 19.47-11.66 30.39-12.93-1.79-1.09-3.56-2.22-5.28-3.41l-2.92-2c-.71.31-1.41.62-2.11 1-8.7 3.31-16.45 6.28-23 13.27a32.1 32.1 0 0 0-5.88 12.57 33 33 0 0 1 8.8-8.5M253.52 81.78c3.21-.48 6.42-1 9.66-1.22a16 16 0 0 0-9.66 1.22M187.36 97.09h.15a1.8 1.8 0 0 1 .47.06 15 15 0 0 1 1.34-1.2l-.7.37ZM368.42 111.42c1.4 1.1 2.79 2.23 4.19 3.33a30.5 30.5 0 0 1 6.68 5.06c4 3.12 6.46 7.47 9.19 11.63a52 52 0 0 1 3.26 5A49.7 49.7 0 0 0 389 126q-1.5-3.195-3.3-6.24c-.22-.31-.43-.64-.66-1a2 2 0 0 1-.61-1.09q-1.54-2.44-3.29-4.77l-.75-.93c-1.43-.24-2-1.81-2.66-3.06a29 29 0 0 0-2.4-2.31 26.6 26.6 0 0 1-4.26.79q-2.25 1.13-4.56 2.11a14 14 0 0 1 1.91 1.92M182 138.15c.09.68.17 1.36.26 2 0-.62-.07-1.25-.1-1.87a1.3 1.3 0 0 1-.16-.13M371.05 118.7c-2.14-1.53-4.17-3.22-6.28-4.77-.86-.6-1.72-1.21-2.59-1.8-.29-.19-.59-.36-.88-.54l-.49.18c-2.45 1-4.88 2.08-7.29 3.18a38.5 38.5 0 0 1 5.7 1.37c2 .63 5.12.73 5.63 3.3a14.3 14.3 0 0 1 3.12 2.16 6.1 6.1 0 0 1 1.75.36l.2.07c2.8-.48 7 4.85 9.27 6.56 2 2 4.1 3.9 5.95 6 1.3 1.43 2.26 3.1 3.47 4.57a51.4 51.4 0 0 0-4.33-7 36.5 36.5 0 0 0-13.23-13.64M332.94 110.86c-3 2.43-7.26 2.92-10.46 5.2a7.8 7.8 0 0 0-1.88 1.49c5-1.15 10.13-1.77 15-3.48a32 32 0 0 0 6.71-3.53 53 53 0 0 1-9.37.32M232.19 98.69c-2.35 2-4.54 4.19-6.85 6.25l-.39.33a105 105 0 0 1 10.26-4.44c-1.01-.71-2.02-1.42-3.02-2.14M382 183.8a40.8 40.8 0 0 0-13-13.63c-5.94-5.18-13.08-8.77-20.17-11.89-8.84.44-22.31 1.16-29.4 6.68-3.15 1.83-4.86 4.91-6.76 7.86a1.8 1.8 0 0 1-1.72.47 14.4 14.4 0 0 1-.14 2.59c.07 1 0 2 .08 3a25.4 25.4 0 0 1 7.95-4.46 32.6 32.6 0 0 1 15.62-1.15c4.45-1.69 9.82 0 14.36.93 10 2.64 18.49 9 26 15.83a31.2 31.2 0 0 1 10.38 11.76 9.5 9.5 0 0 0-.07-1.76A92 92 0 0 0 382 183.8M311.06 146a2.3 2.3 0 0 1-.38-.49l.12 1.14c.18-.13.36-.26.53-.4ZM280.24 127.8a5 5 0 0 0-2.21-3.88c-8.57-6-19.52-10.67-30.1-8.53-.5-.16-1-.33-1.5-.48a65 65 0 0 0-9.57 2.87c-8.72 3.39-17.4 8.07-23.64 15.13a47.8 47.8 0 0 0-7 14.78c-.3 2.4-1.05 4.73-1.28 7.14v.55c1.59-3.06 3.19-6.11 5-9a36.8 36.8 0 0 1 8.34-6.33c3-4.3 12.8-8.8 15.56-9.63 3.94-1.32 20.23-4 24.15.11.32.07.65.11 1 .19 2.86.88 8.24 1.05 9.83 3.68a56 56 0 0 1 7 3c1.47-4.7 9.53 3.7 11.44 5.29.52.52 1 1.07 1.47 1.64.09-1.47.22-2.91.2-4.16s-.15-2.71-.25-4.09a26 26 0 0 0-8.44-8.28M417.36 136.91a2.75 2.75 0 0 1 .3 1.26 6 6 0 0 1 .37-.93c-.2-.3-.39-.6-.57-.91-.04.22-.07.4-.1.58" class="cls-3"/><path d="M379.85 155.58c-3.35-3.24-6.52-6.72-10.25-9.6-4.55 1.32-10.2-4.23-15.05-4.4-5.77-.72-11.36 0-17.07.34-3.16.29-6.38.05-9.31 1.37a60.3 60.3 0 0 0-12.27 5.78c-1.5.75-3.18 2.28-4.88 3.17v.2c0 .82 0 1.64-.09 2.45 1.68-.19 3.5 0 5-.09 1.57.25 3-.91 4.46-1.28 3.15-1 6.51-1.06 9.77-1.42a77.4 77.4 0 0 1 13.62-.18 31 31 0 0 1 5.62 1.08 29 29 0 0 1 6.36.49c5.42 1.14 9.43 5.2 14 8.06 9.41 6.23 18 14.49 18.59 26.44.06.79.35 3 .64 5.72a7 7 0 0 0 .34-2.67c1-7.51-.6-15-1.89-22.32-2.22-4.56-4.28-9.22-7.59-13.14M269.54 108.13c4.95 2.24 9.8 4.73 14.7 7.06a2.4 2.4 0 0 1-.23-.84 61.3 61.3 0 0 0-11.76-9c-3.48-2.21-7.61-3.32-11-5.61a39.8 39.8 0 0 0-7.65.47l1.5.88c4.61 2.78 9.71 4.52 14.44 7.04M288.06 119.8a2.27 2.27 0 0 1-3.45.77 3.26 3.26 0 0 1 .93 2.35 15.4 15.4 0 0 1 3.71 2.79c.08-1.73.24-3.45.46-5.16a3.7 3.7 0 0 1-.77-.08c-.24-.16-.54-.39-.88-.67M309.12 206.83l1.14-1.23a2.8 2.8 0 0 1-.27-3.77 3 3 0 0 1-1.32-1.66c.03 2.22.27 4.44.45 6.66" class="cls-3"/><path d="M289.34 102.64c-6.34-7.37-14.49-12.83-23-17.35-6.4.59-13 .95-19.14 3.06-2.31.73-3.81 2.6-5.54 4.17 1.89 1.22 3.77 2.47 5.66 3.7a41 41 0 0 1 20.79-.72c8.56 2.65 16.43 7.67 23.38 13.22a4 4 0 0 1 .61.57c0-1.22.1-2.42.16-3.63a10.1 10.1 0 0 1-2.92-3.02M310.2 131.83c-.05.65-.09 1.29-.11 1.94.24-.3.46-.61.72-.89a4 4 0 0 1-.61-1.05" class="cls-3"/><path d="M282.73 206.27c1.27-1.35.49-3.62.29-5.25.11-.17-1.8-.35-1.73-.54 1.86.71 4.77-2.1 3.21-3-1.44-.51-4.85-3.11-6.23-3.78a54 54 0 0 0-15.2-3.78 73.4 73.4 0 0 0-18.66 2.4 72.7 72.7 0 0 0-22.87 12c-1.13 1-5.57 5.75-7.28 7.64-7.64 8.45-12.52 14-16.13 25.1a21 21 0 0 0 1.41 3.15 5.6 5.6 0 0 1 .46 1.08c.47-2.05 1-4.08 1.66-6.08a14.5 14.5 0 0 0 1.07-3.66c.23-.39.46-.77.69-1.12 2.42-3.69 5.58-8.35 9-11.14 4.43-3.72 9.4-8.68 14.24-11.82 4-2.44 7.72-3.35 12-5.17 10.59-4.89 23.11-4.69 34.17-.09-.08 1.31 1.28 1.9 2.29 2.35 1.38 1.32 4.6 2.79 5.65 4.38 2.11 2.77 4.04-.72 1.96-2.67M183.13 92.39c-4.87 1.79-11.19-5.94-15.61.16.36 7.1-5.8 23-3.87 28.32s12 .27 13 7c2.33 16.44.46 38.46 6 55.9l4 2c3 6.1.09-24.79 0-27.9 3.73-11.51-10-49 9-58 1.48-.7 4.95-5 4.6-6.8-1.6-8.2-10.96-2.5-17.12-.68" class="cls-1"/><path d="M414 97c-2.58-.06-8.83-3.29-10.49-1.17-9.51-.9-18.73-1.29-28.13 1-1-.93-2-1.88-3-2.81-.86-.14-1.72 1.5-2.52.83-4.78-4-10.25-9.7-16.84-10-1.26 0-2.28-2.49-3-3.15a24.3 24.3 0 0 0-4.44-.09c-10.93-1.11-22.59-1.15-31.88 5 .64-4.28-.71-.57.31-4.73 1.76-8.53-1.72-10.2-10.11-9.47-2.84 2.92-3.51 4.79-7.63 5.69.11 3.77-2.59 6.67-2.76 10.25-2.95-2.51-2.81-4.78-4.23-5.77-3.36-1.44-15-7.46-18.73-7.41-18.38.24-27.92 3.89-40.52 15.47-2.85-1.34-2.31-2.84-5.44-5.95-2.41-2.41-6.41-4.85-11.07-6.88a4 4 0 0 1-4.41.69c-8-3.1-15.95-3.92-24.46-4a6 6 0 0 1-.73-.06 13 13 0 0 0-1.29.71 8 8 0 0 1-.78-.58 4.5 4.5 0 0 1-3.85 3.3c1.27 2.12 4.83 8.24 6.38 3.14 9.17 1.35 18.67 2.69 27.34 6.46 5.38 1.25 8.76 5 14 6.24.61.81-.5 1.51.46 2.16-5.52 4.73-8.58 7.38-9.68 12 .76-.43 7.84-7.09 11.19-9.93 1.06.74 4.53 2.23 5.52 2.93-2.38.92-6.29 3.54-9.58 5.65a3.9 3.9 0 0 1 1.05.67c3.07-1.59 6.49-2.75 11.43-4.88 2.69 1.88 9.39 5.74 12.2 7.43-16.85 2.12-33.36 13.89-41.5 28.2a5.5 5.5 0 0 1-.4.86c-.24.4-.47.82-.71 1.23-.31.62-2.78 8.24-3 8.88 1.36-.18 4.92-8.82 6-8 7.15-14.48 23.54-24.39 39.29-25.52 10.58-2.14 6.15.48 14.72 6.48 1.46 1 17.51 4.49 17.59 5.93 6.26 3.47 10.18 7.13 8.52 14.47-2.05-2.33-4-2.07-7.55-4.77-3.23-5.31-20.28-13.13-25.42-8.33-14.74-2.39-27 .57-37.46 10.85a23.4 23.4 0 0 0-8.23 6.65 4.47 4.47 0 0 1-1.49 2 43.4 43.4 0 0 0-3.65 6.67c0-.58.06-1.16.11-1.74a27 27 0 0 1-1.93 3.77 5.7 5.7 0 0 1-.8 1c-1.06 3-.87 6.92-.8 9.68.89.48 1.6-2.74 2.05-1.83 6.06-17.34 26.74-32.43 48.51-32.78 8.38-.13 7.35-1.44 15.11 2.38 4 .42 11.64 5.73 14.74 8.58 2.7 2.48 2.75 4.65 5.8 7.36a14.4 14.4 0 0 1-.15 3.53c-6-1.5-12.54-3.86-18.38-5.92-3.08-1.09-9.7-1-12.9-2.22-4.63-1.79-23.67 2.73-28.87 5-17.62 7.55-25 25.62-28.13 43.28a5.5 5.5 0 0 1 .14 1.25 65 65 0 0 1-.64 9.85c.14 1.08.29 2.17.42 3.25a6 6 0 0 1 .22-1.07 1.6 1.6 0 0 0 .73.63c-.22.72-.48 1.46-.77 2.23 0 .17 0 .35.05.52 0 .38.05.75.07 1.13a61.3 61.3 0 0 0 8-12.35 5 5 0 0 1 1.07-1.45c0-.13.09-.25.13-.38a61 61 0 0 1 6.8-9c3.08 1.21 5.52-3.52 7.85-5.09 8.85-6.82 32.25-14.72 42.12-9.44 5.33 1.67 12 5.16 16.22 9.23a4.6 4.6 0 0 1 1.38.47l.22-.39v.51c3 1.79 3 6.68.12 8.57a73.5 73.5 0 0 1-.34 9.59c-.57 2-1.07 4.07-1.52 6.13a5.45 5.45 0 0 1-1.17 6.21c-.5 3.19-.87 6.4-1.08 9.63-.3-.74-.64-1.5-1-2.28a1.7 1.7 0 0 0 0-.74c1.3-11.12-22-6.83-28.35-6.44-16.36 3.12-26.24 14-38.38 24.54-1.34 0-2 3.81-1 4.67 2 .83 5.07-2.08 7.52-4.11a5.59 5.59 0 0 1 3.58-3.92c-.67.27.3-.18.42-.24.37-.19.74-.4 1.1-.62l1.72-1a23 23 0 0 1 4.9-2.25l.24-.06c13.92-10.11 28.84-12.44 46.16-9 1.13 5.5 4 8.93-.63 14.06-3.95 3.69-2.64 9.33-1.41 14 1.13 3.42-3.71 3.13-4.32 7.12-2.91 11.91-1 15.79 11.72 16 4.88-.61 13.12-.22 18-3.07a4.85 4.85 0 0 1 .06-4.55c1.48-2.9.92-6.06 1.36-9.19 0-.19.07-.37.1-.56a10 10 0 0 0-.95-.55 13 13 0 0 0 1.29-1.13c.43-1.75 1-3.47 1.37-5.24 1.39-6.39-.89-12-1.09-18.29a4.36 4.36 0 0 1 2.81-4.45 8.5 8.5 0 0 1 3.38-3.65v-.28l.23.15a12 12 0 0 1 6.8-1.44 4.64 4.64 0 0 1 3-.94c11.11.25 23.12 3.53 31.48 11 4.32 3.89 9.28 7.47 12.88 12.06 4 5.15 5.22 11.57 7.75 17.46 1.7 1.09 4.1 2.55 5.43 2.73-.13-3.47-.83-3.94-2.66-7.18a17.84 17.84 0 0 1-2.64-9c-9.37-13.74-29-32.19-37.46-28.31-1-.52-2.09-3-3.16-3.44 0-4.23-21.5-.56-24 1.57.5-1.49-.49-8.17-.38-9.69 18.38-20.31 60.72-1.35 71.38 28.69-6.83-19.24-7-29-32.47-41.74-7.18-3.59-32.86-7.73-37.47.24.24-2.3-.4-5.2-.06-7.5 1.09 2.82 3.52-2.17 7.54-4.93 4.46-3.07 12.25-2.31 17.75-3.69 23.33-4.69 47 13.9 52.71 36.62.62-11-1.41-20.47-11.81-26.8-16.49-16.09-41.37-26.09-61.92-11.17 0-1.41-2.12-2.79-2-4.19-8.2-8.64 11.42-13.38 18-13.47 23.9-7.17 53.65 8.61 56.65 30.61.48-.58 4.28 1.32 5 1 .09-2.21-1.5-3.47-.44-5.86-3.81-8.2-9.93-18.14-18.49-23.42-4.53-2.86-12.54-8.92-18-10.06-10-2.81-23.15-2.14-33.37 0-3.06 1.67-4 1.18-7.46 1.37.07-.88-1.9-1.76-1.91-2.65 1.7-.89 3.38-4.42 4.88-5.17 12-5.26 23.61-6.19 36.65-5.49 4.85.17 13.55 8.61 18.1 7.29 3.72 2.88 12.64 16.77 16 20 3.31 3.92 1.81-4.6 4 0l-2.48-9.82c-11.25-19.06-34.57-32.58-55.88-27.49-5.86.4-14.19 4.56-20.08 8.24v-.53c2.55.06-.23-3.69 1.86-4.94 4.63-3.89 10-6.88 15.09-10.17 4.45-2.86 15.26 1.07 19.73-1.74h.94c3.86 2.25 9.23 2.67 13.32 4.84 3 .34 5.21 3.05 8.05 1.7 7.54 3.46 11.84 9.51 17.67 14.56 2.94 1.86 1.75 7 5 6.62.76-3.06.46-6.34.33-9.52-6.24-15.42-9.1-18.45-25.72-31a28.5 28.5 0 0 1 8.82-2.9c2.28 1.22 2.77 4.57 5.06 5.37a73 73 0 0 1 8.15 13.07 5.4 5.4 0 0 1 1.07-4.17c-.54-3-5.88-6.5-3.83-9.37-1.44-2.84-2.69-2.88-4.65-5.17 2.3-.91 7.14-2.52 9.22-3.82 1.66-.06 3.33-.2 5-.36a4.51 4.51 0 0 1 3.52-1.38c4.66.09 11.64-2.27 16.93-1.85a.8.8 0 0 1-.19-.28c.81-1.53.06-1.3-1.46-1.77M200.53 203.86l.21-.73c.48-.53.84-.87-.21.73M284.08 175c-2.63-3.85-9.69-5-15.91-6.46-7-1.68-14.15-.82-21.22 0-1.29.25-2.4.75-3.82 1.17-7.48 2.16-16.63 2.65-23 8.16-2.94 0-14.73 14.18-18.37 21.47 2.62-11.18 2.77-19.61 11.84-28.68 1.11.68 6.57-3.34 7.27-4.83 3.75-1.25 7.59-4.05 11.46-4.78 6.64-5.22 17.21-4.64 25.15-4.75a1.7 1.7 0 0 0 .23.23c3.11.33 8.57 1.56 11.64 2.18 4.09 3 7.83 3.55 12.37 6.09 1.13.65 2.61 4.6 3.82 5.16a27.6 27.6 0 0 0-1.46 5.04m5.17-49.25a15.4 15.4 0 0 0-3.71-2.79 3.26 3.26 0 0 0-.93-2.35 2.34 2.34 0 0 0 2.66.11c-10-5.33-24.08-15.05-33.65-20.49a127 127 0 0 1 13.65-.47c8 4.17 10.44 7.89 16.74 14.63 0 .19 2.55 4.15 3.69 6a2.2 2.2 0 0 0 .36-.51 2.07 2.07 0 0 0 1.65.75c-.22 1.63-.38 3.37-.46 5.08Zm2.8-20.12s.07 0 .23.07c-.06 1.21-.12 2.41-.16 3.63-12.26-10.33-28.38-18.75-44.78-13.11-1.89-1.23-7.77-4.48-9.66-5.7 5-6 16-4.14 22.76-6.88C269.1 80.15 301 96.09 292 105.47a1 1 0 0 1 .05.12Zm18 28.18c0-.65.06-1.29.11-1.94a4 4 0 0 0 .61 1c-.22.29-.44.6-.68.9Zm25.49-19.7c-4.85 1.71-10 2.33-15 3.48 3.45-3.54 8.61-3.78 12.34-6.69a53 53 0 0 0 9.35-.32 32 32 0 0 1-6.65 3.49Zm9-12.44c-2.94.37-8.58-2.91-10.13.16a48 48 0 0 0-7.81 2.2c-3.53-1.54-6.74 2.84-10.1 3.77 2-11.41 21.93-10.46 31.43-12.14 5.65-.6 10.7 2 15.67 4.38-2.73 1-5.42 2.16-8.09 3.36-3.51-1.32-8.37-2.68-10.95-1.77Zm26.49 17.07c8.12 4.62 7.15 6.73 11.56 14.69-4.47-5.63-7.4-11.2-14.64-11.61a14.3 14.3 0 0 0-3.12-2.16c-1.53-3.84-7.84-3.47-11.33-4.67 2.57-1.16 5.14-2.34 7.78-3.36 3.47 2.04 6.51 4.72 9.77 7.07Z" class="cls-1"/><path d="M287.47 162.55c.23 0 .18 0 0 .15ZM285.65 162.87v.19c0 .07-.05-.06 0-.19M428.65 120.87c-5.27-.48-8.79-3.5-11.45-8.12 2.39-1.27 6-5.59 1.08-6.78-5.1.79-21.24 4.15-17.09 7.93 5.46 5 11.14 14.77 14.46 21-4.77 13.19-6.84 19.1-8.23 33.54-1.77 18.46-12.54 19.52-12.7 26.8 2.72 1.37 9-7.59 9.79-10 7.34-9.37 12.14-34.32 20.69-39.19 3-1.71 9.58-13.84 7.2-9.05 1.51-6.66-4.51 5-3.75-16.13m-11 17.33c.07-.66-.44-1.2-.2-1.84a1.41 1.41 0 0 1 .21 1.84Z" class="cls-1"/><path d="M178.19 264.15c2-2.49 9.45-5.89 11.46-8.28 4-6.28-4.74-6.83-14.08-6.38-3.39 1.93-7 2.36-10.85 2.37a5 5 0 0 1-3.53-1.5c-1.22 0-.18-.05-.8-.21-3.74-13.28-19-8.24-27.78-7.4a5.2 5.2 0 0 1-1.2 1.41 4.62 4.62 0 0 1-2.34 3.35c-3.49 2.07-6.17 5.23-9.55 7.47a4.33 4.33 0 0 1-4.25.35 3.9 3.9 0 0 1-1.63.95 102 102 0 0 0-8 9.07 4.2 4.2 0 0 0 0 1.35c-.5.8-3 5.66-2.07 7.17.34 1.66.21 2.51 1 4 .71 4.71 3.74 7.95 7 12-.16 1.59 2.49 3.43 3.48 5 2.12 3.32 5.64 3.67 9 5s6.34 3.55 9.73 4.92a48.4 48.4 0 0 0 12.21 3 3.92 3.92 0 0 0 3.86-1.44 62 62 0 0 0 9.78-.46 5 5 0 0 1 1.67-1.65c4.65-2.91 9-5.75 14.59-5.68 3.77-2.58 7.58-5.09 11.25-7.82a44 44 0 0 0 1.76-4.15c1.65-4.45 4.32-3.39 7.7-6.72v-5.13a4.94 4.94 0 0 1 2.35-4.22 4.67 4.67 0 0 1 1.63-2 5.6 5.6 0 0 1 .5-2.26c-3.08-4.77-17.96-1.53-22.89-2.11M430.38 83.22a1.37 1.37 0 0 0 1.08-.52 2 2 0 0 0 .33 0 1.34 1.34 0 0 0 1.36-1.3l.24.21c.66.61 1.32-.76 1.92-.09-2.57.85-5.3 1.05-7.89 1.79-1.73-1-5.41 1.43-7.06 2.1-3.78 1.53-.07 7.84 1.15 9.58-10.05 2.87-.85 13.13 2.35 9.51 1.22.68.29 3.6 1.14 4.71 0 .06-.05.12-.08.19-2.18.3.24 2.35 1.45 4.45 4.18.75 8.18 1 11.6 3.39.43.3 2.34.2 2.68.58 4.12.42 6.52 2.95 8 3 2.71.41 2.49 3 2.18 5.8-2.86-1.46-7.46 0-7.77 4.25-.16 2.19-.06 4.53-.8 6.6-.5 1.4-1.43 2.59-1.81 4.09-.65 2.52 1.1 5.21.85 7.86-2.88 2.3-1.13 7.37 3.52 8.57 2.4.62.81 1.24 3.21 1.86a4.86 4.86 0 0 0 3.14-.16 60 60 0 0 0 7.84 1.67 40 40 0 0 1 6-6.32 30 30 0 0 0 5.45-7.12c.56-4.45.71-9.24 1.19-10.63 1.17-2.87 2.16-5.81 3.3-8.69 1.36-3.15 7.49-11 5.62-13.92 1.12-4.43 5-8.65 4.7-13.21 1-3.45-1.3-6.29-2.43-9.39a20.3 20.3 0 0 0-10.14-14.47c-11.93-5.78-28.5-11.75-40.38-3.12a2 2 0 0 0-.18-.22c-.64-.66-1.84 1-2.49 1.6" class="cls-5"/><path d="M316.45 222.28a4.84 4.84 0 0 1 2.16-.47c8.25-.05 15.3 3.6 22.87 6.33a5 5 0 0 1 .45.19c2.2-1.48 2.76-4.74-.6-6.77-7.69-4.65-15.35-8.29-24.53-6.74-5.2.88-4.32 6.18-.35 7.46" style="fill:#c3e3f1"/><path d="m182 123.81 1.44 13.65a2.49 2.49 0 0 0 4.87.66c1.26-3.59.71-7.39.12-11.05l-4.79 1.32a32.76 32.76 0 0 1 0 17.38c-.85 3.08 3.93 4.4 4.78 1.32a38 38 0 0 0 0-20 2.48 2.48 0 1 0-4.79 1.32c.45 2.81.85 5.67-.11 8.41l4.87.66-1.39-13.67a2.55 2.55 0 0 0-2.48-2.48 2.5 2.5 0 0 0-2.48 2.48ZM176.52 98.22a17.1 17.1 0 0 0 9.55-2.34 2.48 2.48 0 0 0-1.25-4.62 21 21 0 0 0-4.11.6 32 32 0 0 1-3.46 1l.66-.09a4.8 4.8 0 0 1-1.07 0l.66.09h-.15a2.7 2.7 0 0 0-1.91.25 2.48 2.48 0 0 0 .59 4.53 7.5 7.5 0 0 0 2.76 0 11 11 0 0 0 1.73-.48 19.6 19.6 0 0 1 3.54-.84l-.66.08c.47-.06.95-.1 1.42-.12l-1.25-4.62a14.5 14.5 0 0 1-1.81.9l.6-.25a14.7 14.7 0 0 1-3.62 1l.66-.08a15.4 15.4 0 0 1-2.88.1 2.5 2.5 0 0 0-2.52 2.4 2.55 2.55 0 0 0 2.48 2.49Z" class="cls-1"/><path d="M175.05 117.39h-5.13c-.89 0-1.79 0-2.69-.07-.27 0-.87.07-1.07-.17-.41-.51 0-2.27.09-2.86.25-1.54.7-3 1.1-4.54a45.5 45.5 0 0 0 1.3-8.92c.16-2.78.31-5.65 1.66-8.15l-2.8 1.14 5.59 1.92c2.62.9 4.51-3.42 1.91-4.54-1.48-.63-3.18-1.7-4.82-1.67-2.16 0-3.09 1.93-3 3.85a54.6 54.6 0 0 0 1.49 10l4.15-2.41L170 98c-1.55-1.65-4.13-.29-4.24 1.76a24.1 24.1 0 0 0 3.57 13.88l2.14-3.74a3 3 0 0 1-2.47-1.2l-.89 3.39q-.65.1 0 .06c.23 0 .47 0 .7.06a6.8 6.8 0 0 0 1.69 0 4 4 0 0 0 2.61-1.61c1.25-1.76.51-3.57.65-5.52l-4.87.66 1 5.81a14 14 0 0 0 .26 1.45l.39-.85a1.7 1.7 0 0 1-.51.23 6 6 0 0 1-2.23.36c-3.19 0-3.19 5 0 5 2.66 0 6.55-.84 7.21-3.88.31-1.44-.25-3.14-.5-4.56l-.86-4.84a2.47 2.47 0 0 0-2.65-1.86 2.51 2.51 0 0 0-2.15 2.44 11 11 0 0 0 .11 2c0 .19 0 .67.05.8s0 .21 0 .08a.9.9 0 0 1 .39-.46c.05-.25.21 0-.21-.15a5.3 5.3 0 0 0-1-.09 5.2 5.2 0 0 0-2.53.62 2.49 2.49 0 0 0-.89 3.39 8.18 8.18 0 0 0 6.73 3.64 2.5 2.5 0 0 0 2.14-3.73 19.44 19.44 0 0 1-2.89-11.37l-4.23 1.75 2.83 3c1.75 1.88 4.7-.1 4.14-2.41-.38-1.62-.71-3.24-.94-4.89q-.15-1.08-.24-2.16a6.3 6.3 0 0 1-.09-2.19L171 94.36l.25-.17-1.25.33a9 9 0 0 1 2.47 1l1.95-4.52-5.59-1.91A2.52 2.52 0 0 0 166 90.2c-1.74 3.25-2.1 6.82-2.32 10.44a40 40 0 0 1-.47 5c-.34 1.84-.9 3.61-1.34 5.42-.79 3.21-1.76 8 1.51 10.25 1.56 1.06 3.49 1 5.3 1h6.35c3.19-.06 3.2-5 0-5ZM414.09 158.73a318 318 0 0 0-12.9 29.88c-1 2.73 3.58 4.71 4.75 2 2.11-4.9 4.36-9.68 6.76-14.44l-4.09-1.72a28 28 0 0 1-1.92 4.79c-.76 1.64-1.46 3.33-2.23 5a2.43 2.43 0 0 0 4.19 2.45 92 92 0 0 0 7.52-13.51 56.3 56.3 0 0 0 4.83-15.74 27.7 27.7 0 0 0-.14-7.76c-.35-2.44-1.06-5.05-.68-7.52a5.8 5.8 0 0 1 .41-1.48l-.26.24.63-.41a4.2 4.2 0 0 0 1.22-1.22c1.05-1.69.87-3.94 1-5.85.15-3.47.25-7 .3-10.42a12.5 12.5 0 0 0-1.2-5.72c-.15-.31-.31-.61-.46-.91.05.1-.49-1-.33-.64-.1-.24-.14-.5-.22-.75-.25-.78 0 .65-.05-.22a18 18 0 0 1 0-1.92s.13-1 .05-.53c-.05.33.16-.71.19-.84s.11-.42.17-.63.13-.41.2-.61c-.16.35-.15.35 0 0 .09-.17.18-.34.28-.51a5 5 0 0 1 .3-.47c-.28.35-.29.39-.05.11l-4.19.54c-.2-.13-.74-1-.51-.43a4 4 0 0 1 .24.47c-.15-.35-.18-.4-.09-.16.19.59.36 1.17.51 1.77a19.7 19.7 0 0 0 1.3 3.88 12.2 12.2 0 0 0 3 3.78 13.7 13.7 0 0 0 2.16 1.55 12 12 0 0 0 1.38.64c.16.07 1.72.71.71.23l-1.54-3.78 1.54-2c.15-.08.91-.37.33-.14a8 8 0 0 0-1 .42 3.7 3.7 0 0 0-1.65 1.84 3.7 3.7 0 0 0-.28 1.35 5 5 0 0 0 .12.95l-.06-.87c-.18 0-.49 1.36-.59 1.6a3.44 3.44 0 0 0 1.19 4.57c1.44.84 3.83.45 4.57-1.2a28 28 0 0 0 1.14-2.79 5.7 5.7 0 0 0 .36-1.6c0-.4-.08-2 0-.72l-.45 1.68.07-.1-1.2 1.2c.42-.31-.62.22-.26.06a6.7 6.7 0 0 0 1-.42 3.64 3.64 0 0 0 1.64-2.09 3.39 3.39 0 0 0-1.54-3.78 10 10 0 0 0-1.23-.48 2 2 0 0 1-.69-.31 5.4 5.4 0 0 1-1.38-.95 5.2 5.2 0 0 1-1.68-2.56c-.83-2.88-1-5.69-3.6-7.62a3.47 3.47 0 0 0-4.19.54c-3.79 3.71-4.07 10.53-1.84 15.06a5.6 5.6 0 0 1 .9 3.25c0 1.72-.09 3.44-.14 5.16s-.11 3.49-.13 5.24v2.49c0 .27 0 1.36.13.18-.06.46-.39 1.08-.5 1.59-.28 1.32-.87 2.57-1 4a16.9 16.9 0 0 0 .08 4.26c.37 2.82 1.2 5.6 1.24 8.46.08 5-1.64 10.09-3.5 14.71a86.8 86.8 0 0 1-8.15 15.35l4.19 2.45c.85-1.83 1.71-3.69 2.43-5.57a44 44 0 0 0 1.85-5.45c.57-2.37-2.93-4.1-4.09-1.73a261 261 0 0 1-7.38 14.08l4.48 2.62a319 319 0 0 0 12.4-30.09c.9-2.46-3.11-4.17-4.25-1.79Z" class="cls-1"/></g><g id="Layer_11" data-name="Layer 11"><path id="Path_114959" d="M129.07 222.81c-.19-1.41-2.16-11.55 1.25-9 .09 1.34 2.28 13.4-1.25 9" class="cls-7" data-name="Path 114959"/><path id="Path_114961" d="M267.72 322.79c-2-.86-.41-3.67-.59-5.3.31-5.58.18-11.13.38-16.71.74-2-2.16-34.68 2.12-26.89.12 10.79.33 21.6.06 32.4-.34 2.38.78 17.3-1.97 16.5" class="cls-7" data-name="Path 114961"/><path id="Path_114963" d="M129.42 332.24c-.22-2.06-2.32-9.81-.3-10.77 2.31-.46 1.28 5 1.87 6.5-.13 1.56 1.49 4.24-.2 5.17a1.14 1.14 0 0 1-1.37-.9" class="cls-7" data-name="Path 114963"/><path id="Path_114965" d="M279.91 64.58c-1.9-.51.91-6.94 1.06-8.56 2.07-8.41 5-16.58 7.33-24.89 1.41-1.61 2.05-19.44 4.78-13.71-1 14.76-7.79 28.38-10.93 42.74-.6 1.29-.25 4.74-2.24 4.42" class="cls-7" data-name="Path 114965"/><path id="Path_114966" d="M313.65 63.83c-1.4-1.26-16.56-14.48-11-14.83 3.35 3.27 6.17 7.6 9.82 10.67 1 1.15 3.54 2 2.73 3.85a1 1 0 0 1-1.55.31" class="cls-7" data-name="Path 114966"/><path id="Path_114967" d="M314.34 54.81c-3.76-.27-7-2.28-10.62-3.2-1.28.2-2.24-.69-1.66-2 1.87-1.86 6.47 1.43 8.77 1.81 4.11 1.42 8.44.65 12.65.31-1.34-1.86-12.16-17-9.94-17.48 3.12 0 8.06 12 10.67 14.84 8.99 6.57-5.69 5.58-9.87 5.72" class="cls-7" data-name="Path 114967"/><path d="M388.14 65a4.54 4.54 0 0 1 2.23-1c-2.35-2.59-4.49-5.37-6.84-8-8.11-11-34.45-15.21-47.75-20.77-9.35-2.69-18.72-5.46-27.52-9.64-3.16-.26-.74 4.28 1.32 3.34 21.22 8.8 43.88 13.75 65.14 22.53 5.75 2.93 9.05 8.9 13.42 13.54" class="cls-7"/><path d="M373.76 63.31a5 5 0 0 1 .54 0c-.2-2.48-.4-5.93-1.4-6.4-2.2-.56-1.28 3.75-.76 6.61a5.4 5.4 0 0 1 1.62-.21" class="cls-7"/><path id="Path_115057" d="M181.81 83.07c-1.26-.25-1.2-2.5.16-2.46s2.84-.74 2.82 1.3c-.2 1.34-1.94 1.35-2.98 1.16" class="cls-7" data-name="Path 115057"/><path id="Path_115108" d="M249 62.15C238.37 48 225.61 35 218.3 18.68c-.62-2.27-4.68-7-2.65-8.84 1.58-1.48 5 9 6.06 10.4 3.71 7.89 9.35 14.65 14.6 21.54 4.21 4.94 7.9 10.28 11.93 15.36.91 1.48 3.62 3 2.52 4.93a1.15 1.15 0 0 1-1.76.08" class="cls-7" data-name="Path 115108"/><path id="Path_115109" d="M219.11 64.17c-3.19-1.28 1.6-7.58 1.91-10-4.78 3-10.6 2.57-15.85 4C193.28 63 193.38 48 192.06 40.3a1.11 1.11 0 1 1 2.17-.46c2.29 8.85-.2 20.2 13 14.75 3.49-.49 7-.8 10.32-2 5.14-2.86 8.76-4.27 5.42 3.29-.77 1.4-2.56 8.41-3.86 8.29" class="cls-7" data-name="Path 115109"/></g><g id="Layer_9" data-name="Layer 9"><path d="M160.48 248.38c-1.25-3.91-3.61-7-7.52-8.52-3.75-1.42-8-1-11.79 0-9.47 2.49-18 8.34-25.46 14.54a54.3 54.3 0 0 0-8.57 8.64 57 57 0 0 0-4.67 6.67 28.67 28.67 0 0 0-2.91 20.47c.83 3.65 2.53 7.05 3.7 10.6 1.26 3.8 2.34 7.66 3.65 11.44.64 1.81 1.32 3.61 2.09 5.36a19.4 19.4 0 0 0 2.76 5.13c4 4.49 11.15 4 16.1 1.5a21.35 21.35 0 0 0 6.9-6.31 22.7 22.7 0 0 0 3.79-7.62 22 22 0 0 0 .82-4.77c.07-1.26-1.79-1.43-2.15-.29-.82 2.66-1.24 5.44-2.5 7.95a24.4 24.4 0 0 1-5.22 6.83c-3.68 3.4-10.32 5.1-14.7 2a9.4 9.4 0 0 1-2.79-4c-.8-1.66-1.5-3.36-2.13-5.09-1.26-3.42-2.28-6.91-3.37-10.39-2.07-6.6-5.39-12.78-5.15-19.87a25.8 25.8 0 0 1 2.16-9.43 29 29 0 0 1 2.4-4.36c.79-1.17 1.75-2.22 2.54-3.4a41.3 41.3 0 0 1 7-7.52 72.7 72.7 0 0 1 22.74-14.13c6.21-2.31 14.62-3.92 18.94 2.53a12.6 12.6 0 0 1 1.28 2.54c.5 1.28 2.54.78 2.11-.59ZM461.59 157.81a45.7 45.7 0 0 0 10.53-13.22c1.87-3.75 2.46-8 3.67-12a40.3 40.3 0 0 1 2.65-6.7 40 40 0 0 0 1.69-4.11c.62-1.59 1.28-3.18 1.78-4.81 2-6.32 3.75-13 3.51-19.63a30.1 30.1 0 0 0-1.79-9.25 20.1 20.1 0 0 0-5.05-7.49c-4.24-4.13-9.78-6.71-14.48-10.25-2.53-1.91-5.17-3.15-8.42-2.88a44 44 0 0 0-5.06 1.1c-3.26.67-6.57 1.08-9.84 1.74-3.53.71-7.61 1.52-10.47 3.85s-2.21 5.88.24 8.33c1.36 1.37 3.22-.63 2.07-2.07a7.4 7.4 0 0 1-1.06-1.69 1.86 1.86 0 0 1-.15-1c0 .38.08-.21.12-.32-.16.4.28-.41.17-.27a4.8 4.8 0 0 1 1-.89c2.44-1.57 5.48-2.2 8.32-2.79 3.14-.65 6.32-1.1 9.46-1.74a29 29 0 0 0 3.05-.8 9.27 9.27 0 0 1 8.31 1c4.53 3.09 9.4 5.64 13.66 9.13 2.15 1.77 4.42 3.69 5.71 6.21a21.46 21.46 0 0 1 2.25 9.27c.17 6.13-1.58 12.41-3.91 18-1.21 2.89-2.24 5.85-3.44 8.75-.88 2.12-2 4.11-2.74 6.31-1.4 4.11-2.07 8.47-3.25 12.66a24.8 24.8 0 0 1-2.74 6.6 45.2 45.2 0 0 1-6.69 8.05c-.57.57.29 1.42.89.88Z" class="cls-7"/><path d="M473.94 90.11c-5-2.49-9.39-6.7-15-7.78-3.67-.69-7.35-1.36-11.06-1.79a38.7 38.7 0 0 0-7.14-.13A77 77 0 0 0 426 82.52c-3.45.89-9.53 2.59-9.74 7-.23 5.18 8.39 7.44 12.21 6a1.18 1.18 0 0 0-.31-2.3c-2.25-.16-4.37 0-6.5-.92-1.07-.45-3-1.48-2.58-2.93s2.34-2.32 3.65-2.87a34 34 0 0 1 5.92-1.75 81.6 81.6 0 0 1 12.65-1.58c5.46-.3 10.8.71 16.15 1.74a16.8 16.8 0 0 1 4.29 1.26 30 30 0 0 1 3.13 1.83 78 78 0 0 0 7.62 4.62c1.65.82 3.1-1.66 1.45-2.48Z" class="cls-7"/><path d="M420.75 89a4.9 4.9 0 0 0 2.48 2 6.4 6.4 0 0 0 1.44.24h.73a4.3 4.3 0 0 0 1-.17.77.77 0 0 0 0-1.47 5.3 5.3 0 0 0-.88-.18h-1.14.05a3.5 3.5 0 0 1-.56-.13l-.27-.09c-.15-.05.15.08.05 0h-.11c-.17-.09-.32-.23-.49-.31.07 0 .15.13 0 0l-.11-.09-.25-.25c-.05-.07-.17-.16-.2-.24v.06l-.06-.08-.12-.17a.93.93 0 0 0-1.6.93ZM416.78 98.21a58 58 0 0 0 5.93-1.52 55 55 0 0 1 6.35-1.19 48.7 48.7 0 0 1 12.7-.25 84 84 0 0 1 12.38 2.39c1.63.49 3.21 1.2 4.88 1.56 1.34.29 2.7.49 4.05.76 2.74.55 6.22 1.44 6.64 4.72.2 1.51 2.61 1.53 2.41 0-.43-3.22-2.47-5.2-5.46-6.26s-6-1-8.78-2a59.5 59.5 0 0 0-27.13-2.91 62 62 0 0 0-7.29 1.25c-2.4.57-5 1.15-7.07 2.55a.51.51 0 0 0 .39.93ZM416.13 100.24c.88 5.24 5.9 6.63 10.51 7.06 6.61.62 13.26.13 19.82 1.3a28.3 28.3 0 0 1 11.54 4.55c1.31.93 2.55-1.23 1.25-2.15-5.79-4.11-12.86-5.36-19.82-5.64-3.2-.12-6.4 0-9.59-.07a26.8 26.8 0 0 1-7.63-.89 5.75 5.75 0 0 1-4.22-4.65c-.23-1.2-2-.68-1.81.49Z" class="cls-7"/><path d="M423.62 107.9a9.65 9.65 0 0 0 3.8 7 19 19 0 0 0 7.41 2.91c2.84.62 5.72 1 8.54 1.7 2.44.61 5 1.47 6.69 3.44 1 1.16 1.73 2.49 2.66 3.7 1 1.39 2.93 3 4.71 3.09a1.07 1.07 0 0 0 .92-1.61c-.88-1.27-2.52-1.72-3.5-2.95-.84-1-1.49-2.24-2.32-3.29a12.9 12.9 0 0 0-6.16-4.22c-5.08-1.78-10.81-1.54-15.7-3.86a7.25 7.25 0 0 1-4.44-5.95c-.18-1.65-2.78-1.67-2.61 0Z" class="cls-7"/><path d="M447.65 120.88a22.8 22.8 0 0 0-.41 4.73 16.6 16.6 0 0 0 1 4.78c1.16 3 3.87 6.12 7.39 5.7a1.14 1.14 0 0 0 .3-2.22 8.7 8.7 0 0 1-3.45-1.56 7.8 7.8 0 0 1-2-3 17 17 0 0 1-.93-4 27 27 0 0 1-.34-4.19c0-.89-1.45-1.13-1.58-.22ZM430.43 81.07a6.2 6.2 0 0 0 3.44-.61 4.6 4.6 0 0 0 1.4-1 5 5 0 0 0 .6-.76 2.15 2.15 0 0 0 .22-1.06.74.74 0 0 0-.37-.66.78.78 0 0 0-.77 0s-.2.09-.08 0-.05 0-.06 0a1.7 1.7 0 0 0-.53.26 2.2 2.2 0 0 0-.34.27c.16-.18.11-.08 0 0l-.14.1a9 9 0 0 1-1.19.7l-.13.06h.06l-.31.11a5 5 0 0 1-.67.16h.07a.6.6 0 0 0-.18 0h-.33a6 6 0 0 1-.72 0 1.2 1.2 0 0 0-1.21 1.21 1.2 1.2 0 0 0 .35.86 1.5 1.5 0 0 0 .86.36ZM103 271.3c-1.18 5.32 1.47 10.22 4.21 14.58 2.31 3.68 4.65 7.71 8.1 10.43 6.45 5.07 14.58 8.13 22.3 10.68a17 17 0 0 0 4 1.16 40 40 0 0 0 4.23-.16 71.5 71.5 0 0 0 20.68-4.46 62.8 62.8 0 0 0 14-7.29c4.77-3.35 10-7.59 12.41-13a1 1 0 0 0-1.43-1.24c-3.87 3.36-7.08 7.33-11.22 10.41a60.8 60.8 0 0 1-12 6.88 76.6 76.6 0 0 1-20.45 5.37 51 51 0 0 1-5.49.42h-.82c.39 0 .48.11.1 0s-.69-.2-1-.31a90 90 0 0 1-19.91-8.32 28.5 28.5 0 0 1-5.19-3.8 34.7 34.7 0 0 1-3.95-5.07 61 61 0 0 1-5-7.83c-1.22-2.41-2.7-5.33-2.3-8.1.11-.81-1.08-1.2-1.27-.35" class="cls-7"/><path d="M148.12 295.56c7.57-.12 15.63.36 22.89-2.21 4.31-1.52 8.19-4 12.15-6.22a49 49 0 0 1 6.46-3.2 15.2 15.2 0 0 0 4.56-2.55 8.93 8.93 0 0 0 3.13-4.27c.46-1.73-.27-3.58-2.16-3.79-.89-.1-1.2.95-.92 1.58a4.1 4.1 0 0 1 .56 1.18 2.8 2.8 0 0 1-.67 1.54 11 11 0 0 1-3.2 2.87c-1.55.95-3.4 1.44-5 2.24-1.83.9-3.59 1.91-5.35 2.94-3.47 2-7 4.24-10.81 5.52a45.6 45.6 0 0 1-10.49 1.88c-3.7.31-7.41.43-11.1.73-1.11.1-1.15 1.78 0 1.76ZM132.38 283.1a3.4 3.4 0 0 0 .22.52l.09.18s.13.21.11.16v-.33c-.12.69.53 1.42 1 1.81a4.5 4.5 0 0 0 1.66.79c1.24.26 3 .17 3.81-.92a1 1 0 0 0 .16-1.2 1 1 0 0 0-1.12-.46 4 4 0 0 0-.51.2c-.22.1.23-.08 0 0h-.13c-.23.07-.46.15-.7.2h-.16c-.2 0 .19 0 0 0h-.87c-.25 0 .25.05 0 0s-.46-.07-.69-.13l-.33-.11h-.15000000000000002a4 4 0 0 0-.48-.21c.22.08 0 0 0 0l-.16-.08a1.9 1.9 0 0 0-.81-.34l.31.08c.06 0 0-.07 0 0s-.09-.12-.12-.17a3 3 0 0 1-.21-.37c-.26-.55-1.19-.16-1 .42Z" class="cls-7"/><path d="M144 284.69c9.11-.18 18.29-.49 27.26-2.25a77.3 77.3 0 0 0 24.57-9.24c3.1-1.85 6.76-5.56 4.9-9.47-.48-1-2.09-.49-2.07.56 0 1.68 0 3-1.11 4.33a12.3 12.3 0 0 1-3.85 2.9 93 93 0 0 1-10.88 5.1 99 99 0 0 1-24.33 5.13c-4.82.48-9.65.82-14.49 1.1-1.18.06-1.2 1.87 0 1.84M139 268.55a60.8 60.8 0 0 0 21.78 0 90.6 90.6 0 0 0 21.3-6.74q2.8-1.26 5.51-2.72c1.47-.79 4-1.67 4.57-3.37a.93.93 0 0 0-.65-1.15c-1.6-.24-3 1-4.36 1.77q-2.33 1.27-4.71 2.42a89 89 0 0 1-10.12 4.12 84.3 84.3 0 0 1-21.19 4.35 66.3 66.3 0 0 1-11.95-.05c-.77-.08-1 1.22-.18 1.36Z" class="cls-7"/><path d="M139.28 250.19c3.05-.73 6.38 1.55 8.95 2.88a29 29 0 0 0 4.37 2 11 11 0 0 0 5.39.06c1.88-.29 3.73-.76 5.6-1.08a30 30 0 0 1 6-.12c3.78.08 7.32-2.19 10.93-3a8.67 8.67 0 0 1 5.85.51c1.18.57 3.73 2 3.48 3.62s2.33 2.43 2.59.72c.58-3.74-3.25-6.34-6.39-7.36-4.11-1.34-8.13.49-12 1.81a24 24 0 0 1-3 .84 14.7 14.7 0 0 1-3.51 0 25.6 25.6 0 0 0-6.23.68c-2.13.44-4.57 1.38-6.76 1.28a13.7 13.7 0 0 1-4.74-1.67c-3.33-1.58-7.28-4.06-11.11-3a1 1 0 0 0 .52 1.9ZM148.67 268.24c13.34 5.26 26.66-3.74 40-4.6a17.63 17.63 0 0 1 9.85 1.85 1.29 1.29 0 0 0 1.31-2.23c-5.72-3.29-12.53-2.45-18.68-1-7 1.61-13.81 4.11-21 5.1-3.61.51-7.62.66-11.11-.49-.91-.3-1.24 1.07-.39 1.41ZM301.93 72.39c-9 5.35-11 16.43-7.08 25.63l.47-1.78a12.11 12.11 0 0 0-3.41 15.18l.21-1.69a17.22 17.22 0 0 0-1.69 19.47l.23-1.77c-6.31 7.14-2.83 16.71-2.18 25.1a10.8 10.8 0 0 1 .07 2.7 9.7 9.7 0 0 1-.81 1.48c-.31.61-.59 1.23-.85 1.86a30.8 30.8 0 0 0-2 7 83 83 0 0 0-.61 14.68c.08 4.95.16 10-.84 14.85a29.7 29.7 0 0 0-1.09 5.68c0 1.87.22 3.75.21 5.62a14.06 14.06 0 0 1-1.41 6.51c-1.05 2-2.72 3.62-3.66 5.75-1.73 3.94-2 8.41-1.77 12.67.06 1.13.15 2.26.28 3.38.08.69 0 .71-.44 1.29s-.74 1-1.1 1.5a23 23 0 0 0-2.89 5c-1.52 3.88-.42 8.09.62 11.94l.12-1c-3.73 5.52-6.87 12-3.37 18.46.77 1.43 2.95.16 2.17-1.27a10.5 10.5 0 0 1-.56-8.64 21 21 0 0 1 1.65-3.62c.68-1.22 1.73-2.39 2.29-3.66.46-1.06-.31-2.6-.56-3.69a24 24 0 0 1-.53-3.12 10 10 0 0 1 .58-4.64 22.7 22.7 0 0 1 2.89-4.79c.57-.8 1.73-1.84 1.79-2.84a31 31 0 0 0-.33-3.46c-.29-4.54-.14-9.68 2.28-13.69.59-1 1.37-1.8 2-2.74a14.8 14.8 0 0 0 1.84-3.64 19.7 19.7 0 0 0 .9-7.08 30 30 0 0 1-.07-5.45c.17-1.12.62-2.21.87-3.32.3-1.34.52-2.69.69-4.05 1.3-10.48-1.37-21.58 2.43-31.71.55-1.45 1.43-2.71 2-4.12.48-1.12.22-2.67.13-3.86-.22-2.71-.71-5.39-1.11-8.08-.74-5-1.29-10.83 2.33-15a1.51 1.51 0 0 0 .22-1.76 14.38 14.38 0 0 1 1.16-16 1.47 1.47 0 0 0 .21-1.69 9.39 9.39 0 0 1 2.59-11.72 1.33 1.33 0 0 0 .21-1.58c-3.42-7.91-1.61-17.56 6.07-22.17a1.24 1.24 0 0 0-1.25-2.15ZM311.28 73.33c1.7 1.54 3.26 3.48 2.67 5.9-.52 2.12-1.91 4-3 5.83-.65 1.16-1 1.83-.67 3.15a21 21 0 0 1 .63 3c.24 2.2-.23 4.09-2.25 5.23a1.4 1.4 0 0 0 0 2.41c3.34 1.6 3.5 7.69-.2 9-1.24.45-1.51 2.46 0 2.79 4.14.91 2.29 6 .41 8.34a8.6 8.6 0 0 0-2.05 2.95 5.62 5.62 0 0 0 .35 3.87 25 25 0 0 1 1.75 3.68 5.45 5.45 0 0 1-.1 3c-.6 1.94-2 3.56-3.06 5.26a16.4 16.4 0 0 0-1.31 2.62 4.9 4.9 0 0 0-.47 1.77 7.5 7.5 0 0 0 .87 2.34 15.8 15.8 0 0 1 1.28 4 9.66 9.66 0 0 1-.72 4.41 41.3 41.3 0 0 0-1.59 10.77 47 47 0 0 0 0 4.76q.08 1.43.24 2.85a2.86 2.86 0 0 0 1.17 2.15c1.88 1.71 2.12 3.87 1.56 6.24s-1.65 4.8-2.21 7.27c-.29 1.3-.33 2.61-.51 3.93-.23 1.76-.4 3.54-.51 5.32-.43 6.58-.22 13.21-1 19.77a36.4 36.4 0 0 1-2.16 9.62 12.3 12.3 0 0 0-1.24 5c0 3.88 1.79 7.53 2.37 11.33.87 5.71-1.27 10.93-4.5 15.56a1.56 1.56 0 0 0 .24 1.88 5.87 5.87 0 0 1-.34 8.43c-1.47 1.3.69 3.43 2.16 2.15a9 9 0 0 0 .38-12.77l.24 1.88c3.5-5 5.77-10.75 5-16.91a47 47 0 0 0-1.39-6.4 19.4 19.4 0 0 1-1-5.25c0-2.21 1.3-4.29 1.91-6.45a58.4 58.4 0 0 0 1.82-11.6c.28-3.9.32-7.81.45-11.72s.61-7.55.88-11.34c.24-3.27 2-6.26 2.6-9.45a9 9 0 0 0-3.17-9.29l.48 1.15a49.9 49.9 0 0 1 .74-16.62c.55-2.45 1.44-4.54 1.07-7.11a27.6 27.6 0 0 0-2.34-6.67l.15 1.2c.56-2.48 2.26-4.4 3.51-6.55a9.5 9.5 0 0 0 1.21-7.67 10.7 10.7 0 0 0-1-2.23 7.6 7.6 0 0 1-1.16-2.33c-.26-1.47 1.08-2.34 1.87-3.4a11.8 11.8 0 0 0 2.37-6.73 5.68 5.68 0 0 0-4.65-5.81v2.79c5.78-2.14 6.67-11.54.84-14.24v2.41c4.58-2.67 3.81-7.73 2.55-12.1l-.14 1c1.29-2.66 3.27-5.24 3.8-8.2.6-3.37-1.32-5.82-3.88-7.75-.87-.65-1.95.78-1.16 1.49Z" class="cls-7"/><path d="M277 255.11c3.81.13 7.6-.13 11.36.66a16.9 16.9 0 0 1 5.14 2 13.5 13.5 0 0 1 2.23 1.6 21 21 0 0 0 2.14 2 .91.91 0 0 0 1.32-1c-.65-1.84-2.6-3.25-4.25-4.17a19.6 19.6 0 0 0-5.81-2 34.8 34.8 0 0 0-12.29-.13c-.67.12-.48 1.13.16 1.15ZM285.44 235.58a13.22 13.22 0 0 1 8.56.16 13 13 0 0 1 3.68 2 11.3 11.3 0 0 1 1.64 1.53c.58.63 1 1.19 1.89 1.25a.94.94 0 0 0 .89-.68c.44-1.64-1.74-3.21-2.89-4.09a15.5 15.5 0 0 0-4.44-2.35 14.64 14.64 0 0 0-9.88.2c-1.22.48-.74 2.44.55 2ZM289.43 218.41a9.35 9.35 0 0 1 10.33 2.06 10.3 10.3 0 0 1 1.93 3.17c.53 1.21 2.34.33 2.06-.87-.72-3-3.58-5.33-6.36-6.4a9.8 9.8 0 0 0-8.77.65.8.8 0 0 0 .81 1.39M296.46 170.71a8.6 8.6 0 0 1 4.6.5 8.8 8.8 0 0 1 2 1.12 16.5 16.5 0 0 1 1.71 1.64 1.11 1.11 0 0 0 1.73-1.34 9.65 9.65 0 0 0-4.8-3.5 10.7 10.7 0 0 0-5.8-.42 1.05 1.05 0 0 0-.73 1.28 1.06 1.06 0 0 0 1.28.72ZM296.19 144.45a4.53 4.53 0 0 1 2.16-.86 5.3 5.3 0 0 1 1.13-.11 5 5 0 0 1 1.18.13 5.4 5.4 0 0 1 2.23 1s.21.16.09.06l.27.23c.16.15.31.3.46.46l.19.23c-.13-.16.09.14.09.14a5 5 0 0 0 .61.64 1.05 1.05 0 0 0 1.74-1 4.67 4.67 0 0 0-2.22-2.74 7.6 7.6 0 0 0-3-1.17 8 8 0 0 0-3.37.09 7.15 7.15 0 0 0-2.87 1.66.91.91 0 1 0 1.28 1.29ZM292.65 130.42a2 2 0 0 1 .12-.32v-.1c.09-.19.19-.37.29-.55l.3-.49.2-.28.07-.09a10 10 0 0 1 .82-.87l.48-.41c.09-.08-.08.05.08-.06l.28-.2a8 8 0 0 1 1-.59l.26-.12c-.21.09.13 0 .14 0l.54-.19c.4-.12.81-.2 1.22-.28h.56l.64-.17a1 1 0 0 0 0-2 4.3 4.3 0 0 0-1.52-.13 6.7 6.7 0 0 0-1.54.32 9.66 9.66 0 0 0-6.19 6 1.14 1.14 0 0 0 .79 1.39 1.16 1.16 0 0 0 1.39-.79ZM293.06 114.48a9.86 9.86 0 0 1 4.14-2.89 9.4 9.4 0 0 1 2.38-.57h1.38a10 10 0 0 0 1.44-.21.84.84 0 0 0 .2-1.53 4 4 0 0 0-1.41-.53 6.8 6.8 0 0 0-1.68 0 12.2 12.2 0 0 0-3 .75 10.64 10.64 0 0 0-4.81 3.91c-.57.83.75 1.87 1.4 1.08ZM295.18 98.57a13.24 13.24 0 0 1 5.39-2.91 14 14 0 0 1 3-.49 9.9 9.9 0 0 0 3.22-.25c.48-.18.82-.88.33-1.28a3 3 0 0 0-1.76-.78 14 14 0 0 0-1.7 0 14.7 14.7 0 0 0-3.66.62 15.3 15.3 0 0 0-6.2 3.69c-.94.92.46 2.29 1.42 1.43ZM296.87 84.64a9.4 9.4 0 0 1 4.27-3.53 8.9 8.9 0 0 1 2.45-.63 12 12 0 0 1 1.45 0c.24 0 .47 0 .71.06a4.5 4.5 0 0 0 .79-.06 1 1 0 0 0 .51-1.91 5.37 5.37 0 0 0-3.53-.57 11.2 11.2 0 0 0-3.52 1 9.35 9.35 0 0 0-4.62 5c-.36.88 1 1.4 1.5.63ZM162.36 251.37a450.7 450.7 0 0 1-3.45-71.77q.51-19 2.36-38c1.22-12.69 3.08-25.28 5.26-37.84 1.2-6.89 2.42-13.77 3.82-20.62s3.22-13.6 4.55-20.44a1.69 1.69 0 0 0-3.25-.9c-1.84 6-3 12.17-4.32 18.27s-2.46 12.24-3.53 18.4c-2.18 12.6-3.56 25.32-4.86 38a535 535 0 0 0-2.55 75.71A382 382 0 0 0 160 251.7c.2 1.34 2.57 1 2.39-.33Z" class="cls-7"/><path d="M173.56 63.11a1.86 1.86 0 0 0 0-3.72 1.86 1.86 0 0 0 0 3.72" class="cls-7"/><path d="M174.84 60.89c15.38 4.87 31.86 6.47 47.91 7.37 17.38 1 34.8.65 52.19 0 17.88-.66 35.73-1.75 53.61-2.33 17.65-.58 35.32-1 53-.14 16.64.81 33.31 2.68 49.52 6.66 1.89.47 3.78 1 5.66 1.49a1.7 1.7 0 0 0 .9-3.28c-16-4.43-32.48-6.63-49-7.66-17.52-1.09-35.11-.89-52.65-.28-17.89.62-35.76 1.75-53.64 2.51-17.51.75-35.05 1.23-52.57.66a281.4 281.4 0 0 1-48.84-5.58c-1.86-.39-3.74-.71-5.6-1.1a.87.87 0 0 0-.46 1.67ZM193.21 274.3c5 .75 9.87 1.42 14.87 1.84 4.09.34 8.2.61 12.31.77a196 196 0 0 0 20-.3c13.72-.89 27.36-2.7 41.08-3.57q7.32-.46 14.67-.72c4.65-.17 9.34-.43 14-.29a147 147 0 0 1 16.32 1.78c15 2.13 30.15 4.37 45.37 4.31 14.19-.05 29.7-2 41.17-11.12a30.5 30.5 0 0 0 3.52-3.3c1.61-1.77-1-4.37-2.63-2.63-9.79 10.21-24.31 12.93-37.89 13.39-15.2.56-30.33-1.53-45.36-3.53-5.87-.78-11.74-1.62-17.65-2-3.23-.22-6.43-.15-9.66-.07q-7.89.19-15.76.59c-14.34.75-28.56 2.51-42.85 3.73a259 259 0 0 1-43.6-.29c-2.54-.21-5.11-.23-7.66-.4-1-.07-1.3 1.68-.25 1.84Z" class="cls-7"/><path d="M439.7 120.18c-2.81 18.1-8.56 35.39-14.4 52.69-5.7 16.91-10.78 34.12-12.1 52a157 157 0 0 0-.28 17.6q.19 4.76.64 9.49c.15 1.62.33 3.24.52 4.86a17.5 17.5 0 0 0 1.33 5c.38.88 1.5.29 1.59-.43.37-3-.17-6-.45-9q-.41-4.24-.6-8.49c-.24-5.23-.23-10.48.05-15.71a157.5 157.5 0 0 1 3.92-27.51c3.91-16.66 10.24-32.59 15.16-48.95a205 205 0 0 0 6.92-30.92c.21-1.48-2.05-2.15-2.29-.63ZM191.79 23.7a143 143 0 0 1-18 13.81 104 104 0 0 1-16.17 8.14c-8.88 3.55-18.18 5.77-27.16 9-7.28 2.62-14.14 6.45-18.23 13.27-2.66 4.42-4.05 9.52-5.91 14.3-2.69 6.78-5.5 13.48-8.32 20.19-11.17 26.77-22.89 53.44-30.4 81.59a227.5 227.5 0 0 0-7.4 42.23 176 176 0 0 0-.27 21.66 42.5 42.5 0 0 0 4.9 17.44c5.4 10.58 13.78 19.26 21 28.55A108 108 0 0 1 95.7 309c2.8 5.18 7.45 9.53 12.27 12.81a28.2 28.2 0 0 0 7.18 3.64c1.71.55 2.44-2.14.74-2.69-5.58-1.79-10.56-5.95-14.38-10.3a35.8 35.8 0 0 1-4.5-6.86 75 75 0 0 0-4.58-7.38c-6.74-9.7-15.16-18.14-21.65-28a52.2 52.2 0 0 1-7.26-15.66 45.6 45.6 0 0 1-1.05-9.82c-.11-3.53-.11-7.07 0-10.6A209.4 209.4 0 0 1 68.29 192c6.59-27.71 17.48-54.21 28.3-80.47 2.75-6.66 5.5-13.31 8.18-20 2.39-5.94 4.57-12 7-17.91 3-7.31 8.92-11.82 16-14.8 8.24-3.47 17.08-5.34 25.45-8.47a107.4 107.4 0 0 0 31.29-18 80.5 80.5 0 0 0 8.17-7.82.6.6 0 0 0-.85-.85Z" class="cls-7"/><path d="M136.49 112c-.76-5.06-1.84-11.31-6.05-14.82-2.37-2-5.26-1.47-6.59 1.38-2.06 4.42-.9 10.29.31 14.76 1.14 4.17 2.65 8.26 4 12.37 1.44 4.4 3 8.78 4.45 13.17l2.48 7.29c.7 2.08 1.3 4.23 2.13 6.27 1.11 2.7 3.95 6.34 7.21 4.31a.83.83 0 0 0-.41-1.53c-2.85-.3-4.07-2.51-4.89-5-1.22-3.78-2.59-7.52-3.89-11.27q-3.9-11.27-7.89-22.51c-1.67-4.66-3.55-10.22-2.47-15.25.43-2 1.66-4.35 3.87-3a10.7 10.7 0 0 1 3.42 4.43 49 49 0 0 1 3.53 9.59c.14.52.87.29.79-.22Z" class="cls-7"/><path d="M135 87.15a206 206 0 0 1 6 29.72c1.32 9.86 2.37 19.75 3.08 29.67 1.42 20 1.74 40 2.74 60q.41 8.38 1 16.76c.44 5.68.83 11.43 2.29 17a.64.64 0 0 0 1.24-.17 146 146 0 0 0-.83-15.35q-.58-7.42-1-14.85c-.55-10.11-.88-20.22-1.26-30.33-.73-19.91-1.45-40-4.7-59.66A272 272 0 0 0 135.8 87a.44.44 0 0 0-.85.23ZM370.61 276.32l-.7 20.8c-.24 6.94-.53 13.85-.16 20.79a1 1 0 0 0 1.93 0c.75-6.92.85-13.84 1-20.79l.46-20.8a1.27 1.27 0 0 0-2.54 0ZM210.4 242.22c13.36-14.53 31.06-26.74 51.58-26.41a45.6 45.6 0 0 1 16.5 3.42c1.63.67 2.36-2 .73-2.65a47.32 47.32 0 0 0-30.12-1.53A76.8 76.8 0 0 0 222 229.24a75.6 75.6 0 0 0-12.32 12.26c-.4.5.27 1.22.73.72ZM200.35 230.86c7.27-11 15.37-21.44 26.5-28.82 10.24-6.79 21.87-10.86 34.24-10.36a58.4 58.4 0 0 1 22.15 5.64c1.5.69 2.81-1.53 1.3-2.23-12.38-5.73-26.05-7.7-39.33-4.06-12.54 3.44-23.11 11.3-31.81 20.76a94 94 0 0 0-13.65 18.72.35.35 0 0 0 .6.35" class="cls-7"/><path d="M200.21 207.56a54.5 54.5 0 0 1 9.19-18.28 51.3 51.3 0 0 1 14.77-12.53c11.53-6.59 25.64-8.85 38.77-7.68a65.3 65.3 0 0 1 21.68 5.74c1.49.7 2.8-1.53 1.3-2.22a70.5 70.5 0 0 0-41.1-5.2 66.9 66.9 0 0 0-19.44 6.77 54 54 0 0 0-15.84 12.38 44.26 44.26 0 0 0-10.26 20.76.48.48 0 0 0 .93.26" class="cls-7"/><path d="M200.46 188.46c2.08-7.59 4.84-14.91 9.69-21.21a44.4 44.4 0 0 1 15.69-12.53c12-5.94 26.24-6.81 39.3-4.7a89 89 0 0 1 21.1 6.35c1.31.57 2.49-1.31 1.15-2a75.1 75.1 0 0 0-19.39-6.21 79.9 79.9 0 0 0-21.16-1.27 60.9 60.9 0 0 0-20.12 5 45.7 45.7 0 0 0-16.36 12.44 47.77 47.77 0 0 0-10.54 24.08c0 .37.54.43.64.09Z" class="cls-7"/><path d="M201.4 159.52c9-12.84 21.29-24.46 36.68-28.84 11.31-3.21 23.42-2.05 34.25 2.35a71 71 0 0 1 8.05 3.92q1.92 1.08 3.75 2.28a24.3 24.3 0 0 0 3.59 2.22 1.11 1.11 0 0 0 1.34-1.73c-1.67-2-4.32-3.31-6.53-4.59a65 65 0 0 0-7.48-3.72 63.9 63.9 0 0 0-16.95-4.57 52.38 52.38 0 0 0-37.56 10c-8 6-14.38 14-19.65 22.33-.2.33.3.61.51.3Z" class="cls-7"/><path d="M204.59 143.76c4.9-12.85 15.38-23 27.75-28.69 11.86-5.47 26.13-7 38.47-2.16a38.4 38.4 0 0 1 9.7 5.62 43 43 0 0 1 4.29 3.93c1.44 1.5 2.6 3.32 4.19 4.64.67.56 2.06.05 1.66-1a15.9 15.9 0 0 0-3.33-4.67 41 41 0 0 0-4-3.84 41.8 41.8 0 0 0-8.92-5.59 45.8 45.8 0 0 0-20.07-4.14 57.68 57.68 0 0 0-38 16 48.5 48.5 0 0 0-12.69 19.67c-.2.61.74.85 1 .26Z" class="cls-7"/><path d="M216.85 114.11a50.76 50.76 0 0 1 27.05-17.23c10.48-2.79 22.18-2.61 32.11 2.05a35.4 35.4 0 0 1 7.59 4.76 38 38 0 0 1 3.29 3.08 46 46 0 0 0 3.34 3.61c.61.5 1.85.05 1.5-.87-1-2.62-3.48-4.9-5.56-6.71a37 37 0 0 0-6.91-4.8 43.7 43.7 0 0 0-16.15-4.83 53.8 53.8 0 0 0-33.29 7.57A43 43 0 0 0 216 113.47c-.33.49.45 1.11.82.64Z" class="cls-7"/><path d="M217.56 106c7.9-9.91 17.16-19.67 28.61-25.45 5.63-2.84 12.28-4.88 18.65-4.6a61.8 61.8 0 0 1 15.37 2.74 29.5 29.5 0 0 1 8.09 3.79 20.5 20.5 0 0 1 5.49 6.34 1.1 1.1 0 0 0 2-.84C294.28 82.8 288.7 79.4 284 77.5a61 61 0 0 0-16.63-3.66c-13.26-1.4-26.17 5.38-35.71 14.09a103.2 103.2 0 0 0-14.92 17.46c-.33.47.44 1.08.8.62ZM313 87.63c11.2-7.54 25.11-7.81 37.63-3.63 12.7 4.24 24.51 12.9 31.41 24.49a40.4 40.4 0 0 1 4.25 9.82 57.6 57.6 0 0 1 1.51 10.62c.07.88 1.49 1.23 1.66.22 1.11-6.45-1.13-13.51-4-19.21a53.2 53.2 0 0 0-13.14-16.2c-10.69-9-24.85-15.09-39-14.64a36.3 36.3 0 0 0-21.14 7.06c-.84.64-.07 2.09.86 1.47Z" class="cls-7"/><path d="M313.39 99.21a36.7 36.7 0 0 1 16.23-10.08 34.34 34.34 0 0 1 17.06-.25C358.63 91.64 369 99.51 376.57 109a75.5 75.5 0 0 1 5.83 8.56c.9 1.51 1.78 3 2.56 4.61s1.38 3.17 2.26 4.65c.5.84 1.59.23 1.47-.62-.43-3.1-2-6.21-3.39-9a51 51 0 0 0-5.27-8.33 67.2 67.2 0 0 0-14.13-13.8c-10-7.2-22.66-11.53-35-8.79a38.56 38.56 0 0 0-19.2 11.29c-1.05 1.09.6 2.74 1.65 1.66Z" class="cls-7"/><path d="M312.77 110.1c11.24-6 23.68-9.56 36.42-7.14 11.69 2.22 21.76 8.73 29.51 17.62 4.81 5.52 8.55 11.82 12.26 18.11.47.8 1.84.28 1.53-.64-4.11-12.32-13.38-23.08-24.21-30.1a49.84 49.84 0 0 0-34.71-7.59 54.2 54.2 0 0 0-21.59 8.4.78.78 0 0 0 .79 1.34" class="cls-7"/><path d="M309 124.67a56.68 56.68 0 0 1 36.16-8.82c12.52 1.14 25.09 6.26 34.14 15.12 5.21 5.1 8.64 11.23 11.55 17.85.53 1.2 2.35.32 2.06-.87-1.56-6.46-5.49-12.3-10-17.07a55.2 55.2 0 0 0-16-11.53 62 62 0 0 0-38.86-5 50.2 50.2 0 0 0-10.54 3.45 41 41 0 0 0-4.89 2.61 39 39 0 0 0-4.35 3.3c-.52.43.16 1.31.73.94Z" class="cls-7"/><path d="M308.4 140.35c6-2.66 11.91-5.26 18.31-6.67a57.3 57.3 0 0 1 18.55-1 49 49 0 0 1 32.48 17.8 57.8 57.8 0 0 1 6.49 10c2.11 4.1 3.65 8.44 5.42 12.68a.82.82 0 0 0 1.58-.43c-1.34-7.8-5.26-15.4-9.94-21.72a52.5 52.5 0 0 0-15.12-13.89c-11.25-6.76-24.8-8.63-37.62-6.28-7.32 1.35-14.79 3.89-20.86 8.28a.7.7 0 0 0 .71 1.21Z" class="cls-7"/><path d="M307.45 157.79c1.58-.54 3.06-1.33 4.62-1.94s3.13-1.14 4.74-1.6a54.6 54.6 0 0 1 9.65-1.9 58.7 58.7 0 0 1 19.8 1.54c12.8 3.22 24.8 10.51 32.87 21 4.57 6 7.35 12.8 9.48 19.94.21.7 1.39.6 1.33-.18-1.07-13.68-11-25.79-21.86-33.37A63.35 63.35 0 0 0 328.72 150a54.3 54.3 0 0 0-11.32 1.85c-3.59 1-7.71 2.44-10.65 4.76-.57.45.05 1.43.7 1.2Z" class="cls-7"/><path d="M310.3 178.68c10.39-6.61 23-7.74 34.73-4.59a63.5 63.5 0 0 1 30.9 19.49 59.5 59.5 0 0 1 6.13 8.11 99 99 0 0 1 4.59 8.85c.31.65 1.28.18 1.12-.47-1.39-5.88-4.87-11.59-8.63-16.27a65.9 65.9 0 0 0-14.22-13.06c-10.38-7.1-23.14-11.6-35.82-10.72a40.6 40.6 0 0 0-19.94 6.71c-1.2.81-.1 2.74 1.14 2ZM307.33 197.18c10.11-5.86 23.14-3.69 33.79-.64a44 44 0 0 1 7.79 2.85 53 53 0 0 1 7.64 4.73 57.1 57.1 0 0 1 12.07 12.22 48.6 48.6 0 0 1 7.77 16.88c.19.77 1.26.42 1.15-.32a41.9 41.9 0 0 0-6.29-15.9 52.6 52.6 0 0 0-11.92-13.28 47.9 47.9 0 0 0-15.9-8.56 77.3 77.3 0 0 0-17.68-3.42c-6.65-.4-13.45.54-19.16 4.19a.73.73 0 0 0 .74 1.26ZM304.83 220c1.45-.72 3-1.29 4.55-1.91a33.5 33.5 0 0 1 4.36-1.5 32.5 32.5 0 0 1 8.55-1 38.14 38.14 0 0 1 16.83 4.56c11.28 5.86 20.51 15.72 27.07 26.49a94.8 94.8 0 0 1 8.17 18.36c.26.75 1.61.7 1.49-.2-.75-6.16-3.5-12-6.5-17.37a81.1 81.1 0 0 0-12-16.28c-8.74-9.14-20.32-17-33.27-17.84a30.2 30.2 0 0 0-10.18 1 33.6 33.6 0 0 0-5 1.85 23.4 23.4 0 0 0-4.67 3.14c-.42.34.12.93.55.71ZM185.44 81a5.3 5.3 0 0 1-4-1.18c-.74-.57-1.66-1.58-.85-2.45 1.21-1.37 4.07-1.37 5.71-1.57a43.4 43.4 0 0 1 6.14-.18c8.64.33 17.22 2.88 25.09 6.36a20.6 20.6 0 0 1 3.34 1.7c1 .69 2 1.4 3 2.11 2 1.45 4 3 6.1 4.32.91.54 2-.76 1.15-1.5a67 67 0 0 0-6.12-4.69c-1-.72-2-1.42-3-2.11a21 21 0 0 0-3.7-1.87A85 85 0 0 0 203.81 75a56 56 0 0 0-15.08-1.61 33.5 33.5 0 0 0-7.06.95c-1.61.43-3.35 1.47-3.58 3.27-.5 3.84 4.83 5.87 7.85 5.15 1.21-.29.68-2-.5-1.84ZM377.33 98.3a66.14 66.14 0 0 1 39.12.41c1.28.41 1.82-1.6.55-2a68.13 68.13 0 0 0-40.23-.43 1.05 1.05 0 0 0 .56 2ZM174.55 90.71c1.44 1.84 4.28 1.75 6.36 1.52 3.16-.36 6.25-1.15 9.37-1.76 2.53-.49 5.77-1.33 8.3-.39 2.91 1.07 1.49 4.49 0 6.21-2.36 2.75-5.76 4.33-8.57 6.55a12.8 12.8 0 0 0-3.4 3.81c-1.19 2.22-1 4.57-.92 7a16.3 16.3 0 0 1-.22 4.35c-.15.62-.55 1.26-.41 1.91a11.5 11.5 0 0 0 1.12 2.17 33 33 0 0 1 2.82 8.18c1.25 6.25-.28 12.38-1.69 18.46-.76 3.3-1.51 6.61-1.94 10a51 51 0 0 0-.06 10.76c.63 7.15 2.07 14.29 1.12 21.48-.2 1.47 2.12 1.46 2.31 0 1.29-9.86-1.93-19.58-1.35-29.44.28-4.91 1.55-9.68 2.62-14.46 1-4.57 2-9.2 1.63-13.9a35.6 35.6 0 0 0-4.49-14.1l.11.88a14.7 14.7 0 0 0 .77-5.59c0-1.73-.39-3.71.13-5.4a10.4 10.4 0 0 1 4-4.87c3.47-2.65 8.1-4.77 9.58-9.21 1.13-3.39-.55-6.31-4.09-6.77-3.78-.49-7.77.7-11.44 1.5a45 45 0 0 1-6.43 1.09c-1.4.09-3.29.29-4.37-.82-.56-.57-1.31.26-.85.85ZM414 106.63c-4.2-.83-9.51.26-12.47 3.57a5.16 5.16 0 0 0-1.35 4.94c.72 2.36 3.08 3.89 5.18 4.89a7 7 0 0 1 1.65.8 6.2 6.2 0 0 1 .91 1.07 16 16 0 0 1 1.48 2.42 33.6 33.6 0 0 1 2 5.31c1.08 3.52 2 7.22 4.38 10.13a11.6 11.6 0 0 0 5.11 3.55 16.2 16.2 0 0 0 3.9.84c1.54.16 3.32.35 4.74-.35a1.07 1.07 0 0 0-.25-1.93 13.6 13.6 0 0 0-3.73-.29 15 15 0 0 1-3.25-.57 9.13 9.13 0 0 1-4.06-2.42c-2.19-2.28-3.06-5.52-4-8.46-1-3.27-2-6.66-4-9.46a10 10 0 0 0-1.72-2c-1.07-.84-2.6-1.17-3.76-1.94s-2.63-2.09-2-3.65 2.48-2.69 4-3.33a16.2 16.2 0 0 1 7-1.15 1 1 0 0 0 .26-2Z" class="cls-7"/><path d="M412.79 137.59c-3.16 7.65-4.44 15.75-5.72 23.86-1.23 7.77-2.73 15.56-6.51 22.54a48 48 0 0 1-4 6.2c-.83 1.09-1.74 2.12-2.62 3.17a15.2 15.2 0 0 0-2.65 3.39c-.23.52.17 1.36.84 1.1 2.18-.83 4-3.08 5.42-4.81a47.6 47.6 0 0 0 4.07-5.6 49.1 49.1 0 0 0 5.07-11.44c2.34-7.7 3-15.77 4.52-23.64a73.4 73.4 0 0 1 4.06-14c.63-1.54-1.86-2.2-2.48-.69ZM225.81 99.6C233 92.55 242.68 88 252.49 86c9.54-2 20.25-1.82 28.8 3.35a25.7 25.7 0 0 1 6.11 5.13 39.3 39.3 0 0 1 4.6 7.42.93.93 0 0 0 1.69-.71c-1.56-4.88-5.41-9.27-9.5-12.22a32 32 0 0 0-13.78-5.4c-10.64-1.65-21.71.75-31.28 5.48a47.4 47.4 0 0 0-13.85 10 .37.37 0 0 0 .52.52Z" class="cls-7"/><path d="M226 107.63a54.44 54.44 0 0 1 26.71-7.82c8.94-.23 18.24 1.93 25.19 7.8a30 30 0 0 1 5 5.42 30 30 0 0 1 2 3.26 37 37 0 0 0 1.95 3.87c.42.6 1.66.49 1.56-.42-.29-2.38-1.83-4.8-3.13-6.78a28.8 28.8 0 0 0-4.58-5.45 33.3 33.3 0 0 0-11.92-6.93c-9.18-3.12-19.34-2.91-28.64-.42a50 50 0 0 0-14.71 6.61c-.53.35-.05 1.19.5.86Z" class="cls-7"/><path d="M203.1 150.25c6.37-12.11 16-23.13 28.12-29.7 11.07-6 24.24-7.74 36-2.78 7.63 3.2 13.94 8.77 19 15.2.69.87 1.9-.36 1.22-1.22-8.81-11.13-21.45-19-36-18.64-13.38.37-25.91 7.24-35.21 16.56a69.2 69.2 0 0 0-13.88 20.18c-.21.46.44.86.68.4Z" class="cls-7"/><path d="M203 167.4a53.94 53.94 0 0 1 27.29-27.56c11.69-5.44 25.61-7.06 37.89-2.64a38.5 38.5 0 0 1 9.41 5 36 36 0 0 1 4.3 3.62c1.42 1.39 2.6 3 4.11 4.31a.74.74 0 0 0 1.15-.89 16.4 16.4 0 0 0-3.38-4.24 41 41 0 0 0-3.86-3.43 40 40 0 0 0-8.64-5.14 45.3 45.3 0 0 0-19.47-3.6 57.36 57.36 0 0 0-36.88 15.43 45.2 45.2 0 0 0-12.49 18.93c-.1.33.43.57.57.24Z" class="cls-7"/><path d="M201.51 198.37c1.55-14.37 11.22-26.26 23.34-33.5 11.74-7 26.52-10.37 40-7.13a36.1 36.1 0 0 1 10 4 31.3 31.3 0 0 1 4.48 3.18c1.44 1.23 2.65 2.67 4.09 3.89a.9.9 0 0 0 1.4-1.08c-1.66-2.94-4.83-5.29-7.62-7.11a37 37 0 0 0-9.13-4.26 48.4 48.4 0 0 0-21.1-1.48c-14.43 2-28.72 9.33-37.67 21a40.84 40.84 0 0 0-8.51 22.52c0 .48.68.46.73 0Z" class="cls-7"/><path d="M200.19 219.83c2.44-14 11.45-26.22 23.1-34.05 11.46-7.7 26-11.84 39.72-9.46a42.2 42.2 0 0 1 10.87 3.37 62.6 62.6 0 0 1 10.12 6.59c.88.65 1.83-.73 1.13-1.47a32.8 32.8 0 0 0-9.18-6.39 43.6 43.6 0 0 0-9.9-3.58 51.1 51.1 0 0 0-21.26-.18 60.68 60.68 0 0 0-36.42 22.76 46.8 46.8 0 0 0-9.11 22.29c-.06.52.83.64.92.12Z" class="cls-7"/><path d="M198.84 242.64a59 59 0 0 1 9.8-16.57A77.4 77.4 0 0 1 224 211.62c10.8-7.72 24.57-13.64 38.1-11.74a31.8 31.8 0 0 1 10.15 3.18c3.54 1.82 6.29 4.36 9.25 7 .74.65 2.13-.23 1.45-1.11-4.13-5.37-11-9-17.49-10.48a42.46 42.46 0 0 0-20.13.67c-14.12 3.68-27 12.71-36.42 23.72a54 54 0 0 0-11.05 19.54c-.19.64.76.89 1 .28Z" class="cls-7"/><path d="M213.35 245.62c6.1-6.25 13.7-11.08 21.52-14.87 8.48-4.11 17.75-7.31 27.23-7.8a34.8 34.8 0 0 1 7.07.29 25 25 0 0 1 3.21.72 14 14 0 0 0 3 .8.72.72 0 0 0 .51-1.22c-1.33-1.28-3.61-1.66-5.37-2a33 33 0 0 0-6.27-.58 52.6 52.6 0 0 0-13.88 2 89.4 89.4 0 0 0-27.1 12.54 47.2 47.2 0 0 0-10.61 9.42c-.38.49.25 1.18.71.71ZM313.47 106.6c6.45-6.08 16-8.5 24.63-9.27 9.48-.84 19.66.19 28.31 4.38a30 30 0 0 1 6.19 3.9 37 37 0 0 1 4.69 5c.51.62 1.38-.17 1.06-.81-1.92-3.85-5.85-6.73-9.54-8.75a45.8 45.8 0 0 0-13.7-4.67c-9.85-1.8-20.63-1.42-30.13 1.91a30.8 30.8 0 0 0-12.38 7.44.62.62 0 0 0 .87.87" class="cls-7"/><path d="M318.47 118c14.24-8.65 33.14-11.63 47.8-2.27 5 3.2 8.69 7.58 12.42 12.14.47.58 1.36-.16 1-.78-4.9-8.65-14.12-15.17-23.68-17.6a46.2 46.2 0 0 0-25.7 1.36 51.4 51.4 0 0 0-12.46 6.12c-.64.42-.06 1.44.61 1Z" class="cls-7"/><path d="M310.94 134c7.75-8.65 20.36-10.51 31.39-9.85 12.41.75 25.4 4.71 35.33 12.34a33.3 33.3 0 0 1 11.08 14.11.55.55 0 0 0 1.07-.29c-1.11-5.33-4.85-10.22-8.89-13.72a56 56 0 0 0-16.53-9.59c-12-4.66-26.25-6.67-38.9-3.4-6 1.56-11.88 4.48-15.72 9.52-.51.67.61 1.53 1.17.9Z" class="cls-7"/><path d="M309.87 154.18c-1.18-3.65 3.19-5.77 5.81-7.1a48.5 48.5 0 0 1 8.05-3.19 51.15 51.15 0 0 1 48 10.22 42 42 0 0 1 6.39 7c1.94 2.72 3.41 5.74 5.26 8.51a.47.47 0 0 0 .86-.36 23.2 23.2 0 0 0-3.89-8.56 47.4 47.4 0 0 0-5.89-7.15 48.3 48.3 0 0 0-15.24-10 53.92 53.92 0 0 0-36.22-1.88 49.3 49.3 0 0 0-9.6 4.25c-3 1.69-6.67 4.86-4.27 8.59.25.39.93.15.78-.33Z" class="cls-7"/><path d="M306.67 168.79a60 60 0 0 1 34.87-8.35c11.67.85 23.36 5.36 31.54 13.92a38.2 38.2 0 0 1 5.87 8c1.74 3.16 2.74 6.56 4.12 9.87.31.72 1.61.75 1.53-.21a26.7 26.7 0 0 0-3.06-9.32 40.8 40.8 0 0 0-5.09-7.73 44 44 0 0 0-14.34-11.15c-11.25-5.55-24.4-6.84-36.66-4.43a50.2 50.2 0 0 0-19.52 8.16c-.75.54-.09 1.75.74 1.26Z" class="cls-7"/><path d="M308.52 189.34a46.6 46.6 0 0 1 16.56-8.06 45.1 45.1 0 0 1 18.4-.43 53.14 53.14 0 0 1 31.69 18.36 45.2 45.2 0 0 1 8.83 18.71c.21.89 1.75.72 1.64-.22-1.51-12.92-10.83-24.08-21.49-30.88-10.84-6.92-24.31-10.26-37.07-8-7.13 1.26-14.11 4.43-19.13 9.74-.36.38.13 1.1.59.76Z" class="cls-7"/><path d="M307.58 208a44.92 44.92 0 0 1 32.52-3.81 47 47 0 0 1 31.6 26c.68 1.48 1.27 3 1.81 4.53s.88 3.18 1.49 4.71a.6.6 0 0 0 1.18-.16 24.4 24.4 0 0 0-1.93-8.64 41.5 41.5 0 0 0-3.9-7.84 48.6 48.6 0 0 0-12-12.65 50.28 50.28 0 0 0-32.71-9.72 43.7 43.7 0 0 0-19 5.9 1 1 0 0 0 1 1.67ZM303.38 229.63c7.52-8.59 19.64-8 29.57-4.58a63.6 63.6 0 0 1 29.23 21.09A33.9 33.9 0 0 1 369 261.4c.12.8 1.36.57 1.38-.19.1-5.21-2.43-10.18-5.32-14.36a60 60 0 0 0-12.91-13.33c-9.45-7.29-21.82-13.49-34.08-12.69a22 22 0 0 0-15.77 7.7c-.63.76.43 1.85 1.1 1.1ZM418.28 100.21a7.34 7.34 0 0 0 3.12 2.64 7 7 0 0 0 2.1.61 4.25 4.25 0 0 0 2-.33.56.56 0 0 0-.14-1.09c-.58-.05-1.08-.15-1.61-.24a9 9 0 0 1-1.69-.44 5.9 5.9 0 0 1-2.46-1.93.78.78 0 0 0-1.34.78ZM470.46 109.76v1.81a8 8 0 0 0 .12 1.12 8 8 0 0 0 .16.86.93.93 0 0 0 .89.68.94.94 0 0 0 .89-.68 8 8 0 0 0 .16-.86 8 8 0 0 0 .12-1.12v-1.81a1.2 1.2 0 0 0-1.19-1.18 1.21 1.21 0 0 0-1.19 1.18ZM297.37 194.81a10.3 10.3 0 0 0-3.58-1.43 9.5 9.5 0 0 0-3.82.14c-2.5.64-5.08 2.5-5.91 5a1 1 0 0 0 1.59.92c.83-.83 1.51-1.81 2.41-2.57a7 7 0 0 1 2.55-1.34 12.74 12.74 0 0 1 6.37.21.52.52 0 0 0 .39-.94ZM289.84 157.16a7.67 7.67 0 0 1 6.67-3.52 9.4 9.4 0 0 1 3.74.93 24.6 24.6 0 0 1 3.48 2.34c.8.55 1.78-.53 1.3-1.31-1.67-2.76-5.6-4.19-8.7-4.16a9.34 9.34 0 0 0-4.51 1.15 7.68 7.68 0 0 0-3.29 3.8.76.76 0 0 0 1.31.77M292.05 182.73a10.13 10.13 0 0 1 11.12 5.66c.64 1.4.62 3 1.29 4.34a.69.69 0 0 0 1.17 0c.88-1.66.12-3.72-.67-5.28a11.44 11.44 0 0 0-3.35-4 10.48 10.48 0 0 0-9.84-1.78.53.53 0 0 0 .28 1ZM166.34 123.19a15.23 15.23 0 0 0 14.25-1l-1.13-1.46a12.54 12.54 0 0 0-4.06 9.09c-.13 3.75 1.26 7.16 1.92 10.79 1.63 8.87 1 17.93 1.55 26.88.33 4.94.92 10.06 2.83 14.65.43 1 2.07.68 1.75-.48a71.6 71.6 0 0 1-2.36-12.38c-.38-4.26-.45-8.54-.56-12.81a126 126 0 0 0-.75-12.58 54 54 0 0 0-1.1-6.2 50 50 0 0 1-1.22-4.94c-.55-4 .25-7.94 3.32-10.7a.94.94 0 0 0-1.13-1.47 14.37 14.37 0 0 1-12.75 1.32c-.76-.28-1.3 1-.56 1.31ZM406 191.86a82.7 82.7 0 0 0 11.22-20.14 83.6 83.6 0 0 0 3.41-11.27c.43-1.88.78-3.78 1.07-5.69a16 16 0 0 1 1.24-5c1.67-3.32 4.71-4.69 8-6 .79-.32.77-1.61-.21-1.58a11 11 0 0 0-7.67 4.07 12.9 12.9 0 0 0-2.35 4.09 31.3 31.3 0 0 0-1 5.44 86.7 86.7 0 0 1-7.49 23.62 79 79 0 0 1-7.06 12c-.38.53.48 1 .86.51ZM432.4 116.89c-2 3.15-4.13 6.62-4.49 10.44a9.66 9.66 0 0 0 4.45 9 1 1 0 0 0 1.19-1.54 15.7 15.7 0 0 1-2.95-3.79 7.8 7.8 0 0 1-.52-4.06c.38-3.31 2.2-6.38 3.89-9.18.61-1-.94-1.89-1.57-.91ZM90.44 225.3c6.54-2.26 13.65-2.51 20.48-1.68a68.8 68.8 0 0 1 24 7.65c4.83 2.57 9.21 5.83 13.77 8.82.82.54 1.64-.63 1-1.31a47.7 47.7 0 0 0-12.09-8.93 74 74 0 0 0-12.6-5.53 60.4 60.4 0 0 0-23.9-3 41.4 41.4 0 0 0-11.1 2.37c-1 .38-.59 2 .44 1.61" class="cls-7"/><path d="M94.73 215.22a46.2 46.2 0 0 1 19.41 1.51 34 34 0 0 1 8.9 3.85 26.3 26.3 0 0 1 3.71 2.93c.53.49 1 1 1.57 1.49a12 12 0 0 1 1.93 1.78.43.43 0 0 0 .79-.22c-.28-6.24-.32-12.44-1.77-18.55-.2-.84-1.64-.68-1.53.2.74 6.12 2.11 12.2 2.45 18.35l.8-.21a23 23 0 0 0-1.75-3.36 16.2 16.2 0 0 0-2.77-2.72 29.6 29.6 0 0 0-6.9-4 40.2 40.2 0 0 0-16.41-3.12 51.4 51.4 0 0 0-8.74 1c-.75.15-.42 1.24.31 1.13ZM474.75 134.7c1.29 9.44 2.71 18.9 2.67 28.46 0 8.94-1.31 18.72-7 26-3.41 4.3-8.18 7-13.25 8.93a1 1 0 0 0 .54 2c9.92-2.18 17-10 19.9-19.45 3-9.65 2.49-20.16 1.4-30.08-.6-5.46-1.45-10.88-2.25-16.31-.19-1.31-2.15-.74-2 .55Z" class="cls-7"/><path d="M466.57 151.33c-5.14 4.48-10.8 9.35-12.67 16.22-1.46 5.34-.09 10.91 1.23 16.13.48 1.89 1 3.78 1.45 5.67a36.6 36.6 0 0 0 2 6.76c.41.88 1.74.4 1.75-.47 0-3.67-1.35-7.42-2.29-10.95-.75-2.8-1.52-5.61-2-8.48a19.62 19.62 0 0 1 2.9-14.13 58.7 58.7 0 0 1 8.32-10c.48-.47-.23-1.16-.72-.73Z" class="cls-7"/><path d="M462.15 172.94a3.47 3.47 0 0 0 1.41 4.74 3 3 0 0 0 1.58.36 1.06 1.06 0 0 0 1-1l.05-1.31a4.4 4.4 0 0 0 0-.63 2.7 2.7 0 0 0-.12-.85 1 1 0 0 0-.78-.67.93.93 0 0 0-.93.45c0 .08-.07.15-.1.23a1.6 1.6 0 0 0-.1.45 3 3 0 0 1 0 .32V177l1-1a1.8 1.8 0 0 1-.46 0h.27l-.28-.07c-.12 0-.34-.16 0 0l-.24-.13-.12-.08c-.07-.05-.16-.16.07.06-.13-.13-.26-.25-.38-.39s.15.21 0 .07l-.07-.11c-.05-.08-.1-.16-.14-.24l-.06-.11c-.09-.19.09.22 0 .06a2 2 0 0 1-.08-.24 3 3 0 0 1-.05-.27v.08-.37c0-.08-.05.28 0 .07v-.14c0-.1.16-.33 0 0l.14-.26a1 1 0 0 0-.34-1.32 1 1 0 0 0-1.33.35Z" class="cls-7"/><path d="M477.73 158.63c1.55 7.86-.88 15.86 0 23.75a44 44 0 0 1-.29 11 91.7 91.7 0 0 1-7.77 25.68c-3.77 8.29-8.48 16.38-14.68 23.1-4.6 5-10.77 10.09-17.77 10.49-7.85.45-13.9-5.5-17.91-11.71a27.6 27.6 0 0 0-2.48-3.3 1 1 0 0 0-1.74 1 22.7 22.7 0 0 0 4.16 7.1 31 31 0 0 0 4.75 5 20 20 0 0 0 10.06 4.64c7.54 1 14.53-3.22 19.88-8.14 6.88-6.34 12.11-14.49 16.28-22.8a100.6 100.6 0 0 0 9.27-27.22 52.3 52.3 0 0 0 .91-12.11c-.13-2.45-.58-4.83-.59-7.3 0-4.41.5-8.83.19-13.24a26 26 0 0 0-1.31-6.21.53.53 0 0 0-1 .29ZM278.08 284.5a2.64 2.64 0 0 0-1.78 1.34 3.2 3.2 0 0 0-.35 1.22 2.6 2.6 0 0 0 .27 1.28 1 1 0 0 0 .9.52 2.73 2.73 0 0 0 2.21-1 3.8 3.8 0 0 0 .69-1.18 3 3 0 0 0 .11-.43 1.8 1.8 0 0 0 0-.46 4 4 0 0 0-.06-.47 1.47 1.47 0 0 0-.42-.82 2 2 0 0 0-.54-.37.78.78 0 0 0-.74 0 .69.69 0 0 0-.36.63 2 2 0 0 1 0 .33v-.24a3 3 0 0 0-.06.53 1.3 1.3 0 0 1 0 .34v-.29c0 .19-.05.37-.07.56v-.29a2.2 2.2 0 0 1-.16.56l.28-.26a2 2 0 0 1-.29.52l.17-.22a3.6 3.6 0 0 1-.39.39l.21-.17a1.7 1.7 0 0 1-.37.22l.25-.11a1.6 1.6 0 0 1-.42.12h.28-.28l.91.51a.5.5 0 0 1-.07-.13l.11.25a1.5 1.5 0 0 1-.1-.36v.28a2 2 0 0 1 0-.48v.27a1.6 1.6 0 0 1 .13-.47l-.11.24a2.2 2.2 0 0 1 .25-.42l-.16.2a2.4 2.4 0 0 1 .32-.32l-.2.15a1.5 1.5 0 0 1 .35-.2l-.23.09.25-.08a.94.94 0 0 0 .66-1.15 1 1 0 0 0-.44-.56 1.05 1.05 0 0 0-.72-.09ZM279.46 309.21l-.19-.06.29.12a1.1 1.1 0 0 1-.28-.16l.25.19a1.1 1.1 0 0 1-.19-.19l.19.25a1.6 1.6 0 0 1-.13-.22l.13.29a1.4 1.4 0 0 1-.08-.27l.05.33a.9.9 0 0 1 0-.33l-.05.33a1.4 1.4 0 0 1 .1-.35l-.13.29a1.7 1.7 0 0 1 .17-.29l-.19.26a.8.8 0 0 1 .18-.19l-.25.19a1 1 0 0 1 .17-.1l-.3.13.16-.05-.33.05h.15l-.34-.05.16.05-.31-.13a1 1 0 0 1 .17.1l-.26-.2a.4.4 0 0 1 .12.11l-.2-1.54-.15.33a1.1 1.1 0 0 0 0 .57.74.74 0 0 0 .09.36 1.1 1.1 0 0 0 .3.46l.11.13-.21-.28.09.14a1.57 1.57 0 0 0 .59.61l.3.18a1.06 1.06 0 0 0 .55.15.86.86 0 0 0 .41-.1.8.8 0 0 0 .35-.22 1.07 1.07 0 0 0 .28-.48 1.6 1.6 0 0 0 .07-.23v-.1a.6.6 0 0 0 0-.19.4.4 0 0 0 0-.19v-.42c-.07-.17-.14-.35-.23-.52a.8.8 0 0 0-.1-.18 1.67 1.67 0 0 0-.85-.66h-.38a1.4 1.4 0 0 0-.71.2l1.54.2a.3.3 0 0 0-.08-.07 2 2 0 0 0-.33-.25l-.07-.05-.38-.16h-.93a1.5 1.5 0 0 0-.29.11 1.2 1.2 0 0 0-.28.13l-.31.24-.06.06a2.6 2.6 0 0 0-.3.37 2.3 2.3 0 0 0-.29.59 2.7 2.7 0 0 0-.14.68 1 1 0 0 0 0 .18v.1c0 .13 0 .27.06.4a1 1 0 0 0 0 .18c.05.13.1.25.16.37v.09a.2.2 0 0 1 .05.08 4 4 0 0 0 .25.31.7.7 0 0 0 .15.14 1.8 1.8 0 0 0 .42.3 3 3 0 0 0 .38.17h.25a.87.87 0 0 0 .48 0 .9.9 0 0 0 .44-.14 1 1 0 0 0 .34-.31.9.9 0 0 0 .21-.41l.05-.32a1.16 1.16 0 0 0-.17-.6l-.19-.25a1.2 1.2 0 0 0-.53-.31ZM434.38 151.66c1.67 4.05 6.32 7.08 10.17 8.75a19.2 19.2 0 0 0 8.3 1.71 15.4 15.4 0 0 0 4.56-.85 9.4 9.4 0 0 0 4.21-2.42c.38-.47 0-1.38-.65-1.13-1.4.51-2.58 1.44-4 1.94a13.8 13.8 0 0 1-4.12.79 17.8 17.8 0 0 1-7.77-1.57 23 23 0 0 1-6.05-3.81 11.4 11.4 0 0 1-3.18-3.82c-.37-.88-1.84-.5-1.47.41" class="cls-7"/><path d="M425.1 176.78a25.9 25.9 0 0 0 5.43 15.22c3.15 4.25 7.48 8.07 12.69 9.45 2.51.66 6 1 8.21-.61.6-.44.47-1.58-.42-1.53-1.45.08-2.85.47-4.32.45a13.3 13.3 0 0 1-4-.74 20.8 20.8 0 0 1-7.73-5.08c-4.45-4.45-7.88-10.76-8.12-17.15a.85.85 0 0 0-1.7 0ZM420 194.14a26.53 26.53 0 0 0 .06 17 38.3 38.3 0 0 0 9.48 15c1 1 2.34-.46 1.49-1.49-3.56-4.33-6.93-8.78-8.86-14.1a27.74 27.74 0 0 1-1.07-16.12.57.57 0 0 0-1.1-.3ZM437.92 138.05c-.4 3.64 1.59 7.12 4.14 9.57s6.29 4.61 10 4.48c1.19 0 1.59-2 .3-2.19a15.7 15.7 0 0 1-8.48-4c-2.18-2-3.86-4.82-3.54-7.9a1.2 1.2 0 0 0-1.2-1.2 1.22 1.22 0 0 0-1.2 1.2ZM185.45 253.57l.28-.25c.09-.08.41-.31.06-.06a3 3 0 0 1 .42-.28l.18-.09c.14-.08-.32.11-.16.07h.09a2.3 2.3 0 0 1 .36-.08h-.32c.42 0 .83-.08 1.24-.16a3.13 3.13 0 0 0 1.54-.85.65.65 0 0 0-.28-1.08c-.13 0-.25-.08-.37-.12l-.35-.06c-.19 0 .25 0 0 0s-.54-.1-.82-.12h-.48a3 3 0 0 0-.58 0 4.47 4.47 0 0 0-2.47 1.4 1.19 1.19 0 0 0 0 1.66 1.21 1.21 0 0 0 1.66 0ZM194.45 266.57l.28-.25c.09-.08.41-.31.06-.06a3 3 0 0 1 .42-.28l.18-.09c.14-.08-.32.11-.16.07h.09a2.3 2.3 0 0 1 .36-.08h-.32c.42-.05.83-.08 1.24-.16a3.13 3.13 0 0 0 1.54-.85.65.65 0 0 0-.28-1.08c-.13 0-.25-.08-.37-.12l-.35-.06c-.19 0 .25 0 0 0s-.54-.1-.82-.12h-.48a3 3 0 0 0-.58 0 4.47 4.47 0 0 0-2.47 1.4 1.19 1.19 0 0 0 0 1.66 1.21 1.21 0 0 0 1.66 0ZM128 158.7a173.9 173.9 0 0 1 6 53.57q-.17 3.76-.5 7.51c-.11 1.25-.24 2.5-.38 3.74a14.6 14.6 0 0 0-.21 3.73.83.83 0 0 0 1.5.19c.82-1.88.78-4.23 1-6.25.22-2.27.4-4.54.52-6.81q.39-6.93.2-13.87a153 153 0 0 0-3.13-27.08c-1.06-5.06-2.35-10.08-3.87-15a.55.55 0 0 0-1.07.29ZM237.26 91.13a10 10 0 0 1 2 .85c.63.35 1.31.61 1.95 1s1.27.71 1.87 1.1a4 4 0 0 0 2 .91.56.56 0 0 0 .54-.71 3.24 3.24 0 0 0-1.62-1.67 20 20 0 0 0-2-1.09 10.4 10.4 0 0 0-2.14-.85l-2.26-.5a.5.5 0 0 0-.26 1ZM251.51 99.93a38.6 38.6 0 0 1 11.17 5.57c1.66 1.14 3.26 2.35 4.86 3.57.9.68 1.81 1.37 2.68 2.08a7.7 7.7 0 0 0 2.31 1.69.35.35 0 0 0 .42-.41 4.45 4.45 0 0 0-1.82-2.18c-.81-.68-1.67-1.3-2.52-1.93-1.76-1.31-3.53-2.6-5.35-3.81a39.8 39.8 0 0 0-11.48-5.57.51.51 0 0 0-.27 1ZM337.8 115a24 24 0 0 1 3.72-2.7c.66-.39 1.33-.75 2-1.07a19 19 0 0 0 2.06-1.08.49.49 0 0 0-.37-.89 12.5 12.5 0 0 0-4.43 1.94 25 25 0 0 0-3.89 2.91c-.61.54.28 1.42.89.89ZM356.71 103.53q1.55-.86 3.15-1.59c1.06-.49 2.1-1 3.12-1.59a.38.38 0 0 0-.29-.7 14 14 0 0 0-3.39 1.22c-1.07.54-2.11 1.12-3.12 1.75a.53.53 0 0 0 .53.91M372.72 105.53a30 30 0 0 1-3.82 1.11 12.5 12.5 0 0 0-3.77 1.56.72.72 0 0 0 .55 1.31c.7-.15 1.18-.19 1.78-.32s1.41-.32 2.11-.53a32 32 0 0 0 3.91-1.33 1 1 0 0 0-.76-1.8M382.75 105.58c4.23-1.32 8.5-2.65 12.84-3.58a76 76 0 0 1 13.41-1.43c.49 0 .65-.81.12-.89a36.9 36.9 0 0 0-13.23.81 91.6 91.6 0 0 0-13.44 4.07c-.63.24-.38 1.23.28 1ZM191.17 82.43a73 73 0 0 1 18 4.61c5.86 2.31 10.93 5.63 16 9.22.89.63 2-.79 1.17-1.51a55.3 55.3 0 0 0-16.53-9.41 57 57 0 0 0-18.73-3.68c-.5 0-.47.71 0 .77ZM235.24 103.25a35.7 35.7 0 0 1 6.3 2.51 32 32 0 0 1 2.88 1.71 15 15 0 0 0 2.91 1.84c.66.24 1.18-.59.87-1.14a7.8 7.8 0 0 0-2.66-2.4 24.5 24.5 0 0 0-3.19-1.81 25 25 0 0 0-3.34-1.34 21 21 0 0 0-3.59-.69c-.77-.1-.88 1.12-.18 1.32M252.55 114.53a44.7 44.7 0 0 0 13.92 10.26c5 2.39 10.91 4.41 16.56 4.15.58 0 .76-.93.14-1.06-5.52-1.2-10.9-2.16-16.06-4.59a50.9 50.9 0 0 1-13.77-9.55.56.56 0 0 0-.79.79M454.09 78.29a10.3 10.3 0 0 1-3.36 1.54 33 33 0 0 1-3.71.63.64.64 0 0 0-.47.62.65.65 0 0 0 .47.62 6.66 6.66 0 0 0 4.25-.13 10.2 10.2 0 0 0 3.66-2.2c.58-.5-.21-1.55-.84-1.08" class="cls-7"/></g></svg>